<svg xmlns="http://www.w3.org/2000/svg" xmlns:xlink="http://www.w3.org/1999/xlink" version="1.1" baseProfile="full" viewBox="0 0 200 200" width="200" height="200">
<g fill="black">
<path d="M 60.6 17.8 L 62.8 20.6 L 59.26243181228638 21.42122116088867 L 56.5 28.9 L 52.1 39.8 L 47.6 50.4 L 42.8 60.8 L 37.8 71.0 L 36.74046506881714 73.05674419403076 L 42.4 74.0 L 45.4 76.0 L 42.4 77.8 L 42.4 183.0 L 30.4 189.0 L 30.4 84.91454544067383 L 27.2 90.5 L 21.5 99.8 L 15.5 108.8 L 9.1 117.4 L 7.6 116.5 L 12.2 106.9 L 16.8 97.2 L 21.4 87.4 L 25.8 77.5 L 30.1 67.4 L 34.3 57.1 L 38.3 46.6 L 42.1 36.0 L 45.8 25.1 L 49.2 14.0 L 49.21807231903076 14.006024074554443 L 49.7 12.5 Z M 129.1 181.8 L 111.9 178.2 L 99.8 173.3 L 91.9 168.2 L 87.1 163.9 L 84.8 161.7 L 83.8 161.1 L 79.6 163.0 L 75.4444444656372 166.29206352233888 L 74.3 167.6 L 72.3 170.2 L 70.3 172.9 L 68.3 175.7 L 66.69171190261841 178.03201780319213 L 68.0 181.9 L 64.4 181.6 L 53.7 175.9 L 54.9 174.3 L 57.7 171.4 L 60.5 168.8 L 63.3 166.3 L 66.2 164.0 L 69.1 161.9 L 72.0 160.0 L 75.0 158.3 L 78.0 156.9 L 79.0 156.54516124725342 L 79.0 88.5 L 56.7 88.5 L 56.7 84.5 L 79.0 84.5 L 84.5 79.5 L 95.0 88.5 L 90.0 92.0 L 90.0 156.1979166984558 L 92.3 157.3 L 97.2 160.5 L 104.2 164.1 L 114.8 167.5 L 130.5 170.1 L 152.6 170.8 L 182.4 169.0 L 193.1 168.0 L 183.6 182.1 L 152.6 183.4 Z M 161.2454545021057 20.67272729873657 L 161.5 41.8 L 162.3 64.6 L 162.89951457977295 74.1 L 167.2 74.1 L 177.2 64.1 L 189.2 74.1 L 189.2 78.1 L 163.15194177627563 78.1 L 163.6 85.2 L 165.5 103.4 L 166.55476503372194 110.29992122650147 L 167.7 107.1 L 170.8 97.0 L 173.4 86.2 L 173.43966102600098 86.20983047485352 L 173.9 84.5 L 185.1 89.1 L 187.5 91.8 L 183.91627616882323 92.88791618347167 L 181.6 100.3 L 177.8 110.8 L 173.5 120.6 L 169.82283687591553 127.71961364746093 L 170.8 132.1 L 174.1 142.2 L 177.7 149.0 L 177.95782175064087 149.28277225494384 L 182.8 128.3 L 184.8 128.3 L 182.88067798614503 153.25118646621704 L 183.0 153.3 L 187.1 155.3 L 188.7 159.5 L 186.7 163.6 L 182.5 165.2 L 174.1 162.3 L 167.8 155.8 L 163.0 146.8 L 161.20166463851928 141.35766944885253 L 158.1 145.7 L 152.1 152.5 L 145.6 158.6 L 138.7 163.7 L 131.4 168.0 L 130.4 166.5 L 136.3 160.8 L 141.8 154.8 L 147.0 148.3 L 151.9 141.2 L 156.4 133.6 L 158.07970294952392 130.24059410095214 L 156.1 121.3 L 153.6 104.9 L 151.7 86.2 L 151.16000003814696 78.1 L 92.0 78.1 L 92.0 74.1 L 127.33636360168457 74.1 L 127.8 72.4 L 128.5 69.0 L 129.1 65.7 L 130.3 59.3 L 130.8 56.3 L 131.2 53.3 L 131.6 50.4 L 131.9 47.6 L 132.0274335861206 45.81592922210693 L 131.9 45.8 L 132.092857170105 44.9 L 132.1 44.8 L 132.1136652946472 44.80289516448975 L 132.5 43.0 L 143.9 47.3 L 146.4 49.9 L 142.35644702911378 51.27191972732544 L 140.4 56.0 L 139.0 58.9 L 137.5 61.8 L 135.9 64.8 L 134.2 67.7 L 132.4 70.6 L 130.3 73.4 L 129.8800000190735 74.1 L 150.89333333969117 74.1 L 150.3 65.2 L 149.5 42.0 L 149.4868525505066 40.9 L 96.9 40.9 L 96.9 36.9 L 116.8 36.9 L 116.8 14.0 L 128.8 16.0 L 131.8 18.0 L 128.8 19.8 L 128.8 36.9 L 131.3181818008423 36.9 L 139.5 27.9 L 149.4383810043335 36.84454288482666 L 149.2119402885437 17.89900493621826 L 149.2 17.9 L 149.2 14.5 L 161.2 16.9 L 164.2 18.9 Z M 112.9 91.8 L 130.6 91.8 L 136.6 86.8 L 147.6 95.8 L 142.6 99.8 L 142.6 144.4 L 130.6 150.4 L 130.6 144.4 L 112.9 144.4 L 112.9 156.4 L 101.9 161.9 L 101.9 86.3 Z M 112.9 119.7 L 112.9 140.4 L 130.6 140.4 L 130.6 119.7 Z M 112.9 95.8 L 112.9 115.7 L 130.6 115.7 L 130.6 95.8 Z M 106.2 63.2 L 106.1 61.0 L 105.9 58.8 L 105.7 56.5 L 105.3 54.2 L 104.8 51.8 L 104.2 49.4 L 103.6 46.9 L 102.4 44.7 L 103.9 43.6 L 105.6 45.6 L 107.6 47.5 L 109.4 49.5 L 111.0 51.6 L 112.5 53.8 L 113.9 56.1 L 115.1 58.5 L 116.2 61.0 L 117.1 63.6 L 117.9 66.2 L 116.6 70.6 L 112.6 72.8 L 108.2 71.5 L 106.0 67.5 L 106.1 65.4 Z M 174.8 45.9 L 173.9 43.7 L 173.0 41.6 L 171.9 39.4 L 170.7 37.3 L 169.4 35.1 L 167.9 32.9 L 166.4 30.6 L 164.4 28.7 L 165.5 27.2 L 167.9 28.7 L 170.5 29.9 L 173.0 31.3 L 175.3 32.9 L 177.6 34.6 L 179.7 36.5 L 181.7 38.5 L 183.6 40.6 L 185.3 42.8 L 187.0 45.2 L 187.1 49.7 L 184.0 53.1 L 179.4 53.2 L 176.0 50.2 L 175.5 48.0 Z M 80.0 40.4 L 78.6 37.2 L 77.0 34.0 L 75.3 30.9 L 73.4 27.9 L 71.3 24.8 L 69.0 21.8 L 66.6 18.7 L 63.9 15.8 L 65.0 14.3 L 68.6 16.4 L 72.1 18.4 L 75.4 20.7 L 78.6 23.3 L 81.5 26.0 L 84.3 28.9 L 86.8 32.0 L 89.2 35.3 L 91.4 38.7 L 93.4 42.2 L 93.4 46.8 L 90.2 50.1 L 85.7 50.0 L 82.4 46.9 L 81.3 43.6 Z " />
</g>
</svg>
