<svg xmlns="http://www.w3.org/2000/svg" xmlns:xlink="http://www.w3.org/1999/xlink" version="1.1" baseProfile="full" viewBox="0 0 200 200" width="200" height="200">
<g fill="black">
<path d="M 101.8 78.0 L 133.4 78.0 L 133.4 44.0 L 111.0 44.0 L 111.0 40.0 L 133.4 40.0 L 133.4 12.0 L 145.4 14.0 L 148.4 16.0 L 145.4 17.8 L 145.4 40.0 L 149.87777776718139 40.0 L 156.1 33.0 L 163.8535075187683 39.78431911468506 L 167.3 32.0 L 172.42702779769897 19.508695888519288 L 172.4 19.5 L 173.3 17.3 L 183.9 23.2 L 185.9 26.1 L 182.31248626708984 26.65668315887451 L 177.7 36.7 L 171.1 49.9 L 164.1 62.7 L 156.7 75.3 L 154.93719005584717 78.0 L 164.0 78.0 L 174.0 68.0 L 186.0 78.0 L 186.0 82.0 L 152.32561979293823 82.0 L 148.8 87.4 L 140.5 99.3 L 136.1 105.0 L 164.5 105.0 L 170.5 100.0 L 181.5 109.0 L 176.5 113.0 L 176.5 177.0 L 164.5 183.0 L 164.5 171.0 L 132.6 171.0 L 132.6 183.0 L 120.6 189.0 L 120.6 123.87628870010376 L 112.8 132.4 L 102.5 142.6 L 101.2 141.3 L 109.9 130.0 L 118.3 118.5 L 120.6 115.1777777671814 L 120.6 99.0 L 128.8343949317932 103.1171974182129 L 134.2 95.0 L 141.6 82.9 L 142.11219511032104 82.0 L 101.8 82.0 Z M 12.2 78.0 L 45.0 78.0 L 45.0 44.0 L 21.7 44.0 L 21.7 40.0 L 45.0 40.0 L 45.0 12.0 L 57.0 14.0 L 60.0 16.0 L 57.0 17.8 L 57.0 40.0 L 62.2777777671814 40.0 L 68.5 33.0 L 76.39804449081421 39.9107889175415 L 80.1 31.9 L 85.32096071243286 19.406986904144286 L 85.3 19.4 L 86.2 17.3 L 96.7 23.2 L 98.7 26.2 L 95.0617021560669 26.710638332366944 L 90.4 36.7 L 83.6 49.9 L 76.4 62.8 L 68.7 75.3 L 66.90737705230713 78.0 L 77.2 78.0 L 87.2 68.0 L 99.2 78.0 L 99.2 82.0 L 64.2516393661499 82.0 L 60.6 87.5 L 52.0 99.3 L 47.53913040161133 105.0 L 77.1 105.0 L 83.1 100.0 L 94.1 109.0 L 89.1 113.0 L 89.1 177.0 L 77.1 183.0 L 77.1 171.0 L 43.8 171.0 L 43.8 183.0 L 31.8 189.0 L 31.8 123.61899995803833 L 23.5 132.5 L 12.9 142.6 L 11.6 141.3 L 20.6 129.9 L 29.3 118.4 L 31.8 114.98823528289795 L 31.8 99.0 L 40.23037977218628 103.21518983840943 L 45.8 95.0 L 53.5 82.9 L 54.02258062362671 82.0 L 12.2 82.0 Z M 132.6 140.0 L 132.6 167.0 L 164.5 167.0 L 164.5 140.0 Z M 43.8 140.0 L 43.8 167.0 L 77.1 167.0 L 77.1 140.0 Z M 133.01228065490722 109.0 L 132.6 109.53409090042115 L 132.6 136.0 L 164.5 136.0 L 164.5 109.0 Z M 44.408695697784424 109.0 L 43.8 109.77777776718139 L 43.8 136.0 L 77.1 136.0 L 77.1 109.0 Z M 57.0 44.0 L 57.0 76.8722222328186 L 60.7 70.5 L 67.6 57.9 L 74.0 45.1 L 74.50833330154418 44.0 Z M 145.4 44.0 L 145.4 76.22285718917847 L 148.6 70.6 L 155.3 58.0 L 161.5 45.1 L 161.9870228767395 44.0 Z " />
</g>
</svg>
