<svg xmlns="http://www.w3.org/2000/svg" xmlns:xlink="http://www.w3.org/1999/xlink" version="1.1" baseProfile="full" viewBox="0 0 200 200" width="200" height="200">
<g fill="black">
<path d="M 68.5 149.1 L 67.1 151.1 L 65.4 152.9 L 63.5 154.5 L 61.4 155.8 L 59.1 156.8 L 56.7 157.5 L 54.2 157.9 L 51.7 158.0 L 51.7 152.0 L 41.7 149.0 L 41.7 146.0 L 51.7 146.0 L 53.0 145.9 L 54.1 145.8 L 55.1 145.5 L 55.9 145.2 L 56.5 144.8 L 57.1 144.3 L 57.7 143.6 L 58.3 142.8 L 58.8 141.8 L 59.3 140.6 L 60.0 139.3 L 60.4 137.9 L 60.4 136.2 L 60.0 134.0 L 59.1 131.5 L 57.5 128.7 L 55.3 125.7 L 52.5 122.4 L 49.1 118.9 L 45.0 115.5 L 45.078787899017335 115.36868686676026 L 44.0 114.2 L 46.8 110.4 L 49.3 106.6 L 51.7 103.0 L 53.9 99.6 L 56.0 96.3 L 57.8 93.2 L 59.4 90.1 L 60.8 87.2 L 61.06666669845581 86.6 L 33.5 86.6 L 33.5 181.1 L 21.5 187.1 L 21.5 76.6 L 33.5 82.6 L 62.4 82.6 L 62.886792469024655 82.19433965682984 L 63.0 81.9 L 63.149476146698 81.97543659210206 L 68.4 77.6 L 79.4 86.6 L 74.4 89.6 L 71.05454549789428 90.99393939971924 L 69.7 92.8 L 67.4 95.6 L 64.9 98.4 L 62.2 101.2 L 59.3 104.1 L 56.1 106.9 L 52.7 109.7 L 49.0 112.5 L 46.61765661239624 114.38079738616943 L 50.8 116.6 L 55.2 119.0 L 59.1 121.6 L 62.5 124.2 L 65.4 127.1 L 67.8 130.1 L 69.6 133.3 L 70.8 136.9 L 71.1 140.7 L 70.6 144.5 L 69.7 146.9 Z M 169.3 178.1 L 167.6 179.8 L 165.7 181.4 L 163.7 182.7 L 161.5 183.8 L 159.2 184.7 L 156.9 185.3 L 154.4 185.6 L 151.9 185.7 L 151.9 179.7 L 131.9 176.7 L 131.9 173.7 L 153.3 173.7 L 154.6 173.5 L 155.7 173.2 L 157.7 172.4 L 158.5 171.8 L 159.4 171.1 L 160.2 170.3 L 160.9 169.2 L 161.7 168.1 L 162.4 166.8 L 163.0 165.1 L 163.7 163.2 L 164.3 160.9 L 164.8 158.3 L 165.3 155.4 L 165.8 152.2 L 166.1 148.8 L 166.4 145.0 L 166.52749996185304 143.3 L 157.91481485366822 143.3 L 157.5 144.0 L 154.0 149.6 L 150.0 154.9 L 145.6 159.9 L 140.6 164.5 L 135.1 168.8 L 129.2 172.8 L 122.9 176.4 L 116.0 179.7 L 108.7 182.6 L 100.8 185.0 L 100.2 183.3 L 107.0 179.2 L 113.5 175.0 L 119.4 170.9 L 124.8 166.6 L 129.7 162.3 L 134.1 157.8 L 138.0 153.2 L 141.4 148.5 L 144.4 143.6 L 144.53043479919432 143.3 L 133.1052631378174 143.3 L 131.4 145.1 L 126.8 149.8 L 121.9 154.2 L 116.5 158.3 L 110.8 162.2 L 104.7 165.8 L 98.3 169.2 L 91.4 172.2 L 84.2 175.0 L 76.6 177.4 L 68.6 179.3 L 68.0 177.6 L 75.2 173.8 L 82.0 170.1 L 88.5 166.4 L 94.5 162.6 L 100.2 158.7 L 105.4 154.6 L 110.2 150.5 L 114.6 146.3 L 117.32727270126342 143.3 L 105.53666667938232 143.3 L 103.1 145.0 L 98.5 147.8 L 93.6 150.3 L 88.5 152.5 L 83.1 154.3 L 77.4 155.7 L 71.5 156.6 L 71.0 154.9 L 76.1 152.1 L 81.0 149.4 L 85.5 146.6 L 89.8 143.7 L 93.8 140.7 L 97.5 137.6 L 100.8 134.4 L 104.0 131.0 L 105.28000001907348 129.4 L 73.2 129.4 L 73.2 125.4 L 173.0777777671814 125.4 L 179.3 118.4 L 187.3 125.4 L 187.3 129.4 L 120.3777777671814 129.4 L 119.0 131.0 L 115.4 135.0 L 111.6 138.6 L 110.73529415130615 139.3 L 166.7 139.3 L 172.7 134.3 L 183.7 143.3 L 178.7 146.3 L 178.3528302192688 146.44465408325195 L 178.1 149.9 L 177.7 153.7 L 177.2 157.2 L 176.6 160.6 L 175.9 163.7 L 175.2 166.6 L 174.3 169.3 L 173.3 171.7 L 172.1 174.0 L 170.8 176.1 Z M 102.1 79.7 L 159.3 79.7 L 165.3 74.7 L 176.3 83.7 L 171.3 87.7 L 171.3 115.4 L 159.3 121.4 L 159.3 115.4 L 102.1 115.4 L 90.1 121.4 L 90.1 73.7 Z M 102.1 99.6 L 102.1 111.4 L 159.3 111.4 L 159.3 99.6 Z M 102.1 83.7 L 102.1 95.6 L 159.3 95.6 L 159.3 83.7 Z M 84.9 54.3 L 83.3 52.4 L 81.4 50.5 L 79.3 48.7 L 76.9 46.8 L 74.2 44.9 L 71.3 43.0 L 69.0 41.51612901687622 L 69.0 70.4 L 57.0 76.4 L 57.0 44.68571424484253 L 53.7 48.3 L 49.1 52.7 L 44.2 56.7 L 39.0 60.4 L 33.3 63.7 L 27.4 66.7 L 21.0 69.2 L 14.3 71.2 L 13.6 69.5 L 19.3 65.8 L 24.7 62.0 L 29.7 58.2 L 34.4 54.3 L 38.7 50.3 L 42.6 46.1 L 46.1 41.8 L 49.3 37.3 L 52.2 32.6 L 18.0 32.6 L 18.0 28.6 L 57.0 28.6 L 57.0 9.7 L 69.0 11.7 L 72.0 13.7 L 69.0 15.5 L 69.0 28.6 L 77.0 28.6 L 87.0 18.6 L 99.0 28.6 L 99.0 32.6 L 69.0 32.6 L 69.0 38.4 L 72.9 39.0 L 76.5 39.8 L 79.9 40.9 L 83.1 42.0 L 86.2 43.4 L 89.1 44.9 L 91.8 46.5 L 94.3 48.4 L 96.7 50.4 L 98.0 54.8 L 95.8 58.9 L 91.5 60.1 L 87.4 58.0 L 86.3 56.2 Z M 167.0 65.5 L 162.4 62.1 L 158.0 58.4 L 154.0 54.6 L 150.3 50.5 L 147.0 46.2 L 144.1 41.7 L 143.0 39.588000011444095 L 143.0 70.4 L 131.0 76.4 L 131.0 44.68571424484253 L 127.7 48.3 L 123.1 52.7 L 118.2 56.7 L 113.0 60.4 L 107.3 63.7 L 101.4 66.7 L 95.0 69.2 L 88.3 71.2 L 87.6 69.5 L 93.3 65.8 L 98.7 62.0 L 103.7 58.2 L 108.4 54.3 L 112.7 50.3 L 116.6 46.1 L 120.1 41.8 L 123.3 37.3 L 126.2 32.6 L 101.0 32.6 L 101.0 28.6 L 131.0 28.6 L 131.0 9.7 L 143.0 11.7 L 146.0 13.7 L 143.0 15.5 L 143.0 28.6 L 160.0 28.6 L 170.0 18.6 L 182.0 28.6 L 182.0 32.6 L 143.0 32.6 L 143.0 32.60526313781738 L 145.0 34.5 L 148.7 38.0 L 152.4 41.4 L 156.2 44.5 L 160.1 47.5 L 164.3 50.3 L 168.6 52.9 L 173.1 55.4 L 177.8 57.7 L 182.8 59.8 L 188.5 62.5 L 177.1 71.7 L 171.9 68.7 Z " />
</g>
</svg>
