<svg xmlns="http://www.w3.org/2000/svg" xmlns:xlink="http://www.w3.org/1999/xlink" version="1.1" baseProfile="full" viewBox="0 0 200 200" width="200" height="200">
<g fill="black">
<path d="M 42.0 41.0 L 99.0 41.0 L 99.0 12.0 L 111.0 14.0 L 114.0 16.0 L 111.0 17.8 L 111.0 41.0 L 164.0 41.0 L 174.0 31.0 L 186.0 41.0 L 186.0 45.0 L 42.0 45.0 L 42.0 104.0 L 41.4 115.3 L 40.2 126.1 L 38.6 136.3 L 36.3 145.9 L 33.5 154.9 L 30.1 163.3 L 26.2 171.0 L 21.6 178.0 L 16.4 184.2 L 10.6 189.6 L 9.3 188.3 L 13.4 181.9 L 17.0 175.2 L 20.3 168.1 L 23.1 160.5 L 25.4 152.5 L 27.3 143.9 L 28.7 134.7 L 29.6 125.0 L 30.0 114.8 L 30.0 35.0 Z M 167.2 168.6 L 163.0 164.4 L 159.2 160.0 L 155.8 155.5 L 152.9 150.8 L 150.5 146.0 L 150.0 144.75 L 150.0 182.4 L 138.0 188.4 L 138.0 146.89230766296387 L 137.0 148.2 L 132.8 153.0 L 128.3 157.5 L 123.5 161.7 L 118.3 165.6 L 112.9 169.1 L 107.1 172.1 L 101.0 174.7 L 100.1 173.2 L 105.0 169.0 L 109.7 164.8 L 114.1 160.5 L 118.3 156.2 L 122.1 151.7 L 125.7 147.1 L 128.9 142.3 L 131.9 137.3 L 134.6 132.2 L 134.942857170105 131.4 L 115.5 131.4 L 115.5 127.4 L 138.0 127.4 L 138.0 109.0 L 150.0 111.0 L 153.0 113.0 L 150.0 114.8 L 150.0 127.4 L 159.9 127.4 L 169.9 117.4 L 181.9 127.4 L 181.9 131.4 L 150.0 131.4 L 150.0 132.65 L 151.1 134.3 L 153.8 138.4 L 156.7 142.3 L 159.8 146.0 L 163.1 149.6 L 166.6 153.0 L 170.5 156.3 L 174.7 159.4 L 179.1 162.4 L 183.9 165.3 L 187.8 167.8 L 176.7 176.4 L 171.7 172.6 Z M 97.1 151.9 L 95.1 150.2 L 93.0 148.6 L 90.7 146.9 L 88.4 145.3 L 86.0 143.7 L 86.0 182.4 L 74.0 188.4 L 74.0 151.725 L 72.5 153.6 L 68.6 157.8 L 64.6 161.7 L 60.3 165.4 L 55.7 168.8 L 50.9 171.7 L 45.7 174.2 L 44.7 172.8 L 48.5 168.7 L 52.2 164.7 L 55.7 160.7 L 59.0 156.6 L 62.1 152.4 L 65.0 148.0 L 67.7 143.5 L 70.2 138.9 L 72.4 134.1 L 73.36599998474121 131.8 L 47.6 131.8 L 47.6 127.8 L 74.0 127.8 L 74.0 109.4 L 86.0 111.4 L 89.0 113.4 L 86.0 115.2 L 86.0 127.8 L 89.6 127.8 L 99.6 117.8 L 111.6 127.8 L 111.6 131.8 L 86.0 131.8 L 86.0 139.76451616287233 L 87.4 139.9 L 90.4 140.4 L 93.4 141.1 L 96.3 141.8 L 101.9 143.8 L 104.6 144.9 L 107.2 146.1 L 109.7 147.5 L 111.9 151.5 L 110.8 155.9 L 106.8 158.1 L 102.4 157.0 L 99.0 153.6 Z M 158.6 109.0 L 152.4 105.7 L 146.3 102.2 L 140.6 98.2 L 135.1 94.0 L 129.8 89.4 L 124.9 84.5 L 120.3 79.1 L 120.0 78.66499996185303 L 120.0 112.1 L 108.0 118.1 L 108.0 82.55882349014283 L 104.4 86.3 L 98.8 91.3 L 92.8 96.0 L 86.4 100.4 L 79.5 104.5 L 72.2 108.4 L 64.5 111.8 L 56.3 114.9 L 47.6 117.5 L 46.9 115.8 L 54.7 111.4 L 62.0 107.0 L 68.9 102.6 L 75.4 98.2 L 81.4 93.5 L 86.9 88.8 L 92.0 83.9 L 96.6 78.9 L 100.6384614944458 73.9 L 54.9 73.9 L 54.9 69.9 L 108.0 69.9 L 108.0 50.1 L 120.0 52.1 L 123.0 54.1 L 120.0 55.9 L 120.0 69.9 L 152.5 69.9 L 162.5 59.9 L 174.5 69.9 L 174.5 73.9 L 120.19512195587158 73.9 L 123.2 76.1 L 128.8 80.0 L 134.3 83.7 L 139.9 87.2 L 145.5 90.3 L 151.3 93.2 L 157.2 95.8 L 163.2 98.1 L 169.3 100.1 L 175.6 101.9 L 183.4 104.2 L 171.8 114.5 L 165.1 111.9 Z " />
</g>
</svg>
