<svg xmlns="http://www.w3.org/2000/svg" xmlns:xlink="http://www.w3.org/1999/xlink" version="1.1" baseProfile="full" viewBox="0 0 200 200" width="200" height="200">
<g fill="black">
<path d="M 130.0 156.8 L 151.2 156.8 L 152.1 156.6 L 152.7 156.4 L 153.0 156.2 L 153.2 156.1 L 153.4 155.9 L 153.7 155.0 L 153.9 154.1 L 154.0 152.8 L 154.0 110.2 L 122.23496503829956 110.2 L 119.9 115.5 L 112.7 128.6 L 104.6 140.6 L 95.6 151.4 L 85.6 160.8 L 84.3 159.5 L 92.7 148.9 L 100.2 137.6 L 107.0 125.4 L 113.0 112.4 L 113.81134748458862 110.2 L 97.0 110.2 L 97.0 106.2 L 115.28652486801147 106.2 L 118.2 98.3 L 122.6 83.3 L 122.775 82.5 L 95.0 82.5 L 95.0 78.5 L 123.65 78.5 L 126.1 67.3 L 127.1376470565796 61.0 L 105.0 61.0 L 105.0 57.0 L 127.79647054672242 57.0 L 128.9 50.3 L 130.03999996185303 39.5 L 99.0 39.5 L 99.0 35.5 L 130.46222219467163 35.5 L 130.8 32.3 L 131.9 13.2 L 131.93025722503663 13.201512813568115 L 132.0 10.9 L 143.9 13.8 L 146.8 15.9 L 143.54624280929565 17.652023124694825 L 142.1 33.4 L 141.80486488342285 35.5 L 162.0 35.5 L 172.0 25.5 L 184.0 35.5 L 184.0 39.5 L 141.2427026748657 39.5 L 139.5 51.9 L 138.4800000190735 57.0 L 158.8181818008423 57.0 L 167.0 48.0 L 177.0 57.0 L 177.0 61.0 L 137.68000001907347 61.0 L 136.0 69.4 L 133.50304880142212 78.5 L 169.8181818008423 78.5 L 178.0 69.5 L 188.0 78.5 L 188.0 82.5 L 132.40548782348634 82.5 L 131.5 85.8 L 126.2 101.2 L 123.99720277786255 106.2 L 154.0 106.2 L 154.0 85.8 L 166.0 87.8 L 169.0 89.8 L 166.0 91.6 L 166.0 106.2 L 169.8181818008423 106.2 L 178.0 97.2 L 188.0 106.2 L 188.0 110.2 L 166.0 110.2 L 166.0 152.8 L 165.8 155.4 L 165.4 157.9 L 164.6 160.3 L 163.3 162.6 L 161.7 164.6 L 159.7 166.2 L 157.4 167.5 L 155.0 168.3 L 152.5 168.7 L 150.0 168.8 L 150.0 162.8 L 130.0 159.8 Z M 135.4 138.0 L 134.6 135.8 L 133.5 133.6 L 132.2 131.3 L 130.6 128.9 L 128.7 126.6 L 126.6 124.1 L 124.2 121.6 L 121.4 119.4 L 122.3 117.8 L 125.6 119.4 L 129.0 120.8 L 132.1 122.4 L 135.0 124.2 L 137.7 126.1 L 140.2 128.2 L 142.4 130.5 L 144.4 133.0 L 146.2 135.6 L 147.7 138.4 L 147.3 143.0 L 143.9 146.0 L 139.3 145.6 L 136.3 142.2 L 136.0 140.1 Z M 66.0 119.0 L 74.0 119.0 L 75.2 118.9 L 76.1 118.7 L 77.0 118.4 L 77.4 118.0 L 77.7 117.1 L 77.9 116.2 L 78.0 115.0 L 78.0 61.1985915184021 L 64.0 68.29718313217163 L 64.0 146.0 L 52.0 152.0 L 52.0 74.38169012069702 L 38.0 81.48028173446656 L 38.0 170.2 L 38.2 171.1 L 38.5 172.0 L 38.9 172.4 L 39.8 172.7 L 40.7 172.9 L 42.0 173.0 L 177.0 173.0 L 183.0 148.0 L 185.0 148.0 L 183.0 173.0 L 186.6 175.4 L 189.0 179.0 L 186.6 182.6 L 183.0 185.0 L 42.0 185.0 L 39.4 184.8 L 36.9 184.4 L 34.5 183.6 L 32.2 182.3 L 30.2 180.7 L 28.6 178.7 L 27.3 176.4 L 26.5 174.0 L 26.1 171.5 L 26.0 169.0 L 26.0 87.56478872299195 L 13.9 93.7 L 12.0 90.2 L 26.0 83.1014084815979 L 26.0 30.0 L 38.0 32.0 L 41.0 34.0 L 38.0 35.8 L 38.0 77.01690139770508 L 52.0 69.91830987930298 L 52.0 13.0 L 64.0 15.0 L 67.0 17.0 L 64.0 18.8 L 64.0 63.83380279541016 L 78.0 56.735211277008055 L 78.0 54.0 L 84.0 49.0 L 95.0 58.0 L 90.0 62.0 L 90.0 115.0 L 89.8 117.5 L 89.4 120.0 L 88.6 122.4 L 87.3 124.7 L 85.7 126.7 L 83.7 128.3 L 81.4 129.6 L 79.0 130.4 L 76.5 130.8 L 74.0 131.0 L 74.0 125.0 L 66.0 122.0 Z " />
</g>
</svg>
