<svg xmlns="http://www.w3.org/2000/svg" xmlns:xlink="http://www.w3.org/1999/xlink" version="1.1" baseProfile="full" viewBox="0 0 200 200" width="200" height="200">
<g fill="black">
<path d="M 95.6 68.9 L 130.4 68.9 L 130.4 41.9 L 104.6 41.9 L 104.6 37.9 L 130.4 37.9 L 130.4 13.1 L 142.4 15.1 L 145.4 17.1 L 142.4 18.9 L 142.4 37.9 L 147.37777776718139 37.9 L 153.6 30.9 L 161.2460496902466 37.590293407440186 L 163.0 34.5 L 168.44179105758667 23.61641788482666 L 168.4 23.6 L 169.4 21.6 L 179.6 28.0 L 181.4 31.2 L 177.669695186615 31.457262420654295 L 172.9 40.0 L 165.8 51.3 L 158.4 62.0 L 152.89393939971924 68.9 L 164.9 68.9 L 174.9 58.9 L 186.9 68.9 L 186.9 72.9 L 149.6182795524597 72.9 L 142.3 81.2 L 133.7 89.8 L 128.0037974357605 94.8 L 162.0 94.8 L 168.0 89.8 L 179.0 98.8 L 174.0 102.8 L 174.0 157.5 L 162.0 163.5 L 162.0 153.5 L 123.8 153.5 L 123.8 160.5 L 111.8 166.5 L 111.8 107.01428575515747 L 105.5 111.0 L 95.3 116.4 L 94.4 114.8 L 103.3 107.9 L 111.8 100.67011489868165 L 111.8 88.8 L 120.12489452362061 92.9624472618103 L 120.3 92.8 L 128.3 84.5 L 135.9 75.6 L 137.99680852890015 72.9 L 95.6 72.9 Z M 123.8 126.1 L 123.8 149.5 L 162.0 149.5 L 162.0 126.1 Z M 66.0 119.0 L 74.0 119.0 L 75.2 118.9 L 76.1 118.7 L 77.0 118.4 L 77.4 118.0 L 77.7 117.1 L 77.9 116.2 L 78.0 115.0 L 78.0 61.1985915184021 L 64.0 68.29718313217163 L 64.0 146.0 L 52.0 152.0 L 52.0 74.38169012069702 L 38.0 81.48028173446656 L 38.0 170.2 L 38.1 171.1 L 38.2 171.7 L 38.4 172.1 L 38.5 172.4 L 38.7 172.6 L 39.1 172.9 L 39.7 173.1 L 40.7 173.3 L 42.0 173.5 L 177.5 173.5 L 183.0 152.5 L 185.0 152.5 L 183.0 173.5 L 186.3 175.7 L 188.5 179.0 L 186.3 182.3 L 183.0 184.5 L 42.0 184.5 L 39.4 184.4 L 37.0 184.0 L 34.6 183.2 L 32.4 182.1 L 30.4 180.5 L 28.7 178.6 L 27.5 176.4 L 26.6 174.0 L 26.1 171.5 L 26.0 169.0 L 26.0 87.56478872299195 L 13.9 93.7 L 12.0 90.2 L 26.0 83.1014084815979 L 26.0 30.0 L 38.0 32.0 L 41.0 34.0 L 38.0 35.8 L 38.0 77.01690139770508 L 52.0 69.91830987930298 L 52.0 13.0 L 64.0 15.0 L 67.0 17.0 L 64.0 18.8 L 64.0 63.83380279541016 L 78.0 56.735211277008055 L 78.0 54.0 L 84.0 49.0 L 95.0 58.0 L 90.0 62.0 L 90.0 115.0 L 89.8 117.5 L 89.4 120.0 L 88.6 122.4 L 87.3 124.7 L 85.7 126.7 L 83.7 128.3 L 81.4 129.6 L 79.0 130.4 L 76.5 130.8 L 74.0 131.0 L 74.0 125.0 L 66.0 122.0 Z M 123.8 98.8 L 123.8 122.1 L 162.0 122.1 L 162.0 98.8 Z M 142.4 41.9 L 142.4 67.23013696670532 L 143.2 66.2 L 150.2 56.2 L 156.7 45.6 L 158.8 41.9 Z " />
</g>
</svg>
