<svg xmlns="http://www.w3.org/2000/svg" xmlns:xlink="http://www.w3.org/1999/xlink" version="1.1" baseProfile="full" viewBox="0 0 200 200" width="200" height="200">
<g fill="black">
<path d="M 13.4 95.0 L 13.4 91.0 L 33.5 91.0 L 33.5 14.8 L 45.5 16.8 L 48.5 18.8 L 45.5 20.6 L 45.5 91.0 L 47.418181800842284 91.0 L 55.6 82.0 L 65.6 91.0 L 65.6 95.0 L 52.5 95.0 L 52.5 147.9875 L 53.7 146.9 L 57.0 143.8 L 60.4 140.6 L 64.1 137.4 L 67.8 134.0 L 69.2 135.1 L 66.6 139.5 L 64.1 143.7 L 61.6 147.7 L 59.1 151.5 L 56.7 155.1 L 54.3 158.6 L 51.9 161.8 L 49.6 164.9 L 47.87485151290893 167.25247526168823 L 48.8 171.3 L 45.2 170.7 L 35.2 163.8 L 36.6 162.4 L 39.1 160.2 L 41.8 157.8 L 42.5 157.175 L 42.5 95.0 L 35.8 95.0 L 35.8 112.8 L 35.4 122.1 L 34.6 131.0 L 33.6 139.5 L 32.2 147.6 L 30.4 155.3 L 28.4 162.7 L 25.9 169.6 L 23.1 176.0 L 19.9 182.0 L 16.2 187.4 L 14.9 186.7 L 17.0 180.7 L 18.9 174.4 L 20.7 167.9 L 22.2 161.1 L 23.5 153.9 L 24.5 146.4 L 25.2 138.6 L 25.7 130.3 L 25.9 121.8 L 25.8 112.8 L 25.8 95.0 Z M 111.3 184.8 L 108.8 184.4 L 106.4 183.6 L 104.1 182.3 L 102.1 180.7 L 100.4 178.7 L 99.2 176.4 L 98.4 174.0 L 98.0 171.5 L 97.8 169.0 L 97.8 133.3 L 109.8 135.3 L 112.8 137.3 L 109.8 139.1 L 109.8 169.0 L 109.9 170.2 L 110.1 171.1 L 110.4 172.0 L 110.8 172.4 L 111.7 172.7 L 112.6 172.9 L 113.8 173.0 L 151.7 173.0 L 157.7 148.0 L 159.7 148.0 L 157.7 173.0 L 161.3 175.4 L 163.7 179.0 L 161.3 182.6 L 157.7 185.0 L 113.8 185.0 Z M 69.6 177.4 L 68.3 173.0 L 70.3 168.9 L 72.0 167.7 L 73.7 166.1 L 75.4 163.9 L 76.9 161.2 L 78.4 158.0 L 79.7 154.3 L 80.9 150.0 L 82.0 145.3 L 83.0 140.1 L 83.7 134.5 L 85.5 134.4 L 86.2 140.2 L 86.7 145.6 L 86.9 150.8 L 86.7 155.6 L 86.2 160.1 L 85.4 164.3 L 84.2 168.2 L 82.6 171.8 L 80.6 175.1 L 78.1 178.1 L 73.7 179.4 Z M 171.3 162.5 L 170.5 159.2 L 169.4 155.9 L 168.1 152.6 L 166.6 149.4 L 165.0 146.2 L 163.1 142.9 L 161.0 139.7 L 158.5 136.5 L 159.7 135.2 L 163.1 137.5 L 166.5 139.9 L 169.5 142.6 L 172.4 145.5 L 174.9 148.6 L 177.3 151.9 L 179.4 155.4 L 181.3 159.0 L 182.9 162.9 L 184.2 166.9 L 183.3 171.4 L 179.6 174.0 L 175.1 173.1 L 172.5 169.4 L 172.0 165.9 Z M 130.0 149.4 L 129.0 146.8 L 127.9 144.3 L 126.6 141.8 L 125.2 139.4 L 123.7 137.1 L 122.0 134.7 L 120.3 132.4 L 118.1 130.4 L 119.1 128.9 L 121.9 130.3 L 124.7 131.6 L 127.4 133.2 L 130.0 135.0 L 132.5 137.1 L 134.8 139.3 L 137.0 141.8 L 139.1 144.4 L 141.0 147.2 L 142.8 150.2 L 142.8 154.8 L 139.6 158.1 L 135.0 158.1 L 131.7 154.9 L 130.9 152.1 Z M 99.46256980895996 74.78826818466186 L 97.8 75.7 L 95.4 76.86129035949708 L 95.4 86.48571424484253 L 96.4 85.7 L 98.0 87.3 L 99.9 88.8 L 101.8 90.5 L 103.4 92.4 L 105.0 94.5 L 106.5 96.8 L 107.8 99.2 L 109.1 101.7 L 109.8 103.41818180084229 L 109.8 86.6 L 120.8 92.1 L 130.7 92.1 L 136.2 87.1 L 145.1 94.72857141494751 L 145.1 91.9 L 145.03118171691895 89.6978136062622 L 144.9 89.7 L 145.1 86.5 L 156.9 89.5 L 157.6 90.03103446960449 L 157.6 79.26666669845581 L 156.0 79.8 L 150.00165462493896 81.56421918869019 L 148.2 85.4 L 145.8 82.7 L 142.1 71.1 L 144.1 70.8 L 147.5 70.7 L 150.8 70.5 L 152.88791942596436 70.37718124389649 L 153.5 69.0 L 155.9 63.8 L 158.3 58.8 L 159.76070566177367 55.81507978439331 L 155.6 56.0 L 152.2 53.0 L 151.7 51.1 L 151.2 49.3 L 150.6 47.5 L 149.9 45.7 L 148.3 42.1 L 147.3 40.3 L 145.1 36.7 L 143.5 35.3 L 144.5 33.8 L 146.4 34.9 L 148.6 35.7 L 150.7 36.7 L 151.8333333015442 37.380000019073485 L 152.6 36.0 L 153.7 33.1 L 154.8 30.3 L 155.8 27.7 L 156.8 25.2 L 157.6 22.8 L 158.4 20.5 L 159.1 18.4 L 159.6 16.4 L 159.84850301742554 15.455688667297363 L 159.7 15.4 L 160.6 13.3 L 170.9 19.6 L 172.8 22.7 L 168.19782609939574 23.17608699798584 L 166.6 25.2 L 164.9 27.1 L 163.1 29.1 L 161.2 31.1 L 159.2 33.2 L 157.0 35.3 L 154.6 37.4 L 153.6148148536682 38.525925922393796 L 154.6 39.2 L 156.5 40.7 L 158.3 42.3 L 159.9 44.0 L 161.5 45.9 L 163.0 47.9 L 163.0646659851074 49.354985523223874 L 165.0 45.3 L 167.1 41.2 L 169.0 37.3 L 170.7 33.6 L 171.96196537017823 30.927602767944336 L 171.9 30.9 L 172.9 29.0 L 182.9 35.8 L 184.5 39.0 L 180.64537906646729 39.132917976379396 L 180.6 39.2 L 178.2 42.7 L 175.7 46.3 L 173.0 50.1 L 170.1 54.1 L 167.0 58.1 L 163.8 62.3 L 160.4 66.6 L 157.36535215377808 70.11380281448365 L 161.0 69.9 L 164.3 69.7 L 171.1 69.3 L 174.5 69.2 L 174.83889598846434 69.15892171859741 L 174.5 67.6 L 173.9 65.3 L 173.2 63.0 L 172.3 60.6 L 171.0 58.4 L 172.4 57.3 L 174.2 59.1 L 176.4 60.8 L 178.3 62.7 L 180.1 64.7 L 181.7 66.9 L 183.2 69.3 L 184.6 71.7 L 185.7 74.3 L 186.7 77.0 L 187.6 79.8 L 186.3 84.2 L 182.4 86.5 L 178.0 85.2 L 175.7 81.3 L 175.8 79.0 L 175.8 76.7 L 175.6 74.4 L 175.4 72.2 L 175.33706111907958 71.83810138702393 L 175.2 71.9 L 172.2 73.5 L 169.6 74.6375 L 169.6 124.7 L 157.6 130.7 L 157.6 92.84230766296386 L 156.17615728378297 93.58161067962646 L 154.5 100.1 L 153.3 103.5 L 152.0 107.0 L 150.6 110.4 L 149.0 113.7 L 147.2 117.0 L 143.2 123.4 L 141.6 122.7 L 142.5 119.1 L 143.0 115.5 L 143.6 111.9 L 144.1 108.5 L 144.5 105.1 L 144.8 101.7 L 145.0 98.4 L 145.0343653678894 97.26594429016113 L 141.7 99.6 L 141.7 121.1 L 130.7 126.6 L 130.7 121.1 L 120.8 121.1 L 109.8 126.6 L 109.8 111.87368421554565 L 106.4 114.2 L 101.9 113.1 L 99.4 109.3 L 99.3 106.8 L 99.2 104.4 L 98.9 102.0 L 98.7 99.7 L 98.3 97.4 L 97.8 95.2 L 97.3 93.1 L 96.1 88.7 L 95.4 87.49090909957886 L 95.4 124.7 L 83.4 130.7 L 83.4 96.8 L 83.2 97.6 L 82.0 101.2 L 80.8 104.7 L 79.3 108.1 L 77.7 111.5 L 75.9 114.8 L 73.9 118.0 L 71.6 121.1 L 69.5 124.2 L 67.9 123.3 L 69.0 119.8 L 69.8 116.2 L 70.6 112.7 L 71.8 105.9 L 72.3 102.5 L 72.6 99.1 L 72.9 95.8 L 73.0 92.5 L 73.0 90.20083332061768 L 72.9 90.2 L 73.18036365509033 87.30290908813477 L 71.4 85.3 L 67.7 73.7 L 69.7 73.4 L 73.0 73.3 L 78.14096384048462 72.99759035110473 L 78.5 72.1 L 80.6 67.1 L 85.0 57.5 L 85.11288213729858 57.25884275436401 L 84.3 58.0 L 79.7 57.6 L 76.7 54.1 L 76.5 52.3 L 76.2 50.5 L 75.8 48.7 L 75.3 46.8 L 74.6 45.0 L 73.8 43.2 L 72.9 41.3 L 71.8 39.4 L 70.6 37.5 L 69.0 36.0 L 70.0 34.5 L 72.0 35.7 L 74.3 36.7 L 76.4 37.8 L 78.08295774459839 38.841831016540525 L 78.1 38.8 L 78.8 35.9 L 79.6 33.1 L 80.5 30.3 L 81.3 27.6 L 82.1 24.8 L 84.5 16.7 L 84.95308866500855 14.952372455596924 L 84.8 14.9 L 85.16585369110108 14.131707286834716 L 85.2 14.0 L 85.22365589141846 14.010322570800781 L 85.8 12.8 L 96.2 18.8 L 98.2 21.9 L 93.99088191986084 22.407997035980223 L 93.1 23.8 L 91.5 26.2 L 89.8 28.6 L 88.0 31.0 L 86.2 33.3 L 82.4 37.9 L 80.3 40.0 L 80.05454549789428 40.327272701263425 L 80.4 40.6 L 82.2 42.3 L 83.9 44.1 L 85.4 46.1 L 86.8 48.2 L 88.1 50.4 L 88.05187969207763 50.94135341644287 L 91.6 43.2 L 93.7 38.5 L 97.49036540985108 29.836307525634766 L 97.4 29.8 L 98.4 27.8 L 108.6 34.3 L 110.4 37.4 L 106.627734375 37.66015625 L 105.9 38.9 L 103.2 43.4 L 100.4 48.0 L 97.6 52.5 L 91.6 61.3 L 88.5 65.7 L 85.2 69.9 L 82.8542552947998 72.71489362716675 L 83.1 72.7 L 89.9 72.1 L 93.2 71.8 L 96.6 71.5 L 99.07700834274291 71.35429363250732 L 98.4 67.8 L 97.9 65.7 L 97.3 63.7 L 95.9 59.5 L 94.6 57.8 L 95.9 56.5 L 97.6 58.0 L 99.6 59.3 L 101.5 60.9 L 103.2 62.6 L 104.9 64.4 L 106.4 66.5 L 107.8 68.6 L 109.2 70.9 L 110.4 73.4 L 111.5 75.9 L 110.6 80.4 L 106.9 83.1 L 102.4 82.3 L 99.8 78.6 L 99.6 76.3 Z M 174.8 107.2 L 174.7 104.8 L 174.3 100.0 L 173.9 97.7 L 173.5 95.3 L 173.0 92.8 L 172.4 90.4 L 171.3 88.1 L 172.7 87.1 L 174.4 89.1 L 176.4 91.0 L 178.2 93.0 L 179.8 95.2 L 181.3 97.5 L 182.6 100.0 L 183.8 102.6 L 184.8 105.3 L 185.8 108.1 L 186.5 111.0 L 185.1 115.3 L 181.1 117.5 L 176.8 116.1 L 174.6 112.1 L 174.7 109.6 Z M 120.8 96.1 L 120.8 117.1 L 130.7 117.1 L 130.7 96.1 Z M 81.6 82.3 L 78.3 83.4 L 75.63002548217773 84.16284990310669 L 74.11046876907349 87.34901714324951 L 83.4 89.88974361419677 L 83.4 81.71764707565308 Z M 64.1 36.6 L 66.7 39.1 L 63.11191596984863 40.46999568939209 L 61.7 46.0 L 60.4 50.6 L 59.0 55.2 L 56.2 64.2 L 54.6 68.6 L 52.9 72.9 L 51.0 77.2 L 49.0 81.4 L 47.3 80.9 L 47.9 71.7 L 48.4 67.1 L 48.9 62.6 L 49.5 58.0 L 50.1 53.3 L 50.6 48.7 L 51.2 44.0 L 51.7 39.3 L 52.2 34.5 L 52.270275592803955 34.51240158081055 L 52.6 32.6 Z M 139.0 75.6 L 139.0 79.6 L 112.5 79.6 L 112.5 75.6 L 124.77777776718139 75.6 L 131.0 68.6 Z M 20.9 65.9 L 20.7 62.0 L 20.4 58.1 L 20.0 54.1 L 19.5 50.0 L 18.1 41.6 L 17.4 37.3 L 16.5 32.9 L 18.2 32.2 L 20.5 36.1 L 22.7 40.1 L 24.6 44.1 L 26.4 48.1 L 27.9 52.2 L 29.2 56.3 L 30.4 60.4 L 31.4 64.5 L 32.3 68.7 L 32.9 72.8 L 31.4 77.1 L 27.3 79.2 L 23.0 77.6 L 21.0 73.6 L 21.0 69.8 Z M 139.0 58.4 L 139.0 62.4 L 112.5 62.4 L 112.5 58.4 L 124.77777776718139 58.4 L 131.0 51.4 Z M 143.2 39.9 L 143.2 43.9 L 110.6 43.9 L 110.6 39.9 L 128.9777777671814 39.9 L 135.2 32.9 Z M 139.0 22.8 L 139.0 26.8 L 112.5 26.8 L 112.5 22.8 L 124.77777776718139 22.8 L 131.0 15.8 Z " />
</g>
</svg>
