<svg xmlns="http://www.w3.org/2000/svg" xmlns:xlink="http://www.w3.org/1999/xlink" version="1.1" baseProfile="full" viewBox="0 0 200 200" width="200" height="200">
<g fill="black">
<path d="M 16.9 172.8 L 28.7 171.0 L 41.0 169.3322033882141 L 41.0 143.7 L 24.1 143.7 L 24.1 139.7 L 41.0 139.7 L 41.0 115.5 L 30.053448295593263 115.5 L 29.3 117.8 L 27.2 123.3 L 25.0 128.7 L 22.6 133.7 L 19.9 138.5 L 17.0 143.0 L 13.8 147.1 L 12.2 146.3 L 13.6 141.3 L 15.0 136.4 L 16.4 131.3 L 17.8 126.1 L 19.2 120.8 L 20.4 115.3 L 21.5 109.6 L 22.5 103.7 L 23.5 97.6 L 24.170212745666504 92.40585107803345 L 24.1 92.4 L 24.6 89.5 L 36.1 93.4 L 38.7 95.9 L 35.194555854797365 97.263228225708 L 34.6 99.8 L 33.0 106.0 L 31.35 111.5 L 41.0 111.5 L 41.0 85.4 L 53.0 87.4 L 56.0 89.4 L 53.0 91.2 L 53.0 111.5 L 56.61818180084229 111.5 L 64.8 102.5 L 74.8 111.5 L 74.8 115.5 L 53.0 115.5 L 53.0 139.7 L 58.577777767181395 139.7 L 64.8 132.7 L 72.8 139.7 L 72.8 143.7 L 53.0 143.7 L 53.0 167.83000001907348 L 58.4 167.2 L 64.5 166.6 L 70.6 166.1 L 76.7 165.9 L 77.1 167.7 L 71.3 169.8 L 65.5 171.8 L 59.7 173.6 L 53.9 175.3 L 42.3 178.5 L 36.6 180.1 L 30.8 181.6 L 25.1 183.1 L 23.34082098007202 183.52462940216066 L 21.9 187.1 L 19.3 184.5 L 15.0 173.2 Z M 150.2 175.0 L 160.2 175.0 L 161.4 174.9 L 162.3 174.7 L 163.2 174.4 L 163.6 174.0 L 163.9 173.1 L 164.1 172.2 L 164.2 171.0 L 164.2 158.3 L 161.5 161.0 L 157.0 161.0 L 153.7 157.8 L 152.9 154.8 L 151.94833040237427 152.13532514572142 L 151.4 153.0 L 148.7 156.9 L 145.7 160.5 L 142.5 163.8 L 139.1 166.8 L 139.0 166.72142858505248 L 139.0 178.0 L 127.0 184.0 L 127.0 161.12857141494752 L 124.7 163.1 L 120.2 162.7 L 117.2 159.2 L 116.4 155.8 L 115.5 152.5 L 115.27315540313721 151.77409734725953 L 114.4 153.1 L 111.4 157.0 L 108.3 160.6 L 104.9 163.9 L 101.7 166.4777777671814 L 101.7 181.0 L 89.7 187.0 L 89.7 69.075 L 89.0 69.6 L 84.8 72.3 L 80.4 74.7 L 79.3 73.2 L 82.4 69.5 L 85.4 65.7 L 88.4 62.0 L 89.7 60.35333337783813 L 89.7 57.0 L 91.59333333969116 57.946666622161864 L 94.3 54.4 L 97.0 50.5 L 99.7 46.4 L 102.3 42.3 L 104.8 38.0 L 106.74173307418823 34.52106151580811 L 106.7 34.5 L 107.7 32.8 L 117.4 39.9 L 118.9 43.2 L 115.075 43.2 L 114.3 44.3 L 111.1 48.5 L 107.7 52.5 L 104.2 56.3 L 100.6 59.9 L 98.83644857406617 61.568224334716795 L 101.7 63.0 L 127.0 63.0 L 127.0 30.0 L 80.5 30.0 L 80.5 26.0 L 163.4 26.0 L 173.4 16.0 L 185.4 26.0 L 185.4 30.0 L 139.0 30.0 L 139.0 63.0 L 164.2 63.0 L 170.2 58.0 L 173.79117650985717 60.93823528289795 L 173.4 60.3 L 171.3 57.3 L 168.9 54.3 L 166.3 51.3 L 163.4 48.3 L 160.2 45.3 L 156.8 42.3 L 153.2 39.2 L 149.3 36.2 L 150.1 34.6 L 154.9 36.3 L 159.4 38.2 L 163.7 40.3 L 167.8 42.6 L 171.6 45.1 L 175.2 47.8 L 178.5 50.6 L 181.6 53.7 L 184.5 56.9 L 187.1 60.3 L 187.8 64.8 L 185.1 68.5 L 180.6 69.2 L 179.47561836242676 68.37950525283813 L 176.2 71.0 L 176.2 171.0 L 176.0 173.5 L 175.6 176.0 L 174.8 178.4 L 173.6 180.7 L 171.9 182.7 L 169.9 184.3 L 167.6 185.6 L 165.2 186.4 L 162.7 186.8 L 160.2 187.0 L 160.2 181.0 L 150.2 178.0 Z M 151.9 106.0 L 151.65746927261353 105.32091388702392 L 151.1 106.2 L 148.4 110.0 L 145.5 113.4 L 142.4 116.4 L 139.1 119.0 L 139.0 118.91538457870483 L 139.0 162.9631579399109 L 139.6 161.7 L 141.4 157.7 L 143.2 153.6 L 144.9 149.5 L 146.5 145.3 L 147.6582661628723 141.9024193763733 L 147.1 140.7 L 145.6 138.0 L 144.0 135.2 L 142.4 132.3 L 140.4 129.8 L 141.6 128.4 L 144.3 130.4 L 147.2 132.3 L 149.8 134.4 L 149.9895651817322 134.56769227981567 L 150.8 131.7 L 152.0 126.8 L 153.1 121.8 L 153.16444444656372 121.81777782440186 L 153.6 120.2 L 164.2 124.78378381729127 L 164.2 112.6 L 161.5 115.3 L 156.9 115.1 L 153.7 111.9 L 152.9 108.9 Z M 115.3 106.0 L 115.01173467636109 105.19285717010499 L 114.3 106.3 L 111.5 110.0 L 108.5 113.5 L 105.3 116.5 L 101.9 119.1 L 101.7 118.91538457870483 L 101.7 162.1714285850525 L 102.0 161.6 L 104.0 157.6 L 106.0 153.5 L 107.9 149.4 L 109.6 145.2 L 111.17619895935059 141.12042627334594 L 110.7 140.1 L 109.2 137.2 L 107.6 134.3 L 105.9 131.4 L 103.8 128.8 L 105.0 127.4 L 107.9 129.4 L 110.9 131.4 L 113.57963542938232 133.68265237808228 L 114.2 131.6 L 115.4 126.8 L 116.5 121.8 L 116.56444444656373 121.81777782440186 L 117.0 120.2 L 127.0 124.52432432174683 L 127.0 113.2 L 124.9 115.3 L 120.3 115.1 L 117.1 111.9 L 116.3 108.9 Z M 163.3993902206421 128.75731706619263 L 162.9 130.2 L 160.9 135.2 L 158.8 139.9 L 157.5577465057373 142.38450708389283 L 159.2 144.4 L 161.2 147.2 L 163.1 150.2 L 164.2 152.1411765098572 L 164.2 128.52857141494752 Z M 126.7993902206421 128.75731706619263 L 126.3 130.2 L 124.2 135.2 L 122.0 140.0 L 121.02837839126587 141.94324321746825 L 123.1 145.1 L 125.1 148.4 L 126.9 151.9 L 127.0 152.11764707565308 L 127.0 128.7 Z M 101.7 67.0 L 101.7 115.63888893127441 L 104.2 110.5 L 106.0 106.6 L 107.8 102.6 L 109.5 98.4 L 110.43844604492188 95.64722499847412 L 110.3 95.4 L 108.7 92.9 L 106.9 90.5 L 105.1 88.0 L 102.8 85.9 L 103.8 84.4 L 109.6 87.2 L 112.5 88.9 L 112.70043668746948 89.04847164154053 L 114.0 84.5 L 115.3 79.4 L 116.5 74.1 L 116.53946800231934 74.1105474472046 L 117.0 72.4 L 127.0 76.72432432174682 L 127.0 67.0 Z M 139.0 67.0 L 139.0 115.35882349014283 L 139.5 114.3 L 142.9 106.7 L 144.6 102.7 L 146.2 98.5 L 147.12179613113403 95.79606456756592 L 146.9 95.4 L 145.3 92.9 L 143.5 90.5 L 141.7 88.0 L 139.4 85.9 L 140.4 84.4 L 146.2 87.2 L 149.1 88.9 L 149.30043668746947 89.04847164154053 L 150.6 84.5 L 151.9 79.4 L 153.1 74.1 L 153.13946800231935 74.1105474472046 L 153.6 72.4 L 164.2 76.98378381729125 L 164.2 67.0 Z M 163.42156858444213 80.9680082321167 L 162.8 82.8 L 160.7 88.0 L 158.5 93.0 L 157.06719036102294 95.92791538238525 L 159.0 98.3 L 161.1 101.1 L 163.1 104.2 L 164.2 106.21666669845581 L 164.2 80.76315793991088 Z M 126.82156858444213 80.9680082321167 L 126.2 82.8 L 124.1 88.0 L 121.8 93.0 L 120.40471296310425 95.85123863220215 L 122.4 98.3 L 124.5 101.1 L 126.5 104.2 L 127.0 105.11666669845582 L 127.0 80.92105264663697 Z M 31.5 22.1 L 62.6 22.1 L 68.6 17.1 L 79.6 26.1 L 74.6 30.1 L 74.6 88.4 L 62.6 94.4 L 62.6 82.4 L 31.5 82.4 L 19.5 88.4 L 19.5 16.1 Z M 31.5 54.2 L 31.5 78.4 L 62.6 78.4 L 62.6 54.2 Z M 31.5 26.1 L 31.5 50.2 L 62.6 50.2 L 62.6 26.1 Z " />
</g>
</svg>
