<svg xmlns="http://www.w3.org/2000/svg" xmlns:xlink="http://www.w3.org/1999/xlink" version="1.1" baseProfile="full" viewBox="0 0 200 200" width="200" height="200">
<g fill="black">
<path d="M 142.58974361419678 62.1 L 142.0 64.1 L 139.4 72.0 L 136.7 79.9 L 133.5 87.8 L 130.0 95.8 L 128.3 95.2 L 129.9 86.7 L 131.5 78.4 L 133.1 70.3 L 134.6 62.3 L 136.0 54.4 L 137.3 46.7 L 138.4 39.1 L 139.4 31.6 L 140.3 24.2 L 140.9036169052124 17.90513801574707 L 140.8 17.9 L 141.2 14.9 L 152.9 18.5 L 155.6 20.8 L 152.17704916000366 22.321311473846436 L 151.5 25.9 L 150.0 33.4 L 148.3 40.9 L 146.4 48.6 L 144.3 56.3 L 143.7692307472229 58.1 L 170.8 58.1 L 176.8 53.1 L 187.8 62.1 L 182.8 65.1 L 180.6880000114441 65.98000001907349 L 180.0 67.7 L 178.7 70.5 L 177.2 73.6 L 175.6 77.0 L 173.7 80.7 L 171.6 84.7 L 169.2 89.1 L 166.9 93.9 L 165.2 93.2 L 166.5 88.1 L 167.5 83.3 L 168.3 78.8 L 169.1 74.8 L 169.8 71.2 L 170.3 67.9 L 170.7 65.1 L 170.8 63.85 L 170.8 62.1 L 158.4 62.1 L 158.4 74.8 L 157.7 90.6 L 156.84323263168335 98.99632062911988 L 156.9 99.4 L 158.9 111.1 L 161.2 122.0 L 163.8 131.9 L 166.7 140.8 L 169.8 148.9 L 173.2 156.1 L 176.8 162.3 L 180.5 167.6 L 184.2 172.1 L 184.8 172.7 L 174.1 180.5 L 170.1 174.6 L 166.5 168.0 L 163.2 160.6 L 160.3 152.5 L 157.7 143.5 L 155.7 133.8 L 154.1 123.2 L 153.80938930511473 119.88703784942626 L 150.9 131.9 L 147.0 143.7 L 142.4 154.4 L 136.9 164.0 L 130.5 172.6 L 123.4 179.9 L 115.5 185.8 L 114.3 184.4 L 120.6 177.2 L 125.69743585586548 170.1 L 80.4 170.1 L 80.4 182.1 L 69.4 187.6 L 69.4 130.35600004196166 L 68.8 131.7 L 66.1 137.1 L 63.2 142.4 L 61.5 141.8 L 62.6 135.9 L 63.8 130.0 L 65.1 124.1 L 66.4 118.1 L 67.8 112.1 L 69.2 106.0 L 70.5 99.9 L 73.1 87.5 L 74.1092571258545 82.20140027999878 L 74.1 82.2 L 74.18571424484253 81.8 L 74.3 81.2 L 74.31358880996704 81.20325202941895 L 74.68800001144409 79.45600004196167 L 66.2 83.7 L 66.2 47.3 L 77.2 52.8 L 86.0 52.8 L 90.0 47.8 L 97.3 55.1 L 97.3 48.8 L 105.3 52.8 L 114.1 52.8 L 119.6 47.8 L 130.1 56.8 L 125.1 60.3 L 125.1 78.2 L 114.1 83.7 L 114.1 78.2 L 105.3 78.2 L 97.3 82.2 L 97.3 57.480000019073486 L 94.0 58.8 L 94.0 78.2 L 86.0 82.2 L 86.0 78.2 L 77.2 78.2 L 74.75512199401855 79.42243900299073 L 86.0 84.0 L 88.4 86.6 L 84.86717901229858 87.75619592666627 L 84.1 90.3 L 82.2 96.5 L 80.2 102.6 L 80.16499996185303 102.7 L 96.88000001907349 102.7 L 97.0 102.3 L 97.0 100.2 L 97.2 98.0 L 97.8 91.7 L 98.0 89.7 L 98.2 87.6 L 98.4 85.6 L 98.55550060272216 84.56332921981812 L 98.3 84.5 L 99.2 82.1 L 110.0 87.4 L 112.3 90.2 L 107.6392978668213 91.2629672050476 L 106.7 92.8 L 105.5 94.5 L 103.1 98.1 L 100.5 101.5 L 99.44117650985717 102.7 L 106.51818180084229 102.7 L 114.7 93.7 L 124.7 102.7 L 124.7 106.7 L 103.1 106.7 L 103.1 123.8 L 108.0777777671814 123.8 L 114.3 116.8 L 122.3 123.8 L 122.3 127.8 L 103.1 127.8 L 103.1 144.9 L 108.0777777671814 144.9 L 114.3 137.9 L 122.3 144.9 L 122.3 148.9 L 103.1 148.9 L 103.1 166.1 L 106.6 166.1 L 116.6 156.1 L 128.25958547592163 165.8163212776184 L 131.2 160.7 L 135.4 151.3 L 139.0 140.9 L 141.9 129.6 L 144.1 117.4 L 145.5 104.2 L 146.3 90.0 L 146.4 74.8 L 146.4 62.1 Z M 33.6 188.1 L 29.5 186.1 L 28.0 181.8 L 28.5 174.3 L 28.6 167.4 L 28.2 161.2 L 27.4 155.6 L 26.2 150.7 L 25.30014820098877 148.37097187042235 L 24.5 148.2 L 24.850452041625978 147.2070524215698 L 24.5 146.3 L 22.5 142.4 L 19.9 138.9 L 16.8 135.7 L 13.1 132.8 L 13.8 131.1 L 18.8 132.5 L 23.4 134.9 L 27.5 138.2 L 27.99714288711548 138.7800000190735 L 29.6 134.7 L 32.3 127.9 L 35.6 119.9 L 39.4 110.7 L 43.9 100.3 L 48.9 88.7 L 54.6 75.9 L 61.0 62.0 L 62.7 62.6 L 58.1 77.3 L 53.9 90.6 L 50.0 102.6 L 46.6 113.3 L 43.6 122.8 L 41.1 131.0 L 39.1 137.9 L 37.6 143.6 L 36.6 147.9 L 36.2 150.7 L 35.263074684143064 150.4998023033142 L 36.4 153.2 L 38.1 159.6 L 39.3 166.6 L 39.9 174.3 L 39.9 182.5 L 37.9 186.6 Z M 80.4 148.9 L 80.4 166.1 L 92.1 166.1 L 92.1 148.9 Z M 80.4 127.8 L 80.4 144.9 L 92.1 144.9 L 92.1 127.8 Z M 80.4 106.7 L 80.4 123.8 L 92.1 123.8 L 92.1 106.7 Z M 28.3 79.0 L 27.3 77.0 L 25.9 74.9 L 24.3 72.8 L 22.4 70.7 L 20.2 68.6 L 17.7 66.4 L 14.9 64.3 L 11.8 62.5 L 12.4 60.8 L 16.0 61.9 L 19.6 62.8 L 23.0 63.9 L 26.1 65.3 L 29.1 66.9 L 31.8 68.7 L 34.4 70.7 L 36.7 72.9 L 38.8 75.4 L 40.7 78.0 L 40.8 82.6 L 37.8 86.0 L 33.2 86.2 L 29.8 83.1 L 29.2 81.1 Z M 105.3 56.8 L 105.3 74.2 L 114.1 74.2 L 114.1 56.8 Z M 77.2 56.8 L 77.2 74.2 L 86.0 74.2 L 86.0 56.8 Z M 112.1 14.5 L 114.9 16.5 L 112.1 18.25 L 112.1 29.0 L 115.5777777671814 29.0 L 121.8 22.0 L 129.8 29.0 L 129.8 33.0 L 112.1 33.0 L 112.1 45.1 L 101.1 50.6 L 101.1 33.0 L 90.2 33.0 L 90.2 45.1 L 79.2 50.6 L 79.2 33.0 L 61.5 33.0 L 61.5 29.0 L 79.2 29.0 L 79.2 12.5 L 90.2 14.5 L 92.9 16.5 L 90.2 18.223404216766358 L 90.2 29.0 L 101.1 29.0 L 101.1 12.5 Z M 40.5 30.8 L 39.3 28.7 L 37.9 26.6 L 36.4 24.5 L 34.5 22.3 L 32.5 20.2 L 30.2 18.1 L 27.7 16.0 L 24.7 14.2 L 25.5 12.5 L 28.8 13.6 L 32.2 14.5 L 35.4 15.7 L 38.4 17.1 L 41.2 18.7 L 43.9 20.5 L 46.4 22.5 L 48.8 24.6 L 50.9 27.0 L 52.8 29.6 L 53.1 34.2 L 50.2 37.7 L 45.7 38.0 L 42.1 35.1 L 41.4 32.9 Z " />
</g>
</svg>
