<svg xmlns="http://www.w3.org/2000/svg" xmlns:xlink="http://www.w3.org/1999/xlink" version="1.1" baseProfile="full" viewBox="0 0 200 200" width="200" height="200">
<g fill="black">
<path d="M 110.6 182.0 L 98.6 188.0 L 98.6 131.72250003814696 L 95.3 135.6 L 91.1 140.2 L 86.6 144.5 L 81.7 148.6 L 80.4 147.3 L 83.7 142.1 L 86.9 136.9 L 90.0 131.8 L 93.0 126.6 L 95.8 121.5 L 98.4 116.2 L 100.9 111.0 L 103.1 105.6 L 105.1 100.2 L 106.67575101852417 95.72154989242554 L 106.6 95.7 L 107.5 93.4 L 118.2 99.0 L 120.3 101.9 L 116.54681062698364 102.62429971694947 L 115.6 104.7 L 112.8 110.2 L 110.13333330154418 115.0 L 133.86666669845582 115.0 L 134.0 114.7 L 134.4 112.7 L 135.4 108.7 L 136.0 106.6 L 136.5 104.6 L 137.2 102.5 L 137.8 100.3 L 138.4 98.2 L 138.78779697418213 96.98120946884156 L 138.6 96.9 L 139.6 95.0 L 149.7 101.7 L 151.4 104.8 L 146.92372369766235 105.0315315246582 L 146.7 105.3 L 145.2 107.0 L 140.7 111.8 L 139.1 113.2 L 137.6 114.6 L 137.07692308425902 115.0 L 162.8181818008423 115.0 L 171.0 106.0 L 181.0 115.0 L 181.0 119.0 L 144.2 119.0 L 144.2 135.0 L 156.11818180084228 135.0 L 164.3 126.0 L 174.3 135.0 L 174.3 139.0 L 144.2 139.0 L 144.2 155.0 L 156.11818180084228 155.0 L 164.3 146.0 L 174.3 155.0 L 174.3 159.0 L 144.2 159.0 L 144.2 175.0 L 164.9 175.0 L 174.9 165.0 L 186.9 175.0 L 186.9 179.0 L 110.6 179.0 Z M 110.6 159.0 L 110.6 175.0 L 132.2 175.0 L 132.2 159.0 Z M 25.2 158.0 L 13.2 164.0 L 13.2 24.0 L 25.2 30.0 L 64.4 30.0 L 70.4 25.0 L 81.4 34.0 L 76.4 38.0 L 76.4 152.0 L 64.4 158.0 L 64.4 146.0 L 25.2 146.0 Z M 110.6 139.0 L 110.6 155.0 L 132.2 155.0 L 132.2 139.0 Z M 25.2 90.0 L 25.2 142.0 L 38.8 142.0 L 38.8 90.0 Z M 50.8 90.0 L 50.8 142.0 L 64.4 142.0 L 64.4 90.0 Z M 110.6 119.0 L 110.6 135.0 L 132.2 135.0 L 132.2 119.0 Z M 102.2 59.6 L 120.9 59.6 L 126.4 54.6 L 136.9 63.6 L 131.9 67.1 L 131.9 91.8 L 120.9 97.3 L 120.9 87.8 L 102.2 87.8 L 102.2 94.8 L 90.2 100.8 L 90.2 53.6 Z M 150.4 59.6 L 169.0 59.6 L 175.0 54.6 L 186.0 63.6 L 181.0 67.6 L 181.0 91.8 L 169.0 97.8 L 169.0 87.8 L 150.4 87.8 L 139.4 93.3 L 139.4 54.1 Z M 25.2 34.0 L 25.2 86.0 L 38.8 86.0 L 38.8 34.0 Z M 50.8 34.0 L 50.8 86.0 L 64.4 86.0 L 64.4 34.0 Z M 150.4 63.6 L 150.4 83.8 L 169.0 83.8 L 169.0 63.6 Z M 102.2 63.6 L 102.2 83.8 L 120.9 83.8 L 120.9 63.6 Z M 158.1 15.1 L 161.1 17.1 L 158.1 18.9 L 158.1 32.4 L 164.8 32.4 L 174.8 22.4 L 186.8 32.4 L 186.8 36.4 L 158.1 36.4 L 158.1 50.9 L 146.1 56.9 L 146.1 36.4 L 125.2 36.4 L 125.2 50.9 L 113.2 56.9 L 113.2 36.4 L 84.5 36.4 L 84.5 32.4 L 113.2 32.4 L 113.2 13.1 L 125.2 15.1 L 128.2 17.1 L 125.2 18.9 L 125.2 32.4 L 146.1 32.4 L 146.1 13.1 Z " />
</g>
</svg>
