<svg xmlns="http://www.w3.org/2000/svg" xmlns:xlink="http://www.w3.org/1999/xlink" version="1.1" baseProfile="full" viewBox="0 0 200 200" width="200" height="200">
<g fill="black">
<path d="M 147.3 183.7 L 135.7 182.6 L 126.1 180.7 L 118.2 177.9 L 111.9 174.3 L 107.0 169.9 L 103.4 164.8 L 100.9 159.3 L 100.1542857170105 156.77285718917847 L 99.86097564697266 156.91951217651368 L 99.4 157.6 L 97.5 160.9 L 95.6 163.9 L 93.6 166.9 L 89.6 172.5 L 85.6 177.7 L 84.3918604850769 179.21017446517945 L 85.1 183.4 L 81.6 182.6 L 71.9 175.3 L 73.4 173.9 L 75.8 172.1 L 78.3 170.3 L 80.8 168.4 L 86.0 164.4 L 88.7 162.3 L 91.7 159.942857170105 L 91.7 109.0 L 75.6 109.0 L 75.6 105.0 L 91.7 105.0 L 97.7 100.0 L 108.7 109.0 L 103.7 113.0 L 103.7 155.0 L 102.99774436950683 155.35112781524657 L 104.5 157.3 L 108.1 161.3 L 111.9 164.6 L 116.2 167.2 L 121.6 169.2 L 128.3 170.7 L 136.9 171.6 L 147.6 171.9 L 160.7 171.5 L 176.6 170.4 L 187.6 169.6 L 177.5 183.5 L 161.1 184.0 Z M 62.7 159.8 L 62.3 155.7 L 61.71711406707764 151.81409397125245 L 60.5 153.0 L 56.3 156.6 L 51.9 159.9 L 47.4 163.1 L 42.8 166.2 L 38.1 169.1 L 33.3 172.0 L 28.4 174.7 L 23.4 177.3 L 22.069565200805663 177.95217390060424 L 21.3 181.8 L 18.3 179.8 L 11.8 169.5 L 13.7 168.8 L 23.9 165.0 L 28.9 163.0 L 33.9 160.9 L 38.9 158.65510206222535 L 38.9 113.1 L 28.0 113.1 L 28.0 125.1 L 17.0 130.6 L 17.0 48.0 L 28.0 53.5 L 38.9 53.5 L 38.9 13.1 L 48.9 15.1 L 51.4 17.1 L 48.9 18.76666669845581 L 48.9 53.5 L 59.9 53.5 L 65.4 48.5 L 75.9 57.5 L 70.9 61.0 L 70.9 113.1 L 59.9 118.6 L 59.9 113.1 L 48.9 113.1 L 48.9 154.15918369293212 L 53.5 152.0 L 58.4 149.8 L 61.09372692108154 148.66863470077516 L 60.9 147.7 L 59.9 143.7 L 58.7 139.7 L 57.3 135.7 L 55.9 131.6 L 54.1 127.5 L 55.6 126.5 L 58.7 129.9 L 61.6 133.3 L 64.2 137.1 L 66.5 141.0 L 68.6 145.0 L 70.4 149.2 L 71.9 153.6 L 73.1 158.0 L 74.1 162.6 L 74.9 167.3 L 73.3 171.6 L 69.2 173.6 L 64.9 172.1 L 62.9 168.0 L 62.9 163.9 Z M 161.8 147.6 L 160.0 143.5 L 158.0 139.5 L 155.8 135.6 L 153.4 131.8 L 150.9 128.2 L 148.1 124.5 L 145.3 120.9 L 144.7085249900818 120.21312580108642 L 142.2 128.8 L 139.0 136.8 L 135.1 143.9 L 130.5 150.1 L 125.2 155.1 L 119.3 159.1 L 112.9 161.8 L 112.1 160.1 L 117.1 156.0 L 121.4 151.3 L 125.2 146.1 L 128.4 140.2 L 131.1 133.6 L 133.3 126.2 L 135.0 117.9 L 136.1 108.8 L 136.13999996185302 108.0 L 109.4 108.0 L 109.4 104.0 L 136.33999996185304 104.0 L 136.6 98.8 L 136.6 73.0 L 118.6 73.0 L 118.6 69.0 L 148.4181818008423 69.0 L 156.6 60.0 L 166.6 69.0 L 166.6 73.0 L 148.6 73.0 L 148.6 88.0 L 148.0 99.4 L 147.44112148284913 104.0 L 155.7 104.0 L 165.7 94.0 L 177.7 104.0 L 177.7 108.0 L 146.955140209198 108.0 L 146.7 110.1 L 145.3708137512207 116.9558030128479 L 147.6 118.2 L 151.7 120.8 L 155.5 123.8 L 159.1 127.1 L 162.5 130.7 L 165.6 134.5 L 168.6 138.5 L 171.3 142.8 L 173.8 147.3 L 176.0 152.0 L 175.9 156.6 L 172.6 159.8 L 168.0 159.6 L 164.8 156.3 L 163.4 151.9 Z M 28.0 57.5 L 28.0 109.1 L 38.9 109.1 L 38.9 57.5 Z M 48.9 57.5 L 48.9 109.1 L 59.9 109.1 L 59.9 57.5 Z M 88.3 76.0 L 87.2 73.6 L 86.0 71.2 L 83.4 66.6 L 82.0 64.4 L 80.5 62.3 L 79.0 60.1 L 77.1 58.3 L 78.1 56.8 L 80.5 58.1 L 83.1 59.2 L 85.6 60.6 L 88.0 62.2 L 90.4 64.0 L 92.7 65.9 L 94.8 68.1 L 97.0 70.4 L 99.0 72.9 L 100.9 75.5 L 101.4 80.0 L 98.5 83.6 L 94.0 84.0 L 90.4 81.2 L 89.4 78.5 Z M 135.3 34.1 L 137.7 36.8 L 133.8526717185974 37.89923667907715 L 133.7 38.3 L 131.9 42.4 L 129.7 46.3 L 127.4 50.0 L 124.8 53.6 L 121.9 56.9 L 118.8 60.1 L 115.5 63.1 L 111.8 65.7 L 108.0 68.3 L 106.8 66.9 L 109.5 63.4 L 111.9 59.8 L 114.1 56.3 L 116.1 52.8 L 117.9 49.3 L 119.5 45.7 L 120.9 42.1 L 122.0 38.4 L 123.0 34.8 L 123.51528825759888 32.00272083282471 L 123.5 32.0 L 123.55454549789428 31.789610385894775 L 123.7 31.0 L 123.75541954040527 31.014810371398926 L 124.2 29.3 Z M 164.9 61.3 L 162.3 57.8 L 160.0 54.0 L 158.0 50.1 L 156.3 46.0 L 154.9 41.8 L 154.0 37.3 L 153.4 32.7 L 153.15106382369996 28.8 L 132.2 28.8 L 132.2 24.8 L 149.2 24.8 L 154.0 20.8 L 165.0 29.8 L 160.0 32.8 L 157.92577323913574 33.83711338043213 L 158.9 35.6 L 161.0 39.2 L 163.2 42.5 L 165.5 45.5 L 167.9 48.3 L 170.5 50.8 L 173.1 53.1 L 175.9 55.1 L 178.9 57.0 L 182.0 59.3 L 171.1 67.6 L 167.8 64.6 Z M 93.3 38.2 L 92.2 35.8 L 91.1 33.5 L 89.9 31.2 L 87.1 26.6 L 85.7 24.2 L 83.8 22.3 L 84.9 20.8 L 87.3 22.3 L 89.9 23.6 L 92.4 25.2 L 94.7 26.9 L 97.0 28.9 L 99.2 30.9 L 103.2 35.5 L 105.1 38.1 L 106.8 40.7 L 106.9 45.3 L 103.9 48.7 L 99.3 48.8 L 95.9 45.7 L 94.3 40.7 Z M 153.8 27.844444465637206 L 154.0 27.8 L 153.8 27.73333330154419 Z " />
</g>
</svg>