<svg xmlns="http://www.w3.org/2000/svg" xmlns:xlink="http://www.w3.org/1999/xlink" version="1.1" baseProfile="full" viewBox="0 0 200 200" width="200" height="200">
<g fill="black">
<path d="M 110.0 17.2 L 112.5 19.8 L 109.01149158477783 20.983601093292236 L 107.1 28.3 L 104.2 39.2 L 101.1 49.8 L 97.8 60.3 L 94.4 70.4 L 93.35895519256592 73.29179105758666 L 96.9 74.0 L 99.4 76.0 L 96.9 77.66666669845581 L 96.9 183.5 L 86.9 188.5 L 86.9 90.46999998092652 L 83.1 99.4 L 78.8 108.5 L 74.3 117.3 L 72.6 116.6 L 75.3 107.2 L 78.0 97.6 L 80.8 87.9 L 83.6 78.0 L 86.3 68.0 L 88.9 57.7 L 91.4 47.3 L 93.8 36.6 L 96.1 25.7 L 98.0105447769165 15.601406002044678 L 98.0 15.6 L 98.09230766296386 15.169230747222901 L 98.2 14.6 L 98.21364164352417 14.60300579071045 L 98.6 12.8 Z M 176.9 174.4 L 173.6 170.3 L 170.5 165.8 L 167.6 161.2 L 164.9 156.3 L 162.4 151.2 L 160.1 145.9 L 158.0 140.4 L 156.1 134.6 L 156.1 182.0 L 144.1 188.0 L 144.1 142.6235294342041 L 143.7 143.4 L 140.1 149.6 L 136.1 155.5 L 131.7 161.0 L 127.0 166.1 L 122.0 170.8 L 116.5 175.0 L 110.7 178.7 L 109.5 177.2 L 114.0 172.2 L 118.1 167.1 L 122.0 161.9 L 125.6 156.5 L 128.9 150.9 L 132.0 145.1 L 134.7 139.0 L 137.1 132.7 L 139.3 126.1 L 140.0901960372925 123.0 L 118.5 123.0 L 118.5 119.0 L 144.1 119.0 L 144.1 95.0 L 156.1 97.0 L 159.1 99.0 L 156.1 100.8 L 156.1 119.0 L 162.3 119.0 L 172.3 109.0 L 184.3 119.0 L 184.3 123.0 L 156.1 123.0 L 156.1 123.23636360168457 L 158.4 127.0 L 161.5 132.3 L 164.5 137.3 L 167.5 142.1 L 170.5 146.6 L 173.6 150.9 L 176.7 154.9 L 179.9 158.7 L 183.2 162.2 L 187.6 166.6 Z M 15.2 186.7 L 12.4 183.1 L 12.8 178.6 L 14.2 176.6 L 15.5 174.2 L 16.8 171.5 L 18.0 168.4 L 19.1 164.9 L 20.2 161.1 L 21.2 157.0 L 22.1 152.5 L 23.1 147.7 L 23.8 142.5 L 25.6 142.5 L 26.2 147.8 L 26.8 152.8 L 27.1 157.5 L 27.1 162.0 L 27.0 166.3 L 26.7 170.3 L 26.2 174.1 L 25.4 177.7 L 24.5 181.1 L 23.4 184.3 L 19.8 187.1 Z M 49.2 166.5 L 49.0 163.9 L 48.7 161.3 L 48.3 158.7 L 47.7 156.1 L 46.3 150.9 L 45.4 148.3 L 44.1 145.8 L 45.5 144.7 L 47.5 146.8 L 49.7 148.8 L 51.7 151.0 L 53.6 153.4 L 55.2 155.9 L 56.7 158.6 L 58.1 161.4 L 59.3 164.3 L 60.3 167.4 L 61.2 170.5 L 59.8 174.9 L 55.9 177.2 L 51.5 175.9 L 49.2 171.9 L 49.3 169.2 Z M 37.9 181.1 L 33.8 179.0 L 32.4 174.7 L 32.9 172.4 L 33.3 170.0 L 33.7 167.4 L 33.9 164.7 L 34.0 161.9 L 34.0 158.9 L 33.9 155.8 L 33.7 152.6 L 33.6 149.2 L 32.9 145.7 L 34.6 145.1 L 36.1 148.4 L 37.8 151.5 L 39.2 154.6 L 40.4 157.7 L 41.5 160.7 L 42.4 163.8 L 43.1 166.8 L 43.7 169.8 L 44.1 172.7 L 44.3 175.7 L 42.2 179.7 Z M 64.9 161.9 L 64.4 159.4 L 63.8 157.1 L 63.0 154.7 L 62.2 152.5 L 61.3 150.2 L 60.3 148.0 L 59.2 145.7 L 57.7 143.8 L 58.9 142.5 L 61.0 144.0 L 63.3 145.4 L 65.4 147.0 L 67.5 148.9 L 69.4 150.9 L 71.2 153.2 L 72.9 155.6 L 74.5 158.2 L 75.9 160.9 L 77.3 163.7 L 76.6 168.3 L 73.1 171.1 L 68.6 170.5 L 65.7 167.0 L 65.3 164.4 Z M 114.1 55.0 L 116.6 57.0 L 114.1 58.66666669845581 L 114.1 154.5 L 104.1 159.5 L 104.1 53.0 Z M 20.6 136.2 L 20.6 66.92424240112305 L 18.3 70.2 L 14.8 74.6 L 13.2 73.8 L 14.9 68.5 L 18.7 57.7 L 20.5 52.1 L 22.4 46.4 L 24.2 40.5 L 25.9 34.5 L 27.6 28.2 L 29.2 21.8 L 30.7 15.2 L 30.755419540405274 15.214810371398926 L 31.2 13.5 L 42.3 18.3 L 44.7 21.0 L 41.0731764793396 22.036235332489014 L 40.1 25.0 L 37.8 31.4 L 37.34285717010498 32.6 L 51.5 32.6 L 57.5 27.6 L 68.5 36.6 L 63.5 39.6 L 61.18925619125366 40.56280994415283 L 60.9 41.1 L 59.4 43.7 L 57.7 46.4 L 55.8 49.3 L 53.6 52.2 L 51.3 55.2 L 48.7 58.2 L 45.7 61.4 L 44.135294151306155 63.3 L 59.4 63.3 L 64.9 58.3 L 75.4 67.3 L 70.4 70.8 L 70.4 130.7 L 59.4 136.2 L 59.4 130.7 L 31.6 130.7 Z M 31.6 99.0 L 31.6 126.7 L 40.5 126.7 L 40.5 99.0 Z M 50.5 99.0 L 50.5 126.7 L 59.4 126.7 L 59.4 99.0 Z M 162.9 94.5 L 157.2 89.2 L 152.760018157959 84.04962110519409 L 152.3 84.6 L 146.2 90.7 L 139.5 96.2 L 132.3 100.8 L 124.6 104.7 L 116.3 107.8 L 115.5 106.1 L 122.7 101.4 L 129.3 96.4 L 135.3 91.1 L 140.8 85.4 L 145.8 79.2 L 147.50969552993774 76.67431344985962 L 144.1 70.5 L 141.0 63.5 L 138.7 56.1 L 137.58269605636596 50.65314321517944 L 135.7 56.0 L 132.9 62.8 L 129.9 69.4 L 126.5 75.7 L 122.8 81.7 L 118.6 87.4 L 117.1 86.5 L 119.4 80.0 L 121.6 73.5 L 123.8 66.9 L 125.8 60.2 L 127.6 53.4 L 129.3 46.5 L 130.7 39.4 L 131.9 32.1 L 132.9 24.7 L 133.7 17.2 L 133.72856760025024 17.20360097885132 L 134.0 15.1 L 145.6 18.7 L 148.3 21.1 L 144.8609317779541 22.59242582321167 L 144.1 26.6 L 142.4 34.2 L 141.43733329772948 38.0 L 161.0 38.0 L 171.0 28.0 L 183.0 38.0 L 183.0 42.0 L 168.51875 42.0 L 174.3 44.5 L 176.7 47.2 L 172.9924138069153 48.25931034088135 L 171.1 53.7 L 167.3 62.4 L 162.9 70.4 L 159.21063833236695 75.9340425491333 L 159.9 76.7 L 164.8 81.1 L 170.1 85.2 L 175.9 88.9 L 182.2 92.1 L 187.3 94.8 L 176.0 103.8 L 169.2 99.4 Z M 31.6 67.3 L 31.6 95.0 L 40.5 95.0 L 40.5 67.3 Z M 50.5 67.3 L 50.5 95.0 L 59.4 95.0 L 59.4 67.3 Z M 140.4041666984558 42.0 L 139.84641160964966 43.74601583480835 L 141.2 47.2 L 144.2 54.1 L 147.6 60.4 L 151.3 66.3 L 152.7015347480774 68.14592390060425 L 154.1 65.6 L 157.5 58.0 L 160.4 49.9 L 162.51279067993164 42.0 Z M 35.81904764175415 36.6 L 35.4 37.7 L 32.9 43.7 L 30.3 49.5 L 27.5 55.1 L 24.857777786254882 59.92888889312744 L 31.6 63.3 L 41.656410217285156 63.3 L 43.4 59.9 L 45.0 55.9 L 46.5 52.3 L 47.8 48.9 L 48.9 45.7 L 49.9 42.7 L 50.6 40.0 L 51.2 37.4 L 51.34545450210571 36.6 Z " />
</g>
</svg>
