<svg xmlns="http://www.w3.org/2000/svg" xmlns:xlink="http://www.w3.org/1999/xlink" version="1.1" baseProfile="full" viewBox="0 0 200 200" width="200" height="200">
<g fill="black">
<path d="M 14.0 180.5 L 40.0 180.5 L 40.0 143.4 L 52.0 149.4 L 148.0 149.4 L 154.0 144.4 L 165.0 153.4 L 160.0 157.4 L 160.0 180.5 L 164.0 180.5 L 174.0 170.5 L 186.0 180.5 L 186.0 184.5 L 14.0 184.5 Z M 52.0 153.4 L 52.0 180.5 L 76.0 180.5 L 76.0 153.4 Z M 88.0 153.4 L 88.0 180.5 L 112.0 180.5 L 112.0 153.4 Z M 124.0 153.4 L 124.0 180.5 L 148.0 180.5 L 148.0 153.4 Z M 104.0 134.7 L 125.2 134.7 L 126.1 134.5 L 126.7 134.3 L 127.0 134.1 L 127.2 134.0 L 127.4 133.8 L 127.7 132.9 L 127.9 132.0 L 128.0 130.7 L 128.0 113.4 L 19.0 113.4 L 19.0 109.4 L 128.0 109.4 L 128.0 96.5 L 140.0 98.5 L 143.0 100.5 L 140.0 102.3 L 140.0 109.4 L 158.0 109.4 L 164.2714285850525 103.12857141494752 L 160.5 102.1 L 158.0 99.6 L 152.8 95.0 L 150.1 92.9 L 147.84009218215942 91.20506916046142 L 140.7 92.2 L 128.4 93.8 L 116.1 95.1 L 103.9 96.4 L 91.6 97.6 L 67.2 99.8 L 55.0 100.8 L 42.9 101.8 L 34.77795667648316 102.46574125289916 L 32.9 105.7 L 30.7 102.8 L 28.1 91.0 L 30.1 90.8 L 42.2 90.5 L 54.4 90.1 L 66.6 89.8 L 78.9 89.4 L 91.1 89.1 L 94.0 89.02926826477051 L 94.0 75.9 L 55.0 75.9 L 55.0 78.9 L 43.0 84.9 L 43.0 36.6 L 55.0 42.6 L 94.0 42.6 L 94.0 33.4 L 19.6 33.4 L 19.6 29.4 L 94.0 29.4 L 94.0 15.7 L 106.0 17.7 L 109.0 19.7 L 106.0 21.5 L 106.0 29.4 L 162.11818180084228 29.4 L 170.3 20.4 L 180.3 29.4 L 180.3 33.4 L 106.0 33.4 L 106.0 42.6 L 145.9 42.6 L 151.9 37.6 L 162.9 46.6 L 157.9 50.6 L 157.9 75.9 L 145.9 81.9 L 145.9 75.9 L 106.0 75.9 L 106.0 88.75772361755371 L 128.0 88.4 L 140.4 88.4 L 143.90220651626586 88.48473081588745 L 138.4 85.0 L 135.3 83.0 L 132.0 81.4 L 132.5 79.7 L 136.2 80.2 L 140.0 80.8 L 143.7 81.6 L 147.3 82.6 L 150.9 83.8 L 154.5 85.3 L 158.0 86.9 L 161.4 88.7 L 164.8 90.7 L 168.1 92.8 L 170.2 96.9 L 169.15356035232543 100.36130027770996 L 180.0 109.4 L 180.0 113.4 L 140.0 113.4 L 140.0 130.7 L 139.8 133.3 L 139.4 135.8 L 138.6 138.2 L 137.3 140.5 L 135.7 142.5 L 133.7 144.1 L 131.4 145.3 L 129.0 146.2 L 126.5 146.6 L 124.0 146.7 L 124.0 140.7 L 104.0 137.7 Z M 73.3 133.2 L 72.0 131.3 L 70.6 129.4 L 69.0 127.5 L 67.3 125.6 L 63.3 121.8 L 61.1 119.8 L 58.5 118.3 L 59.2 116.6 L 62.2 117.6 L 65.2 118.3 L 68.1 119.2 L 70.8 120.3 L 73.5 121.5 L 76.0 122.9 L 78.4 124.4 L 80.7 126.1 L 82.9 127.9 L 85.0 129.9 L 86.0 134.3 L 83.7 138.3 L 79.3 139.3 L 75.3 137.0 L 74.4 135.1 Z M 55.0 61.3 L 55.0 71.9 L 94.0 71.9 L 94.0 61.3 Z M 106.0 61.3 L 106.0 71.9 L 145.9 71.9 L 145.9 61.3 Z M 55.0 46.6 L 55.0 57.3 L 94.0 57.3 L 94.0 46.6 Z M 106.0 46.6 L 106.0 57.3 L 145.9 57.3 L 145.9 46.6 Z " />
</g>
</svg>