<svg xmlns="http://www.w3.org/2000/svg" xmlns:xlink="http://www.w3.org/1999/xlink" version="1.1" baseProfile="full" viewBox="0 0 200 200" width="200" height="200">
<g fill="black">
<path d="M 131.1 137.7 L 130.4 136.7 L 129.6 135.6 L 128.5 134.5 L 127.2 133.3 L 125.6 132.1 L 123.9 130.9 L 122.0 129.6 L 119.7 128.9 L 120.1 127.1 L 122.5 127.6 L 124.9 127.5 L 127.2 127.6 L 131.4 128.0 L 135.2 128.8 L 136.9 129.4 L 138.6 130.1 L 140.3 131.1 L 141.8 135.4 L 140.0 139.5 L 137.04375 140.6 L 145.3 140.6 L 151.3 135.6 L 162.3 144.6 L 157.3 148.6 L 157.3 180.4 L 145.3 186.4 L 145.3 178.4 L 71.6 178.4 L 71.6 181.4 L 59.6 187.4 L 59.6 152.0202127456665 L 55.1 153.6 L 34.8 159.7 L 13.2 165.4 L 12.7 163.7 L 33.7 156.1 L 53.3 148.5 L 59.6 145.8692307472229 L 59.6 134.6 L 71.6 140.6 L 72.16315793991089 140.6 L 88.3 133.3 L 101.44230766296387 126.6 L 15.0 126.6 L 15.0 122.6 L 80.0 122.6 L 80.0 106.6 L 36.0 106.6 L 36.0 102.6 L 80.0 102.6 L 80.0 86.8 L 92.0 88.8 L 95.0 90.8 L 92.0 92.6 L 92.0 102.6 L 119.81818180084228 102.6 L 128.0 93.6 L 138.0 102.6 L 138.0 103.88272724151611 L 141.1 101.6 L 150.7 93.4 L 158.9 85.1 L 158.91460552215577 85.11393394470215 L 159.2 84.8 L 167.6 93.4 L 168.4 96.9 L 164.66535396575927 96.11375875473023 L 158.3 102.0 L 147.6 110.2 L 135.5 118.1 L 127.72727270126343 122.6 L 166.8181818008423 122.6 L 175.0 113.6 L 185.0 122.6 L 185.0 126.6 L 120.57808218002319 126.6 L 107.4 133.1 L 91.3 140.2 L 90.2764705657959 140.6 L 134.5333333015442 140.6 L 131.5 139.3 L 131.4 138.5 Z M 71.6 161.5 L 71.6 174.4 L 145.3 174.4 L 145.3 161.5 Z M 80.04117650985718 144.6 L 73.9 147.0 L 71.6 147.80744676589967 L 71.6 157.5 L 145.3 157.5 L 145.3 144.6 Z M 92.0 106.6 L 92.0 122.6 L 108.8051281929016 122.6 L 117.6 117.7 L 130.1 109.7 L 134.309876537323 106.6 Z M 13.2 66.4 L 12.5 61.9 L 15.1 58.1 L 17.0 57.3 L 18.7 56.1 L 20.4 54.6 L 22.0 52.7 L 23.6 50.4 L 24.9 47.6 L 26.2 44.3 L 27.2 40.7 L 28.2 36.6 L 28.6 32.0 L 30.4 32.0 L 31.0 36.6 L 31.26136360168457 38.9 L 92.5 38.9 L 92.5 25.6 L 33.4 25.6 L 33.4 21.6 L 149.21818180084227 21.6 L 157.4 12.6 L 167.4 21.6 L 167.4 25.6 L 104.5 25.6 L 104.5 38.9 L 170.3 38.9 L 170.8581395149231 38.43488368988037 L 171.1 37.8 L 171.40191659927368 37.981736183166504 L 176.3 33.9 L 187.3 42.9 L 182.3 45.9 L 178.0221374511719 47.68244276046753 L 176.4 49.4 L 174.6 51.1 L 172.8 52.7 L 171.0 54.4 L 167.0 57.4 L 164.9 58.8 L 163.2 60.5 L 161.8 59.3 L 163.1 57.3 L 164.1 55.0 L 165.0 52.8 L 166.0 50.6 L 166.9 48.4 L 168.7 44.2 L 169.17272729873656 42.9 L 104.5 42.9 L 104.5 80.8 L 92.5 86.8 L 92.5 42.9 L 31.59047622680664 42.9 L 31.7 45.2 L 31.4 49.2 L 30.8 53.0 L 29.8 56.6 L 28.4 59.9 L 26.5 63.1 L 24.2 65.9 L 21.4 68.4 L 16.9 69.0 Z M 165.4 73.6 L 165.4 77.6 L 114.2 77.6 L 114.2 73.6 L 147.21818180084227 73.6 L 155.4 64.6 Z M 82.7 73.6 L 82.7 77.6 L 31.5 77.6 L 31.5 73.6 L 64.51818180084229 73.6 L 72.7 64.6 Z M 158.5 57.1 L 158.5 61.1 L 114.2 61.1 L 114.2 57.1 L 140.3181818008423 57.1 L 148.5 48.1 Z M 82.7 57.1 L 82.7 61.1 L 36.4 61.1 L 36.4 57.1 L 64.51818180084229 57.1 L 72.7 48.1 Z " />
</g>
</svg>
