<svg xmlns="http://www.w3.org/2000/svg" xmlns:xlink="http://www.w3.org/1999/xlink" version="1.1" baseProfile="full" viewBox="0 0 200 200" width="200" height="200">
<g fill="black">
<path d="M 36.4 24.6 L 77.3 24.6 L 83.3 19.6 L 94.3 28.6 L 89.3 32.6 L 89.3 67.0 L 77.3 73.0 L 77.3 67.0 L 36.4 67.0 L 36.4 181.2 L 24.4 187.2 L 24.4 18.6 Z M 139.5 173.2 L 160.8 173.2 L 161.7 173.0 L 162.3 172.8 L 162.6 172.6 L 162.8 172.5 L 162.9 172.3 L 163.1 172.0 L 163.3 171.4 L 163.5 170.5 L 163.5 67.0 L 122.6 67.0 L 110.6 73.0 L 110.6 18.6 L 122.6 24.6 L 163.5 24.6 L 169.5 19.6 L 180.5 28.6 L 175.5 32.6 L 175.5 169.2 L 175.4 171.8 L 175.0 174.3 L 174.1 176.7 L 172.9 179.0 L 171.3 181.0 L 169.3 182.6 L 167.0 183.8 L 164.6 184.7 L 162.1 185.1 L 159.5 185.2 L 159.5 179.2 L 139.5 176.2 Z M 104.0 168.0 L 124.0 168.0 L 125.2 167.9 L 126.1 167.7 L 126.7 167.6 L 127.0 167.4 L 127.4 167.0 L 127.7 166.1 L 127.9 165.2 L 128.0 164.0 L 128.0 149.7 L 94.9 149.7 L 89.9 153.7 L 89.9 168.1 L 77.9 174.1 L 77.9 168.1 L 60.8 168.1 L 48.8 174.1 L 48.8 139.7 L 60.8 145.7 L 77.9 145.7 L 83.9 140.7 L 93.2 148.30909090042115 L 93.2 145.7 L 128.0 145.7 L 128.0 138.8 L 140.0 140.8 L 143.0 142.8 L 140.0 144.6 L 140.0 145.7 L 145.2 145.7 L 149.7 139.7 L 155.7 145.7 L 155.7 149.7 L 140.0 149.7 L 140.0 164.0 L 139.8 166.5 L 139.4 169.0 L 138.6 171.4 L 137.3 173.7 L 135.7 175.7 L 133.7 177.4 L 131.4 178.6 L 129.0 179.4 L 126.5 179.8 L 124.0 180.0 L 124.0 174.0 L 104.0 171.0 Z M 105.0 162.0 L 104.6 160.8 L 104.1 159.5 L 102.7 157.1 L 100.7 154.5 L 99.5 153.2 L 97.9 152.6 L 98.5 150.8 L 100.2 151.4 L 102.2 151.4 L 104.1 151.7 L 105.9 152.1 L 107.8 152.8 L 109.6 153.6 L 111.3 154.6 L 112.9 155.8 L 114.5 157.2 L 116.0 158.7 L 116.4 163.2 L 113.7 166.8 L 109.1 167.3 L 105.5 164.5 L 105.3 163.3 Z M 60.8 149.7 L 60.8 164.1 L 77.9 164.1 L 77.9 149.7 Z M 158.4 132.9 L 158.4 136.9 L 41.5 136.9 L 41.5 132.9 L 147.9 132.9 L 152.4 126.9 Z M 48.3 122.9 L 94.0 122.9 L 94.0 115.4 L 56.4 115.4 L 56.4 111.4 L 127.5 111.4 L 132.0 105.4 L 138.0 111.4 L 138.0 115.4 L 106.0 115.4 L 106.0 122.9 L 139.8 122.9 L 144.3 116.9 L 150.3 122.9 L 150.3 126.9 L 48.3 126.9 Z M 161.3 105.1 L 156.3 108.1 L 150.3436363220215 110.58181819915771 L 148.5 112.0 L 147.0 113.0 L 145.6 114.0 L 144.0 114.9 L 142.8 116.3 L 141.4 115.1 L 142.4 113.7 L 143.2 110.3 L 143.6 108.7 L 144.2 105.7 L 144.3 105.23333330154419 L 144.3 105.1 L 44.2 105.1 L 44.2 101.1 L 144.3 101.1 L 144.8 100.6833333015442 L 144.8 100.5 L 144.93990669250488 100.56674442291259 L 150.3 96.1 Z M 53.9 90.9 L 94.0 90.9 L 94.0 82.8 L 46.3 82.8 L 46.3 78.8 L 94.0 78.8 L 94.0 69.6 L 106.0 71.6 L 109.0 73.6 L 106.0 75.4 L 106.0 78.8 L 143.1 78.8 L 147.6 72.8 L 153.6 78.8 L 153.6 82.8 L 106.0 82.8 L 106.0 90.9 L 135.5 90.9 L 140.0 84.9 L 146.0 90.9 L 146.0 94.9 L 53.9 94.9 Z M 122.6 47.3 L 122.6 63.0 L 163.5 63.0 L 163.5 47.3 Z M 36.4 47.3 L 36.4 63.0 L 77.3 63.0 L 77.3 47.3 Z M 122.6 28.6 L 122.6 43.3 L 163.5 43.3 L 163.5 28.6 Z M 36.4 28.6 L 36.4 43.3 L 77.3 43.3 L 77.3 28.6 Z " />
</g>
</svg>