<svg xmlns="http://www.w3.org/2000/svg" xmlns:xlink="http://www.w3.org/1999/xlink" version="1.1" baseProfile="full" viewBox="0 0 200 200" width="200" height="200">
<g fill="black">
<path d="M 130.7 183.7 L 112.3 182.6 L 97.2 180.8 L 85.0 178.1 L 75.1 174.6 L 67.2 170.3 L 61.1 165.3 L 56.4 159.6 L 54.27821521759033 155.8868766784668 L 52.0 158.1 L 48.4 161.5 L 44.9 164.6 L 41.3 167.7 L 37.7 170.6 L 26.9 178.7 L 23.323113918304443 181.18394861221313 L 23.1 185.2 L 19.8 183.6 L 12.1 174.3 L 13.8 173.3 L 17.6 171.4 L 21.4 169.6 L 29.2 165.6 L 33.2 163.6 L 37.2 161.5 L 44.0 158.1 L 44.0 109.0 L 14.0 109.0 L 14.0 105.0 L 44.0 105.0 L 50.0 100.0 L 61.0 109.0 L 56.0 113.0 L 56.0 153.70384616851806 L 59.5 156.8 L 64.9 160.7 L 70.8 164.1 L 78.0 166.8 L 87.1 169.0 L 98.6 170.6 L 113.0 171.6 L 130.9 171.9 L 152.6 171.5 L 178.7 170.4 L 190.0 169.9 L 179.2 183.5 L 152.9 184.0 Z M 165.9 55.1 L 161.1 51.7 L 158.0 49.02272729873657 L 158.0 53.0 L 135.0 53.0 L 140.5 54.0 L 143.2 56.0 L 140.5 57.723404216766355 L 140.5 68.0 L 152.5 68.0 L 158.0 63.0 L 168.5 72.0 L 163.5 75.5 L 163.5 90.0 L 168.7777777671814 90.0 L 175.0 83.0 L 183.0 90.0 L 183.0 94.0 L 163.5 94.0 L 163.5 119.0 L 152.5 124.5 L 152.5 115.0 L 140.5 115.0 L 140.5 117.71999998092652 L 141.7 119.4 L 145.1 124.0 L 148.6 128.2 L 152.2 132.2 L 155.9 135.7 L 159.9 139.0 L 164.0 141.9 L 168.4 144.6 L 172.9 146.9 L 177.7 149.0 L 183.6 151.7 L 172.2 160.9 L 166.9 157.9 L 161.9 154.4 L 157.3 150.7 L 153.0 146.6 L 149.1 142.1 L 145.7 137.4 L 142.6 132.3 L 140.5 127.9384614944458 L 140.5 163.2 L 129.5 168.7 L 129.5 115.0 L 115.0 115.0 L 115.0 163.0 L 103.0 169.0 L 103.0 131.48421049118042 L 100.5 135.3 L 96.4 140.6 L 92.2 145.2 L 87.7 149.3 L 83.1 152.8 L 78.3 155.5 L 73.3 157.6 L 68.3 158.8 L 67.6 157.1 L 71.6 154.2 L 75.3 151.1 L 79.0 147.7 L 82.4 143.9 L 85.7 139.7 L 88.9 135.0 L 92.0 129.9 L 94.9 124.3 L 97.8 118.2 L 99.06060609817504 115.0 L 79.0 115.0 L 79.0 111.0 L 103.0 111.0 L 103.0 94.0 L 62.0 94.0 L 62.0 90.0 L 103.0 90.0 L 103.0 72.0 L 79.0 72.0 L 79.0 68.0 L 103.0 68.0 L 103.0 53.0 L 87.0 53.0 L 87.0 49.0 L 136.0 49.0 L 146.0 39.0 L 157.25 48.375 L 156.7 47.9 L 152.7 43.9 L 149.3 39.6 L 146.4 35.1 L 144.0 30.4 L 143.024347782135 27.58782606124878 L 142.2 28.0 L 142.2 24.980000019073486 L 141.45384616851806 21.1 L 103.5 21.1 L 103.5 17.1 L 137.2800000190735 17.1 L 142.2 13.0 L 153.2 22.0 L 148.2 25.0 L 147.41509437561035 25.392452812194826 L 149.0 27.4 L 152.2 30.8 L 155.5 34.1 L 159.1 37.1 L 163.1 39.9 L 167.3 42.5 L 171.8 44.9 L 176.7 47.1 L 182.0 49.2 L 188.4 51.8 L 176.9 61.3 L 171.2 58.4 Z M 115.0 94.0 L 115.0 111.0 L 129.5 111.0 L 129.5 94.0 Z M 140.5 94.0 L 140.5 111.0 L 152.5 111.0 L 152.5 94.0 Z M 115.0 72.0 L 115.0 90.0 L 129.5 90.0 L 129.5 72.0 Z M 140.5 72.0 L 140.5 90.0 L 152.5 90.0 L 152.5 72.0 Z M 38.3 77.2 L 36.1 74.7 L 33.7 72.2 L 31.2 69.7 L 28.5 67.3 L 25.7 65.0 L 22.8 62.6 L 19.8 60.3 L 16.5 58.2 L 17.2 56.5 L 21.1 57.6 L 24.9 58.6 L 28.6 60.0 L 32.2 61.5 L 35.7 63.3 L 39.1 65.2 L 42.4 67.3 L 45.5 69.6 L 48.6 72.1 L 51.5 74.7 L 52.9 79.1 L 50.9 83.2 L 46.6 84.6 L 42.5 82.6 L 40.5 79.9 Z M 109.0 53.0 L 115.0 54.0 L 118.0 56.0 L 115.0 57.8 L 115.0 68.0 L 129.5 68.0 L 129.5 53.0 Z M 104.3 27.3 L 106.2 30.4 L 102.14646844863891 30.889219284057617 L 101.6 31.8 L 98.6 36.0 L 95.2 39.9 L 91.3 43.7 L 87.1 47.3 L 82.4 50.6 L 77.4 53.8 L 72.0 56.6 L 66.2 59.2 L 59.9 61.5 L 59.1 59.8 L 64.3 55.9 L 69.2 52.1 L 73.6 48.4 L 77.7 44.7 L 81.4 41.0 L 84.6 37.3 L 87.4 33.6 L 89.8 29.8 L 91.8 26.1 L 93.00513229370117 23.237810707092287 L 92.9 23.2 L 93.9 21.1 Z M 47.9 41.9 L 46.0 39.3 L 43.9 36.8 L 41.6 34.3 L 39.1 31.8 L 36.5 29.4 L 33.7 26.9 L 30.7 24.4 L 27.5 22.2 L 28.2 20.6 L 32.1 21.8 L 35.9 23.1 L 39.5 24.6 L 43.0 26.2 L 46.4 28.1 L 49.6 30.2 L 52.7 32.4 L 55.6 34.7 L 58.3 37.3 L 61.0 40.0 L 62.0 44.4 L 59.8 48.4 L 55.3 49.4 L 51.4 47.2 L 49.7 44.5 Z M 141.8 20.1235294342041 L 142.17428569793702 19.991428565979003 L 141.8 19.86666669845581 Z " />
</g>
</svg>
