<svg xmlns="http://www.w3.org/2000/svg" xmlns:xlink="http://www.w3.org/1999/xlink" version="1.1" baseProfile="full" viewBox="0 0 200 200" width="200" height="200">
<g fill="black">
<path d="M 96.2 177.0 L 106.2 177.0 L 107.4 176.9 L 108.4 176.7 L 108.9 176.5 L 109.3 176.4 L 109.5 176.2 L 109.6 176.0 L 109.8 175.7 L 110.0 175.1 L 110.1 174.2 L 110.2 173.0 L 110.2 150.0 L 88.5 150.0 L 88.5 183.2 L 77.5 188.7 L 77.5 94.5 L 88.5 100.0 L 110.2 100.0 L 116.2 95.0 L 127.2 104.0 L 122.2 108.0 L 122.2 173.0 L 122.1 175.5 L 121.6 178.0 L 120.8 180.4 L 119.6 182.7 L 118.0 184.7 L 115.9 186.3 L 113.7 187.6 L 111.3 188.4 L 108.8 188.8 L 106.2 189.0 L 106.2 183.0 L 96.2 180.0 Z M 138.4 177.5 L 148.4 177.5 L 149.4 177.4 L 150.0 177.3 L 150.4 177.1 L 150.7 177.0 L 150.8 176.8 L 151.0 176.6 L 151.2 176.1 L 151.4 175.4 L 151.6 174.3 L 151.7 173.0 L 151.7 130.0 L 133.0 130.0 L 133.0 126.0 L 151.7 126.0 L 151.7 99.0 L 127.2 99.0 L 127.2 95.0 L 151.7 95.0 L 151.7 68.0 L 137.6 68.0 L 137.6 66.24285717010498 L 136.8 67.7 L 133.7 72.3 L 130.3 76.4 L 128.8 75.5 L 130.3 70.5 L 131.9 65.4 L 133.6 60.2 L 135.1 54.6 L 136.7 48.9 L 138.1 42.8 L 139.5 36.5 L 140.8 29.9 L 141.9 23.0 L 142.8596393585205 16.805963897705077 L 142.8 16.8 L 143.4 14.0 L 154.8 18.0 L 157.4 20.5 L 153.9009204864502 21.86075315475464 L 153.1 25.3 L 151.30704221725463 32.0 L 163.8 32.0 L 169.8 27.0 L 180.8 36.0 L 175.8 39.0 L 173.49670333862304 39.959706974029544 L 171.2 44.4 L 168.0 50.4 L 166.2 53.5 L 164.3 56.6 L 162.3 59.8 L 160.0 63.0 L 159.39393939971924 64.0 L 172.4 64.0 L 177.9 59.0 L 188.4 68.0 L 183.4 71.5 L 183.4 92.0666666984558 L 185.7 89.0 L 191.7 95.0 L 191.7 99.0 L 183.4 99.0 L 183.4 136.0 L 172.4 141.5 L 172.4 130.0 L 162.7 130.0 L 162.7 173.0 L 162.5 175.4 L 162.2 177.7 L 161.5 180.0 L 160.5 182.1 L 159.1 184.1 L 157.3 185.7 L 155.3 187.0 L 153.1 187.8 L 150.8 188.3 L 148.4 188.5 L 148.4 183.0 L 138.4 180.2 Z M 30.0 41.7 L 57.4 41.7 L 62.9 36.7 L 73.4 45.7 L 68.4 49.2 L 68.4 140.2 L 57.4 145.7 L 57.4 134.2 L 30.0 134.2 L 30.0 146.2 L 18.0 152.2 L 18.0 35.7 Z M 88.5 127.0 L 88.5 146.0 L 110.2 146.0 L 110.2 127.0 Z M 30.0 45.7 L 30.0 130.2 L 57.4 130.2 L 57.4 45.7 Z M 162.7 99.0 L 162.7 126.0 L 172.4 126.0 L 172.4 99.0 Z M 88.5 104.0 L 88.5 123.0 L 110.2 123.0 L 110.2 104.0 Z M 162.7 68.0 L 162.7 95.0 L 172.4 95.0 L 172.4 68.0 Z M 71.4 81.0 L 93.6 81.0 L 93.6 62.0 L 77.4 62.0 L 77.4 58.0 L 93.6 58.0 L 93.6 39.0 L 74.9 39.0 L 74.9 35.0 L 93.6 35.0 L 93.6 13.0 L 105.6 15.0 L 108.6 17.0 L 105.6 18.8 L 105.6 35.0 L 110.0777777671814 35.0 L 116.3 28.0 L 124.3 35.0 L 124.3 39.0 L 105.6 39.0 L 105.6 58.0 L 107.5777777671814 58.0 L 113.8 51.0 L 121.8 58.0 L 121.8 62.0 L 105.6 62.0 L 105.6 81.0 L 109.61818180084228 81.0 L 117.8 72.0 L 127.8 81.0 L 127.8 85.0 L 71.4 85.0 Z M 150.12537317276002 36.0 L 149.2 39.1 L 147.0 45.5 L 144.7 51.5 L 142.3 57.3 L 139.6 62.6 L 138.83137254714967 64.0 L 156.76315793991088 64.0 L 157.4 61.8 L 158.2 58.0 L 159.1 54.4 L 159.9 50.9 L 160.7 47.5 L 161.5 44.2 L 162.2 41.0 L 162.9 38.0 L 163.3 36.0 Z " />
</g>
</svg>
