<svg xmlns="http://www.w3.org/2000/svg" xmlns:xlink="http://www.w3.org/1999/xlink" version="1.1" baseProfile="full" viewBox="0 0 200 200" width="200" height="200">
<g fill="black">
<path d="M 11.7 97.0 L 11.7 93.0 L 38.1 93.0 L 38.1 16.0 L 50.1 18.0 L 53.1 20.0 L 50.1 21.8 L 50.1 93.0 L 54.5 93.0 L 64.5 83.0 L 76.5 93.0 L 76.5 97.0 L 59.5 97.0 L 59.5 151.36842107772827 L 62.5 149.0 L 66.4 146.0 L 70.5 142.8 L 74.9 139.6 L 79.4 136.3 L 80.7 137.6 L 77.4 142.1 L 74.2 146.5 L 70.9 150.6 L 67.6 154.4 L 64.4 158.1 L 61.3 161.6 L 58.3 164.9 L 55.3 168.0 L 52.58816795349121 170.80534353256226 L 53.1 174.9 L 49.6 173.9 L 40.3 166.0 L 41.8 164.7 L 44.9 162.5 L 48.2 160.1 L 48.5 159.87058820724488 L 48.5 97.0 L 38.8 97.0 L 38.8 115.0 L 38.3 124.4 L 37.4 133.4 L 36.1 142.1 L 34.4 150.3 L 32.3 158.2 L 29.8 165.6 L 26.8 172.5 L 23.4 179.0 L 19.5 185.0 L 15.0 190.4 L 13.7 189.5 L 16.4 183.3 L 18.9 176.9 L 21.2 170.3 L 23.1 163.5 L 24.8 156.2 L 26.0 148.7 L 27.0 140.8 L 27.6 132.6 L 27.8 123.9 L 27.8 97.0 Z M 119.6 182.1 L 117.1 181.6 L 114.7 180.8 L 112.5 179.6 L 110.4 177.9 L 108.8 175.9 L 107.6 173.7 L 106.8 171.2 L 106.3 168.8 L 106.2 166.2 L 106.2 124.7 L 118.2 126.7 L 121.2 128.7 L 118.2 130.5 L 118.2 167.4 L 118.4 168.3 L 118.6 168.9 L 118.8 169.3 L 119.1 169.6 L 119.4 169.8 L 120.0 170.0 L 120.9 170.1 L 122.2 170.2 L 159.2 170.2 L 165.2 145.2 L 167.2 145.2 L 165.2 170.2 L 168.8 172.6 L 171.2 176.2 L 168.8 179.8 L 165.2 182.2 L 122.2 182.2 Z M 78.6 174.3 L 76.9 170.1 L 78.7 165.8 L 80.4 164.3 L 82.2 162.3 L 83.8 159.7 L 85.4 156.5 L 86.9 152.7 L 88.2 148.4 L 89.4 143.5 L 90.5 138.1 L 91.5 132.2 L 92.3 125.7 L 94.1 125.7 L 95.0 132.2 L 95.5 138.4 L 95.7 144.2 L 95.5 149.6 L 95.0 154.6 L 94.1 159.2 L 93.0 163.5 L 91.4 167.5 L 89.5 171.1 L 87.1 174.4 L 82.8 176.1 Z M 178.5 157.4 L 177.6 153.6 L 176.6 149.8 L 175.3 146.1 L 173.8 142.4 L 172.1 138.8 L 170.3 135.2 L 168.3 131.6 L 166.0 128.0 L 167.2 126.8 L 170.7 129.4 L 174.1 132.2 L 177.1 135.4 L 179.9 138.7 L 182.5 142.3 L 184.8 146.1 L 186.8 150.1 L 188.7 154.3 L 190.2 158.7 L 191.5 163.2 L 190.5 167.7 L 186.7 170.2 L 182.3 169.2 L 179.7 165.4 L 179.2 161.4 Z M 137.8 142.4 L 136.8 139.4 L 134.4 133.8 L 133.0 131.1 L 131.5 128.5 L 129.9 125.9 L 128.2 123.3 L 126.2 121.1 L 127.3 119.6 L 130.0 121.3 L 132.9 122.9 L 135.6 124.8 L 138.2 127.0 L 140.6 129.4 L 143.0 132.0 L 145.1 134.9 L 147.2 137.9 L 149.1 141.2 L 150.9 144.6 L 150.6 149.2 L 147.3 152.3 L 142.7 152.0 L 139.6 148.7 L 138.7 145.5 Z M 121.0 85.5 L 120.0 82.6 L 118.8 79.7 L 117.4 76.9 L 116.0 74.0 L 114.3 71.1 L 114.3 115.0 L 102.3 121.0 L 102.3 74.34193544387817 L 101.5 76.2 L 98.2 83.1 L 94.7 89.7 L 91.0 96.0 L 87.0 101.9 L 82.8 107.4 L 78.2 112.5 L 76.7 111.4 L 79.6 105.4 L 85.2 93.0 L 87.9 86.5 L 90.4 79.8 L 92.9 72.8 L 95.2 65.6 L 97.3 58.2 L 99.3 50.4 L 100.2625 46.0 L 78.1 46.0 L 78.1 42.0 L 102.3 42.0 L 102.3 13.0 L 114.3 15.0 L 117.3 17.0 L 114.3 18.8 L 114.3 42.0 L 116.31818180084228 42.0 L 124.5 33.0 L 134.5 42.0 L 134.5 46.0 L 114.3 46.0 L 114.3 64.25161294937134 L 115.7 65.2 L 118.6 67.5 L 121.3 69.9 L 123.8 72.4 L 126.1 75.1 L 128.3 78.0 L 130.3 80.9 L 132.2 83.9 L 133.8 87.1 L 133.6 91.6 L 130.2 94.8 L 125.7 94.5 L 122.5 91.2 L 121.8 88.3 Z M 149.1 24.3 L 174.2 24.3 L 180.2 19.3 L 191.2 28.3 L 186.2 32.3 L 186.2 114.4 L 174.2 120.4 L 174.2 112.4 L 149.1 112.4 L 137.1 118.4 L 137.1 18.3 Z M 149.1 83.2 L 149.1 108.4 L 174.2 108.4 L 174.2 83.2 Z M 73.1 38.2 L 75.6 40.8 L 71.97657957077027 42.05172700881958 L 71.7 43.0 L 70.3 47.7 L 68.8 52.4 L 67.2 57.0 L 65.6 61.5 L 63.9 66.0 L 62.1 70.5 L 60.1 74.8 L 58.0 79.1 L 55.7 83.2 L 54.0 82.7 L 54.5 78.0 L 55.2 73.3 L 55.9 68.7 L 56.7 64.0 L 57.5 59.4 L 59.1 50.0 L 59.9 45.2 L 60.6 40.5 L 61.248904132843016 36.60657529830932 L 61.2 36.6 L 61.8 33.8 Z M 22.3 67.8 L 22.0 63.9 L 21.5 59.9 L 20.1 51.7 L 19.1 47.5 L 18.1 43.2 L 17.1 38.7 L 15.8 34.2 L 17.4 33.5 L 20.1 37.4 L 22.6 41.3 L 24.9 45.3 L 26.9 49.4 L 28.7 53.5 L 30.2 57.7 L 31.6 61.9 L 32.8 66.1 L 33.7 70.3 L 34.5 74.5 L 33.0 78.8 L 29.0 80.9 L 24.7 79.5 L 22.5 75.4 L 22.5 71.6 Z M 149.1 55.7 L 149.1 79.2 L 174.2 79.2 L 174.2 55.7 Z M 149.1 28.3 L 149.1 51.7 L 174.2 51.7 L 174.2 28.3 Z " />
</g>
</svg>
