<svg xmlns="http://www.w3.org/2000/svg" xmlns:xlink="http://www.w3.org/1999/xlink" version="1.1" baseProfile="full" viewBox="0 0 200 200" width="200" height="200">
<g fill="black">
<path d="M 135.5 54.3 L 133.82434692382813 57.73949842453003 L 135.8 67.9 L 139.6 84.6 L 143.9 100.2 L 147.64137201309205 111.1186978340149 L 148.5 109.9 L 151.4 105.6 L 154.4 101.5 L 157.3 97.6 L 160.0 93.7 L 162.7 89.9 L 165.2 86.1 L 167.6 82.5 L 169.9 78.9 L 171.5817931175232 76.14797487258912 L 171.5 76.1 L 172.5 74.6 L 181.9 82.2 L 183.2 85.6 L 179.32034549713134 85.33243761062622 L 179.1 85.6 L 176.1 89.0 L 173.0 92.3 L 169.8 95.7 L 166.4 99.1 L 162.9 102.5 L 159.1 105.9 L 155.2 109.2 L 151.1 112.4 L 148.6827989578247 114.1579644203186 L 148.8 114.5 L 154.2 127.6 L 160.3 139.5 L 166.9 150.1 L 174.1 159.6 L 181.8 167.8 L 190.1 174.8 L 192.7 176.9 L 181.8 185.1 L 172.9 176.6 L 164.8 166.9 L 157.6 156.1 L 151.2 144.2 L 145.6 131.3 L 140.9 117.2 L 136.9 102.1 L 133.8 85.8 L 131.7 68.5 L 131.3608519554138 62.79614601135254 L 129.8 66.0 L 124.0 76.9 L 117.9 87.1 L 111.7 96.4 L 105.2 105.0 L 104.88336486816407 105.36389417648316 L 108.7 106.0 L 111.7 108.0 L 108.7 109.8 L 108.7 162.07246379852296 L 108.9 162.0 L 115.9 159.4 L 123.0 156.8 L 130.4 154.1 L 137.9 151.6 L 145.7 149.1 L 146.4 150.8 L 139.5 155.0 L 132.6 159.0 L 125.7 162.8 L 118.9 166.3 L 112.3 169.7 L 99.3 176.2 L 93.0 179.3 L 86.8 182.3 L 84.44368228912353 183.3815884590149 L 83.7 187.1 L 80.7 185.1 L 74.2 174.8 L 76.1 174.0 L 82.4 171.7 L 88.8 169.4 L 95.3 167.0 L 96.7 166.47761192321778 L 96.7 114.5 L 91.6 119.6 L 84.5 125.6 L 77.1 130.7 L 69.5 134.7 L 68.6 133.2 L 74.8 127.7 L 80.9 121.6 L 86.9 115.0 L 92.7 107.8 L 98.4 99.9 L 103.9 91.3 L 109.3 82.0 L 114.5 71.9 L 119.5 61.1 L 122.46483516693115 54.0 L 72.6 54.0 L 72.6 50.0 L 124.0 50.0 L 124.0 14.0 L 136.0 16.0 L 139.0 18.0 L 136.0 19.8 L 136.0 50.0 L 165.4 50.0 L 175.4 40.0 L 187.4 50.0 L 187.4 54.0 L 135.64347829818726 54.0 Z M 28.6 41.7 L 53.1 41.7 L 59.1 36.7 L 70.1 45.7 L 65.1 49.7 L 65.1 134.2 L 53.1 140.2 L 53.1 134.2 L 28.6 134.2 L 28.6 146.2 L 16.6 152.2 L 16.6 35.7 Z M 28.6 45.7 L 28.6 130.2 L 53.1 130.2 L 53.1 45.7 Z " />
</g>
</svg>
