<svg xmlns="http://www.w3.org/2000/svg" xmlns:xlink="http://www.w3.org/1999/xlink" version="1.1" baseProfile="full" viewBox="0 0 200 200" width="200" height="200">
<g fill="black">
<path d="M 18.0 176.3 L 30.0 176.3 L 31.2 176.2 L 32.1 176.1 L 32.7 175.9 L 33.0 175.7 L 33.2 175.6 L 33.4 175.4 L 33.5 175.0 L 33.7 174.5 L 33.9 173.5 L 34.0 172.3 L 34.0 127.5 L 9.6 127.5 L 9.6 123.5 L 48.4 123.5 L 58.4 113.5 L 70.4 123.5 L 70.4 127.5 L 46.0 127.5 L 46.0 172.3 L 45.8 174.9 L 45.4 177.4 L 44.6 179.8 L 43.3 182.0 L 41.7 184.1 L 39.7 185.7 L 37.4 186.9 L 35.0 187.7 L 32.5 188.2 L 30.0 188.3 L 30.0 182.3 L 18.0 179.3 Z M 31.1 142.7 L 33.5 145.4 L 29.72608699798584 146.4782608985901 L 29.5 147.1 L 27.8 151.4 L 25.9 155.7 L 23.8 160.0 L 21.6 164.1 L 19.2 168.3 L 16.6 172.3 L 13.8 176.2 L 10.8 180.1 L 7.5 183.8 L 6.0 182.8 L 9.4 173.8 L 11.0 169.4 L 14.0 160.8 L 15.3 156.5 L 16.6 152.3 L 17.7 148.0 L 19.28259105682373 140.6145749092102 L 19.2 140.6 L 19.9 137.9 Z M 138.2 183.1 L 123.0 179.7 L 112.4 175.0 L 105.4 170.1 L 101.3 166.0 L 99.5 164.0 L 99.1 163.4 L 95.5 165.0 L 92.18421049118042 167.82817335128783 L 91.0 169.5 L 89.4 171.9 L 87.7 174.4 L 86.0 177.0 L 84.95530471801757 178.82821674346923 L 86.4 182.7 L 82.8 182.6 L 72.55048389434815 177.6162902832031 L 69.1 180.3 L 64.6 179.6 L 61.8 176.0 L 61.1 172.1 L 60.3 168.2 L 59.3 164.5 L 57.1 157.3 L 55.8 153.9 L 54.4 150.5 L 52.9 147.1 L 51.4 143.8 L 49.5 140.5 L 50.9 139.4 L 53.8 141.8 L 56.7 144.5 L 59.4 147.3 L 61.9 150.4 L 64.2 153.8 L 66.4 157.3 L 68.4 161.0 L 70.2 164.8 L 71.9 168.8 L 73.4 173.0 L 72.99414892196656 175.6090425491333 L 73.0 175.6 L 75.5 173.0 L 78.0 170.5 L 80.5 168.1 L 83.1 166.0 L 85.7 164.0 L 88.3 162.3 L 91.0 160.7 L 93.7 159.4 L 94.0 159.2777777671814 L 94.0 95.0 L 75.3 95.0 L 75.3 91.0 L 94.0 91.0 L 99.5 86.0 L 110.0 95.0 L 105.0 98.5 L 105.0 158.751162815094 L 106.7 159.7 L 111.1 162.6 L 117.1 165.9 L 126.2 169.1 L 139.6 171.4 L 158.7 172.1 L 184.6 170.4 L 195.1 169.3 L 185.9 183.5 L 158.7 184.7 Z M 117.9 162.2 L 117.9 122.7 L 128.9 124.7 L 131.6 126.7 L 128.9 128.42340421676636 L 128.9 152.7 L 145.0 152.7 L 145.0 116.3 L 110.5 116.3 L 110.5 112.3 L 145.0 112.3 L 145.0 88.2 L 131.41219511032105 88.2 L 131.3 88.4 L 128.8 92.3 L 126.2 96.1 L 123.4 99.8 L 120.3 103.2 L 117.0 106.4 L 113.5 109.4 L 112.2 108.2 L 114.3 104.3 L 116.2 100.3 L 118.1 96.4 L 119.9 92.5 L 121.6 88.5 L 123.1 84.5 L 124.5 80.4 L 125.7 76.3 L 126.8 72.1 L 127.58660144805908 68.71761388778687 L 127.5 68.7 L 128.3 66.2 L 139.3 71.1 L 141.7 73.9 L 137.8605195045471 74.91038961410523 L 137.6 75.6 L 135.7 80.0 L 133.648837184906 84.2 L 162.0 84.2 L 172.0 74.2 L 184.0 84.2 L 184.0 88.2 L 157.0 88.2 L 157.0 112.3 L 169.6 112.3 L 179.6 102.3 L 191.6 112.3 L 191.6 116.3 L 157.0 116.3 L 157.0 152.7 L 172.7 152.7 L 172.7 122.7 L 184.7 124.7 L 187.7 126.7 L 184.7 128.5 L 184.7 158.7 L 172.7 164.7 L 172.7 156.7 L 128.9 156.7 Z M 60.2 96.1 L 57.6 90.9 L 55.0 85.4 L 52.7 79.7 L 50.5 73.7 L 48.5 67.4 L 46.7 60.9 L 45.2 54.1 L 44.2222222328186 47.7 L 39.331999969482425 47.7 L 38.9 49.3 L 35.7 58.9 L 32.1 68.2 L 28.1 77.2 L 23.6 85.7 L 18.6 93.8 L 13.0 101.5 L 7.0 108.6 L 5.5 107.6 L 9.8 99.4 L 13.9 91.2 L 17.7 82.8 L 21.1 74.2 L 24.2 65.3 L 26.9 56.2 L 28.979787254333495 47.7 L 7.8 47.7 L 7.8 43.7 L 29.807216453552247 43.7 L 31.1 37.1 L 32.7 27.1 L 33.9 16.8 L 34.1 14.8 L 45.8 18.3 L 48.5 20.7 L 45.112820053100585 22.169908332824708 L 43.9 29.0 L 41.6 39.3 L 40.411999988555905 43.7 L 50.1 43.7 L 60.1 33.7 L 72.1 43.7 L 72.1 47.7 L 46.48095235824585 47.7 L 49.1 52.7 L 52.2 58.9 L 55.2 64.7 L 58.1 70.3 L 61.1 75.7 L 64.1 80.7 L 67.1 85.4 L 70.2 89.9 L 73.4 94.0 L 76.6 97.9 L 76.7 98.1 L 66.0 105.8 L 63.1 101.1 Z M 56.8 94.1 L 56.8 98.1 L 23.2 98.1 L 23.2 94.1 L 42.577777767181395 94.1 L 48.8 87.1 Z M 185.8 38.7 L 188.2 41.3 L 184.39962921142578 42.54375772476196 L 183.1 45.7 L 181.6 49.0 L 180.0 52.2 L 178.3 55.3 L 176.5 58.2 L 174.6 60.9 L 172.6 63.5 L 170.4 65.9 L 168.4 68.2 L 166.9 67.3 L 168.0 64.5 L 170.4 55.5 L 171.1 52.4 L 171.9 49.2 L 172.5 46.0 L 173.1 42.7 L 173.95178918838502 36.907833671569826 L 173.9 36.9 L 174.06875 36.1125 L 174.1 35.9 L 174.11358880996704 35.903252029418944 L 174.5 34.1 Z M 123.5 54.7 L 122.7 50.5 L 122.1 48.3 L 121.4 46.1 L 120.6 43.9 L 119.8 41.6 L 118.4 39.5 L 119.7 38.3 L 121.6 40.1 L 123.7 41.6 L 125.7 43.3 L 127.5 45.2 L 129.2 47.1 L 130.7 49.2 L 132.2 51.4 L 133.5 53.7 L 134.7 56.1 L 135.7 58.5 L 134.8 63.0 L 131.0 65.6 L 126.6 64.7 L 124.0 61.0 L 123.8 56.8 Z M 146.9 49.7 L 146.7 47.9 L 146.5 46.0 L 146.2 44.2 L 145.9 42.3 L 145.6 40.5 L 145.3 38.6 L 144.4 37.0 L 145.8 36.0 L 147.1 37.4 L 148.7 38.6 L 150.2 40.0 L 151.7 41.5 L 153.0 43.1 L 154.3 44.9 L 155.5 46.7 L 156.7 48.6 L 158.7 52.8 L 157.9 57.3 L 154.2 60.0 L 149.7 59.2 L 147.0 55.5 L 147.0 51.6 Z M 94.9 49.2 L 93.8 46.3 L 92.5 43.4 L 89.5 37.6 L 87.7 34.7 L 85.9 31.9 L 83.9 29.0 L 81.6 26.3 L 82.7 24.9 L 85.8 26.8 L 89.0 28.8 L 91.9 30.9 L 94.7 33.3 L 97.3 35.9 L 99.8 38.6 L 102.1 41.5 L 104.2 44.5 L 106.2 47.7 L 108.0 51.0 L 107.8 55.5 L 104.6 58.7 L 100.0 58.6 L 96.8 55.3 L 95.9 52.3 Z M 182.8579550743103 14.97028284072876 L 190.9 22.2 L 191.1 25.4 L 187.19303932189942 23.751750946044922 L 186.6 24.0 L 179.6 26.5 L 172.4 28.6 L 165.2 30.5 L 157.8 32.0 L 150.4 33.2 L 142.8 34.0 L 135.2 34.5 L 127.5 34.7 L 119.7 34.3 L 111.8 33.4 L 111.8 31.6 L 119.6 30.5 L 127.1 29.3 L 134.5 28.0 L 141.7 26.5 L 148.7 24.9 L 155.7 23.0 L 162.4 20.8 L 169.1 18.4 L 175.6 15.8 L 181.02247400283812 13.34294147491455 L 181.0 13.3 L 181.0392903327942 13.335321617126464 L 182.0 12.9 Z " />
</g>
</svg>
