<svg xmlns="http://www.w3.org/2000/svg" xmlns:xlink="http://www.w3.org/1999/xlink" version="1.1" baseProfile="full" viewBox="0 0 200 200" width="200" height="200">
<g fill="black">
<path d="M 171.2 171.8 L 165.7 167.5 L 160.5 162.9 L 155.6 158.0 L 151.1 152.8 L 147.0 147.4 L 143.3 141.6 L 140.5 136.175 L 140.5 182.0 L 128.5 188.0 L 128.5 144.32799997329712 L 123.6 150.6 L 118.2 156.5 L 112.3 161.9 L 106.0 166.8 L 99.3 171.3 L 92.1 175.2 L 84.5 178.5 L 76.5 181.2 L 75.8 179.6 L 82.8 175.2 L 89.4 170.6 L 95.5 165.9 L 101.2 161.0 L 106.5 155.7 L 111.3 150.2 L 115.7 144.4 L 119.7 138.3 L 123.2 131.8 L 124.19523811340332 129.6 L 83.4 129.6 L 83.4 125.6 L 128.5 125.6 L 128.5 108.3 L 140.5 110.3 L 143.5 112.3 L 140.5 114.1 L 140.5 125.6 L 166.2 125.6 L 176.2 115.6 L 188.2 125.6 L 188.2 129.6 L 140.5 129.6 L 140.5 129.73333330154418 L 143.5 133.2 L 148.0 138.1 L 152.5 142.7 L 157.2 147.1 L 162.0 151.2 L 167.0 155.0 L 172.2 158.6 L 177.6 161.9 L 183.3 164.9 L 189.1 167.6 L 194.6 170.3 L 183.3 179.4 L 177.1 175.8 Z M 25.8 161.0 L 13.8 167.0 L 13.8 50.0 L 25.8 52.0 L 28.8 54.0 L 25.8 55.8 L 25.8 145.0 L 39.0 145.0 L 39.0 20.0 L 51.0 22.0 L 54.0 24.0 L 51.0 25.8 L 51.0 145.0 L 66.0 145.0 L 66.0 50.0 L 78.0 52.0 L 81.0 54.0 L 78.0 55.8 L 78.0 155.0 L 66.0 161.0 L 66.0 149.0 L 25.8 149.0 Z M 180.7 79.8 L 182.6 82.9 L 178.69779415130614 83.30367650985718 L 176.6 86.8 L 174.3 90.5 L 171.9 94.2 L 169.4 97.9 L 166.7 101.7 L 163.9 105.6 L 160.9 109.5 L 157.6 113.4 L 154.2 117.4 L 152.7 116.4 L 154.7 111.6 L 156.6 106.9 L 160.4 98.1 L 162.2 93.9 L 163.9 89.8 L 165.5 85.9 L 167.1 82.1 L 168.5 78.4 L 169.53145198822023 75.74769496917725 L 169.4 75.7 L 170.4 73.6 Z M 101.5 97.5 L 101.1 95.1 L 100.6 92.6 L 100.1 90.2 L 99.4 87.9 L 98.6 85.4 L 97.8 83.0 L 96.4 80.8 L 97.8 79.6 L 99.7 81.5 L 101.9 83.2 L 103.9 85.2 L 105.7 87.3 L 107.4 89.6 L 109.0 92.0 L 110.4 94.6 L 111.6 97.3 L 112.8 100.1 L 113.7 103.1 L 112.6 107.5 L 108.7 109.9 L 104.3 108.8 L 101.9 104.9 L 101.7 99.9 Z M 128.3 94.5 L 128.0 92.0 L 127.6 89.5 L 127.1 87.2 L 126.5 84.9 L 125.8 82.6 L 125.0 80.4 L 124.1 78.1 L 122.7 76.2 L 124.0 74.9 L 125.9 76.5 L 128.1 78.0 L 130.1 79.8 L 132.0 81.8 L 133.7 84.0 L 135.3 86.3 L 136.8 88.9 L 138.2 91.6 L 139.4 94.5 L 140.5 97.6 L 139.5 102.0 L 135.7 104.6 L 131.2 103.6 L 128.7 99.8 L 128.5 97.1 Z M 174.31280508041382 54.495906829833984 L 184.5 63.0 L 184.8 66.0 L 180.4513030052185 63.94644861221313 L 176.8 64.8 L 169.2 66.3 L 161.3 67.8 L 152.9 69.1 L 144.3 70.4 L 135.3 71.6 L 125.9 72.8 L 116.2 73.8 L 106.1 74.7 L 95.6 75.3 L 84.8 75.7 L 84.6 74.0 L 95.1 71.6 L 105.3 69.4 L 115.2 67.3 L 124.7 65.3 L 133.8 63.3 L 142.6 61.3 L 151.0 59.3 L 159.0 57.3 L 166.7 55.2 L 173.022594165802 53.46778240203857 L 173.0 53.4 L 173.06671676635742 53.45569400787353 L 174.0 53.2 Z M 158.8 14.5 L 161.8 16.5 L 158.8 18.3 L 158.8 34.7 L 169.4 34.7 L 179.4 24.7 L 191.4 34.7 L 191.4 38.7 L 158.8 38.7 L 158.8 47.0 L 146.8 53.0 L 146.8 38.7 L 122.1 38.7 L 122.1 55.9 L 110.1 61.9 L 110.1 38.7 L 77.5 38.7 L 77.5 34.7 L 110.1 34.7 L 110.1 12.5 L 122.1 14.5 L 125.1 16.5 L 122.1 18.3 L 122.1 34.7 L 146.8 34.7 L 146.8 12.5 Z " />
</g>
</svg>
