<svg xmlns="http://www.w3.org/2000/svg" xmlns:xlink="http://www.w3.org/1999/xlink" version="1.1" baseProfile="full" viewBox="0 0 200 200" width="200" height="200">
<g fill="black">
<path d="M 63.9 147.7 L 60.4 143.6 L 56.6 139.6 L 54.90227108001709 138.06395950317383 L 53.7 140.6 L 46.4 152.8 L 38.3 163.8 L 29.2 173.5 L 19.3 181.8 L 8.6 188.7 L 7.5 187.2 L 16.8 178.9 L 25.3 169.8 L 33.0 159.8 L 40.0 148.8 L 46.1 136.8 L 47.97233066558838 132.25786457061767 L 47.9 132.2 L 42.9 128.8 L 37.6 125.5 L 31.936231994628905 122.32034072875976 L 29.8 133.2 L 16.9 136.7 L 31.412123680114746 63.0 L 13.5 63.0 L 13.5 59.0 L 32.199755859375 59.0 L 41.1 13.8 L 52.4 18.1 L 55.0 20.6 L 51.71436386108398 21.591890144348145 L 44.36924409866333 59.0 L 65.1 59.0 L 71.1 54.0 L 82.1 63.0 L 77.1 66.0 L 76.24193229675294 66.35752820968628 L 74.1 79.8 L 70.3 96.7 L 65.6 112.5 L 60.1 127.1 L 58.764017295837405 129.91808853149413 L 62.6 132.5 L 67.5 136.4 L 72.0 140.6 L 76.1 145.3 L 79.9 150.2 L 80.6 154.7 L 78.1 158.5 L 73.5 159.2 L 69.8 156.6 L 67.0 152.1 Z M 109.5 174.0 L 130.7 174.0 L 131.6 173.8 L 132.2 173.6 L 132.5 173.4 L 132.7 173.3 L 132.9 173.1 L 133.1 172.8 L 133.2 172.2 L 133.4 171.3 L 133.5 170.0 L 133.5 149.4457142829895 L 126.9 150.2 L 117.8 151.2 L 110.1 152.1 L 103.9 152.9 L 99.1 153.6 L 98.1918731689453 153.76025772094727 L 96.4 157.4 L 94.0 154.7 L 91.76035633087159 147.42115812301637 L 91.2 147.3 L 91.28000001907348 145.86000003814698 L 90.4 143.0 L 92.4 142.8 L 94.7 142.8 L 97.5589861869812 142.87941627502443 L 98.2 142.6 L 103.1 140.3 L 109.1 137.3 L 116.1 133.5 L 124.2 129.0 L 130.92058410644532 125.0858136177063 L 125.7 125.7 L 119.7 126.5 L 114.4 127.2 L 109.8 127.8 L 105.9 128.4 L 102.86551723480224 128.9689655303955 L 101.0 132.7 L 98.6 129.9 L 95.3 118.3 L 97.2 118.0 L 99.3 118.1 L 99.84606742858887 118.14044942855836 L 99.9 118.1 L 102.2 116.6 L 105.1 114.6 L 108.7 112.3 L 112.8 109.5 L 117.5 106.2 L 122.9 102.4 L 128.8 98.2 L 134.53969898223878 94.04975605010986 L 134.5 94.0 L 134.54277725219725 94.0475302696228 L 135.3 93.5 L 139.08959274291993 99.09954748153686 L 142.6 103.0 L 142.7 106.5 L 139.28100633621216 105.07023897171021 L 135.0 107.7 L 128.6 111.4 L 122.8 114.7 L 117.4 117.4 L 114.57706708908081 118.72137289047241 L 119.4 118.9 L 125.5 119.2 L 132.3 119.5 L 139.55574426651 119.98371629714966 L 143.4 117.7 L 154.5 110.8 L 165.83049335479737 103.74165992736816 L 165.8 103.7 L 165.83684577941895 103.73770265579223 L 166.7 103.2 L 168.98480100631713 106.95886611938477 L 174.4 112.5 L 174.5 116.0 L 170.95909090042113 114.50909090042114 L 160.3 120.6 L 148.7 127.0 L 138.1 132.5 L 128.5 137.3 L 119.8 141.2 L 115.95917634963989 142.71611461639404 L 117.2 142.7 L 126.4 142.6 L 137.0 142.5 L 149.0 142.4 L 162.4 142.4 L 170.49012937545777 142.45466299057006 L 170.1 142.1 L 167.5 140.0 L 164.5 137.8 L 161.1 135.5 L 157.5 133.0 L 153.3 130.8 L 154.0 129.1 L 158.5 130.4 L 162.9 131.5 L 167.0 132.8 L 170.7 134.1 L 174.1 135.5 L 177.3 137.0 L 180.1 138.5 L 182.7 140.2 L 185.0 142.0 L 187.1 144.0 L 188.0 148.4 L 185.6 152.3 L 181.1 153.2 L 177.2 150.8 L 176.6 149.4 L 175.6 147.8 L 174.2 146.0 L 173.04939756393432 144.84939756393433 L 162.6 146.2 L 149.3 147.7 L 145.5 148.11512603759766 L 145.5 170.0 L 145.3 172.6 L 144.9 175.1 L 144.1 177.5 L 142.9 179.8 L 141.2 181.8 L 139.2 183.4 L 136.9 184.7 L 134.5 185.5 L 132.0 185.9 L 129.5 186.0 L 129.5 180.0 L 109.5 177.0 Z M 176.0 171.6 L 174.4 169.7 L 172.6 167.8 L 170.5 165.8 L 168.1 163.8 L 165.5 161.8 L 162.7 159.7 L 159.6 157.4 L 156.1 155.5 L 156.8 153.8 L 160.7 155.0 L 164.5 155.8 L 168.0 156.9 L 171.4 158.1 L 174.6 159.4 L 177.5 160.8 L 180.3 162.2 L 182.9 163.9 L 185.3 165.6 L 187.5 167.5 L 188.8 171.8 L 186.7 175.9 L 182.4 177.2 L 178.3 175.1 L 177.3 173.4 Z M 118.4 160.4 L 119.8 163.8 L 115.28224020004272 163.56632280349731 L 113.4 165.1 L 110.5 167.0 L 107.3 168.8 L 103.7 170.4 L 99.9 171.9 L 95.7 173.3 L 91.2 174.4 L 86.3 175.4 L 81.1 176.4 L 80.6 174.7 L 85.3 172.6 L 89.5 170.2 L 93.4 167.9 L 96.8 165.7 L 99.8 163.6 L 102.4 161.4 L 104.6 159.4 L 106.3 157.4 L 107.5 155.5 L 107.95916776657104 154.6326831817627 L 107.9 154.6 L 108.9 153.0 Z M 43.58384017944336 63.0 L 32.65322160720825 118.66876964569092 L 33.3 118.8 L 39.8 120.6 L 46.0 123.0 L 50.841434955596924 125.29763011932373 L 51.5 123.7 L 56.0 109.5 L 59.9 94.2 L 62.9 77.8 L 64.76057138442994 63.0 Z M 98.2 105.1 L 86.2 111.1 L 86.2 29.2 L 98.2 35.2 L 129.5 35.2 L 129.5 13.9 L 141.5 15.9 L 144.5 17.9 L 141.5 19.7 L 141.5 35.2 L 172.7 35.2 L 178.7 30.2 L 189.7 39.2 L 184.7 43.2 L 184.7 93.1 L 172.7 99.1 L 172.7 93.1 L 98.2 93.1 Z M 98.2 65.4 L 98.2 89.1 L 129.5 89.1 L 129.5 65.4 Z M 141.5 65.4 L 141.5 89.1 L 172.7 89.1 L 172.7 65.4 Z M 98.2 39.2 L 98.2 61.4 L 129.5 61.4 L 129.5 39.2 Z M 141.5 39.2 L 141.5 61.4 L 172.7 61.4 L 172.7 39.2 Z " />
</g>
</svg>
