<svg xmlns="http://www.w3.org/2000/svg" xmlns:xlink="http://www.w3.org/1999/xlink" version="1.1" baseProfile="full" viewBox="0 0 200 200" width="200" height="200">
<g fill="black">
<path d="M 59.8 176.0 L 79.8 176.0 L 81.0 175.9 L 81.9 175.7 L 82.5 175.5 L 82.9 175.4 L 83.1 175.2 L 83.2 175.0 L 83.4 174.7 L 83.6 174.1 L 83.7 173.2 L 83.8 172.0 L 83.8 123.0 L 62.06415090560913 123.0 L 60.4 128.4 L 54.9 143.1 L 48.6 156.6 L 41.5 168.7 L 33.6 179.5 L 32.2 178.4 L 38.2 166.8 L 43.7 154.3 L 48.7 140.8 L 53.2 126.2 L 53.96962022781372 123.0 L 42.0 123.0 L 42.0 119.0 L 54.93164558410645 119.0 L 57.0 110.4 L 60.3 93.6 L 60.53111114501953 92.0 L 40.5 92.0 L 40.5 88.0 L 61.108888912200925 88.0 L 62.9 75.6 L 63.69581155776977 68.0 L 48.1 68.0 L 48.1 64.0 L 64.11465969085694 64.0 L 64.9 56.5 L 65.76206893920899 44.0 L 43.5 44.0 L 43.5 40.0 L 66.03793106079101 40.0 L 66.3 36.2 L 67.06288738250733 15.697401332855225 L 67.0 15.7 L 67.2 12.4 L 79.1 15.2 L 82.0 17.3 L 78.85304918289185 19.02773771286011 L 77.7 36.9 L 77.38550720214843 40.0 L 86.0 40.0 L 96.0 30.0 L 108.0 40.0 L 108.0 44.0 L 76.9797101020813 44.0 L 75.6 57.6 L 74.67628870010375 64.0 L 84.51818180084229 64.0 L 92.7 55.0 L 102.7 64.0 L 102.7 68.0 L 74.09896907806396 68.0 L 72.8 77.0 L 70.75628414154053 88.0 L 89.0 88.0 L 99.0 78.0 L 111.0 88.0 L 111.0 92.0 L 70.01311473846435 92.0 L 69.4 95.3 L 65.3 112.5 L 63.29685535430908 119.0 L 83.8 119.0 L 83.8 96.0 L 95.8 98.0 L 98.8 100.0 L 95.8 101.8 L 95.8 119.0 L 100.5 119.0 L 105.0 113.0 L 111.0 119.0 L 111.0 123.0 L 95.8 123.0 L 95.8 172.0 L 95.7 174.5 L 95.2 177.0 L 94.4 179.4 L 93.2 181.7 L 91.5 183.7 L 89.5 185.3 L 87.3 186.6 L 84.9 187.4 L 82.4 187.8 L 79.8 188.0 L 79.8 182.0 L 59.8 179.0 Z M 155.4 55.7 L 153.1 51.7 L 153.0 49.0 L 152.9 46.1 L 152.6 43.3 L 152.2 40.4 L 151.7 37.5 L 151.1 34.5 L 150.4 31.5 L 149.6 28.5 L 148.8 25.3 L 147.5 22.3 L 149.0 21.3 L 151.1 24.0 L 153.3 26.5 L 155.4 29.2 L 157.2 32.0 L 158.9 34.8 L 160.4 37.8 L 161.8 40.8 L 163.0 43.9 L 164.1 47.0 L 165.0 50.2 L 163.7 54.6 L 161.32608699798584 56.0 L 165.5 56.0 L 175.5 46.0 L 187.5 56.0 L 187.5 60.0 L 160.7 60.0 L 160.7 92.0 L 163.9 92.0 L 173.9 82.0 L 185.9 92.0 L 185.9 96.0 L 160.7 96.0 L 160.7 129.0 L 163.9 129.0 L 173.9 119.0 L 185.9 129.0 L 185.9 133.0 L 160.7 133.0 L 160.7 170.0 L 168.6 170.0 L 178.6 160.0 L 190.6 170.0 L 190.6 174.0 L 131.9 174.0 L 131.9 181.0 L 119.9 187.0 L 119.9 66.27804880142212 L 116.4 71.4 L 111.9 77.1 L 107.1 82.5 L 105.6 81.4 L 111.8 68.6 L 114.8 62.2 L 117.7 55.7 L 120.4 49.1 L 122.9 42.4 L 125.3 35.6 L 127.6 28.6 L 129.6 21.5 L 131.25931634902955 15.212064361572265 L 131.2 15.2 L 132.0 12.6 L 143.0 17.6 L 145.4 20.3 L 141.7646369934082 21.25667448043823 L 140.5 25.0 L 137.7 32.2 L 134.7 39.2 L 131.5 46.1 L 128.1 52.7 L 126.22153844833375 56.0 L 156.5 56.0 Z M 22.4 186.9 L 18.3 185.0 L 16.7 180.7 L 17.2 173.5 L 17.3 166.9 L 17.2 160.9 L 16.8 155.5 L 16.0 150.8 L 15.622114944458009 149.21288290023804 L 14.3 149.0 L 14.986440658569336 146.55932207107543 L 13.8 143.0 L 12.3 139.8 L 10.5 136.9 L 8.3 134.2 L 9.1 132.6 L 12.9 134.0 L 16.3 136.3 L 17.624608516693115 137.71006708145143 L 18.1 136.2 L 20.1 129.8 L 22.5 122.1 L 25.3 113.3 L 28.5 103.4 L 32.2 92.3 L 36.4 80.0 L 41.2 66.7 L 42.9 67.2 L 40.1 81.1 L 37.4 93.7 L 34.9 105.1 L 32.6 115.3 L 30.7 124.3 L 29.1 132.1 L 27.8 138.6 L 26.9 144.0 L 26.3 148.1 L 26.1 150.9 L 24.882476329803467 150.70395803451538 L 25.9 153.7 L 27.2 159.7 L 28.1 166.3 L 28.6 173.5 L 28.7 181.2 L 26.7 185.3 Z M 131.9 133.0 L 131.9 170.0 L 148.7 170.0 L 148.7 133.0 Z M 69.8 153.3 L 69.2 150.9 L 68.5 148.4 L 67.7 145.9 L 66.6 143.4 L 65.4 140.8 L 64.0 138.3 L 62.4 135.6 L 60.4 133.3 L 61.6 131.9 L 64.2 133.8 L 67.0 135.5 L 69.5 137.4 L 71.9 139.6 L 74.1 141.9 L 76.1 144.3 L 77.9 147.0 L 79.5 149.7 L 80.9 152.7 L 82.1 155.7 L 81.3 160.2 L 77.6 162.9 L 73.1 162.0 L 70.4 158.3 L 70.2 155.8 Z M 131.9 96.0 L 131.9 129.0 L 148.7 129.0 L 148.7 96.0 Z M 131.9 60.0 L 131.9 92.0 L 148.7 92.0 L 148.7 60.0 Z M 17.1 82.2 L 16.6 80.3 L 15.8 78.4 L 14.9 76.5 L 13.8 74.6 L 12.5 72.7 L 11.1 70.8 L 9.4 68.8 L 7.3 67.2 L 8.2 65.6 L 10.7 66.8 L 13.3 67.7 L 15.8 68.8 L 18.2 70.1 L 20.4 71.7 L 22.5 73.4 L 24.4 75.3 L 26.2 77.4 L 27.8 79.7 L 29.2 82.2 L 28.8 86.7 L 25.4 89.8 L 20.9 89.4 L 17.8 86.0 L 17.5 84.1 Z M 25.5 36.3 L 24.9 34.4 L 24.2 32.4 L 23.3 30.5 L 22.3 28.6 L 21.1 26.7 L 19.7 24.8 L 18.2 22.8 L 16.3 21.2 L 17.2 19.7 L 19.5 20.8 L 22.1 21.7 L 24.4 22.9 L 26.7 24.2 L 28.9 25.7 L 30.9 27.5 L 32.8 29.3 L 34.5 31.4 L 36.1 33.6 L 37.6 36.0 L 37.4 40.6 L 34.1 43.8 L 29.5 43.5 L 26.4 40.2 L 26.0 38.3 Z " />
</g>
</svg>
