<svg xmlns="http://www.w3.org/2000/svg" xmlns:xlink="http://www.w3.org/1999/xlink" version="1.1" baseProfile="full" viewBox="0 0 200 200" width="200" height="200">
<g fill="black">
<path d="M 75.3 105.3 L 73.6 102.9 L 71.6 100.6 L 69.4 98.3 L 67.1 96.0 L 64.5 93.8 L 61.7 91.5 L 59.0 89.35862064361572 L 59.0 183.0 L 47.0 189.0 L 47.0 91.40555553436279 L 43.6 100.0 L 39.6 108.9 L 35.3 117.4 L 30.5 125.7 L 25.4 133.7 L 19.8 141.3 L 13.7 148.5 L 12.2 147.4 L 16.6 139.2 L 20.8 131.0 L 24.7 122.6 L 28.4 114.2 L 31.8 105.5 L 34.9 96.8 L 37.7 87.8 L 40.1 78.6 L 42.3 69.3 L 43.438554191589354 63.0 L 13.0 63.0 L 13.0 59.0 L 47.0 59.0 L 47.0 14.0 L 59.0 16.0 L 62.0 18.0 L 59.0 19.8 L 59.0 59.0 L 68.0 59.0 L 78.0 49.0 L 90.0 59.0 L 90.0 63.0 L 59.0 63.0 L 59.0 86.31052627563477 L 63.8 87.7 L 67.4 88.9 L 70.8 90.4 L 74.0 92.1 L 77.2 93.9 L 80.1 95.9 L 82.9 98.1 L 85.5 100.5 L 88.0 103.0 L 89.0 107.4 L 86.7 111.4 L 82.3 112.4 L 78.3 110.1 L 76.9 107.7 Z M 162.7 168.8 L 156.2 158.6 L 150.7 147.4 L 146.3 135.2 L 142.9 122.1 L 140.5 108.0 L 139.3823118209839 95.94493494033813 L 139.3 96.6 L 135.5 114.0 L 130.4 129.9 L 123.8 144.1 L 115.9 156.7 L 106.5 167.5 L 95.8 176.5 L 83.8 183.6 L 70.6 188.8 L 70.0 187.1 L 82.0 180.3 L 92.5 172.3 L 101.7 163.0 L 109.6 152.4 L 116.3 140.3 L 121.7 126.7 L 125.8 111.6 L 128.7 95.0 L 130.3 76.8 L 130.6 57.0 L 130.6 14.0 L 142.6 16.0 L 145.6 18.0 L 142.6 19.8 L 142.6 57.0 L 142.15039319992064 67.24104413986205 L 143.0 76.7 L 145.0 92.3 L 145.12050199508667 92.97203035354615 L 147.7 90.0 L 152.1 85.1 L 156.2 80.6 L 160.1 76.3 L 163.7 72.3 L 166.9 68.6 L 169.8 65.1 L 172.4 61.8 L 174.7 58.8 L 175.95991010665892 56.84013977050781 L 175.9 56.8 L 176.25675678253174 56.37837839126587 L 176.5 56.0 L 176.54592084884644 56.036639022827146 L 177.0 55.5 L 185.9 63.5 L 187.1 66.9 L 183.140625 66.35387935638428 L 180.4 69.0 L 177.1 72.0 L 173.5 75.2 L 169.6 78.5 L 165.3 81.9 L 160.7 85.5 L 155.6 89.2 L 150.2 92.9 L 145.62233896255492 95.77073659896851 L 147.6 106.8 L 151.0 120.0 L 155.1 132.2 L 160.0 143.1 L 165.6 152.9 L 172.0 161.6 L 179.1 169.2 L 186.9 175.8 L 189.7 177.9 L 178.8 186.1 L 170.2 178.0 Z M 95.4 105.1 L 93.6 100.9 L 95.1 96.7 L 97.2 94.5 L 99.2 91.9 L 100.9 88.9 L 102.4 85.2 L 103.6 81.0 L 104.6 76.3 L 105.2 71.1 L 105.6 65.3 L 105.8 59.0 L 105.8 52.1 L 107.5 51.8 L 109.5 58.5 L 110.9 64.9 L 111.7 71.0 L 112.1 76.8 L 112.0 82.3 L 111.4 87.4 L 110.3 92.3 L 108.7 96.8 L 106.6 101.0 L 103.9 104.9 L 99.7 106.7 Z " />
</g>
</svg>
