<svg xmlns="http://www.w3.org/2000/svg" xmlns:xlink="http://www.w3.org/1999/xlink" version="1.1" baseProfile="full" viewBox="0 0 200 200" width="200" height="200">
<g fill="black">
<path d="M 170.3 171.8 L 164.6 167.6 L 159.2 163.0 L 154.1 158.1 L 149.4 152.9 L 145.1 147.4 L 141.2 141.6 L 138.0 135.8588234901428 L 138.0 182.0 L 126.0 188.0 L 126.0 143.8659574508667 L 125.7 144.3 L 120.5 150.6 L 114.9 156.5 L 108.8 161.9 L 102.3 166.9 L 95.3 171.3 L 87.9 175.2 L 80.1 178.6 L 71.8 181.2 L 71.1 179.6 L 78.4 175.2 L 85.2 170.6 L 91.6 165.9 L 97.6 160.9 L 103.1 155.7 L 108.1 150.1 L 112.7 144.3 L 116.8 138.2 L 120.6 131.8 L 121.59523811340333 129.6 L 78.9 129.6 L 78.9 125.6 L 126.0 125.6 L 126.0 108.3 L 138.0 110.3 L 141.0 112.3 L 138.0 114.1 L 138.0 125.6 L 165.7 125.6 L 175.7 115.6 L 187.7 125.6 L 187.7 129.6 L 138.07450981140136 129.6 L 141.3 133.1 L 145.9 138.0 L 150.6 142.7 L 155.4 147.0 L 160.4 151.2 L 165.6 155.0 L 171.0 158.5 L 176.6 161.8 L 182.4 164.8 L 188.5 167.6 L 194.2 170.3 L 182.8 179.5 L 176.4 175.8 Z M 40.2 186.9 L 36.2 184.8 L 34.7 180.4 L 35.3 173.5 L 35.4 167.1 L 34.8 161.4 L 33.6 156.2 L 31.9 151.6 L 29.6 147.4 L 26.6 143.7 L 23.0 140.2 L 18.5 137.0 L 13.3 134.1 L 13.8 132.4 L 20.0 133.5 L 25.8 135.6 L 30.9 138.7 L 33.58687009811401 141.03640880584717 L 33.8 140.6 L 36.6 135.3 L 40.1 128.9 L 44.3 121.3 L 49.2 112.6 L 54.8 102.7 L 61.2 91.7 L 68.5 79.7 L 76.6 66.5 L 78.1 67.4 L 71.8 81.4 L 66.0 94.2 L 60.7 105.7 L 56.0 116.0 L 51.9 125.1 L 48.5 132.9 L 45.7 139.6 L 43.7 144.9 L 42.3 149.0 L 41.7 151.7 L 41.63459711074829 151.68009481430053 L 42.3 152.9 L 44.6 159.2 L 46.0 166.0 L 46.7 173.5 L 46.7 181.5 L 44.5 185.5 Z M 179.8 79.9 L 181.6 83.0 L 177.74036359786987 83.33272724151611 L 177.7 83.4 L 175.5 86.9 L 173.1 90.5 L 170.7 94.2 L 168.1 98.0 L 165.3 101.8 L 162.4 105.7 L 159.3 109.6 L 155.9 113.5 L 152.4 117.4 L 150.9 116.4 L 153.0 111.6 L 155.0 106.9 L 157.0 102.4 L 159.0 98.1 L 160.9 93.9 L 162.7 89.8 L 164.4 85.8 L 166.0 82.0 L 167.5 78.3 L 168.60789308547973 75.6410566329956 L 168.5 75.6 L 169.5 73.5 Z M 97.9 97.5 L 97.5 95.1 L 97.0 92.7 L 96.4 90.3 L 95.7 87.9 L 94.8 85.5 L 93.9 83.0 L 92.5 80.8 L 93.8 79.6 L 95.8 81.5 L 98.1 83.2 L 100.1 85.1 L 102.0 87.3 L 103.7 89.6 L 105.3 92.0 L 106.8 94.6 L 108.1 97.3 L 109.2 100.1 L 110.2 103.1 L 109.1 107.5 L 105.2 109.9 L 100.8 108.8 L 98.3 105.0 L 98.3 102.5 Z M 125.8 94.5 L 125.4 92.0 L 125.0 89.6 L 124.4 87.2 L 123.8 84.9 L 123.0 82.6 L 122.2 80.4 L 121.2 78.1 L 119.8 76.2 L 121.1 74.9 L 123.0 76.5 L 125.3 78.0 L 127.3 79.7 L 129.3 81.7 L 131.1 83.9 L 132.7 86.3 L 134.2 88.8 L 135.6 91.6 L 136.9 94.5 L 138.0 97.5 L 137.0 102.0 L 133.2 104.6 L 128.7 103.6 L 126.2 99.8 L 126.0 97.1 Z M 35.1 83.7 L 33.5 81.7 L 31.5 79.6 L 29.1 77.5 L 26.3 75.4 L 23.1 73.3 L 19.6 71.2 L 15.8 69.0 L 11.5 67.1 L 12.0 65.4 L 16.7 66.2 L 21.2 67.0 L 25.4 68.1 L 29.4 69.3 L 33.1 70.8 L 36.5 72.4 L 39.6 74.3 L 42.5 76.3 L 45.2 78.6 L 47.5 81.2 L 48.2 85.7 L 45.7 89.5 L 41.2 90.2 L 37.4 87.7 L 36.4 85.7 Z M 173.40995540618897 54.4841010093689 L 183.7 63.0 L 184.0 66.0 L 179.6340425491333 63.93829784393311 L 175.9 64.8 L 168.0 66.3 L 159.7 67.8 L 151.1 69.1 L 142.1 70.4 L 132.7 71.6 L 123.0 72.8 L 112.9 73.8 L 102.5 74.7 L 91.6 75.3 L 80.4 75.7 L 80.2 74.0 L 91.1 71.6 L 101.7 69.4 L 112.0 67.3 L 121.8 65.3 L 131.3 63.3 L 140.5 61.3 L 149.2 59.3 L 157.6 57.3 L 165.5 55.2 L 172.11935482025146 53.458064556121826 L 172.1 53.4 L 172.1579034805298 53.44792013168335 L 173.1 53.2 Z M 157.0 14.5 L 160.0 16.5 L 157.0 18.3 L 157.0 34.7 L 169.1 34.7 L 179.1 24.7 L 191.1 34.7 L 191.1 38.7 L 157.0 38.7 L 157.0 47.0 L 145.0 53.0 L 145.0 38.7 L 118.9 38.7 L 118.9 55.9 L 106.9 61.9 L 106.9 38.7 L 72.8 38.7 L 72.8 34.7 L 106.9 34.7 L 106.9 12.5 L 118.9 14.5 L 121.9 16.5 L 118.9 18.3 L 118.9 34.7 L 145.0 34.7 L 145.0 12.5 Z M 51.1 37.8 L 49.3 35.7 L 47.3 33.6 L 45.0 31.5 L 42.3 29.4 L 39.3 27.3 L 36.1 25.2 L 32.5 23.0 L 28.5 21.1 L 29.1 19.4 L 33.5 20.3 L 37.7 21.1 L 41.7 22.1 L 45.5 23.4 L 49.0 24.8 L 52.4 26.5 L 55.5 28.3 L 58.4 30.3 L 61.0 32.6 L 63.4 35.0 L 64.4 39.5 L 62.0 43.4 L 57.5 44.4 L 53.6 42.0 L 52.5 39.9 Z " />
</g>
</svg>
