<svg xmlns="http://www.w3.org/2000/svg" xmlns:xlink="http://www.w3.org/1999/xlink" version="1.1" baseProfile="full" viewBox="0 0 200 200" width="200" height="200">
<g fill="black">
<path d="M 46.5 123.5 L 45.4 120.7 L 44.2 117.8 L 42.8 114.9 L 41.3 112.0 L 39.6 109.1 L 38.6 107.57368421554565 L 38.6 182.0 L 26.6 188.0 L 26.6 112.8240740776062 L 26.1 113.5 L 20.3 120.6 L 14.1 127.2 L 7.4 133.5 L 6.1 132.4 L 11.1 124.9 L 16.0 117.3 L 20.6 109.8 L 25.0 102.1 L 26.6 99.16666669845581 L 26.6 97.0 L 27.781818199157716 97.0 L 29.2 94.4 L 33.0 86.4 L 36.6 78.3 L 39.8 70.1 L 42.8 61.7 L 44.22093019485474 57.0 L 9.2 57.0 L 9.2 53.0 L 45.2 53.0 L 51.2 48.0 L 62.2 57.0 L 57.2 60.0 L 55.36884880065918 60.762979698181155 L 53.5 65.6 L 49.7 74.2 L 45.7 82.6 L 41.3 90.7 L 37.423076915740964 97.0 L 38.6 97.0 L 38.6 101.725 L 40.8 103.1 L 43.8 105.4 L 46.5 107.8 L 49.1 110.4 L 51.5 113.1 L 53.8 115.9 L 55.8 118.8 L 57.7 121.9 L 59.4 125.1 L 59.1 129.6 L 55.8 132.8 L 51.2 132.5 L 48.1 129.2 L 47.4 126.4 Z M 128.6 181.8 L 111.3 178.2 L 99.2 173.3 L 91.2 168.2 L 86.4 163.9 L 84.1 161.7 L 83.0 161.1 L 78.8 163.0 L 74.48407640457154 166.41910829544068 L 73.5 167.6 L 71.4 170.2 L 69.4 172.9 L 67.4 175.7 L 65.7917119026184 178.03201780319213 L 67.1 181.9 L 63.5 181.7 L 52.8 175.8 L 54.0 174.3 L 56.8 171.4 L 59.6 168.8 L 62.5 166.3 L 65.4 164.0 L 68.3 161.9 L 71.2 160.0 L 74.2 158.3 L 77.2 156.9 L 78.2 156.54516124725342 L 78.2 88.5 L 55.8 88.5 L 55.8 84.5 L 78.2 84.5 L 83.7 79.5 L 94.2 88.5 L 89.2 92.0 L 89.2 156.1 L 91.6 157.3 L 96.5 160.5 L 103.6 164.1 L 114.2 167.5 L 130.0 170.1 L 152.3 170.8 L 182.3 169.0 L 193.0 168.0 L 183.5 182.1 L 152.3 183.4 Z M 134.4 162.9 L 131.9 162.5 L 129.5 161.7 L 127.2 160.5 L 125.2 158.8 L 123.5 156.8 L 122.3 154.5 L 121.5 152.1 L 121.1 149.6 L 120.9 147.1 L 120.9 124.5 L 132.9 126.5 L 135.9 128.5 L 132.9 130.3 L 132.9 147.1 L 133.0 148.3 L 133.2 149.2 L 133.3 149.8 L 133.5 150.1 L 133.9 150.5 L 134.2 150.7 L 134.8 150.8 L 135.7 151.0 L 136.9 151.1 L 163.9 151.1 L 169.9 126.1 L 171.62142858505248 126.1 L 171.7 126.0 L 171.8529411315918 126.1 L 171.9 126.1 L 171.8976608276367 126.12923974990845 L 174.3 127.7 L 177.0 129.1 L 179.5 130.8 L 181.8 132.7 L 184.0 134.7 L 185.9 136.9 L 187.7 139.3 L 189.3 141.8 L 190.7 144.4 L 192.0 147.2 L 191.2 151.7 L 187.5 154.4 L 183.0 153.6 L 180.3 150.0 L 180.1 147.8 L 179.8 145.6 L 179.3 143.4 L 178.6 141.2 L 177.8 138.9 L 176.8 136.6 L 175.6 134.3 L 174.2 132.0 L 172.7 129.5 L 171.7074073791504 128.50740737915038 L 169.9 151.1 L 173.5 153.5 L 175.9 157.1 L 173.5 160.7 L 169.9 163.1 L 136.9 163.1 Z M 99.1 156.4 L 98.0 152.0 L 100.2 148.0 L 101.4 147.5 L 102.6 146.7 L 103.9 145.5 L 105.1 143.9 L 106.3 141.9 L 107.4 139.4 L 108.5 136.6 L 109.4 133.4 L 110.3 129.8 L 110.7 125.9 L 112.5 125.8 L 112.9 129.8 L 113.5 133.7 L 113.7 137.3 L 113.8 140.7 L 113.5 143.9 L 113.0 147.0 L 112.2 149.9 L 111.0 152.7 L 109.5 155.2 L 107.5 157.6 L 103.1 158.7 Z M 146.9 136.6 L 146.3 134.9 L 145.5 133.1 L 144.7 131.4 L 143.8 129.7 L 142.7 127.9 L 141.5 126.2 L 140.2 124.3 L 138.5 123.0 L 139.4 121.5 L 141.4 122.5 L 143.7 123.2 L 145.9 124.1 L 148.0 125.2 L 150.0 126.5 L 151.9 127.9 L 153.8 129.5 L 155.5 131.2 L 157.1 133.1 L 158.6 135.1 L 158.8 139.6 L 155.8 143.0 L 151.2 143.2 L 147.8 140.2 L 147.4 138.4 Z M 100.0 121.8 L 100.0 87.6 L 111.0 93.1 L 177.4 93.1 L 183.4 88.1 L 194.4 97.1 L 189.4 101.1 L 189.4 116.3 L 177.4 122.3 L 177.4 116.3 L 111.0 116.3 Z M 111.0 97.1 L 111.0 112.3 L 125.5 112.3 L 125.5 97.1 Z M 137.5 97.1 L 137.5 112.3 L 151.4 112.3 L 151.4 97.1 Z M 163.4 97.1 L 163.4 112.3 L 177.4 112.3 L 177.4 97.1 Z M 174.7 79.7 L 169.9 75.8 L 165.86585540771483 71.66746168136596 L 164.2 73.3 L 158.5 77.4 L 152.3 80.8 L 145.5 83.3 L 138.2 84.9 L 137.8172839164734 83.5987654685974 L 137.2 84.0 L 135.1 85.2 L 132.9 86.1 L 130.6 86.8 L 128.3 87.3 L 125.9 87.6 L 123.5 87.7 L 123.5 81.7 L 103.5 78.7 L 103.5 75.7 L 123.5 75.7 L 124.9 75.6 L 126.3 75.4 L 127.6 75.2 L 128.8 74.8 L 130.0 74.3 L 131.1 73.7 L 132.1 73.0 L 133.2 72.2 L 134.2 71.2 L 134.60579710006715 70.7536231994629 L 134.8 69.2 L 135.0 67.0 L 135.2 64.1 L 135.3 60.6 L 135.3 56.4 L 135.4 51.7 L 135.374102973938 50.32745714187622 L 135.2 50.4 L 135.2 42.4 L 116.1956521987915 42.4 L 115.1 43.6 L 112.9 45.7 L 110.47692308425903 47.6384614944458 L 112.6 48.7 L 119.9 48.7 L 124.9 43.7 L 134.9 52.7 L 129.9 55.7 L 129.9 68.4 L 119.9 73.4 L 119.9 68.4 L 112.6 68.4 L 102.6 73.4 L 102.6 52.68000001907349 L 102.0 53.0 L 98.8 54.4 L 95.7 56.1 L 94.7 54.6 L 97.3 52.3 L 99.5 49.7 L 101.5 47.3 L 102.6 45.83333330154419 L 102.6 43.7 L 103.725 44.2625 L 104.9 42.5 L 106.3 40.2 L 107.5 38.0 L 108.5 35.8 L 109.2 33.6 L 109.46666669845581 32.66666669845581 L 108.0 33.4 L 108.0 26.2 L 95.7 26.2 L 95.7 22.2 L 108.0 22.2 L 108.0 13.0 L 119.0 15.0 L 121.7 17.0 L 119.0 18.723404216766358 L 119.0 22.2 L 126.9 22.2 L 126.9 13.0 L 137.9 15.0 L 140.6 17.0 L 137.9 18.723404216766358 L 137.9 22.2 L 142.9 22.2 L 147.4 16.2 L 153.4 22.2 L 153.4 26.2 L 137.9 26.2 L 137.9 30.7 L 126.9 36.2 L 126.9 26.2 L 119.0 26.2 L 119.0 27.9 L 112.1039647102356 31.348017597198485 L 120.8 36.4 L 122.0666666984558 38.4 L 135.2 38.4 L 141.2 33.4 L 149.98725872039796 40.58957529067993 L 151.3 37.8 L 152.8 34.4 L 154.2 31.0 L 155.4 27.5 L 156.5 24.0 L 157.5 20.4 L 158.4 16.8 L 158.91214389801024 14.019790077209473 L 158.8 14.0 L 159.5 11.4 L 170.7 16.1 L 173.1 18.8 L 169.191428565979 19.965714263916016 L 169.1 20.2 L 167.4 24.0 L 165.5 27.8 L 163.4 31.4 L 163.33529415130616 31.5 L 177.6777777671814 31.5 L 183.9 24.5 L 191.9 31.5 L 191.9 35.5 L 184.6300000190735 35.5 L 183.1 42.3 L 180.6 49.8 L 177.5 56.7 L 173.7 62.9 L 172.74517087936403 64.06701335906982 L 173.0 64.3 L 176.9 67.2 L 181.1 69.8 L 185.6 72.0 L 190.6 73.9 L 197.2 76.6 L 185.7 86.2 L 179.9 83.2 Z M 141.1 81.2 L 140.43913040161132 81.72173910140991 L 144.0 79.8 L 149.6 76.1 L 154.6 72.1 L 158.9 67.8 L 161.10065355300904 65.00457515716553 L 159.3 61.9 L 156.9 56.5 L 155.3 50.8 L 154.4 44.9 L 154.36875 42.93125 L 153.4 43.9 L 147.4 49.1 L 147.3519154548645 49.055350112915036 L 147.4 51.7 L 147.3 56.5 L 147.3 60.8 L 147.1 64.6 L 147.0 67.8 L 146.7 70.6 L 146.4 72.9 L 145.9 75.0 L 144.4 77.7 L 142.8 79.6 Z M 112.6 52.7 L 112.6 64.4 L 119.9 64.4 L 119.9 52.7 Z M 160.675 35.5 L 158.8 38.0 L 156.8536313056946 40.320670413970944 L 158.4 43.8 L 160.8 48.8 L 163.4 53.4 L 166.16501502990724 57.21381378173828 L 168.4 52.4 L 170.5 46.3 L 172.0 39.7 L 172.59154930114747 35.5 Z M 79.3 40.4 L 77.9 37.2 L 76.3 34.1 L 74.5 31.0 L 72.6 27.9 L 70.5 24.9 L 68.2 21.8 L 65.8 18.7 L 63.0 15.8 L 64.1 14.3 L 67.7 16.4 L 71.3 18.4 L 74.6 20.7 L 77.7 23.3 L 80.7 26.0 L 83.5 28.9 L 86.1 32.0 L 88.5 35.2 L 90.7 38.6 L 92.7 42.2 L 92.7 46.8 L 89.5 50.1 L 84.9 50.1 L 81.7 46.9 L 80.6 43.6 Z M 147.28580856323242 45.34851484298706 L 147.29220781326293 45.732467555999754 L 147.68000001907347 45.11199998855591 Z M 30.5 32.1 L 29.9 29.5 L 29.2 27.0 L 28.4 24.6 L 27.5 22.2 L 26.5 19.9 L 25.4 17.6 L 24.2 15.2 L 22.5 13.3 L 23.7 11.9 L 25.9 13.4 L 28.4 14.9 L 30.7 16.6 L 32.8 18.5 L 34.9 20.7 L 36.8 23.1 L 38.5 25.7 L 40.1 28.4 L 41.6 31.4 L 43.0 34.5 L 42.3 39.0 L 38.7 41.8 L 34.2 41.2 L 31.4 37.6 L 31.0 34.8 Z " />
</g>
</svg>
