<svg xmlns="http://www.w3.org/2000/svg" xmlns:xlink="http://www.w3.org/1999/xlink" version="1.1" baseProfile="full" viewBox="0 0 200 200" width="200" height="200">
<g fill="black">
<path d="M 119.7 166.2 L 118.4 162.7 L 117.92477874755859 161.59115047454833 L 116.0 162.9 L 111.1 165.9 L 106.3 168.7 L 101.5 171.2 L 96.9 173.6 L 92.3 175.8 L 87.9 177.9 L 83.7 179.8 L 79.5 181.6 L 79.47068405151367 181.61172637939453 L 78.4 185.5 L 75.5 183.2 L 70.0 172.4 L 71.9 171.8 L 75.9 170.8 L 79.4 169.88333330154418 L 79.4 66.9 L 91.4 72.9 L 118.5 72.9 L 124.0 67.9 L 134.5 76.9 L 129.5 80.4 L 129.5 131.1 L 118.5 136.6 L 118.5 129.1 L 91.4 129.1 L 91.4 166.4340425491333 L 93.7 165.7 L 98.6 164.2 L 103.7 162.6 L 109.0 161.0 L 114.5 159.4 L 116.72350816726684 158.8249547958374 L 115.3 155.8 L 113.5 152.5 L 111.5 149.2 L 109.5 146.0 L 107.3 142.7 L 104.8 139.5 L 106.0 138.1 L 109.5 140.4 L 112.9 142.8 L 116.1 145.4 L 119.1 148.3 L 121.9 151.3 L 124.5 154.6 L 127.0 158.0 L 129.2 161.6 L 131.3 165.4 L 133.2 169.3 L 133.0 173.9 L 129.6 177.0 L 125.1 176.7 L 122.0 173.4 L 120.9 169.7 Z M 12.9 186.5 L 10.3 182.7 L 11.1 178.2 L 12.4 176.5 L 13.7 174.3 L 14.9 171.7 L 16.0 168.6 L 17.0 165.1 L 17.9 161.1 L 18.6 156.7 L 19.3 151.9 L 19.9 146.7 L 20.2 141.0 L 22.0 140.9 L 23.1 146.5 L 24.0 151.8 L 24.6 156.8 L 25.0 161.6 L 25.0 166.1 L 24.8 170.3 L 24.4 174.2 L 23.6 177.9 L 22.6 181.4 L 21.2 184.6 L 17.4 187.2 Z M 158.5 160.8 L 169.7 160.8 L 170.6 160.6 L 171.2 160.4 L 171.6 160.2 L 171.9 159.9 L 172.1 159.6 L 172.3 159.0 L 172.4 158.1 L 172.5 156.8 L 172.5 76.9 L 150.6 76.9 L 150.6 183.9 L 139.6 189.4 L 139.6 67.4 L 150.6 72.9 L 172.5 72.9 L 178.5 67.9 L 189.5 76.9 L 184.5 80.9 L 184.5 156.8 L 184.3 159.4 L 183.9 161.9 L 183.1 164.3 L 181.9 166.5 L 180.2 168.6 L 178.2 170.2 L 175.9 171.4 L 173.5 172.2 L 171.0 172.7 L 168.5 172.8 L 168.5 166.8 L 158.5 163.8 Z M 42.0 177.9 L 37.8 176.0 L 36.2 171.7 L 36.6 168.4 L 36.9 165.0 L 37.1 161.7 L 37.2 158.3 L 37.1 154.9 L 36.7 147.9 L 36.3 144.4 L 35.9 140.8 L 35.1 137.2 L 36.8 136.5 L 38.6 139.8 L 40.6 143.1 L 42.2 146.5 L 43.6 149.9 L 44.8 153.5 L 45.9 157.1 L 46.7 160.8 L 47.4 164.5 L 47.9 168.3 L 48.2 172.2 L 46.2 176.3 Z M 62.9 170.9 L 58.8 168.8 L 57.4 164.4 L 57.9 161.9 L 58.2 159.2 L 58.3 156.4 L 58.2 153.5 L 57.8 150.3 L 57.2 147.0 L 56.4 143.6 L 55.3 139.9 L 54.1 136.1 L 52.4 132.3 L 53.9 131.3 L 56.6 134.7 L 59.2 137.9 L 61.5 141.2 L 63.5 144.6 L 65.2 148.0 L 66.7 151.4 L 67.8 154.9 L 68.6 158.4 L 69.2 161.9 L 69.4 165.5 L 67.2 169.5 Z M 55.6 118.6 L 55.57580642700195 118.27338705062866 L 49.0 120.1 L 42.6 121.8 L 36.8 123.2 L 31.9 124.5 L 27.6 125.7 L 24.1 126.6 L 22.536094665527344 127.1213017463684 L 20.7 131.3 L 18.2 128.7 L 14.1 117.2 L 15.330769252777099 117.01538457870484 L 15.6 116.1 L 17.0 115.0 L 18.7 113.2 L 21.3 110.1 L 24.5 105.6 L 28.4 99.7 L 32.9 92.4 L 37.9 83.7 L 42.869900703430176 74.80649347305298 L 39.5 76.0 L 35.2 77.4 L 31.2 78.6 L 27.6 79.8 L 24.4 80.8 L 21.6 81.7 L 19.919999980926512 82.26000003814697 L 17.8 86.5 L 15.4 83.8 L 12.0 72.1 L 13.33333330154419 71.96666669845581 L 14.2 71.1 L 15.2 69.7 L 16.9 67.3 L 19.1 63.8 L 21.8 59.1 L 24.9 53.3 L 28.4 46.3 L 32.2 38.1 L 36.5 28.8 L 40.691022872924805 19.233534717559813 L 40.6 19.2 L 41.6 17.2 L 52.0 23.4 L 53.8 26.5 L 50.23209657669067 26.869093418121338 L 46.7 33.8 L 41.8 43.0 L 37.2 51.1 L 32.9 58.0 L 28.9 63.7 L 25.2 68.3 L 21.8 71.8 L 21.181818199157714 72.2 L 23.0 72.2 L 26.3 72.1 L 30.0 71.9 L 34.2 71.8 L 38.8 71.6 L 43.8 71.5 L 44.71479368209839 71.43223752975464 L 49.8 62.0 L 56.12379865646362 49.910384845733645 L 56.1 49.9 L 57.1 48.0 L 67.1 54.7 L 68.8 57.9 L 65.17778997421264 58.024903774261475 L 59.7 67.5 L 52.9 78.9 L 46.5 88.9 L 40.6 97.5 L 35.3 104.6 L 30.4 110.4 L 26.0 114.6 L 22.92286901473999 116.77650728225709 L 26.1 116.6 L 30.5 116.3 L 35.6 115.9 L 41.5 115.4 L 48.2 114.9 L 55.20306510925293 114.52145595550537 L 55.0 113.1 L 54.5 110.4 L 53.8 107.6 L 52.8 104.8 L 51.7 102.0 L 50.4 99.0 L 48.6 96.3 L 49.9 95.1 L 52.4 97.3 L 55.1 99.5 L 57.5 101.9 L 59.6 104.6 L 61.5 107.4 L 63.2 110.3 L 64.6 113.5 L 65.8 116.8 L 66.7 120.2 L 67.4 123.7 L 65.8 128.0 L 61.6 129.9 L 57.4 128.3 L 55.4 124.2 L 55.6 121.4 Z M 91.4 102.7 L 91.4 125.1 L 118.5 125.1 L 118.5 102.7 Z M 91.4 76.9 L 91.4 98.7 L 118.5 98.7 L 118.5 76.9 Z M 105.0 54.4 L 104.3 52.3 L 103.4 50.1 L 102.4 47.9 L 101.1 45.7 L 99.6 43.4 L 98.0 41.1 L 96.2 38.7 L 94.66666669845581 37.3 L 92.8127272605896 37.3 L 91.3 40.5 L 88.4 45.7 L 85.2 50.7 L 81.7 55.5 L 77.8 60.1 L 73.6 64.3 L 69.0 68.2 L 67.7 67.0 L 70.7 62.0 L 73.5 57.0 L 76.1 52.0 L 78.6 47.0 L 80.8 41.9 L 82.7 36.8 L 84.5 31.5 L 86.0 26.2 L 87.2 20.7 L 88.01777448654175 16.202240467071533 L 88.0 16.2 L 88.11999998092651 15.639999961853027 L 88.2 15.2 L 88.21366024017334 15.202918815612794 L 88.6 13.4 L 99.9 17.7 L 102.4 20.2 L 98.82368240356445 21.435455131530762 L 98.2 23.6 L 96.2 29.4 L 94.59821424484252 33.3 L 116.01818180084229 33.3 L 124.2 24.3 L 134.2 33.3 L 134.2 37.3 L 99.0384614944458 37.3 L 100.6 38.0 L 103.3 39.6 L 105.8 41.3 L 108.1 43.2 L 110.3 45.2 L 112.3 47.4 L 114.1 49.7 L 115.8 52.2 L 117.2 54.8 L 116.8 59.4 L 113.4 62.4 L 108.8 62.0 L 105.8 58.6 L 105.5 56.5 Z M 160.3 54.4 L 159.6 52.3 L 158.7 50.1 L 157.7 47.9 L 156.4 45.7 L 154.9 43.4 L 153.3 41.1 L 151.5 38.7 L 149.9666666984558 37.3 L 147.67254905700685 37.3 L 146.5 39.6 L 143.6 44.5 L 140.4 49.2 L 136.9 53.6 L 133.0 57.6 L 128.8 61.3 L 124.3 64.6 L 123.0 63.3 L 126.0 58.8 L 128.9 54.3 L 131.5 49.7 L 133.9 45.2 L 136.1 40.5 L 138.1 35.7 L 139.8 30.8 L 141.3 25.7 L 142.5 20.5 L 143.32944173812865 16.103958511352538 L 143.3 16.1 L 143.9 13.3 L 155.2 17.7 L 157.7 20.3 L 154.09181690216064 21.48085994720459 L 153.5 23.5 L 151.5 29.1 L 149.63333330154418 33.3 L 172.01818180084229 33.3 L 180.2 24.3 L 190.2 33.3 L 190.2 37.3 L 154.3384614944458 37.3 L 155.9 38.0 L 158.6 39.6 L 161.1 41.3 L 163.4 43.2 L 165.6 45.2 L 167.6 47.4 L 169.4 49.7 L 171.1 52.2 L 172.5 54.8 L 172.1 59.4 L 168.7 62.4 L 164.1 62.0 L 161.1 58.6 L 160.8 56.5 Z " />
</g>
</svg>
