<svg xmlns="http://www.w3.org/2000/svg" xmlns:xlink="http://www.w3.org/1999/xlink" version="1.1" baseProfile="full" viewBox="0 0 200 200" width="200" height="200">
<g fill="black">
<path d="M 75.4 163.6 L 73.4 159.9 L 71.2 156.2 L 68.9 152.6 L 66.4 148.9 L 63.8 145.3 L 61.1 141.7 L 58.3 138.0 L 57.430069065093996 136.8900881767273 L 56.4 140.9 L 52.8 150.9 L 48.4 159.9 L 43.1 167.8 L 37.1 174.6 L 30.2 180.3 L 22.6 184.7 L 14.4 187.8 L 13.7 186.1 L 20.7 181.4 L 26.8 176.2 L 32.2 170.2 L 36.9 163.5 L 40.8 156.0 L 44.1 147.6 L 46.7 138.3 L 47.31470584869385 135.0 L 17.6 135.0 L 17.6 131.0 L 48.05980396270752 131.0 L 48.6 128.1 L 49.8 116.9 L 50.3 104.7 L 50.33026485443115 104.70126104354858 L 50.351515197753905 104.0 L 15.2 104.0 L 15.2 100.0 L 50.4 100.0 L 50.4 78.0 L 27.0 78.0 L 27.0 74.0 L 50.4 74.0 L 50.4 52.0 L 19.9 52.0 L 19.9 48.0 L 42.9 48.0 L 41.8 47.7 L 39.4 43.8 L 39.4 41.2 L 39.3 38.7 L 39.1 36.2 L 38.7 33.7 L 38.3 31.1 L 37.7 28.6 L 37.0 26.0 L 36.2 23.4 L 35.3 20.7 L 33.9 18.3 L 35.4 17.2 L 37.4 19.3 L 39.6 21.3 L 41.6 23.4 L 43.5 25.7 L 45.2 28.2 L 46.7 30.8 L 48.1 33.5 L 49.3 36.2 L 50.4 39.2 L 51.3 42.2 L 50.1 46.6 L 47.72608699798584 48.0 L 63.08888893127441 48.0 L 63.7 46.0 L 64.6 42.3 L 66.4 35.3 L 67.4 31.9 L 68.3 28.6 L 69.1 25.3 L 70.0 22.1 L 70.8 18.9 L 71.2698429107666 16.819266986846923 L 71.2 16.8 L 71.43000001907349 16.11000003814697 L 71.5 15.8 L 71.52965879440308 15.811023616790772 L 72.0 14.4 L 82.8 20.0 L 84.9 22.9 L 80.88696222305298 23.67444591522217 L 78.1 28.9 L 76.3 31.9 L 74.5 35.0 L 72.7 38.0 L 70.7 41.1 L 68.6 44.2 L 66.3 47.2 L 65.75806455612182 48.0 L 74.61818180084228 48.0 L 82.8 39.0 L 92.8 48.0 L 92.8 52.0 L 62.4 52.0 L 62.4 74.0 L 64.9 74.0 L 74.9 64.0 L 86.9 74.0 L 86.9 78.0 L 62.4 78.0 L 62.4 100.0 L 76.7 100.0 L 86.7 90.0 L 98.7 100.0 L 98.7 104.0 L 57.2 104.0 L 62.3 105.2 L 65.2 107.3 L 61.93507747650146 109.09250650405883 L 61.1 118.0 L 59.2 130.0 L 58.94311923980713 131.0 L 74.3 131.0 L 84.3 121.0 L 96.3 131.0 L 96.3 135.0 L 59.94399995803833 135.0 L 60.6 135.4 L 64.6 138.1 L 68.3 141.0 L 71.9 144.1 L 75.2 147.3 L 78.4 150.7 L 81.5 154.2 L 87.1 161.6 L 89.6 165.5 L 90.0 170.0 L 87.1 173.6 L 82.6 174.0 L 79.0 171.1 L 77.3 167.3 Z M 183.0 145.0 L 185.0 145.0 L 183.0 170.0 L 186.6 172.4 L 189.0 176.0 L 186.6 179.6 L 183.0 182.0 L 158.0 182.0 L 155.4 181.8 L 152.9 181.4 L 150.5 180.6 L 148.2 179.3 L 146.2 177.7 L 144.6 175.7 L 143.3 173.4 L 142.5 171.0 L 142.1 168.5 L 142.0 166.0 L 142.0 122.0 L 134.6875 122.0 L 133.6 130.7 L 131.6 140.5 L 128.8 149.5 L 125.2 157.7 L 120.8 165.1 L 115.7 171.7 L 109.9 177.5 L 103.4 182.3 L 96.1 186.0 L 88.3 188.8 L 87.6 187.1 L 94.3 182.7 L 100.1 178.0 L 105.3 172.8 L 109.8 167.0 L 113.6 160.8 L 116.7 153.9 L 119.2 146.3 L 121.1 138.1 L 122.4 129.2 L 122.79130430221558 122.0 L 114.0 122.0 L 114.0 134.0 L 102.0 140.0 L 102.0 19.0 L 114.0 25.0 L 162.0 25.0 L 168.0 20.0 L 179.0 29.0 L 174.0 33.0 L 174.0 128.0 L 162.0 134.0 L 162.0 122.0 L 154.0 122.0 L 154.0 167.2 L 154.2 168.1 L 154.5 169.0 L 154.9 169.4 L 155.8 169.7 L 156.7 169.9 L 158.0 170.0 L 177.0 170.0 Z M 114.0 90.0 L 114.0 118.0 L 162.0 118.0 L 162.0 90.0 Z M 114.0 60.0 L 114.0 86.0 L 162.0 86.0 L 162.0 60.0 Z M 114.0 29.0 L 114.0 56.0 L 162.0 56.0 L 162.0 29.0 Z " />
</g>
</svg>
