<svg xmlns="http://www.w3.org/2000/svg" xmlns:xlink="http://www.w3.org/1999/xlink" version="1.1" baseProfile="full" viewBox="0 0 200 200" width="200" height="200">
<g fill="black">
<path d="M 30.5 122.0 L 61.0 122.0 L 67.0 117.0 L 78.0 126.0 L 73.0 130.0 L 73.0 179.0 L 61.0 185.0 L 61.0 175.0 L 30.5 175.0 L 30.5 182.0 L 18.5 188.0 L 18.5 116.0 Z M 80.6 173.0 L 117.8 173.0 L 117.8 17.0 L 129.8 19.0 L 132.8 21.0 L 129.8 22.8 L 129.8 85.0 L 158.2 85.0 L 168.2 75.0 L 180.2 85.0 L 180.2 89.0 L 129.8 89.0 L 129.8 173.0 L 166.7 173.0 L 176.7 163.0 L 188.7 173.0 L 188.7 177.0 L 80.6 177.0 Z M 30.5 126.0 L 30.5 171.0 L 61.0 171.0 L 61.0 126.0 Z M 72.7 98.0 L 72.7 102.0 L 18.9 102.0 L 18.9 98.0 L 50.7 98.0 L 60.7 88.0 Z M 72.7 72.0 L 72.7 76.0 L 18.9 76.0 L 18.9 72.0 L 50.7 72.0 L 60.7 62.0 Z M 81.2 45.0 L 81.2 49.0 L 15.1 49.0 L 15.1 45.0 L 59.2 45.0 L 69.2 35.0 Z M 43.0 32.5 L 42.5 30.2 L 41.8 28.0 L 40.9 25.8 L 39.9 23.6 L 38.6 21.4 L 37.2 19.2 L 35.5 17.0 L 33.4 15.2 L 34.3 13.7 L 37.0 15.0 L 39.7 16.2 L 42.3 17.7 L 44.7 19.4 L 47.0 21.4 L 49.0 23.7 L 50.9 26.1 L 52.6 28.8 L 54.0 31.7 L 55.2 34.7 L 54.4 39.2 L 50.7 41.9 L 46.2 41.0 L 43.5 37.3 L 43.3 34.9 Z " />
</g>
</svg>
