<svg xmlns="http://www.w3.org/2000/svg" xmlns:xlink="http://www.w3.org/1999/xlink" version="1.1" baseProfile="full" viewBox="0 0 200 200" width="200" height="200">
<g fill="black">
<path d="M 172.3 117.0 L 172.3 76.0 L 143.9 76.0 L 143.9 104.0 L 143.21578950881957 117.0 Z M 46.3 152.65600004196168 L 51.2 150.5 L 56.3 148.3 L 59.09586772918701 147.1487603187561 L 58.9 146.3 L 57.9 142.3 L 56.7 138.4 L 55.2 134.4 L 53.7 130.3 L 51.8 126.3 L 53.3 125.2 L 56.5 128.5 L 59.5 132.0 L 62.1 135.7 L 64.5 139.5 L 66.6 143.5 L 68.4 147.7 L 70.0 152.0 L 71.3 156.4 L 72.3 160.9 L 73.1 165.6 L 71.5 169.9 L 67.5 171.9 L 63.2 170.4 L 61.1 166.3 L 61.1 162.3 L 60.9 158.2 L 60.4 154.2 L 59.8 150.2 L 59.78284387588501 150.12565689086915 L 58.3 151.5 L 54.0 155.1 L 49.4 158.4 L 44.8 161.6 L 40.0 164.6 L 35.1 167.5 L 30.1 170.4 L 25.0 173.1 L 19.9 175.7 L 18.290289211273194 176.4592975616455 L 17.5 180.2 L 14.6 178.2 L 8.3 167.7 L 10.1 167.0 L 15.4 165.2 L 20.7 163.2 L 25.9 161.3 L 36.1 157.1 L 36.3 157.01372547149657 L 36.3 112.0 L 24.6 112.0 L 24.6 124.0 L 13.6 129.5 L 13.6 47.5 L 24.6 53.0 L 36.3 53.0 L 36.3 13.0 L 46.3 15.0 L 48.8 17.0 L 46.3 18.66666669845581 L 46.3 53.0 L 58.9 53.0 L 63.4 48.0 L 72.9 57.0 L 67.9 59.5 L 67.9 112.0 L 46.3 112.0 Z M 126.4 34.0 L 121.4 37.5 L 121.4 140.2 L 110.4 145.7 L 110.4 134.2 L 86.3 134.2 L 86.3 146.2 L 76.3 151.2 L 76.3 25.0 L 86.3 30.0 L 110.4 30.0 L 115.9 25.0 Z M 86.3 84.1 L 86.3 130.2 L 110.4 130.2 L 110.4 84.1 Z M 24.6 57.0 L 24.6 108.0 L 36.3 108.0 L 36.3 57.0 Z M 46.3 57.0 L 46.3 108.0 L 58.9 108.0 L 58.9 57.0 Z M 86.3 34.0 L 86.3 80.1 L 110.4 80.1 L 110.4 34.0 Z M 143.9 31.0 L 143.9 72.0 L 172.3 72.0 L 172.3 31.0 Z M 183.7 177.0 L 182.9 179.4 L 181.6 181.7 L 180.0 183.7 L 178.0 185.3 L 175.7 186.6 L 173.3 187.4 L 170.8 187.8 L 168.3 188.0 L 168.3 182.0 L 148.3 179.0 L 148.3 176.0 L 168.3 176.0 L 169.5 175.9 L 170.4 175.7 L 171.3 175.4 L 171.7 175.0 L 172.0 174.1 L 172.2 173.2 L 172.3 172.0 L 172.3 121.0 L 142.78225803375244 121.0 L 141.8 129.7 L 139.6 141.0 L 136.7 151.3 L 133.0 160.5 L 128.5 168.6 L 123.2 175.5 L 117.2 181.3 L 110.4 185.7 L 103.0 188.7 L 102.3 187.2 L 108.5 182.8 L 113.8 177.7 L 118.5 171.8 L 122.5 165.1 L 125.8 157.4 L 128.6 148.8 L 130.6 139.1 L 132.0 128.5 L 132.8 116.7 L 132.9 104.0 L 132.9 21.5 L 143.9 27.0 L 172.3 27.0 L 178.3 22.0 L 189.3 31.0 L 184.3 35.0 L 184.3 172.0 L 184.1 174.5 Z " />
</g>
</svg>
