<svg xmlns="http://www.w3.org/2000/svg" xmlns:xlink="http://www.w3.org/1999/xlink" version="1.1" baseProfile="full" viewBox="0 0 200 200" width="200" height="200">
<g fill="black">
<path d="M 65.2 132.2 L 63.6 129.3 L 61.8 126.4 L 59.8 123.4 L 57.5 120.5 L 54.9 117.5 L 52.2 114.4 L 50.8 112.95333337783813 L 50.8 183.0 L 38.8 189.0 L 38.8 110.1347222328186 L 34.1 114.9 L 26.4 121.9 L 18.1 128.5 L 9.3 134.6 L 8.2 133.3 L 15.6 125.6 L 22.6 118.0 L 29.3 110.4 L 35.6 102.7 L 38.8 98.34137935638428 L 38.8 98.0 L 39.0506329536438 98.0 L 41.4 94.8 L 46.8 86.9 L 51.8 78.8 L 56.3 70.5 L 60.4 62.1 L 62.184705924987796 58.0 L 12.8 58.0 L 12.8 54.0 L 63.6 54.0 L 69.6 49.0 L 80.6 58.0 L 75.6 61.0 L 73.16320753097534 62.0153302192688 L 70.6 67.2 L 65.6 75.8 L 60.3 84.1 L 54.4 92.2 L 49.77468357086182 98.0 L 50.8 98.0 L 50.8 108.6975609779358 L 51.0 108.8 L 55.0 110.8 L 56.98644943237305 111.98113203048706 L 57.7 111.0 L 59.7 107.5 L 61.6 104.3 L 63.3 101.3 L 64.8 98.6 L 66.2 96.0 L 67.3 93.7 L 68.2 91.6 L 68.9 89.7 L 69.10874471664428 88.99026794433594 L 68.9 88.9 L 69.9 87.0 L 80.0 93.7 L 81.7 96.8 L 77.04136543273925 97.04096384048462 L 76.9 97.2 L 75.1 99.1 L 73.1 101.1 L 70.8 103.3 L 68.4 105.5 L 65.8 107.8 L 62.9 110.2 L 59.7 112.7 L 59.09198408126831 113.26878910064697 L 62.2 115.4 L 65.5 117.9 L 68.5 120.6 L 71.4 123.4 L 73.9 126.3 L 76.3 129.4 L 78.4 132.6 L 78.7 137.2 L 75.7 140.6 L 71.1 140.9 L 67.6 137.9 L 66.5 135.0 Z M 147.1 176.0 L 167.1 176.0 L 168.3 175.9 L 169.2 175.7 L 169.8 175.5 L 170.2 175.4 L 170.3 175.2 L 170.5 175.0 L 170.7 174.7 L 170.9 174.1 L 171.0 173.2 L 171.1 172.0 L 171.1 32.0 L 89.5 32.0 L 89.5 28.0 L 171.1 28.0 L 177.1 23.0 L 188.1 32.0 L 183.1 36.0 L 183.1 172.0 L 183.0 174.5 L 182.5 177.0 L 181.7 179.4 L 180.5 181.7 L 178.8 183.7 L 176.8 185.3 L 174.6 186.6 L 172.1 187.4 L 169.7 187.8 L 167.1 188.0 L 167.1 182.0 L 147.1 179.0 Z M 108.6 91.7 L 138.2 91.7 L 144.2 86.7 L 155.2 95.7 L 150.2 99.7 L 150.2 150.3 L 138.2 156.3 L 138.2 144.3 L 108.6 144.3 L 108.6 156.3 L 96.6 162.3 L 96.6 85.7 Z M 108.6 95.7 L 108.6 140.3 L 138.2 140.3 L 138.2 95.7 Z M 162.0 60.0 L 162.0 64.0 L 85.5 64.0 L 85.5 60.0 L 140.0 60.0 L 150.0 50.0 Z M 43.8 33.7 L 42.8 31.0 L 41.7 28.4 L 40.3 25.8 L 38.8 23.2 L 37.1 20.7 L 35.2 18.1 L 33.2 15.5 L 30.7 13.3 L 31.7 11.7 L 34.8 13.4 L 37.9 14.9 L 40.9 16.7 L 43.7 18.7 L 46.3 21.0 L 48.7 23.4 L 51.0 26.1 L 53.0 28.9 L 54.9 31.9 L 56.6 35.1 L 56.3 39.7 L 53.0 42.8 L 48.4 42.5 L 45.3 39.1 L 44.6 36.4 Z " />
</g>
</svg>
