<svg xmlns="http://www.w3.org/2000/svg" xmlns:xlink="http://www.w3.org/1999/xlink" version="1.1" baseProfile="full" viewBox="0 0 200 200" width="200" height="200">
<g fill="black">
<path d="M 28.4 122.0 L 50.8 122.0 L 56.8 117.0 L 67.8 126.0 L 62.8 130.0 L 62.8 175.0 L 50.8 181.0 L 50.8 169.0 L 28.4 169.0 L 28.4 181.0 L 16.4 187.0 L 16.4 116.0 Z M 150.7 183.7 L 137.6 182.5 L 126.8 180.5 L 117.9 177.6 L 110.8 173.7 L 105.2 168.9 L 101.0 163.3 L 98.0 157.1 L 96.95088605880737 153.6529113769531 L 96.0 155.0 L 93.8 158.4 L 91.5 161.7 L 89.2 164.9 L 86.8 168.1 L 84.5 171.1 L 82.1 174.1 L 79.8 177.0 L 77.89580154418945 179.2215648651123 L 78.7 183.3 L 75.1 182.6 L 65.3 175.3 L 66.8 173.9 L 72.4 169.5 L 75.2 167.2 L 78.2 164.9 L 81.1 162.5 L 87.3 157.7 L 88.2 156.996875 L 88.2 95.0 L 68.8 95.0 L 68.8 91.0 L 88.2 91.0 L 94.2 86.0 L 105.2 95.0 L 100.2 99.0 L 100.2 152.0 L 99.63660135269166 152.28169937133788 L 101.7 155.1 L 105.7 159.8 L 110.1 163.5 L 115.0 166.5 L 121.1 168.8 L 128.9 170.5 L 138.7 171.5 L 151.0 171.9 L 166.0 171.5 L 184.0 170.4 L 195.1 169.7 L 184.8 183.5 L 166.3 184.0 Z M 171.3 140.0 L 169.2 136.6 L 166.8 133.4 L 164.2 130.1 L 161.3 127.0 L 158.2 123.8 L 154.9 120.6 L 153.1 119.0 L 153.1 160.7 L 141.1 166.7 L 141.1 115.5 L 138.9 119.1 L 135.3 124.4 L 131.3 129.5 L 127.0 134.4 L 122.3 139.1 L 117.2 143.6 L 111.8 147.8 L 105.9 151.7 L 104.7 150.3 L 109.2 145.0 L 113.4 139.8 L 117.4 134.7 L 121.1 129.6 L 124.4 124.5 L 127.5 119.4 L 130.2 114.2 L 132.6 108.9 L 134.7 103.6 L 135.09393939971923 102.3 L 124.7 102.3 L 124.7 114.3 L 112.7 120.3 L 112.7 57.9 L 124.7 63.9 L 141.1 63.9 L 141.1 44.4 L 105.3 44.4 L 105.3 40.4 L 141.1 40.4 L 141.1 14.2 L 153.1 16.2 L 156.1 18.2 L 153.1 20.0 L 153.1 40.4 L 168.0 40.4 L 178.0 30.4 L 190.0 40.4 L 190.0 44.4 L 153.1 44.4 L 153.1 63.9 L 167.8 63.9 L 173.8 58.9 L 184.8 67.9 L 179.8 71.9 L 179.8 104.3 L 167.8 110.3 L 167.8 102.3 L 153.1 102.3 L 153.1 114.5 L 157.7 116.5 L 161.9 118.8 L 166.0 121.4 L 169.8 124.2 L 173.4 127.1 L 176.7 130.3 L 179.8 133.7 L 182.7 137.2 L 185.4 140.9 L 185.9 145.5 L 183.1 149.1 L 178.5 149.6 L 174.9 146.8 L 173.2 143.3 Z M 28.4 126.0 L 28.4 165.0 L 50.8 165.0 L 50.8 126.0 Z M 66.4 97.0 L 66.4 101.0 L 14.4 101.0 L 14.4 97.0 L 44.4 97.0 L 54.4 87.0 Z M 124.7 67.9 L 124.7 98.3 L 141.1 98.3 L 141.1 67.9 Z M 153.1 67.9 L 153.1 98.3 L 167.8 98.3 L 167.8 67.9 Z M 66.4 72.0 L 66.4 76.0 L 14.4 76.0 L 14.4 72.0 L 44.4 72.0 L 54.4 62.0 Z M 89.7 49.4 L 88.5 46.4 L 87.1 43.4 L 85.6 40.5 L 83.9 37.7 L 82.0 34.8 L 80.0 31.9 L 77.9 29.0 L 75.4 26.3 L 76.5 24.9 L 79.8 26.8 L 83.0 28.7 L 86.1 30.9 L 89.0 33.2 L 91.7 35.8 L 94.3 38.5 L 96.7 41.4 L 98.9 44.4 L 101.0 47.6 L 102.9 50.9 L 102.8 55.5 L 99.6 58.7 L 95.0 58.6 L 91.7 55.4 L 90.8 52.4 Z M 72.8 47.0 L 72.8 51.0 L 10.4 51.0 L 10.4 47.0 L 50.8 47.0 L 60.8 37.0 Z M 36.3 33.9 L 35.9 31.9 L 35.2 29.7 L 34.4 27.4 L 33.4 25.0 L 32.2 22.5 L 30.8 19.8 L 29.3 16.9 L 27.2 14.3 L 28.5 13.0 L 31.1 15.3 L 33.8 17.2 L 36.3 19.2 L 38.6 21.3 L 40.7 23.4 L 42.6 25.5 L 44.3 27.7 L 45.8 29.9 L 47.1 32.2 L 48.3 34.6 L 47.5 39.1 L 43.9 41.9 L 39.4 41.1 L 36.6 37.5 L 36.5 35.8 Z " />
</g>
</svg>
