<svg xmlns="http://www.w3.org/2000/svg" xmlns:xlink="http://www.w3.org/1999/xlink" version="1.1" baseProfile="full" viewBox="0 0 200 200" width="200" height="200">
<g fill="black">
<path d="M 55.9 131.8 L 54.6 129.0 L 53.1 126.1 L 51.4 123.2 L 49.5 120.3 L 47.4 117.3 L 45.1 114.3 L 44.9 114.04166669845581 L 44.9 183.0 L 32.9 189.0 L 32.9 111.45555553436279 L 30.1 114.7 L 23.3 121.7 L 16.0 128.4 L 8.2 134.6 L 7.0 133.3 L 13.3 125.7 L 19.3 118.2 L 25.0 110.6 L 30.4 102.9 L 32.9 99.0 L 32.9 98.0 L 33.54102563858032 98.0 L 35.4 95.1 L 40.0 87.1 L 44.3 79.0 L 48.1 70.8 L 51.7 62.4 L 53.286046504974365 58.0 L 11.1 58.0 L 11.1 54.0 L 54.4 54.0 L 60.4 49.0 L 71.4 58.0 L 66.4 61.0 L 64.33310108184814 61.8612078666687 L 62.1 66.9 L 57.8 75.5 L 53.1 83.9 L 47.9 92.0 L 43.6692307472229 98.0 L 44.9 98.0 L 44.9 109.13333330154418 L 48.1 111.0 L 49.44583330154419 111.8972222328186 L 50.0 111.0 L 51.6 107.6 L 53.1 104.5 L 54.5 101.5 L 55.8 98.8 L 56.9 96.3 L 57.8 94.0 L 58.5 91.9 L 59.1 90.0 L 59.22633123397827 89.28412313461304 L 59.0 89.2 L 59.37272729873657 88.45454549789429 L 59.4 88.3 L 59.440520477294925 88.3189591407776 L 60.0 87.2 L 70.3 93.4 L 72.2 96.5 L 67.5118577003479 96.98498020172119 L 67.5 97.0 L 65.9 98.9 L 64.0 100.9 L 62.1 103.0 L 59.9 105.3 L 57.5 107.6 L 54.9 110.1 L 52.0 112.6 L 51.42404651641846 113.21861667633057 L 54.5 115.6 L 57.4 118.1 L 60.1 120.8 L 62.6 123.6 L 64.9 126.6 L 67.0 129.7 L 68.9 132.8 L 68.9 137.4 L 65.8 140.7 L 61.2 140.7 L 57.9 137.5 L 57.0 134.7 Z M 186.5 152.8 L 185.1 154.9 L 183.5 156.8 L 181.6 158.4 L 179.5 159.7 L 177.2 160.7 L 174.8 161.4 L 172.3 161.8 L 169.8 162.0 L 169.8 156.0 L 159.8 153.0 L 159.8 150.0 L 169.8 150.0 L 171.1 149.9 L 172.2 149.7 L 173.1 149.5 L 173.9 149.1 L 174.5 148.7 L 175.6 147.6 L 176.1 146.9 L 176.6 145.9 L 177.1 144.6 L 178.2 140.7 L 179.2 135.7 L 179.7 129.8 L 179.6 123.4 L 178.9 116.7 L 177.4 109.9 L 174.9 103.2 L 171.3 96.8 L 166.6 90.6 L 160.8 84.2 L 160.83113203048705 84.14811325073242 L 159.5 83.6 L 161.6 77.0 L 163.6 70.7 L 165.7 64.6 L 167.7 58.6 L 169.5 52.9 L 171.3 47.3 L 172.9 41.8 L 174.4 36.5 L 175.7 31.3 L 176.0119999885559 30.0 L 151.2 30.0 L 151.2 183.0 L 139.2 189.0 L 139.2 20.0 L 151.2 26.0 L 176.7 26.0 L 182.7 21.0 L 193.7 30.0 L 188.7 33.0 L 186.9413793563843 33.732758617401124 L 186.6 34.7 L 184.6 39.9 L 182.4 45.2 L 180.0 50.6 L 177.4 56.0 L 174.7 61.6 L 171.7 67.2 L 168.5 72.9 L 165.0 78.6 L 162.1327272415161 82.90090913772583 L 170.1 86.6 L 176.7 92.6 L 181.8 99.5 L 185.6 107.0 L 188.1 114.7 L 189.6 122.4 L 190.3 129.8 L 190.2 136.7 L 189.6 142.9 L 188.5 148.2 L 187.6 150.6 Z M 117.1 179.2 L 115.3 180.9 L 113.4 182.3 L 111.3 183.5 L 109.1 184.5 L 106.8 185.3 L 104.5 185.9 L 102.1 186.2 L 99.6 186.3 L 99.6 180.3 L 85.6 177.3 L 85.6 174.3 L 99.6 174.3 L 101.0 174.2 L 102.3 174.1 L 103.6 173.8 L 104.7 173.4 L 105.7 172.9 L 106.7 172.3 L 107.6 171.6 L 108.5 170.8 L 109.4 169.8 L 110.3 168.7 L 111.3 166.2 L 112.6 160.7 L 113.8 152.6 L 114.8 141.9 L 115.6 128.9 L 116.18823528289795 113.9 L 97.50606060028076 113.9 L 97.5 114.0 L 96.1 126.1 L 94.1 137.4 L 91.6 147.8 L 88.4 157.2 L 84.6 165.6 L 80.2 173.0 L 75.2 179.4 L 69.5 184.5 L 63.3 188.4 L 62.3 187.0 L 66.9 181.8 L 71.0 176.1 L 74.6 169.7 L 77.7 162.5 L 80.4 154.4 L 82.6 145.5 L 84.3 135.7 L 85.5 124.9 L 86.0689655303955 113.9 L 68.6 113.9 L 68.6 109.9 L 86.15396823883057 109.9 L 86.3 100.7 L 86.3 69.5 L 71.4 69.5 L 71.4 65.5 L 86.3 65.5 L 86.3 30.6 L 70.4 30.6 L 70.4 26.6 L 115.8 26.6 L 121.8 21.6 L 132.8 30.6 L 127.90159358978272 33.5390438079834 L 128.3 53.3 L 128.5 75.8 L 128.4 96.0 L 128.2 113.9 L 127.6 129.5 L 126.8 142.8 L 125.8 154.0 L 124.4 163.0 L 122.7 169.9 L 120.2 175.4 L 118.7 177.4 Z M 98.3 69.5 L 98.3 100.8 L 97.7484848022461 109.9 L 116.24157304763794 109.9 L 116.4 95.8 L 116.5 75.8 L 116.44375 69.5 Z M 98.3 30.6 L 98.3 65.5 L 116.40803575515747 65.5 L 116.3 53.4 L 115.9987286567688 38.517196369171145 L 115.8 38.6 L 115.8 30.6 Z M 37.3 33.4 L 36.5 30.7 L 35.6 28.1 L 34.5 25.6 L 33.3 23.0 L 31.9 20.5 L 30.4 18.0 L 28.7 15.5 L 26.6 13.3 L 27.7 11.8 L 30.4 13.5 L 33.3 15.1 L 35.9 16.9 L 38.4 18.9 L 40.7 21.2 L 42.9 23.7 L 44.9 26.3 L 46.8 29.2 L 48.5 32.2 L 50.0 35.3 L 49.5 39.9 L 46.0 42.8 L 41.5 42.3 L 38.5 38.9 L 38.0 36.1 Z " />
</g>
</svg>
