<svg xmlns="http://www.w3.org/2000/svg" xmlns:xlink="http://www.w3.org/1999/xlink" version="1.1" baseProfile="full" viewBox="0 0 200 200" width="200" height="200">
<g fill="black">
<path d="M 9.7 188.6 L 6.9 184.9 L 7.4 180.4 L 8.8 178.4 L 10.2 176.0 L 11.5 173.2 L 12.7 170.1 L 13.9 166.6 L 14.9 162.8 L 16.0 158.6 L 16.9 154.0 L 17.9 149.2 L 18.7 144.0 L 20.5 144.0 L 21.1 149.2 L 21.6 154.3 L 21.9 159.1 L 21.9 163.7 L 21.8 168.0 L 21.4 172.1 L 20.8 175.9 L 20.1 179.6 L 19.1 183.0 L 17.9 186.3 L 14.2 189.0 Z M 153.8 181.8 L 141.5 180.6 L 131.3 178.5 L 122.9 175.4 L 116.2 171.4 L 111.0 166.4 L 107.1 160.7 L 104.4 154.3 L 103.49935064315795 150.9344156265259 L 102.8 152.1 L 100.8 155.6 L 98.7 159.0 L 96.5 162.3 L 94.4 165.5 L 90.0 171.7 L 87.9 174.7 L 86.17864274978638 176.96906185150146 L 87.1 181.0 L 83.6 180.5 L 73.4 173.8 L 74.8 172.3 L 77.4 170.0 L 82.8 165.2 L 85.6 162.8 L 88.4 160.3 L 91.3 157.7 L 94.2 155.2 L 95.5 154.10967741012573 L 95.5 89.7 L 77.2 89.7 L 77.2 85.7 L 95.5 85.7 L 101.0 80.7 L 111.5 89.7 L 106.5 93.2 L 106.5 149.4 L 106.17594938278198 149.56202535629274 L 108.1 152.4 L 112.0 157.3 L 115.2 160.4219511985779 L 115.2 14.3 L 126.2 19.8 L 139.9 19.8 L 145.9 14.8 L 155.6 22.73636360168457 L 155.6 19.8 L 175.7 19.8 L 181.7 14.8 L 192.7 23.8 L 187.7 27.8 L 187.7 64.7 L 175.7 70.7 L 175.7 60.7 L 155.6 60.7 L 155.6 56.7 L 175.7 56.7 L 175.7 23.8 L 156.9 23.8 L 151.9 27.8 L 151.9 64.7 L 139.9 70.7 L 139.9 60.7 L 126.2 60.7 L 126.2 86.6 L 133.9777777671814 86.6 L 140.2 79.6 L 148.2 86.6 L 148.2 90.6 L 126.2 90.6 L 126.2 114.7 L 133.9777777671814 114.7 L 140.2 107.7 L 148.2 114.7 L 148.2 118.7 L 126.2 118.7 L 126.2 157.9 L 117.52293577194214 162.23853206634521 L 120.8 164.4 L 126.4 166.8 L 133.6 168.5 L 142.7 169.6 L 154.2 170.0 L 168.1 169.6 L 185.0 168.4 L 196.0 167.7 L 185.9 181.6 L 168.5 182.1 Z M 45.4 168.3 L 45.1 165.6 L 44.8 163.0 L 44.3 160.3 L 43.7 157.7 L 43.0 155.1 L 42.1 152.5 L 41.2 149.8 L 39.8 147.3 L 41.2 146.2 L 43.3 148.3 L 45.6 150.3 L 47.6 152.5 L 49.5 154.9 L 51.3 157.5 L 52.8 160.2 L 54.2 163.0 L 55.4 166.0 L 56.5 169.1 L 57.4 172.3 L 56.1 176.7 L 52.1 178.9 L 47.7 177.6 L 45.4 173.7 L 45.5 170.9 Z M 33.3 182.9 L 29.3 180.8 L 27.8 176.4 L 28.4 174.1 L 28.8 171.7 L 29.1 169.1 L 29.3 166.4 L 29.4 163.5 L 29.4 160.5 L 29.3 157.4 L 29.1 154.1 L 28.8 150.7 L 28.1 147.2 L 29.8 146.6 L 31.4 149.9 L 33.1 153.0 L 34.6 156.1 L 35.8 159.2 L 36.9 162.3 L 37.8 165.4 L 38.6 168.5 L 39.2 171.5 L 39.6 174.5 L 39.8 177.5 L 37.6 181.5 Z M 61.8 163.6 L 61.2 161.1 L 59.8 156.3 L 58.9 154.0 L 57.9 151.8 L 56.8 149.5 L 55.6 147.2 L 54.0 145.3 L 55.2 143.9 L 57.4 145.4 L 59.7 146.8 L 62.0 148.5 L 64.1 150.4 L 66.1 152.4 L 68.0 154.7 L 69.7 157.1 L 71.3 159.7 L 72.8 162.5 L 74.2 165.4 L 73.6 169.9 L 70.1 172.8 L 65.5 172.3 L 62.7 168.7 L 62.3 166.1 Z M 173.1 149.2 L 168.9 143.6 L 166.83675413131715 140.00405731201172 L 163.8 143.8 L 157.5 149.8 L 150.5 154.8 L 142.9 158.7 L 134.8 161.5 L 134.1 159.8 L 141.1 155.4 L 147.4 150.5 L 152.9 145.1 L 157.9 139.0 L 162.2 132.2 L 162.70400772094726 131.1783628463745 L 162.5 130.7 L 160.1 123.5 L 158.3 115.6 L 157.2 107.2 L 156.7 98.3 L 156.9715789794922 89.7 L 152.4 89.7 L 152.4 85.7 L 174.8 85.7 L 180.8 80.7 L 191.8 89.7 L 186.8 92.7 L 185.94204273223878 93.0574821472168 L 184.7 99.8 L 181.9 110.3 L 178.4 120.0 L 174.3 128.8 L 173.19500579833985 130.60407218933105 L 174.2 132.3 L 177.8 137.0 L 181.7 141.0 L 185.8 144.4 L 190.2 147.1 L 194.4 149.7 L 183.3 158.4 L 177.9 154.1 Z M 15.5 137.5 L 15.5 67.18823528289795 L 12.8 71.0 L 9.1 75.4 L 7.6 74.5 L 9.4 69.1 L 13.4 58.3 L 15.4 52.6 L 17.3 46.8 L 19.2 40.9 L 21.0 34.8 L 22.8 28.5 L 24.5 22.0 L 25.858606624603272 16.31083478927612 L 25.8 16.3 L 26.07333335876465 15.411666679382325 L 26.1 15.3 L 26.10709047317505 15.30195598602295 L 26.6 13.7 L 37.7 18.5 L 40.0 21.3 L 36.429454231262206 22.256396198272704 L 35.4 25.3 L 33.0 31.8 L 32.52380952835083 33.0 L 47.9 33.0 L 53.9 28.0 L 64.9 37.0 L 59.9 40.0 L 57.5 41.0 L 57.2 41.6 L 55.6 44.2 L 53.8 47.0 L 51.8 49.8 L 49.6 52.7 L 47.2 55.7 L 44.5 58.9 L 41.5 62.0 L 39.78571424484253 64.0 L 56.1 64.0 L 61.6 59.0 L 72.1 68.0 L 67.1 71.5 L 67.1 132.0 L 56.1 137.5 L 56.1 132.0 L 26.5 132.0 Z M 26.5 100.0 L 26.5 128.0 L 36.3 128.0 L 36.3 100.0 Z M 46.3 100.0 L 46.3 128.0 L 56.1 128.0 L 56.1 100.0 Z M 159.05108699798583 89.7 L 160.9 97.8 L 163.0 106.2 L 165.3 113.8 L 167.70103378295897 119.93597517013549 L 169.0 116.5 L 171.6 107.5 L 173.5 97.6 L 174.46886796951293 89.7 Z M 26.5 68.0 L 26.5 96.0 L 36.3 96.0 L 36.3 68.0 Z M 46.3 68.0 L 46.3 96.0 L 56.1 96.0 L 56.1 68.0 Z M 30.936507892608642 37.0 L 30.5 38.1 L 27.9 44.2 L 25.2 50.0 L 22.3 55.7 L 19.564705848693848 60.532352924346924 L 26.5 64.0 L 37.21000003814697 64.0 L 39.1 60.4 L 40.8 56.5 L 42.4 52.8 L 43.8 49.3 L 45.0 46.1 L 46.0 43.1 L 46.8 40.3 L 47.4 37.8 L 47.53913040161133 37.0 Z M 126.2 23.8 L 126.2 56.7 L 139.9 56.7 L 139.9 23.8 Z M 96.4 42.1 L 94.0 35.9 L 92.6 32.9 L 91.0 30.0 L 89.3 27.0 L 87.5 24.1 L 85.6 21.1 L 83.3 18.3 L 84.5 16.9 L 87.6 19.0 L 90.7 21.0 L 93.6 23.3 L 96.4 25.8 L 99.0 28.5 L 101.4 31.3 L 103.7 34.3 L 105.8 37.5 L 107.7 40.8 L 109.5 44.3 L 109.3 48.9 L 105.9 52.0 L 101.4 51.8 L 98.2 48.4 L 97.4 45.2 Z " />
</g>
</svg>
