<svg xmlns="http://www.w3.org/2000/svg" xmlns:xlink="http://www.w3.org/1999/xlink" version="1.1" baseProfile="full" viewBox="0 0 200 200" width="200" height="200">
<g fill="black">
<path d="M 172.8 170.2 L 168.6 162.6 L 165.0 154.4 L 162.0 145.7 L 159.8 136.5 L 158.1 126.6 L 157.69966773986818 122.47657804489135 L 155.4 133.4 L 151.4 147.0 L 146.4 158.9 L 140.6 169.1 L 134.0 177.6 L 126.4 184.2 L 118.1 188.7 L 117.2 187.2 L 123.9 181.3 L 129.8 174.2 L 135.0 165.8 L 139.5 155.9 L 143.3 144.4 L 146.3 131.4 L 148.7 116.7 L 150.3 100.4 L 151.1 82.5 L 151.18974361419677 65.0 L 145.20447759628297 65.0 L 143.1 69.7 L 139.7 76.3 L 136.0 82.5 L 131.8 88.4 L 130.3 87.5 L 132.5 80.8 L 134.8 74.1 L 137.0 67.3 L 139.0 60.4 L 140.8 53.4 L 142.5 46.3 L 144.0 39.0 L 145.3 31.5 L 146.4 23.9 L 147.3 16.1 L 147.33271026611328 16.10467290878296 L 147.6 14.1 L 159.2 17.8 L 161.9 20.2 L 158.437903213501 21.610483837127685 L 157.6 25.8 L 155.8 33.7 L 153.8 41.3 L 151.5 48.7 L 148.9 56.0 L 146.9 61.0 L 178.6 61.0 L 184.6 56.0 L 195.6 65.0 L 190.6 68.0 L 187.9822784423828 69.09071731567383 L 187.4 70.1 L 185.8 72.9 L 184.1 75.8 L 182.1 78.9 L 180.1 82.1 L 177.8 85.4 L 175.4 88.9 L 172.7 92.5 L 170.1 96.4 L 168.5 95.5 L 170.1 91.2 L 171.4 86.9 L 172.7 82.9 L 173.9 79.1 L 175.0 75.5 L 176.0 72.2 L 177.0 69.0 L 177.8 66.1 L 178.0444444656372 65.0 L 163.1300000190735 65.0 L 162.5 83.0 L 161.0 101.4 L 160.77619047164916 102.96666669845581 L 161.1 105.1 L 163.0 115.5 L 165.2 125.3 L 167.8 134.3 L 170.9 142.7 L 174.3 150.3 L 178.2 157.3 L 182.5 163.6 L 187.3 169.2 L 192.4 174.2 L 194.0 175.7 L 183.3 183.7 L 177.7 177.3 Z M 74.9 51.5 L 73.0 48.3 L 70.9 45.2 L 68.5 42.0 L 65.9 38.9 L 62.9 35.8 L 59.7 32.6 L 56.3 29.4 L 56.020754718780516 29.158490562438963 L 53.4 34.4 L 49.3 42.2 L 44.8 49.6 L 40.1 56.7 L 35.2 63.4 L 31.66666669845581 67.73333330154419 L 40.2 72.0 L 48.9 72.0 L 48.9 47.0 L 60.9 49.0 L 63.9 51.0 L 60.9 52.8 L 60.9 72.0 L 68.7 72.0 L 74.7 67.0 L 85.7 76.0 L 80.7 80.0 L 80.7 123.0 L 68.7 129.0 L 68.7 123.0 L 40.2 123.0 L 40.2 159.92881355285644 L 45.9 157.9 L 52.1 155.8 L 58.5 153.6 L 65.3 151.3 L 67.82906742095948 150.52722940444946 L 67.0 149.0 L 65.0 145.6 L 62.8 142.3 L 60.4 138.9 L 57.9 135.5 L 55.1 132.3 L 56.2 130.9 L 60.0 133.1 L 63.8 135.5 L 67.3 138.2 L 70.5 141.1 L 73.6 144.3 L 76.4 147.7 L 79.1 151.2 L 81.5 155.0 L 83.6 159.0 L 85.6 163.1 L 85.3 167.7 L 81.9 170.8 L 77.4 170.5 L 74.3 167.1 L 73.2 163.3 L 72.0 159.6 L 70.5 156.0 L 69.26499118804932 153.2984182357788 L 66.9 154.8 L 60.7 158.5 L 54.7 161.8 L 48.9 164.9 L 43.2 167.8 L 37.8 170.5 L 32.6 172.9 L 27.5 175.2 L 22.7 177.4 L 21.977553844451904 177.6984016418457 L 21.0 181.5 L 18.1 179.3 L 12.4 168.6 L 14.3 167.9 L 18.9 166.7 L 23.8 165.2 L 28.2 163.8196078300476 L 28.2 71.75454549789428 L 24.4 75.9 L 18.5 81.5 L 12.3 86.6 L 11.0 85.3 L 15.7 78.9 L 20.3 72.5 L 24.7 65.9 L 28.9 59.2 L 32.9 52.2 L 36.7 45.0 L 40.3 37.6 L 43.7 29.9 L 46.9 22.0 L 49.47423820495605 14.721119499206543 L 49.4 14.7 L 50.3 12.4 L 61.0 18.0 L 63.1 20.9 L 59.45573768615723 21.603278732299806 L 57.4324538230896 26.324274444580077 L 58.1 26.6 L 62.6 28.7 L 66.7 31.0 L 70.6 33.5 L 74.2 36.3 L 77.6 39.2 L 80.8 42.3 L 83.6 45.5 L 86.3 49.0 L 88.6 52.6 L 88.8 57.2 L 85.9 60.6 L 81.3 60.9 L 77.8 57.9 L 76.5 54.7 Z M 105.0 41.7 L 117.2 41.7 L 123.2 36.7 L 134.2 45.7 L 129.2 49.7 L 129.2 140.2 L 117.2 146.2 L 117.2 134.2 L 105.0 134.2 L 105.0 146.2 L 93.0 152.2 L 93.0 35.7 Z M 105.0 45.7 L 105.0 130.2 L 117.2 130.2 L 117.2 45.7 Z M 40.2 99.0 L 40.2 119.0 L 68.7 119.0 L 68.7 99.0 Z M 40.2 95.0 L 68.7 95.0 L 68.7 76.0 L 40.2 76.0 Z " />
</g>
</svg>
