<svg xmlns="http://www.w3.org/2000/svg" xmlns:xlink="http://www.w3.org/1999/xlink" version="1.1" baseProfile="full" viewBox="0 0 200 200" width="200" height="200">
<g fill="black">
<path d="M 131.6 166.3 L 130.0 163.0 L 128.3 159.7 L 126.3 156.5 L 124.1 153.3 L 121.7 150.3 L 119.1 147.2 L 116.3 144.1 L 115.83902711868286 143.66876726150514 L 115.2 146.8 L 112.4 155.7 L 108.9 163.7 L 104.6 170.8 L 99.6 176.9 L 93.9 181.9 L 87.5 185.9 L 80.6 188.6 L 79.9 187.3 L 85.8 183.2 L 91.0 178.5 L 95.5 173.3 L 99.3 167.4 L 102.5 160.7 L 105.1 153.2 L 107.0 145.0 L 108.4 135.8 L 109.01599998474121 127.0 L 97.1 127.0 L 97.1 134.0 L 86.1 139.5 L 86.1 88.5 L 97.1 94.0 L 109.2 94.0 L 109.2 73.0 L 94.9 73.0 L 94.9 69.0 L 118.61818180084228 69.0 L 126.8 60.0 L 136.8 69.0 L 136.8 73.0 L 119.2 73.0 L 119.2 94.0 L 131.8 94.0 L 136.8 89.0 L 146.8 98.0 L 141.8 101.0 L 141.8 129.0 L 131.8 134.0 L 131.8 127.0 L 118.52075471878052 127.0 L 117.2 137.0 L 116.43255815505981 140.76046514511108 L 118.2 141.6 L 122.1 143.5 L 125.8 145.8 L 129.2 148.4 L 132.5 151.3 L 135.5 154.4 L 138.3 157.7 L 140.8 161.2 L 143.1 165.0 L 145.2 169.0 L 145.1 173.5 L 141.8 176.7 L 137.3 176.6 L 134.1 173.4 L 132.9 169.8 Z M 157.7 176.5 L 173.1 176.5 L 174.1 176.4 L 174.8 176.3 L 175.4 176.0 L 175.6 175.8 L 175.7 175.6 L 176.0 175.1 L 176.2 174.4 L 176.3 173.3 L 176.4 172.0 L 176.4 14.0 L 187.4 16.0 L 190.1 18.0 L 187.4 19.723404216766358 L 187.4 172.0 L 187.3 174.4 L 186.9 176.7 L 186.3 179.0 L 185.2 181.1 L 183.8 183.1 L 182.1 184.7 L 180.0 186.0 L 177.8 186.8 L 175.5 187.3 L 173.1 187.5 L 173.1 182.0 L 157.7 179.2 Z M 13.9 170.9 L 26.7 168.3 L 33.1 166.8 L 39.5 165.4 L 42.8 164.575 L 42.8 105.0 L 16.0 105.0 L 16.0 101.0 L 42.8 101.0 L 42.8 73.0 L 30.4 73.0 L 30.4 69.0 L 57.81818180084228 69.0 L 66.0 60.0 L 76.0 69.0 L 76.0 73.0 L 54.8 73.0 L 54.8 101.0 L 58.8 101.0 L 68.8 91.0 L 80.8 101.0 L 80.8 105.0 L 54.8 105.0 L 54.8 161.70923080444337 L 58.9 160.7 L 65.5 159.0 L 72.1 157.5 L 78.8 156.1 L 79.5 157.8 L 73.4 161.1 L 67.2 164.1 L 61.0 166.9 L 54.7 169.5 L 42.1 174.3 L 35.8 176.5 L 29.5 178.6 L 23.1 180.6 L 20.762522602081297 181.29393863677979 L 19.4 185.0 L 16.7 182.5 L 12.0 171.4 Z M 25.6 145.4 L 25.3 142.4 L 24.8 139.4 L 24.1 136.5 L 23.2 133.5 L 22.2 130.5 L 20.9 127.4 L 19.5 124.3 L 17.6 121.3 L 18.9 120.1 L 21.6 122.5 L 24.4 124.9 L 26.9 127.5 L 29.2 130.3 L 31.2 133.3 L 33.0 136.5 L 34.5 139.8 L 35.8 143.2 L 36.9 146.8 L 37.7 150.5 L 36.2 154.8 L 32.2 156.9 L 27.9 155.5 L 25.7 151.4 L 25.8 148.4 Z M 163.0 31.0 L 165.5 33.0 L 163.0 34.66666669845581 L 163.0 149.5 L 153.0 154.5 L 153.0 29.0 Z M 78.1 121.9 L 80.3 124.8 L 76.24296674728393 125.56943731307983 L 75.0 127.9 L 73.4 130.8 L 69.8 136.8 L 67.9 139.7 L 65.8 142.7 L 63.7 145.6 L 61.3 148.4 L 59.1 151.4 L 57.6 150.5 L 58.8 147.1 L 59.8 143.6 L 60.8 140.2 L 61.8 136.9 L 62.7 133.6 L 64.5 127.2 L 66.1 121.0 L 66.5646598815918 118.94222049713134 L 66.4 118.9 L 67.3 116.5 Z M 131.8 123.0 L 131.8 98.0 L 119.2 98.0 L 119.2 115.0 L 118.77894735336304 123.0 Z M 68.0 49.1 L 66.6 46.6 L 64.9 44.1 L 63.0 41.5 L 60.8 38.9 L 58.3 36.3 L 55.5 33.6 L 52.6 30.8 L 50.69484367370605 29.343115711212157 L 48.7 34.3 L 45.1 42.4 L 41.2 50.2 L 37.1 57.9 L 32.6 65.3 L 27.7 72.5 L 22.6 79.5 L 17.0 86.2 L 11.1 92.5 L 9.6 91.4 L 14.0 84.0 L 18.1 76.5 L 22.1 69.1 L 25.9 61.6 L 29.5 54.0 L 32.8 46.3 L 35.9 38.5 L 38.7 30.5 L 41.2 22.4 L 43.218459129333496 15.203754425048828 L 43.2 15.2 L 43.42068967819214 14.482758617401123 L 43.5 14.2 L 43.50705089569092 14.202084636688232 L 44.0 12.6 L 55.0 17.6 L 57.3 20.4 L 53.693548393249515 21.30161294937134 L 52.0 26.1 L 51.55066385269165 27.216532135009764 L 54.1 28.3 L 58.0 29.9 L 61.7 31.7 L 65.1 33.7 L 68.3 35.8 L 71.3 38.0 L 74.0 40.4 L 76.5 43.0 L 78.8 45.7 L 80.8 48.6 L 81.0 53.1 L 78.1 56.6 L 73.5 56.9 L 70.0 54.0 L 69.1 51.5 Z M 132.3 52.4 L 130.5 49.4 L 128.6 46.5 L 126.4 43.5 L 124.1 40.5 L 121.6 37.5 L 119.0 34.4 L 116.78634910583496 31.94917221069336 L 115.5 34.8 L 111.5 42.5 L 107.4 49.8 L 103.1 56.6 L 98.6 62.9 L 93.8 68.7 L 88.9 74.0 L 83.7 78.6 L 78.2 82.6 L 77.0 81.3 L 80.9 76.0 L 84.8 70.5 L 88.6 64.8 L 92.3 58.7 L 95.8 52.3 L 99.2 45.4 L 102.5 38.2 L 105.6 30.5 L 108.6 22.4 L 111.5 13.9 L 112.0 12.4 L 122.8 17.9 L 125.0 20.8 L 121.31045160293579 21.49974193572998 L 119.2 26.6 L 118.16835956573486 28.886338233947754 L 121.9 30.8 L 125.5 33.0 L 128.9 35.4 L 132.1 37.9 L 135.2 40.6 L 138.1 43.3 L 140.8 46.2 L 143.4 49.2 L 145.7 52.3 L 146.3 56.8 L 143.6 60.5 L 139.1 61.1 L 135.4 58.4 L 133.9 55.4 Z M 97.1 98.0 L 97.1 123.0 L 109.1259259223938 123.0 L 109.2 115.0 L 109.2 98.0 Z " />
</g>
</svg>
