<svg xmlns="http://www.w3.org/2000/svg" xmlns:xlink="http://www.w3.org/1999/xlink" version="1.1" baseProfile="full" viewBox="0 0 200 200" width="200" height="200">
<g fill="black">
<path d="M 11.1 188.5 L 8.5 184.7 L 9.2 180.2 L 10.8 178.2 L 12.3 175.8 L 13.7 173.1 L 15.0 170.0 L 16.3 166.5 L 17.4 162.7 L 18.5 158.5 L 19.5 154.0 L 20.5 149.2 L 21.3 144.0 L 23.1 144.0 L 23.7 149.3 L 24.3 154.3 L 24.5 159.2 L 24.4 163.7 L 24.2 168.1 L 23.7 172.2 L 23.0 176.2 L 22.0 179.9 L 20.8 183.4 L 19.3 186.6 L 15.6 189.2 Z M 152.1 65.7 L 155.1 67.7 L 152.1 69.5 L 152.1 111.7 L 170.1 111.7 L 170.1 73.7 L 182.1 75.7 L 185.1 77.7 L 182.1 79.5 L 182.1 115.7 L 170.1 121.7 L 170.1 115.7 L 152.1 115.7 L 152.1 169.2 L 174.6 169.2 L 174.6 129.1 L 186.6 131.1 L 189.6 133.1 L 186.6 134.9 L 186.6 177.2 L 174.6 183.2 L 174.6 173.2 L 117.5 173.2 L 117.5 180.2 L 105.5 186.2 L 105.5 129.1 L 117.5 131.1 L 120.5 133.1 L 117.5 134.9 L 117.5 169.2 L 140.1 169.2 L 140.1 115.7 L 121.0 115.7 L 111.0 120.7 L 111.0 73.7 L 121.0 75.7 L 123.5 77.7 L 121.0 79.36666669845582 L 121.0 111.7 L 140.1 111.7 L 140.1 63.7 Z M 103.5 23.0 L 173.2 23.0 L 179.2 18.0 L 190.2 27.0 L 185.2 31.0 L 185.2 58.0 L 173.2 64.0 L 173.2 56.0 L 103.5 56.0 L 103.5 87.0 L 103.1 99.6 L 102.4 111.6 L 101.3 123.0 L 99.8 133.8 L 98.1 144.0 L 95.9 153.6 L 93.5 162.5 L 90.6 170.8 L 87.2 178.4 L 83.5 185.3 L 82.1 184.6 L 84.3 177.3 L 86.3 169.5 L 88.1 161.2 L 89.8 152.3 L 91.1 142.9 L 92.2 132.9 L 92.9 122.3 L 93.4 111.1 L 93.6 99.3 L 93.5 87.0 L 93.5 18.0 Z M 52.2 168.4 L 51.9 165.8 L 51.5 163.1 L 50.9 160.5 L 50.1 157.9 L 49.2 155.2 L 47.0 149.8 L 45.3 147.3 L 46.6 146.1 L 48.9 148.2 L 51.4 150.1 L 53.7 152.3 L 55.8 154.7 L 57.7 157.3 L 59.4 160.0 L 60.9 162.8 L 62.3 165.8 L 63.4 168.9 L 64.3 172.2 L 63.1 176.6 L 59.2 178.9 L 54.8 177.7 L 52.4 173.8 L 52.4 171.1 Z M 37.8 182.9 L 33.8 180.7 L 32.4 176.4 L 33.0 174.1 L 33.4 171.7 L 33.7 169.2 L 33.9 166.5 L 33.9 163.6 L 33.8 160.6 L 33.6 157.5 L 33.3 154.2 L 32.9 150.7 L 32.1 147.2 L 33.8 146.5 L 35.4 149.8 L 37.3 152.9 L 38.9 156.0 L 40.3 159.1 L 41.4 162.3 L 42.4 165.3 L 43.2 168.4 L 43.8 171.5 L 44.2 174.5 L 44.4 177.6 L 42.2 181.6 Z M 70.9 163.8 L 70.2 161.3 L 69.4 158.9 L 68.4 156.5 L 67.3 154.2 L 66.1 151.9 L 64.8 149.6 L 63.3 147.2 L 61.4 145.3 L 62.5 143.8 L 64.9 145.3 L 67.6 146.7 L 70.0 148.3 L 72.3 150.2 L 74.5 152.2 L 76.6 154.5 L 78.5 156.9 L 80.3 159.5 L 81.9 162.3 L 83.4 165.2 L 83.0 169.8 L 79.6 172.8 L 75.0 172.4 L 72.0 169.0 L 71.5 166.4 Z M 18.3 137.5 L 18.3 65.86285715103149 L 18.0 66.3 L 14.2 71.0 L 10.2 75.4 L 8.7 74.5 L 11.0 69.1 L 13.3 63.6 L 15.7 58.1 L 18.0 52.5 L 20.3 46.7 L 22.5 40.7 L 24.6 34.6 L 26.6 28.3 L 28.6 21.8 L 30.24202585220337 16.00969829559326 L 30.2 16.0 L 31.0 13.5 L 41.9 18.7 L 44.2 21.5 L 40.540102100372316 22.39892225265503 L 39.4 25.5 L 36.7 32.0 L 36.25555553436279 33.0 L 55.2 33.0 L 61.2 28.0 L 72.2 37.0 L 67.2 40.0 L 64.61772155761719 41.075949382781985 L 64.2 41.8 L 62.5 44.4 L 60.5 47.2 L 58.3 50.0 L 55.9 52.9 L 53.2 55.9 L 50.2 59.0 L 46.9 62.1 L 45.055882358551024 64.0 L 64.4 64.0 L 69.9 59.0 L 80.4 68.0 L 75.4 71.5 L 75.4 132.0 L 64.4 137.5 L 64.4 132.0 L 29.3 132.0 Z M 29.3 100.0 L 29.3 128.0 L 41.9 128.0 L 41.9 100.0 Z M 51.9 100.0 L 51.9 128.0 L 64.4 128.0 L 64.4 100.0 Z M 29.3 68.0 L 29.3 96.0 L 41.9 96.0 L 41.9 68.0 Z M 51.9 68.0 L 51.9 96.0 L 64.4 96.0 L 64.4 68.0 Z M 34.477777767181394 37.0 L 33.9 38.3 L 31.0 44.4 L 28.0 50.2 L 24.8 55.8 L 22.01489362716675 60.35744676589966 L 29.3 64.0 L 42.439999961853026 64.0 L 44.6 60.4 L 46.7 56.4 L 48.5 52.6 L 50.2 49.2 L 51.7 45.9 L 52.9 42.9 L 53.9 40.1 L 54.6 37.6 L 54.730434799194335 37.0 Z M 103.5 27.0 L 103.5 52.0 L 173.2 52.0 L 173.2 27.0 Z " />
</g>
</svg>
