<svg xmlns="http://www.w3.org/2000/svg" xmlns:xlink="http://www.w3.org/1999/xlink" version="1.1" baseProfile="full" viewBox="0 0 200 200" width="200" height="200">
<g fill="black">
<path d="M 81.1 141.1 L 79.3 138.7 L 77.2 136.3 L 74.8 133.9 L 72.1 131.4 L 69.1 128.9 L 65.9 126.3 L 63.9 124.8555555343628 L 63.9 183.0 L 51.9 189.0 L 51.9 128.0818181991577 L 49.5 132.5 L 44.9 140.2 L 39.9 147.5 L 34.7 154.3 L 29.2 160.7 L 23.3 166.6 L 17.1 171.9 L 10.5 176.6 L 9.3 175.3 L 14.4 169.2 L 19.3 163.0 L 24.1 156.6 L 28.6 149.9 L 32.8 142.9 L 36.8 135.6 L 40.6 127.9 L 44.1 119.9 L 47.4 111.6 L 48.93333330154419 107.0 L 11.7 107.0 L 11.7 103.0 L 51.9 103.0 L 51.9 87.0 L 63.9 89.0 L 66.9 91.0 L 63.9 92.8 L 63.9 103.0 L 73.9 103.0 L 83.9 93.0 L 95.9 103.0 L 95.9 107.0 L 63.9 107.0 L 63.9 121.08863639831543 L 68.0 122.3 L 72.1 123.9 L 75.9 125.6 L 79.5 127.5 L 82.8 129.5 L 85.9 131.7 L 88.8 134.0 L 91.4 136.5 L 93.8 139.1 L 94.6 143.6 L 92.1 147.4 L 87.6 148.3 L 83.8 145.8 L 82.6 143.5 Z M 183.0 145.0 L 185.0 145.0 L 183.0 170.0 L 186.6 172.4 L 189.0 176.0 L 186.6 179.6 L 183.0 182.0 L 158.0 182.0 L 155.4 181.8 L 152.9 181.4 L 150.5 180.6 L 148.2 179.3 L 146.2 177.7 L 144.6 175.7 L 143.3 173.4 L 142.5 171.0 L 142.1 168.5 L 142.0 166.0 L 142.0 122.0 L 134.6875 122.0 L 133.6 130.7 L 131.6 140.5 L 128.8 149.5 L 125.2 157.7 L 120.8 165.1 L 115.7 171.7 L 109.9 177.5 L 103.4 182.3 L 96.1 186.0 L 88.3 188.8 L 87.6 187.1 L 94.3 182.7 L 100.1 178.0 L 105.3 172.8 L 109.8 167.0 L 113.6 160.8 L 116.7 153.9 L 119.2 146.3 L 121.1 138.1 L 122.4 129.2 L 122.79130430221558 122.0 L 114.0 122.0 L 114.0 134.0 L 102.0 140.0 L 102.0 19.0 L 114.0 25.0 L 162.0 25.0 L 168.0 20.0 L 179.0 29.0 L 174.0 33.0 L 174.0 128.0 L 162.0 134.0 L 162.0 122.0 L 154.0 122.0 L 154.0 167.2 L 154.2 168.1 L 154.5 169.0 L 154.9 169.4 L 155.8 169.7 L 156.7 169.9 L 158.0 170.0 L 177.0 170.0 Z M 114.0 90.0 L 114.0 118.0 L 162.0 118.0 L 162.0 90.0 Z M 93.8 42.2 L 95.7 45.3 L 91.87008638381958 45.770340251922605 L 91.8 45.9 L 89.6 49.8 L 87.2 53.9 L 84.7 58.1 L 81.9 62.4 L 78.9 67.0 L 75.6 71.7 L 72.1 76.5 L 68.3 81.4 L 64.1 86.4 L 62.5 85.5 L 65.0 79.5 L 67.5 73.8 L 69.9 68.4 L 72.2 63.3 L 74.4 58.4 L 76.4 53.8 L 78.3 49.4 L 79.9 45.2 L 81.4 41.2 L 82.37506847381592 38.42480525970459 L 82.3 38.4 L 82.66904764175415 37.5880952835083 L 82.7 37.5 L 82.70762367248535 37.50322799682617 L 83.3 36.2 Z M 114.0 60.0 L 114.0 86.0 L 162.0 86.0 L 162.0 60.0 Z M 24.7 73.0 L 23.9 69.9 L 22.9 66.8 L 21.8 63.9 L 20.5 61.1 L 19.1 58.3 L 17.5 55.5 L 15.8 52.8 L 13.7 50.3 L 14.9 48.9 L 17.7 50.7 L 20.7 52.6 L 23.4 54.7 L 26.0 57.2 L 28.4 59.9 L 30.6 62.8 L 32.6 65.9 L 34.5 69.3 L 36.1 72.8 L 37.6 76.5 L 36.9 81.1 L 33.3 83.9 L 28.8 83.2 L 26.0 79.5 L 25.4 76.2 Z M 48.1 65.7 L 47.6 62.7 L 46.9 59.9 L 46.0 57.2 L 45.0 54.7 L 43.9 52.2 L 42.6 49.7 L 41.1 47.3 L 39.2 45.3 L 40.2 43.8 L 42.8 45.3 L 45.6 46.8 L 48.1 48.7 L 50.5 51.0 L 52.7 53.5 L 54.6 56.3 L 56.4 59.4 L 58.0 62.7 L 59.4 66.2 L 60.6 70.0 L 59.5 74.4 L 55.7 76.9 L 51.2 75.8 L 48.7 72.0 L 48.5 68.8 Z M 114.0 29.0 L 114.0 56.0 L 162.0 56.0 L 162.0 29.0 Z M 87.1168740272522 16.524770164489745 L 95.6 24.0 L 95.8 27.2 L 91.90544347763061 25.462428665161134 L 90.8 25.9 L 84.9 27.8 L 78.5 29.6 L 71.7 31.4 L 64.4 33.2 L 56.7 34.9 L 48.5 36.5 L 39.8 38.1 L 30.7 39.5 L 21.1 40.8 L 11.0 41.8 L 10.6 40.1 L 20.3 37.1 L 29.6 34.3 L 38.4 31.7 L 46.7 29.2 L 54.5 26.7 L 61.9 24.3 L 68.8 21.8 L 75.1 19.4 L 81.0 17.1 L 86.4 14.7 Z " />
</g>
</svg>
