<svg xmlns="http://www.w3.org/2000/svg" xmlns:xlink="http://www.w3.org/1999/xlink" version="1.1" baseProfile="full" viewBox="0 0 200 200" width="200" height="200">
<g fill="black">
<path d="M 90.0 22.0 L 103.3 22.0 L 108.3 17.0 L 118.3 26.0 L 113.3 29.0 L 113.3 171.0 L 113.2 173.3 L 112.9 175.5 L 112.4 177.6 L 111.5 179.6 L 110.4 181.5 L 108.9 183.1 L 107.1 184.4 L 105.1 185.3 L 102.9 185.8 L 100.8 186.0 L 100.8 181.0 L 89.2 178.5 L 89.2 176.0 L 100.8 176.0 L 101.5 175.9 L 101.9 175.8 L 102.3 175.6 L 102.4 175.5 L 102.6 175.1 L 103.1 173.6 L 103.2 172.4 L 103.3 171.0 L 103.3 114.0 L 90.0 114.0 L 90.0 118.0 L 89.6 128.7 L 89.0 138.6 L 88.1 147.7 L 87.1 156.0 L 85.8 163.5 L 84.2 170.3 L 82.4 176.2 L 80.3 181.2 L 77.8 185.3 L 75.0 188.4 L 73.5 187.5 L 74.4 183.8 L 75.2 179.5 L 76.0 174.5 L 76.8 168.8 L 77.4 162.4 L 77.8 155.1 L 78.1 147.0 L 78.2 138.1 L 78.2 128.4 L 78.0 118.0 L 78.0 16.0 Z M 159.6 137.8 L 157.0 132.0 L 156.35206632614137 130.7488176345825 L 153.2 136.1 L 148.7 142.8 L 143.9 148.8 L 138.9 154.1 L 133.6 158.6 L 132.3 157.3 L 136.0 151.7 L 139.5 145.7 L 143.1 139.3 L 146.5 132.4 L 149.8 125.1 L 151.35156173706054 121.2695818901062 L 151.1 120.8 L 147.8 115.2 L 144.5 109.8 L 137.3 98.8 L 133.6 93.3 L 135.0 92.1 L 140.2 96.3 L 145.1 100.9 L 149.7 105.8 L 154.0 110.9 L 154.90945529937744 112.02599220275879 L 156.1 108.8 L 159.0 99.8 L 161.8 90.4 L 164.4 80.3 L 164.46444444656373 80.31777782440186 L 164.9 78.7 L 176.0 83.5 L 177.9 85.81304349899293 L 177.9 79.0 L 189.9 81.0 L 192.9 83.0 L 189.9 84.8 L 189.9 175.0 L 177.9 181.0 L 177.9 169.0 L 130.6 169.0 L 130.6 181.0 L 120.6 186.0 L 120.6 79.0 L 130.6 81.0 L 133.1 83.0 L 130.6 84.66666669845581 L 130.6 165.0 L 177.9 165.0 L 177.9 86.40714282989502 L 174.78993673324584 87.24019556045532 L 172.7 93.7 L 169.2 103.4 L 165.4 112.4 L 161.6 120.9 L 161.59056749343873 120.91817483901977 L 162.0 121.5 L 165.7 127.1 L 169.2 132.9 L 172.4 138.8 L 175.5 144.8 L 175.5 149.4 L 172.3 152.7 L 167.7 152.7 L 164.4 149.5 L 162.1 143.6 Z M 58.8 48.8 L 57.6 46.3 L 56.2 43.8 L 54.6 41.3 L 52.8 38.7 L 50.7 36.1 L 48.4 33.5 L 45.9 30.7 L 44.8289719581604 29.776699924468993 L 43.3 34.1 L 40.1 42.1 L 36.7 50.0 L 33.0 57.7 L 29.0 65.1 L 26.702739715576172 69.0 L 48.31818180084228 69.0 L 56.5 60.0 L 66.5 69.0 L 66.5 73.0 L 48.7 73.0 L 48.7 101.0 L 52.518181800842285 101.0 L 60.7 92.0 L 70.7 101.0 L 70.7 105.0 L 48.7 105.0 L 48.7 161.42982454299926 L 51.3 160.7 L 57.1 159.1 L 62.9 157.6 L 68.9 156.1 L 69.6 157.8 L 64.4 161.1 L 59.1 164.1 L 53.7 166.8 L 48.2 169.4 L 42.7 171.9 L 37.2 174.2 L 31.7 176.4 L 20.7 180.6 L 19.08112096786499 181.14926252365112 L 17.9 184.8 L 15.1 182.5 L 10.0 171.4 L 11.9 170.9 L 17.5 169.6 L 23.0 168.3 L 28.6 166.9 L 34.3 165.4 L 36.7 164.75714282989503 L 36.7 105.0 L 14.0 105.0 L 14.0 101.0 L 36.7 101.0 L 36.7 73.0 L 26.6 73.0 L 26.6 69.17441864013672 L 24.7 72.4 L 20.1 79.4 L 15.2 86.1 L 9.8 92.5 L 8.3 91.4 L 11.9 84.1 L 15.5 76.7 L 18.9 69.3 L 22.2 61.8 L 25.2 54.2 L 28.1 46.5 L 30.7 38.7 L 33.1 30.7 L 35.3 22.6 L 37.053888607025144 15.409056854248046 L 37.0 15.4 L 37.7 12.7 L 48.9 17.4 L 51.3 20.1 L 47.694698905944826 21.194466400146485 L 46.2 25.9 L 45.622051906585696 27.534198093414307 L 47.5 28.5 L 51.0 30.1 L 54.3 31.9 L 57.4 33.9 L 60.2 36.0 L 62.9 38.3 L 65.4 40.7 L 67.6 43.2 L 69.6 45.9 L 71.4 48.8 L 71.5 53.4 L 68.4 56.7 L 63.8 56.7 L 60.5 53.6 L 59.7 51.2 Z M 21.6 142.3 L 21.2 139.3 L 20.6 136.3 L 19.9 133.3 L 19.0 130.3 L 18.0 127.3 L 16.9 124.2 L 15.3 121.3 L 16.7 120.2 L 19.1 122.6 L 21.6 125.0 L 23.9 127.7 L 26.0 130.5 L 27.8 133.5 L 29.4 136.6 L 30.8 139.9 L 32.0 143.3 L 33.0 146.9 L 33.7 150.5 L 32.2 154.9 L 28.2 156.9 L 23.8 155.4 L 21.8 151.4 L 21.8 145.3 Z M 69.1 121.7 L 71.4 124.5 L 67.32642011642456 125.50052843093872 L 66.3 127.7 L 64.8 130.6 L 61.6 136.6 L 59.8 139.6 L 58.0 142.5 L 56.0 145.5 L 53.8 148.3 L 51.9 151.3 L 50.2 150.6 L 51.3 147.2 L 52.0 143.7 L 52.8 140.3 L 53.6 137.0 L 54.4 133.8 L 55.8 127.4 L 56.5 124.3 L 57.1 121.2 L 57.43394927978515 119.12951421737671 L 57.3 119.1 L 57.57967481613159 118.22601623535157 L 57.6 118.1 L 57.61817893981934 118.10569076538086 L 58.1 116.6 Z M 90.0 69.0 L 90.0 110.0 L 103.3 110.0 L 103.3 69.0 Z M 188.5 24.9 L 190.7 27.7 L 187.00961542129517 28.476923084259035 L 186.5 29.7 L 184.3 34.6 L 181.9 39.6 L 179.4 44.7 L 176.8 49.9 L 174.0 55.1 L 171.0 60.4 L 167.8 65.7 L 164.3 71.0 L 160.6 76.4 L 158.9 75.5 L 160.9 69.4 L 163.0 63.4 L 165.0 57.6 L 167.1 52.0 L 169.0 46.5 L 170.9 41.1 L 172.6 35.9 L 174.3 30.8 L 175.8 25.8 L 176.91330270767213 21.903440380096434 L 176.9 21.9 L 177.0 21.6 L 177.2 20.9 L 177.2298152923584 20.910554122924804 L 177.7 19.5 Z M 90.0 26.0 L 90.0 65.0 L 103.3 65.0 L 103.3 26.0 Z M 126.7 51.7 L 126.3 48.2 L 125.8 44.8 L 125.2 41.4 L 124.6 38.1 L 123.9 34.8 L 123.1 31.6 L 122.4 28.4 L 121.3 25.3 L 122.8 24.4 L 124.9 27.0 L 127.1 29.7 L 129.1 32.6 L 131.0 35.7 L 132.6 38.9 L 134.2 42.3 L 135.6 45.8 L 136.9 49.4 L 138.1 53.2 L 139.1 57.1 L 138.0 61.5 L 134.1 63.9 L 129.6 62.8 L 127.2 58.9 L 127.0 55.2 Z M 147.0 44.0 L 146.7 40.7 L 146.2 37.5 L 145.6 34.3 L 144.9 31.0 L 142.2 21.4 L 140.8 18.3 L 142.3 17.3 L 144.6 19.9 L 147.0 22.6 L 149.1 25.4 L 151.1 28.4 L 152.9 31.6 L 154.5 34.9 L 156.0 38.3 L 157.2 41.8 L 158.3 45.5 L 159.3 49.2 L 158.0 53.6 L 154.1 55.9 L 149.7 54.7 L 147.4 50.7 L 147.3 47.4 Z " />
</g>
</svg>
