<svg xmlns="http://www.w3.org/2000/svg" xmlns:xlink="http://www.w3.org/1999/xlink" version="1.1" baseProfile="full" viewBox="0 0 200 200" width="200" height="200">
<g fill="black">
<path d="M 170.9 171.8 L 165.2 167.5 L 160.0 162.9 L 155.0 158.0 L 150.4 152.9 L 146.2 147.4 L 142.5 141.6 L 139.5 136.05454549789428 L 139.5 182.0 L 127.5 188.0 L 127.5 144.05744676589967 L 127.4 144.2 L 122.4 150.6 L 116.9 156.5 L 110.9 161.9 L 104.5 166.8 L 97.7 171.3 L 90.4 175.2 L 82.7 178.6 L 74.6 181.2 L 73.9 179.6 L 81.0 175.2 L 87.7 170.6 L 94.0 165.9 L 99.8 160.9 L 105.1 155.7 L 110.0 150.2 L 114.5 144.4 L 118.5 138.2 L 122.2 131.8 L 123.19523811340332 129.6 L 81.6 129.6 L 81.6 125.6 L 127.5 125.6 L 127.5 108.3 L 139.5 110.3 L 142.5 112.3 L 139.5 114.1 L 139.5 125.6 L 166.0 125.6 L 176.0 115.6 L 188.0 125.6 L 188.0 129.6 L 139.51176471710204 129.6 L 142.6 133.1 L 147.2 138.0 L 151.7 142.7 L 156.5 147.1 L 161.4 151.2 L 166.4 155.0 L 171.7 158.6 L 177.2 161.9 L 182.9 164.9 L 188.9 167.6 L 194.4 170.3 L 183.1 179.5 L 176.8 175.8 Z M 65.9 51.2 L 64.3 48.1 L 62.5 44.9 L 60.5 41.8 L 58.2 38.7 L 55.7 35.6 L 52.9 32.5 L 50.164389514923094 29.48139533996582 L 48.1 34.2 L 44.4 42.0 L 40.4 49.4 L 36.2 56.5 L 31.7 63.3 L 28.289142894744874 67.94457139968873 L 36.4 72.0 L 42.8 72.0 L 42.8 47.0 L 54.8 49.0 L 57.8 51.0 L 54.8 52.8 L 54.8 72.0 L 60.4 72.0 L 66.4 67.0 L 77.4 76.0 L 72.4 80.0 L 72.4 123.0 L 60.4 129.0 L 60.4 123.0 L 36.4 123.0 L 36.4 159.5471697807312 L 40.5 158.0 L 46.0 155.9 L 51.8 153.6 L 57.9 151.4 L 59.9641975402832 150.6904320716858 L 59.1 148.8 L 57.4 145.4 L 55.5 142.1 L 53.5 138.8 L 51.4 135.5 L 48.9 132.3 L 50.1 130.9 L 53.6 133.2 L 57.0 135.6 L 60.2 138.3 L 63.1 141.3 L 65.9 144.5 L 68.5 147.9 L 70.8 151.4 L 73.0 155.2 L 75.0 159.2 L 76.8 163.3 L 76.3 167.8 L 72.8 170.8 L 68.3 170.3 L 65.3 166.9 L 64.4 163.1 L 63.3 159.4 L 62.1 155.8 L 61.22430934906006 153.61077346801758 L 59.6 154.8 L 54.2 158.4 L 48.9 161.7 L 43.8 164.8 L 38.8 167.7 L 34.0 170.4 L 29.4 172.8 L 24.9 175.1 L 20.7 177.3 L 20.478250885009764 177.40276184082032 L 19.6 181.3 L 16.6 179.2 L 10.5 168.7 L 12.3 168.0 L 16.4 166.7 L 20.8 165.3 L 24.4 164.0199999809265 L 24.4 72.87200002670288 L 22.0 75.8 L 16.7 81.4 L 11.0 86.5 L 9.7 85.4 L 17.7 72.6 L 21.5 66.1 L 25.2 59.3 L 28.8 52.4 L 32.1 45.2 L 35.3 37.8 L 38.2 30.1 L 41.0 22.2 L 43.223810482025144 14.90590171813965 L 43.2 14.9 L 44.0 12.5 L 54.9 17.8 L 57.1 20.7 L 53.45963115692139 21.46639347076416 L 51.6 26.2 L 51.42216691970825 26.606475734710692 L 51.8 26.8 L 55.9 28.8 L 59.6 31.2 L 63.1 33.7 L 66.4 36.5 L 69.5 39.4 L 72.3 42.5 L 74.9 45.8 L 77.3 49.2 L 79.4 52.8 L 79.5 57.4 L 76.4 60.7 L 71.8 60.7 L 68.4 57.6 L 67.3 54.4 Z M 36.4 99.0 L 36.4 119.0 L 60.4 119.0 L 60.4 99.0 Z M 180.3 79.8 L 182.2 82.9 L 178.29775047302246 83.30368099212646 L 173.9 90.5 L 168.9 97.9 L 166.2 101.8 L 163.3 105.6 L 160.3 109.5 L 157.0 113.4 L 153.5 117.4 L 152.0 116.4 L 154.0 111.6 L 155.9 106.9 L 157.9 102.4 L 159.8 98.1 L 161.7 93.9 L 163.4 89.8 L 165.1 85.9 L 166.7 82.0 L 168.1 78.3 L 169.14363632202148 75.61636362075805 L 169.1 75.6 L 169.46818180084227 74.78181819915771 L 169.5 74.7 L 169.50412368774414 74.70194730758666 L 170.0 73.6 Z M 99.7 95.1 L 99.2 92.7 L 98.6 90.3 L 97.9 87.9 L 97.1 85.4 L 96.2 83.0 L 94.9 80.8 L 96.2 79.6 L 98.2 81.5 L 100.4 83.2 L 102.4 85.2 L 104.2 87.3 L 106.0 89.6 L 107.5 92.0 L 108.9 94.6 L 110.2 97.3 L 111.3 100.1 L 112.3 103.1 L 111.2 107.5 L 107.3 109.9 L 102.9 108.8 L 100.5 104.9 L 100.3 99.9 Z M 127.3 94.5 L 127.0 92.0 L 126.0 87.2 L 125.4 84.9 L 124.7 82.6 L 123.8 80.4 L 122.9 78.1 L 121.6 76.2 L 122.8 74.9 L 124.8 76.5 L 127.0 78.0 L 129.0 79.8 L 130.9 81.7 L 132.7 83.9 L 134.3 86.3 L 135.8 88.9 L 137.1 91.6 L 138.4 94.5 L 139.5 97.6 L 138.5 102.0 L 134.7 104.6 L 130.2 103.6 L 127.7 99.8 L 127.5 97.1 Z M 36.4 95.0 L 60.4 95.0 L 60.4 76.0 L 36.4 76.0 Z M 173.90054941177368 54.40219783782959 L 184.2 63.0 L 184.5 66.0 L 180.1513030052185 63.94644861221313 L 176.5 64.8 L 168.7 66.3 L 160.6 67.8 L 152.2 69.1 L 143.4 70.4 L 134.3 71.6 L 124.7 72.8 L 114.9 73.8 L 104.6 74.7 L 94.0 75.3 L 83.0 75.7 L 82.8 74.0 L 93.5 71.6 L 103.9 69.4 L 113.9 67.3 L 123.5 65.3 L 132.8 63.3 L 141.7 61.3 L 150.3 59.3 L 158.4 57.3 L 166.2 55.2 L 172.71322317123412 53.43966941833496 L 172.7 53.4 L 172.73913230895997 53.43266696929932 L 173.6 53.2 Z M 158.1 14.5 L 161.1 16.5 L 158.1 18.3 L 158.1 34.7 L 169.3 34.7 L 179.3 24.7 L 191.3 34.7 L 191.3 38.7 L 158.1 38.7 L 158.1 47.0 L 146.1 53.0 L 146.1 38.7 L 120.8 38.7 L 120.8 55.9 L 108.8 61.9 L 108.8 38.7 L 75.6 38.7 L 75.6 34.7 L 108.8 34.7 L 108.8 12.5 L 120.8 14.5 L 123.8 16.5 L 120.8 18.3 L 120.8 34.7 L 146.1 34.7 L 146.1 12.5 Z " />
</g>
</svg>
