<svg xmlns="http://www.w3.org/2000/svg" xmlns:xlink="http://www.w3.org/1999/xlink" version="1.1" baseProfile="full" viewBox="0 0 200 200" width="200" height="200">
<g fill="black">
<path d="M 150.0 109.5 L 153.0 111.5 L 150.0 113.3 L 150.0 132.3 L 166.0 132.3 L 176.0 122.3 L 188.0 132.3 L 188.0 136.3 L 150.0 136.3 L 150.0 164.1 L 138.0 170.1 L 138.0 162.1 L 101.0 162.1 L 101.0 165.1 L 89.0 171.1 L 89.0 136.3 L 54.0 136.3 L 54.0 181.8 L 161.0 181.8 L 171.0 171.8 L 183.0 181.8 L 183.0 185.8 L 54.0 185.8 L 42.0 191.8 L 42.0 136.3 L 17.0 136.3 L 17.0 132.3 L 42.0 132.3 L 42.0 107.5 L 54.0 109.5 L 57.0 111.5 L 54.0 113.3 L 54.0 132.3 L 89.0 132.3 L 89.0 107.5 L 101.0 109.5 L 104.0 111.5 L 101.0 113.3 L 101.0 132.3 L 138.0 132.3 L 138.0 107.5 Z M 101.0 136.3 L 101.0 158.1 L 138.0 158.1 L 138.0 136.3 Z M 104.1 81.4 L 103.4 80.0 L 102.4 78.4 L 101.0 76.8 L 99.2 75.0 L 97.2 73.1 L 94.8 71.1 L 92.6 69.38888893127441 L 92.6 100.7 L 82.6 105.7 L 82.6 75.5 L 79.2 80.1 L 75.7 84.4 L 71.9 88.3 L 67.9 91.8 L 63.6 94.9 L 59.0 97.5 L 54.2 99.5 L 53.3 98.0 L 56.8 94.4 L 60.1 90.8 L 63.3 87.1 L 66.2 83.3 L 69.0 79.2 L 71.5 75.0 L 73.9 70.5 L 76.0 65.8 L 78.0 60.8 L 78.35483875274659 59.7 L 70.3 59.7 L 70.3 62.7 L 59.3 68.2 L 59.3 30.2 L 70.3 35.7 L 82.6 35.7 L 82.6 25.3 L 54.5 25.3 L 54.5 21.3 L 82.6 21.3 L 82.6 6.2 L 92.6 8.2 L 95.1 10.2 L 92.6 11.866666698455811 L 92.6 21.3 L 106.4777777671814 21.3 L 112.7 14.3 L 120.7 21.3 L 120.7 25.3 L 92.6 25.3 L 92.6 35.7 L 105.4 35.7 L 110.4 30.7 L 120.4 39.7 L 115.4 42.7 L 115.4 59.7 L 105.4 64.7 L 105.4 59.7 L 92.6 59.7 L 92.6 66.62857141494752 L 93.1 66.8 L 96.5 67.6 L 99.7 68.5 L 102.6 69.6 L 105.3 70.7 L 107.7 71.9 L 110.0 73.3 L 112.0 74.8 L 113.8 76.6 L 115.4 78.6 L 115.4 83.2 L 112.3 86.5 L 107.7 86.5 L 104.4 83.4 L 104.4 82.6 Z M 146.98827676773072 90.45291481018066 L 148.7 92.4 L 148.8 96.0 L 145.00672702789308 94.3843466758728 L 142.2 95.7 L 138.7 97.2 L 135.0 98.6 L 131.0 99.9 L 126.8 101.2 L 122.4 102.4 L 117.7 103.4 L 112.8 104.3 L 107.6 105.2 L 107.1 103.4 L 111.8 101.2 L 116.1 98.9 L 120.3 96.7 L 124.1 94.6 L 127.7 92.6 L 131.1 90.5 L 134.1 88.5 L 136.9 86.6 L 139.4 84.7 L 140.83486394882203 83.46079931259155 L 140.7 83.3 L 140.8385576248169 83.45760927200317 L 141.6 82.8 Z M 174.8 99.4 L 173.2 97.8 L 171.5 96.2 L 169.5 94.5 L 167.4 92.9 L 165.1 91.3 L 162.6 89.6 L 160.0 87.9 L 157.1 86.6 L 157.6 84.8 L 160.8 85.5 L 164.0 85.8 L 167.2 86.4 L 168.6 86.73793106079101 L 168.6 80.8 L 136.7 80.8 L 125.7 86.3 L 125.7 23.5 L 136.7 29.0 L 141.7 29.0 L 141.9 28.8 L 142.9 26.8 L 144.0 24.8 L 145.0 23.0 L 146.0 21.1 L 146.9 19.3 L 147.7 17.5 L 118.6 17.5 L 118.6 13.5 L 174.37777776718139 13.5 L 180.6 6.5 L 188.6 13.5 L 188.6 17.5 L 161.16060609817504 17.5 L 159.9 18.8 L 158.3 20.4 L 156.7 21.9 L 154.9 23.3 L 153.2 24.6 L 151.3 26.0 L 147.5 28.4 L 146.3 29.0 L 168.6 29.0 L 174.6 24.0 L 185.6 33.0 L 180.6 37.0 L 180.6 80.8 L 168.68372097015381 86.7581395149231 L 170.1 87.1 L 173.0 87.9 L 175.8 88.9 L 178.4 89.9 L 180.9 91.2 L 183.3 92.5 L 185.6 94.0 L 187.4 98.2 L 185.8 102.5 L 181.6 104.3 L 177.3 102.7 L 176.2 101.1 Z M 30.5 105.1 L 26.5 102.9 L 25.1 98.5 L 25.7 95.2 L 25.9 92.2 L 25.8 89.6 L 25.4 87.1 L 24.7 84.8 L 23.6 82.6 L 22.533609008789064 81.2826934814453 L 22.3 81.2 L 22.367425537109376 81.07740802764893 L 21.9 80.5 L 19.8 78.4 L 17.1 76.4 L 13.8 74.9 L 14.2 73.1 L 21.8 74.7 L 25.2 76.1 L 25.384523773193358 76.2130952835083 L 26.9 73.9 L 29.2 70.4 L 32.0 66.2 L 35.3 61.5 L 39.1 56.2 L 43.3 50.2 L 48.2 43.7 L 53.6 36.7 L 55.2 37.6 L 51.4 45.7 L 47.9 53.0 L 44.7 59.5 L 41.9 65.3 L 39.4 70.5 L 37.3 74.9 L 35.7 78.6 L 34.5 81.6 L 33.8 83.9 L 33.70921049118042 84.4901315689087 L 35.0 87.0 L 36.2 90.9 L 36.9 95.1 L 37.1 99.7 L 34.9 103.7 Z M 136.7 64.7 L 136.7 76.8 L 168.6 76.8 L 168.6 64.7 Z M 136.7 49.1 L 136.7 60.7 L 168.6 60.7 L 168.6 49.1 Z M 70.3 39.7 L 70.3 55.7 L 82.6 55.7 L 82.6 39.7 Z M 92.6 39.7 L 92.6 55.7 L 105.4 55.7 L 105.4 39.7 Z M 26.1 47.7 L 25.4 46.6 L 24.4 45.4 L 23.2 44.1 L 21.6 42.8 L 19.8 41.5 L 17.7 40.1 L 15.3 38.6 L 12.6 37.7 L 13.0 35.9 L 15.9 36.5 L 18.8 36.6 L 21.4 36.8 L 24.0 37.2 L 26.3 37.7 L 28.5 38.2 L 30.6 38.9 L 32.6 39.8 L 34.4 40.9 L 36.2 42.3 L 37.2 46.7 L 34.9 50.6 L 30.5 51.7 L 26.5 49.4 L 26.5 48.6 Z M 136.7 33.0 L 136.7 45.1 L 168.6 45.1 L 168.6 33.0 Z M 36.2 22.2 L 35.5 21.1 L 34.5 19.9 L 33.3 18.6 L 31.8 17.3 L 30.1 15.9 L 28.2 14.6 L 26.0 13.1 L 23.5 12.2 L 24.0 10.4 L 26.7 11.0 L 29.3 11.1 L 31.9 11.4 L 34.3 11.7 L 36.5 12.2 L 38.7 12.8 L 40.7 13.5 L 42.7 14.3 L 44.5 15.4 L 46.2 16.6 L 47.5 21.0 L 45.4 25.0 L 41.0 26.3 L 36.9 24.2 L 36.7 23.3 Z " />
</g>
</svg>
