<svg xmlns="http://www.w3.org/2000/svg" xmlns:xlink="http://www.w3.org/1999/xlink" version="1.1" baseProfile="full" viewBox="0 0 200 200" width="200" height="200">
<g fill="black">
<path d="M 71.1 87.4 L 72.4 90.8 L 68.67809982299805 90.54331722259522 L 66.4 93.5 L 61.5 99.3 L 56.4 105.0 L 51.0 110.4 L 45.4 115.6 L 44.693314743041995 116.19888582229615 L 50.7 117.2 L 53.7 119.2 L 50.7 121.0 L 50.7 184.9 L 38.7 190.9 L 38.7 121.21935482025147 L 33.3 125.4 L 26.9 129.9 L 20.1 134.1 L 13.0 137.9 L 12.0 136.4 L 17.9 131.0 L 23.5 125.7 L 29.0 120.4 L 34.3 115.1 L 39.4 109.6 L 44.2 104.0 L 48.8 98.4 L 53.1 92.6 L 57.3 86.7 L 61.1 80.7 L 61.123041439056394 80.7154377937317 L 61.6 80.0 Z M 108.9 187.5 L 106.4 187.0 L 104.0 186.2 L 101.7 185.0 L 99.7 183.3 L 98.1 181.3 L 96.9 179.1 L 96.0 176.7 L 95.6 174.2 L 95.5 171.6 L 95.5 141.6 L 107.5 143.6 L 110.5 145.6 L 107.5 147.4 L 107.5 172.8 L 107.7 173.7 L 107.9 174.3 L 108.2 174.9 L 108.4 175.0 L 108.7 175.2 L 109.3 175.4 L 110.2 175.5 L 111.5 175.6 L 153.8 175.6 L 159.8 150.6 L 161.8 150.6 L 159.8 175.6 L 163.4 178.0 L 165.8 181.6 L 163.4 185.2 L 159.8 187.6 L 111.5 187.6 Z M 64.4 180.2 L 63.5 175.8 L 66.0 171.9 L 67.8 170.9 L 69.6 169.6 L 71.3 167.8 L 72.9 165.6 L 74.4 163.0 L 75.8 159.9 L 77.1 156.3 L 78.2 152.3 L 79.2 147.8 L 79.7 142.9 L 81.5 142.8 L 82.1 147.8 L 82.6 152.6 L 82.7 157.1 L 82.5 161.4 L 81.9 165.4 L 80.9 169.2 L 79.5 172.8 L 77.7 176.1 L 75.5 179.1 L 72.8 181.8 L 68.3 182.7 Z M 175.1 167.6 L 174.2 164.8 L 173.0 161.9 L 171.6 159.1 L 170.0 156.2 L 168.1 153.3 L 166.0 150.4 L 163.6 147.4 L 160.8 144.7 L 161.8 143.2 L 165.4 145.2 L 168.9 147.1 L 172.1 149.4 L 175.1 151.8 L 177.9 154.4 L 180.4 157.2 L 182.6 160.2 L 184.7 163.4 L 186.4 166.8 L 187.9 170.3 L 187.2 174.8 L 183.6 177.6 L 179.1 176.9 L 176.3 173.3 L 175.8 170.5 Z M 130.4 156.4 L 129.3 154.1 L 128.0 151.9 L 126.6 149.7 L 125.0 147.5 L 123.3 145.4 L 121.5 143.2 L 119.5 141.1 L 117.1 139.3 L 117.9 137.7 L 120.8 138.9 L 123.7 139.9 L 126.6 141.2 L 129.3 142.7 L 131.9 144.3 L 134.4 146.2 L 136.7 148.3 L 138.9 150.5 L 140.9 152.9 L 142.9 155.5 L 143.2 160.1 L 140.3 163.6 L 135.7 163.9 L 132.2 161.0 L 131.4 158.7 Z M 187.2 129.5 L 187.2 133.5 L 64.8 133.5 L 64.8 129.5 L 165.2 129.5 L 175.2 119.5 Z M 76.8 123.4 L 76.8 79.3 L 88.8 85.3 L 120.0 85.3 L 120.0 70.7 L 68.4 70.7 L 68.4 66.7 L 120.0 66.7 L 120.0 50.0 L 132.0 52.0 L 135.0 54.0 L 132.0 55.8 L 132.0 66.7 L 161.6 66.7 L 171.6 56.7 L 183.6 66.7 L 183.6 70.7 L 132.0 70.7 L 132.0 85.3 L 163.2 85.3 L 169.2 80.3 L 180.2 89.3 L 175.2 93.3 L 175.2 117.4 L 163.2 123.4 L 163.2 117.4 L 88.8 117.4 Z M 88.8 89.3 L 88.8 113.4 L 105.6 113.4 L 105.6 89.3 Z M 117.6 113.4 L 134.4 113.4 L 134.4 89.3 L 117.6 89.3 Z M 146.4 89.3 L 146.4 113.4 L 163.2 113.4 L 163.2 89.3 Z M 64.1 56.9 L 65.5 60.3 L 61.67482433319092 59.975832557678224 L 60.0 62.1 L 55.7 67.1 L 51.2 71.9 L 46.6 76.6 L 41.8 81.0 L 36.8 85.2 L 31.7 89.2 L 26.4 92.9 L 20.9 96.2 L 15.1 99.3 L 14.1 97.8 L 18.6 93.2 L 27.4 84.2 L 31.6 79.7 L 35.8 75.0 L 39.7 70.3 L 43.6 65.4 L 47.3 60.4 L 50.9 55.3 L 53.763063526153566 50.83698921203613 L 53.7 50.8 L 54.8 49.3 Z M 134.0 10.0 L 137.0 12.0 L 134.0 13.8 L 134.0 25.1 L 165.0 25.1 L 175.0 15.1 L 187.0 25.1 L 187.0 29.1 L 134.0 29.1 L 134.0 41.4 L 122.0 47.4 L 122.0 29.1 L 78.0 29.1 L 78.0 41.4 L 66.0 47.4 L 66.0 29.1 L 13.0 29.1 L 13.0 25.1 L 66.0 25.1 L 66.0 8.0 L 78.0 10.0 L 81.0 12.0 L 78.0 13.8 L 78.0 25.1 L 122.0 25.1 L 122.0 8.0 Z " />
</g>
</svg>
