<svg xmlns="http://www.w3.org/2000/svg" xmlns:xlink="http://www.w3.org/1999/xlink" version="1.1" baseProfile="full" viewBox="0 0 200 200" width="200" height="200">
<g fill="black">
<path d="M 108.3 183.2 L 86.4 179.8 L 71.1 175.3 L 60.9 170.5 L 54.6 166.5 L 51.2 164.2 L 48.5 163.5 L 42.9 165.4 L 37.21304349899292 168.71739130020143 L 35.6 170.1 L 32.8 172.6 L 30.0 175.2 L 27.2 177.9 L 24.634221076965332 180.56080780029296 L 25.3 184.5 L 21.8 183.6 L 12.1 176.3 L 13.6 174.9 L 17.0 172.2 L 20.5 169.8 L 24.0 167.5 L 27.6 165.4 L 31.2 163.5 L 34.8 161.7 L 38.5 160.2 L 42.2 159.0 L 44.0 158.51351346969605 L 44.0 95.0 L 14.0 95.0 L 14.0 91.0 L 44.0 91.0 L 50.0 86.0 L 61.0 95.0 L 56.0 99.0 L 56.0 158.2 L 58.8 159.2 L 65.2 162.2 L 74.4 165.6 L 88.5 169.0 L 109.3 171.4 L 138.4 172.1 L 177.5 170.4 L 188.5 169.6 L 178.4 183.5 L 138.4 184.7 Z M 161.5 153.2 L 155.2 144.7 L 151.69011402130127 137.1984790802002 L 145.4 143.4 L 137.7 149.7 L 129.6 155.2 L 120.9 159.9 L 111.7 163.7 L 110.9 162.1 L 119.0 156.6 L 126.5 150.9 L 133.5 144.7 L 140.0 138.0 L 146.0 130.9 L 148.22967262268065 127.77845830917359 L 146.0 120.6 L 142.7 105.1 L 140.2 87.6 L 139.4964467048645 79.9 L 60.7 79.9 L 60.7 75.9 L 107.07741937637329 75.9 L 107.8 74.3 L 108.9 71.0 L 109.9 67.8 L 110.9 64.8 L 111.8 61.8 L 112.6 59.0 L 113.3 56.2 L 113.9 53.5 L 114.4 50.8 L 114.65088520050048 49.231967258453366 L 114.5 49.2 L 115.3 46.7 L 126.3 51.7 L 128.6 54.5 L 124.41518983840942 55.527848148345946 L 123.6 57.1 L 122.1 59.8 L 118.7 65.2 L 116.8 67.8 L 114.7 70.5 L 112.5 73.1 L 110.1 75.6 L 109.86428575515747 75.9 L 139.13096446990966 75.9 L 138.4 67.9 L 137.3 46.3 L 137.01275243759156 23.79893732070923 L 137.0 23.8 L 137.0 20.4 L 149.0 22.8 L 152.0 24.8 L 149.04896907806398 26.570618534088133 L 149.3 45.9 L 150.4 67.1 L 151.18324604034424 75.9 L 165.3 75.9 L 175.3 65.9 L 187.3 75.9 L 187.3 79.9 L 151.53926706314087 79.9 L 152.1 86.2 L 154.5 103.1 L 156.86863718032836 114.17910947799683 L 161.0 106.1 L 165.1 96.7 L 168.6 86.7 L 168.66627902984618 86.72325582504273 L 169.2 85.3 L 180.0 90.7 L 182.1 93.6 L 178.42561979293822 94.37355375289917 L 175.5 101.2 L 170.6 111.0 L 165.1 120.2 L 160.4673620223999 126.5793704032898 L 161.4 129.5 L 165.6 138.7 L 170.1 144.9 L 173.584716129303 147.5328966140747 L 178.9 124.5 L 180.9 124.5 L 178.9793970108032 149.46783924102783 L 179.1 149.5 L 183.2 151.4 L 184.8 155.7 L 182.9 159.8 L 178.6 161.4 L 169.3 159.1 Z M 86.7 92.4 L 112.7 92.4 L 118.7 87.4 L 129.7 96.4 L 124.7 100.4 L 124.7 141.8 L 112.7 147.8 L 112.7 141.8 L 86.7 141.8 L 86.7 153.8 L 74.7 159.8 L 74.7 86.4 Z M 86.7 118.7 L 86.7 137.8 L 112.7 137.8 L 112.7 118.7 Z M 86.7 96.4 L 86.7 114.7 L 112.7 114.7 L 112.7 96.4 Z M 80.7 66.3 L 80.5 64.3 L 80.2 62.2 L 79.7 60.1 L 79.0 57.9 L 78.2 55.7 L 77.2 53.3 L 76.1 50.9 L 74.5 48.7 L 75.7 47.5 L 77.9 49.3 L 80.2 50.9 L 82.4 52.7 L 84.3 54.6 L 86.1 56.6 L 87.8 58.7 L 89.2 60.9 L 90.5 63.3 L 91.6 65.7 L 92.6 68.3 L 91.4 72.7 L 87.5 75.1 L 83.1 73.9 L 80.7 70.1 L 80.8 68.2 Z M 46.0 50.2 L 44.0 47.2 L 41.8 44.2 L 39.3 41.2 L 36.6 38.2 L 33.7 35.2 L 30.5 32.2 L 27.1 29.2 L 23.4 26.2 L 24.3 24.6 L 28.8 26.4 L 33.1 28.2 L 37.2 30.3 L 41.1 32.7 L 44.8 35.2 L 48.2 37.9 L 51.4 40.7 L 54.4 43.8 L 57.1 47.0 L 59.6 50.3 L 60.2 54.9 L 57.5 58.5 L 52.9 59.1 L 49.3 56.4 L 47.7 53.3 Z M 170.2 50.6 L 169.0 48.5 L 167.6 46.5 L 164.2 42.3 L 162.2 40.1 L 160.0 37.9 L 157.7 35.7 L 155.1 33.8 L 155.9 32.2 L 159.0 33.5 L 162.2 34.5 L 165.2 35.7 L 168.1 37.1 L 170.8 38.6 L 173.4 40.3 L 175.8 42.1 L 178.1 44.0 L 180.3 46.0 L 182.3 48.2 L 183.0 52.7 L 180.5 56.5 L 176.0 57.2 L 172.2 54.7 L 171.3 52.7 Z M 67.0 41.3 L 94.8 41.3 L 94.8 20.0 L 106.8 22.0 L 109.8 24.0 L 106.8 25.8 L 106.8 41.3 L 113.6 41.3 L 123.6 31.3 L 135.6 41.3 L 135.6 45.3 L 67.0 45.3 Z " />
</g>
</svg>
