<svg xmlns="http://www.w3.org/2000/svg" xmlns:xlink="http://www.w3.org/1999/xlink" version="1.1" baseProfile="full" viewBox="0 0 200 200" width="200" height="200">
<g fill="black">
<path d="M 165.8 169.7 L 162.2 162.2 L 159.0 154.0 L 156.3 145.0 L 154.1 135.2 L 152.5 124.8 L 151.7807692527771 117.47692308425903 L 151.4 119.9 L 148.5 132.8 L 144.7 144.8 L 140.2 155.6 L 134.9 165.4 L 128.8 174.1 L 121.8 181.5 L 114.1 187.6 L 113.0 186.3 L 119.0 179.0 L 124.4 171.0 L 129.1 162.3 L 133.2 152.7 L 136.6 142.1 L 139.4 130.7 L 141.5 118.2 L 142.9 104.8 L 143.7 90.4 L 143.7 67.0 L 155.7 69.0 L 158.7 71.0 L 155.7 72.8 L 155.7 75.0 L 155.1 90.9 L 154.51019105911254 96.79808921813965 L 155.2 101.3 L 157.2 112.8 L 159.6 123.5 L 162.2 133.2 L 165.2 142.2 L 168.6 150.2 L 172.1 157.4 L 176.0 163.6 L 179.9 169.0 L 184.1 173.5 L 185.1 174.6 L 174.4 182.4 L 169.9 176.5 Z M 87.5 176.6 L 78.6 172.5 L 70.6 167.6 L 67.46290674209595 165.13514099121093 L 59.4 170.6 L 49.3 175.9 L 38.3 180.4 L 26.2 184.0 L 13.2 186.8 L 12.7 185.1 L 25.0 180.4 L 36.2 175.4 L 46.3 170.1 L 55.2 164.2 L 61.05467624664307 159.4712230682373 L 57.5 155.8 L 52.5 148.8 L 48.6 141.2 L 45.8 132.9 L 45.01026382446289 128.26688137054444 L 44.8 128.5 L 39.8 133.2 L 34.4 137.5 L 28.5 141.4 L 22.2 144.8 L 15.4 147.7 L 14.5 146.2 L 20.1 141.6 L 25.3 137.1 L 30.1 132.5 L 34.5 127.8 L 38.4 122.9 L 41.9 117.9 L 45.1 112.7 L 47.8 107.3 L 50.0 101.7 L 51.650828170776364 96.91259841918945 L 51.6 96.9 L 52.5 94.5 L 63.3 99.8 L 65.5 102.7 L 61.67934780120849 103.5043478012085 L 60.5 106.2 L 57.3 112.3 L 53.5 118.0 L 52.74074077606201 119.0 L 98.0 119.0 L 108.0 109.0 L 120.0 119.0 L 120.0 123.0 L 97.51818180084229 123.0 L 94.1 132.4 L 89.3 141.5 L 83.4 150.0 L 76.4 157.6 L 75.30070104599 158.54814529418945 L 76.0 159.0 L 83.3 162.5 L 91.4 165.4 L 100.3 167.7 L 110.1 169.4 L 119.7 171.1 L 107.8 182.5 L 97.2 179.9 Z M 49.70370368957519 123.0 L 49.4 123.4 L 47.1342134475708 125.91206769943237 L 49.7 131.4 L 53.8 138.4 L 58.4 144.6 L 63.6 150.0 L 67.62523365020752 153.2747663497925 L 69.7 151.2 L 75.4 144.0 L 80.0 136.3 L 83.5 128.1 L 85.08028173446655 123.0 Z M 15.3 88.4 L 19.9 88.0 L 23.9 87.51999998092651 L 23.9 35.3 L 34.9 37.3 L 37.7 39.3 L 34.9 41.05 L 34.9 86.2 L 35.7 86.1 L 41.5 85.3 L 43.6 84.99016389846801 L 43.6 13.7 L 54.6 15.7 L 57.3 17.7 L 54.6 19.423404216766357 L 54.6 46.6 L 58.577777767181395 46.6 L 64.8 39.6 L 72.8 46.6 L 72.8 50.6 L 54.6 50.6 L 54.6 83.32058820724487 L 60.8 82.5 L 67.8 81.5 L 75.3 80.7 L 75.7 82.5 L 68.8 85.2 L 62.0 87.7 L 55.5 89.8 L 49.3 91.8 L 43.3 93.6 L 37.5 95.2 L 32.0 96.6 L 26.8 98.0 L 21.8 99.2 L 21.204152965545653 99.32677593231202 L 19.5 102.9 L 17.1 100.2 L 13.3 88.7 Z M 116.3 66.6 L 118.3 66.6 L 116.3 87.6 L 119.6 89.8 L 121.8 93.1 L 119.6 96.4 L 116.3 98.6 L 91.8 98.6 L 89.3 98.5 L 86.9 98.1 L 84.5 97.4 L 82.3 96.2 L 80.3 94.6 L 78.6 92.7 L 77.4 90.5 L 76.5 88.1 L 76.0 85.6 L 75.8 83.1 L 75.8 15.9 L 87.8 17.9 L 90.8 19.9 L 87.8 21.7 L 87.8 48.725 L 90.1 47.0 L 92.9 44.8 L 95.6 42.6 L 101.0 38.0 L 106.2 33.0 L 108.06489124298096 31.063382148742676 L 108.0 31.0 L 108.9 30.2 L 116.6 39.4 L 117.1 42.9 L 113.34260358810425 41.67030658721924 L 113.3 41.7 L 110.0 43.8 L 106.6 45.8 L 103.2 47.6 L 99.8 49.3 L 96.3 50.8 L 92.8 52.1 L 89.3 53.2 L 87.8 53.53333330154419 L 87.8 83.1 L 87.9 84.3 L 88.0 85.2 L 88.1 85.9 L 88.4 86.5 L 88.6 86.7 L 89.0 87.0 L 89.6 87.2 L 90.6 87.5 L 91.8 87.6 L 110.8 87.6 Z M 148.9 17.6 L 151.6 20.0 L 148.2051869392395 21.537273788452147 L 147.7 24.4 L 146.2 31.4 L 144.5 38.4 L 142.6 45.5 L 140.4 52.7 L 139.97837839126586 54.0 L 170.5 54.0 L 176.5 49.0 L 187.5 58.0 L 182.5 61.0 L 180.6556420326233 61.768482494354245 L 180.6 61.9 L 179.4 64.8 L 177.9 67.9 L 176.2 71.3 L 174.3 75.0 L 172.1 78.9 L 169.6 83.1 L 166.8 87.5 L 163.9 92.3 L 162.3 91.6 L 164.0 86.3 L 165.4 81.3 L 166.7 76.7 L 167.8 72.4 L 168.8 68.6 L 169.6 65.1 L 170.1 62.0 L 170.5 59.2 L 170.5 58.0 L 138.68108110427858 58.0 L 138.0 60.1 L 135.3 67.5 L 132.3 75.1 L 128.9 82.6 L 125.1 90.3 L 123.4 89.6 L 125.3 81.4 L 127.2 73.4 L 129.0 65.6 L 130.7 58.0 L 132.2 50.6 L 133.5 43.4 L 134.7 36.4 L 135.6 29.5 L 136.4 22.8 L 136.9087640762329 17.203595542907713 L 136.8 17.2 L 137.2 14.2 Z " />
</g>
</svg>
