<svg xmlns="http://www.w3.org/2000/svg" xmlns:xlink="http://www.w3.org/1999/xlink" version="1.1" baseProfile="full" viewBox="0 0 200 200" width="200" height="200">
<g fill="black">
<path d="M 40.8 139.9 L 38.4 145.5 L 36.2 150.5 L 34.3 154.8 L 32.8 158.6 L 31.6 161.8 L 30.7 164.4 L 30.3 166.3 L 30.24581003189087 166.841899394989 L 31.0 168.3 L 32.1 171.6 L 32.8 175.2 L 33.1 179.0 L 30.9 183.0 L 26.5 184.4 L 22.5 182.2 L 21.1 177.9 L 21.7 175.3 L 21.9 172.9 L 22.0 170.7 L 21.8 168.8 L 21.4 166.9 L 20.6 165.1 L 19.901884460449217 163.9576292037964 L 18.8 163.6 L 19.171794891357422 162.9307692527771 L 17.9 161.5 L 15.9 159.7 L 13.3 158.6 L 13.7 156.8 L 16.8 157.5 L 19.8 158.1 L 21.75241231918335 158.8405701637268 L 22.8 157.3 L 24.8 154.4 L 27.1 150.9 L 29.8 146.9 L 32.9 142.4 L 36.5 137.4 L 40.5 132.0 L 44.9 126.0 L 46.5 126.9 L 45.08823528289795 130.1 L 67.4 130.1 L 67.4 117.2 L 49.7 117.2 L 49.7 113.2 L 67.4 113.2 L 67.4 100.1 L 79.4 102.1 L 82.4 104.1 L 79.4 105.9 L 79.4 113.2 L 81.7 113.2 L 86.2 107.2 L 91.05377359390259 112.05377359390259 L 92.2 110.5 L 96.4 104.1 L 96.44372787475587 104.1300353050232 L 96.9 103.4 L 106.3 110.9 L 107.7 114.2 L 103.91224489212036 114.00408163070679 L 101.3 117.4 L 95.9 123.5 L 90.2 129.3 L 89.30943393707275 130.1 L 92.91818180084229 130.1 L 101.1 121.1 L 111.1 130.1 L 111.1 134.1 L 84.85660381317139 134.1 L 84.3 134.6 L 78.1 139.5 L 71.6 144.1 L 71.43000001907349 144.2 L 91.0 144.2 L 97.0 139.2 L 108.0 148.2 L 103.0 152.2 L 103.0 180.1 L 91.0 186.1 L 91.0 178.1 L 65.6 178.1 L 65.6 181.1 L 53.6 187.1 L 53.6 153.5027027130127 L 50.4 154.8 L 42.8 157.3 L 42.1 155.7 L 48.7 151.5 L 53.6 148.13125 L 53.6 138.2 L 61.668874168395995 142.234437084198 L 67.1 138.0 L 71.46800003051757 134.1 L 43.32580642700195 134.1 Z M 174.2 180.2 L 172.5 182.0 L 170.6 183.6 L 168.6 184.9 L 166.5 186.0 L 164.2 186.9 L 161.8 187.5 L 159.4 187.8 L 156.9 188.0 L 156.9 182.0 L 136.9 179.0 L 136.9 176.0 L 156.9 176.0 L 158.3 175.9 L 159.5 175.7 L 160.6 175.4 L 161.6 175.1 L 162.5 174.6 L 163.4 174.0 L 164.2 173.3 L 164.9 172.5 L 165.7 171.5 L 166.4 170.3 L 167.0 169.0 L 167.6 166.7 L 168.3 163.7 L 168.8 159.8 L 169.3 155.2 L 169.7 150.0 L 169.9 144.0 L 170.1 137.4 L 170.1 131.9583333015442 L 170.0 132.0 L 170.0 124.0 L 128.5 124.0 L 116.5 130.0 L 116.5 30.0 L 128.5 36.0 L 139.05652170181276 36.0 L 139.3 35.3 L 139.5 32.8 L 139.8 30.3 L 140.4 25.5 L 140.7 23.0 L 141.3 18.2 L 141.5 15.8 L 141.67609338760377 14.332555103302003 L 141.5 14.3 L 142.2 11.7 L 153.4 16.5 L 155.7 19.2 L 151.52043800354005 20.394160556793214 L 149.9 23.5 L 148.7 25.7 L 147.4 27.9 L 146.0 30.1 L 144.6 32.2 L 143.1 34.2 L 141.56999998092653 36.0 L 161.6 36.0 L 167.6 31.0 L 178.6 40.0 L 173.6 44.0 L 173.6 86.0 L 161.6 92.0 L 161.6 84.0 L 128.5 84.0 L 128.5 100.0 L 164.9181818008423 100.0 L 173.1 91.0 L 183.1 100.0 L 183.1 104.0 L 128.5 104.0 L 128.5 120.0 L 170.0 120.0 L 176.0 115.0 L 187.0 124.0 L 182.0629539489746 126.96222763061523 L 182.1 130.0 L 182.1 137.5 L 181.9 144.4 L 181.7 150.6 L 181.3 156.3 L 180.8 161.3 L 180.1 165.7 L 179.3 169.6 L 178.3 173.0 L 176.9 176.1 L 175.6 178.2 Z M 65.6 163.2 L 65.6 174.1 L 91.0 174.1 L 91.0 163.2 Z M 111.4 174.3 L 109.3 170.2 L 110.6 165.8 L 111.8 164.8 L 113.0 163.4 L 114.2 161.5 L 115.3 159.1 L 116.3 156.3 L 117.2 153.0 L 118.0 149.4 L 118.7 145.3 L 119.3 140.9 L 119.5 136.0 L 121.3 135.9 L 122.1 140.7 L 123.0 145.3 L 123.6 149.6 L 123.9 153.6 L 124.0 157.5 L 123.8 161.1 L 123.3 164.5 L 122.5 167.7 L 121.4 170.7 L 119.8 173.5 L 115.7 175.6 Z M 132.3 169.9 L 128.7 167.2 L 127.9 162.7 L 128.5 161.4 L 129.1 159.8 L 129.6 158.0 L 130.0 156.0 L 130.3 153.7 L 130.5 151.2 L 130.5 145.5 L 130.4 142.4 L 129.7 139.2 L 131.4 138.6 L 132.7 141.7 L 134.2 144.5 L 135.6 147.3 L 136.7 150.1 L 137.7 152.7 L 138.4 155.4 L 139.0 157.9 L 139.4 160.4 L 139.6 162.9 L 139.6 165.4 L 136.8 169.1 Z M 143.2 153.0 L 143.4 151.1 L 143.4 147.4 L 143.2 145.5 L 142.9 143.7 L 142.5 141.8 L 142.0 139.9 L 140.8 138.3 L 142.1 137.0 L 143.7 138.5 L 145.5 139.7 L 147.2 141.2 L 148.8 143.0 L 150.2 144.9 L 151.4 147.0 L 152.4 149.3 L 153.3 151.7 L 154.0 154.3 L 154.5 157.0 L 152.7 161.2 L 148.5 163.0 L 144.3 161.2 L 142.5 157.0 L 142.9 154.9 Z M 65.6 148.2 L 65.6 159.2 L 91.0 159.2 L 91.0 148.2 Z M 156.8 144.8 L 156.7 143.5 L 156.4 142.2 L 156.0 140.8 L 155.3 139.3 L 154.5 137.8 L 153.4 136.2 L 151.8 135.2 L 152.7 133.6 L 154.5 134.5 L 156.6 135.0 L 158.5 135.8 L 160.4 136.7 L 162.1 138.0 L 163.7 139.4 L 165.1 141.1 L 166.4 143.0 L 167.4 145.0 L 168.2 147.3 L 166.9 151.7 L 163.0 153.9 L 158.6 152.6 L 156.3 148.7 L 156.6 147.4 Z M 22.2 135.6 L 21.8 134.7 L 21.2 133.8 L 20.3 132.7 L 19.2 131.5 L 17.8 130.4 L 16.3 129.1 L 14.5 127.8 L 12.3 127.1 L 12.8 125.4 L 15.1 125.9 L 17.4 125.8 L 19.5 125.9 L 21.5 126.1 L 23.5 126.4 L 25.3 126.8 L 27.0 127.3 L 28.7 127.9 L 30.3 128.8 L 31.8 129.9 L 32.8 134.4 L 30.4 138.3 L 25.9 139.2 L 22.0 136.8 L 22.2 136.3 Z M 79.4 117.2 L 79.4 126.26000003814697 L 83.0 122.3 L 87.20526313781738 117.2 Z M 30.3 114.1 L 29.9 113.1 L 29.3 112.1 L 28.4 111.0 L 27.4 109.9 L 26.1 108.7 L 24.7 107.5 L 23.0 106.2 L 21.1 105.5 L 21.6 103.8 L 23.7 104.3 L 25.8 104.3 L 27.9 104.4 L 29.8 104.5 L 31.7 104.8 L 33.4 105.2 L 35.1 105.7 L 36.8 106.4 L 38.3 107.2 L 39.9 108.2 L 41.0 112.6 L 38.8 116.6 L 34.3 117.7 L 30.3 115.5 L 30.4 114.9 Z M 91.7 96.5 L 87.3 93.3 L 83.62994747161865 90.00636310577393 L 78.7 92.8 L 72.2 95.7 L 65.0 98.1 L 57.4 99.8 L 49.1 100.8 L 48.8 99.1 L 56.3 96.1 L 63.2 93.0 L 69.4 89.8 L 74.9 86.3 L 78.10712013244628 83.76102991104126 L 76.7 81.9 L 74.1 77.6 L 72.0 73.0 L 70.4 68.2 L 69.64399995803834 64.0 L 66.0 64.0 L 61.0 67.0 L 58.6474308013916 67.98023719787598 L 58.0 69.3 L 55.0 74.3 L 52.0273998260498 78.09832248687744 L 54.2 79.5 L 57.0 81.5 L 59.6 83.8 L 60.9 88.2 L 58.9 92.2 L 54.5 93.6 L 50.4 91.5 L 49.1 89.5 L 47.4 87.5 L 45.3 85.3 L 45.094392490386966 85.11152648925781 L 42.8 87.1 L 37.8 90.7 L 32.4 93.8 L 26.5 96.6 L 20.1 99.0 L 13.3 100.8 L 12.6 99.1 L 18.5 95.5 L 23.9 91.9 L 28.8 88.3 L 33.2 84.6 L 37.1 80.8 L 38.2646409034729 79.4640884399414 L 37.1 78.6 L 33.7 76.3 L 30.0 74.0 L 26.0 71.5 L 21.6 69.1 L 22.2 67.4 L 27.1 68.6 L 31.8 69.7 L 36.2 71.0 L 40.4 72.5 L 42.91108884811401 73.49121923446656 L 43.4 72.8 L 45.8 68.7 L 47.8 64.4 L 47.93333330154419 64.0 L 18.0 64.0 L 18.0 60.0 L 49.0 60.0 L 55.0 55.0 L 59.05915489196777 58.321126747131345 L 58.7 57.1 L 63.8 54.0 L 68.7 50.9 L 73.2 47.6 L 77.3 44.2 L 80.65385313034058 40.934406185150145 L 80.6 40.9 L 76.8 38.5 L 72.8 36.1 L 68.8 33.6 L 64.6 31.1 L 65.2 29.5 L 70.0 30.5 L 74.8 31.6 L 79.3 32.9 L 83.7 34.4 L 85.71727838516236 35.168486976623534 L 87.8 32.5 L 90.7 28.0 L 93.3 23.3 L 93.43199996948242 23.0 L 64.0 23.0 L 59.0 26.0 L 56.494252872467044 27.044061279296876 L 55.5 28.9 L 52.3 34.1 L 49.42445306777954 38.043607234954834 L 51.8 39.6 L 54.5 41.7 L 56.9 43.9 L 58.0 48.3 L 55.8 52.3 L 51.4 53.5 L 47.4 51.2 L 46.2 49.3 L 44.8 47.4 L 43.0 45.4 L 42.9259259223938 45.3222222328186 L 41.0 47.2 L 36.7 50.6 L 32.2 53.5 L 27.4 55.9 L 22.4 57.7 L 17.3 58.8 L 16.6 57.1 L 20.8 54.2 L 24.7 51.3 L 28.3 48.2 L 31.7 44.8 L 34.9 41.2 L 36.15136985778808 39.56027393341064 L 35.8 39.3 L 32.7 37.2 L 29.4 35.1 L 25.7 33.0 L 21.6 31.1 L 22.2 29.4 L 26.6 30.3 L 31.0 31.0 L 35.0 32.0 L 38.8 33.2 L 40.25074625015259 33.7238805770874 L 40.6 33.2 L 43.1 28.6 L 45.4 23.8 L 45.707692337036136 23.0 L 18.0 23.0 L 18.0 19.0 L 47.0 19.0 L 47.36226415634155 18.698113250732423 L 47.4 18.6 L 47.45304660797119 18.622461128234864 L 53.0 14.0 L 62.0 21.36363639831543 L 62.0 19.0 L 95.0 19.0 L 95.30315790176391 18.74736843109131 L 95.5 18.3 L 95.71471614837647 18.40440320968628 L 101.0 14.0 L 112.0 23.0 L 107.0 26.0 L 104.22732915878296 27.155279541015624 L 103.1 29.0 L 99.5 34.1 L 95.6 38.8 L 95.30562343597413 39.087530517578124 L 96.0 39.4 L 99.8 41.3 L 103.5 43.3 L 107.0 45.3 L 109.4 49.2 L 108.4 53.7 L 104.5 56.1 L 100.16779661178589 55.137288093566895 L 111.0 64.0 L 106.0 67.0 L 103.74594593048096 67.93918914794922 L 102.8 70.0 L 99.2 75.7 L 95.0 80.8 L 92.15709638595581 83.46522207260132 L 93.5 84.3 L 97.6 86.3 L 101.8 88.2 L 106.4 89.8 L 113.0 92.5 L 101.5 102.1 L 96.4 99.4 Z M 128.5 62.0 L 128.5 80.0 L 161.6 80.0 L 161.6 62.0 Z M 72.14102563858032 64.0 L 74.0 66.5 L 76.9 70.2 L 79.8 73.5 L 82.9 76.6 L 84.4134316444397 77.84635543823242 L 87.3 74.3 L 90.2 69.8 L 92.5 65.1 L 92.88823528289795 64.0 Z M 86.8 46.9 L 81.9 50.3 L 76.6 53.2 L 71.1 55.7 L 65.3 57.5 L 59.552601146697995 58.724855518341066 L 64.0 62.36363639831543 L 64.0 60.0 L 94.0 60.0 L 99.94084510803222 55.049295806884764 L 97.2 52.7 L 94.2 50.3 L 91.0 47.9 L 88.03255815505982 45.83178291320801 Z M 128.5 40.0 L 128.5 58.0 L 161.6 58.0 L 161.6 40.0 Z " />
</g>
</svg>
