<svg xmlns="http://www.w3.org/2000/svg" xmlns:xlink="http://www.w3.org/1999/xlink" version="1.1" baseProfile="full" viewBox="0 0 200 200" width="200" height="200">
<g fill="black">
<path d="M 165.8 169.7 L 162.2 162.2 L 159.0 154.0 L 156.3 145.0 L 154.1 135.2 L 152.5 124.8 L 151.7807692527771 117.47692308425903 L 151.4 119.9 L 148.5 132.8 L 144.7 144.8 L 140.2 155.6 L 134.9 165.4 L 128.8 174.1 L 121.8 181.5 L 114.1 187.6 L 113.0 186.3 L 119.0 179.0 L 124.4 171.0 L 129.1 162.3 L 133.2 152.7 L 136.6 142.1 L 139.4 130.7 L 141.5 118.2 L 142.9 104.8 L 143.7 90.4 L 143.7 67.0 L 155.7 69.0 L 158.7 71.0 L 155.7 72.8 L 155.7 75.0 L 155.1 90.9 L 154.51019105911254 96.79808921813965 L 155.2 101.3 L 157.2 112.8 L 159.6 123.5 L 162.2 133.2 L 165.2 142.2 L 168.6 150.2 L 172.1 157.4 L 176.0 163.6 L 179.9 169.0 L 184.1 173.5 L 185.1 174.6 L 174.4 182.4 L 169.9 176.5 Z M 44.8 140.1 L 41.9 145.7 L 39.3 150.7 L 37.1 155.1 L 35.3 158.9 L 33.8 162.1 L 32.8 164.7 L 32.213580226898195 166.45925922393798 L 33.2 168.2 L 34.4 171.5 L 35.2 175.2 L 35.4 179.1 L 33.1 183.1 L 28.8 184.4 L 24.8 182.2 L 23.4 177.8 L 24.0 175.3 L 24.3 173.0 L 24.3 170.9 L 24.0 169.0 L 23.4 167.1 L 22.4 165.3 L 21.0 163.4 L 20.954003429412843 163.3586030960083 L 20.8 163.3 L 20.83333330154419 163.25 L 19.0 161.6 L 16.6 159.8 L 13.4 158.6 L 13.8 156.8 L 17.4 157.5 L 20.7 158.0 L 23.740993785858155 159.04534158706664 L 25.2 157.1 L 27.4 154.1 L 30.1 150.7 L 33.1 146.7 L 36.6 142.2 L 40.6 137.3 L 50.1 125.9 L 51.6 126.9 L 49.93043479919434 130.1 L 76.7 130.1 L 76.7 117.2 L 55.4 117.2 L 55.4 113.2 L 76.7 113.2 L 76.7 100.1 L 88.7 102.1 L 91.7 104.1 L 88.7 105.9 L 88.7 113.2 L 93.9 113.2 L 98.4 107.2 L 103.50530977249146 112.30530977249146 L 105.3 110.2 L 109.77391300201415 104.35652170181274 L 110.6 103.2 L 119.6 111.2 L 120.8 114.6 L 117.01866159439086 114.1436315536499 L 113.9 117.7 L 107.7 123.8 L 101.3 129.5 L 100.53018865585327 130.1 L 111.77777776718139 130.1 L 118.0 123.1 L 126.0 130.1 L 126.0 134.1 L 95.39811325073242 134.1 L 94.5 134.8 L 87.5 139.7 L 80.1 144.2 L 103.8 144.2 L 109.8 139.2 L 120.8 148.2 L 115.8 152.2 L 115.8 178.1 L 103.8 184.1 L 103.8 178.1 L 72.8 178.1 L 72.8 181.1 L 60.8 187.1 L 60.8 153.12857141494752 L 56.0 154.9 L 47.4 157.4 L 46.7 155.7 L 54.5 151.4 L 60.8 147.7039999961853 L 60.8 138.2 L 69.2839506149292 142.4419753074646 L 76.0 137.8 L 80.81000003814697 134.1 L 47.84761905670166 134.1 Z M 72.8 163.2 L 72.8 174.1 L 103.8 174.1 L 103.8 163.2 Z M 72.8 148.2 L 72.8 159.2 L 103.8 159.2 L 103.8 148.2 Z M 24.5 135.9 L 24.0 135.0 L 23.1 133.9 L 22.0 132.8 L 20.6 131.6 L 18.9 130.4 L 17.0 129.2 L 14.9 127.8 L 12.4 127.1 L 12.8 125.3 L 15.4 125.8 L 20.4 125.8 L 22.7 126.0 L 24.9 126.3 L 26.9 126.7 L 28.8 127.1 L 30.6 127.8 L 32.3 128.6 L 34.0 129.7 L 35.2 134.1 L 33.1 138.2 L 28.7 139.4 L 24.7 137.3 L 24.8 136.7 Z M 88.7 117.2 L 88.7 127.6 L 94.5 122.1 L 99.2310344696045 117.2 Z M 33.9 114.4 L 33.3 113.4 L 32.4 112.3 L 31.3 111.2 L 30.0 110.0 L 28.4 108.8 L 26.7 107.6 L 24.7 106.2 L 22.4 105.5 L 22.9 103.7 L 25.3 104.2 L 27.7 104.2 L 30.0 104.3 L 32.2 104.5 L 34.3 104.7 L 36.2 105.1 L 38.1 105.6 L 39.9 106.2 L 41.6 107.0 L 43.2 108.0 L 44.7 112.3 L 42.7 116.5 L 38.4 117.9 L 34.3 116.0 L 34.2 115.2 Z M 100.0 96.6 L 95.2 93.5 L 90.8 90.0 L 90.63812007904053 89.84621410369873 L 84.8 92.9 L 77.8 95.8 L 70.1 98.1 L 61.9 99.8 L 53.1 100.8 L 52.8 99.1 L 60.9 96.1 L 68.4 93.0 L 75.2 89.7 L 81.2 86.2 L 84.59203586578369 83.81301174163818 L 83.1 82.2 L 80.0 77.9 L 77.2 73.3 L 75.1 68.4 L 73.8307692527771 64.0 L 70.0 64.0 L 65.0 67.0 L 62.462096786499025 68.05745964050293 L 61.7 69.5 L 58.4 74.5 L 55.4870267868042 77.93581457138062 L 58.0 79.3 L 61.2 81.4 L 64.1 83.6 L 65.8 87.8 L 64.1 92.1 L 59.8 93.8 L 55.6 92.1 L 53.8 90.0 L 51.7 87.8 L 49.2 85.6 L 48.18125848770141 84.82716159820556 L 45.2 87.2 L 39.8 90.7 L 33.9 93.9 L 27.5 96.7 L 20.6 99.0 L 13.3 100.8 L 12.6 99.1 L 19.1 95.5 L 25.1 91.9 L 30.5 88.2 L 35.4 84.5 L 39.7 80.7 L 40.70993947982788 79.63690576553344 L 39.4 78.8 L 35.5 76.5 L 31.2 74.1 L 26.6 71.6 L 21.6 69.1 L 22.2 67.4 L 27.7 68.5 L 32.9 69.5 L 37.9 70.8 L 42.5 72.3 L 46.042526721954346 73.61814947128296 L 46.8 72.7 L 49.5 68.5 L 51.7 64.2 L 51.775555515289305 64.0 L 19.0 64.0 L 19.0 60.0 L 53.0 60.0 L 59.0 55.0 L 63.05915489196777 58.321126747131345 L 62.7 57.1 L 68.5 54.0 L 73.9 50.8 L 79.0 47.6 L 83.7 44.1 L 87.3983606338501 40.99001493453979 L 83.2 38.7 L 78.7 36.3 L 74.2 33.8 L 69.6 31.1 L 70.2 29.4 L 75.5 30.3 L 80.6 31.4 L 85.6 32.7 L 90.5 34.2 L 93.21111106872559 35.1037036895752 L 95.7 32.2 L 99.0 27.8 L 102.0 23.0 L 68.0 23.0 L 63.0 26.0 L 60.11235055923462 27.203187274932862 L 58.9 29.2 L 55.3 34.4 L 52.4672947883606 37.88640642166138 L 55.1 39.5 L 58.0 41.5 L 60.6 43.8 L 61.9 48.2 L 59.9 52.2 L 55.5 53.6 L 51.4 51.5 L 50.1 49.6 L 48.5 47.6 L 46.4 45.6 L 45.606896591186526 44.8758620262146 L 42.8 47.3 L 38.2 50.7 L 33.3 53.6 L 28.1 55.9 L 22.8 57.7 L 17.2 58.8 L 16.7 57.1 L 21.3 54.2 L 25.6 51.2 L 29.7 48.1 L 33.5 44.7 L 37.1 41.1 L 38.454253578186034 39.49951848983765 L 38.3 39.4 L 34.9 37.3 L 31.2 35.2 L 27.1 33.0 L 22.7 31.1 L 23.2 29.4 L 28.0 30.2 L 32.7 30.9 L 37.1 31.9 L 41.2 33.1 L 42.93812503814697 33.67937498092651 L 43.5 32.9 L 46.4 28.4 L 49.1 23.5 L 49.340384578704835 23.0 L 19.0 23.0 L 19.0 19.0 L 51.0 19.0 L 51.43957223892212 18.633689880371094 L 51.6 18.3 L 51.75052757263184 18.374560356140137 L 57.0 14.0 L 67.0 22.181818199157714 L 67.0 19.0 L 104.0 19.0 L 104.29090909957885 18.75757579803467 L 104.7 18.0 L 104.99863481521606 18.167804336547853 L 110.0 14.0 L 121.0 23.0 L 116.0 26.0 L 112.86652269363404 27.305615520477296 L 111.5 29.3 L 107.5 34.4 L 103.27248964309692 38.81966991424561 L 104.5 39.3 L 108.9 41.2 L 113.2 43.2 L 117.4 45.3 L 120.1 48.9 L 119.5 53.5 L 115.8 56.2 L 111.3 55.6 L 107.6 53.1 L 103.9 50.7 L 100.0 48.3 L 95.27070455551147 45.53163194656372 L 93.3 47.0 L 87.9 50.4 L 82.2 53.3 L 76.2 55.7 L 69.9 57.5 L 63.559249305725096 58.73029489517212 L 69.0 63.18181819915772 L 69.0 60.0 L 103.0 60.0 L 109.0 55.0 L 120.0 64.0 L 115.0 67.0 L 112.39894180297851 68.0837742805481 L 111.2 70.3 L 107.2 75.9 L 102.5 81.0 L 99.74175243377685 83.3419083595276 L 101.1 84.1 L 105.5 86.2 L 110.2 88.1 L 115.2 89.8 L 122.2 92.3 L 110.7 102.1 L 105.2 99.5 Z M 148.9 17.6 L 151.6 20.0 L 148.2051869392395 21.537273788452147 L 147.7 24.4 L 146.2 31.4 L 144.5 38.4 L 142.6 45.5 L 140.4 52.7 L 139.97837839126586 54.0 L 170.5 54.0 L 176.5 49.0 L 187.5 58.0 L 182.5 61.0 L 180.6556420326233 61.768482494354245 L 180.6 61.9 L 179.4 64.8 L 177.9 67.9 L 176.2 71.3 L 174.3 75.0 L 172.1 78.9 L 169.6 83.1 L 166.8 87.5 L 163.9 92.3 L 162.3 91.6 L 164.0 86.3 L 165.4 81.3 L 166.7 76.7 L 167.8 72.4 L 168.8 68.6 L 169.6 65.1 L 170.1 62.0 L 170.5 59.2 L 170.5 58.0 L 138.68108110427858 58.0 L 138.0 60.1 L 135.3 67.5 L 132.3 75.1 L 128.9 82.6 L 125.1 90.3 L 123.4 89.6 L 125.3 81.4 L 127.2 73.4 L 129.0 65.6 L 130.7 58.0 L 132.2 50.6 L 133.5 43.4 L 134.7 36.4 L 135.6 29.5 L 136.4 22.8 L 136.9087640762329 17.203595542907713 L 136.8 17.2 L 137.2 14.2 Z M 76.63589744567871 64.0 L 78.7 66.3 L 82.0 69.8 L 85.5 73.2 L 89.1 76.3 L 91.50501089096069 78.07211332321167 L 95.2 74.1 L 98.5 69.6 L 101.3 64.8 L 101.62941179275512 64.0 Z " />
</g>
</svg>
