<svg xmlns="http://www.w3.org/2000/svg" xmlns:xlink="http://www.w3.org/1999/xlink" version="1.1" baseProfile="full" viewBox="0 0 200 200" width="200" height="200">
<g fill="black">
<path d="M 175.0 90.0 L 178.0 92.0 L 175.0 93.8 L 175.0 182.0 L 163.0 188.0 L 163.0 88.0 Z M 148.8 158.2 L 147.3 155.5 L 145.5 152.7 L 143.5 150.0 L 141.3 147.2 L 138.7 144.5 L 135.9 141.7 L 134.4 140.3 L 134.4 182.0 L 122.4 188.0 L 122.4 146.41999998092652 L 119.2 151.3 L 115.0 156.9 L 110.7 162.0 L 106.1 166.6 L 101.3 170.6 L 96.3 174.0 L 91.1 176.7 L 90.0 175.2 L 93.9 171.1 L 97.6 166.7 L 101.2 162.2 L 104.7 157.3 L 108.1 152.0 L 111.3 146.4 L 114.4 140.4 L 117.3 133.9 L 120.1 127.1 L 120.87671232223511 125.0 L 97.6 125.0 L 97.6 121.0 L 122.35616436004639 121.0 L 122.4 120.88148145675659 L 122.4 77.0 L 87.1 77.0 L 87.1 73.0 L 122.4 73.0 L 122.4 55.0 L 72.4 55.0 L 72.4 51.0 L 122.4 51.0 L 122.4 35.0 L 88.5 35.0 L 88.5 31.0 L 122.4 31.0 L 122.4 13.0 L 134.4 15.0 L 137.4 17.0 L 134.4 18.8 L 134.4 31.0 L 156.0 31.0 L 162.0 26.0 L 173.0 35.0 L 168.0 39.0 L 168.0 51.0 L 172.9777777671814 51.0 L 179.2 44.0 L 187.2 51.0 L 187.2 55.0 L 168.0 55.0 L 168.0 77.0 L 156.0 83.0 L 156.0 77.0 L 134.4 77.0 L 134.4 121.0 L 140.0 121.0 L 150.0 111.0 L 162.0 121.0 L 162.0 125.0 L 134.4 125.0 L 134.4 136.25853662490846 L 134.5 136.3 L 138.5 137.9 L 142.2 139.9 L 145.7 142.0 L 149.0 144.3 L 152.1 146.8 L 154.9 149.5 L 157.5 152.4 L 159.8 155.5 L 161.9 158.7 L 162.1 163.3 L 159.0 166.7 L 154.5 166.8 L 151.0 163.8 L 150.0 161.0 Z M 94.5 138.3 L 93.5 146.0 L 92.1 153.2 L 90.3 159.9 L 88.1 166.0 L 85.5 171.7 L 82.5 176.7 L 79.0 181.1 L 75.1 184.8 L 70.8 187.6 L 69.7 186.3 L 72.3 182.2 L 74.6 178.0 L 76.7 173.5 L 78.5 168.6 L 80.0 163.4 L 81.3 157.6 L 82.2 151.4 L 82.8 144.7 L 83.2 137.5 L 83.2 86.0 L 95.2 88.0 L 98.2 90.0 L 95.2 91.8 L 95.2 130.0 L 95.09589042663575 130.15616436004638 Z M 51.4 18.9 L 53.5 21.8 L 49.332240390777585 22.51857919692993 L 48.2 24.5 L 46.5 27.4 L 44.6 30.3 L 42.6 33.2 L 40.5 36.1 L 38.2 39.0 L 35.8 42.0 L 33.2 44.9 L 32.71612901687622 45.5 L 53.9 45.5 L 59.9 40.5 L 70.9 49.5 L 65.9 53.5 L 65.9 93.1 L 53.9 99.1 L 53.9 87.1 L 26.2 87.1 L 26.2 113.8 L 56.3 113.8 L 62.3 108.8 L 73.3 117.8 L 68.3 121.8 L 68.3 164.4 L 56.3 170.4 L 56.3 160.4 L 26.2 160.4 L 26.2 172.4 L 14.2 178.4 L 14.2 39.5 L 26.2 45.5 L 29.86666669845581 45.5 L 30.8 43.4 L 32.0 39.8 L 33.3 36.3 L 34.5 32.9 L 35.7 29.6 L 36.8 26.4 L 37.7 23.3 L 38.6 20.3 L 39.5 17.4 L 39.9630521774292 15.54779119491577 L 39.8 15.5 L 40.7 13.2 Z M 26.2 117.8 L 26.2 156.4 L 56.3 156.4 L 56.3 117.8 Z M 156.8 93.8 L 158.4 97.1 L 154.17272729873656 97.1 L 153.4 98.1 L 149.6 102.7 L 147.6 105.1 L 145.5 107.6 L 143.3 110.2 L 140.9 112.8 L 138.4 115.5 L 136.1 118.4 L 134.6 117.5 L 136.1 114.1 L 137.3 110.6 L 138.6 107.4 L 139.8 104.2 L 141.0 101.2 L 142.2 98.3 L 143.4 95.5 L 144.4 92.8 L 145.5 90.3 L 146.11775703430175 88.75560750961304 L 146.0 88.7 L 147.0 86.9 Z M 108.6 107.8 L 108.2 105.8 L 107.6 103.7 L 106.9 101.7 L 106.1 99.6 L 104.1 95.4 L 102.9 93.1 L 101.2 91.3 L 102.4 89.9 L 104.5 91.5 L 106.8 92.7 L 109.0 94.2 L 111.1 95.8 L 113.0 97.6 L 114.8 99.5 L 116.5 101.5 L 118.0 103.7 L 119.4 106.0 L 120.6 108.4 L 120.1 112.9 L 116.6 115.8 L 112.1 115.3 L 109.1 111.8 L 108.9 109.8 Z M 26.2 49.5 L 26.2 83.1 L 53.9 83.1 L 53.9 49.5 Z M 134.4 55.0 L 134.4 73.0 L 156.0 73.0 L 156.0 55.0 Z M 134.4 35.0 L 134.4 51.0 L 156.0 51.0 L 156.0 35.0 Z " />
</g>
</svg>
