<svg xmlns="http://www.w3.org/2000/svg" xmlns:xlink="http://www.w3.org/1999/xlink" version="1.1" baseProfile="full" viewBox="0 0 200 200" width="200" height="200">
<g fill="black">
<path d="M 75.2 177.6 L 67.8 173.2 L 61.2 168.0 L 59.63500003814697 166.43500003814697 L 54.5 170.4 L 45.7 175.8 L 36.1 180.3 L 25.6 184.0 L 14.2 186.8 L 13.7 185.1 L 24.2 180.5 L 33.7 175.5 L 42.3 170.2 L 49.9 164.4 L 54.06291179656982 160.42631149291992 L 50.5 155.7 L 46.5 148.7 L 43.4 141.0 L 41.3 132.8 L 40.85246057510376 128.9064066886902 L 37.1 133.0 L 32.3 137.3 L 27.1 141.3 L 21.5 144.7 L 15.4 147.7 L 14.5 146.2 L 19.2 141.7 L 23.6 137.2 L 27.7 132.6 L 31.4 128.0 L 34.7 123.1 L 37.7 118.2 L 40.3 113.0 L 42.5 107.6 L 44.4 102.1 L 45.639491176605226 97.30730085372925 L 45.6 97.3 L 46.4 94.6 L 57.5 99.5 L 59.8 102.3 L 56.075930500030516 103.29751863479615 L 55.1 105.9 L 52.3 112.0 L 49.1 117.7 L 48.24909086227417 119.0 L 83.0 119.0 L 93.0 109.0 L 105.0 119.0 L 105.0 123.0 L 87.5785714149475 123.0 L 84.7 132.1 L 80.5 141.2 L 75.4 149.7 L 69.4 157.3 L 67.09489793777466 159.60510206222534 L 67.6 160.0 L 73.6 163.8 L 80.3 166.9 L 87.6 169.5 L 95.6 171.5 L 104.1 173.7 L 92.3 184.4 L 83.4 181.3 Z M 173.4 180.4 L 171.7 182.1 L 169.8 183.7 L 167.8 185.0 L 165.6 186.1 L 163.3 186.9 L 160.9 187.5 L 158.5 187.8 L 156.0 188.0 L 156.0 182.0 L 136.0 179.0 L 136.0 176.0 L 156.0 176.0 L 157.4 175.9 L 158.7 175.7 L 160.9 175.1 L 161.8 174.6 L 162.7 174.0 L 163.5 173.3 L 164.3 172.5 L 165.1 171.5 L 165.9 170.3 L 166.5 169.0 L 167.2 166.7 L 167.9 163.6 L 168.5 159.8 L 169.0 155.2 L 169.4 150.0 L 169.7 144.0 L 169.9 137.4 L 169.9 131.9583333015442 L 169.8 132.0 L 169.8 124.0 L 124.5 124.0 L 112.5 130.0 L 112.5 30.0 L 124.5 36.0 L 136.26666669845582 36.0 L 136.5 35.2 L 136.8 32.7 L 137.2 30.3 L 137.6 27.8 L 138.0 25.4 L 138.3 22.9 L 138.7 20.5 L 139.3 15.7 L 139.47571144104003 14.235737895965576 L 139.3 14.2 L 139.5950819969177 13.240983581542968 L 139.6 13.2 L 139.60705089569092 13.202084636688232 L 140.1 11.6 L 151.1 16.6 L 153.4 19.3 L 149.24329900741577 20.41340208053589 L 148.8 21.3 L 147.5 23.6 L 144.9 28.0 L 143.4 30.2 L 142.0 32.3 L 140.4 34.3 L 138.87894735336303 36.0 L 160.8 36.0 L 166.8 31.0 L 177.8 40.0 L 172.8 44.0 L 172.8 86.0 L 160.8 92.0 L 160.8 84.0 L 124.5 84.0 L 124.5 100.0 L 165.21818180084227 100.0 L 173.4 91.0 L 183.4 100.0 L 183.4 104.0 L 124.5 104.0 L 124.5 120.0 L 169.8 120.0 L 175.8 115.0 L 186.8 124.0 L 181.86295394897462 126.96222763061523 L 181.9 130.0 L 181.9 137.5 L 181.7 144.4 L 181.4 150.7 L 181.0 156.3 L 180.4 161.4 L 179.7 165.9 L 178.8 169.8 L 177.7 173.3 L 176.3 176.4 L 174.9 178.5 Z M 106.6 174.2 L 104.7 170.0 L 106.2 165.7 L 107.4 164.7 L 108.7 163.3 L 109.9 161.4 L 111.1 159.0 L 112.1 156.2 L 113.1 153.0 L 113.9 149.4 L 114.6 145.3 L 115.2 140.9 L 115.4 136.0 L 117.2 135.9 L 118.0 140.7 L 118.9 145.3 L 119.5 149.6 L 119.8 153.7 L 119.8 157.5 L 119.5 161.2 L 118.9 164.6 L 118.1 167.8 L 116.8 170.9 L 115.1 173.7 L 111.0 175.6 Z M 129.0 169.9 L 125.4 167.1 L 124.7 162.6 L 125.4 161.3 L 126.0 159.8 L 126.5 158.0 L 126.9 156.0 L 127.1 153.7 L 127.3 151.2 L 127.3 148.5 L 127.2 145.6 L 127.0 142.4 L 126.2 139.2 L 127.9 138.6 L 129.3 141.7 L 130.9 144.5 L 132.3 147.3 L 133.5 150.0 L 134.5 152.7 L 135.2 155.3 L 135.8 157.9 L 136.2 160.5 L 136.4 163.0 L 136.3 165.5 L 133.6 169.1 Z M 141.0 153.0 L 141.2 151.1 L 141.2 149.3 L 141.1 147.4 L 140.9 145.6 L 140.6 143.7 L 139.4 139.9 L 138.2 138.3 L 139.4 137.0 L 141.1 138.4 L 143.0 139.7 L 144.8 141.2 L 146.4 142.9 L 147.8 144.8 L 149.1 146.9 L 150.2 149.2 L 151.1 151.6 L 151.9 154.2 L 152.4 157.0 L 150.6 161.2 L 146.4 163.0 L 142.2 161.2 L 140.4 157.0 L 140.8 155.0 Z M 155.5 146.2 L 155.5 144.9 L 155.4 143.6 L 155.1 142.3 L 154.5 140.8 L 153.8 139.4 L 152.8 137.8 L 151.6 136.2 L 149.9 135.2 L 150.7 133.6 L 152.7 134.4 L 154.8 134.9 L 156.9 135.7 L 158.8 136.7 L 160.6 137.9 L 162.3 139.3 L 163.8 141.0 L 165.1 142.9 L 166.2 145.0 L 167.1 147.2 L 165.8 151.6 L 161.9 153.9 L 157.5 152.7 L 155.2 148.7 L 155.4 147.5 Z M 45.630909061431886 123.0 L 45.5 123.2 L 43.06340951919556 126.24573802947998 L 45.3 131.6 L 48.8 138.7 L 52.7 145.0 L 57.1 150.7 L 60.177419376373294 153.7774193763733 L 62.2 151.4 L 67.0 144.3 L 70.9 136.6 L 73.9 128.4 L 75.21351346969604 123.0 Z M 102.1 66.6 L 104.1 66.6 L 102.1 87.6 L 105.4 89.8 L 107.6 93.1 L 105.4 96.4 L 102.1 98.6 L 82.4 98.6 L 79.9 98.5 L 77.5 98.1 L 75.1 97.4 L 72.8 96.2 L 70.8 94.6 L 69.2 92.7 L 67.9 90.5 L 67.1 88.1 L 66.6 85.6 L 66.4 83.1 L 66.4 82.86610174179077 L 61.3 85.2 L 55.5 87.7 L 50.0 89.8 L 44.6 91.7 L 39.5 93.5 L 34.6 95.1 L 29.9 96.6 L 25.4 97.9 L 21.243333339691162 99.06000003814697 L 19.6 102.8 L 17.1 100.2 L 13.0 88.7 L 15.0 88.4 L 19.0 88.0 L 22.3 87.5285714149475 L 22.3 35.3 L 32.3 37.3 L 34.8 39.3 L 32.3 40.96666669845581 L 32.3 86.11489362716675 L 32.4 86.1 L 37.4 85.3 L 39.2 84.99433965682984 L 39.2 13.7 L 49.2 15.7 L 51.7 17.7 L 49.2 19.36666669845581 L 49.2 46.6 L 54.1 46.6 L 58.6 40.6 L 64.6 46.6 L 64.6 50.6 L 49.2 50.6 L 49.2 83.34482755661011 L 54.1 82.5 L 60.2 81.6 L 66.4 80.74153842926026 L 66.4 15.9 L 78.4 17.9 L 81.4 19.9 L 78.4 21.7 L 78.4 47.93043479919434 L 81.5 45.1 L 83.8 42.9 L 86.0 40.6 L 90.4 35.8 L 92.5 33.3 L 93.98066911697387 31.46679058074951 L 93.9 31.4 L 94.9 30.4 L 103.2 39.1 L 103.9 42.6 L 99.90583944320679 41.6890510559082 L 97.3 43.6 L 94.3 45.6 L 91.3 47.4 L 88.3 49.1 L 85.2 50.6 L 82.1 51.9 L 79.0 53.0 L 78.4 53.16875 L 78.4 84.3 L 78.5 85.2 L 78.7 85.9 L 78.8 86.3 L 79.5 87.0 L 80.2 87.2 L 81.1 87.5 L 82.4 87.6 L 96.6 87.6 Z M 124.5 62.0 L 124.5 80.0 L 160.8 80.0 L 160.8 62.0 Z M 124.5 40.0 L 124.5 58.0 L 160.8 58.0 L 160.8 40.0 Z " />
</g>
</svg>
