<svg xmlns="http://www.w3.org/2000/svg" xmlns:xlink="http://www.w3.org/1999/xlink" version="1.1" baseProfile="full" viewBox="0 0 200 200" width="200" height="200">
<g fill="black">
<path d="M 104.9 124.6 L 103.8 121.8 L 102.5 118.9 L 100.9 116.0 L 99.2 113.1 L 97.4 110.2 L 95.7 107.77142858505249 L 95.7 183.0 L 83.7 189.0 L 83.7 111.83898305892944 L 82.0 114.0 L 75.6 121.2 L 68.9 128.1 L 61.6 134.6 L 60.3 133.3 L 66.0 125.6 L 71.5 117.9 L 76.7 110.1 L 81.5 102.2 L 83.7 98.37391300201416 L 83.7 97.0 L 84.48999996185303 97.0 L 86.1 94.2 L 90.3 86.1 L 94.2 77.8 L 97.8 69.4 L 101.0 60.8 L 102.58181819915771 56.0 L 64.2 56.0 L 64.2 52.0 L 83.7 52.0 L 83.7 12.0 L 95.7 14.0 L 98.7 16.0 L 95.7 17.8 L 95.7 52.0 L 103.5 52.0 L 109.5 47.0 L 120.5 56.0 L 115.5 59.0 L 113.65200004577636 59.769999980926514 L 111.6 64.9 L 107.6 73.7 L 103.2 82.3 L 98.5 90.6 L 94.470370388031 97.0 L 95.7 97.0 L 95.7 102.43235292434693 L 98.4 104.1 L 101.5 106.3 L 104.4 108.7 L 107.1 111.3 L 109.7 114.0 L 112.0 116.8 L 114.2 119.7 L 116.1 122.8 L 117.9 126.0 L 117.7 130.5 L 114.5 133.7 L 109.9 133.6 L 106.7 130.3 L 105.9 127.5 Z M 132.87931032180785 38.589655208587644 L 133.5 38.3 L 139.1 35.8 L 144.5 33.5 L 149.5 31.2 L 154.1 29.1 L 158.4 27.0 L 162.4 25.0 L 165.9 23.0 L 169.1 21.1 L 171.02895793914794 19.74258518218994 L 171.0 19.7 L 171.03646450042726 19.737302780151367 L 171.8 19.2 L 173.61343870162963 22.373517799377442 L 179.7 28.6 L 179.9 31.9 L 176.18898553848265 30.390434741973877 L 174.3 31.2 L 170.5 32.7 L 166.3 34.2 L 161.9 35.6 L 157.1 37.1 L 152.0 38.4 L 146.5 39.7 L 140.7 40.9 L 134.6 42.0 L 133.7 42.109090900421144 L 133.7 82.0 L 165.7 82.0 L 175.7 72.0 L 187.7 82.0 L 187.7 86.0 L 166.7 86.0 L 166.7 182.0 L 154.7 188.0 L 154.7 86.0 L 133.7 86.0 L 133.7 107.0 L 133.2 118.6 L 132.1 129.6 L 130.5 139.8 L 128.3 149.2 L 125.6 157.9 L 122.4 165.8 L 118.5 172.9 L 114.2 179.2 L 109.2 184.4 L 103.6 188.6 L 102.4 187.3 L 106.3 181.9 L 109.7 176.2 L 112.7 169.9 L 115.3 163.0 L 117.5 155.5 L 119.3 147.2 L 120.6 138.3 L 121.4 128.6 L 121.8 118.1 L 121.7 107.0 L 121.7 33.0 Z M 70.2 17.9 L 72.3 20.8 L 68.71118364334106 21.49257860183716 L 65.6 29.0 L 60.8 39.8 L 55.7 50.4 L 50.4 60.7 L 44.9 70.8 L 43.83157892227173 72.60526313781739 L 49.8 73.6 L 52.8 75.6 L 49.8 77.4 L 49.8 182.0 L 37.8 188.0 L 37.8 82.68000001907349 L 33.1 90.2 L 26.8 99.4 L 20.1 108.3 L 13.1 116.9 L 11.6 115.8 L 17.0 106.3 L 22.2 96.6 L 27.4 86.8 L 32.5 76.9 L 37.4 66.9 L 42.1 56.6 L 46.6 46.2 L 50.9 35.6 L 55.1 24.7 L 58.67349615097046 14.62090835571289 L 58.6 14.6 L 59.5 12.3 Z " />
</g>
</svg>
