<svg xmlns="http://www.w3.org/2000/svg" xmlns:xlink="http://www.w3.org/1999/xlink" version="1.1" baseProfile="full" viewBox="0 0 200 200" width="200" height="200">
<g fill="black">
<path d="M 129.0 176.0 L 149.0 176.0 L 150.2 175.9 L 151.1 175.7 L 152.0 175.4 L 152.4 175.0 L 152.7 174.1 L 152.9 173.2 L 153.0 172.0 L 153.0 123.0 L 125.60927152633667 123.0 L 124.8 125.6 L 119.3 139.2 L 113.2 151.5 L 106.3 162.3 L 98.7 171.5 L 97.2 170.4 L 103.0 160.3 L 108.3 149.1 L 113.2 136.8 L 117.5 123.2 L 117.55135135650634 123.0 L 97.0 123.0 L 97.0 119.0 L 118.57837839126587 119.0 L 121.3 108.4 L 124.6 92.3 L 124.6462857246399 92.0 L 95.0 92.0 L 95.0 88.0 L 125.26342859268189 88.0 L 127.3 74.8 L 128.06363639831542 68.0 L 105.0 68.0 L 105.0 64.0 L 128.5128342628479 64.0 L 129.4 56.1 L 130.3074999809265 44.0 L 99.0 44.0 L 99.0 40.0 L 130.60749998092652 40.0 L 130.9 36.1 L 131.9 14.7 L 131.93026485443116 14.701261043548584 L 132.0 12.4 L 143.9 15.2 L 146.8 17.3 L 143.61628217697142 19.04792356491089 L 142.3 36.9 L 141.96568632125854 40.0 L 161.0 40.0 L 171.0 30.0 L 183.0 40.0 L 183.0 44.0 L 141.53431367874146 44.0 L 140.1 57.3 L 139.08272247314454 64.0 L 157.8181818008423 64.0 L 166.0 55.0 L 176.0 64.0 L 176.0 68.0 L 138.47539262771608 68.0 L 137.2 76.4 L 134.9062147140503 88.0 L 165.0 88.0 L 175.0 78.0 L 187.0 88.0 L 187.0 92.0 L 134.1152542114258 92.0 L 133.7 94.1 L 129.5 110.5 L 126.85430459976196 119.0 L 153.0 119.0 L 153.0 96.0 L 165.0 98.0 L 168.0 100.0 L 165.0 101.8 L 165.0 119.0 L 168.8181818008423 119.0 L 177.0 110.0 L 187.0 119.0 L 187.0 123.0 L 165.0 123.0 L 165.0 172.0 L 164.8 174.5 L 164.4 177.0 L 163.6 179.4 L 162.3 181.7 L 160.7 183.7 L 158.7 185.3 L 156.4 186.6 L 154.0 187.4 L 151.5 187.8 L 149.0 188.0 L 149.0 182.0 L 129.0 179.0 Z M 135.5 153.8 L 134.1 149.2 L 133.2 147.1 L 132.2 145.0 L 131.1 142.9 L 129.7 140.9 L 128.3 138.8 L 126.4 137.2 L 127.3 135.7 L 129.7 136.8 L 132.2 137.8 L 134.7 139.2 L 137.0 140.8 L 139.2 142.6 L 141.2 144.8 L 143.1 147.1 L 144.9 149.7 L 146.4 152.4 L 147.9 155.4 L 147.3 159.9 L 143.8 162.8 L 139.3 162.3 L 136.3 158.8 L 136.0 156.2 Z M 62.2 124.8 L 70.2 124.8 L 71.4 124.7 L 72.3 124.5 L 73.2 124.2 L 73.6 123.8 L 73.8 123.5 L 73.9 122.9 L 74.1 122.0 L 74.2 120.8 L 74.2 56.844042205810545 L 59.9 66.3989441871643 L 59.9 145.5 L 48.9 151.0 L 48.9 73.74886875152588 L 36.0 82.36832580566406 L 36.0 166.1 L 36.1 167.4 L 36.3 168.3 L 36.6 169.0 L 36.8 169.3 L 37.1 169.5 L 37.3 169.7 L 37.7 169.8 L 38.3 170.0 L 39.2 170.1 L 84.3 170.1 L 90.3 145.1 L 92.3 145.1 L 90.3 170.1 L 93.9 172.5 L 96.3 176.1 L 93.9 179.7 L 90.3 182.1 L 40.5 182.1 L 37.9 181.9 L 35.5 181.4 L 33.1 180.6 L 30.9 179.3 L 28.9 177.6 L 27.3 175.6 L 26.2 173.4 L 25.5 171.0 L 25.1 168.6 L 25.0 166.1 L 25.0 89.71825037002563 L 15.0 96.4 L 12.8 93.0 L 25.0 84.86666669845582 L 25.0 30.9 L 36.0 32.9 L 38.7 34.9 L 36.0 36.62340421676636 L 36.0 77.53333330154419 L 48.9 68.9333333015442 L 48.9 13.4 L 59.9 15.4 L 62.7 17.4 L 59.9 19.15 L 59.9 61.6 L 74.2 52.06666669845581 L 74.2 48.4 L 80.2 43.4 L 91.2 52.4 L 86.2 56.4 L 86.2 120.8 L 86.0 123.3 L 85.6 125.8 L 84.8 128.2 L 83.6 130.5 L 81.9 132.5 L 79.9 134.2 L 77.6 135.4 L 75.2 136.2 L 72.7 136.6 L 70.2 136.8 L 70.2 130.8 L 62.2 127.8 Z " />
</g>
</svg>
