<svg xmlns="http://www.w3.org/2000/svg" xmlns:xlink="http://www.w3.org/1999/xlink" version="1.1" baseProfile="full" viewBox="0 0 200 200" width="200" height="200">
<g fill="black">
<path d="M 92.2 77.2 L 128.7 77.2 L 128.7 45.5 L 101.5 45.5 L 101.5 41.5 L 128.7 41.5 L 128.7 12.8 L 140.7 14.8 L 143.7 16.8 L 140.7 18.6 L 140.7 41.5 L 142.8181818008423 41.5 L 151.0 32.5 L 160.71466665267945 41.24320001602173 L 162.5 37.7 L 168.7 24.1 L 168.7234875679016 24.110676193237303 L 169.3 22.9 L 179.7 29.1 L 181.6 32.1 L 177.95512380599976 32.53989887237549 L 172.7 42.9 L 165.3 55.9 L 157.6 68.2 L 151.18260869979858 77.2 L 165.4 77.2 L 175.4 67.2 L 187.4 77.2 L 187.4 81.2 L 148.19439249038697 81.2 L 140.8 90.4 L 131.9 100.4 L 125.08241758346557 107.0 L 161.6 107.0 L 167.6 102.0 L 178.6 111.0 L 173.6 115.0 L 173.6 177.9 L 161.6 183.9 L 161.6 173.9 L 121.3 173.9 L 121.3 180.9 L 109.3 186.9 L 109.3 120.16666669845581 L 102.5 125.1 L 91.8 131.4 L 90.8 129.9 L 100.2 122.0 L 109.2 113.7 L 109.3 113.5977011680603 L 109.3 101.0 L 117.57169809341431 105.13584909439086 L 117.9 104.8 L 126.2 95.3 L 134.2 85.2 L 136.9889907836914 81.2 L 92.2 81.2 Z M 121.3 142.4 L 121.3 169.9 L 161.6 169.9 L 161.6 142.4 Z M 121.3 111.0 L 121.3 138.4 L 161.6 138.4 L 161.6 111.0 Z M 62.2 124.8 L 70.2 124.8 L 71.4 124.7 L 72.3 124.5 L 73.2 124.2 L 73.6 123.8 L 73.8 123.5 L 73.9 122.9 L 74.1 122.0 L 74.2 120.8 L 74.2 56.844042205810545 L 59.9 66.3989441871643 L 59.9 145.5 L 48.9 151.0 L 48.9 73.74886875152588 L 36.0 82.36832580566406 L 36.0 166.1 L 36.1 167.4 L 36.3 168.3 L 36.6 169.0 L 36.8 169.3 L 37.1 169.5 L 37.3 169.7 L 37.7 169.8 L 38.3 170.0 L 39.2 170.1 L 84.3 170.1 L 90.3 145.1 L 92.3 145.1 L 90.3 170.1 L 93.9 172.5 L 96.3 176.1 L 93.9 179.7 L 90.3 182.1 L 40.5 182.1 L 37.9 181.9 L 35.5 181.4 L 33.1 180.6 L 30.9 179.3 L 28.9 177.6 L 27.3 175.6 L 26.2 173.4 L 25.5 171.0 L 25.1 168.6 L 25.0 166.1 L 25.0 89.71825037002563 L 15.0 96.4 L 12.8 93.0 L 25.0 84.86666669845582 L 25.0 30.9 L 36.0 32.9 L 38.7 34.9 L 36.0 36.62340421676636 L 36.0 77.53333330154419 L 48.9 68.9333333015442 L 48.9 13.4 L 59.9 15.4 L 62.7 17.4 L 59.9 19.15 L 59.9 61.6 L 74.2 52.06666669845581 L 74.2 48.4 L 80.2 43.4 L 91.2 52.4 L 86.2 56.4 L 86.2 120.8 L 86.0 123.3 L 85.6 125.8 L 84.8 128.2 L 83.6 130.5 L 81.9 132.5 L 79.9 134.2 L 77.6 135.4 L 75.2 136.2 L 72.7 136.6 L 70.2 136.8 L 70.2 130.8 L 62.2 127.8 Z M 140.7 45.5 L 140.7 75.8776315689087 L 141.8 74.3 L 149.1 62.8 L 156.0 50.6 L 158.56976747512817 45.5 Z " />
</g>
</svg>
