<svg xmlns="http://www.w3.org/2000/svg" xmlns:xlink="http://www.w3.org/1999/xlink" version="1.1" baseProfile="full" viewBox="0 0 200 200" width="200" height="200">
<g fill="black">
<path d="M 68.4 18.0 L 70.5 20.9 L 66.87593803405761 21.59938039779663 L 63.7 29.1 L 58.8 40.0 L 53.6 50.6 L 48.2 61.0 L 42.6 71.2 L 41.52395668029785 72.98732614517212 L 47.6 74.0 L 50.6 76.0 L 47.6 77.8 L 47.6 183.0 L 35.6 189.0 L 35.6 82.73114757537842 L 30.6 90.6 L 24.2 99.9 L 17.4 108.9 L 10.3 117.5 L 8.8 116.4 L 14.3 106.8 L 19.7 97.1 L 25.0 87.3 L 30.1 77.3 L 35.1 67.2 L 39.9 56.9 L 44.5 46.4 L 48.9 35.7 L 53.2 24.8 L 56.86590909957886 14.71875 L 56.8 14.7 L 57.7 12.4 Z M 132.80588235855103 38.652941131591795 L 133.6 38.3 L 139.6 35.8 L 145.2 33.5 L 150.5 31.2 L 155.4 29.1 L 159.9 27.0 L 164.1 24.9 L 167.8 23.0 L 171.2 21.0 L 173.36571836471558 19.70056896209717 L 173.3 19.6 L 173.3881188392639 19.687128734588622 L 174.2 19.2 L 175.71157312393188 21.98447675704956 L 182.2 28.4 L 182.4 31.8 L 178.61260271072388 30.221917819976806 L 176.2 31.2 L 172.2 32.8 L 167.9 34.2 L 163.2 35.7 L 158.2 37.1 L 152.9 38.4 L 147.2 39.7 L 141.1 40.9 L 134.6 42.0 L 133.5 42.12753620147705 L 133.5 82.0 L 168.5 82.0 L 178.5 72.0 L 190.5 82.0 L 190.5 86.0 L 168.2 86.0 L 168.2 182.0 L 156.2 188.0 L 156.2 86.0 L 133.5 86.0 L 133.5 107.0 L 132.9 118.6 L 131.8 129.6 L 130.1 139.8 L 127.9 149.3 L 125.0 158.0 L 121.6 165.9 L 117.6 173.0 L 113.1 179.2 L 107.9 184.5 L 102.1 188.6 L 100.9 187.3 L 105.0 181.9 L 108.7 176.1 L 111.9 169.8 L 114.7 162.9 L 117.0 155.4 L 118.8 147.2 L 120.2 138.2 L 121.1 128.5 L 121.6 118.1 L 121.5 107.0 L 121.5 33.0 Z M 105.9 108.9 L 104.6 106.4 L 103.2 104.0 L 101.5 101.7 L 99.6 99.5 L 97.5 97.5 L 95.0 95.5 L 94.5 95.13461542129517 L 94.5 181.0 L 82.5 187.0 L 82.5 104.15490198135376 L 82.4 104.3 L 77.0 111.6 L 71.4 118.6 L 65.5 125.2 L 59.3 131.5 L 57.9 130.4 L 67.1 115.4 L 71.6 107.9 L 75.9 100.3 L 80.2 92.5 L 82.5 88.01499996185302 L 82.5 87.0 L 83.02051286697387 87.0 L 84.2 84.7 L 88.1 76.6 L 91.8 68.4 L 95.4 60.1 L 97.03999996185303 56.0 L 63.3 56.0 L 63.3 52.0 L 98.3 52.0 L 104.3 47.0 L 115.3 56.0 L 110.3 59.0 L 108.09756097793579 59.91768293380737 L 105.8 64.8 L 101.5 73.1 L 97.0 81.3 L 93.60886077880859 87.0 L 94.5 87.0 L 94.5 91.20571432113647 L 96.8 91.6 L 100.2 92.7 L 103.5 94.1 L 106.6 95.9 L 109.5 98.1 L 112.2 100.6 L 114.7 103.4 L 116.9 106.5 L 118.9 109.9 L 118.9 114.5 L 115.7 117.7 L 111.1 117.7 L 107.8 114.5 L 106.9 111.6 Z M 86.3 33.4 L 85.6 30.8 L 84.7 28.2 L 83.7 25.8 L 82.5 23.4 L 81.2 21.0 L 79.8 18.7 L 78.2 16.3 L 76.2 14.3 L 77.3 12.8 L 79.9 14.3 L 82.6 15.7 L 85.1 17.4 L 87.6 19.3 L 89.8 21.5 L 92.0 23.9 L 93.9 26.4 L 95.8 29.2 L 97.4 32.2 L 98.9 35.3 L 98.4 39.9 L 94.9 42.8 L 90.4 42.3 L 87.4 38.8 L 86.9 36.1 Z " />
</g>
</svg>
