<svg xmlns="http://www.w3.org/2000/svg" xmlns:xlink="http://www.w3.org/1999/xlink" version="1.1" baseProfile="full" viewBox="0 0 200 200" width="200" height="200">
<g fill="black">
<path d="M 14.6 119.9 L 19.3 118.9 L 27.056354331970216 117.12250213623047 L 28.5 114.2 L 32.5 106.1 L 36.4 98.2 L 40.2 90.4 L 43.8 82.7 L 47.2 75.1 L 50.4 67.6 L 53.4 60.2 L 56.2 52.9 L 58.46763114929199 46.620405960083005 L 58.4 46.6 L 59.3 44.3 L 70.0 50.1 L 72.0 53.0 L 68.37972974777222 53.63513517379761 L 66.7 57.3 L 63.2 64.6 L 59.5 71.9 L 55.5 79.3 L 51.3 86.6 L 46.9 94.0 L 42.1 101.4 L 37.1 108.8 L 31.8241379737854 116.02988510131836 L 33.7 115.6 L 38.5 114.6 L 43.4 113.5 L 48.4 112.5 L 53.3 111.5 L 58.4 110.7 L 59.6516529083252 110.55557851791382 L 61.1 102.3 L 62.21999998092652 91.19333333969116 L 62.5 88.3 L 74.2 91.5 L 77.1 93.7 L 73.64818773269653 95.39334182739258 L 72.4 104.2 L 69.5 116.3 L 65.8 127.8 L 61.0 138.6 L 55.4 148.8 L 48.8 158.3 L 41.2 167.1 L 32.8 175.1 L 23.4 182.3 L 13.1 188.7 L 12.0 187.2 L 21.0 179.4 L 29.0 171.3 L 36.2 162.8 L 42.6 153.9 L 48.0 144.6 L 52.6 134.8 L 56.3 124.5 L 58.84680852890015 114.67659578323364 L 55.0 116.6 L 50.3 118.8 L 45.7 120.8 L 41.0 122.7 L 36.4 124.5 L 31.7 126.3 L 27.1 128.1 L 22.5 129.8 L 21.79744863510132 130.04436569213868 L 20.6 133.8 L 17.9 131.4 L 12.6 120.5 Z M 148.7 137.3 L 150.7 137.3 L 148.7 162.3 L 152.2 164.7 L 154.7 168.3 L 152.2 171.9 L 148.7 174.3 L 106.2 174.3 L 103.6 174.2 L 101.1 173.7 L 98.7 172.9 L 96.4 171.7 L 94.4 170.1 L 92.8 168.0 L 91.5 165.8 L 90.7 163.4 L 90.3 160.9 L 90.2 158.3 L 90.2 140.0666666984558 L 86.8 143.2 L 81.3 147.7 L 75.5 151.8 L 69.4 155.6 L 68.3 154.2 L 73.1 149.0 L 77.7 143.8 L 82.1 138.7 L 86.2 133.5 L 90.1 128.2 L 93.8 122.8 L 97.1 117.4 L 100.3 111.8 L 103.1 106.1 L 104.37719297409058 103.3 L 98.0 103.3 L 98.0 106.3 L 86.0 112.3 L 86.0 50.7 L 98.0 56.7 L 153.2 56.7 L 159.2 51.7 L 170.2 60.7 L 165.2 64.7 L 165.2 105.3 L 153.2 111.3 L 153.2 103.3 L 112.9380952835083 103.3 L 116.5 105.5 L 118.4 108.6 L 114.51562881469727 109.00183153152466 L 113.1 111.5 L 109.5 117.4 L 108.35714282989503 119.0 L 167.2 119.0 L 173.2 114.0 L 184.2 123.0 L 179.23117208480835 125.9812967300415 L 179.3 128.7 L 179.3 136.1 L 179.0 143.0 L 178.5 149.4 L 177.7 155.4 L 176.8 160.8 L 175.5 165.8 L 174.0 170.3 L 172.1 174.3 L 169.9 177.9 L 168.3 179.9 L 166.7 181.6 L 164.9 183.2 L 162.9 184.6 L 160.8 185.8 L 158.7 186.8 L 156.4 187.6 L 154.0 188.1 L 151.6 188.4 L 149.2 188.5 L 149.2 182.5 L 129.2 179.5 L 129.2 176.5 L 150.6 176.5 L 151.9 176.3 L 153.2 176.0 L 154.3 175.6 L 155.4 175.1 L 156.4 174.6 L 157.4 173.9 L 158.3 173.0 L 159.2 172.0 L 160.1 170.9 L 161.5 168.7 L 162.8 165.8 L 164.0 162.4 L 165.0 158.3 L 165.9 153.6 L 166.5 148.2 L 167.0 142.3 L 167.3 135.9 L 167.3 130.9583333015442 L 167.2 131.0 L 167.2 123.0 L 105.5 123.0 L 101.2 128.4 L 96.7 133.5 L 96.54827585220337 133.65804595947264 L 102.2 134.6 L 105.2 136.6 L 102.2 138.4 L 102.2 149.3720000267029 L 106.1 147.5 L 110.9 145.2 L 115.5 143.0 L 119.8 140.7 L 124.0 138.4 L 127.9 136.1 L 131.6 133.8 L 135.0 131.5 L 138.2 129.1 L 141.38294143676757 133.97086486816406 L 145.7 138.6 L 145.8 142.1 L 142.13969469070435 140.59666032791137 L 140.8 141.3 L 136.7 143.2 L 132.4 145.1 L 127.9 146.8 L 123.1 148.5 L 118.2 150.0 L 113.1 151.4 L 107.8 152.6 L 102.2 153.5 L 102.2 159.6 L 102.4 160.5 L 102.7 161.4 L 102.9 161.6 L 103.1 161.7 L 103.4 161.9 L 104.0 162.1 L 104.9 162.3 L 142.7 162.3 Z M 98.0 82.0 L 98.0 99.3 L 106.25238094329833 99.3 L 106.3 99.2 L 106.4619047164917 99.3 L 153.2 99.3 L 153.2 82.0 Z M 28.4 72.9 L 27.5 69.8 L 26.4 66.8 L 25.1 63.8 L 23.5 60.9 L 21.7 57.9 L 19.7 55.0 L 17.4 52.0 L 14.7 49.3 L 15.7 47.8 L 19.2 49.7 L 22.7 51.7 L 25.9 54.0 L 25.965085792541505 54.056407642364505 L 26.6 52.7 L 28.9 48.0 L 31.2 43.5 L 35.6 34.7 L 37.7 30.4 L 39.8 26.0 L 41.7 21.7 L 43.6 17.5 L 45.019971466064455 14.107845973968505 L 45.0 14.1 L 45.14285717010498 13.81428575515747 L 45.4 13.2 L 45.440148735046385 13.219702625274659 L 46.0 12.1 L 56.2 18.5 L 58.0 21.6 L 54.15759410858154 21.93124189376831 L 53.7 22.7 L 51.2 26.8 L 48.5 31.0 L 45.7 35.1 L 42.8 39.1 L 39.8 43.2 L 36.6 47.1 L 33.3 51.0 L 29.7 54.8 L 28.345185852050783 56.1191611289978 L 28.9 56.6 L 31.6 59.4 L 34.0 62.4 L 36.2 65.7 L 38.2 69.2 L 39.8 72.9 L 41.2 76.8 L 40.3 81.2 L 36.6 83.9 L 32.1 83.0 L 29.5 79.3 L 29.0 76.1 Z M 98.0 60.7 L 98.0 78.0 L 153.2 78.0 L 153.2 60.7 Z M 152.6 14.0 L 155.6 16.0 L 152.6 17.8 L 152.6 31.2 L 165.9 31.2 L 175.9 21.2 L 187.9 31.2 L 187.9 35.2 L 152.6 35.2 L 152.6 49.5 L 140.6 55.5 L 140.6 35.2 L 113.4 35.2 L 113.4 49.5 L 101.4 55.5 L 101.4 35.2 L 66.1 35.2 L 66.1 31.2 L 101.4 31.2 L 101.4 12.0 L 113.4 14.0 L 116.4 16.0 L 113.4 17.8 L 113.4 31.2 L 140.6 31.2 L 140.6 12.0 Z " />
</g>
</svg>
