<svg xmlns="http://www.w3.org/2000/svg" xmlns:xlink="http://www.w3.org/1999/xlink" version="1.1" baseProfile="full" viewBox="0 0 200 200" width="200" height="200">
<g fill="black">
<path d="M 146.9 187.8 L 135.1 186.6 L 125.3 184.5 L 117.3 181.4 L 110.8 177.3 L 105.8 172.3 L 102.2 166.6 L 99.6 160.2 L 98.84196157455445 157.07866535186767 L 98.3 158.0 L 96.4 161.6 L 92.4 168.2 L 90.3 171.4 L 86.3 177.6 L 84.2 180.6 L 82.69404449462891 182.78363542556764 L 83.8 186.8 L 80.2 186.3 L 69.9 179.9 L 71.2 178.4 L 73.7 176.1 L 78.9 171.3 L 84.3 166.3 L 87.1 163.8 L 89.9 161.2 L 90.5 160.7 L 90.5 95.7 L 73.8 95.7 L 73.8 91.7 L 90.5 91.7 L 96.5 86.7 L 107.5 95.7 L 102.5 99.7 L 102.5 155.2 L 101.58662424087524 155.65668792724608 L 103.4 158.4 L 107.1 163.4 L 107.80467290878296 164.10467290878296 L 113.3 159.8 L 118.5 154.1 L 123.1 147.3 L 127.0 139.2 L 130.4 129.7 L 133.1 118.8 L 135.1 106.4 L 135.53623189926148 102.1 L 106.0 102.1 L 106.0 98.1 L 135.9420289993286 98.1 L 136.5 92.6 L 137.2 77.4 L 137.28802394866943 62.7 L 112.4 62.7 L 112.4 58.7 L 149.5 58.7 L 159.5 48.7 L 171.5 58.7 L 171.5 62.7 L 149.21860466003417 62.7 L 148.6 77.9 L 147.2 93.7 L 146.52307691574097 98.1 L 158.1 98.1 L 168.1 88.1 L 180.1 98.1 L 180.1 102.1 L 145.90769233703614 102.1 L 145.0 108.0 L 144.0321692466736 112.30517835617066 L 145.9 113.1 L 150.4 115.8 L 154.6 118.9 L 158.6 122.6 L 162.3 126.7 L 165.8 131.2 L 169.0 136.1 L 172.0 141.3 L 174.7 146.9 L 177.2 152.9 L 176.8 157.5 L 173.3 160.5 L 168.8 160.1 L 165.8 156.7 L 164.1 151.1 L 162.2 145.8 L 160.2 140.8 L 157.9 136.1 L 155.4 131.6 L 152.8 127.5 L 149.9 123.5 L 146.9 119.8 L 143.6 116.2 L 143.24184160232545 115.82077350616456 L 142.1 120.9 L 138.4 132.4 L 133.9 142.4 L 128.6 150.9 L 122.5 157.8 L 115.6 162.9 L 109.35 165.65 L 111.1 167.4 L 115.5 170.5 L 120.9 172.8 L 127.7 174.6 L 136.4 175.6 L 147.2 176.0 L 160.6 175.6 L 176.6 174.4 L 187.6 173.7 L 177.6 187.6 L 160.9 188.1 Z M 30.6 173.9 L 19.6 179.4 L 19.6 53.8 L 30.6 55.8 L 33.4 57.8 L 30.6 59.55 L 30.6 157.9 L 38.2 157.9 L 38.2 20.9 L 48.2 22.9 L 50.7 24.9 L 48.2 26.566666698455812 L 48.2 157.9 L 57.1 157.9 L 57.1 53.8 L 68.1 55.8 L 70.8 57.8 L 68.1 59.52340421676636 L 68.1 167.9 L 57.1 173.4 L 57.1 161.9 L 30.6 161.9 Z M 90.8 44.9 L 89.6 41.9 L 88.3 38.9 L 86.8 35.9 L 85.2 33.0 L 83.5 30.0 L 81.7 27.0 L 79.6 24.3 L 80.8 23.0 L 83.7 25.0 L 86.8 27.1 L 89.6 29.4 L 92.3 31.9 L 94.7 34.6 L 97.1 37.4 L 99.3 40.4 L 101.3 43.6 L 103.2 46.9 L 104.9 50.4 L 104.6 54.9 L 101.2 58.0 L 96.7 57.7 L 93.6 54.3 L 92.8 51.1 Z M 169.8 19.4 L 171.7 22.4 L 167.651438331604 22.968219184875487 L 166.6 24.7 L 164.9 27.6 L 163.0 30.7 L 160.9 34.1 L 158.8 37.6 L 156.4 41.3 L 153.9 45.1 L 151.1 49.1 L 148.4 53.3 L 146.7 52.6 L 148.3 47.7 L 149.7 43.1 L 151.0 38.7 L 152.4 34.6 L 153.7 30.7 L 154.9 27.0 L 156.0 23.6 L 157.0 20.4 L 158.0 17.4 L 158.53013696670533 15.544520568847656 L 158.4 15.5 L 159.3 13.3 Z M 125.7 35.7 L 124.8 32.7 L 123.9 29.8 L 122.9 26.8 L 121.7 24.0 L 120.4 21.2 L 119.0 18.3 L 117.2 15.7 L 118.5 14.4 L 121.1 16.5 L 123.8 18.5 L 126.3 20.8 L 128.6 23.4 L 130.7 26.1 L 132.7 29.1 L 134.5 32.2 L 136.2 35.6 L 137.7 39.0 L 139.0 42.7 L 138.2 47.2 L 134.5 49.9 L 130.0 49.1 L 127.3 45.4 L 126.9 42.1 Z " />
</g>
</svg>
