<svg xmlns="http://www.w3.org/2000/svg" xmlns:xlink="http://www.w3.org/1999/xlink" version="1.1" baseProfile="full" viewBox="0 0 200 200" width="200" height="200">
<g fill="black">
<path d="M 100.5 41.0 L 131.6 41.0 L 131.6 12.0 L 143.6 14.0 L 146.6 16.0 L 143.6 17.8 L 143.6 41.0 L 166.2 41.0 L 176.2 31.0 L 188.2 41.0 L 188.2 45.0 L 100.5 45.0 L 100.5 104.0 L 100.0 115.2 L 99.2 125.9 L 98.0 136.0 L 96.5 145.6 L 94.6 154.5 L 92.3 162.8 L 89.6 170.5 L 86.6 177.6 L 83.0 183.9 L 79.0 189.4 L 77.4 188.5 L 79.6 182.2 L 81.5 175.6 L 83.3 168.6 L 84.9 161.0 L 86.2 152.9 L 87.2 144.3 L 88.0 135.0 L 88.4 125.3 L 88.6 114.9 L 88.5 104.0 L 88.5 35.0 Z M 124.5 71.5 L 124.3 69.4 L 124.1 67.2 L 123.8 65.0 L 123.4 62.8 L 122.8 60.5 L 122.2 58.1 L 121.5 55.7 L 120.3 53.6 L 121.7 52.5 L 123.4 54.4 L 125.4 56.1 L 127.3 58.0 L 129.0 60.0 L 130.5 62.1 L 132.0 64.3 L 133.3 66.7 L 134.4 69.1 L 135.4 71.6 L 136.3 74.1 L 135.1 78.6 L 131.70869569778444 80.6 L 150.234375 80.6 L 151.3 77.5 L 152.9 71.1 L 153.8 68.1 L 154.6 65.1 L 155.3 62.2 L 156.1 59.3 L 156.7 56.5 L 157.4 53.8 L 157.78844766616822 52.051985549926755 L 157.6 52.0 L 158.5 49.7 L 169.2 55.2 L 171.4 58.1 L 167.2106351852417 58.89453468322754 L 166.4 60.4 L 163.2 65.6 L 161.5 68.2 L 159.7 70.9 L 157.8 73.5 L 155.8 76.1 L 153.7 78.7 L 152.41071424484252 80.6 L 160.6 80.6 L 170.6 70.6 L 182.6 80.6 L 182.6 84.6 L 149.2 84.6 L 149.2 111.1 L 157.0 111.1 L 167.0 101.1 L 179.0 111.1 L 179.0 115.1 L 149.2 115.1 L 149.2 140.7 L 164.8 140.7 L 174.8 130.7 L 186.8 140.7 L 186.8 144.7 L 149.2 144.7 L 149.2 181.8 L 137.2 187.8 L 137.2 144.7 L 99.6 144.7 L 99.6 140.7 L 137.2 140.7 L 137.2 115.1 L 107.4 115.1 L 107.4 111.1 L 137.2 111.1 L 137.2 84.6 L 103.8 84.6 L 103.8 80.6 L 130.1 80.6 L 126.8 79.7 L 124.4 75.8 L 124.5 73.7 Z M 14.6 173.2 L 21.3 172.0 L 34.9 169.6 L 40.2 168.67826089859008 L 40.2 136.8 L 17.2 136.8 L 17.2 132.8 L 40.2 132.8 L 40.2 99.8 L 52.2 101.8 L 55.2 103.8 L 52.2 105.6 L 52.2 132.8 L 57.2 132.8 L 67.2 122.8 L 79.2 132.8 L 79.2 136.8 L 52.2 136.8 L 52.2 166.49130430221558 L 55.6 165.9 L 62.6 164.6 L 69.6 163.4 L 83.8 161.4 L 84.3 163.2 L 77.6 166.0 L 70.9 168.6 L 64.2 171.0 L 57.5 173.2 L 50.7 175.4 L 44.0 177.4 L 37.2 179.4 L 23.8 183.2 L 21.006947898864745 183.9086848258972 L 19.6 187.4 L 17.1 184.9 L 12.6 173.6 Z M 56.5 94.3 L 50.6 88.9 L 46.84427814483642 84.50651407241821 L 43.6 88.2 L 36.6 94.6 L 29.2 100.1 L 21.2 104.6 L 12.8 108.0 L 12.0 106.4 L 19.2 101.4 L 25.9 95.9 L 32.1 89.8 L 37.9 83.1 L 41.93569574356079 77.54140014648438 L 40.8 75.8 L 36.9 68.2 L 33.7 59.9 L 31.2 51.0 L 29.4 41.3 L 28.6692307472229 31.8 L 17.2 31.8 L 17.2 27.8 L 62.8 27.8 L 68.8 22.8 L 79.8 31.8 L 74.8 34.8 L 73.1492437362671 35.48781509399414 L 70.7 42.9 L 66.3 53.6 L 61.4 63.5 L 56.0 72.6 L 53.324105453491214 76.31903991699218 L 58.1 80.9 L 63.5 84.8 L 69.1 88.0 L 75.2 90.5 L 81.8 93.1 L 70.3 102.7 L 63.1 98.9 Z M 30.783505153656005 31.8 L 33.5 40.3 L 36.8 49.2 L 40.4 57.2 L 44.3 64.4 L 47.354702949523926 68.87549505233764 L 48.0 67.8 L 52.4 59.0 L 56.4 49.5 L 59.9 39.2 L 61.98545455932617 31.8 Z " />
</g>
</svg>
