<svg xmlns="http://www.w3.org/2000/svg" xmlns:xlink="http://www.w3.org/1999/xlink" version="1.1" baseProfile="full" viewBox="0 0 200 200" width="200" height="200">
<g fill="black">
<path d="M 143.0 187.0 L 129.8 185.8 L 118.8 183.8 L 109.8 180.8 L 102.5 176.8 L 96.9 171.8 L 92.7 166.1 L 89.6 159.8 L 88.49588012695312 156.23670415878297 L 85.3 161.1 L 83.0 164.5 L 80.6 167.8 L 78.2 171.0 L 73.4 177.2 L 71.0 180.1 L 69.05815916061401 182.5484079360962 L 69.8 186.6 L 66.3 185.9 L 56.5 178.7 L 57.9 177.3 L 60.7 175.1 L 69.4 167.9 L 72.5 165.5 L 75.5 163.0 L 79.7 159.71875 L 79.7 95.7 L 60.0 95.7 L 60.0 91.7 L 79.7 91.7 L 85.7 86.7 L 96.7 95.7 L 91.7 99.7 L 91.7 154.6 L 91.17341775894165 154.8632911682129 L 93.3 157.8 L 97.4 162.6 L 100.316539478302 165.18511447906494 L 103.3 162.5 L 107.8 157.7 L 111.8 152.6 L 115.4 146.9 L 118.6 140.8 L 121.4 134.0 L 123.7 126.7 L 125.5 118.8 L 127.0 110.2 L 127.61176471710205 103.7 L 104.8 103.7 L 104.8 99.7 L 151.0 99.7 L 157.0 94.7 L 168.0 103.7 L 163.0 106.7 L 161.28163805007935 107.41598415374756 L 158.28235292434692 124.7 L 167.0 124.7 L 173.0 119.7 L 184.0 128.7 L 179.0 131.7 L 178.61931037902832 131.85862064361572 L 178.6 132.1 L 178.3 136.6 L 177.9 140.7 L 177.6 144.4 L 177.2 147.6 L 176.8 150.4 L 176.4 152.9 L 176.0 154.9 L 175.5 156.8 L 174.5 158.8 L 173.1 160.9 L 171.6 162.8 L 169.8 164.5 L 167.9 166.0 L 165.9 167.3 L 163.7 168.4 L 161.5 169.2 L 159.1 169.7 L 156.7 170.1 L 154.2 170.2 L 154.2 164.2 L 134.2 161.2 L 134.2 158.2 L 154.2 158.2 L 155.6 158.1 L 156.9 157.9 L 158.0 157.7 L 159.1 157.3 L 160.1 156.8 L 161.0 156.2 L 161.8 155.5 L 162.7 154.7 L 163.5 153.7 L 164.1 152.8 L 164.3 152.1 L 164.6 150.7 L 165.0 148.7 L 165.3 146.2 L 165.6 143.1 L 166.0 139.6 L 166.3 135.7 L 166.7 131.2 L 166.85306119918823 128.7 L 157.58823528289795 128.7 L 156.2 136.7 L 143.3 140.3 L 150.50621757507324 103.7 L 139.67448978424073 103.7 L 138.2 112.2 L 136.0 121.3 L 133.2 129.8 L 129.9 137.6 L 126.1 144.8 L 121.7 151.2 L 116.9 156.8 L 111.5 161.6 L 105.5 165.6 L 102.54346160888672 166.96094617843627 L 106.8 169.6 L 113.0 172.0 L 120.9 173.8 L 130.9 174.9 L 143.3 175.2 L 158.5 174.8 L 176.8 173.7 L 187.9 173.0 L 177.6 186.8 L 158.8 187.4 Z M 29.4 187.9 L 25.3 185.8 L 23.9 181.4 L 24.5 174.8 L 24.7 168.2 L 24.6 161.8 L 24.0 155.5 L 22.9 149.4 L 21.5 143.3 L 19.9802414894104 138.23413829803468 L 18.7 137.6 L 19.363787364959716 136.38305644989015 L 17.5 131.3 L 15.0 125.3 L 12.1 119.3 L 13.5 118.2 L 18.2 123.3 L 22.2 128.8 L 22.79980354309082 129.79396018981933 L 24.8 125.6 L 28.2 118.3 L 31.7 110.1 L 35.5 101.0 L 39.4 91.0 L 43.6 80.1 L 48.1 68.4 L 52.8 55.9 L 58.0 42.5 L 59.7 43.0 L 56.5 57.0 L 53.2 70.0 L 49.9 82.2 L 46.6 93.4 L 43.5 103.8 L 40.4 113.3 L 37.5 122.0 L 34.7 129.8 L 32.0 136.8 L 29.45280466079712 142.7761121749878 L 31.1 147.1 L 33.1 153.8 L 34.5 160.6 L 35.5 167.7 L 35.9 175.0 L 35.8 182.4 L 33.7 186.5 Z M 167.8 88.3 L 164.3 85.1 L 160.9 81.6 L 157.5 77.7 L 154.2 73.4 L 150.9 68.6 L 147.8 63.4 L 145.8 59.6 L 145.8 91.7 L 133.8 97.7 L 133.8 65.37631578445435 L 131.1 69.0 L 127.2 73.9 L 123.0 78.4 L 118.6 82.6 L 114.0 86.4 L 109.2 89.9 L 104.1 92.9 L 98.7 95.4 L 97.7 93.9 L 101.8 89.9 L 105.7 85.8 L 109.5 81.6 L 113.1 77.3 L 116.5 72.9 L 119.8 68.2 L 122.8 63.4 L 125.7 58.3 L 128.4 53.0 L 128.77241382598876 52.1 L 100.2 52.1 L 100.2 48.1 L 133.8 48.1 L 133.8 31.166101741790772 L 133.6 31.2 L 127.4 32.0 L 120.9 32.7 L 114.0 33.2 L 106.9 33.4 L 106.6 31.6 L 113.4 29.5 L 119.8 27.5 L 126.0 25.6 L 131.9 23.8 L 137.4 22.0 L 142.6 20.1 L 147.4 18.3 L 152.0 16.4 L 156.2 14.5 L 159.13088235855102 12.957430362701416 L 159.1 12.9 L 159.15103340148926 12.94682445526123 L 160.0 12.5 L 160.89202871322632 14.5442325592041 L 168.8 21.8 L 169.0 25.0 L 165.1210331916809 23.36356086730957 L 164.8 23.5 L 160.3 25.1 L 155.5 26.5 L 150.5 27.8 L 145.8 28.931481456756593 L 145.8 48.1 L 158.4 48.1 L 168.4 38.1 L 180.4 48.1 L 180.4 52.1 L 145.8 52.1 L 145.8 52.7956521987915 L 148.2 55.3 L 152.5 59.9 L 156.6 64.1 L 160.5 67.9 L 164.2 71.2 L 167.8 74.1 L 171.2 76.6 L 174.5 78.6 L 177.6 80.1 L 180.6 81.2 L 186.5 83.9 L 175.2 93.3 L 171.4 91.0 Z M 81.2 48.8 L 80.0 45.7 L 77.0 39.7 L 75.2 36.7 L 73.3 33.8 L 71.3 30.8 L 69.1 27.8 L 66.6 25.0 L 67.7 23.6 L 71.0 25.6 L 74.4 27.6 L 77.5 29.9 L 80.4 32.3 L 83.2 34.9 L 85.8 37.8 L 88.2 40.7 L 90.5 43.9 L 92.5 47.2 L 94.4 50.6 L 94.3 55.2 L 91.1 58.4 L 86.5 58.3 L 83.3 55.1 L 82.3 51.9 Z M 33.0 38.0 L 31.8 35.0 L 30.5 32.1 L 29.0 29.3 L 27.4 26.5 L 25.6 23.8 L 23.6 21.1 L 21.4 18.3 L 18.9 15.9 L 19.9 14.4 L 23.1 16.0 L 26.4 17.7 L 29.5 19.7 L 32.5 22.0 L 35.2 24.5 L 37.8 27.3 L 40.1 30.2 L 42.3 33.4 L 44.3 36.7 L 46.1 40.3 L 45.8 44.8 L 42.5 47.9 L 37.9 47.6 L 34.8 44.3 L 34.0 41.1 Z " />
</g>
</svg>
