<svg xmlns="http://www.w3.org/2000/svg" xmlns:xlink="http://www.w3.org/1999/xlink" version="1.1" baseProfile="full" viewBox="0 0 200 200" width="200" height="200">
<g fill="black">
<path d="M 171.4 180.6 L 169.6 182.1 L 167.6 183.5 L 165.5 184.6 L 163.4 185.6 L 161.1 186.3 L 158.7 186.8 L 156.3 187.1 L 153.9 187.2 L 153.9 181.2 L 133.9 178.2 L 133.9 175.2 L 155.3 175.2 L 156.7 175.0 L 158.0 174.7 L 159.1 174.3 L 160.3 173.9 L 161.3 173.3 L 162.3 172.6 L 164.3 170.8 L 165.2 169.6 L 166.1 168.3 L 167.0 166.1 L 167.9 163.1 L 168.8 159.3 L 169.4 154.8 L 170.0 149.7 L 170.4 143.8 L 170.6 137.3 L 170.67264261245728 132.0697322845459 L 170.6 132.1 L 170.6 124.1 L 108.5 124.1 L 96.5 130.1 L 96.5 31.4 L 108.5 37.4 L 125.81739130020142 37.4 L 126.2 36.6 L 126.8 34.0 L 127.5 31.5 L 128.1 29.1 L 128.8 26.6 L 130.6 19.4 L 131.1 17.0 L 131.38923330307006 15.55383358001709 L 131.2 15.5 L 132.1 13.2 L 142.8 18.8 L 144.9 21.7 L 140.52031116485597 22.545203113555907 L 140.0 23.4 L 137.0 27.8 L 135.4 29.9 L 133.7 32.0 L 132.0 34.0 L 130.2 36.0 L 128.6444444656372 37.4 L 158.9 37.4 L 164.9 32.4 L 175.9 41.4 L 170.9 45.4 L 170.9 86.7 L 158.9 92.7 L 158.9 84.7 L 108.5 84.7 L 108.5 100.4 L 168.11818180084228 100.4 L 176.3 91.4 L 186.3 100.4 L 186.3 104.4 L 108.5 104.4 L 108.5 120.1 L 170.6 120.1 L 176.6 115.1 L 187.6 124.1 L 182.62554740905762 127.08467149734497 L 182.7 130.1 L 182.6 137.5 L 182.4 144.4 L 181.9 150.7 L 181.3 156.4 L 180.6 161.5 L 179.5 166.1 L 178.3 170.2 L 176.7 173.8 L 174.7 177.0 L 173.2 178.8 Z M 87.5 173.3 L 86.1 169.0 L 88.2 164.9 L 89.8 163.8 L 91.3 162.4 L 92.8 160.6 L 94.1 158.4 L 95.4 155.7 L 96.4 152.6 L 97.3 149.1 L 98.0 145.2 L 98.6 140.8 L 98.7 136.0 L 100.5 135.8 L 101.5 140.6 L 102.4 145.1 L 103.0 149.4 L 103.1 153.5 L 102.9 157.5 L 102.4 161.2 L 101.4 164.7 L 100.1 168.1 L 98.2 171.2 L 96.0 174.0 L 91.6 175.3 Z M 116.1 169.3 L 112.7 166.3 L 112.3 161.7 L 113.0 160.6 L 113.7 159.3 L 114.2 157.7 L 114.6 155.7 L 114.8 153.6 L 114.8 151.1 L 114.6 148.4 L 114.3 145.5 L 113.9 142.3 L 112.8 139.2 L 114.4 138.4 L 116.1 141.4 L 118.0 144.2 L 119.6 146.9 L 120.9 149.6 L 122.0 152.3 L 122.9 154.9 L 123.5 157.5 L 123.9 160.2 L 124.0 162.8 L 123.7 165.5 L 120.7 168.9 Z M 133.1 152.9 L 133.2 151.2 L 133.1 149.4 L 132.8 147.6 L 132.4 145.7 L 131.7 143.8 L 130.8 141.9 L 129.8 139.8 L 128.1 138.2 L 129.1 136.8 L 131.2 138.1 L 133.5 139.3 L 135.6 140.7 L 137.5 142.3 L 139.3 144.2 L 140.8 146.3 L 142.1 148.6 L 143.1 151.1 L 144.0 153.8 L 144.5 156.6 L 142.7 160.7 L 138.5 162.6 L 134.3 160.7 L 132.5 156.6 L 132.9 154.7 Z M 151.9 146.5 L 151.8 145.3 L 151.4 143.9 L 150.8 142.5 L 149.9 141.0 L 148.7 139.5 L 147.2 137.9 L 145.4 136.2 L 143.1 135.1 L 143.7 133.4 L 146.2 134.2 L 148.8 134.7 L 151.3 135.3 L 153.6 136.2 L 155.7 137.3 L 157.7 138.7 L 159.5 140.3 L 161.1 142.2 L 162.4 144.4 L 163.5 146.7 L 162.4 151.2 L 158.5 153.6 L 154.1 152.6 L 151.6 148.7 L 151.8 147.6 Z M 76.6 130.8 L 75.32587261199951 125.24844512939453 L 71.5 127.3 L 64.8 130.7 L 58.2 133.8 L 51.8 136.7 L 45.6 139.4 L 39.6 142.0 L 33.9 144.4 L 28.3 146.6 L 23.0 148.8 L 21.778550815582275 149.278999710083 L 20.7 153.0 L 17.9 150.8 L 12.3 139.9 L 14.2 139.3 L 19.4 137.9 L 24.9 136.5 L 27.3941349029541 135.79989194869995 L 28.4 129.5 L 32.6 105.7 L 34.8 93.9 L 39.0 70.1 L 41.0 58.1 L 42.9 46.2 L 44.8 34.2 L 46.44938268661499 23.204115200042725 L 46.4 23.2 L 47.0 20.2 L 58.4 24.2 L 61.1 26.7 L 57.63543310165405 28.022834682464598 L 56.0 36.2 L 53.5 48.2 L 50.8 60.1 L 48.1 71.9 L 45.2 83.7 L 42.2 95.5 L 39.0 107.2 L 35.7 118.8 L 32.1 130.4 L 30.556332969665526 134.9122573852539 L 30.6 134.9 L 36.6 133.2 L 42.8 131.4 L 49.2 129.6 L 55.9 127.6 L 62.9 125.7 L 70.2 123.8 L 74.67878789901734 122.68030300140381 L 73.6 118.5 L 71.7 112.3 L 69.6 105.9 L 67.3 99.4 L 64.8 92.8 L 62.1 86.0 L 59.4 79.0 L 61.0 78.1 L 65.5 84.2 L 69.6 90.4 L 73.2 96.7 L 76.6 102.9 L 79.6 109.2 L 82.3 115.5 L 84.8 121.7 L 87.0 128.0 L 88.8 134.2 L 90.4 140.4 L 89.4 144.8 L 85.6 147.4 L 81.2 146.4 L 78.6 142.6 L 77.7 136.7 Z M 108.5 63.1 L 108.5 80.7 L 158.9 80.7 L 158.9 63.1 Z M 108.5 41.4 L 108.5 59.1 L 158.9 59.1 L 158.9 41.4 Z " />
</g>
</svg>
