<svg xmlns="http://www.w3.org/2000/svg" xmlns:xlink="http://www.w3.org/1999/xlink" version="1.1" baseProfile="full" viewBox="0 0 200 200" width="200" height="200">
<g fill="black">
<path d="M 131.0 175.1 L 152.2 175.1 L 153.1 174.9 L 153.7 174.7 L 154.0 174.5 L 154.2 174.4 L 154.4 174.2 L 154.7 173.3 L 154.9 172.4 L 155.0 171.1 L 155.0 107.9 L 81.0 107.9 L 81.0 103.9 L 165.0 103.9 L 175.0 93.9 L 187.0 103.9 L 187.0 107.9 L 167.0 107.9 L 167.0 171.1 L 166.8 173.7 L 166.4 176.2 L 165.6 178.6 L 164.3 180.8 L 162.7 182.9 L 160.7 184.5 L 158.4 185.7 L 156.0 186.5 L 153.5 187.0 L 151.0 187.1 L 151.0 181.1 L 131.0 178.1 Z M 104.0 123.7 L 126.0 123.7 L 132.0 118.7 L 143.0 127.7 L 138.0 131.7 L 138.0 159.4 L 126.0 165.4 L 126.0 155.4 L 104.0 155.4 L 104.0 162.4 L 92.0 168.4 L 92.0 117.7 Z M 28.9 161.0 L 17.9 166.5 L 17.9 50.0 L 28.9 52.0 L 31.7 54.0 L 28.9 55.75 L 28.9 145.0 L 40.7 145.0 L 40.7 20.0 L 50.7 22.0 L 53.2 24.0 L 50.7 25.66666669845581 L 50.7 145.0 L 64.1 145.0 L 64.1 50.0 L 75.1 52.0 L 77.8 54.0 L 75.1 55.723404216766355 L 75.1 155.0 L 64.1 160.5 L 64.1 149.0 L 28.9 149.0 Z M 104.0 127.7 L 104.0 151.4 L 126.0 151.4 L 126.0 127.7 Z M 153.1 91.8 L 151.3 89.5 L 149.1 87.1 L 146.2 84.7 L 142.9 82.3 L 139.1 79.9 L 134.8 77.4 L 130.0 74.8 L 128.42877082824708 74.08850002288818 L 126.6 77.3 L 121.7 83.6 L 116.0 89.0 L 109.6 93.4 L 102.4 96.9 L 94.6 99.4 L 86.2 100.8 L 85.7 99.1 L 93.3 95.8 L 100.0 92.1 L 105.9 88.0 L 110.9 83.4 L 115.1 78.2 L 118.7 72.5 L 121.5 66.1 L 122.33999996185302 63.3 L 96.0 63.3 L 96.0 59.3 L 123.53999996185303 59.3 L 123.6 59.1 L 125.1 51.4 L 125.80476188659668 44.0 L 125.8 44.0 L 126.1 40.8 L 137.8 44.0 L 140.7 46.3 L 137.1742488861084 47.963090133666995 L 136.3 53.5 L 134.7 59.3 L 145.0 59.3 L 155.0 49.3 L 164.67758617401122 57.36465520858765 L 165.8 55.2 L 166.6 52.3 L 167.5 49.6 L 168.3 47.0 L 169.0 44.6 L 169.7 42.3 L 170.2 40.2 L 170.5 39.0 L 94.31000003814697 39.0 L 94.5 40.9 L 94.6 44.6 L 94.5 48.1 L 94.1 51.3 L 93.5 54.4 L 92.6 57.2 L 91.3 59.9 L 89.5 62.3 L 85.1 63.7 L 81.0 61.7 L 79.7 57.3 L 81.7 53.2 L 82.6 52.9 L 83.6 52.0 L 84.8 50.7 L 85.9 48.8 L 87.0 46.5 L 88.1 43.6 L 89.0 40.4 L 89.9 36.7 L 90.8 32.5 L 91.2 28.0 L 93.0 28.0 L 93.5 32.6 L 93.83488368988037 35.0 L 126.5 35.0 L 126.5 12.3 L 138.5 14.3 L 141.5 16.3 L 138.5 18.1 L 138.5 35.0 L 170.9 35.0 L 176.9 30.0 L 187.9 39.0 L 182.9 42.0 L 179.21044778823853 43.53731346130371 L 178.5 44.4 L 177.1 46.2 L 175.5 48.1 L 173.8 50.1 L 171.9 52.1 L 170.0 54.2 L 167.8 56.4 L 166.19499998092653 58.62916669845581 L 167.0 59.3 L 167.0 63.3 L 133.4544303894043 63.3 L 130.7 70.1 L 129.8971652984619 71.50985612869263 L 131.0 71.7 L 136.5 72.9 L 141.6 74.3 L 146.2 76.0 L 150.5 77.8 L 154.3 79.9 L 157.8 82.1 L 161.0 84.7 L 163.7 87.5 L 166.0 90.6 L 166.2 95.2 L 163.3 98.7 L 158.7 98.9 L 155.2 96.0 L 154.4 94.0 Z " />
</g>
</svg>
