<svg xmlns="http://www.w3.org/2000/svg" xmlns:xlink="http://www.w3.org/1999/xlink" version="1.1" baseProfile="full" viewBox="0 0 200 200" width="200" height="200">
<g fill="black">
<path d="M 12.9 95.0 L 12.9 91.0 L 37.1 91.0 L 37.1 14.8 L 49.1 16.8 L 52.1 18.8 L 49.1 20.6 L 49.1 91.0 L 51.4 91.0 L 61.4 81.0 L 73.4 91.0 L 73.4 95.0 L 57.9 95.0 L 57.9 148.4333333015442 L 60.1 146.6 L 63.8 143.6 L 67.7 140.5 L 71.8 137.3 L 76.1 134.0 L 77.4 135.2 L 74.3 139.7 L 71.3 143.9 L 68.3 148.0 L 65.3 151.8 L 62.4 155.4 L 59.5 158.9 L 56.7 162.1 L 54.0 165.3 L 51.62908926010132 167.8465337753296 L 52.2 171.9 L 48.7 171.0 L 39.2 163.5 L 40.7 162.1 L 43.6 159.9 L 46.7 157.5 L 46.9 157.33870964050294 L 46.9 95.0 L 38.5 95.0 L 38.5 112.8 L 38.1 122.1 L 37.2 131.1 L 36.0 139.6 L 34.4 147.8 L 32.4 155.5 L 30.0 162.9 L 27.2 169.8 L 24.0 176.2 L 20.3 182.1 L 16.1 187.5 L 14.7 186.6 L 17.2 180.5 L 19.5 174.2 L 21.6 167.7 L 23.3 160.9 L 24.8 153.7 L 26.0 146.3 L 26.9 138.4 L 27.4 130.3 L 27.6 121.7 L 27.5 112.8 L 27.5 95.0 Z M 117.6 181.8 L 115.1 181.4 L 112.7 180.6 L 110.5 179.3 L 108.4 177.7 L 106.8 175.7 L 105.6 173.4 L 104.8 171.0 L 104.3 168.5 L 104.2 166.0 L 104.2 124.0 L 116.2 126.0 L 119.2 128.0 L 116.2 129.8 L 116.2 166.0 L 116.3 167.2 L 116.4 168.1 L 116.6 168.7 L 116.8 169.0 L 116.9 169.2 L 117.1 169.4 L 117.5 169.5 L 118.0 169.7 L 119.0 169.9 L 120.2 170.0 L 156.0 170.0 L 162.0 145.0 L 164.0 145.0 L 162.0 170.0 L 165.6 172.4 L 168.0 176.0 L 165.6 179.6 L 162.0 182.0 L 120.2 182.0 Z M 77.4 174.1 L 75.6 169.9 L 77.3 165.6 L 79.0 164.1 L 80.7 162.0 L 82.4 159.3 L 83.9 156.1 L 85.4 152.3 L 86.7 147.9 L 87.9 142.9 L 88.9 137.5 L 89.9 131.5 L 90.7 125.0 L 92.5 124.9 L 93.4 131.5 L 94.0 137.8 L 94.1 143.6 L 94.0 149.0 L 93.5 154.1 L 92.7 158.8 L 91.6 163.1 L 90.1 167.1 L 88.2 170.7 L 85.9 174.0 L 81.6 175.8 Z M 174.9 156.9 L 174.0 153.0 L 173.0 149.2 L 171.7 145.5 L 170.3 141.8 L 168.7 138.1 L 166.9 134.5 L 164.9 130.9 L 162.7 127.3 L 164.0 126.0 L 167.4 128.7 L 170.7 131.6 L 173.7 134.8 L 176.5 138.2 L 179.0 141.8 L 181.2 145.7 L 183.3 149.7 L 185.0 154.0 L 186.6 158.4 L 187.9 162.9 L 186.9 167.4 L 183.0 169.9 L 178.6 168.9 L 176.1 165.1 L 175.6 160.9 Z M 135.1 141.7 L 134.1 138.7 L 133.0 135.9 L 131.8 133.1 L 130.4 130.3 L 129.0 127.7 L 127.5 125.1 L 125.9 122.5 L 123.9 120.3 L 125.0 118.9 L 127.7 120.5 L 130.5 122.1 L 133.2 124.1 L 135.7 126.3 L 138.1 128.7 L 140.4 131.4 L 142.5 134.3 L 144.5 137.4 L 146.4 140.7 L 148.1 144.1 L 147.8 148.7 L 144.5 151.8 L 139.9 151.5 L 136.8 148.1 L 136.0 144.9 Z M 118.7 105.0 L 136.7 105.0 L 137.9 104.9 L 138.8 104.7 L 139.7 104.4 L 140.1 104.0 L 140.3 103.7 L 140.4 103.1 L 140.6 102.2 L 140.7 101.0 L 140.7 46.0 L 128.87387390136718 46.0 L 128.3 55.1 L 127.0 65.6 L 125.0 75.4 L 122.2 84.4 L 118.7 92.6 L 114.5 100.1 L 109.6 106.7 L 104.0 112.4 L 97.7 117.1 L 90.8 120.7 L 89.9 119.2 L 95.4 114.1 L 100.2 108.7 L 104.4 102.8 L 107.9 96.3 L 110.9 89.3 L 113.3 81.6 L 115.1 73.2 L 116.4 64.2 L 117.0 54.4 L 117.0 46.0 L 78.2 46.0 L 78.2 42.0 L 126.0 42.0 L 126.0 13.0 L 138.0 15.0 L 141.0 17.0 L 138.0 18.8 L 138.0 42.0 L 163.7 42.0 L 173.7 32.0 L 185.7 42.0 L 185.7 46.0 L 152.7 46.0 L 152.7 101.0 L 152.5 103.5 L 152.1 106.0 L 151.3 108.4 L 150.1 110.7 L 148.4 112.7 L 146.4 114.3 L 144.1 115.6 L 141.7 116.4 L 139.2 116.8 L 136.7 117.0 L 136.7 111.0 L 118.7 108.0 Z M 106.9 62.1 L 109.5 64.6 L 105.82291297912597 65.93712253570557 L 105.3 67.8 L 103.5 73.3 L 101.4 78.6 L 99.0 83.7 L 96.4 88.5 L 93.5 93.2 L 90.3 97.5 L 86.8 101.6 L 83.0 105.3 L 78.9 108.6 L 77.5 107.3 L 80.1 102.9 L 82.5 98.4 L 84.7 94.0 L 86.8 89.5 L 88.7 84.8 L 90.4 80.1 L 91.9 75.2 L 93.2 70.2 L 94.3 65.1 L 95.0462459564209 60.7054407119751 L 95.0 60.7 L 95.5 57.9 Z M 171.9 91.8 L 170.4 87.5 L 168.8 83.3 L 167.0 79.2 L 165.2 75.3 L 161.2 67.7 L 157.0 60.3 L 158.3 59.0 L 161.8 61.7 L 165.2 64.6 L 168.4 67.8 L 171.4 71.3 L 174.2 75.1 L 176.9 79.1 L 179.4 83.3 L 181.7 87.7 L 183.9 92.4 L 186.0 97.2 L 185.6 101.8 L 182.2 104.8 L 177.6 104.4 L 174.6 101.0 L 173.3 96.3 Z M 70.6 36.8 L 73.2 39.3 L 69.54043006896973 40.630752658843996 L 69.3 41.5 L 67.9 46.2 L 66.5 50.8 L 65.0 55.4 L 63.5 59.9 L 61.9 64.3 L 60.1 68.7 L 58.3 73.0 L 56.2 77.3 L 54.0 81.4 L 52.3 80.9 L 52.8 76.2 L 53.3 71.6 L 56.1 53.2 L 58.750184535980225 35.40590410232544 L 58.7 35.4 L 59.2 32.5 Z M 22.5 66.0 L 22.2 62.2 L 21.2 54.2 L 20.5 50.1 L 19.7 46.0 L 18.8 41.7 L 17.8 37.3 L 16.7 32.9 L 18.3 32.1 L 20.9 36.0 L 23.3 40.0 L 25.4 43.9 L 27.3 48.0 L 29.0 52.1 L 30.5 56.2 L 31.8 60.3 L 32.9 64.4 L 33.9 68.6 L 34.6 72.7 L 33.1 77.1 L 29.1 79.2 L 24.7 77.7 L 22.6 73.6 L 22.6 69.9 Z " />
</g>
</svg>
