<svg xmlns="http://www.w3.org/2000/svg" xmlns:xlink="http://www.w3.org/1999/xlink" version="1.1" baseProfile="full" viewBox="0 0 200 200" width="200" height="200">
<g fill="black">
<path d="M 108.3 124.4 L 107.4 121.5 L 106.3 118.7 L 105.0 115.8 L 103.6 113.0 L 102.0 110.1 L 101.6 109.39411764144897 L 101.6 183.0 L 89.6 189.0 L 89.6 113.09245281219482 L 89.1 113.8 L 83.5 121.1 L 77.4 128.0 L 70.8 134.5 L 69.5 133.4 L 74.4 125.7 L 79.1 118.0 L 83.6 110.3 L 87.8 102.4 L 89.6 98.8 L 89.6 97.0 L 90.5 97.0 L 91.8 94.4 L 95.5 86.3 L 98.9 78.0 L 102.0 69.6 L 104.8 61.0 L 106.22045450210571 56.0 L 73.0 56.0 L 73.0 52.0 L 89.6 52.0 L 89.6 12.0 L 101.6 14.0 L 104.6 16.0 L 101.6 17.8 L 101.6 52.0 L 107.1 52.0 L 113.1 47.0 L 124.1 56.0 L 119.1 59.0 L 117.37043476104736 59.720652198791505 L 115.6 64.7 L 112.0 73.5 L 108.1 82.1 L 103.9 90.4 L 100.1518518447876 97.0 L 101.6 97.0 L 101.6 102.91290321350098 L 103.5 104.2 L 106.3 106.5 L 108.9 108.9 L 111.4 111.5 L 113.7 114.2 L 115.8 117.0 L 117.8 119.9 L 119.5 123.0 L 121.1 126.2 L 120.8 130.7 L 117.4 133.8 L 112.9 133.5 L 109.8 130.1 L 109.1 127.2 Z M 181.4 145.0 L 183.4 145.0 L 181.4 170.0 L 185.0 172.4 L 187.4 176.0 L 185.0 179.6 L 181.4 182.0 L 166.4 182.0 L 163.8 181.8 L 161.3 181.4 L 158.9 180.6 L 156.7 179.3 L 154.6 177.7 L 153.0 175.7 L 151.8 173.4 L 151.0 171.0 L 150.5 168.5 L 150.4 166.0 L 150.4 130.6490566253662 L 148.75237293243407 131.42623920440673 L 147.8 137.2 L 145.5 146.1 L 142.6 154.3 L 139.0 161.8 L 134.7 168.5 L 129.7 174.4 L 124.1 179.4 L 117.9 183.6 L 111.2 186.7 L 103.9 188.8 L 103.2 187.1 L 109.4 183.3 L 114.9 179.1 L 119.7 174.6 L 123.9 169.5 L 127.6 163.9 L 130.6 157.7 L 133.2 150.9 L 135.1 143.4 L 136.6 135.2 L 136.657142829895 134.5714285850525 L 125.0 140.4 L 125.0 19.2 L 137.0 25.2 L 165.6 25.2 L 171.6 20.2 L 182.6 29.2 L 177.6 33.2 L 177.6 128.4 L 165.6 134.4 L 165.6 122.4 L 162.4 122.4 L 162.4 167.2 L 162.6 168.1 L 162.8 168.7 L 163.0 169.0 L 163.1 169.2 L 163.3 169.4 L 164.2 169.7 L 165.1 169.9 L 166.4 170.0 L 175.4 170.0 Z M 28.0 161.0 L 17.0 166.5 L 17.0 50.0 L 28.0 52.0 L 30.7 54.0 L 28.0 55.723404216766355 L 28.0 145.0 L 36.0 145.0 L 36.0 20.0 L 46.0 22.0 L 48.5 24.0 L 46.0 25.66666669845581 L 46.0 145.0 L 55.3 145.0 L 55.3 50.0 L 66.3 52.0 L 69.0 54.0 L 66.3 55.723404216766355 L 66.3 155.0 L 55.3 160.5 L 55.3 149.0 L 28.0 149.0 Z M 137.0 122.4 L 137.0 130.8 L 137.30908412933348 127.4000750541687 L 137.3 127.4 L 137.6 124.2 L 149.4 127.5 L 150.4 128.3214285850525 L 150.4 122.4 Z M 137.0 90.0 L 137.0 118.4 L 165.6 118.4 L 165.6 90.0 Z M 137.0 59.6 L 137.0 86.0 L 165.6 86.0 L 165.6 59.6 Z M 137.0 29.2 L 137.0 55.6 L 165.6 55.6 L 165.6 29.2 Z " />
</g>
</svg>
