<svg xmlns="http://www.w3.org/2000/svg" xmlns:xlink="http://www.w3.org/1999/xlink" version="1.1" baseProfile="full" viewBox="0 0 200 200" width="200" height="200">
<g fill="black">
<path d="M 54.9 146.9 L 52.0 142.6 L 48.9 138.6 L 48.5578125 138.19365234375 L 48.2 139.2 L 42.6 151.4 L 36.4 162.4 L 29.5 172.2 L 21.9 180.6 L 13.6 187.6 L 12.3 186.3 L 19.0 178.1 L 25.1 169.1 L 30.7 159.2 L 35.7 148.2 L 40.2 136.2 L 41.82403173446655 130.7449189186096 L 38.6 127.7 L 34.7 124.5 L 31.772701930999755 122.15816154479981 L 30.3 131.9 L 17.6 136.0 L 28.79934902191162 62.0 L 17.0 62.0 L 17.0 58.0 L 29.404719257354735 58.0 L 36.2 13.1 L 47.7 16.8 L 50.4 19.3 L 47.171914196014406 20.29325714111328 L 41.47167682647705 58.0 L 54.0 58.0 L 60.0 53.0 L 71.0 62.0 L 66.0 65.0 L 65.31512193679809 65.28536586761474 L 63.7 78.5 L 60.8 95.4 L 57.3 111.1 L 53.0 125.7 L 51.88412570953369 128.83839645385743 L 55.7 132.2 L 59.8 136.2 L 63.6 140.6 L 67.2 145.3 L 70.7 150.4 L 71.2 154.9 L 68.4 158.6 L 63.9 159.1 L 60.3 156.3 L 57.7 151.5 Z M 153.8 174.5 L 161.8 174.5 L 163.0 174.4 L 163.9 174.3 L 164.5 174.1 L 164.8 173.9 L 165.0 173.8 L 165.2 173.6 L 165.3 173.2 L 165.5 172.7 L 165.7 171.7 L 165.8 170.5 L 165.8 149.8 L 151.4 149.8 L 151.4 178.5 L 140.4 184.0 L 140.4 149.8 L 128.3 149.8 L 128.3 178.5 L 117.3 184.0 L 117.3 149.8 L 104.3 149.8 L 104.3 181.3 L 92.3 187.3 L 92.3 134.025 L 91.8 137.4 L 90.3 145.1 L 88.3 152.1 L 86.0 158.7 L 83.3 164.6 L 80.1 170.0 L 76.5 174.8 L 72.5 178.7 L 68.1 181.9 L 66.8 180.6 L 69.6 176.3 L 72.1 171.7 L 74.3 166.9 L 76.3 161.7 L 78.0 156.0 L 79.3 149.8 L 80.4 143.2 L 81.2 136.1 L 81.6 128.4 L 81.8 120.3 L 81.8 73.0 L 93.8 79.0 L 163.0 79.0 L 169.0 74.0 L 180.0 83.0 L 175.0 87.0 L 175.0 104.2 L 163.0 110.2 L 163.0 104.2 L 93.8 104.2 L 93.8 113.25 L 104.3 118.5 L 165.8 118.5 L 171.8 113.5 L 182.8 122.5 L 177.8 126.5 L 177.8 170.5 L 177.6 173.1 L 177.2 175.6 L 176.4 178.0 L 175.1 180.2 L 173.5 182.3 L 171.5 183.9 L 169.2 185.1 L 166.8 185.9 L 164.3 186.4 L 161.8 186.5 L 161.8 180.5 L 153.8 177.5 Z M 104.3 122.5 L 104.3 145.8 L 117.3 145.8 L 117.3 122.5 Z M 128.3 122.5 L 128.3 145.8 L 140.4 145.8 L 140.4 122.5 Z M 151.4 122.5 L 151.4 145.8 L 165.8 145.8 L 165.8 122.5 Z M 40.86698522567749 62.0 L 32.419629859924314 117.87877016067505 L 32.5 117.9 L 37.5 119.9 L 42.4 122.4 L 44.00681848526001 123.4129942893982 L 44.1 123.1 L 47.5 108.9 L 50.2 93.5 L 52.4 77.1 L 53.76497173309326 62.0 Z M 93.8 83.0 L 93.8 100.2 L 163.0 100.2 L 163.0 83.0 Z M 185.1 61.5 L 185.1 65.5 L 73.8 65.5 L 73.8 61.5 L 166.9181818008423 61.5 L 175.1 52.5 Z M 107.2 46.4 L 106.7 44.8 L 106.0 43.1 L 105.0 41.3 L 103.9 39.5 L 102.5 37.6 L 101.0 35.6 L 99.3 33.6 L 98.00625 32.7 L 96.12790699005127 32.7 L 94.5 35.5 L 91.7 39.7 L 88.7 43.6 L 85.4 47.3 L 81.7 50.9 L 77.7 54.1 L 73.5 57.1 L 72.3 55.8 L 75.1 51.6 L 77.8 47.5 L 80.3 43.5 L 82.5 39.4 L 84.6 35.4 L 86.4 31.3 L 87.9 27.2 L 89.3 23.0 L 90.4 18.7 L 91.01355094909668 15.40216360092163 L 91.0 15.4 L 91.04941177368164 15.209411811828613 L 91.2 14.4 L 91.25568113327026 14.413801288604736 L 91.7 12.7 L 102.9 17.3 L 105.3 20.0 L 101.53943309783935 21.141600704193117 L 101.2 22.1 L 99.3 26.7 L 98.27777776718139 28.7 L 116.71818180084229 28.7 L 124.9 19.7 L 134.9 28.7 L 134.9 32.7 L 103.45 32.7 L 105.7 33.6 L 108.0 34.8 L 110.2 36.2 L 112.3 37.7 L 114.2 39.3 L 115.9 41.0 L 117.5 42.9 L 118.9 45.0 L 118.8 49.6 L 115.6 52.8 L 111.0 52.7 L 107.8 49.4 L 107.6 47.9 Z M 159.4 46.4 L 158.8 44.8 L 158.1 43.1 L 157.2 41.3 L 156.0 39.5 L 154.7 37.6 L 153.1 35.6 L 151.4 33.6 L 150.1625 32.7 L 147.94146337509156 32.7 L 146.6 34.9 L 143.8 38.7 L 140.7 42.4 L 137.3 45.7 L 133.7 48.9 L 129.7 51.7 L 125.6 54.2 L 124.4 52.8 L 127.4 49.1 L 130.1 45.4 L 132.6 41.7 L 134.8 38.0 L 136.8 34.3 L 138.6 30.5 L 140.1 26.6 L 141.4 22.6 L 142.5 18.5 L 143.1777624130249 15.412415885925293 L 143.1 15.4 L 143.8 12.7 L 155.0 17.3 L 157.4 20.0 L 153.60691423416137 21.15147247314453 L 153.3 22.0 L 151.3 26.5 L 150.1744186401367 28.7 L 169.51818180084229 28.7 L 177.7 19.7 L 187.7 28.7 L 187.7 32.7 L 155.55 32.7 L 157.8 33.6 L 160.2 34.8 L 162.4 36.2 L 164.4 37.7 L 166.3 39.3 L 168.1 41.0 L 169.7 42.9 L 171.1 45.0 L 170.9 49.6 L 167.7 52.8 L 163.1 52.7 L 159.9 49.4 L 159.7 47.9 Z " />
</g>
</svg>
