<svg xmlns="http://www.w3.org/2000/svg" xmlns:xlink="http://www.w3.org/1999/xlink" version="1.1" baseProfile="full" viewBox="0 0 200 200" width="200" height="200">
<g fill="black">
<path d="M 27.1 161.0 L 15.1 167.0 L 15.1 50.0 L 27.1 52.0 L 30.1 54.0 L 27.1 55.8 L 27.1 145.0 L 39.5 145.0 L 39.5 20.0 L 51.5 22.0 L 54.5 24.0 L 51.5 25.8 L 51.5 145.0 L 65.6 145.0 L 65.6 50.0 L 77.6 52.0 L 80.6 54.0 L 77.6 55.8 L 77.6 155.0 L 65.6 161.0 L 65.6 149.0 L 27.1 149.0 Z M 122.31269845962524 122.5 L 121.4 125.0 L 119.0 131.1 L 116.5 137.1 L 113.9 142.9 L 111.96687107086181 147.13801345825195 L 114.4 147.6 L 122.0 149.5 L 129.4 151.9 L 135.73114185333253 154.18624563217162 L 138.7 149.3 L 142.7 140.4 L 145.8 130.5 L 147.4 122.5 Z M 164.2 95.1 L 159.4 90.3 L 155.5 84.7 L 152.3 78.5 L 150.0 71.7 L 148.4 64.3 L 148.0858823776245 61.47294120788574 L 146.2 67.4 L 142.5 75.4 L 138.1 82.5 L 132.8 88.8 L 126.8 94.1 L 123.64900989532471 96.12227725982666 L 130.2 99.1 L 132.5 101.9 L 129.05736169815063 102.7455602645874 L 128.1 105.8 L 126.0 112.3 L 123.771875 118.5 L 161.8 118.5 L 171.8 108.5 L 183.8 118.5 L 183.8 122.5 L 159.6675000190735 122.5 L 156.8 133.6 L 152.6 144.6 L 147.4 154.3 L 144.8790252685547 157.83749685287475 L 150.5 160.4 L 157.1 163.8 L 163.6 167.4 L 169.9 171.2 L 175.9 175.3 L 178.2 179.2 L 177.1 183.7 L 173.1 185.9 L 168.7 184.8 L 163.3 180.5 L 157.8 176.4 L 152.0 172.4 L 146.0 168.6 L 139.9 164.9 L 139.52693729400636 164.6959813117981 L 133.9 170.4 L 125.7 176.5 L 116.5 181.3 L 106.5 184.8 L 95.7 187.0 L 84.1 187.8 L 83.9 186.0 L 94.9 183.3 L 104.8 179.7 L 113.6 175.4 L 121.3 170.3 L 128.1 164.2 L 131.3602105140686 160.26526317596435 L 126.9 157.9 L 120.1 154.6 L 113.1 151.2 L 110.58861436843873 149.99736461639404 L 105.7 159.6 L 95.1 153.9 L 97.8 148.7 L 100.4 143.4 L 103.0 137.9 L 105.5 132.3 L 107.9 126.6 L 109.49830513000488 122.5 L 80.3 122.5 L 80.3 118.5 L 110.99344263076782 118.5 L 112.4 114.6 L 114.6 108.4 L 116.7 102.1 L 117.47879514694213 99.56891565322876 L 112.7 101.7 L 104.7 103.8 L 104.1 102.1 L 111.1 98.2 L 117.2 93.9 L 122.5 89.2 L 127.1 83.8 L 131.0 77.9 L 134.1 71.4 L 136.7 64.2 L 138.5 56.2 L 139.7 47.5 L 140.13157892227173 39.3 L 132.63090906143188 39.3 L 132.5 39.7 L 130.3 44.8 L 127.9 49.6 L 125.2 54.0 L 122.1 57.9 L 118.7 61.4 L 114.9 64.2 L 113.6 63.0 L 115.7 59.0 L 117.6 55.0 L 119.4 50.9 L 121.0 46.5 L 122.4 41.9 L 123.5 37.1 L 124.5 31.9 L 125.2 26.5 L 125.7 20.7 L 125.95084037780762 15.599579811096191 L 125.9 15.6 L 126.2 12.4 L 138.0 15.5 L 140.8 17.7 L 137.39911451339722 19.465844440460206 L 137.0 22.1 L 135.8 28.3 L 134.3 34.2 L 133.93999996185303 35.3 L 168.5 35.3 L 174.5 30.3 L 185.5 39.3 L 180.5 42.3 L 177.77437181472777 43.43567838668823 L 177.5 43.9 L 174.5 48.7 L 172.9 51.2 L 171.2 53.8 L 169.4 56.4 L 167.5 59.2 L 165.4 61.9 L 163.6 65.0 L 162.0 64.2 L 163.1 60.9 L 163.8 57.5 L 164.5 54.3 L 165.2 51.2 L 165.9 48.2 L 167.3 42.6 L 167.9 40.0 L 168.03999996185303 39.3 L 152.1192307472229 39.3 L 151.40227270126343 45.51363639831543 L 151.7 47.3 L 153.4 55.4 L 155.4 62.6 L 157.8 68.9 L 160.7 74.4 L 163.9 78.9 L 167.5 82.7 L 171.4 85.7 L 175.6 88.0 L 180.4 89.7 L 187.6 92.2 L 176.0 102.1 L 169.8 99.0 Z M 82.5 86.2 L 85.6 84.8 L 88.8 83.2 L 92.1 81.6 L 99.1 78.0 L 102.9 76.1 L 106.7 74.1 L 110.7 72.1 L 115.0 70.1 L 119.2 67.9 L 120.3 69.4 L 116.8 72.7 L 113.5 76.0 L 110.1 79.1 L 106.8 82.0 L 103.6 84.7 L 100.5 87.4 L 97.4 89.8 L 94.4 92.2 L 92.13219995498658 93.92040004730225 L 91.9 98.1 L 88.6 96.5 L 80.8 87.2 Z M 101.1 41.8 L 100.2 39.9 L 99.1 38.1 L 97.9 36.2 L 96.6 34.4 L 95.1 32.6 L 93.5 30.7 L 91.7 28.8 L 89.5 27.4 L 90.3 25.8 L 92.8 26.8 L 95.5 27.4 L 98.0 28.4 L 100.5 29.5 L 102.9 30.8 L 105.1 32.2 L 107.3 33.9 L 109.3 35.7 L 111.3 37.7 L 113.1 39.8 L 113.6 44.4 L 110.8 48.0 L 106.2 48.5 L 102.6 45.7 L 101.9 43.8 Z " />
</g>
</svg>
