<svg xmlns="http://www.w3.org/2000/svg" xmlns:xlink="http://www.w3.org/1999/xlink" version="1.1" baseProfile="full" viewBox="0 0 200 200" width="200" height="200">
<g fill="black">
<path d="M 55.9 162.5 L 52.0 157.1 L 47.8 152.0 L 43.3 147.3 L 43.14428949356079 147.15754137039184 L 39.9 155.5 L 35.7 163.8 L 30.8 171.3 L 25.2 178.0 L 18.8 183.8 L 11.8 188.7 L 10.6 187.2 L 16.1 181.1 L 21.0 174.6 L 25.3 167.7 L 28.9 160.3 L 32.0 152.4 L 34.5 143.9 L 35.24195804595947 140.19020977020264 L 33.7 138.9 L 28.4 135.1 L 22.9 131.6 L 17.1 128.1 L 17.7 126.4 L 24.4 128.1 L 31.0 130.4 L 36.5435977935791 133.0823860168457 L 37.6 125.2 L 38.2 114.9 L 38.2 104.0 L 25.5 104.0 L 25.5 111.0 L 13.5 117.0 L 13.5 46.0 L 25.5 52.0 L 38.2 52.0 L 38.2 14.0 L 50.2 16.0 L 53.2 18.0 L 50.2 19.8 L 50.2 52.0 L 63.2 52.0 L 68.2 47.0 L 78.2 56.0 L 73.2 59.0 L 73.2 110.0 L 63.2 115.0 L 63.2 104.0 L 50.2 104.0 L 49.6 115.6 L 48.2 126.6 L 46.1 136.9 L 45.621977996826175 138.59963369369507 L 48.9 140.9 L 54.4 145.5 L 59.5 150.5 L 64.4 156.0 L 69.1 161.9 L 73.4 168.3 L 73.9 172.9 L 71.2 176.5 L 66.7 177.1 L 63.0 174.4 L 59.6 168.2 Z M 181.8 152.4 L 180.5 154.6 L 179.0 156.5 L 177.1 158.2 L 175.1 159.6 L 172.8 160.7 L 170.4 161.4 L 167.9 161.8 L 165.3 162.0 L 165.3 156.0 L 157.3 153.0 L 157.3 150.0 L 165.3 150.0 L 166.6 149.9 L 167.7 149.7 L 168.5 149.5 L 169.2 149.2 L 170.2 148.4 L 170.6 147.8 L 171.1 147.1 L 171.5 146.1 L 171.8 144.8 L 172.8 140.8 L 173.6 135.7 L 174.0 129.7 L 174.0 123.2 L 173.6 116.4 L 172.4 109.6 L 170.6 102.8 L 168.1 96.4 L 164.7 90.4 L 160.8 84.3 L 160.93915662765502 84.1102409362793 L 159.7 83.6 L 161.0 77.2 L 162.4 70.9 L 163.8 64.9 L 165.2 59.0 L 166.5 53.2 L 167.7 47.6 L 168.9 42.2 L 169.9 36.9 L 170.8 31.7 L 171.10600004196166 30.0 L 154.5 30.0 L 154.5 183.2 L 143.5 188.7 L 143.5 20.5 L 154.5 26.0 L 171.5 26.0 L 177.5 21.0 L 188.5 30.0 L 183.5 33.0 L 182.11229047775268 33.57821226119995 L 181.9 34.3 L 180.3 39.5 L 178.5 44.8 L 176.7 50.2 L 174.6 55.7 L 172.4 61.3 L 170.0 66.9 L 167.4 72.7 L 164.6 78.5 L 162.14670677185057 82.94659385681152 L 168.8 86.9 L 174.0 93.0 L 177.9 99.9 L 180.9 107.3 L 182.8 114.9 L 184.1 122.5 L 184.6 129.7 L 184.6 136.5 L 184.2 142.5 L 183.5 147.6 L 182.8 150.1 Z M 124.4 171.3 L 122.7 168.6 L 120.8 165.9 L 118.7 163.1 L 116.4 160.4 L 113.8 157.6 L 111.1 154.8 L 108.30162935256958 152.0949083328247 L 106.7 157.1 L 103.4 164.1 L 99.4 170.4 L 94.7 176.0 L 89.2 180.9 L 83.1 185.0 L 76.2 188.3 L 75.3 186.7 L 80.8 182.0 L 85.6 177.0 L 89.6 171.8 L 93.0 166.3 L 95.8 160.4 L 97.9 154.1 L 99.3 147.4 L 99.49014081954957 145.9 L 75.8 145.9 L 75.8 141.9 L 99.99718313217163 141.9 L 100.2 140.3 L 100.4 132.6 L 100.04846525192261 125.39353799819946 L 100.0 125.4 L 99.9 122.2 L 112.0 123.8 L 115.1 125.7 L 111.91249151229859 127.7816382408142 L 111.8 132.9 L 110.8 141.5 L 110.7160493850708 141.9 L 119.6 141.9 L 129.6 131.9 L 141.6 141.9 L 141.6 145.9 L 109.87654323577881 145.9 L 109.19012975692749 149.17055835723878 L 109.7 149.4 L 113.6 151.1 L 117.4 153.0 L 120.9 155.1 L 124.1 157.4 L 127.2 159.8 L 130.1 162.3 L 132.8 165.0 L 135.2 167.9 L 137.4 170.9 L 137.9 175.4 L 135.1 179.0 L 130.6 179.5 L 127.0 176.7 L 125.8 174.0 Z M 127.8 18.0 L 130.0 20.8 L 125.6085602760315 21.801556396484376 L 125.3 22.3 L 124.0 24.5 L 122.6 26.6 L 121.2 28.8 L 119.7 30.9 L 118.1 33.0 L 116.4 35.1 L 114.5 37.1 L 113.32608699798584 38.9 L 117.1 38.9 L 127.1 28.9 L 139.1 38.9 L 139.1 42.9 L 116.2 42.9 L 116.2 56.8 L 125.3 56.8 L 129.8 51.8 L 139.3 60.8 L 134.3 63.3 L 134.3 123.5 L 125.3 128.0 L 125.3 119.5 L 89.0 119.5 L 89.0 126.5 L 81.0 130.5 L 81.0 52.8 L 89.0 56.8 L 96.5 56.8 L 96.5 42.9 L 76.0 42.9 L 76.0 38.9 L 112.11111106872559 38.9 L 111.4 38.5 L 112.4 36.0 L 113.4 30.8 L 114.4 25.8 L 114.9 23.4 L 115.7 18.8 L 116.0 16.5 L 116.17171640396118 15.240746307373048 L 116.0 15.2 L 116.8 12.8 Z M 89.0 103.7 L 89.0 115.5 L 125.3 115.5 L 125.3 103.7 Z M 25.5 56.0 L 25.5 100.0 L 38.2 100.0 L 38.2 56.0 Z M 50.2 56.0 L 50.2 100.0 L 63.2 100.0 L 63.2 56.0 Z M 116.5 76.5 L 116.8 77.4 L 117.2 78.0 L 117.6 78.5 L 118.0 78.9 L 118.7 79.3 L 119.6 79.5 L 119.98999996185303 79.59750003814698 L 123.9 70.8 L 125.3 70.8 L 125.3 60.8 L 116.2 60.8 L 116.2 73.8 L 116.3 75.3 Z M 125.3 73.5 L 123.9 79.8 L 125.3 80.73333330154419 Z M 104.5 42.9 L 104.5 56.8 L 108.2 56.8 L 108.2 42.9 Z M 93.3 30.2 L 93.2 28.5 L 93.0 26.9 L 92.8 25.2 L 92.5 23.5 L 92.1 21.7 L 91.1 18.1 L 90.0 16.5 L 91.4 15.3 L 92.7 16.7 L 94.5 17.8 L 97.7 20.4 L 99.1 21.9 L 100.5 23.5 L 102.9 26.9 L 104.0 28.8 L 104.9 30.7 L 104.1 35.2 L 100.4 37.9 L 95.9 37.1 L 93.2 33.4 L 93.3 31.8 Z M 119.9 87.7 L 117.7 87.3 L 115.6 86.6 L 113.6 85.6 L 111.9 84.2 L 110.5 82.4 L 109.5 80.5 L 108.8 78.4 L 108.4 76.2 L 108.2 73.8 L 108.2 60.8 L 104.49333333969116 60.8 L 104.2 65.2 L 103.6 69.5 L 102.8 73.5 L 101.7 77.4 L 100.4 81.1 L 98.9 84.6 L 97.1 87.8 L 95.1 90.8 L 92.8 93.5 L 90.5 96.1 L 89.6 95.3 L 91.2 92.4 L 92.5 89.3 L 93.6 86.2 L 94.6 83.0 L 95.4 79.6 L 96.0 76.1 L 96.4 72.5 L 96.6 68.7 L 96.7 64.8 L 96.50487804412842 60.8 L 89.0 60.8 L 89.0 99.7 L 125.3 99.7 L 125.3 86.86666669845582 L 123.9 87.8 L 122.2 87.8 Z " />
</g>
</svg>
