<svg xmlns="http://www.w3.org/2000/svg" xmlns:xlink="http://www.w3.org/1999/xlink" version="1.1" baseProfile="full" viewBox="0 0 200 200" width="200" height="200">
<g fill="black">
<path d="M 34.8 181.7 L 22.8 187.7 L 22.8 115.7 L 34.8 121.7 L 86.1 121.7 L 92.1 116.7 L 103.1 125.7 L 98.1 129.7 L 98.1 178.7 L 86.1 184.7 L 86.1 174.7 L 34.8 174.7 Z M 124.6 180.7 L 112.6 186.7 L 112.6 67.675 L 111.6 69.3 L 107.3 75.4 L 102.7 81.1 L 97.9 86.4 L 96.4 85.3 L 99.6 79.0 L 102.7 72.6 L 105.9 66.1 L 108.9 59.4 L 111.8 52.4 L 112.6 50.29629631042481 L 112.6 48.5 L 113.17396450042725 48.786982250213626 L 114.5 45.3 L 117.1 37.9 L 119.6 30.3 L 121.9 22.5 L 123.82690858840942 15.405472946166991 L 123.8 15.4 L 124.04210529327392 14.613157939910888 L 124.1 14.4 L 124.10705089569092 14.402084636688233 L 124.6 12.8 L 135.6 17.8 L 137.9 20.5 L 134.35369129180907 21.4499041557312 L 132.8 26.0 L 129.7 33.9 L 126.5 41.6 L 123.1 49.0 L 121.15681819915771 52.77840909957886 L 124.6 54.5 L 144.68695650100707 54.5 L 145.6 51.5 L 146.9 46.9 L 148.3 42.6 L 149.6 38.4 L 150.9 34.4 L 152.1 30.6 L 153.3 26.9 L 154.4 23.4 L 155.4 20.0 L 156.10816831588744 17.733861351013182 L 156.0 17.7 L 156.9 15.5 L 167.5 21.3 L 169.5 24.3 L 165.51580543518065 24.918237113952635 L 164.1 27.5 L 162.3 30.8 L 160.3 34.2 L 158.3 37.7 L 156.1 41.4 L 153.7 45.1 L 151.2 48.9 L 148.5 52.8 L 147.38048782348633 54.5 L 161.8 54.5 L 171.8 44.5 L 183.8 54.5 L 183.8 58.5 L 155.1 58.5 L 155.1 90.9 L 160.1 90.9 L 170.1 80.9 L 182.1 90.9 L 182.1 94.9 L 155.1 94.9 L 155.1 128.3 L 160.1 128.3 L 170.1 118.3 L 182.1 128.3 L 182.1 132.3 L 155.1 132.3 L 155.1 169.7 L 165.1 169.7 L 175.1 159.7 L 187.1 169.7 L 187.1 173.7 L 124.6 173.7 Z M 34.8 149.8 L 34.8 170.7 L 54.5 170.7 L 54.5 149.8 Z M 66.5 149.8 L 66.5 170.7 L 86.1 170.7 L 86.1 149.8 Z M 124.6 132.3 L 124.6 169.7 L 143.1 169.7 L 143.1 132.3 Z M 34.8 125.7 L 34.8 145.8 L 54.5 145.8 L 54.5 125.7 Z M 66.5 125.7 L 66.5 145.8 L 86.1 145.8 L 86.1 125.7 Z M 124.6 94.9 L 124.6 128.3 L 143.1 128.3 L 143.1 94.9 Z M 45.1 78.9 L 75.8 78.9 L 81.8 73.9 L 92.8 82.9 L 87.8 86.9 L 87.8 107.2 L 75.8 113.2 L 75.8 107.2 L 45.1 107.2 L 33.1 113.2 L 33.1 72.9 Z M 45.1 82.9 L 45.1 103.2 L 75.8 103.2 L 75.8 82.9 Z M 124.6 58.5 L 124.6 90.9 L 143.1 90.9 L 143.1 58.5 Z M 14.3 65.9 L 12.5 61.7 L 14.1 57.5 L 14.9 57.0 L 16.0 56.0 L 17.1 54.4 L 18.2 52.2 L 19.2 49.5 L 20.2 46.4 L 21.2 42.7 L 22.0 38.6 L 22.9 34.1 L 23.3 29.1 L 25.1 29.1 L 25.7 34.1 L 26.070212745666502 37.0 L 54.5 37.0 L 54.5 12.2 L 66.5 14.2 L 69.5 16.2 L 66.5 18.0 L 66.5 37.0 L 94.4 37.0 L 100.4 32.0 L 111.4 41.0 L 106.4 44.0 L 103.29325151443481 45.294478511810304 L 102.4 46.6 L 101.0 48.6 L 99.5 50.8 L 97.9 52.9 L 96.2 55.2 L 94.4 57.6 L 92.4 60.0 L 90.7 62.7 L 89.3 62.04117650985718 L 89.3 63.7 L 31.6 63.7 L 31.6 59.7 L 71.11818180084228 59.7 L 79.3 50.7 L 89.3 59.7 L 89.3 61.15 L 90.2 58.9 L 90.9 55.9 L 91.5 53.0 L 92.2 50.3 L 92.8 47.7 L 93.3 45.3 L 93.8 43.0 L 94.16363639831543 41.0 L 26.5 41.0 L 26.7 43.2 L 26.9 47.2 L 26.8 50.9 L 26.6 54.3 L 26.1 57.5 L 25.4 60.4 L 24.3 63.2 L 22.8 65.8 L 18.5 67.6 Z " />
</g>
</svg>
