<svg xmlns="http://www.w3.org/2000/svg" xmlns:xlink="http://www.w3.org/1999/xlink" version="1.1" baseProfile="full" viewBox="0 0 200 200" width="200" height="200">
<g fill="black">
<path d="M 90.4 175.1 L 101.6 175.1 L 102.5 174.9 L 103.1 174.7 L 103.5 174.5 L 103.8 174.2 L 104.0 173.9 L 104.2 173.3 L 104.3 172.4 L 104.4 171.1 L 104.4 148.5 L 81.9 148.5 L 81.9 181.3 L 70.9 186.8 L 70.9 93.4 L 81.9 98.9 L 104.4 98.9 L 110.4 93.9 L 121.4 102.9 L 116.4 106.9 L 116.4 171.1 L 116.2 173.7 L 115.8 176.2 L 115.0 178.6 L 113.8 180.8 L 112.1 182.9 L 110.1 184.5 L 107.8 185.7 L 105.4 186.5 L 102.9 187.0 L 100.4 187.1 L 100.4 181.1 L 90.4 178.1 Z M 133.5 175.6 L 144.4 175.6 L 145.1 175.4 L 145.5 175.3 L 145.7 175.1 L 145.9 175.0 L 146.1 174.7 L 146.3 174.3 L 146.5 173.5 L 146.7 172.5 L 146.7 128.7 L 127.5 128.7 L 127.5 124.7 L 146.7 124.7 L 146.7 98.0 L 121.6 98.0 L 121.6 94.0 L 146.7 94.0 L 146.7 67.3 L 132.2 67.3 L 132.2 65.47931032180786 L 131.3 67.0 L 128.2 71.6 L 124.8 75.6 L 123.2 74.7 L 124.8 69.8 L 126.5 64.7 L 128.2 59.5 L 129.8 54.0 L 131.4 48.3 L 132.9 42.4 L 134.3 36.1 L 135.6 29.6 L 136.8 22.8 L 137.75956363677977 16.60645275115967 L 137.7 16.6 L 138.3 13.8 L 149.7 17.9 L 152.3 20.4 L 148.75249996185303 21.689999961853026 L 147.9 25.1 L 146.13571424484252 31.6 L 159.2 31.6 L 165.2 26.6 L 176.2 35.6 L 171.2 38.6 L 168.8045976638794 39.5980842590332 L 168.0 41.1 L 166.5 44.0 L 164.9 46.9 L 163.2 49.9 L 161.4 53.0 L 157.4 59.2 L 155.1 62.4 L 154.52727270126343 63.3 L 167.9 63.3 L 173.4 58.3 L 183.9 67.3 L 178.9 70.8 L 178.9 91.46666669845581 L 181.5 88.0 L 187.5 94.0 L 187.5 98.0 L 178.9 98.0 L 178.9 134.7 L 167.9 140.2 L 167.9 128.7 L 157.7 128.7 L 157.7 171.1 L 157.6 173.6 L 157.2 175.9 L 156.6 178.2 L 155.6 180.3 L 154.2 182.2 L 152.4 183.9 L 150.3 185.2 L 148.1 186.0 L 145.8 186.5 L 143.5 186.6 L 143.5 181.1 L 133.5 178.4 Z M 26.8 42.0 L 48.4 42.0 L 53.9 37.0 L 64.4 46.0 L 59.4 49.5 L 59.4 140.0 L 48.4 145.5 L 48.4 134.0 L 26.8 134.0 L 26.8 146.0 L 14.8 152.0 L 14.8 36.0 Z M 81.9 125.7 L 81.9 144.5 L 104.4 144.5 L 104.4 125.7 Z M 26.8 46.0 L 26.8 130.0 L 48.4 130.0 L 48.4 46.0 Z M 157.7 98.0 L 157.7 124.7 L 167.9 124.7 L 167.9 98.0 Z M 81.9 102.9 L 81.9 121.7 L 104.4 121.7 L 104.4 102.9 Z M 157.7 67.3 L 157.7 94.0 L 167.9 94.0 L 167.9 67.3 Z M 64.6 80.1 L 87.4 80.1 L 87.4 61.4 L 70.8 61.4 L 70.8 57.4 L 87.4 57.4 L 87.4 38.6 L 68.2 38.6 L 68.2 34.6 L 87.4 34.6 L 87.4 12.8 L 99.4 14.8 L 102.4 16.8 L 99.4 18.6 L 99.4 34.6 L 104.3777777671814 34.6 L 110.6 27.6 L 118.6 34.6 L 118.6 38.6 L 99.4 38.6 L 99.4 57.4 L 101.77777776718139 57.4 L 108.0 50.4 L 116.0 57.4 L 116.0 61.4 L 99.4 61.4 L 99.4 80.1 L 104.01818180084229 80.1 L 112.2 71.1 L 122.2 80.1 L 122.2 84.1 L 64.6 84.1 Z M 144.93939390182496 35.6 L 144.0 38.7 L 141.8 45.1 L 139.4 51.1 L 136.9 56.7 L 134.2 62.1 L 133.4897958755493 63.3 L 151.87567567825317 63.3 L 152.5 61.2 L 153.4 57.4 L 154.2 53.8 L 156.0 47.0 L 156.8 43.7 L 158.2 37.5 L 158.64333333969117 35.6 Z " />
</g>
</svg>