<svg xmlns="http://www.w3.org/2000/svg" xmlns:xlink="http://www.w3.org/1999/xlink" version="1.1" baseProfile="full" viewBox="0 0 200 200" width="200" height="200">
<g fill="black">
<path d="M 55.4 146.1 L 52.8 142.0 L 50.083442783355714 138.4403733253479 L 49.8 139.2 L 44.0 151.5 L 37.5 162.5 L 30.4 172.3 L 22.4 180.7 L 13.8 187.6 L 12.7 186.3 L 19.7 178.1 L 26.0 169.1 L 31.9 159.1 L 37.2 148.2 L 41.8 136.2 L 43.443678855895996 130.94824542999268 L 39.8 127.6 L 35.8 124.4 L 32.96661214828491 122.30868988037109 L 31.5 131.9 L 18.8 136.0 L 30.119772148132324 62.0 L 17.5 62.0 L 17.5 58.0 L 30.731651782989502 58.0 L 37.6 13.1 L 49.1 16.8 L 51.8 19.3 L 48.55875091552734 20.33964595794678 L 42.80008687973022 58.0 L 56.3 58.0 L 62.3 53.0 L 73.3 62.0 L 68.3 65.0 L 67.5870415687561 65.29706602096557 L 65.9 78.5 L 62.9 95.4 L 59.2 111.2 L 54.8 125.8 L 53.566603374481204 129.10550289154054 L 56.8 131.8 L 60.6 135.8 L 64.2 140.1 L 67.5 144.7 L 70.5 149.6 L 70.7 154.2 L 67.8 157.6 L 63.2 157.9 L 59.7 154.9 L 57.7 150.4 Z M 75.0 175.3 L 95.0 175.3 L 96.2 175.2 L 97.7 174.9 L 98.1 174.7 L 98.3 174.5 L 98.4 174.3 L 98.6 174.0 L 98.8 173.4 L 98.9 172.5 L 99.0 171.3 L 99.0 147.07419357299804 L 98.5 147.3 L 92.6 149.9 L 87.1 152.2 L 81.8 154.4 L 80.6957654953003 154.81960916519165 L 79.6 158.6 L 76.8 156.3 L 71.3 145.5 L 73.2 144.9 L 78.2 143.6 L 83.5 142.1 L 89.2 140.4 L 95.2 138.6 L 99.0 137.4125 L 99.0 114.6 L 108.38255033493041 116.16375837326049 L 109.8 113.2 L 110.8 110.8 L 111.7 108.5 L 112.6 106.1 L 113.3 103.6 L 114.1 101.1 L 114.35384616851806 100.0 L 100.91142854690551 100.0 L 94.3 108.9 L 86.0 118.9 L 77.3 128.2 L 68.0 136.8 L 66.7 135.6 L 74.4 125.7 L 81.8 115.5 L 88.9 105.1 L 92.11111106872559 100.0 L 76.5 100.0 L 76.5 96.0 L 94.629629611969 96.0 L 95.7 94.3 L 102.1 83.1 L 103.99743585586548 79.4 L 70.7 79.4 L 70.7 75.4 L 94.8 75.4 L 94.8 47.1 L 78.2 47.1 L 78.2 43.1 L 94.8 43.1 L 94.8 14.7 L 106.8 16.7 L 109.8 18.7 L 106.8 20.5 L 106.8 43.1 L 112.1 43.1 L 116.6 37.1 L 120.99550561904907 41.49550561904907 L 123.8 33.9 L 128.3 20.6 L 128.8 19.1 L 139.7 24.4 L 141.9 27.2 L 138.3169587135315 28.017184829711915 L 134.5 38.0 L 128.9 51.1 L 122.8 63.7 L 116.51487607955933 75.4 L 123.4777777671814 75.4 L 129.7 68.4 L 134.5752223968506 72.66581954956055 L 135.8 68.0 L 137.8 59.8 L 139.6 51.4 L 141.2 42.7 L 142.7 33.7 L 144.0 24.4 L 145.1 14.8 L 145.1327102661133 14.804672908782958 L 145.4 12.8 L 157.0 16.5 L 159.7 18.9 L 156.27916221618653 20.38451452255249 L 155.2 26.2 L 153.2 35.7 L 151.0 44.8 L 148.6 53.6 L 146.42823534011842 60.7 L 166.8181818008423 60.7 L 175.0 51.7 L 185.0 60.7 L 185.0 64.7 L 174.51935482025146 64.7 L 172.6 81.7 L 169.7 99.0 L 166.0 114.8 L 161.5 129.4 L 158.1171848297119 137.76129789352416 L 161.1 143.6 L 166.3 151.7 L 171.9 158.8 L 177.9 165.0 L 184.4 170.2 L 187.2 172.4 L 176.3 180.6 L 169.2 173.9 L 162.7 166.2 L 157.0 157.7 L 152.60903034210205 149.27650718688966 L 150.0 154.2 L 143.0 164.5 L 135.3 173.3 L 126.6 180.5 L 117.3 186.0 L 116.4 184.4 L 124.2 177.6 L 131.3 169.7 L 137.7 160.8 L 143.3 150.6 L 148.3 139.2 L 148.30043478012084 139.19871587753295 L 147.8 138.0 L 144.3 126.8 L 141.4 114.8 L 139.3 101.9 L 138.0 88.2 L 137.85303955078126 82.83594226837158 L 136.6 85.6 L 132.8 92.7 L 129.49004564285278 98.02821922302246 L 131.9 100.0 L 126.9 103.0 L 124.17931032180786 104.13362064361573 L 123.4 105.4 L 121.7 107.9 L 119.9 110.3 L 118.0 112.5 L 116.0 114.5 L 113.9 116.4 L 112.41789474487305 117.54526319503785 L 114.0 118.6 L 111.0 120.4 L 111.0 133.48732395172118 L 115.4 132.0 L 122.9 129.6 L 130.7 127.1 L 139.0 124.6 L 139.7 126.2 L 132.2 130.6 L 124.9 134.5 L 117.9 138.1 L 111.2 141.4 L 111.0 141.49538459777833 L 111.0 171.3 L 110.9 173.8 L 110.4 176.3 L 109.6 178.7 L 108.4 181.0 L 106.8 183.0 L 104.7 184.7 L 102.5 185.9 L 100.1 186.7 L 97.6 187.1 L 95.0 187.3 L 95.0 181.3 L 75.0 178.3 Z M 145.08048782348632 64.7 L 143.1 70.3 L 140.19863243103026 77.60021514892578 L 142.1 87.6 L 145.1 100.8 L 148.4 113.1 L 152.2 124.2 L 152.80938081741334 125.67992496490479 L 156.2 112.4 L 159.1 97.1 L 161.3 80.3 L 162.50662984848023 64.7 Z M 42.18844480514527 62.0 L 33.62271661758423 118.01791572570801 L 38.5 119.8 L 43.5 122.2 L 45.7602463722229 123.54652976989746 L 45.9 123.1 L 49.4 108.8 L 52.3 93.5 L 54.6 77.0 L 56.04886360168457 62.0 Z M 114.15862064361572 79.4 L 109.4 87.4 L 103.69272727966309 96.0 L 114.9 96.0 L 120.9 91.0 L 127.7043478012085 96.56719369888306 L 129.3 91.2 L 131.6 83.7 L 132.77272729873658 79.4 Z M 106.8 47.1 L 106.8 73.93500003814697 L 108.1 71.4 L 113.8 59.4 L 118.91680002212524 47.1 Z " />
</g>
</svg>
