<svg xmlns="http://www.w3.org/2000/svg" xmlns:xlink="http://www.w3.org/1999/xlink" version="1.1" baseProfile="full" viewBox="0 0 200 200" width="200" height="200">
<g fill="black">
<path d="M 45.5 15.0 L 48.5 17.0 L 45.5 18.8 L 45.5 182.0 L 33.5 188.0 L 33.5 13.0 Z M 165.5 153.4 L 164.2 150.1 L 162.7 146.8 L 159.7 140.6 L 158.1 137.6 L 156.4 134.7 L 154.7 131.7 L 152.7 129.0 L 154.0 127.7 L 156.8 129.7 L 159.7 131.7 L 162.5 134.0 L 165.2 136.6 L 167.7 139.3 L 170.2 142.2 L 172.5 145.3 L 174.8 148.6 L 176.9 152.0 L 179.0 155.6 L 179.0 160.2 L 175.9 163.5 L 171.3 163.5 L 168.0 160.4 L 166.8 156.9 Z M 127.5 98.3 L 127.5 116.9 L 153.8 116.9 L 153.8 98.3 Z M 15.5 100.5 L 12.7 96.9 L 13.3 92.4 L 14.5 90.7 L 15.8 88.6 L 17.1 86.0 L 18.3 82.9 L 19.6 79.5 L 20.9 75.6 L 22.1 71.2 L 23.4 66.5 L 24.8 61.4 L 26.0 55.9 L 27.8 56.0 L 27.9 61.7 L 28.1 67.1 L 28.1 72.1 L 27.8 76.8 L 27.5 81.1 L 27.0 85.2 L 26.4 88.9 L 25.6 92.3 L 24.7 95.4 L 23.6 98.3 L 20.0 101.1 Z M 166.5 87.2 L 165.8 86.29736843109131 L 165.8 120.9 L 153.8 126.9 L 153.8 120.9 L 146.7 120.9 L 146.7 152.5 L 146.5 155.1 L 146.1 157.5 L 145.3 160.0 L 144.0 162.2 L 142.4 164.2 L 140.4 165.9 L 138.1 167.1 L 135.7 167.9 L 133.2 168.4 L 130.7 168.5 L 130.7 162.5 L 110.7 159.5 L 110.7 156.894117641449 L 108.2 159.1 L 104.7 162.0 L 102.65603160858154 163.60202932357788 L 106.1 166.8 L 110.8 169.8 L 116.7 172.2 L 124.0 173.9 L 133.4 175.0 L 145.1 175.3 L 159.4 174.9 L 176.7 173.8 L 187.7 173.1 L 177.5 187.0 L 159.8 187.5 L 144.8 187.1 L 132.2 186.0 L 121.8 183.9 L 113.3 180.9 L 106.4 176.9 L 101.0 172.0 L 97.1 166.3 L 94.3 160.0 L 93.32614660263062 156.54282035827637 L 92.5 157.8 L 90.4 161.3 L 88.3 164.7 L 86.1 167.9 L 83.8 171.1 L 81.6 174.2 L 77.2 180.2 L 75.43214282989501 182.45 L 76.3 186.5 L 72.8 185.9 L 62.7 179.0 L 64.1 177.5 L 66.8 175.3 L 69.5 172.9 L 72.3 170.6 L 75.1 168.2 L 80.9 163.2 L 83.9 160.7 L 84.7 160.05483875274658 L 84.7 96.3 L 66.4 96.3 L 66.4 92.3 L 84.7 92.3 L 90.7 87.3 L 99.97941884994506 94.89225177764892 L 103.6 90.7 L 108.9 83.8 L 113.7 76.6 L 115.5 73.49090909957886 L 115.5 71.10222225189209 L 113.2 71.0 L 110.0 67.7 L 109.6 65.5 L 108.8 61.3 L 108.3 59.2 L 107.8 57.2 L 106.8 53.4 L 106.2 51.4 L 105.7 49.5 L 104.7 48.0 L 106.0 46.8 L 107.4 48.1 L 109.2 49.3 L 110.9 50.6 L 112.5 52.1 L 114.1 53.7 L 115.6 55.4 L 117.1 57.3 L 118.5 59.2 L 119.9 61.3 L 121.01041669845581 63.17916669845581 L 122.1 61.0 L 125.6 52.6 L 128.7 43.8 L 129.29139785766603 41.6 L 100.9 41.6 L 100.9 37.6 L 130.36666669845582 37.6 L 131.2 34.5 L 133.4 24.7 L 135.0 14.4 L 135.06493864059448 14.410368347167969 L 135.4 12.4 L 146.9 16.3 L 149.5 18.8 L 146.04594593048097 20.14324321746826 L 144.5 27.1 L 141.6 37.4 L 141.5278350830078 37.6 L 158.4 37.6 L 168.4 27.6 L 180.4 37.6 L 180.4 41.6 L 148.33965520858766 41.6 L 150.9 46.1 L 154.1 51.7 L 157.4 57.0 L 160.7 62.0 L 163.74891300201415 66.3043478012085 L 163.8 66.1 L 164.5 63.5 L 165.3 60.9 L 166.7 55.9 L 167.4 53.6 L 168.1 51.2 L 168.7 49.0 L 169.05061378479004 47.65598039627075 L 168.9 47.6 L 169.29310340881347 46.7264368057251 L 169.3 46.7 L 169.30413036346437 46.70193252563477 L 169.8 45.6 L 180.2 51.8 L 182.0 54.9 L 177.6300000190735 55.36000003814697 L 175.8 57.8 L 174.2 59.8 L 172.6 61.9 L 170.9 63.9 L 169.1 66.0 L 167.2 68.0 L 166.0309597969055 69.22749223709107 L 167.6 71.2 L 171.3 75.3 L 175.1 79.2 L 179.1 82.7 L 183.3 86.0 L 185.6 88.0 L 174.7 96.1 L 170.4 91.8 Z M 127.5 75.6 L 127.5 94.3 L 153.8 94.3 L 153.8 75.6 Z M 55.5 77.0 L 54.9 74.3 L 54.3 71.5 L 53.5 68.6 L 52.6 65.7 L 51.5 62.7 L 50.4 59.6 L 49.1 56.4 L 47.5 53.3 L 48.9 52.2 L 51.3 54.8 L 53.9 57.3 L 56.3 59.9 L 58.4 62.5 L 60.4 65.2 L 62.2 68.0 L 63.8 70.9 L 65.3 73.8 L 66.6 76.7 L 67.8 79.7 L 66.9 84.2 L 63.2 86.9 L 58.7 86.0 L 56.1 82.3 L 55.8 79.7 Z M 140.08453607559204 41.6 L 138.1 47.1 L 134.1 56.3 L 129.6 64.9 L 125.94433965682984 70.8221697807312 L 127.5 71.6 L 153.8 71.6 L 155.4235294342041 70.2470588684082 L 153.4 66.2 L 150.9 60.3 L 148.7 54.1 L 147.0 47.6 L 146.0149253845215 41.6 Z M 86.2 49.4 L 85.0 46.4 L 83.7 43.4 L 82.2 40.4 L 80.6 37.5 L 78.9 34.6 L 77.0 31.6 L 75.0 28.7 L 72.7 25.9 L 73.8 24.5 L 77.0 26.5 L 80.1 28.5 L 83.1 30.8 L 85.9 33.2 L 88.6 35.8 L 91.0 38.6 L 93.3 41.6 L 95.5 44.7 L 97.5 48.0 L 99.3 51.4 L 99.1 56.0 L 95.8 59.2 L 91.3 59.0 L 88.1 55.7 L 87.2 52.5 Z M 127.5 120.9 L 115.5 126.9 L 115.5 84.41311473846436 L 113.0 87.2 L 106.3 93.4 L 99.1 98.7 L 98.93728809356689 98.510169506073 L 96.7 100.3 L 96.7 154.8 L 95.98917198181152 155.15541400909424 L 98.0 158.0 L 100.9745283126831 161.7372278213501 L 102.3 159.8 L 104.6 156.0 L 106.8 152.3 L 109.0 148.7 L 111.0 145.1 L 112.9 141.6 L 114.6 138.1 L 116.2 134.6 L 117.7 131.2 L 118.65768022537232 128.62163009643555 L 118.6 128.6 L 118.97636365890503 127.76363639831543 L 119.0 127.7 L 119.00412368774414 127.70194730758666 L 119.5 126.6 L 129.8 132.8 L 131.7 135.9 L 127.75351686477661 136.30825691223146 L 127.7 136.4 L 125.4 139.8 L 123.0 143.2 L 120.4 146.5 L 117.6 149.8 L 114.7 153.0 L 111.6 156.1 L 111.14666662216186 156.5 L 130.7 156.5 L 131.9 156.4 L 132.8 156.3 L 133.4 156.1 L 133.7 155.9 L 133.9 155.7 L 134.1 155.6 L 134.2 155.2 L 134.4 154.6 L 134.6 153.7 L 134.7 152.5 L 134.7 120.9 Z " />
</g>
</svg>
