<svg xmlns="http://www.w3.org/2000/svg" xmlns:xlink="http://www.w3.org/1999/xlink" version="1.1" baseProfile="full" viewBox="0 0 200 200" width="200" height="200">
<g fill="black">
<path d="M 146.9 186.5 L 135.1 185.3 L 125.3 183.1 L 117.3 180.0 L 110.8 175.9 L 105.8 170.8 L 102.2 165.0 L 99.6 158.6 L 98.83562650680543 155.36265354156495 L 98.3 156.3 L 96.4 159.9 L 92.4 166.7 L 90.4 169.9 L 88.3 173.1 L 86.3 176.1 L 84.3 179.2 L 82.69252843856812 181.41984167099 L 83.8 185.5 L 80.2 185.0 L 69.9 178.6 L 71.2 177.1 L 73.7 174.7 L 78.9 169.9 L 81.6 167.4 L 84.3 164.8 L 87.1 162.3 L 89.9 159.7 L 91.0 158.6758620262146 L 91.0 93.1 L 73.8 93.1 L 73.8 89.1 L 91.0 89.1 L 96.5 84.1 L 107.0 93.1 L 102.0 96.6 L 102.0 153.7 L 101.53584909439087 153.93207550048828 L 103.4 156.8 L 107.1 161.8 L 111.1 165.9 L 115.6 169.0 L 120.9 171.4 L 127.7 173.2 L 136.4 174.3 L 147.3 174.7 L 160.6 174.3 L 176.6 173.1 L 187.6 172.3 L 177.6 186.3 L 160.9 186.8 Z M 30.6 173.9 L 19.6 179.4 L 19.6 53.8 L 30.6 55.8 L 33.4 57.8 L 30.6 59.55 L 30.6 157.9 L 38.2 157.9 L 38.2 20.9 L 48.2 22.9 L 50.7 24.9 L 48.2 26.566666698455812 L 48.2 157.9 L 57.1 157.9 L 57.1 53.8 L 68.1 55.8 L 70.8 57.8 L 68.1 59.52340421676636 L 68.1 167.9 L 57.1 173.4 L 57.1 161.9 L 30.6 161.9 Z M 148.1 151.8 L 160.1 151.8 L 161.3 151.7 L 162.2 151.6 L 162.8 151.4 L 163.2 151.2 L 163.5 150.9 L 163.7 150.5 L 163.9 149.9 L 164.0 149.0 L 164.1 147.8 L 164.1 119.6 L 149.4 119.6 L 149.4 151.0 L 137.4 157.0 L 137.4 119.6 L 122.2 119.6 L 122.2 157.5 L 111.2 163.0 L 111.2 55.6 L 122.2 61.1 L 142.5 61.1 L 139.4 58.0 L 138.6 55.2 L 137.8 52.6 L 136.8 50.0 L 135.8 47.5 L 134.7 45.0 L 132.3 40.4 L 129.5 35.8 L 127.7 33.9 L 128.7 32.4 L 131.1 33.8 L 133.7 35.1 L 136.2 36.7 L 138.5 38.5 L 140.8 40.6 L 142.9 42.8 L 145.0 45.2 L 146.04162435531617 46.62538070678711 L 146.2 46.4 L 148.4 42.7 L 150.4 39.2 L 152.3 36.0 L 153.9 33.0 L 155.4 30.2 L 156.6 27.7 L 157.35 25.9 L 114.1 25.9 L 114.1 21.9 L 158.3 21.9 L 158.7382022857666 21.53483142852783 L 158.8 21.3 L 158.94089307785035 21.365922451019287 L 164.3 16.9 L 175.3 25.9 L 170.3 28.9 L 166.74692735671997 30.380446910858154 L 166.5 30.7 L 164.6 32.9 L 162.5 35.2 L 160.1 37.7 L 157.6 40.2 L 154.8 42.8 L 151.7 45.5 L 148.3 48.2 L 147.59512195587158 48.842682933807374 L 148.7 50.5 L 150.5 53.4 L 150.4 58.0 L 147.39393939971924 61.1 L 164.1 61.1 L 170.1 56.1 L 181.1 65.1 L 176.1 69.1 L 176.1 147.8 L 176.0 150.3 L 175.5 152.8 L 174.7 155.2 L 173.5 157.5 L 171.8 159.5 L 169.8 161.2 L 167.6 162.4 L 165.2 163.2 L 162.7 163.6 L 160.1 163.8 L 160.1 157.8 L 148.1 154.8 Z M 122.2 92.0 L 122.2 115.6 L 137.4 115.6 L 137.4 92.0 Z M 149.4 92.0 L 149.4 115.6 L 164.1 115.6 L 164.1 92.0 Z M 122.2 65.1 L 122.2 88.0 L 137.4 88.0 L 137.4 65.1 Z M 149.4 65.1 L 149.4 88.0 L 164.1 88.0 L 164.1 65.1 Z M 91.8 44.7 L 90.8 41.6 L 89.6 38.5 L 88.2 35.4 L 86.8 32.4 L 85.2 29.4 L 83.5 26.5 L 81.7 23.5 L 79.6 20.7 L 80.8 19.3 L 86.8 23.5 L 89.6 25.9 L 92.3 28.4 L 94.8 31.2 L 97.1 34.1 L 99.3 37.1 L 101.3 40.3 L 103.2 43.7 L 104.9 47.2 L 104.6 51.8 L 101.2 54.9 L 96.7 54.5 L 93.6 51.2 L 92.8 47.9 Z " />
</g>
</svg>
