<svg xmlns="http://www.w3.org/2000/svg" xmlns:xlink="http://www.w3.org/1999/xlink" version="1.1" baseProfile="full" viewBox="0 0 200 200" width="200" height="200">
<g fill="black">
<path d="M 101.5 175.2 L 122.7 175.2 L 123.6 175.0 L 124.2 174.8 L 124.5 174.6 L 124.7 174.5 L 124.9 174.3 L 125.2 173.4 L 125.4 172.5 L 125.5 171.2 L 125.5 126.1 L 84.0 126.1 L 84.0 122.1 L 157.0 122.1 L 167.0 112.1 L 179.0 122.1 L 179.0 126.1 L 137.5 126.1 L 137.5 171.2 L 137.3 173.8 L 136.9 176.3 L 136.1 178.7 L 134.8 181.0 L 133.2 183.0 L 131.2 184.6 L 128.9 185.8 L 126.5 186.6 L 124.0 187.1 L 121.5 187.2 L 121.5 181.2 L 101.5 178.2 Z M 114.1 142.1 L 116.1 145.1 L 112.24931154251098 145.64044752120972 L 111.8 146.5 L 109.3 150.9 L 106.5 155.2 L 103.5 159.5 L 100.3 163.7 L 96.9 167.7 L 93.2 171.7 L 89.2 175.6 L 84.9 179.3 L 80.2 182.8 L 78.9 181.6 L 82.1 176.8 L 85.1 172.2 L 88.0 167.7 L 90.8 163.2 L 93.3 158.9 L 95.7 154.5 L 97.8 150.2 L 99.8 146.0 L 101.5 141.7 L 102.67047357559204 138.42267408370972 L 102.6 138.4 L 102.96666669845581 137.59333333969116 L 103.0 137.5 L 103.00764989852905 137.5031702041626 L 103.6 136.2 Z M 166.3 167.9 L 164.6 164.2 L 162.6 160.5 L 160.5 156.9 L 158.1 153.3 L 155.6 149.8 L 152.8 146.3 L 149.9 142.7 L 146.7 139.2 L 147.8 137.8 L 152.1 140.1 L 156.2 142.6 L 160.0 145.4 L 163.6 148.5 L 167.0 151.8 L 170.1 155.3 L 173.0 159.0 L 175.7 162.9 L 178.1 167.0 L 180.3 171.3 L 180.2 175.9 L 176.9 179.1 L 172.4 179.0 L 169.1 175.7 L 167.8 171.8 Z M 24.5 161.0 L 13.5 166.5 L 13.5 50.0 L 24.5 52.0 L 27.2 54.0 L 24.5 55.723404216766355 L 24.5 145.0 L 36.5 145.0 L 36.5 20.0 L 47.5 22.0 L 50.2 24.0 L 47.5 25.723404216766358 L 47.5 145.0 L 60.6 145.0 L 60.6 50.0 L 72.6 52.0 L 75.6 54.0 L 72.6 55.8 L 72.6 155.0 L 60.6 161.0 L 60.6 149.0 L 24.5 149.0 Z M 166.7 95.6 L 162.3 90.3 L 158.1 84.7 L 154.1 78.8 L 150.4 72.7 L 146.9 66.3 L 143.7 59.6 L 140.8 52.6 L 138.62702703475952 45.9 L 127.8336633682251 45.9 L 126.9 48.2 L 122.1 57.9 L 116.7 67.2 L 110.6 76.1 L 103.9 84.7 L 96.4 92.7 L 88.3 100.3 L 79.4 107.3 L 78.2 106.0 L 85.6 97.6 L 92.4 89.2 L 98.6 80.7 L 104.3 71.9 L 109.4 63.0 L 113.8 53.8 L 116.9936170578003 45.9 L 81.2 45.9 L 81.2 41.9 L 118.42474222183228 41.9 L 120.8 34.7 L 123.4 24.7 L 125.20383996963501 15.500415992736816 L 125.2 15.5 L 125.7 12.6 L 137.2 16.8 L 139.7 19.3 L 136.22416353225708 20.56394052505493 L 134.4 27.6 L 131.0 38.1 L 129.4574257850647 41.9 L 159.7 41.9 L 169.7 31.9 L 181.7 41.9 L 181.7 45.9 L 141.0714285850525 45.9 L 144.5 50.7 L 148.8 56.7 L 153.0 62.5 L 157.3 68.0 L 161.6 73.3 L 166.1 78.2 L 170.6 82.9 L 175.2 87.4 L 179.9 91.5 L 184.7 95.4 L 187.0 97.3 L 176.2 105.4 L 171.3 100.6 Z M 157.7 92.6 L 157.7 96.6 L 105.2 96.6 L 105.2 92.6 L 135.7 92.6 L 145.7 82.6 Z " />
</g>
</svg>
