<svg xmlns="http://www.w3.org/2000/svg" xmlns:xlink="http://www.w3.org/1999/xlink" version="1.1" baseProfile="full" viewBox="0 0 200 200" width="200" height="200">
<g fill="black">
<path d="M 59.3 14.7 L 62.3 16.7 L 59.3 18.5 L 59.3 72.7 L 73.9 72.7 L 83.9 62.7 L 95.9 72.7 L 95.9 76.7 L 59.3 76.7 L 59.3 182.5 L 47.3 188.5 L 47.3 76.7 L 13.1 76.7 L 13.1 72.7 L 47.3 72.7 L 47.3 12.7 Z M 158.7 162.0 L 151.1 149.6 L 144.7 135.6 L 139.5 120.1 L 135.4 103.1 L 132.4 84.6 L 131.10971269607543 70.26347465515137 L 128.4 88.3 L 124.0 107.7 L 118.5 125.3 L 111.8 141.0 L 103.9 154.8 L 94.8 166.6 L 84.5 176.2 L 73.1 183.7 L 72.1 182.2 L 81.9 173.4 L 90.6 163.2 L 98.3 151.3 L 104.9 137.8 L 110.5 122.6 L 115.0 105.5 L 118.5 86.6 L 120.9 65.9 L 122.2 43.4 L 122.5 19.0 L 122.5 16.6 L 134.5 19.0 L 137.5 21.0 L 134.359605884552 22.884236431121828 L 133.83664598464966 37.35279502868652 L 134.2 42.9 L 136.5 64.0 L 139.6 83.5 L 143.5 101.3 L 148.4 117.3 L 154.1 131.6 L 160.7 144.1 L 168.2 155.0 L 176.5 164.1 L 185.6 171.7 L 188.6 173.9 L 177.7 182.2 L 167.6 172.9 Z " />
</g>
</svg>
