<svg xmlns="http://www.w3.org/2000/svg" xmlns:xlink="http://www.w3.org/1999/xlink" version="1.1" baseProfile="full" viewBox="0 0 200 200" width="200" height="200">
<g fill="black">
<path d="M 70.5 175.6 L 86.2 175.6 L 86.2 126.9 L 98.2 132.9 L 159.7 132.9 L 165.7 127.9 L 176.7 136.9 L 171.7 140.9 L 171.7 175.6 L 176.9 175.6 L 181.4 169.6 L 187.4 175.6 L 187.4 179.6 L 70.5 179.6 Z M 98.2 136.9 L 98.2 175.6 L 110.7 175.6 L 110.7 136.9 Z M 122.7 136.9 L 122.7 175.6 L 135.2 175.6 L 135.2 136.9 Z M 147.2 136.9 L 147.2 175.6 L 159.7 175.6 L 159.7 136.9 Z M 30.4 36.0 L 57.9 36.0 L 63.9 31.0 L 74.9 40.0 L 69.9 44.0 L 69.9 156.0 L 57.9 162.0 L 57.9 152.0 L 30.4 152.0 L 30.4 164.0 L 18.4 170.0 L 18.4 30.0 Z M 30.4 96.0 L 30.4 148.0 L 57.9 148.0 L 57.9 96.0 Z M 102.5 26.2 L 161.0 26.2 L 171.0 16.2 L 183.0 26.2 L 183.0 30.2 L 102.5 30.2 L 102.5 64.5 L 159.0 64.5 L 169.0 54.5 L 181.0 64.5 L 181.0 68.5 L 140.50322580337524 68.5 L 142.6 73.5 L 145.3 79.2 L 148.4 84.5 L 151.4757363319397 88.93267879486083 L 154.1 86.6 L 156.7 84.3 L 159.3 82.2 L 161.8 80.1 L 164.2 78.1 L 166.6 76.3 L 171.0 72.7 L 172.28510437011718 71.72087287902832 L 172.2 71.6 L 172.30472221374512 71.70592594146729 L 173.1 71.1 L 175.1 74.53333330154419 L 180.9 80.4 L 181.0 83.8 L 177.11694917678832 82.19322032928467 L 176.6 82.4 L 174.0 83.4 L 171.4 84.5 L 168.6 85.6 L 165.7 86.7 L 159.5 89.1 L 156.2 90.2 L 153.24944496154785 91.15459127426148 L 155.6 94.0 L 159.9 98.1 L 164.6 102.0 L 169.9 105.5 L 175.6 108.7 L 181.8 111.6 L 187.4 114.3 L 176.1 123.5 L 169.3 119.5 L 163.1 115.2 L 157.5 110.4 L 152.6 105.3 L 148.3 99.8 L 144.8 93.9 L 141.9 87.8 L 139.8 81.3 L 138.6 74.6 L 138.25142860412598 68.5 L 125.5 68.5 L 125.5 105.8115385055542 L 127.3 105.5 L 132.6 104.6 L 137.9 103.8 L 143.3 103.1 L 148.7 102.7 L 149.2 104.5 L 144.3 106.8 L 139.3 109.0 L 129.3 112.8 L 124.3 114.6 L 119.3 116.3 L 114.3 118.1 L 109.4 119.7 L 104.4 121.4 L 103.44777326583862 121.71093120574952 L 102.2 125.4 L 99.5 123.0 L 94.4 112.0 L 96.4 111.5 L 101.5 110.4 L 111.7 108.4 L 114.5 107.8615385055542 L 114.5 68.5 L 102.5 68.5 L 102.5 70.0 L 101.9 77.1 L 100.9 83.9 L 99.3 90.3 L 97.1 96.2 L 94.5 101.8 L 91.3 106.8 L 87.6 111.4 L 83.4 115.5 L 78.6 118.9 L 73.4 121.7 L 72.5 120.3 L 76.4 116.2 L 79.8 112.0 L 82.8 107.7 L 85.3 103.2 L 87.4 98.5 L 89.1 93.4 L 90.3 88.1 L 91.1 82.4 L 91.5 76.3 L 91.5 20.7 Z M 30.4 40.0 L 30.4 92.0 L 57.9 92.0 L 57.9 40.0 Z M 171.0 44.8 L 171.0 48.8 L 111.0 48.8 L 111.0 44.8 L 152.8181818008423 44.8 L 161.0 35.8 Z " />
</g>
</svg>
