<svg xmlns="http://www.w3.org/2000/svg" xmlns:xlink="http://www.w3.org/1999/xlink" version="1.1" baseProfile="full" viewBox="0 0 200 200" width="200" height="200">
<g fill="black">
<path d="M 70.7 144.0 L 69.7 141.3 L 68.3 138.5 L 66.5 135.6 L 64.5 132.6 L 62.1 129.6 L 59.3 126.5 L 57.7 124.73999996185303 L 57.7 182.1 L 45.7 188.1 L 45.7 133.0 L 42.0 141.2 L 38.0 148.9 L 33.8 155.9 L 29.3 162.4 L 24.4 168.3 L 19.2 173.4 L 13.7 177.8 L 12.4 176.5 L 16.3 170.9 L 20.1 165.0 L 23.8 158.8 L 27.2 152.2 L 30.4 145.1 L 33.5 137.6 L 36.3 129.5 L 38.8 121.0 L 41.2 112.0 L 42.480246925354 105.9 L 31.6 105.9 L 31.6 117.9 L 19.6 123.9 L 19.6 60.3 L 31.6 66.3 L 45.7 66.3 L 45.7 44.5 L 13.9 44.5 L 13.9 40.5 L 45.7 40.5 L 45.7 12.8 L 57.7 14.8 L 60.7 16.8 L 57.7 18.6 L 57.7 40.5 L 67.5 40.5 L 77.5 30.5 L 89.5 40.5 L 89.5 44.5 L 57.7 44.5 L 57.7 66.3 L 71.7 66.3 L 77.7 61.3 L 88.7 70.3 L 83.7 74.3 L 83.7 109.9 L 71.7 115.9 L 71.7 105.9 L 57.7 105.9 L 57.7 120.59534883499146 L 58.1 120.8 L 62.2 122.9 L 66.0 125.3 L 69.4 127.8 L 72.5 130.4 L 75.3 133.2 L 77.9 136.2 L 80.1 139.3 L 82.0 142.5 L 83.5 145.9 L 82.9 150.5 L 79.4 153.3 L 74.8 152.7 L 72.0 149.2 L 71.5 146.6 Z M 101.5 181.0 L 89.5 187.0 L 89.5 107.7 L 101.5 113.7 L 170.4 113.7 L 176.4 108.7 L 187.4 117.7 L 182.4 121.7 L 182.4 178.0 L 170.4 184.0 L 170.4 174.0 L 101.5 174.0 Z M 101.5 117.7 L 101.5 170.0 L 116.3 170.0 L 116.3 117.7 Z M 128.3 117.7 L 128.3 170.0 L 143.6 170.0 L 143.6 117.7 Z M 155.6 117.7 L 155.6 170.0 L 170.4 170.0 L 170.4 117.7 Z M 91.0 91.6 L 95.2 90.8 L 99.5 90.1 L 104.0 89.3 L 104.1 89.28125 L 104.1 13.7 L 116.1 15.7 L 119.1 17.7 L 116.1 19.5 L 116.1 45.2 L 124.1777777671814 45.2 L 130.4 38.2 L 138.4 45.2 L 138.4 49.2 L 116.1 49.2 L 116.1 87.0764705657959 L 118.8 86.6 L 124.1 85.7 L 129.7 84.8 L 135.4 84.0 L 141.4 83.4 L 141.9 85.1 L 136.5 87.7 L 131.1 90.0 L 125.9 92.0 L 120.8 94.0 L 115.9 95.7 L 111.1 97.4 L 106.6 99.0 L 102.2 100.5 L 97.9 101.9 L 97.87791929244995 101.9071762084961 L 96.5 105.6 L 93.9 103.2 L 89.1 92.0 Z M 31.6 70.3 L 31.6 101.9 L 45.7 101.9 L 45.7 70.3 Z M 57.7 70.3 L 57.7 101.9 L 71.7 101.9 L 71.7 70.3 Z M 182.2 73.0 L 184.2 73.0 L 182.2 90.0 L 185.2 92.0 L 187.2 95.0 L 185.2 98.0 L 182.2 100.0 L 157.3 100.0 L 154.9 99.7 L 152.6 99.0 L 150.4 97.9 L 148.4 96.4 L 146.7 94.6 L 145.4 92.4 L 144.6 90.1 L 144.0 87.6 L 143.8 85.0 L 143.8 13.7 L 155.8 15.7 L 158.8 17.7 L 155.8 19.5 L 155.8 50.27142858505249 L 156.6 49.7 L 159.9 47.4 L 163.1 45.2 L 166.2 43.1 L 169.1 41.1 L 171.8 39.2 L 174.4 37.3 L 176.8 35.5 L 178.2772357940674 34.40813007354736 L 178.2 34.3 L 178.2937463760376 34.395926570892335 L 179.1 33.8 L 181.23587388992308 37.40647563934326 L 186.8 43.1 L 186.9 46.5 L 183.1307159423828 44.91293306350708 L 182.4 45.2 L 179.5 46.5 L 176.4 47.7 L 173.2 48.9 L 169.8 50.1 L 166.2 51.4 L 162.5 52.6 L 158.5 53.8 L 155.8 54.52439022064209 L 155.8 85.0 L 155.7 86.3 L 155.8 87.2 L 155.9 87.9 L 156.0 88.3 L 156.2 88.7 L 156.4 89.0 L 156.8 89.3 L 157.4 89.6 L 158.4 89.9 L 159.8 90.0 L 177.2 90.0 Z " />
</g>
</svg>
