<svg xmlns="http://www.w3.org/2000/svg" xmlns:xlink="http://www.w3.org/1999/xlink" version="1.1" baseProfile="full" viewBox="0 0 200 200" width="200" height="200">
<g fill="black">
<path d="M 73.6 77.8 L 95.6 77.8 L 95.6 44.3 L 80.4 44.3 L 80.4 40.3 L 95.6 40.3 L 95.6 12.8 L 107.6 14.8 L 110.6 16.8 L 107.6 18.6 L 107.6 40.3 L 109.5 40.3 L 114.0 34.3 L 118.88596487045288 39.18596487045288 L 120.9 33.0 L 124.9 19.8 L 124.91817893981934 19.80569076538086 L 125.4 18.3 L 136.4 23.4 L 138.6 26.2 L 135.10144329071045 27.074639129638673 L 131.7 36.7 L 126.7 49.7 L 121.4 62.4 L 115.7 74.7 L 114.17583332061767 77.8 L 122.1777777671814 77.8 L 128.4 70.8 L 136.4 77.8 L 136.4 81.8 L 112.20916662216186 81.8 L 109.8 86.7 L 103.5 98.4 L 100.03245611190796 104.3 L 119.3 104.3 L 124.8 99.3 L 135.3 108.3 L 130.3 111.8 L 130.3 175.4 L 119.3 180.9 L 119.3 169.4 L 98.0 169.4 L 98.0 181.4 L 86.0 187.4 L 86.0 126.07066669464112 L 82.3 131.3 L 74.3 141.3 L 72.9 140.3 L 79.1 129.2 L 85.2 118.0 L 86.0 116.45423727035522 L 86.0 98.3 L 93.32068967819214 101.96034479141235 L 96.7 94.9 L 102.1 83.1 L 102.64793386459351 81.8 L 73.6 81.8 Z M 179.5 151.1 L 178.2 153.3 L 176.7 155.2 L 174.8 156.9 L 172.7 158.3 L 170.5 159.4 L 168.1 160.1 L 165.6 160.5 L 163.0 160.6 L 163.0 154.6 L 155.0 151.6 L 155.0 148.6 L 163.0 148.6 L 164.3 148.5 L 165.4 148.4 L 166.2 148.1 L 166.9 147.8 L 167.4 147.5 L 167.9 147.0 L 168.4 146.4 L 168.8 145.7 L 169.3 144.7 L 169.6 143.4 L 170.6 139.6 L 171.4 134.6 L 171.9 128.8 L 171.9 122.4 L 171.3 115.7 L 170.2 109.0 L 168.3 102.4 L 165.6 96.1 L 162.1 90.2 L 157.9 84.0 L 158.03026313781737 83.83421049118041 L 156.8 83.4 L 158.2 77.0 L 159.7 70.8 L 161.2 64.8 L 162.6 59.0 L 164.0 53.3 L 165.3 47.8 L 166.5 42.5 L 167.6 37.2 L 168.6 32.1 L 168.8938775062561 30.5 L 151.2 30.5 L 151.2 181.4 L 140.2 186.9 L 140.2 21.0 L 151.2 26.5 L 169.3 26.5 L 175.3 21.5 L 186.3 30.5 L 181.3 33.5 L 179.8371428489685 34.10952377319336 L 179.6 34.9 L 178.0 40.0 L 176.1 45.2 L 174.2 50.5 L 172.1 55.9 L 169.8 61.4 L 167.4 67.0 L 164.7 72.6 L 161.8 78.3 L 159.234153175354 82.7319172859192 L 166.1 86.6 L 171.4 92.5 L 175.6 99.3 L 178.6 106.6 L 180.6 114.1 L 181.9 121.6 L 182.5 128.7 L 182.5 135.4 L 182.1 141.3 L 181.3 146.4 L 180.5 148.8 Z M 30.4 36.0 L 57.9 36.0 L 63.9 31.0 L 74.9 40.0 L 69.9 44.0 L 69.9 158.0 L 57.9 164.0 L 57.9 152.0 L 30.4 152.0 L 30.4 164.0 L 18.4 170.0 L 18.4 30.0 Z M 98.0 138.9 L 98.0 165.4 L 119.3 165.4 L 119.3 138.9 Z M 30.4 96.0 L 30.4 148.0 L 57.9 148.0 L 57.9 96.0 Z M 98.0 108.3 L 98.0 134.9 L 119.3 134.9 L 119.3 108.3 Z M 30.4 40.0 L 30.4 92.0 L 57.9 92.0 L 57.9 40.0 Z M 107.6 44.3 L 107.6 69.98775510787964 L 112.1 58.6 L 116.7 45.9 L 117.22093019485473 44.3 Z " />
</g>
</svg>
