<svg xmlns="http://www.w3.org/2000/svg" xmlns:xlink="http://www.w3.org/1999/xlink" version="1.1" baseProfile="full" viewBox="0 0 200 200" width="200" height="200">
<g fill="black">
<path d="M 17.1 172.8 L 23.8 171.9 L 30.6 171.0 L 44.2 169.4 L 45.6 169.23768119812013 L 45.6 143.7 L 25.2 143.7 L 25.2 139.7 L 45.6 139.7 L 45.6 115.5 L 31.34827585220337 115.5 L 30.4 118.0 L 28.1 123.5 L 25.6 128.8 L 22.8 133.9 L 19.9 138.6 L 16.7 143.1 L 13.1 147.2 L 11.6 146.2 L 13.3 141.2 L 16.9 131.2 L 18.5 126.0 L 20.1 120.6 L 21.6 115.1 L 22.9 109.4 L 24.2 103.5 L 25.3 97.5 L 26.15389699935913 92.2058388710022 L 26.1 92.2 L 26.6 89.4 L 38.1 93.5 L 40.6 96.1 L 37.08578052520752 97.37789802551269 L 36.4 100.0 L 34.6 106.2 L 32.83333330154419 111.5 L 45.6 111.5 L 45.6 85.4 L 57.6 87.4 L 60.6 89.4 L 57.6 91.2 L 57.6 111.5 L 61.6 111.5 L 71.6 101.5 L 83.6 111.5 L 83.6 115.5 L 57.6 115.5 L 57.6 139.7 L 63.018181800842285 139.7 L 71.2 130.7 L 81.2 139.7 L 81.2 143.7 L 57.6 143.7 L 57.6 167.83529415130616 L 57.9 167.8 L 64.8 167.2 L 71.8 166.5 L 78.8 166.1 L 85.8 165.9 L 86.1 167.7 L 79.4 169.9 L 72.7 171.8 L 66.0 173.6 L 59.2 175.3 L 52.5 177.0 L 45.8 178.5 L 39.1 180.1 L 32.5 181.6 L 25.8 183.1 L 23.246518707275392 183.68033666610717 L 21.7 187.2 L 19.2 184.6 L 15.1 173.1 Z M 106.0 175.0 L 126.0 175.0 L 127.2 174.9 L 128.1 174.7 L 129.0 174.4 L 129.4 174.0 L 129.7 173.1 L 129.9 172.2 L 130.0 171.0 L 130.0 68.0 L 142.0 70.0 L 145.0 72.0 L 142.0 73.8 L 142.0 171.0 L 141.8 173.5 L 141.4 176.0 L 140.6 178.4 L 139.3 180.7 L 137.7 182.7 L 135.7 184.3 L 133.4 185.6 L 131.0 186.4 L 128.5 186.8 L 126.0 187.0 L 126.0 181.0 L 106.0 178.0 Z M 117.5 102.4 L 119.9 105.1 L 116.28968477249146 106.1959885597229 L 115.3 109.3 L 112.7 116.0 L 109.9 122.4 L 106.8 128.6 L 103.4 134.7 L 99.7 140.4 L 95.7 145.9 L 91.4 151.2 L 86.7 156.0 L 81.6 160.5 L 80.3 159.4 L 83.7 153.7 L 87.0 148.0 L 90.2 142.3 L 93.2 136.6 L 95.9 130.7 L 98.4 124.7 L 100.6 118.6 L 102.6 112.4 L 104.4 106.0 L 105.6700514793396 100.41177339553833 L 105.6 100.4 L 106.3 97.7 Z M 173.0 142.6 L 171.1 136.4 L 168.9 130.4 L 166.6 124.6 L 164.1 118.9 L 161.5 113.4 L 158.7 108.0 L 155.8 102.6 L 152.9 97.3 L 154.3 96.1 L 158.9 100.3 L 163.1 104.9 L 167.1 109.9 L 170.8 115.2 L 174.2 120.8 L 177.4 126.6 L 180.4 132.7 L 183.1 139.1 L 185.7 145.7 L 188.0 152.5 L 187.3 157.0 L 183.7 159.8 L 179.2 159.2 L 176.4 155.6 L 174.8 149.0 Z M 126.5 18.4 L 128.9 21.1 L 125.32974405288697 22.183827686309815 L 123.5 28.1 L 120.2 37.4 L 116.6 46.3 L 112.8 54.8 L 111.67250003814698 57.0 L 166.0 57.0 L 176.0 47.0 L 188.0 57.0 L 188.0 61.0 L 109.62250003814697 61.0 L 108.7 62.8 L 104.3 70.4 L 99.7 77.5 L 94.7 84.1 L 89.3 90.1 L 83.6 95.5 L 82.3 94.4 L 86.3 87.8 L 90.2 81.0 L 94.0 74.0 L 97.7 66.7 L 101.1 59.1 L 104.3 51.1 L 107.3 42.7 L 110.0 34.0 L 112.6 24.9 L 114.65563106536865 16.409349727630616 L 114.6 16.4 L 115.3 13.7 Z M 32.8 22.1 L 70.4 22.1 L 76.4 17.1 L 87.4 26.1 L 82.4 30.1 L 82.4 82.4 L 70.4 88.4 L 70.4 82.4 L 32.8 82.4 L 20.8 88.4 L 20.8 16.1 Z M 32.8 54.2 L 32.8 78.4 L 70.4 78.4 L 70.4 54.2 Z M 32.8 26.1 L 32.8 50.2 L 70.4 50.2 L 70.4 26.1 Z " />
</g>
</svg>
