<svg xmlns="http://www.w3.org/2000/svg" xmlns:xlink="http://www.w3.org/1999/xlink" version="1.1" baseProfile="full" viewBox="0 0 200 200" width="200" height="200">
<g fill="black">
<path d="M 60.9 103.7 L 59.7 101.4 L 58.3 99.1 L 56.7 96.9 L 55.0 94.7 L 53.2 92.5 L 51.2 90.3 L 50.6 89.6714285850525 L 50.6 182.0 L 38.6 188.0 L 38.6 97.44482755661011 L 38.2 98.7 L 35.0 107.5 L 31.5 116.1 L 27.7 124.4 L 23.5 132.4 L 19.0 140.1 L 13.9 147.4 L 12.4 146.5 L 15.6 138.4 L 18.7 130.2 L 21.6 121.9 L 24.4 113.5 L 27.0 104.9 L 29.3 96.1 L 31.4 87.1 L 33.3 77.9 L 34.9 68.6 L 35.82093019485474 62.0 L 13.2 62.0 L 13.2 58.0 L 38.6 58.0 L 38.6 13.0 L 50.6 15.0 L 53.6 17.0 L 50.6 18.8 L 50.6 58.0 L 55.418181800842284 58.0 L 63.6 49.0 L 73.6 58.0 L 73.6 62.0 L 50.6 62.0 L 50.6 85.96451616287231 L 53.5 86.9 L 56.4 88.2 L 59.2 89.7 L 61.9 91.4 L 64.5 93.3 L 66.9 95.3 L 69.2 97.5 L 71.4 99.8 L 73.4 102.4 L 73.9 106.9 L 71.2 110.5 L 66.6 111.1 L 63.0 108.3 L 62.0 106.0 Z M 146.5 187.0 L 134.7 185.8 L 124.8 183.7 L 116.7 180.7 L 110.2 176.7 L 105.2 171.7 L 101.5 166.0 L 98.9 159.7 L 98.0890489578247 156.546301651001 L 97.5 157.5 L 95.6 161.0 L 93.6 164.4 L 91.6 167.6 L 89.5 170.8 L 87.4 173.9 L 85.4 176.9 L 83.3 179.9 L 81.7745057106018 182.11196670532226 L 82.8 186.1 L 79.2 185.6 L 69.0 179.0 L 70.3 177.6 L 72.9 175.3 L 75.5 172.9 L 78.1 170.6 L 80.8 168.1 L 83.5 165.7 L 86.3 163.2 L 89.2 160.6 L 90.2 159.73793106079103 L 90.2 95.7 L 72.8 95.7 L 72.8 91.7 L 90.2 91.7 L 95.7 86.7 L 106.2 95.7 L 101.2 99.2 L 101.2 154.9 L 100.83694267272949 155.08152866363525 L 102.7 157.9 L 106.4 162.8 L 110.4 166.7 L 114.9 169.7 L 120.3 172.1 L 127.2 173.8 L 135.9 174.9 L 146.9 175.2 L 160.3 174.8 L 176.5 173.7 L 187.5 172.9 L 177.4 186.8 L 160.7 187.4 Z M 122.1 155.7 L 111.1 161.2 L 111.1 49.2 L 122.1 51.2 L 124.9 53.2 L 122.1 54.95 L 122.1 144.7 L 138.9 144.7 L 138.9 13.2 L 150.9 15.2 L 153.9 17.2 L 150.9 19.0 L 150.9 144.7 L 167.2 144.7 L 167.2 49.2 L 179.2 51.2 L 182.2 53.2 L 179.2 55.0 L 179.2 154.7 L 167.2 160.7 L 167.2 148.7 L 122.1 148.7 Z M 91.1 48.5 L 90.0 45.5 L 88.8 42.5 L 87.5 39.5 L 86.0 36.6 L 84.4 33.6 L 82.7 30.7 L 80.9 27.8 L 78.7 25.0 L 79.9 23.7 L 82.9 25.7 L 85.9 27.8 L 88.8 30.0 L 91.4 32.5 L 93.9 35.1 L 96.3 38.0 L 98.5 40.9 L 100.5 44.1 L 102.4 47.4 L 104.2 50.8 L 103.9 55.3 L 100.5 58.5 L 96.0 58.2 L 92.9 54.8 L 92.0 51.6 Z " />
</g>
</svg>
