<svg xmlns="http://www.w3.org/2000/svg" xmlns:xlink="http://www.w3.org/1999/xlink" version="1.1" baseProfile="full" viewBox="0 0 200 200" width="200" height="200">
<g fill="black">
<path d="M 171.7 169.7 L 168.0 162.2 L 164.8 154.0 L 162.1 145.0 L 159.9 135.2 L 158.2 124.8 L 157.4807692527771 117.47692308425903 L 157.1 119.9 L 154.1 132.8 L 150.3 144.8 L 145.8 155.6 L 140.4 165.4 L 134.3 174.1 L 127.3 181.5 L 119.5 187.6 L 118.4 186.3 L 124.5 179.0 L 129.9 171.0 L 134.7 162.3 L 138.8 152.7 L 142.3 142.1 L 145.0 130.7 L 147.2 118.2 L 148.6 104.8 L 149.3 90.4 L 149.4 75.0 L 149.4 67.0 L 161.4 69.0 L 164.4 71.0 L 161.4 72.8 L 161.4 75.0 L 160.7 90.9 L 160.1724814414978 96.55198431015015 L 160.9 101.3 L 162.9 112.8 L 165.3 123.5 L 168.0 133.2 L 171.0 142.2 L 174.3 150.2 L 177.9 157.4 L 181.8 163.6 L 185.8 169.0 L 189.9 173.5 L 191.0 174.6 L 180.3 182.4 L 175.7 176.5 Z M 116.3 81.1 L 126.3 90.1 L 126.3 94.1 L 105.9 94.1 L 105.9 115.1 L 110.5777777671814 115.1 L 116.8 108.1 L 124.8 115.1 L 124.8 119.1 L 105.9 119.1 L 105.9 140.0 L 110.5777777671814 140.0 L 116.8 133.0 L 124.8 140.0 L 124.8 144.0 L 105.9 144.0 L 105.9 165.0 L 109.51818180084229 165.0 L 117.7 156.0 L 127.7 165.0 L 127.7 169.0 L 83.5 169.0 L 83.5 181.0 L 72.5 186.5 L 72.5 101.55319147109985 L 70.9 103.8 L 65.7 110.0 L 60.0 115.7 L 58.6 114.6 L 62.6 107.8 L 66.4 100.9 L 69.9 94.0 L 73.2 86.9 L 76.1 79.6 L 78.7 72.2 L 80.6714285850525 65.3 L 61.5 65.3 L 61.5 61.3 L 81.67948713302613 61.3 L 82.8 56.7 L 84.4 48.6 L 85.6 40.3 L 85.63263854980468 40.30521116256714 L 85.88666667938233 38.4 L 77.98536586761475 38.4 L 76.0 42.1 L 73.6 46.2 L 71.0 50.2 L 68.1 54.1 L 65.1 58.0 L 63.6 57.1 L 65.0 52.5 L 66.4 48.0 L 67.9 43.6 L 69.2 39.2 L 70.5 34.9 L 71.7 30.6 L 73.9 22.2 L 74.8 18.0 L 75.4061264038086 14.817836380004882 L 75.3 14.8 L 76.0 12.1 L 87.2 16.8 L 89.6 19.5 L 85.86233167648315 20.63464937210083 L 85.7 21.1 L 84.0 25.4 L 82.2 29.6 L 80.3 33.8 L 80.0 34.4 L 106.61818180084228 34.4 L 114.8 25.4 L 124.8 34.4 L 124.8 38.4 L 86.19743585586548 38.4 L 97.5 42.2 L 100.1 44.7 L 96.61360445022584 46.05582046508789 L 95.5 50.9 L 93.2 59.4 L 92.57439022064209 61.3 L 105.7 61.3 L 115.7 51.3 L 127.7 61.3 L 127.7 65.3 L 91.25731706619263 65.3 L 90.5 67.6 L 87.4 75.4 L 83.9 83.0 L 80.10684928894042 90.1 L 108.11818180084228 90.1 Z M 34.8 186.9 L 30.7 184.9 L 29.2 180.6 L 29.7 173.5 L 29.7 167.1 L 29.1 161.3 L 28.1 156.1 L 26.6 151.5 L 24.5 147.3 L 22.0 143.5 L 18.8 140.1 L 15.0 137.0 L 10.4 134.1 L 11.0 132.4 L 16.6 133.6 L 21.9 135.7 L 26.6 138.9 L 28.044332027435303 140.27387685775756 L 30.0 134.5 L 32.7 126.6 L 35.8 117.1 L 39.4 105.9 L 43.5 93.0 L 48.1 78.5 L 53.4 62.4 L 59.3 44.7 L 61.0 45.2 L 57.0 63.4 L 53.3 79.9 L 49.8 94.8 L 46.7 107.9 L 43.9 119.3 L 41.6 129.1 L 39.7 137.3 L 38.2 143.7 L 37.1 148.5 L 36.5 151.8 L 36.186897373199464 151.69926261901855 L 36.9 153.1 L 39.0 159.2 L 40.3 166.0 L 41.1 173.4 L 41.1 181.4 L 39.1 185.4 Z M 83.5 144.0 L 83.5 165.0 L 94.9 165.0 L 94.9 144.0 Z M 83.5 119.1 L 83.5 140.0 L 94.9 140.0 L 94.9 119.1 Z M 83.5 94.1 L 83.5 115.1 L 94.9 115.1 L 94.9 94.1 Z M 154.5 17.6 L 157.3 19.9 L 153.8932620048523 21.442673778533937 L 153.3 25.2 L 151.8 32.8 L 150.0 40.6 L 148.0 48.4 L 146.27692308425904 54.0 L 176.4 54.0 L 182.4 49.0 L 193.4 58.0 L 188.4 61.0 L 186.54961833953857 61.77099237442017 L 186.5 61.9 L 185.3 64.8 L 183.8 68.0 L 182.1 71.3 L 180.1 75.0 L 177.9 78.9 L 175.4 83.1 L 172.6 87.5 L 169.7 92.3 L 168.1 91.6 L 169.8 86.3 L 171.2 81.3 L 172.5 76.7 L 173.7 72.4 L 174.6 68.6 L 175.4 65.1 L 176.0 62.0 L 176.3 59.2 L 176.4 58.1 L 176.4 58.0 L 145.0375 58.0 L 143.1 64.2 L 140.2 72.2 L 136.9 80.2 L 133.3 88.2 L 129.2 96.3 L 127.6 95.6 L 129.7 87.0 L 131.8 78.5 L 133.9 70.2 L 135.7 62.1 L 137.4 54.2 L 138.9 46.3 L 140.2 38.6 L 141.2 31.1 L 142.0 23.6 L 142.51777172088623 17.300444316864013 L 142.5 17.3 L 142.8 14.2 Z M 25.8 85.2 L 24.6 83.2 L 23.2 81.2 L 21.5 79.1 L 19.5 77.1 L 17.3 75.1 L 14.8 73.0 L 12.1 70.9 L 9.0 69.1 L 9.6 67.5 L 13.2 68.5 L 16.7 69.3 L 20.0 70.4 L 23.1 71.7 L 26.1 73.1 L 28.9 74.8 L 31.5 76.6 L 33.9 78.7 L 36.1 81.0 L 38.1 83.4 L 38.5 88.0 L 35.7 91.6 L 31.1 92.0 L 27.5 89.2 L 26.8 87.2 Z M 95.9 84.4 L 95.6 83.1 L 95.2 81.9 L 94.9 80.6 L 94.7 79.4 L 94.4 78.2 L 94.2 77.1 L 94.0 75.9 L 93.3 75.2 L 94.5 73.9 L 95.3 74.5 L 96.5 74.8 L 97.8 75.2 L 99.0 75.7 L 100.3 76.3 L 101.5 77.0 L 102.8 77.7 L 104.0 78.6 L 105.3 79.5 L 106.6 80.5 L 107.4 85.0 L 104.9 88.8 L 100.4 89.7 L 96.6 87.2 L 96.2 85.8 Z M 40.1 37.5 L 39.0 35.6 L 37.6 33.6 L 36.0 31.6 L 34.1 29.6 L 31.9 27.5 L 29.4 25.3 L 26.7 23.1 L 23.6 21.2 L 24.3 19.5 L 27.9 20.7 L 31.4 21.7 L 34.7 22.9 L 37.8 24.2 L 40.7 25.7 L 43.4 27.3 L 45.8 29.1 L 48.2 31.0 L 50.2 33.2 L 52.1 35.5 L 52.5 40.0 L 49.7 43.6 L 45.1 44.0 L 41.5 41.2 L 40.9 39.4 Z " />
</g>
</svg>
