<svg xmlns="http://www.w3.org/2000/svg" xmlns:xlink="http://www.w3.org/1999/xlink" version="1.1" baseProfile="full" viewBox="0 0 200 200" width="200" height="200">
<g fill="black">
<path d="M 158.9 182.7 L 151.1 179.7 L 143.9 176.0 L 137.4 171.5 L 134.21376943588257 168.69831457138062 L 128.4 172.7 L 120.1 177.3 L 111.4 181.2 L 102.1 184.2 L 92.4 186.5 L 82.1 187.8 L 81.8 186.1 L 91.4 182.8 L 100.3 179.2 L 108.7 175.2 L 116.4 170.7 L 123.5 165.7 L 127.89966888427735 162.03360929489136 L 126.6 160.5 L 122.3 154.1 L 118.9 147.0 L 117.48823528289795 142.41176471710205 L 114.3 145.6 L 109.6 149.4 L 104.5 152.8 L 99.0 155.8 L 93.1 158.3 L 86.9 160.4 L 80.2 161.8 L 79.7 160.1 L 85.4 156.8 L 90.7 153.5 L 95.6 150.2 L 100.1 146.6 L 104.1 142.9 L 107.7 139.1 L 110.9 135.0 L 113.7 130.7 L 116.0 126.2 L 117.70541191101074 122.30191574096679 L 117.7 122.3 L 118.6 120.2 L 129.0 126.3 L 131.0 129.3 L 127.02904567718505 129.84771785736083 L 126.0 131.7 L 124.38999996185302 134.0 L 150.0 134.0 L 150.25394191741944 133.78838176727294 L 150.7 133.0 L 150.99863481521606 133.16780433654785 L 156.0 129.0 L 167.0 138.0 L 162.0 141.0 L 158.95384616851806 142.2692307472229 L 155.8 147.0 L 149.8 154.5 L 143.2 161.3 L 141.33776273727418 162.89995031356813 L 142.7 163.8 L 148.7 166.9 L 155.1 169.4 L 162.1 171.3 L 169.5 172.7 L 177.5 173.4 L 188.2 174.3 L 176.4 186.5 L 167.3 185.0 Z M 17.1 172.8 L 23.8 171.9 L 30.6 171.0 L 44.2 169.4 L 45.6 169.23768119812013 L 45.6 143.7 L 25.2 143.7 L 25.2 139.7 L 45.6 139.7 L 45.6 115.5 L 31.34827585220337 115.5 L 30.4 118.0 L 28.1 123.5 L 25.6 128.8 L 22.8 133.9 L 19.9 138.6 L 16.7 143.1 L 13.1 147.2 L 11.6 146.2 L 13.3 141.2 L 16.9 131.2 L 18.5 126.0 L 20.1 120.6 L 21.6 115.1 L 22.9 109.4 L 24.2 103.5 L 25.3 97.5 L 26.15389699935913 92.2058388710022 L 26.1 92.2 L 26.6 89.4 L 38.1 93.5 L 40.6 96.1 L 37.08578052520752 97.37789802551269 L 36.4 100.0 L 34.6 106.2 L 32.83333330154419 111.5 L 45.6 111.5 L 45.6 85.4 L 57.6 87.4 L 60.6 89.4 L 57.6 91.2 L 57.6 111.5 L 61.6 111.5 L 71.6 101.5 L 83.6 111.5 L 83.6 115.5 L 57.6 115.5 L 57.6 139.7 L 63.018181800842285 139.7 L 71.2 130.7 L 81.2 139.7 L 81.2 143.7 L 57.6 143.7 L 57.6 167.83529415130616 L 57.9 167.8 L 64.8 167.2 L 71.8 166.5 L 78.8 166.1 L 85.8 165.9 L 86.1 167.7 L 79.4 169.9 L 72.7 171.8 L 66.0 173.6 L 59.2 175.3 L 52.5 177.0 L 45.8 178.5 L 39.1 180.1 L 32.5 181.6 L 25.8 183.1 L 23.246518707275392 183.68033666610717 L 21.7 187.2 L 19.2 184.6 L 15.1 173.1 Z M 121.39782609939576 138.0 L 119.43149814605712 140.31925859451295 L 122.6 145.0 L 127.1 150.7 L 132.0 155.7 L 133.39578943252565 156.90421056747437 L 136.1 154.2 L 141.5 147.7 L 146.4 140.6 L 147.87105264663697 138.0 Z M 154.1 91.9 L 156.1 91.9 L 154.1 108.9 L 157.1 110.9 L 159.1 113.9 L 157.1 116.9 L 154.1 118.9 L 127.7 118.9 L 125.2 118.8 L 122.8 118.5 L 120.5 117.8 L 118.3 116.8 L 116.3 115.2 L 114.6 113.4 L 113.3 111.2 L 112.4 108.9 L 111.9 106.4 L 111.7 103.9 L 111.7 79.5 L 123.7 81.5 L 126.7 83.5 L 123.7 85.3 L 123.7 103.9 L 123.6 105.1 L 123.7 106.1 L 123.8 106.7 L 123.9 107.2 L 124.0 107.5 L 124.2 107.8 L 124.6 108.1 L 125.3 108.4 L 126.3 108.7 L 127.7 108.9 L 149.1 108.9 Z M 93.9 113.3 L 92.3 109.0 L 94.1 104.8 L 95.1 104.3 L 96.2 103.4 L 97.3 102.1 L 98.5 100.3 L 99.6 98.0 L 100.6 95.4 L 101.6 92.3 L 102.5 88.8 L 103.3 85.0 L 103.7 80.8 L 105.5 80.8 L 105.9 85.0 L 106.5 89.1 L 106.9 92.8 L 107.0 96.4 L 106.9 99.7 L 106.6 102.8 L 106.0 105.7 L 105.2 108.5 L 104.0 111.1 L 102.4 113.5 L 98.1 115.1 Z M 161.7 101.4 L 161.3 99.0 L 160.8 96.6 L 160.2 94.3 L 159.4 91.9 L 158.5 89.5 L 157.5 87.1 L 156.3 84.6 L 154.6 82.5 L 155.9 81.2 L 158.1 83.0 L 160.5 84.6 L 162.8 86.5 L 164.8 88.5 L 165.28272838592528 89.05894870758057 L 165.6 88.4 L 166.3 85.5 L 167.0 82.9 L 167.7 80.4 L 168.4 78.0 L 168.9 75.7 L 169.4 73.6 L 169.6526315689087 72.4 L 99.61538457870483 72.4 L 99.8 74.2 L 100.0 77.9 L 99.9 81.3 L 99.6 84.5 L 99.1 87.4 L 98.3 90.2 L 97.2 92.8 L 95.5 95.3 L 91.2 96.8 L 87.1 94.9 L 85.5 90.6 L 87.4 86.4 L 88.2 86.1 L 89.2 85.3 L 90.3 84.0 L 91.4 82.1 L 92.5 79.8 L 93.5 77.0 L 94.4 73.8 L 95.3 70.1 L 96.1 66.0 L 96.5 61.5 L 98.3 61.5 L 98.8 66.0 L 99.13488368988037 68.4 L 169.9 68.4 L 175.9 63.4 L 186.9 72.4 L 181.9 75.4 L 178.3517985343933 76.87841730117798 L 177.8 77.6 L 176.4 79.4 L 174.9 81.3 L 173.3 83.3 L 171.5 85.3 L 169.6 87.4 L 167.6 89.5 L 166.7440559387207 90.75874128341675 L 168.5 93.1 L 170.1 95.6 L 171.5 98.2 L 172.7 101.0 L 173.8 103.9 L 172.9 108.4 L 169.1 110.9 L 164.6 109.9 L 162.0 106.2 L 161.9 103.7 Z M 133.7 91.7 L 133.3 89.9 L 132.1 86.3 L 131.4 84.5 L 130.6 82.8 L 129.8 81.0 L 128.8 79.2 L 127.4 77.8 L 128.4 76.4 L 130.2 77.5 L 132.3 78.3 L 134.2 79.4 L 136.1 80.6 L 137.9 82.0 L 139.6 83.6 L 141.3 85.3 L 142.8 87.1 L 144.3 89.1 L 145.6 91.2 L 145.4 95.8 L 142.1 99.0 L 137.5 98.8 L 134.4 95.5 L 134.1 93.6 Z M 32.8 22.1 L 70.4 22.1 L 76.4 17.1 L 87.4 26.1 L 82.4 30.1 L 82.4 88.4 L 70.4 94.4 L 70.4 82.4 L 32.8 82.4 L 20.8 88.4 L 20.8 16.1 Z M 32.8 54.2 L 32.8 78.4 L 70.4 78.4 L 70.4 54.2 Z M 170.1 37.6 L 172.5 40.3 L 168.60670099258422 41.41237115859985 L 165.8 47.4 L 164.2 50.4 L 162.5 53.2 L 160.7 56.0 L 158.8 58.6 L 156.7 61.0 L 154.5 63.2 L 152.5 65.4 L 151.0 64.4 L 152.2 61.7 L 153.1 58.9 L 155.5 50.2 L 156.2 47.2 L 156.8 44.2 L 157.4 41.1 L 158.0 37.9 L 158.34479761123657 35.62433576583862 L 158.2 35.6 L 158.9 32.9 Z M 107.4 54.6 L 107.1 52.7 L 106.8 50.7 L 106.3 48.7 L 105.7 46.6 L 105.0 44.5 L 104.2 42.4 L 103.3 40.2 L 101.8 38.2 L 103.1 37.0 L 105.0 38.7 L 107.1 40.1 L 109.1 41.6 L 110.9 43.3 L 112.6 45.1 L 114.2 47.1 L 115.7 49.1 L 117.0 51.3 L 118.2 53.5 L 119.2 55.9 L 118.4 60.4 L 114.7 63.0 L 110.2 62.2 L 107.5 58.5 L 107.5 56.6 Z M 130.8 47.9 L 130.6 46.2 L 130.4 44.4 L 130.2 42.7 L 129.9 40.9 L 129.5 39.2 L 129.1 37.3 L 128.2 35.9 L 129.6 34.8 L 130.9 36.1 L 132.5 37.2 L 134.0 38.5 L 135.5 39.9 L 136.9 41.4 L 138.2 43.0 L 139.4 44.7 L 140.5 46.5 L 141.6 48.4 L 142.6 50.4 L 141.9 54.9 L 138.2 57.7 L 133.7 56.9 L 131.0 53.3 L 131.0 51.5 Z M 32.8 26.1 L 32.8 50.2 L 70.4 50.2 L 70.4 26.1 Z M 167.16588077545165 14.379835510253907 L 175.7 21.9 L 175.9 25.1 L 171.90138568878174 23.403618144989014 L 170.9 23.8 L 163.8 26.1 L 156.5 28.2 L 149.2 29.9 L 141.7 31.3 L 134.2 32.4 L 126.6 33.2 L 118.8 33.6 L 111.0 33.7 L 103.1 33.3 L 95.2 32.5 L 95.2 30.7 L 103.0 29.5 L 110.7 28.3 L 118.2 27.1 L 125.5 25.7 L 132.7 24.0 L 139.7 22.2 L 146.6 20.2 L 153.4 17.9 L 160.0 15.4 L 165.63010292053224 13.061341857910156 L 165.6 13.0 L 165.65695486068725 13.050187969207764 L 166.5 12.7 Z " />
</g>
</svg>