<svg xmlns="http://www.w3.org/2000/svg" xmlns:xlink="http://www.w3.org/1999/xlink" version="1.1" baseProfile="full" viewBox="0 0 200 200" width="200" height="200">
<g fill="black">
<path d="M 96.5 92.0 L 96.9 89.3 L 97.4 86.6 L 98.0 84.1 L 99.5 76.6 L 100.5 71.8 L 100.73199996948242 70.46599998474122 L 100.5 70.4 L 101.4 68.1 L 112.1 73.7 L 114.2 76.7 L 109.85894041061401 77.46158943176269 L 109.5 78.0 L 108.2 80.2 L 106.7 82.3 L 105.3 84.5 L 103.8 86.6 L 102.2 88.8 L 100.5 90.9 L 98.78571424484252 92.9 L 106.91818180084229 92.9 L 115.1 83.9 L 125.1 92.9 L 125.1 96.9 L 107.1 96.9 L 107.1 119.2 L 109.5777777671814 119.2 L 115.8 112.2 L 123.8 119.2 L 123.8 123.2 L 107.1 123.2 L 107.1 145.4 L 109.5777777671814 145.4 L 115.8 138.4 L 123.8 145.4 L 123.8 149.4 L 107.1 149.4 L 107.1 171.7 L 112.27777776718139 171.7 L 118.5 164.7 L 126.5 171.7 L 126.5 175.35625 L 129.2 170.8 L 133.4 162.0 L 137.0 152.3 L 140.0 141.7 L 142.5 130.1 L 144.3 117.5 L 145.6 103.9 L 146.2 89.3 L 146.2 65.6 L 158.2 67.6 L 161.2 69.6 L 158.2 71.4 L 158.2 73.7 L 157.6 89.8 L 156.93015270233155 97.58053436279297 L 157.3 100.3 L 159.3 112.0 L 161.4 122.8 L 163.9 132.7 L 166.7 141.8 L 169.7 149.9 L 173.0 157.2 L 176.4 163.6 L 180.1 169.0 L 183.8 173.5 L 184.3 174.1 L 173.6 181.9 L 169.6 175.9 L 166.0 169.1 L 162.8 161.6 L 160.0 153.3 L 157.7 144.3 L 155.7 134.5 L 154.3 123.9 L 154.01791048049927 120.35820894241333 L 151.6 132.0 L 148.2 144.1 L 144.1 155.0 L 139.3 164.9 L 133.7 173.7 L 127.4 181.2 L 120.4 187.5 L 119.1 186.2 L 124.4 178.9 L 126.29629631042481 175.7 L 86.9 175.7 L 86.9 182.7 L 75.9 188.2 L 75.9 106.02325582504272 L 75.3 107.0 L 70.4 113.6 L 65.2 119.7 L 63.7 118.6 L 67.2 111.5 L 70.6 104.4 L 73.7 97.1 L 76.6 89.7 L 79.2 82.0 L 81.5 74.2 L 83.37654323577881 66.6 L 66.4 66.6 L 66.4 62.6 L 84.21686744689941 62.6 L 85.2 57.8 L 86.6 49.3 L 87.7 40.5 L 87.73271026611329 40.50467290878296 L 88.0 38.5 L 99.6 42.2 L 102.3 44.6 L 98.83319997787476 46.07659997940063 L 97.8 51.3 L 95.7 60.2 L 95.00232553482056 62.6 L 104.5 62.6 L 114.5 52.6 L 126.5 62.6 L 126.5 66.6 L 93.83953485488891 66.6 L 93.2 68.8 L 90.4 77.1 L 87.1 85.0 L 83.6 92.7 L 83.4904109954834 92.9 L 96.17600002288819 92.9 Z M 33.6 188.1 L 29.5 186.1 L 28.0 181.8 L 28.5 174.3 L 28.6 167.4 L 28.2 161.2 L 27.4 155.6 L 26.2 150.7 L 25.30014820098877 148.37097187042235 L 24.5 148.2 L 24.850452041625978 147.2070524215698 L 24.5 146.3 L 22.5 142.4 L 19.9 138.9 L 16.8 135.7 L 13.1 132.8 L 13.8 131.1 L 18.8 132.5 L 23.4 134.9 L 27.5 138.2 L 27.99714288711548 138.7800000190735 L 29.6 134.7 L 32.3 127.9 L 35.6 119.9 L 39.4 110.7 L 43.9 100.3 L 48.9 88.7 L 54.6 75.9 L 61.0 62.0 L 62.7 62.6 L 58.1 77.3 L 53.9 90.6 L 50.0 102.6 L 46.6 113.3 L 43.6 122.8 L 41.1 131.0 L 39.1 137.9 L 37.6 143.6 L 36.6 147.9 L 36.2 150.7 L 35.263074684143064 150.4998023033142 L 36.4 153.2 L 38.1 159.6 L 39.3 166.6 L 39.9 174.3 L 39.9 182.5 L 37.9 186.6 Z M 86.9 149.4 L 86.9 171.7 L 96.1 171.7 L 96.1 149.4 Z M 86.9 123.2 L 86.9 145.4 L 96.1 145.4 L 96.1 123.2 Z M 86.9 96.9 L 86.9 119.2 L 96.1 119.2 L 96.1 96.9 Z M 152.1 15.7 L 154.9 17.9 L 151.54323892593385 19.546712970733644 L 151.0 23.3 L 149.6 31.0 L 148.0 38.9 L 146.1 46.7 L 144.57749996185302 52.5 L 170.3 52.5 L 176.3 47.5 L 187.3 56.5 L 182.3 59.5 L 180.67419357299804 60.177419376373294 L 180.6 60.4 L 179.4 63.3 L 178.0 66.5 L 176.5 69.9 L 174.7 73.6 L 172.7 77.6 L 170.4 81.8 L 167.8 86.3 L 165.1 91.2 L 163.4 90.5 L 164.9 85.2 L 166.1 80.2 L 167.1 75.5 L 168.1 71.3 L 168.9 67.4 L 169.6 63.9 L 170.0 60.7 L 170.3 58.0 L 170.3 56.5 L 143.46000003814697 56.5 L 141.6 62.7 L 139.0 70.8 L 136.1 78.9 L 132.7 87.1 L 129.0 95.2 L 127.3 94.6 L 129.1 85.9 L 130.9 77.4 L 132.7 69.0 L 134.3 60.9 L 135.7 52.8 L 137.0 44.9 L 138.1 37.1 L 139.0 29.5 L 139.7 21.9 L 140.1 14.5 L 140.1641025543213 14.506410217285156 L 140.3 12.4 Z M 28.3 79.0 L 27.3 77.0 L 25.9 74.9 L 24.3 72.8 L 22.4 70.7 L 20.2 68.6 L 17.7 66.4 L 14.9 64.3 L 11.8 62.5 L 12.4 60.8 L 16.0 61.9 L 19.6 62.8 L 23.0 63.9 L 26.1 65.3 L 29.1 66.9 L 31.8 68.7 L 34.4 70.7 L 36.7 72.9 L 38.8 75.4 L 40.7 78.0 L 40.8 82.6 L 37.8 86.0 L 33.2 86.2 L 29.8 83.1 L 29.2 81.1 Z M 90.3 15.4 L 92.8 18.0 L 89.1160143852234 19.205667972564697 L 88.9 19.9 L 87.4 24.4 L 85.7 28.8 L 84.0 33.3 L 83.54545450210571 34.3 L 105.61818180084228 34.3 L 113.8 25.3 L 123.8 34.3 L 123.8 38.3 L 81.72727270126343 38.3 L 80.0 42.1 L 77.8 46.4 L 75.3 50.7 L 72.7 54.8 L 69.8 58.9 L 68.2 58.2 L 69.4 53.4 L 71.8 44.0 L 73.0 39.5 L 75.2 30.5 L 76.2 26.0 L 77.1 21.6 L 77.9 17.2 L 78.45555553436279 13.707936477661132 L 78.4 13.7 L 79.0 11.0 Z M 40.5 30.8 L 39.3 28.7 L 37.9 26.6 L 36.4 24.5 L 34.5 22.3 L 32.5 20.2 L 30.2 18.1 L 27.7 16.0 L 24.7 14.2 L 25.5 12.5 L 28.8 13.6 L 32.2 14.5 L 35.4 15.7 L 38.4 17.1 L 41.2 18.7 L 43.9 20.5 L 46.4 22.5 L 48.8 24.6 L 50.9 27.0 L 52.8 29.6 L 53.1 34.2 L 50.2 37.7 L 45.7 38.0 L 42.1 35.1 L 41.4 32.9 Z " />
</g>
</svg>
