<svg xmlns="http://www.w3.org/2000/svg" xmlns:xlink="http://www.w3.org/1999/xlink" version="1.1" baseProfile="full" viewBox="0 0 200 200" width="200" height="200">
<g fill="black">
<path d="M 103.7 103.2 L 103.62844829559326 102.84224138259887 L 99.7 104.9 L 95.4 106.9 L 94.3 107.35 L 94.3 181.0 L 82.3 187.0 L 82.3 129.43018865585327 L 79.52718229293824 130.738121509552 L 79.3 132.3 L 78.2 137.8 L 76.9 143.2 L 75.4 148.5 L 73.6 153.8 L 71.7 159.0 L 69.5 164.0 L 67.0 169.0 L 64.2 173.8 L 61.0 178.4 L 59.4 177.7 L 60.7 172.3 L 62.0 167.0 L 63.3 161.9 L 64.4 156.7 L 65.4 151.6 L 66.3 146.4 L 67.0 141.3 L 67.6 136.1 L 68.0 131.0 L 68.1615385055542 126.8 L 68.1 126.8 L 68.4 123.6 L 80.1 126.8 L 82.3 128.5448275566101 L 82.3 111.89333333969117 L 82.0 112.0 L 72.8 114.8 L 68.0 116.0 L 67.35909090042114 116.15 L 65.7 119.8 L 63.3 117.1 L 59.4 105.6 L 61.4 105.3 L 66.0 104.8 L 70.7 104.3 L 72.72932662963868 104.03530521392823 L 74.1 100.7 L 77.2 93.5 L 80.3 86.4 L 83.5 79.3 L 86.6 72.1 L 89.8 65.0 L 92.9 57.8 L 95.9 50.7 L 98.9 43.5 L 101.4372706413269 37.11307744979858 L 101.4 37.1 L 101.65619831085205 36.56198348999023 L 101.8 36.2 L 101.82357139587403 36.210499954223636 L 102.4 35.0 L 112.8 41.1 L 114.7 44.2 L 111.00186243057252 44.64632692337036 L 109.2 48.2 L 105.6 55.2 L 101.9 62.2 L 98.1 69.1 L 94.2 76.0 L 90.2 82.8 L 86.1 89.5 L 81.9 96.1 L 77.4 102.5 L 76.65905017852783 103.49318799972534 L 79.9 103.0 L 84.4 102.3 L 89.0 101.6 L 93.6 100.8 L 98.1 100.0 L 102.8 99.3 L 102.90222225189208 99.28444442749023 L 102.2 96.3 L 101.4 93.1 L 100.4 89.9 L 99.3 86.8 L 98.1 83.7 L 96.9 80.7 L 95.3 77.9 L 96.7 76.7 L 99.2 79.0 L 101.8 81.3 L 104.2 83.9 L 106.4 86.7 L 108.5 89.8 L 110.4 93.1 L 112.1 96.6 L 113.7 100.3 L 115.2 104.2 L 116.5 108.2 L 115.6 112.7 L 111.8 115.3 L 107.3 114.4 L 104.7 110.6 L 104.3 106.9 Z M 131.6 115.1 L 168.3 115.1 L 174.3 110.1 L 185.3 119.1 L 180.3 123.1 L 180.3 173.4 L 168.3 179.4 L 168.3 167.4 L 131.6 167.4 L 131.6 179.4 L 119.6 185.4 L 119.6 109.1 Z M 33.6 188.1 L 29.5 186.1 L 28.0 181.8 L 28.5 174.3 L 28.6 167.4 L 28.2 161.2 L 27.4 155.6 L 26.2 150.7 L 25.30014820098877 148.37097187042235 L 24.5 148.2 L 24.850452041625978 147.2070524215698 L 24.5 146.3 L 22.5 142.4 L 19.9 138.9 L 16.8 135.7 L 13.1 132.8 L 13.8 131.1 L 18.8 132.5 L 23.4 134.9 L 27.5 138.2 L 27.99714288711548 138.7800000190735 L 29.6 134.7 L 32.3 127.9 L 35.6 119.9 L 39.4 110.7 L 43.9 100.3 L 48.9 88.7 L 54.6 75.9 L 61.0 62.0 L 62.7 62.6 L 58.1 77.3 L 53.9 90.6 L 50.0 102.6 L 46.6 113.3 L 43.6 122.8 L 41.1 131.0 L 39.1 137.9 L 37.6 143.6 L 36.6 147.9 L 36.2 150.7 L 35.263074684143064 150.4998023033142 L 36.4 153.2 L 38.1 159.6 L 39.3 166.6 L 39.9 174.3 L 39.9 182.5 L 37.9 186.6 Z M 131.6 119.1 L 131.6 163.4 L 168.3 163.4 L 168.3 119.1 Z M 103.3 149.0 L 102.7 145.2 L 102.0 141.5 L 101.2 137.9 L 100.4 134.5 L 99.4 131.1 L 97.2 124.7 L 95.8 121.7 L 97.3 120.6 L 102.3 125.6 L 104.6 128.5 L 106.7 131.6 L 108.6 135.0 L 110.4 138.7 L 112.1 142.5 L 113.5 146.5 L 114.9 150.8 L 116.1 155.2 L 115.0 159.6 L 111.1 162.1 L 106.7 161.0 L 104.2 157.2 L 103.8 153.0 Z M 118.1 86.5 L 142.6 86.5 L 142.6 51.7 L 114.7 51.7 L 114.7 47.7 L 142.6 47.7 L 142.6 14.9 L 154.6 16.9 L 157.6 18.9 L 154.6 20.7 L 154.6 47.7 L 165.2 47.7 L 175.2 37.7 L 187.2 47.7 L 187.2 51.7 L 154.6 51.7 L 154.6 86.5 L 161.8 86.5 L 171.8 76.5 L 183.8 86.5 L 183.8 90.5 L 118.1 90.5 Z M 28.3 79.0 L 27.3 77.0 L 25.9 74.9 L 24.3 72.8 L 22.4 70.7 L 20.2 68.6 L 17.7 66.4 L 14.9 64.3 L 11.8 62.5 L 12.4 60.8 L 16.0 61.9 L 19.6 62.8 L 23.0 63.9 L 26.1 65.3 L 29.1 66.9 L 31.8 68.7 L 34.4 70.7 L 36.7 72.9 L 38.8 75.4 L 40.7 78.0 L 40.8 82.6 L 37.8 86.0 L 33.2 86.2 L 29.8 83.1 L 29.2 81.1 Z M 72.1 67.2 L 71.2 64.2 L 70.2 61.3 L 69.0 58.5 L 67.6 55.7 L 66.1 53.0 L 64.4 50.3 L 62.6 47.5 L 60.4 45.0 L 61.5 43.6 L 64.4 45.4 L 67.5 47.2 L 70.3 49.3 L 72.60666666030883 51.34051284790039 L 73.0 50.1 L 74.2 46.0 L 75.5 41.9 L 76.9 37.8 L 78.2 33.8 L 79.6 29.8 L 80.9 25.7 L 83.5 17.7 L 84.43359298706055 14.510223960876464 L 84.4 14.5 L 84.5285714149475 14.18571424484253 L 84.7 13.6 L 84.75874128341675 13.623076915740967 L 85.3 12.3 L 95.9 18.0 L 98.0 21.0 L 94.14720230102539 21.597847938537598 L 94.0 21.9 L 92.0 25.8 L 87.8 33.4 L 85.6 37.2 L 83.4 40.9 L 81.0 44.6 L 78.6 48.2 L 75.9 51.6 L 74.59245643615722 53.360154724121095 L 75.4 54.2 L 77.7 57.0 L 79.8 59.9 L 81.7 63.1 L 83.5 66.5 L 85.0 70.0 L 84.5 74.5 L 81.0 77.4 L 76.4 76.9 L 73.5 73.4 L 72.9 70.2 Z M 40.5 30.8 L 39.3 28.7 L 37.9 26.6 L 36.4 24.5 L 34.5 22.3 L 32.5 20.2 L 30.2 18.1 L 27.7 16.0 L 24.7 14.2 L 25.5 12.5 L 28.8 13.6 L 32.2 14.5 L 35.4 15.7 L 38.4 17.1 L 41.2 18.7 L 43.9 20.5 L 46.4 22.5 L 48.8 24.6 L 50.9 27.0 L 52.8 29.6 L 53.1 34.2 L 50.2 37.7 L 45.7 38.0 L 42.1 35.1 L 41.4 32.9 Z " />
</g>
</svg>
