<svg xmlns="http://www.w3.org/2000/svg" xmlns:xlink="http://www.w3.org/1999/xlink" version="1.1" baseProfile="full" viewBox="0 0 200 200" width="200" height="200">
<g fill="black">
<path d="M 152.04002809524536 19.775983142852784 L 152.3 44.3 L 153.3 70.3 L 154.05897436141967 81.4 L 166.0 81.4 L 176.0 71.4 L 188.0 81.4 L 188.0 85.4 L 154.33247861862182 85.4 L 154.9 93.7 L 157.2 114.4 L 159.29509010314942 126.90070400238037 L 162.6 118.6 L 166.5 107.1 L 169.62243089675903 95.80414686203002 L 169.6 95.8 L 169.8319999694824 95.0460000038147 L 169.9 94.8 L 169.90709047317506 94.80195598602295 L 170.4 93.2 L 181.5 98.0 L 183.8 100.7 L 180.27391300201415 101.70745344161988 L 177.3 110.7 L 172.6 122.6 L 167.4 133.7 L 162.6349802017212 142.31047430038453 L 163.8 147.1 L 167.9 158.6 L 172.4 166.5 L 174.9 169.0 L 180.0 146.9 L 182.0 146.9 L 180.08000001907348 171.86000003814698 L 180.2 171.9 L 184.3 173.8 L 185.9 178.1 L 184.0 182.2 L 179.7 183.8 L 170.2 180.8 L 162.8 173.7 L 157.0 163.5 L 154.0284866333008 155.28092041015626 L 148.7 162.2 L 141.4 170.0 L 133.6 176.9 L 125.3 182.8 L 116.4 187.7 L 115.5 186.1 L 123.0 179.8 L 130.0 172.9 L 136.6 165.5 L 142.7 157.5 L 148.3 148.9 L 150.8073754310608 144.45295677185058 L 148.4 134.7 L 145.3 116.1 L 143.0 94.8 L 142.33138074874878 85.4 L 68.0 85.4 L 68.0 81.4 L 111.63333330154418 81.4 L 112.4 79.1 L 113.3 75.3 L 115.1 67.9 L 116.0 64.4 L 116.7 60.9 L 117.4 57.6 L 118.0 54.2 L 118.5 51.0 L 118.77368421554566 48.810526275634764 L 118.7 48.8 L 118.88000001907349 47.96000003814697 L 118.9 47.8 L 118.91361255645752 47.80314140319824 L 119.3 46.0 L 130.6 50.5 L 133.0 53.2 L 129.16442737579345 54.45527830123901 L 126.6 60.5 L 125.0 63.8 L 123.3 67.2 L 121.5 70.5 L 119.5 73.8 L 117.4 77.1 L 115.0 80.4 L 114.35294113159179 81.4 L 142.04686193466188 81.4 L 141.3 70.9 L 140.3 44.6 L 140.01048030853272 16.999126625061034 L 140.0 17.0 L 140.0 13.6 L 152.0 16.0 L 155.0 18.0 Z M 53.4 135.6 L 49.59646015167236 127.99292039871216 L 47.6 133.6 L 42.2 146.1 L 36.2 157.7 L 29.5 168.4 L 22.1 178.3 L 13.9 187.1 L 12.5 186.0 L 19.0 176.1 L 24.9 165.6 L 30.3 154.7 L 35.2 143.1 L 39.6 130.8 L 43.3 117.8 L 43.455497360229494 117.15916233062744 L 41.2 113.4 L 36.9 106.7 L 32.5 100.5 L 28.0 94.5 L 23.5 88.8 L 18.9 83.3 L 20.1 82.0 L 26.1 86.1 L 31.9 90.8 L 37.5 96.2 L 42.9 102.1 L 46.15563306808472 106.03133049011231 L 46.6 104.2 L 49.2 89.8 L 51.2 74.7 L 52.60505933761597 59.90004177093506 L 52.6 59.9 L 52.9 56.7 L 64.7 60.0 L 67.5 62.2 L 64.18005990982056 63.82864990234375 L 62.5 76.2 L 59.7 91.7 L 56.3 106.5 L 53.57715549468994 115.96188468933106 L 58.1 122.7 L 62.9 130.6 L 67.5 138.8 L 72.0 147.5 L 72.1 152.1 L 69.0 155.5 L 64.4 155.6 L 61.0 152.5 L 57.3 143.8 Z M 93.0 101.5 L 117.0 101.5 L 123.0 96.5 L 134.0 105.5 L 129.0 109.5 L 129.0 160.8 L 117.0 166.8 L 117.0 160.8 L 93.0 160.8 L 93.0 172.8 L 81.0 178.8 L 81.0 95.5 Z M 93.0 132.6 L 93.0 156.8 L 117.0 156.8 L 117.0 132.6 Z M 93.0 105.5 L 93.0 128.6 L 117.0 128.6 L 117.0 105.5 Z M 86.6 69.0 L 86.4 66.4 L 86.0 63.8 L 85.5 61.2 L 84.9 58.5 L 84.2 55.8 L 83.3 53.0 L 82.3 50.2 L 80.8 47.5 L 82.3 46.4 L 84.4 48.7 L 86.7 50.9 L 88.8 53.2 L 90.8 55.7 L 92.5 58.3 L 94.1 60.9 L 95.4 63.7 L 96.7 66.6 L 97.7 69.6 L 98.6 72.7 L 97.3 77.0 L 93.3 79.3 L 88.9 78.0 L 86.6 74.1 L 86.7 71.5 Z M 171.3 49.2 L 170.1 46.7 L 168.8 44.2 L 167.3 41.7 L 165.6 39.2 L 163.8 36.7 L 161.8 34.2 L 159.7 31.7 L 157.3 29.4 L 158.3 27.9 L 161.3 29.5 L 164.5 31.0 L 167.4 32.7 L 170.2 34.5 L 172.9 36.6 L 175.4 38.7 L 177.8 41.1 L 180.0 43.5 L 182.1 46.1 L 184.0 48.9 L 184.2 53.4 L 181.3 56.9 L 176.7 57.2 L 173.2 54.2 L 172.3 51.7 Z M 13.9 50.3 L 37.6 50.3 L 37.6 13.4 L 49.6 15.4 L 52.6 17.4 L 49.6 19.2 L 49.6 50.3 L 52.6 50.3 L 62.6 40.3 L 74.6 50.3 L 74.6 54.3 L 13.9 54.3 Z M 74.0 39.2 L 100.0 39.2 L 100.0 13.0 L 112.0 15.0 L 115.0 17.0 L 112.0 18.8 L 112.0 39.2 L 117.0 39.2 L 127.0 29.2 L 139.0 39.2 L 139.0 43.2 L 74.0 43.2 Z " />
</g>
</svg>
