<svg xmlns="http://www.w3.org/2000/svg" xmlns:xlink="http://www.w3.org/1999/xlink" version="1.1" baseProfile="full" viewBox="0 0 200 200" width="200" height="200">
<g fill="black">
<path d="M 22.5 174.9 L 36.5 174.9 L 37.7 174.8 L 38.6 174.6 L 39.5 174.3 L 39.9 173.9 L 40.2 173.0 L 40.4 172.1 L 40.5 170.9 L 40.5 115.29344263076783 L 37.9 116.7 L 31.8 120.1 L 25.7 123.3 L 23.08519048690796 124.6696620941162 L 22.5 128.5 L 19.4 126.6 L 12.6 116.5 L 14.4 115.7 L 20.8 113.0 L 27.2 110.4 L 33.6 107.7 L 40.5 104.74285717010498 L 40.5 56.2 L 15.3 56.2 L 15.3 52.2 L 40.5 52.2 L 40.5 13.0 L 52.5 15.0 L 55.5 17.0 L 52.5 18.8 L 52.5 52.2 L 56.4 52.2 L 66.4 42.2 L 78.4 52.2 L 78.4 56.2 L 52.5 56.2 L 52.5 99.7 L 58.8 97.0 L 65.1 94.4 L 71.5 91.9 L 77.9 89.6 L 78.8 91.2 L 73.3 95.3 L 67.6 99.2 L 56.0 106.4 L 52.5 108.4416666984558 L 52.5 170.9 L 52.3 173.4 L 51.9 175.9 L 51.1 178.3 L 49.8 180.6 L 48.2 182.6 L 46.2 184.2 L 43.9 185.5 L 41.5 186.3 L 39.0 186.7 L 36.5 186.9 L 36.5 180.9 L 22.5 177.9 Z M 149.4 136.6 L 151.4 136.6 L 149.4 161.6 L 153.0 164.0 L 155.4 167.6 L 153.0 171.2 L 149.4 173.6 L 108.8 173.6 L 106.2 173.5 L 103.7 173.1 L 101.3 172.2 L 99.0 171.0 L 97.0 169.4 L 95.4 167.4 L 94.1 165.1 L 93.3 162.7 L 92.9 160.2 L 92.8 157.6 L 92.8 139.9800000190735 L 89.8 142.8 L 84.6 147.2 L 78.9 151.3 L 73.0 155.1 L 71.9 153.7 L 76.4 148.5 L 80.8 143.4 L 85.1 138.3 L 89.0 133.1 L 92.8 127.9 L 96.3 122.6 L 99.5 117.2 L 102.5 111.7 L 105.3 106.1 L 106.52105264663696 103.2 L 100.7 103.2 L 100.7 106.2 L 88.7 112.2 L 88.7 51.1 L 100.7 57.1 L 153.5 57.1 L 159.5 52.1 L 170.5 61.1 L 165.5 65.1 L 165.5 105.2 L 153.5 111.2 L 153.5 103.2 L 114.83968257904053 103.2 L 118.6 105.5 L 120.5 108.5 L 116.70229530334473 108.89286603927613 L 115.3 111.4 L 111.8 117.2 L 110.66545457839966 118.8 L 167.0 118.8 L 173.0 113.8 L 184.0 122.8 L 179.13131313323976 125.72121210098267 L 179.2 128.4 L 179.1 135.8 L 178.9 142.6 L 178.4 148.9 L 177.7 154.7 L 176.7 160.1 L 175.5 165.0 L 174.1 169.4 L 172.3 173.4 L 170.2 177.0 L 168.7 178.9 L 167.0 180.7 L 165.2 182.3 L 163.3 183.8 L 161.2 185.0 L 159.0 186.0 L 156.7 186.7 L 154.4 187.3 L 152.0 187.6 L 149.5 187.7 L 149.5 181.7 L 129.5 178.7 L 129.5 175.7 L 149.5 175.7 L 152.3 175.5 L 153.5 175.2 L 154.6 174.8 L 155.7 174.3 L 156.7 173.7 L 157.6 173.0 L 158.6 172.2 L 159.5 171.2 L 160.4 170.1 L 161.6 167.9 L 162.9 165.1 L 164.0 161.7 L 165.0 157.7 L 165.8 153.0 L 166.4 147.7 L 166.9 141.9 L 167.1 135.5 L 167.16814374923706 130.7299401283264 L 167.0 130.8 L 167.0 122.8 L 107.8240740776062 122.8 L 103.8 128.1 L 99.4 133.2 L 99.23764705657959 133.37294120788573 L 104.8 134.3 L 107.8 136.3 L 104.8 138.1 L 104.8 148.85 L 112.9 144.8 L 117.3 142.5 L 121.5 140.3 L 125.5 138.0 L 129.2 135.8 L 132.8 133.5 L 136.1 131.2 L 138.31948051452636 129.4244155883789 L 138.3 129.4 L 138.32107973098755 129.42313623428345 L 139.1 128.8 L 142.84211978912353 134.38525342941284 L 146.5 138.4 L 146.6 141.9 L 142.95140466690063 140.37422370910645 L 142.0 140.9 L 138.0 142.8 L 133.8 144.7 L 129.4 146.4 L 124.8 148.0 L 120.1 149.5 L 115.1 150.8 L 110.0 152.0 L 104.8 152.86666669845582 L 104.8 158.9 L 105.0 159.8 L 105.3 160.7 L 105.5 160.9 L 105.7 161.0 L 106.0 161.2 L 106.6 161.4 L 107.5 161.6 L 143.4 161.6 Z M 100.7 82.2 L 100.7 99.2 L 153.5 99.2 L 153.5 82.2 Z M 100.7 61.1 L 100.7 78.2 L 153.5 78.2 L 153.5 61.1 Z M 153.4 14.9 L 156.4 16.9 L 153.4 18.7 L 153.4 31.8 L 169.01818180084229 31.8 L 177.2 22.8 L 187.2 31.8 L 187.2 35.8 L 153.4 35.8 L 153.4 50.0 L 141.4 56.0 L 141.4 35.8 L 115.6 35.8 L 115.6 50.0 L 103.6 56.0 L 103.6 35.8 L 69.7 35.8 L 69.7 31.8 L 103.6 31.8 L 103.6 12.9 L 115.6 14.9 L 118.6 16.9 L 115.6 18.7 L 115.6 31.8 L 141.4 31.8 L 141.4 12.9 Z " />
</g>
</svg>
