<svg xmlns="http://www.w3.org/2000/svg" xmlns:xlink="http://www.w3.org/1999/xlink" version="1.1" baseProfile="full" viewBox="0 0 200 200" width="200" height="200">
<g fill="black">
<path d="M 22.5 174.9 L 36.5 174.9 L 37.7 174.8 L 38.6 174.6 L 39.5 174.3 L 39.9 173.9 L 40.2 173.0 L 40.4 172.1 L 40.5 170.9 L 40.5 115.29344263076783 L 37.9 116.7 L 31.8 120.1 L 25.7 123.3 L 23.08519048690796 124.6696620941162 L 22.5 128.5 L 19.4 126.6 L 12.6 116.5 L 14.4 115.7 L 20.8 113.0 L 27.2 110.4 L 33.6 107.7 L 40.5 104.74285717010498 L 40.5 56.2 L 15.3 56.2 L 15.3 52.2 L 40.5 52.2 L 40.5 13.0 L 52.5 15.0 L 55.5 17.0 L 52.5 18.8 L 52.5 52.2 L 56.4 52.2 L 66.4 42.2 L 78.4 52.2 L 78.4 56.2 L 52.5 56.2 L 52.5 99.7 L 58.8 97.0 L 65.1 94.4 L 71.5 91.9 L 77.9 89.6 L 78.8 91.2 L 73.3 95.3 L 67.6 99.2 L 56.0 106.4 L 52.5 108.4416666984558 L 52.5 170.9 L 52.3 173.4 L 51.9 175.9 L 51.1 178.3 L 49.8 180.6 L 48.2 182.6 L 46.2 184.2 L 43.9 185.5 L 41.5 186.3 L 39.0 186.7 L 36.5 186.9 L 36.5 180.9 L 22.5 177.9 Z M 103.5 97.1 L 160.6 97.1 L 166.6 92.1 L 177.6 101.1 L 172.6 104.1 L 172.49965152740478 104.14181184768677 L 172.2 118.6 L 172.2 134.6 L 172.7 147.5 L 173.6 157.6 L 174.8 165.1 L 176.4 170.2 L 177.22795696258544 171.74551973342895 L 182.2 150.2 L 184.2 150.2 L 182.2793478012085 175.16847829818727 L 182.5 175.2 L 186.6 177.1 L 188.2 181.4 L 186.2 185.5 L 182.0 187.1 L 177.1 186.4 L 172.3 184.1 L 168.2 180.1 L 165.2 174.6 L 163.1 167.8 L 161.7 159.1 L 160.7 148.3 L 160.2 134.8 L 160.2 118.5 L 160.4690721511841 101.1 L 103.5 101.1 L 103.5 134.7 L 102.9 142.6 L 101.6 149.9 L 99.7 156.8 L 97.1 163.0 L 93.9 168.7 L 90.1 173.7 L 85.6 178.0 L 80.6 181.6 L 74.9 184.4 L 68.8 186.3 L 68.1 184.6 L 73.1 181.1 L 77.3 177.3 L 81.0 173.4 L 84.0 169.1 L 86.6 164.5 L 88.6 159.5 L 90.0 154.0 L 91.0 148.1 L 91.5 141.7 L 91.5 91.1 Z M 138.0 145.5 L 141.0 147.5 L 138.0 149.3 L 138.0 159.1 L 142.9 159.1 L 147.4 153.1 L 153.4 159.1 L 153.4 163.1 L 138.0 163.1 L 138.0 178.6 L 140.51818180084229 178.6 L 148.7 169.6 L 158.7 178.6 L 158.7 182.6 L 105.6 182.6 L 105.6 178.6 L 126.0 178.6 L 126.0 163.1 L 110.8 163.1 L 110.8 159.1 L 126.0 159.1 L 126.0 144.1 L 106.5 144.1 L 106.5 140.1 L 126.0 140.1 L 126.0 125.1 L 110.8 125.1 L 110.8 121.1 L 126.0 121.1 L 126.0 105.5 L 138.0 107.5 L 141.0 109.5 L 138.0 111.3 L 138.0 121.1 L 142.9 121.1 L 147.4 115.1 L 153.4 121.1 L 153.4 125.1 L 138.0 125.1 L 138.0 140.1 L 143.4777777671814 140.1 L 149.7 133.1 L 157.7 140.1 L 157.7 144.1 L 129.6 144.1 Z M 97.4 84.7 L 85.4 90.7 L 85.4 13.4 L 97.4 19.4 L 170.6 19.4 L 176.6 14.4 L 187.6 23.4 L 182.6 27.4 L 182.6 83.7 L 170.6 89.7 L 170.6 81.7 L 97.4 81.7 Z M 97.4 52.5 L 97.4 77.7 L 128.0 77.7 L 128.0 52.5 Z M 140.0 52.5 L 140.0 77.7 L 170.6 77.7 L 170.6 52.5 Z M 97.4 23.4 L 97.4 48.5 L 128.0 48.5 L 128.0 23.4 Z M 140.0 23.4 L 140.0 48.5 L 170.6 48.5 L 170.6 23.4 Z " />
</g>
</svg>
