<svg xmlns="http://www.w3.org/2000/svg" xmlns:xlink="http://www.w3.org/1999/xlink" version="1.1" baseProfile="full" viewBox="0 0 200 200" width="200" height="200">
<g fill="black">
<path d="M 60.4 103.9 L 60.248351669311525 103.21758241653443 L 60.1 103.3 L 55.6 105.6 L 50.9 107.5 L 49.3 108.13333330154418 L 49.3 182.0 L 37.3 188.0 L 37.3 112.27346935272217 L 36.3 112.6 L 26.3 115.4 L 21.2 116.6 L 20.101480770111085 116.8323790550232 L 18.4 120.4 L 16.0 117.7 L 12.2 106.2 L 14.2 105.9 L 19.3 105.4 L 26.597218990325928 104.52433376312256 L 28.1 101.2 L 31.5 93.9 L 34.9 86.7 L 38.4 79.6 L 41.9 72.4 L 48.7 58.0 L 52.0 50.8 L 55.2 43.5 L 58.4 36.3 L 58.42324247360229 36.31119079589844 L 59.0 35.1 L 69.2 41.5 L 71.1 44.6 L 67.3686863899231 44.921665000915525 L 65.4 48.6 L 57.6 62.6 L 53.5 69.6 L 49.3 76.5 L 45.0 83.3 L 40.6 90.0 L 36.1 96.6 L 31.3 103.1 L 30.56785717010498 104.02250003814697 L 34.3 103.5 L 39.2 102.8 L 44.2 102.0 L 54.0 100.4 L 59.0 99.7 L 59.427594089508055 99.64868869781495 L 58.7 96.9 L 57.7 93.6 L 56.6 90.4 L 55.4 87.3 L 54.1 84.2 L 52.7 81.1 L 51.0 78.3 L 52.3 77.1 L 55.0 79.3 L 57.7 81.6 L 60.2 84.2 L 62.6 87.1 L 64.8 90.2 L 66.8 93.5 L 68.7 97.0 L 70.4 100.7 L 71.9 104.6 L 73.3 108.7 L 72.4 113.2 L 68.7 115.9 L 64.2 115.0 L 61.6 111.3 L 61.0 107.5 Z M 90.7 23.0 L 170.9 23.0 L 176.9 18.0 L 187.9 27.0 L 182.9 31.0 L 182.9 48.0 L 170.9 54.0 L 170.9 46.0 L 160.8380952835083 46.0 L 167.8 50.3 L 169.6 53.5 L 165.3033444404602 53.87040138244629 L 163.1 56.9 L 161.4 59.2 L 159.5 61.5 L 157.7 63.9 L 155.7 66.3 L 153.5 68.7 L 151.3 71.2 L 150.7074073791504 72.0 L 168.5 72.0 L 174.5 67.0 L 185.5 76.0 L 180.5 80.0 L 180.5 123.9 L 169.20344829559326 129.54827585220337 L 175.5 134.7 L 170.5 138.7 L 170.5 180.4 L 158.5 186.4 L 158.5 178.4 L 119.3 178.4 L 119.3 181.4 L 107.3 187.4 L 107.3 130.4 L 98.3 134.9 L 98.3 67.0 L 108.3 72.0 L 123.68571424484253 72.0 L 121.2 69.0 L 120.9 66.8 L 120.5 64.6 L 120.1 62.3 L 119.5 60.1 L 118.9 57.8 L 117.3 53.0 L 116.3 50.6 L 115.4 48.0 L 114.03636360168457 46.0 L 90.7 46.0 L 90.7 87.0 L 90.3 99.6 L 89.5 111.6 L 88.3 123.1 L 86.7 133.9 L 84.8 144.1 L 82.4 153.7 L 79.6 162.6 L 76.4 170.9 L 72.8 178.5 L 68.6 185.3 L 67.3 184.6 L 69.9 177.2 L 72.2 169.4 L 74.4 161.1 L 76.2 152.2 L 77.8 142.8 L 79.0 132.8 L 80.0 122.2 L 80.6 111.1 L 80.8 99.3 L 80.7 87.0 L 80.7 18.0 Z M 34.0 127.5 L 36.8 129.8 L 33.29396619796753 131.45378952026368 L 33.0 133.1 L 31.9 138.6 L 30.5 144.0 L 28.9 149.4 L 27.1 154.6 L 25.0 159.8 L 22.6 164.9 L 20.0 169.9 L 17.0 174.7 L 13.6 179.4 L 12.0 178.5 L 13.6 173.1 L 15.0 167.8 L 16.5 162.6 L 17.8 157.4 L 18.9 152.3 L 19.9 147.1 L 20.7 141.9 L 21.3 136.8 L 21.8 131.6 L 21.961518859863283 127.40050840377808 L 21.9 127.4 L 22.2 124.2 Z M 119.3 156.5 L 119.3 174.4 L 158.5 174.4 L 158.5 156.5 Z M 60.0 149.9 L 59.3 146.0 L 58.5 142.3 L 57.6 138.7 L 56.6 135.2 L 55.5 131.9 L 53.1 125.3 L 51.5 122.3 L 52.9 121.2 L 55.5 123.6 L 58.2 126.1 L 60.6 129.0 L 62.9 132.2 L 65.0 135.6 L 66.9 139.3 L 68.6 143.1 L 70.2 147.2 L 71.6 151.5 L 72.8 155.9 L 71.8 160.4 L 68.0 162.9 L 63.5 161.9 L 61.0 158.0 L 60.6 153.9 Z M 119.3 134.7 L 119.3 152.5 L 158.5 152.5 L 158.5 134.7 Z M 108.3 125.2 L 119.3 130.7 L 158.5 130.7 L 164.5 125.7 L 168.5 128.97272729873657 L 168.5 117.9 L 108.3 117.9 Z M 108.3 96.6 L 108.3 113.9 L 132.9 113.9 L 132.9 96.6 Z M 144.9 96.6 L 144.9 113.9 L 168.5 113.9 L 168.5 96.6 Z M 108.3 76.0 L 108.3 92.6 L 132.9 92.6 L 132.9 76.0 Z M 144.9 76.0 L 144.9 92.6 L 168.5 92.6 L 168.5 76.0 Z M 26.2 67.7 L 25.2 64.7 L 24.0 61.8 L 22.7 58.9 L 21.2 56.1 L 19.5 53.3 L 17.6 50.6 L 15.6 47.8 L 13.1 45.3 L 14.2 43.8 L 17.3 45.6 L 20.6 47.4 L 23.5 49.5 L 26.320909118652345 51.7372727394104 L 28.2 46.1 L 31.2 37.9 L 32.7 33.9 L 35.7 25.7 L 37.1 21.7 L 38.6 17.6 L 39.9 13.5 L 39.99298429489136 13.539371681213378 L 40.5 12.3 L 51.0 18.2 L 53.0 21.2 L 49.09455585479736 21.738681983947753 L 46.8 26.0 L 44.6 29.9 L 42.4 33.7 L 40.1 37.5 L 37.7 41.2 L 35.2 44.9 L 32.6 48.5 L 29.8 52.0 L 28.35483875274658 53.75483875274658 L 29.0 54.4 L 31.4 57.1 L 33.7 60.1 L 35.7 63.3 L 37.6 66.7 L 39.2 70.3 L 38.8 74.8 L 35.3 77.8 L 30.8 77.4 L 27.8 73.9 L 27.1 70.7 Z M 117.3 46.5 L 119.5 48.3 L 121.6 50.1 L 123.5 52.1 L 125.4 54.2 L 127.1 56.3 L 128.6 58.5 L 130.1 60.8 L 132.7 65.6 L 132.1 70.1 L 129.88333330154418 72.0 L 148.08999996185304 72.0 L 149.0 69.9 L 150.0 66.7 L 151.0 63.7 L 151.9 60.8 L 152.9 57.9 L 154.7 52.5 L 156.3 47.5 L 156.72365341186523 46.04747409820557 L 156.6 46.0 L 116.77368421554566 46.0 Z M 90.7 27.0 L 90.7 42.0 L 170.9 42.0 L 170.9 27.0 Z " />
</g>
</svg>
