<svg xmlns="http://www.w3.org/2000/svg" xmlns:xlink="http://www.w3.org/1999/xlink" version="1.1" baseProfile="full" viewBox="0 0 200 200" width="200" height="200">
<g fill="black">
<path d="M 80.3 69.3 L 78.5 65.1 L 80.1 60.8 L 81.1 60.2 L 82.2 59.1 L 83.4 57.5 L 84.5 55.4 L 85.6 52.8 L 86.7 49.8 L 87.6 46.4 L 88.5 42.5 L 89.4 38.3 L 89.8 33.6 L 91.6 33.6 L 92.1 38.3 L 92.42727270126343 40.7 L 126.0 40.7 L 126.0 27.0 L 93.0 27.0 L 93.0 23.0 L 151.3 23.0 L 161.3 13.0 L 173.3 23.0 L 173.3 27.0 L 138.0 27.0 L 138.0 40.7 L 172.6 40.7 L 178.6 35.7 L 189.6 44.7 L 184.6 47.7 L 181.5889570236206 48.954601192474364 L 180.6 50.4 L 179.4 52.2 L 178.1 54.0 L 176.7 55.8 L 175.3 57.5 L 173.8 59.1 L 172.2 60.7 L 171.1 62.5 L 169.5 61.7 L 170.2 59.7 L 170.5 57.6 L 170.8 55.4 L 172.3285714149475 44.7 L 138.0 44.7 L 138.0 83.6 L 126.0758620262146 89.56206893920898 L 135.9 97.6 L 130.9 101.6 L 130.9 121.2 L 118.9 127.2 L 118.9 121.2 L 98.4 121.2 L 98.4 136.3 L 113.5777777671814 136.3 L 119.8 129.3 L 127.8 136.3 L 127.8 140.3 L 98.4 140.3 L 98.4 154.2 L 113.5777777671814 154.2 L 119.8 147.2 L 127.8 154.2 L 127.8 158.2 L 98.4 158.2 L 98.4 181.2 L 86.4 187.2 L 86.4 87.6 L 98.4 93.6 L 118.9 93.6 L 124.9 88.6 L 126.0 89.5 L 126.0 44.7 L 92.89512195587159 44.7 L 93.1 46.8 L 93.2 50.7 L 93.2 54.3 L 92.9 57.7 L 92.3 60.8 L 91.5 63.8 L 90.4 66.6 L 88.8 69.1 L 84.6 70.9 Z M 162.6 179.6 L 157.1 175.9 L 152.3 171.8 L 152.02929964065552 171.49628734588623 L 146.0 175.2 L 138.2 178.8 L 129.7 181.7 L 120.3 183.8 L 110.3 185.1 L 109.9 183.3 L 119.3 180.1 L 127.8 176.6 L 135.4 172.8 L 142.0 168.7 L 146.7264108657837 165.03295707702637 L 144.8 162.2 L 142.2 156.8 L 140.3 151.1 L 139.4 145.1 L 139.4 139.7 L 133.1 139.7 L 133.1 135.7 L 163.7 135.7 L 169.7 130.7 L 180.7 139.7 L 175.7 142.7 L 173.98745250701904 143.41356143951415 L 172.8 146.8 L 169.2 153.8 L 164.6 160.2 L 160.216730594635 164.82678432464598 L 163.2 166.7 L 168.0 169.1 L 173.4 171.2 L 179.3 172.9 L 187.1 175.2 L 175.5 185.5 L 168.7 182.8 Z M 14.8 162.2 L 20.8 159.7 L 26.8 157.1 L 39.2 151.9 L 45.5 149.3 L 49.588000011444095 147.54799995422363 L 48.7 147.4 L 49.5 137.2 L 50.4 127.6 L 51.3 118.6 L 52.3 110.0 L 53.1 102.0 L 53.8 94.6 L 54.5 87.6 L 55.1 81.2 L 55.5 75.3 L 55.83174676895142 70.90435523986817 L 55.7 70.9 L 56.1 67.9 L 67.8 71.3 L 70.5 73.7 L 67.06773452758789 75.25423345565795 L 66.8 76.7 L 65.7 82.7 L 64.4 89.1 L 63.0 96.0 L 61.5 103.4 L 59.7 111.3 L 57.8 119.7 L 55.7 128.5 L 53.3 137.9 L 50.67674417495728 147.0813953399658 L 51.8 146.6 L 58.3 144.0 L 64.9 141.4 L 71.6 138.9 L 78.5 136.5 L 79.3 138.1 L 73.3 142.2 L 67.3 146.2 L 61.2 149.9 L 49.2 156.9 L 43.3 160.3 L 37.4 163.6 L 31.5 166.8 L 25.7 169.9 L 23.638745403289796 171.0210331916809 L 23.1 174.9 L 20.0 173.0 L 13.0 163.1 Z M 141.66000003814696 139.7 L 143.5 144.1 L 145.9 149.0 L 148.6 153.4 L 151.6 157.4 L 153.01666669845582 158.85833330154418 L 156.6 154.2 L 159.8 148.6 L 162.2 142.7 L 162.996875 139.7 Z M 29.5 123.3 L 28.9 110.1 L 28.5 103.5 L 28.0 97.0 L 27.4 90.5 L 26.9 83.9 L 26.3 77.4 L 25.9 70.8 L 27.6 70.4 L 30.0 76.6 L 32.1 82.9 L 33.9 89.3 L 35.5 95.8 L 36.9 102.4 L 38.1 109.0 L 39.2 115.7 L 40.2 122.5 L 41.0 129.3 L 41.6 136.1 L 40.0 140.4 L 35.9 142.3 L 31.6 140.7 L 29.6 136.6 L 29.6 129.9 Z M 181.9 97.6 L 176.9 101.6 L 176.9 121.2 L 164.9 127.2 L 164.9 121.2 L 137.3 121.2 L 137.3 117.2 L 164.9 117.2 L 164.9 97.6 L 137.3 97.6 L 137.3 93.6 L 164.9 93.6 L 170.9 88.6 Z M 98.4 97.6 L 98.4 117.2 L 118.9 117.2 L 118.9 97.6 Z M 122.5 76.1 L 122.5 80.1 L 91.8 80.1 L 91.8 76.1 L 108.27777776718139 76.1 L 114.5 69.1 Z M 172.1 76.1 L 172.1 80.1 L 141.4 80.1 L 141.4 76.1 L 157.87777776718139 76.1 L 164.1 69.1 Z M 167.9 59.2 L 167.9 63.2 L 141.4 63.2 L 141.4 59.2 L 153.6777777671814 59.2 L 159.9 52.2 Z M 122.5 59.2 L 122.5 63.2 L 94.8 63.2 L 94.8 59.2 L 108.27777776718139 59.2 L 114.5 52.2 Z M 15.7 57.4 L 39.0 57.4 L 39.0 17.4 L 51.0 19.4 L 54.0 21.4 L 51.0 23.2 L 51.0 57.4 L 55.3 57.4 L 65.3 47.4 L 77.3 57.4 L 77.3 61.4 L 15.7 61.4 Z " />
</g>
</svg>
