<svg xmlns="http://www.w3.org/2000/svg" xmlns:xlink="http://www.w3.org/1999/xlink" version="1.1" baseProfile="full" viewBox="0 0 200 200" width="200" height="200">
<g fill="black">
<path d="M 59.0 124.9 L 57.6 122.1 L 56.0 119.2 L 54.2 116.3 L 52.2 113.3 L 49.9 110.4 L 47.5 107.3 L 46.8 106.49629631042481 L 46.8 183.0 L 34.8 189.0 L 34.8 111.79375 L 32.2 114.8 L 25.3 121.8 L 17.9 128.4 L 10.1 134.6 L 8.8 133.3 L 15.2 125.7 L 21.3 118.1 L 27.1 110.5 L 32.6 102.9 L 34.8 99.49215688705445 L 34.8 98.0 L 35.76329116821289 98.0 L 37.7 95.0 L 42.5 87.1 L 46.9 79.0 L 50.9 70.7 L 54.6 62.3 L 56.25 58.0 L 12.4 58.0 L 12.4 54.0 L 57.5 54.0 L 63.5 49.0 L 74.5 58.0 L 69.5 61.0 L 67.3130841255188 61.911214923858644 L 65.0 67.0 L 60.5 75.6 L 55.6 83.9 L 50.3 92.0 L 46.04683542251587 98.0 L 46.8 98.0 L 46.8 101.95405406951905 L 50.4 103.9 L 53.9 106.1 L 57.1 108.5 L 60.1 111.1 L 62.9 113.7 L 65.5 116.6 L 67.9 119.5 L 70.1 122.6 L 72.1 125.8 L 72.2 130.3 L 69.1 133.7 L 64.5 133.8 L 61.1 130.7 L 60.2 127.8 Z M 150.7 186.9 L 137.6 185.7 L 126.8 183.6 L 117.9 180.6 L 110.7 176.6 L 105.2 171.7 L 101.0 165.9 L 98.0 159.5 L 96.97417325973511 156.03172874450684 L 96.1 157.4 L 93.9 160.9 L 91.6 164.3 L 89.2 167.6 L 86.9 170.8 L 84.5 173.9 L 82.2 177.0 L 79.8 180.0 L 77.8993055343628 182.3965277671814 L 78.7 186.4 L 75.2 185.7 L 65.3 178.7 L 66.7 177.3 L 69.5 175.0 L 72.3 172.6 L 78.1 167.8 L 84.1 162.8 L 87.2 160.3 L 88.2 159.51875 L 88.2 95.2 L 68.8 95.2 L 68.8 91.2 L 88.2 91.2 L 94.2 86.2 L 105.2 95.2 L 100.2 99.2 L 100.2 154.4 L 99.65316457748413 154.67341775894164 L 101.7 157.5 L 105.8 162.4 L 106.90016870498657 163.4234127998352 L 113.3 159.0 L 119.3 153.2 L 124.5 146.4 L 128.9 138.3 L 132.7 128.9 L 135.7 118.0 L 138.1 105.8 L 138.59051094055175 101.6 L 104.9 101.6 L 104.9 97.6 L 139.0576642036438 97.6 L 139.7 92.1 L 140.5 77.0 L 140.5879518508911 62.4 L 112.1 62.4 L 112.1 58.4 L 156.2 58.4 L 166.2 48.4 L 178.2 58.4 L 178.2 62.4 L 152.51812868118287 62.4 L 151.9 77.5 L 150.3 93.3 L 149.60839157104493 97.6 L 165.8 97.6 L 175.8 87.6 L 187.8 97.6 L 187.8 101.6 L 148.96503496170044 101.6 L 148.0 107.6 L 146.97524433135987 111.60586318969726 L 149.3 112.5 L 154.2 115.1 L 158.9 118.2 L 163.2 121.8 L 167.4 125.9 L 171.2 130.3 L 174.8 135.2 L 178.0 140.4 L 181.1 146.0 L 183.8 152.0 L 183.6 156.5 L 180.2 159.7 L 175.7 159.4 L 172.5 156.1 L 170.6 150.6 L 168.5 145.3 L 166.1 140.3 L 163.6 135.6 L 160.7 131.2 L 157.7 127.0 L 154.4 123.0 L 150.9 119.3 L 147.2 115.6 L 146.18676748275757 114.68809070587159 L 144.7 120.5 L 140.6 131.9 L 135.6 141.9 L 129.7 150.3 L 123.0 157.1 L 115.4 162.2 L 108.46094551086426 164.8752981185913 L 110.1 166.4 L 115.1 169.5 L 121.2 171.9 L 128.9 173.6 L 138.8 174.7 L 151.0 175.1 L 166.0 174.7 L 184.0 173.6 L 195.1 172.9 L 184.9 186.7 L 166.3 187.2 Z M 89.7 48.0 L 88.5 44.9 L 87.1 41.9 L 85.5 38.9 L 83.8 35.9 L 82.0 32.9 L 80.0 30.0 L 77.8 27.0 L 75.4 24.2 L 76.5 22.7 L 79.8 24.8 L 83.1 26.8 L 86.2 29.0 L 89.1 31.5 L 91.8 34.2 L 94.4 37.0 L 96.8 40.0 L 99.0 43.2 L 101.0 46.5 L 102.9 49.9 L 102.8 54.5 L 99.5 57.7 L 95.0 57.6 L 91.7 54.3 L 90.8 51.1 Z M 175.5 19.5 L 177.3 22.6 L 173.2921772956848 22.94550199508667 L 172.1 24.8 L 170.2 27.7 L 168.1 30.8 L 165.9 34.1 L 163.5 37.5 L 161.0 41.2 L 158.2 45.0 L 155.2 48.9 L 152.2 53.1 L 150.6 52.3 L 152.4 47.4 L 154.0 42.8 L 155.7 38.4 L 157.2 34.2 L 158.7 30.3 L 160.1 26.7 L 161.5 23.2 L 162.7 20.0 L 163.8 17.0 L 164.39830121994018 15.13861837387085 L 164.3 15.1 L 164.61000003814698 14.480000019073486 L 164.7 14.2 L 164.74014873504638 14.219702625274659 L 165.3 13.1 Z M 128.3 38.9 L 127.5 35.8 L 126.5 32.7 L 125.4 29.8 L 124.2 26.9 L 122.8 24.0 L 119.6 18.2 L 117.5 15.6 L 118.7 14.3 L 121.5 16.3 L 124.5 18.3 L 127.2 20.5 L 129.7 23.1 L 132.1 25.8 L 134.2 28.7 L 136.2 31.9 L 138.0 35.2 L 139.7 38.7 L 141.1 42.3 L 140.4 46.8 L 136.8 49.6 L 132.3 48.9 L 129.5 45.3 L 129.0 42.0 Z M 39.5 33.5 L 38.7 30.9 L 37.7 28.3 L 36.7 25.9 L 35.4 23.4 L 34.0 21.0 L 32.5 18.7 L 30.8 16.3 L 28.7 14.3 L 29.8 12.8 L 32.4 14.3 L 35.3 15.6 L 37.9 17.3 L 40.4 19.2 L 42.8 21.4 L 45.0 23.8 L 47.0 26.4 L 48.9 29.1 L 50.6 32.1 L 52.2 35.2 L 51.8 39.8 L 48.3 42.8 L 43.8 42.4 L 40.8 38.9 L 40.2 36.2 Z " />
</g>
</svg>
