<svg xmlns="http://www.w3.org/2000/svg" xmlns:xlink="http://www.w3.org/1999/xlink" version="1.1" baseProfile="full" viewBox="0 0 200 200" width="200" height="200">
<g fill="black">
<path d="M 54.2 105.1 L 57.1 107.2 L 53.864025592803955 109.04006385803223 L 53.1 118.0 L 51.4 129.8 L 51.1381817817688 131.0 L 60.4 131.0 L 70.4 121.0 L 82.4 131.0 L 82.4 135.0 L 51.2692307472229 135.0 L 52.1 135.6 L 55.6 138.3 L 58.9 141.3 L 62.0 144.4 L 65.0 147.6 L 67.8 151.0 L 70.4 154.5 L 72.9 158.1 L 75.3 161.9 L 77.5 165.7 L 77.6 170.3 L 74.6 173.7 L 70.0 173.8 L 66.6 170.7 L 65.2 166.9 L 62.0 159.5 L 60.2 155.9 L 58.3 152.3 L 56.3 148.7 L 54.2 145.1 L 52.0 141.5 L 49.7 137.9 L 49.64931507110596 137.82397260665894 L 49.0 140.8 L 45.8 150.7 L 42.0 159.7 L 37.5 167.6 L 32.2 174.5 L 26.2 180.2 L 19.6 184.6 L 12.4 187.8 L 11.6 186.1 L 17.4 181.5 L 22.5 176.3 L 27.0 170.4 L 30.9 163.7 L 34.3 156.2 L 37.0 147.8 L 39.2 138.5 L 39.743689346313474 135.0 L 15.0 135.0 L 15.0 131.0 L 40.365048503875734 131.0 L 40.8 128.2 L 41.8 117.0 L 42.16734085083008 105.79610424041748 L 42.1 105.8 L 42.152941131591795 104.0 L 13.0 104.0 L 13.0 100.0 L 42.2 100.0 L 42.2 78.0 L 23.1 78.0 L 23.1 74.0 L 42.2 74.0 L 42.2 52.0 L 17.0 52.0 L 17.0 48.0 L 36.45384616851807 48.0 L 35.1 47.6 L 32.8 43.7 L 32.9 41.1 L 32.9 38.5 L 32.5 33.5 L 32.2 30.9 L 31.8 28.4 L 31.2 25.9 L 30.7 23.3 L 30.0 20.7 L 28.9 18.3 L 30.4 17.3 L 32.1 19.4 L 34.2 21.4 L 36.0 23.6 L 37.7 25.9 L 39.2 28.4 L 40.6 31.0 L 41.8 33.6 L 42.9 36.4 L 43.9 39.3 L 44.8 42.3 L 43.5 46.6 L 41.06521739959717 48.0 L 53.8 48.0 L 54.3 46.0 L 54.9 42.4 L 55.6 38.9 L 57.0 32.1 L 58.4 25.5 L 59.1 22.3 L 60.10206184387207 17.122680377960204 L 60.0 17.1 L 60.7 14.6 L 71.7 19.7 L 74.0 22.5 L 70.01000003814697 23.480000019073486 L 68.9 25.7 L 67.5 28.7 L 65.9 31.7 L 64.3 34.8 L 62.6 37.9 L 60.9 40.9 L 59.0 44.0 L 56.9 47.1 L 56.39375 48.0 L 65.0777777671814 48.0 L 71.3 41.0 L 79.3 48.0 L 79.3 52.0 L 54.2 52.0 L 54.2 74.0 L 56.11818180084229 74.0 L 64.3 65.0 L 74.3 74.0 L 74.3 78.0 L 54.2 78.0 L 54.2 100.0 L 62.4 100.0 L 72.4 90.0 L 84.4 100.0 L 84.4 104.0 L 49.31111106872559 104.0 Z M 119.3 126.9 L 122.3 128.9 L 119.3 130.7 L 119.3 146.3 L 126.8777777671814 146.3 L 133.1 139.3 L 141.1 146.3 L 141.1 150.3 L 119.3 150.3 L 119.3 170.61666669845582 L 120.6 170.4 L 123.6 170.0 L 126.7 169.6 L 129.7 169.2 L 135.9 168.6 L 139.1 168.4 L 142.2 167.8 L 142.7 169.5 L 139.9 170.9 L 137.2 172.5 L 134.4 174.1 L 131.7 175.5 L 128.9 176.9 L 120.5 180.8 L 117.8 182.1 L 115.875 182.925 L 111.3 187.5 L 101.3 177.5 L 107.3 171.5 L 107.3 124.9 Z M 102.9 130.6 L 101.7 138.9 L 99.8 146.8 L 97.4 154.1 L 94.4 160.8 L 90.7 167.0 L 86.4 172.5 L 81.6 177.4 L 76.1 181.5 L 70.1 184.8 L 69.1 183.3 L 73.7 178.6 L 77.7 173.7 L 81.2 168.6 L 84.2 163.2 L 86.6 157.4 L 88.6 151.1 L 90.1 144.5 L 91.0 137.4 L 91.5 129.8 L 91.5 72.1 L 103.5 78.1 L 139.87777776718139 78.1 L 136.5 75.7 L 136.2 74.4 L 135.8 73.1 L 135.3 71.8 L 134.6 70.4 L 133.7 69.0 L 132.7 67.7 L 131.6 66.3 L 130.2 64.9 L 128.8 63.4 L 127.36216220855712 62.71891889572144 L 118.8 67.0 L 118.8 40.1 L 101.3 40.1 L 101.3 62.2 L 89.3 68.2 L 89.3 30.1 L 101.3 36.1 L 118.8 36.1 L 124.3 31.1 L 134.8 40.1 L 129.8 43.6 L 129.8 61.5 L 129.7692307472229 61.51538457870483 L 131.8 61.7 L 133.9 62.1 L 136.0 62.6 L 138.0 63.4 L 139.9 64.3 L 141.8 65.3 L 142.2 65.58888893127441 L 142.2 30.6 L 153.2 36.1 L 170.7 36.1 L 176.7 31.1 L 187.7 40.1 L 182.7 44.1 L 182.7 61.3 L 170.7 67.3 L 170.7 40.1 L 153.2 40.1 L 153.2 62.5 L 144.10909090042114 67.04545450210571 L 145.2 68.0 L 146.8 69.5 L 147.4 74.0 L 144.8 77.8 L 142.55 78.1 L 164.0 78.1 L 174.0 68.1 L 186.0 78.1 L 186.0 82.1 L 158.2 82.1 L 158.2 97.0 L 171.1 97.0 L 177.1 92.0 L 188.1 101.0 L 183.1 105.0 L 183.1 123.7 L 171.1 129.7 L 171.1 123.7 L 103.36516857147217 123.7 Z M 181.4 147.0 L 183.4 147.0 L 181.4 172.0 L 185.0 174.4 L 187.4 178.0 L 185.0 181.6 L 181.4 184.0 L 159.2 184.0 L 156.6 183.9 L 154.1 183.4 L 151.7 182.6 L 149.4 181.4 L 147.4 179.7 L 145.8 177.7 L 144.5 175.5 L 143.7 173.1 L 143.3 170.6 L 143.2 168.0 L 143.2 124.3 L 155.2 126.3 L 158.2 128.3 L 155.2 130.1 L 155.2 147.66000003814696 L 158.0 145.7 L 160.8 143.8 L 163.5 142.0 L 166.1 140.2 L 168.6 138.5 L 171.0 136.8 L 173.3 135.2 L 174.6949052810669 134.2489282608032 L 174.6 134.1 L 174.72956676483153 134.2252953529358 L 175.5 133.7 L 176.87210683822633 136.29720220565795 L 183.7 142.9 L 183.8 146.2 L 180.0666666984558 144.6444444656372 L 175.7 146.1 L 172.9 147.1 L 169.9 148.0 L 166.8 148.9 L 163.6 149.9 L 160.3 150.8 L 156.8 151.7 L 155.2 152.0027027130127 L 155.2 169.2 L 155.4 170.1 L 155.6 170.7 L 155.7 171.1 L 155.9 171.3 L 156.1 171.4 L 156.4 171.6 L 157.0 171.8 L 157.9 171.9 L 159.2 172.0 L 175.4 172.0 Z M 103.5 101.0 L 103.5 119.7 L 119.3 119.7 L 119.3 101.0 Z M 131.3 101.0 L 131.3 119.7 L 146.2 119.7 L 146.2 101.0 Z M 158.2 101.0 L 158.2 119.7 L 171.1 119.7 L 171.1 101.0 Z M 103.5 82.1 L 103.5 97.0 L 119.3 97.0 L 119.3 82.1 Z M 131.3 82.1 L 131.3 97.0 L 146.2 97.0 L 146.2 82.1 Z M 106.3 55.9 L 106.2 54.1 L 106.2 52.4 L 106.1 50.6 L 106.0 48.9 L 105.8 47.2 L 105.7 45.5 L 105.0 44.1 L 106.5 43.1 L 107.5 44.4 L 109.0 45.6 L 110.3 46.9 L 111.6 48.3 L 112.8 49.9 L 114.0 51.6 L 115.1 53.3 L 116.1 55.2 L 117.0 57.2 L 117.9 59.3 L 116.9 63.8 L 113.1 66.3 L 108.7 65.3 L 106.1 61.5 L 106.3 57.7 Z M 158.7 57.7 L 158.7 56.1 L 158.6 54.4 L 158.5 52.8 L 158.3 51.1 L 157.9 47.5 L 157.6 45.7 L 156.8 44.1 L 158.3 43.1 L 159.4 44.6 L 161.0 45.8 L 162.4 47.1 L 163.7 48.5 L 165.0 50.0 L 166.2 51.5 L 168.4 54.7 L 169.3 56.4 L 170.2 58.2 L 169.4 62.7 L 165.7 65.3 L 161.2 64.5 L 158.5 60.8 L 158.6 59.2 Z M 186.6 21.1 L 186.6 25.1 L 139.7 25.1 L 139.7 21.1 L 168.4181818008423 21.1 L 176.6 12.1 Z M 132.9 21.1 L 132.9 25.1 L 86.1 25.1 L 86.1 21.1 L 114.71818180084229 21.1 L 122.9 12.1 Z " />
</g>
</svg>
