<svg xmlns="http://www.w3.org/2000/svg" xmlns:xlink="http://www.w3.org/1999/xlink" version="1.1" baseProfile="full" viewBox="0 0 200 200" width="200" height="200">
<g fill="black">
<path d="M 166.9 177.8 L 161.8 173.2 L 157.1 168.1 L 152.8 162.7 L 148.8 156.8 L 145.2 150.5 L 142.1 143.9 L 139.5 136.8 L 138.19117650985717 131.8264705657959 L 135.1 141.1 L 130.3 150.7 L 124.4 159.4 L 117.3 167.2 L 109.1 173.9 L 99.8 179.6 L 89.5 184.3 L 78.0 187.8 L 77.5 186.1 L 87.9 180.8 L 97.0 175.1 L 105.0 168.8 L 111.9 161.9 L 117.6 154.5 L 122.1 146.4 L 125.7 137.6 L 127.7 130.0 L 85.3 130.0 L 85.3 126.0 L 128.48823528289796 126.0 L 129.6 117.9 L 130.0 106.9 L 130.02940454483033 106.90024499893188 L 130.1 104.5 L 142.0 107.0 L 145.0 109.1 L 141.63830251693724 111.01155347824097 L 140.9 119.2 L 139.5280701637268 126.0 L 165.7 126.0 L 175.7 116.0 L 187.7 126.0 L 187.7 130.0 L 140.04615383148194 130.0 L 143.2 135.0 L 147.3 141.0 L 151.4 146.7 L 155.6 151.9 L 159.9 156.7 L 164.4 161.0 L 169.1 164.9 L 174.0 168.4 L 179.0 171.5 L 184.2 174.1 L 189.3 176.8 L 178.1 185.8 L 172.3 182.0 Z M 30.0 176.0 L 18.0 182.0 L 18.0 105.0 L 30.0 107.0 L 33.0 109.0 L 30.0 110.8 L 30.0 160.0 L 44.0 160.0 L 44.0 91.0 L 13.0 91.0 L 13.0 87.0 L 44.0 87.0 L 44.0 48.0 L 33.853125 48.0 L 30.9 54.3 L 27.7 60.8 L 24.1 67.3 L 20.1 73.8 L 15.8 80.4 L 14.1 79.5 L 16.7 72.2 L 19.2 65.1 L 21.6 58.2 L 23.9 51.5 L 25.9 45.0 L 27.8 38.6 L 29.4 32.4 L 30.8 26.4 L 31.9 20.5 L 32.741253757476805 15.704853343963624 L 32.7 15.7 L 33.2 12.9 L 44.6 17.1 L 47.2 19.7 L 43.57249670028686 20.953137493133546 L 43.0 23.1 L 41.1 29.2 L 39.0 35.4 L 36.6 41.6 L 35.57142858505249 44.0 L 62.0 44.0 L 72.0 34.0 L 84.0 44.0 L 84.0 48.0 L 56.0 48.0 L 56.0 87.0 L 67.0 87.0 L 77.0 77.0 L 89.0 87.0 L 89.0 91.0 L 56.0 91.0 L 56.0 160.0 L 70.0 160.0 L 70.0 105.0 L 82.0 107.0 L 85.0 109.0 L 82.0 110.8 L 82.0 166.0 L 70.0 172.0 L 70.0 164.0 L 30.0 164.0 Z M 88.2 99.9 L 130.5 99.9 L 130.5 77.2 L 96.7 77.2 L 96.7 73.2 L 130.5 73.2 L 130.5 50.5 L 92.1 50.5 L 92.1 46.5 L 145.9333333015442 46.5 L 146.6 44.5 L 147.5 40.9 L 149.3 34.1 L 150.2 30.8 L 151.8 24.6 L 152.6 21.6 L 153.2 18.6 L 153.6015625 16.72604169845581 L 153.5 16.7 L 154.3 14.3 L 165.2 19.7 L 167.3 22.6 L 163.29470338821412 23.443220329284667 L 162.3 25.3 L 160.7 28.1 L 159.1 31.0 L 157.3 33.9 L 155.5 36.9 L 153.5 39.8 L 151.4 42.8 L 149.1 45.8 L 148.62580642700195 46.5 L 158.9 46.5 L 168.9 36.5 L 180.9 46.5 L 180.9 50.5 L 142.5 50.5 L 142.5 73.2 L 154.3 73.2 L 164.3 63.2 L 176.3 73.2 L 176.3 77.2 L 142.5 77.2 L 142.5 99.9 L 162.8 99.9 L 172.8 89.9 L 184.8 99.9 L 184.8 103.9 L 88.2 103.9 Z M 116.5 33.3 L 116.0 30.8 L 115.4 28.3 L 114.7 25.8 L 113.9 23.4 L 113.1 20.9 L 112.2 18.4 L 110.9 16.2 L 112.2 15.0 L 114.2 16.9 L 116.4 18.7 L 118.4 20.6 L 120.3 22.8 L 122.1 25.0 L 123.7 27.4 L 125.3 30.0 L 126.7 32.6 L 128.0 35.4 L 129.1 38.2 L 128.4 42.7 L 124.7 45.5 L 120.2 44.7 L 117.5 41.0 L 116.9 35.8 Z " />
</g>
</svg>
