<svg xmlns="http://www.w3.org/2000/svg" xmlns:xlink="http://www.w3.org/1999/xlink" version="1.1" baseProfile="full" viewBox="0 0 200 200" width="200" height="200">
<g fill="black">
<path d="M 56.3 104.2 L 59.3 106.3 L 55.96479034423828 108.13109550476074 L 55.2 117.1 L 53.4 129.1 L 53.12972974777222 130.3 L 64.1 130.3 L 74.1 120.3 L 86.1 130.3 L 86.1 134.3 L 53.523076915740965 134.3 L 54.4 134.9 L 58.0 137.7 L 61.4 140.6 L 64.6 143.8 L 67.7 147.1 L 70.6 150.5 L 73.4 154.0 L 76.0 157.7 L 78.4 161.5 L 80.7 165.4 L 80.9 170.0 L 77.9 173.4 L 73.3 173.5 L 69.9 170.5 L 68.4 166.7 L 66.7 162.9 L 65.0 159.2 L 63.1 155.5 L 61.1 151.8 L 56.7 144.6 L 54.4 141.0 L 52.0 137.3 L 51.66161108016968 136.81844663619995 L 50.9 140.2 L 47.7 150.2 L 43.7 159.3 L 39.0 167.3 L 33.5 174.2 L 27.3 180.0 L 20.4 184.5 L 12.9 187.6 L 12.2 186.0 L 18.3 181.3 L 23.7 176.0 L 28.4 170.1 L 32.5 163.4 L 36.0 155.8 L 38.9 147.3 L 41.2 137.9 L 41.753846168518066 134.3 L 15.7 134.3 L 15.7 130.3 L 42.3692307472229 130.3 L 42.8 127.5 L 43.9 116.1 L 44.3 103.8 L 44.33027248382568 103.8010090827942 L 44.354545497894286 103.0 L 13.6 103.0 L 13.6 99.0 L 44.4 99.0 L 44.4 76.7 L 24.1 76.7 L 24.1 72.7 L 44.4 72.7 L 44.4 50.5 L 17.8 50.5 L 17.8 46.5 L 38.253846168518066 46.5 L 36.9 46.1 L 34.6 42.2 L 34.6 37.0 L 34.4 34.4 L 34.1 31.8 L 33.8 29.3 L 32.8 24.1 L 32.1 21.6 L 31.4 18.9 L 30.2 16.5 L 31.7 15.4 L 33.5 17.6 L 35.6 19.6 L 37.5 21.8 L 39.2 24.2 L 40.8 26.6 L 42.2 29.3 L 43.5 32.0 L 44.6 34.8 L 45.6 37.7 L 46.5 40.7 L 45.2 45.1 L 42.82608699798584 46.5 L 56.24444446563721 46.5 L 56.8 44.5 L 57.5 40.8 L 58.2 37.3 L 59.0 33.8 L 59.8 30.4 L 60.5 27.0 L 61.2 23.8 L 61.9 20.5 L 62.6 17.3 L 63.00190019607544 15.22351541519165 L 62.9 15.2 L 63.16938772201538 14.358163261413575 L 63.2 14.2 L 63.218118286132814 14.205880451202393 L 63.7 12.7 L 74.6 17.9 L 76.9 20.8 L 72.89306926727295 21.71386137008667 L 71.8 23.9 L 70.3 27.0 L 68.7 30.1 L 65.3 36.3 L 63.5 39.4 L 61.5 42.5 L 59.4 45.6 L 58.865625 46.5 L 64.71818180084229 46.5 L 72.9 37.5 L 82.9 46.5 L 82.9 50.5 L 56.4 50.5 L 56.4 72.7 L 59.518181800842285 72.7 L 67.7 63.7 L 77.7 72.7 L 77.7 76.7 L 56.4 76.7 L 56.4 99.0 L 66.2 99.0 L 76.2 89.0 L 88.2 99.0 L 88.2 103.0 L 51.01111106872558 103.0 Z M 146.7 158.0 L 156.7 158.0 L 157.9 157.9 L 158.8 157.7 L 159.7 157.4 L 160.1 157.0 L 160.3 156.7 L 160.4 156.1 L 160.6 155.2 L 160.7 154.0 L 160.7 112.0 L 135.9 112.0 L 135.9 183.0 L 123.9 189.0 L 123.9 112.0 L 98.6 112.0 L 98.6 108.0 L 160.7 108.0 L 166.7 103.0 L 177.7 112.0 L 172.7 116.0 L 172.7 154.0 L 172.5 156.5 L 172.1 159.0 L 171.3 161.4 L 170.1 163.7 L 168.4 165.7 L 166.4 167.3 L 164.1 168.6 L 161.7 169.4 L 159.2 169.8 L 156.7 170.0 L 156.7 164.0 L 146.7 161.0 Z M 166.1 75.6 L 161.1 70.3 L 156.4 64.6 L 151.9 58.6 L 147.6 52.3 L 143.5 45.6 L 139.7 38.6 L 136.2 31.1 L 135.60603704452515 29.555696201324462 L 132.2 36.6 L 127.7 45.2 L 122.8 53.4 L 117.7 61.2 L 112.4 68.5 L 106.8 75.3 L 100.9 81.7 L 94.7 87.5 L 88.2 92.6 L 86.9 91.3 L 91.9 84.8 L 96.8 78.2 L 101.6 71.3 L 106.2 64.2 L 110.5 56.7 L 114.7 48.8 L 118.7 40.6 L 122.5 32.1 L 126.1 23.1 L 129.4 13.8 L 129.41155023574828 13.804293060302735 L 129.9 12.4 L 140.7 18.0 L 142.8 20.9 L 139.1496343612671 21.59231071472168 L 137.36722288131713 25.722288417816163 L 139.9 29.0 L 144.7 35.4 L 149.5 41.5 L 154.3 47.3 L 159.1 52.7 L 164.0 57.8 L 169.0 62.5 L 174.1 66.9 L 179.2 71.0 L 184.4 74.7 L 187.4 76.9 L 176.5 85.2 L 171.2 80.6 Z M 163.0 80.0 L 163.0 84.0 L 107.8 84.0 L 107.8 80.0 L 141.0 80.0 L 151.0 70.0 Z " />
</g>
</svg>
