<svg xmlns="http://www.w3.org/2000/svg" xmlns:xlink="http://www.w3.org/1999/xlink" version="1.1" baseProfile="full" viewBox="0 0 200 200" width="200" height="200">
<g fill="black">
<path d="M 167.5 154.3 L 163.2 147.8 L 159.2 141.0 L 155.6 133.8 L 152.4 126.2 L 149.7 118.3 L 147.3 110.0 L 147.0 108.55 L 147.0 181.1 L 135.0 187.1 L 135.0 113.4333333015442 L 132.2 119.1 L 127.5 127.3 L 122.3 135.3 L 116.7 143.1 L 110.7 150.5 L 104.2 157.7 L 97.1 164.5 L 89.6 170.9 L 88.3 169.6 L 94.3 161.9 L 100.1 154.2 L 105.4 146.6 L 110.5 138.8 L 115.1 130.9 L 119.3 122.8 L 123.1 114.7 L 126.6 106.3 L 129.6 97.9 L 131.0202898979187 93.0 L 105.0 93.0 L 105.0 89.0 L 135.0 89.0 L 135.0 53.4 L 147.0 55.4 L 150.0 57.4 L 147.0 59.2 L 147.0 89.0 L 163.0 89.0 L 173.0 79.0 L 185.0 89.0 L 185.0 93.0 L 147.0 93.0 L 147.0 93.9970588684082 L 149.5 100.1 L 152.9 108.1 L 156.4 115.6 L 160.0 122.7 L 163.9 129.4 L 168.0 135.7 L 172.2 141.5 L 176.8 146.9 L 181.5 151.9 L 186.5 156.5 L 188.2 158.1 L 177.4 166.1 L 172.3 160.4 Z M 99.0 46.5 L 129.0 46.5 L 129.0 12.8 L 141.0 14.8 L 144.0 16.8 L 141.0 18.6 L 141.0 46.5 L 163.0 46.5 L 173.0 36.5 L 185.0 46.5 L 185.0 50.5 L 99.0 50.5 L 99.0 101.9 L 98.4 113.4 L 97.2 124.2 L 95.4 134.4 L 93.0 143.9 L 90.0 152.8 L 86.3 160.9 L 82.1 168.4 L 77.2 175.1 L 71.7 180.9 L 65.6 185.7 L 64.3 184.4 L 68.8 178.4 L 72.8 172.0 L 76.4 165.2 L 79.4 157.9 L 81.9 150.1 L 84.0 141.7 L 85.5 132.7 L 86.5 123.0 L 87.0 112.8 L 87.0 40.5 Z M 62.0 153.3 L 60.8 149.9 L 59.3 146.3 L 57.5 142.7 L 55.5 138.9 L 53.2 135.0 L 50.6 130.9 L 48.198911094665526 127.07604351043702 L 47.6 130.4 L 44.8 140.8 L 41.4 150.4 L 37.2 159.2 L 32.3 167.2 L 26.7 174.3 L 20.4 180.5 L 13.4 185.6 L 12.2 184.3 L 17.7 177.9 L 22.5 171.1 L 26.7 163.8 L 30.4 156.0 L 33.4 147.5 L 35.9 138.4 L 37.7 128.6 L 38.9 118.1 L 39.6 106.9 L 39.6 17.0 L 51.6 19.0 L 54.6 21.0 L 51.6 22.8 L 51.6 72.74642858505248 L 53.5 70.1 L 56.1 66.4 L 58.6 62.9 L 61.0 59.6 L 63.2 56.4 L 65.3 53.4 L 67.2 50.6 L 68.44572744369506 48.731408786773684 L 68.4 48.7 L 68.9 48.05 L 69.0 47.9 L 69.0094464302063 47.90771961212158 L 69.4 47.4 L 78.3 55.5 L 79.3 59.0 L 75.379026222229 58.3808988571167 L 73.3 60.3 L 70.6 62.9 L 67.7 65.6 L 64.6 68.4 L 61.4 71.2 L 57.9 74.2 L 54.3 77.3 L 51.6 79.325 L 51.6 95.0 L 50.9 107.5 L 49.6 119.3 L 48.89543371200561 123.21034288406372 L 50.4 124.4 L 54.4 127.7 L 58.0 131.1 L 61.3 134.6 L 64.4 138.2 L 67.1 141.7 L 69.5 145.3 L 71.7 149.0 L 73.6 152.7 L 75.1 156.4 L 74.6 160.9 L 71.0 163.8 L 66.5 163.3 L 63.6 159.7 L 62.9 156.6 Z M 16.2 108.5 L 13.5 104.8 L 14.1 100.3 L 15.9 97.5 L 17.6 94.4 L 19.0 90.8 L 20.3 86.8 L 21.3 82.4 L 22.1 77.5 L 22.7 72.3 L 23.1 66.6 L 23.3 60.6 L 23.5 54.1 L 25.3 53.8 L 27.1 60.2 L 28.4 66.3 L 29.2 72.2 L 29.7 77.9 L 29.7 83.2 L 29.4 88.4 L 28.8 93.3 L 27.7 97.9 L 26.3 102.3 L 24.4 106.5 L 20.7 109.1 Z " />
</g>
</svg>
