<svg xmlns="http://www.w3.org/2000/svg" xmlns:xlink="http://www.w3.org/1999/xlink" version="1.1" baseProfile="full" viewBox="0 0 200 200" width="200" height="200">
<g fill="black">
<path d="M 111.0 181.2 L 99.0 187.2 L 99.0 98.85 L 95.4 102.3 L 90.4 106.6 L 85.1 110.5 L 79.5 114.0 L 78.4 112.6 L 82.6 107.7 L 86.6 102.8 L 90.6 97.8 L 94.4 92.8 L 98.0 87.6 L 99.0 86.07058820724487 L 99.0 83.9 L 100.06956520080567 84.43478260040283 L 101.4 82.4 L 104.6 77.0 L 107.6 71.4 L 110.5 65.7 L 112.7028992652893 60.70111312866211 L 112.7 60.7 L 112.72857141494751 60.64285717010498 L 113.1 59.8 L 113.14029846191406 59.81940298080444 L 113.7 58.7 L 123.9 65.0 L 125.8 68.1 L 121.95413846969605 68.49110460281372 L 120.5 71.1 L 116.9 76.8 L 113.1 82.4 L 109.0 87.8 L 108.3384614944458 88.5692307472229 L 111.0 89.9 L 137.08000001907348 89.9 L 138.4 87.8 L 140.2 84.2 L 143.8 77.6 L 145.5 74.6 L 147.0 71.6 L 148.5 68.8 L 149.9 66.2 L 151.97806692123413 62.04386615753174 L 151.9 62.0 L 152.3 61.4 L 152.4 61.2 L 152.4230414390564 61.21543779373169 L 152.9 60.5 L 162.4 67.9 L 163.7 71.3 L 159.46803588867186 71.0811053276062 L 158.4 72.2 L 156.3 74.5 L 154.1 76.8 L 151.7 79.2 L 149.1 81.7 L 146.5 84.3 L 143.7 86.9 L 140.6 89.5 L 140.2 89.9 L 162.0 89.9 L 172.0 79.9 L 184.0 89.9 L 184.0 93.9 L 148.0 93.9 L 148.0 116.5 L 160.0 116.5 L 170.0 106.5 L 182.0 116.5 L 182.0 120.5 L 148.0 120.5 L 148.0 143.9 L 160.0 143.9 L 170.0 133.9 L 182.0 143.9 L 182.0 147.9 L 148.0 147.9 L 148.0 174.2 L 166.0 174.2 L 176.0 164.2 L 188.0 174.2 L 188.0 178.2 L 111.0 178.2 Z M 111.0 147.9 L 111.0 174.2 L 136.0 174.2 L 136.0 147.9 Z M 25.2 158.0 L 13.2 164.0 L 13.2 24.0 L 25.2 30.0 L 64.4 30.0 L 70.4 25.0 L 81.4 34.0 L 76.4 38.0 L 76.4 152.0 L 64.4 158.0 L 64.4 146.0 L 25.2 146.0 Z M 111.0 120.5 L 111.0 143.9 L 136.0 143.9 L 136.0 120.5 Z M 25.2 90.0 L 25.2 142.0 L 38.8 142.0 L 38.8 90.0 Z M 50.8 90.0 L 50.8 142.0 L 64.4 142.0 L 64.4 90.0 Z M 111.0 93.9 L 111.0 116.5 L 136.0 116.5 L 136.0 93.9 Z M 25.2 34.0 L 25.2 86.0 L 38.8 86.0 L 38.8 34.0 Z M 50.8 34.0 L 50.8 86.0 L 64.4 86.0 L 64.4 34.0 Z M 157.8 15.1 L 160.8 17.1 L 157.8 18.9 L 157.8 32.4 L 164.3 32.4 L 174.3 22.4 L 186.3 32.4 L 186.3 36.4 L 157.8 36.4 L 157.8 50.9 L 145.8 56.9 L 145.8 36.4 L 125.1 36.4 L 125.1 50.9 L 113.1 56.9 L 113.1 36.4 L 84.6 36.4 L 84.6 32.4 L 113.1 32.4 L 113.1 13.1 L 125.1 15.1 L 128.1 17.1 L 125.1 18.9 L 125.1 32.4 L 145.8 32.4 L 145.8 13.1 Z " />
</g>
</svg>
