<svg xmlns="http://www.w3.org/2000/svg" xmlns:xlink="http://www.w3.org/1999/xlink" version="1.1" baseProfile="full" viewBox="0 0 200 200" width="200" height="200">
<g fill="black">
<path d="M 161.9 177.5 L 155.6 172.2 L 150.0 166.4 L 147.09565439224244 162.54729661941528 L 142.5 167.7 L 135.5 173.9 L 127.9 179.0 L 119.9 182.9 L 111.5 185.6 L 102.7 187.0 L 102.3 185.2 L 110.2 182.0 L 117.5 178.1 L 124.3 173.5 L 130.5 168.1 L 136.3 161.9 L 141.6 154.8 L 141.86474924087526 154.37640113830565 L 141.0 152.9 L 137.6 145.4 L 135.0 137.4 L 133.55537900924682 130.57817850112914 L 132.4 133.2 L 129.5 138.8 L 126.3 144.2 L 122.8 149.2 L 118.9 153.8 L 114.7 157.9 L 113.3 156.8 L 115.8 151.6 L 118.2 146.4 L 120.5 141.1 L 122.6 135.7 L 124.5 130.1 L 126.2 124.3 L 127.7 118.3 L 129.0 112.1 L 130.0 105.7 L 130.76508874893187 100.00433921813965 L 130.7 100.0 L 131.2 97.0 L 142.7 100.8 L 145.4 103.3 L 141.85478258132935 104.74434785842895 L 141.2 107.8 L 139.4 114.6 L 138.7125 116.8 L 158.5 116.8 L 164.5 111.8 L 175.5 120.8 L 170.5 123.8 L 168.6454545021057 124.57272729873657 L 165.7 132.1 L 160.7 142.5 L 155.2 151.9 L 153.0838303565979 154.8140697479248 L 157.4 159.4 L 162.7 163.8 L 168.5 167.8 L 174.8 171.2 L 181.6 174.1 L 187.9 176.7 L 176.4 186.2 L 168.8 182.2 Z M 14.3 154.1 L 18.7 152.4 L 23.3 150.6 L 28.0 148.8 L 30.7 147.675 L 30.7 95.0 L 18.1 95.0 L 18.1 91.0 L 30.7 91.0 L 30.7 44.0 L 15.8 44.0 L 15.8 40.0 L 44.918181800842284 40.0 L 53.1 31.0 L 63.1 40.0 L 63.1 44.0 L 42.7 44.0 L 42.7 91.0 L 46.577777767181395 91.0 L 52.8 84.0 L 60.8 91.0 L 60.8 95.0 L 42.7 95.0 L 42.7 142.78235292434692 L 42.9 142.7 L 48.1 140.6 L 53.5 138.4 L 59.1 136.2 L 65.0 134.2 L 65.8 135.7 L 60.9 139.6 L 56.0 143.1 L 51.2 146.4 L 46.3 149.5 L 41.6 152.4 L 36.9 155.2 L 32.3 157.8 L 27.8 160.3 L 23.5 162.7 L 22.85957450866699 163.04255323410035 L 22.2 167.0 L 19.2 165.0 L 12.4 154.9 Z M 100.3 149.0 L 99.9 145.2 L 99.4 141.5 L 98.8 138.0 L 98.2 134.6 L 97.5 131.3 L 96.8 128.1 L 96.0 125.0 L 95.0 122.1 L 96.5 121.1 L 98.6 123.6 L 100.8 126.2 L 102.8 129.1 L 104.7 132.2 L 106.3 135.6 L 107.9 139.2 L 109.3 143.0 L 110.6 147.0 L 111.8 151.2 L 112.8 155.6 L 111.6 160.0 L 107.7 162.3 L 103.3 161.1 L 100.9 157.2 L 100.7 153.0 Z M 137.4625 120.8 L 137.4 121.0 L 136.02892694473266 124.59906682968139 L 137.2 127.8 L 140.5 135.4 L 144.1 142.3 L 146.75734262466432 146.48531465530397 L 151.1 137.8 L 155.1 127.8 L 157.47614679336547 120.8 Z M 162.1 103.9 L 159.7 103.6 L 157.3 102.9 L 155.1 101.8 L 153.1 100.3 L 151.5 98.5 L 150.2 96.3 L 149.3 94.0 L 148.8 91.5 L 148.5 89.0 L 148.5 68.3 L 131.725 68.3 L 140.5 71.0 L 143.2 73.4 L 139.52936706542968 74.96341772079468 L 139.3 75.9 L 137.8 80.6 L 135.9 85.2 L 133.6 89.6 L 131.0 93.8 L 128.0 97.8 L 124.6 101.6 L 120.9 105.2 L 116.8 108.5 L 112.58672561645508 111.30884952545166 L 112.1 113.3 L 108.3 115.8 L 103.8 114.7 L 101.3 110.9 L 101.0 107.1 L 100.625 103.725 L 98.5 105.1 L 95.0 107.1 L 94.9 107.15142860412598 L 94.9 181.1 L 82.9 187.1 L 82.9 130.9 L 82.73529415130615 130.9823529243469 L 82.5 132.6 L 81.5 138.0 L 80.4 143.3 L 79.1 148.6 L 77.6 153.8 L 75.9 159.0 L 74.0 164.0 L 71.9 169.0 L 69.4 173.8 L 66.6 178.5 L 64.9 177.8 L 65.8 172.5 L 66.7 167.3 L 67.7 162.2 L 68.6 157.1 L 70.0 146.9 L 70.5 141.7 L 70.9 136.6 L 71.2 131.4 L 71.28041820526123 127.2986707687378 L 71.2 127.3 L 71.4 124.0 L 82.9 126.99579830169678 L 82.9 112.68648653030395 L 80.4 113.7 L 76.6 115.1 L 73.03056650161743 116.19828720092774 L 71.4 120.1 L 68.8 117.5 L 64.6 106.1 L 66.5 105.7 L 70.3 105.3 L 75.79885759353638 104.57646608352661 L 76.8 101.3 L 79.2 94.2 L 81.7 87.1 L 84.2 80.1 L 85.62344493865967 76.05741624832153 L 82.9 78.1 L 78.4 77.4 L 75.6 73.7 L 75.2 70.6 L 74.6 67.5 L 74.0 64.6 L 73.2 61.7 L 72.3 58.9 L 71.3 56.2 L 70.2 53.5 L 68.9 50.9 L 67.6 48.2 L 65.9 45.8 L 67.1 44.5 L 69.6 46.4 L 72.2 48.2 L 74.6 50.3 L 75.86135559082031 51.616197204589845 L 76.0 51.0 L 76.9 46.9 L 77.8 42.9 L 78.9 38.9 L 83.9 18.9 L 84.59255828857422 15.821963024139404 L 84.5 15.8 L 85.3 13.4 L 96.3 18.6 L 98.5 21.4 L 94.70189809799194 22.266233730316163 L 92.9 26.4 L 89.3 34.0 L 87.4 37.8 L 85.5 41.5 L 83.5 45.1 L 81.3 48.7 L 77.8938931465149 53.883206081390384 L 79.0 55.2 L 81.0 58.0 L 82.8 60.9 L 84.4 64.1 L 85.9 67.4 L 87.3 70.9 L 87.151327419281 71.7362832069397 L 89.2 66.0 L 91.7 58.9 L 94.1 51.7 L 96.5 44.6 L 98.56105260848999 38.4168420791626 L 98.5 38.4 L 99.4 36.0 L 110.1 41.6 L 112.3 44.5 L 108.60852708816529 45.200106906890866 L 107.2 48.6 L 101.0 62.6 L 97.8 69.5 L 94.6 76.3 L 91.2 83.1 L 87.7 89.8 L 84.1 96.4 L 80.3 102.9 L 79.55940408706665 104.03798885345459 L 81.7 103.7 L 85.4 103.0 L 89.2 102.3 L 93.0 101.5 L 96.8 100.8 L 100.12892856597901 100.20249996185302 L 100.1 100.0 L 99.6 96.6 L 98.9 93.3 L 98.2 90.2 L 97.5 87.2 L 96.6 84.2 L 95.8 81.2 L 94.6 78.5 L 96.0 77.5 L 98.2 79.7 L 100.4 82.1 L 102.5 84.7 L 104.4 87.5 L 106.2 90.6 L 107.9 93.9 L 109.4 97.4 L 110.8 101.0 L 112.0 104.8 L 112.89174308776856 107.77247705459595 L 114.2 106.0 L 117.0 101.8 L 119.6 97.8 L 121.8 93.7 L 123.7 89.7 L 125.3 85.7 L 126.6 81.7 L 127.5 77.7 L 128.2 73.6 L 128.50202770233153 70.50421600341797 L 128.4 70.5 L 128.68387098312377 68.3 L 108.6 68.3 L 108.6 64.3 L 138.6 64.3 L 138.6 41.6 L 115.5 41.6 L 115.5 37.6 L 138.6 37.6 L 138.6 12.8 L 150.6 14.8 L 153.6 16.8 L 150.6 18.6 L 150.6 37.6 L 153.2 37.6 L 163.2 27.6 L 175.2 37.6 L 175.2 41.6 L 150.6 41.6 L 150.6 64.3 L 163.1 64.3 L 173.1 54.3 L 185.1 64.3 L 185.1 68.3 L 160.5 68.3 L 160.5 90.2 L 160.6 91.1 L 160.7 91.8 L 160.9 92.6 L 161.1 92.9 L 161.5 93.2 L 162.2 93.5 L 163.2 93.8 L 164.5 94.0 L 174.8 94.0 L 179.8 77.0 L 181.8 77.0 L 179.8 94.0 L 182.8 96.0 L 184.8 99.0 L 182.8 102.0 L 179.8 104.0 L 164.5 104.0 Z " />
</g>
</svg>
