<svg xmlns="http://www.w3.org/2000/svg" xmlns:xlink="http://www.w3.org/1999/xlink" version="1.1" baseProfile="full" viewBox="0 0 200 200" width="200" height="200">
<g fill="black">
<path d="M 64.8 103.9 L 64.5634895324707 103.00651588439942 L 64.0 103.3 L 59.1 105.5 L 54.1 107.5 L 52.1 108.19230766296387 L 52.1 181.1 L 40.1 187.1 L 40.1 112.01886796951294 L 33.1 114.0 L 27.7 115.3 L 22.2 116.5 L 20.728467178344726 116.7890510559082 L 19.0 120.3 L 16.6 117.6 L 13.0 106.0 L 15.0 105.7 L 20.4 105.3 L 28.259420299530028 104.42673110961914 L 29.9 101.1 L 33.6 93.9 L 37.4 86.7 L 41.2 79.6 L 48.6 65.4 L 52.2 58.2 L 55.8 51.1 L 62.35202045440674 37.621557998657224 L 62.3 37.6 L 63.3 35.6 L 73.4 42.2 L 75.2 45.4 L 71.49093141555787 45.588596725463866 L 69.4 49.3 L 65.2 56.2 L 61.0 63.2 L 52.2 76.8 L 47.6 83.6 L 43.0 90.2 L 38.2 96.7 L 33.1 103.1 L 32.37541151046753 103.9476318359375 L 36.6 103.4 L 41.9 102.7 L 47.1 101.9 L 52.4 101.1 L 63.0 99.7 L 63.66821117401123 99.62435340881348 L 63.0 97.1 L 61.8 93.8 L 60.6 90.6 L 59.3 87.5 L 57.8 84.4 L 56.2 81.4 L 54.3 78.5 L 55.6 77.2 L 58.4 79.4 L 61.3 81.7 L 64.0 84.2 L 66.5 87.1 L 68.8 90.1 L 70.9 93.4 L 72.9 96.9 L 74.7 100.6 L 76.3 104.4 L 77.8 108.5 L 77.0 113.0 L 73.3 115.7 L 68.8 115.0 L 66.1 111.3 L 65.5 107.6 Z M 80.5 179.8 L 128.0 179.8 L 128.0 143.5 L 88.4 143.5 L 88.4 139.5 L 128.0 139.5 L 128.0 111.2 L 138.0 113.2 L 140.5 115.2 L 138.0 116.86666669845582 L 138.0 139.5 L 155.5 139.5 L 165.5 129.5 L 177.5 139.5 L 177.5 143.5 L 138.0 143.5 L 138.0 179.8 L 163.4 179.8 L 173.4 169.8 L 185.4 179.8 L 185.4 183.8 L 80.5 183.8 Z M 35.7 127.3 L 38.5 129.5 L 34.99981241226196 131.15103187561036 L 34.7 132.8 L 33.5 138.3 L 32.0 143.6 L 30.3 149.0 L 28.4 154.2 L 26.2 159.3 L 23.7 164.4 L 20.9 169.3 L 17.8 174.0 L 14.3 178.6 L 12.7 177.7 L 14.4 172.3 L 17.6 161.9 L 19.0 156.7 L 20.3 151.6 L 21.4 146.5 L 22.2 141.4 L 22.9 136.3 L 23.4 131.2 L 23.64113645553589 127.10067996978759 L 23.6 127.1 L 23.9 123.9 Z M 64.4 149.4 L 63.6 145.6 L 62.7 142.0 L 61.7 138.4 L 60.6 135.0 L 59.4 131.6 L 58.0 128.4 L 56.6 125.1 L 54.9 122.1 L 56.3 120.9 L 59.1 123.3 L 61.9 125.8 L 64.4 128.6 L 66.8 131.8 L 69.0 135.1 L 71.0 138.7 L 72.8 142.6 L 74.5 146.6 L 76.0 150.8 L 77.3 155.3 L 76.3 159.7 L 72.5 162.3 L 68.1 161.3 L 65.5 157.5 L 65.0 153.4 Z M 121.3 81.1 L 120.4 78.1 L 119.5 75.3 L 118.4 72.6 L 117.2 69.9 L 116.0 67.3 L 115.9 67.12142858505248 L 115.9 112.9 L 104.9 118.4 L 104.9 77.03103446960449 L 104.3 78.5 L 101.2 85.2 L 97.7 91.4 L 94.1 97.2 L 90.1 102.5 L 85.8 107.2 L 81.2 111.3 L 79.8 110.1 L 82.8 104.9 L 85.6 99.5 L 88.4 93.9 L 91.0 88.0 L 93.4 81.8 L 95.6 75.2 L 97.7 68.2 L 99.5 60.9 L 101.2 53.2 L 102.05217390060425 48.3 L 82.9 48.3 L 82.9 44.3 L 104.9 44.3 L 104.9 13.2 L 115.9 15.2 L 118.6 17.2 L 115.9 18.923404216766357 L 115.9 44.3 L 121.8 44.3 L 126.3 38.3 L 132.3 44.3 L 132.3 48.3 L 115.9 48.3 L 115.9 60.89259262084961 L 117.6 61.9 L 120.2 63.8 L 122.6 66.0 L 124.9 68.5 L 127.0 71.1 L 129.0 74.0 L 130.9 77.1 L 132.6 80.3 L 134.1 83.8 L 133.7 88.3 L 130.2 91.3 L 125.6 90.8 L 122.7 87.3 L 122.0 84.1 Z M 170.7 97.8 L 168.1 92.6 L 165.7 87.0 L 163.5 81.2 L 161.5 75.1 L 161.0 73.21764707565308 L 161.0 112.9 L 150.0 118.4 L 150.0 75.48000001907349 L 148.5 78.9 L 145.7 84.1 L 142.8 89.1 L 139.6 93.6 L 136.2 97.7 L 132.5 101.3 L 131.0 100.3 L 135.0 90.9 L 136.9 86.1 L 138.8 81.0 L 140.6 75.7 L 142.3 70.1 L 143.9 64.3 L 145.3 58.2 L 146.6 51.8 L 147.17272729873656 48.3 L 133.6 48.3 L 133.6 44.3 L 150.0 44.3 L 150.0 13.2 L 161.0 15.2 L 163.8 17.2 L 161.0 18.95 L 161.0 44.3 L 164.8181818008423 44.3 L 173.0 35.3 L 183.0 44.3 L 183.0 48.3 L 161.0 48.3 L 161.0 53.08214282989502 L 161.3 53.8 L 164.0 60.3 L 166.7 66.4 L 169.3 72.1 L 172.1 77.5 L 174.9 82.6 L 177.8 87.2 L 180.7 91.6 L 183.8 95.5 L 186.9 99.1 L 187.3 99.6 L 176.6 107.4 L 173.5 102.7 Z M 28.2 68.2 L 27.1 65.2 L 25.8 62.3 L 24.3 59.4 L 22.6 56.6 L 20.7 53.9 L 18.7 51.1 L 16.4 48.3 L 13.8 45.8 L 14.8 44.3 L 18.2 46.0 L 21.5 47.8 L 24.7 49.8 L 27.7 52.1 L 27.971056079864503 52.35097780227661 L 28.6 50.7 L 30.1 46.6 L 31.8 42.5 L 33.4 38.4 L 35.1 34.4 L 36.7 30.3 L 39.9 22.3 L 41.4 18.2 L 42.622392654418945 15.144018363952636 L 42.5 15.1 L 43.5 13.0 L 53.9 19.2 L 55.8 22.3 L 51.92516431808472 22.70084505081177 L 51.7 23.1 L 44.8 34.5 L 39.8 41.9 L 37.2 45.5 L 34.4 49.1 L 31.5 52.5 L 29.985611534118654 54.21630697250366 L 30.4 54.6 L 33.0 57.4 L 35.4 60.4 L 37.6 63.5 L 39.5 66.9 L 41.3 70.4 L 41.0 75.0 L 37.6 78.0 L 33.0 77.7 L 29.9 74.3 L 29.2 71.2 Z " />
</g>
</svg>
