<svg xmlns="http://www.w3.org/2000/svg" xmlns:xlink="http://www.w3.org/1999/xlink" version="1.1" baseProfile="full" viewBox="0 0 200 200" width="200" height="200">
<g fill="black">
<path d="M 64.3 105.0 L 64.0467716217041 104.01522312164306 L 63.5 104.3 L 58.5 106.6 L 53.4 108.6 L 51.4 109.29230766296386 L 51.4 183.0 L 39.4 189.0 L 39.4 113.11886796951293 L 37.7 113.6 L 32.3 115.1 L 26.8 116.4 L 21.3 117.6 L 19.86904172897339 117.90663394927978 L 18.1 121.5 L 15.7 118.8 L 12.1 107.1 L 14.1 106.9 L 19.6 106.4 L 27.431428527832033 105.5298412322998 L 29.1 102.1 L 32.9 94.8 L 40.5 80.4 L 44.2 73.3 L 51.6 58.9 L 55.2 51.6 L 58.8 44.4 L 62.2 37.1 L 62.23977699279785 37.12044610977173 L 62.8 36.0 L 72.9 42.6 L 74.6 45.8 L 70.9428786277771 45.98916149139404 L 68.8 49.7 L 64.6 56.8 L 60.4 63.8 L 56.0 70.7 L 51.5 77.6 L 47.0 84.4 L 42.2 91.1 L 37.4 97.7 L 32.3 104.2 L 31.57541151046753 105.0476318359375 L 35.8 104.5 L 41.1 103.8 L 46.5 103.0 L 57.1 101.4 L 62.4 100.7 L 63.14769229888916 100.61692304611206 L 62.4 98.0 L 61.3 94.7 L 60.0 91.5 L 58.7 88.4 L 57.2 85.3 L 55.6 82.2 L 53.7 79.3 L 55.0 78.0 L 57.8 80.2 L 60.8 82.5 L 63.4 85.1 L 65.9 88.0 L 68.3 91.1 L 70.4 94.4 L 72.4 97.9 L 74.2 101.6 L 75.8 105.5 L 77.3 109.6 L 76.5 114.1 L 72.8 116.9 L 68.3 116.1 L 65.6 112.4 L 65.0 108.6 Z M 122.1 164.2 L 120.9 160.7 L 120.58489637374878 159.93474826812744 L 119.1 161.0 L 114.6 164.0 L 110.1 166.8 L 105.7 169.3 L 101.4 171.7 L 97.2 173.9 L 93.2 175.9 L 89.3 177.9 L 85.62846536636353 179.50041255950927 L 84.6 183.5 L 81.7 181.3 L 75.9 170.6 L 77.8 170.0 L 81.6 169.0 L 84.6 168.13157892227173 L 84.6 65.6 L 96.6 71.6 L 120.9 71.6 L 126.4 66.6 L 136.9 75.6 L 131.9 79.1 L 131.9 127.5 L 120.9 133.0 L 120.9 127.5 L 96.6 127.5 L 96.6 164.47727270126342 L 98.1 164.0 L 102.7 162.5 L 107.4 160.9 L 112.4 159.3 L 117.5 157.7 L 119.42284870147705 157.13026704788209 L 118.0 154.0 L 116.4 150.7 L 114.7 147.4 L 112.8 144.2 L 110.9 140.9 L 108.6 137.8 L 109.8 136.5 L 113.1 138.8 L 116.3 141.1 L 119.3 143.8 L 122.1 146.6 L 124.8 149.7 L 127.2 152.9 L 129.5 156.3 L 131.7 159.9 L 133.6 163.6 L 135.4 167.5 L 135.1 172.1 L 131.7 175.1 L 127.1 174.8 L 124.1 171.4 L 123.1 167.7 Z M 34.9 128.5 L 37.6 130.8 L 34.197144985198975 132.43598794937134 L 33.9 134.1 L 32.7 139.6 L 31.2 145.1 L 29.5 150.4 L 27.5 155.7 L 25.3 160.9 L 22.8 166.0 L 20.0 171.0 L 16.9 175.8 L 13.3 180.4 L 11.8 179.5 L 13.5 174.1 L 16.7 163.5 L 18.2 158.3 L 19.4 153.2 L 20.5 148.0 L 21.4 142.9 L 22.1 137.7 L 22.6 132.5 L 22.841156482696533 128.40034017562866 L 22.8 128.4 L 23.1 125.2 Z M 157.0 159.0 L 167.0 159.0 L 168.3 158.9 L 169.2 158.8 L 169.8 158.6 L 170.1 158.4 L 170.4 158.1 L 170.6 157.7 L 170.8 157.1 L 171.0 156.2 L 171.0 75.6 L 151.5 75.6 L 151.5 182.0 L 140.5 187.5 L 140.5 66.1 L 151.5 71.6 L 171.0 71.6 L 177.0 66.6 L 188.0 75.6 L 183.0 79.6 L 183.0 155.0 L 182.9 157.5 L 182.4 160.0 L 181.6 162.4 L 180.4 164.7 L 178.8 166.7 L 176.7 168.4 L 174.5 169.6 L 172.1 170.4 L 169.6 170.8 L 167.0 171.0 L 167.0 165.0 L 157.0 162.0 Z M 63.8 151.0 L 63.1 147.1 L 62.2 143.4 L 61.2 139.8 L 60.0 136.3 L 58.8 132.9 L 57.4 129.7 L 56.0 126.4 L 54.3 123.3 L 55.7 122.1 L 58.5 124.5 L 61.3 127.0 L 63.9 129.9 L 66.2 133.1 L 68.4 136.5 L 70.4 140.2 L 72.3 144.0 L 74.0 148.1 L 75.5 152.4 L 76.8 156.9 L 75.8 161.3 L 72.0 163.9 L 67.6 162.9 L 65.0 159.1 L 64.5 155.0 Z M 96.6 101.2 L 96.6 123.5 L 120.9 123.5 L 120.9 101.2 Z M 96.6 75.6 L 96.6 97.2 L 120.9 97.2 L 120.9 75.6 Z M 27.4 68.8 L 26.3 65.8 L 25.0 62.9 L 23.5 60.0 L 21.8 57.2 L 19.9 54.4 L 17.8 51.6 L 15.5 48.8 L 12.9 46.3 L 13.9 44.8 L 17.3 46.5 L 20.7 48.3 L 23.9 50.3 L 26.8 52.7 L 27.148223304748534 53.01091365814209 L 27.8 51.3 L 29.3 47.1 L 31.0 42.9 L 32.7 38.8 L 34.3 34.7 L 36.0 30.7 L 39.2 22.5 L 40.8 18.5 L 41.96244287490845 15.32265625 L 41.9 15.3 L 42.8 13.2 L 53.2 19.4 L 55.1 22.4 L 51.2452561378479 22.865227699279785 L 48.8 27.2 L 41.6 38.6 L 36.4 46.0 L 33.6 49.6 L 30.7 53.0 L 29.129494667053223 54.77990598678589 L 29.6 55.2 L 32.2 58.0 L 34.6 61.0 L 36.8 64.2 L 38.8 67.6 L 40.5 71.2 L 40.2 75.7 L 36.8 78.8 L 32.2 78.4 L 29.2 75.1 L 28.4 71.9 Z M 108.4 53.0 L 107.8 50.9 L 107.0 48.8 L 106.1 46.6 L 104.9 44.4 L 103.6 42.1 L 102.2 39.8 L 100.5 37.5 L 99.1 36.1 L 97.77777776718139 36.1 L 96.4 39.2 L 93.7 44.4 L 90.7 49.4 L 87.4 54.2 L 83.8 58.7 L 79.8 63.0 L 75.4 66.9 L 74.1 65.7 L 79.3 55.7 L 81.7 50.8 L 84.0 45.8 L 86.0 40.8 L 87.8 35.7 L 89.3 30.5 L 90.7 25.1 L 91.8 19.7 L 92.53573026657105 15.20387077331543 L 92.5 15.2 L 92.67391300201416 14.35942029953003 L 92.7 14.2 L 92.70662918090821 14.201292133331298 L 93.1 12.3 L 104.5 16.5 L 107.1 19.0 L 103.46341876983642 20.322393131256103 L 102.9 22.4 L 101.0 28.2 L 99.46785717010498 32.1 L 117.71818180084229 32.1 L 125.9 23.1 L 135.9 32.1 L 135.9 36.1 L 103.1384614944458 36.1 L 104.8 36.9 L 107.4 38.5 L 109.7 40.2 L 112.0 42.1 L 114.0 44.1 L 115.9 46.3 L 117.6 48.6 L 119.2 51.0 L 120.5 53.6 L 120.1 58.1 L 116.6 61.1 L 112.0 60.6 L 109.1 57.2 L 108.8 55.1 Z M 159.7 53.0 L 159.1 50.9 L 158.4 48.8 L 157.4 46.6 L 156.3 44.4 L 155.0 42.1 L 153.5 39.8 L 151.9 37.5 L 150.5 36.1 L 148.73529415130616 36.1 L 147.7 38.3 L 145.0 43.2 L 141.9 47.8 L 138.6 52.2 L 135.0 56.3 L 131.1 60.0 L 126.8 63.3 L 125.4 62.0 L 128.2 57.5 L 130.7 53.0 L 133.2 48.6 L 135.4 44.0 L 137.4 39.4 L 139.2 34.6 L 140.7 29.7 L 142.1 24.7 L 143.2 19.5 L 143.92963886260986 15.203237819671632 L 143.9 15.2 L 144.4 12.3 L 155.8 16.5 L 158.4 19.1 L 154.73333330154418 20.36666669845581 L 154.2 22.3 L 152.3 27.9 L 150.5566038131714 32.1 L 169.71818180084227 32.1 L 177.9 23.1 L 187.9 32.1 L 187.9 36.1 L 154.47692308425903 36.1 L 156.2 36.9 L 158.7 38.5 L 161.1 40.2 L 163.3 42.1 L 165.4 44.1 L 167.3 46.3 L 169.0 48.6 L 170.5 51.0 L 171.9 53.6 L 171.4 58.1 L 167.9 61.1 L 163.4 60.6 L 160.4 57.2 L 160.2 55.1 Z " />
</g>
</svg>
