<svg xmlns="http://www.w3.org/2000/svg" xmlns:xlink="http://www.w3.org/1999/xlink" version="1.1" baseProfile="full" viewBox="0 0 200 200" width="200" height="200">
<g fill="black">
<path d="M 124.1 127.5 L 127.1 129.5 L 124.1 131.3 L 124.1 147.0 L 130.0777777671814 147.0 L 136.3 140.0 L 144.3 147.0 L 144.3 151.0 L 124.1 151.0 L 124.1 171.5 L 124.8 171.4 L 127.7 170.9 L 130.5 170.5 L 133.4 170.1 L 136.4 169.8 L 139.3 169.5 L 142.4 169.2 L 145.3 168.7 L 145.8 170.4 L 143.2 171.7 L 140.6 173.3 L 138.1 174.9 L 130.3 179.1 L 127.6 180.4 L 125.0 181.7 L 120.91428575515747 183.58571424484253 L 116.1 188.4 L 106.1 178.4 L 112.1 172.4 L 112.1 125.5 Z M 15.6 173.5 L 21.5 172.77384614944458 L 21.5 120.4930233001709 L 17.7 125.0 L 13.2 129.4 L 11.8 128.3 L 14.6 122.8 L 17.4 117.1 L 20.1 111.1 L 22.7 104.8 L 25.1 98.1 L 27.5 91.0 L 29.7 83.5 L 31.7 75.6 L 33.6 67.3 L 35.106645584106445 59.50089349746704 L 35.1 59.5 L 35.1692307472229 59.17692308425903 L 35.24204549789429 58.8 L 15.7 58.8 L 15.7 54.8 L 54.702127647399905 54.8 L 55.4 50.7 L 56.1 46.1 L 57.7 37.3 L 59.3 29.1 L 60.0 25.1 L 60.7 21.3 L 61.3 17.6 L 61.65971717834473 15.01003646850586 L 61.6 15.0 L 61.73162393569946 14.492307662963867 L 61.8 14.0 L 61.85556545257568 14.014247512817382 L 62.3 12.3 L 73.5 17.0 L 75.9 19.6 L 72.10947074890137 20.75069637298584 L 70.9 24.1 L 69.4 27.8 L 67.9 31.6 L 66.3 35.5 L 62.7 43.5 L 60.7 47.6 L 56.92857141494751 54.8 L 65.4 54.8 L 75.4 44.8 L 87.4 54.8 L 87.4 58.8 L 60.24303798675537 58.8 L 63.0 65.4 L 66.1 72.8 L 69.1 79.8 L 72.1 86.2 L 75.2 92.2 L 78.2 97.6 L 81.3 102.5 L 84.5 107.0 L 87.6 110.8 L 90.8 114.2 L 91.6 115.1 L 83.17751007080078 121.2397590637207 L 84.8 122.7 L 79.8 125.7 L 79.8 166.89240503311157 L 87.5 166.6 L 87.8 168.4 L 80.2 170.7 L 79.8 170.80666666030885 L 79.8 170.9 L 79.45 170.9 L 72.7 172.7 L 65.3 174.6 L 58.1 176.3 L 50.9 177.9 L 44.0 179.5 L 37.2 181.0 L 30.5 182.5 L 23.9 183.9 L 21.61142854690552 184.40857143402098 L 20.0 187.9 L 17.6 185.3 L 13.6 173.8 Z M 160.6 57.9 L 160.6 54.6 L 160.5 53.0 L 160.4 51.3 L 160.3 49.5 L 159.9 45.9 L 159.1 44.3 L 160.6 43.4 L 161.7 44.8 L 163.2 46.1 L 164.6 47.4 L 165.9 48.8 L 168.3 51.8 L 169.3 53.4 L 171.3 56.8 L 172.0 58.2 L 172.0 40.3 L 156.1 40.3 L 156.1 62.8 L 147.19090909957885 67.25454549789428 L 148.5 68.4 L 150.1 70.0 L 150.6 74.5 L 147.8 78.2 L 145.03999996185303 78.5 L 164.7 78.5 L 174.7 68.5 L 186.7 78.5 L 186.7 82.5 L 160.3 82.5 L 160.3 97.5 L 172.8 97.5 L 178.3 92.5 L 188.8 101.5 L 183.8 105.0 L 183.8 124.3 L 172.8 129.8 L 172.8 124.3 L 108.96516857147216 124.3 L 108.5 131.2 L 107.3 139.6 L 105.6 147.4 L 103.3 154.8 L 100.4 161.5 L 96.9 167.7 L 92.9 173.3 L 88.2 178.2 L 83.0 182.4 L 77.3 185.8 L 76.2 184.3 L 80.5 179.6 L 84.2 174.7 L 87.5 169.6 L 90.3 164.1 L 92.6 158.3 L 94.4 152.0 L 95.8 145.3 L 96.7 138.1 L 97.1 130.5 L 97.1 72.5 L 109.1 78.5 L 142.942857170105 78.5 L 139.6 75.9 L 139.4 74.6 L 139.0 73.3 L 138.5 72.0 L 137.9 70.7 L 137.1 69.3 L 136.2 67.9 L 135.2 66.6 L 134.0 65.2 L 132.7 63.7 L 131.5 63.1 L 122.9 67.4 L 122.9 40.3 L 107.0 40.3 L 107.0 62.6 L 95.0 68.6 L 95.0 30.3 L 107.0 36.3 L 122.9 36.3 L 128.4 31.3 L 138.9 40.3 L 133.9 43.8 L 133.9 61.8380952835083 L 135.6 62.0 L 137.7 62.5 L 139.7 63.0 L 141.6 63.8 L 143.4 64.7 L 145.1 65.73888893127442 L 145.1 30.8 L 156.1 36.3 L 172.0 36.3 L 178.0 31.3 L 189.0 40.3 L 184.0 44.3 L 184.0 61.6 L 172.0 67.6 L 172.0 59.6 L 171.3 63.1 L 167.5 65.7 L 163.0 64.8 L 160.4 61.0 L 160.5 59.4 Z M 182.4 147.9 L 184.4 147.9 L 182.4 172.9 L 186.0 175.3 L 188.4 178.9 L 186.0 182.5 L 182.4 184.9 L 161.9 184.9 L 159.3 184.8 L 156.8 184.3 L 154.4 183.5 L 152.2 182.3 L 150.2 180.6 L 148.5 178.6 L 147.3 176.4 L 146.5 174.0 L 146.0 171.5 L 145.9 168.9 L 145.9 125.0 L 157.9 127.0 L 160.9 129.0 L 157.9 130.8 L 157.9 148.229629611969 L 162.8 144.6 L 167.8 141.0 L 170.1 139.3 L 172.3 137.6 L 174.4 136.0 L 175.66106767654418 134.99114580154418 L 175.6 134.9 L 175.6777777671814 134.9777777671814 L 176.4 134.4 L 178.06739130020142 137.3673913002014 L 184.4 143.7 L 184.6 147.1 L 180.61578950881957 145.50631580352783 L 179.8 145.8 L 177.2 146.8 L 174.5 147.7 L 171.7 148.7 L 165.7 150.5 L 162.5 151.5 L 159.2 152.4 L 157.9 152.6971428871155 L 157.9 168.9 L 158.0 170.1 L 158.1 171.0 L 158.3 171.6 L 158.6 172.2 L 159.2 172.5 L 159.8 172.7 L 160.7 172.8 L 161.9 172.9 L 176.4 172.9 Z M 31.5 122.7 L 31.5 171.57058820724487 L 35.5 171.1 L 38.6 170.74057970046997 L 38.6 122.7 Z M 46.6 122.7 L 46.6 169.88591547012328 L 49.5 169.6 L 54.7 169.03013696670533 L 54.7 122.7 Z M 62.7 122.7 L 62.7 168.2418918609619 L 64.2 168.1 L 69.8 167.58421049118041 L 69.8 122.7 Z M 109.1 101.5 L 109.1 120.3 L 123.4 120.3 L 123.4 101.5 Z M 135.4 101.5 L 135.4 120.3 L 149.3 120.3 L 149.3 101.5 Z M 160.3 101.5 L 160.3 120.3 L 172.8 120.3 L 172.8 101.5 Z M 41.09318180084229 58.8 L 47.0 61.1 L 49.5 63.7 L 45.98902082443237 64.84904775619506 L 44.6 70.0 L 42.0 78.5 L 39.2 86.6 L 36.2 94.2 L 33.0 101.4 L 29.5 108.0 L 25.9 114.2 L 25.03333330154419 115.46666669845581 L 31.5 118.7 L 69.8 118.7 L 74.7875 113.7125 L 74.6 113.4 L 71.7 108.0 L 69.1 102.2 L 66.6 96.0 L 64.4 89.3 L 62.3 82.2 L 60.5 74.6 L 59.0 66.5 L 58.01511631011963 58.8 Z M 109.1 82.5 L 109.1 97.5 L 123.4 97.5 L 123.4 82.5 Z M 135.4 82.5 L 135.4 97.5 L 149.3 97.5 L 149.3 82.5 Z M 111.1 58.0 L 111.1 52.6 L 111.0 50.8 L 111.0 49.1 L 110.8 45.7 L 110.1 44.3 L 111.7 43.4 L 112.6 44.7 L 114.0 45.9 L 115.4 47.2 L 116.6 48.6 L 117.8 50.2 L 118.9 51.9 L 120.0 53.7 L 120.9 55.6 L 121.9 57.6 L 122.7 59.7 L 121.7 64.1 L 117.9 66.6 L 113.4 65.6 L 110.9 61.8 L 111.0 59.8 Z M 34.3 37.5 L 34.0 34.5 L 33.5 31.7 L 33.0 29.0 L 32.5 26.4 L 31.9 23.9 L 31.3 21.5 L 30.6 19.0 L 29.6 16.9 L 31.0 15.8 L 32.8 17.6 L 34.8 19.4 L 36.6 21.5 L 38.4 23.7 L 40.0 26.2 L 41.5 28.9 L 43.0 31.7 L 44.3 34.8 L 45.5 38.0 L 46.7 41.3 L 45.7 45.8 L 42.0 48.4 L 37.5 47.4 L 34.9 43.7 L 34.7 40.5 Z M 136.6 21.2 L 136.6 25.2 L 92.3 25.2 L 92.3 21.2 L 118.41818180084229 21.2 L 126.6 12.2 Z M 187.3 21.2 L 187.3 25.2 L 143.0 25.2 L 143.0 21.2 L 169.11818180084228 21.2 L 177.3 12.2 Z " />
</g>
</svg>
