<svg xmlns="http://www.w3.org/2000/svg" xmlns:xlink="http://www.w3.org/1999/xlink" version="1.1" baseProfile="full" viewBox="0 0 200 200" width="200" height="200">
<g fill="black">
<path d="M 89.6 145.0 L 84.6 148.0 L 81.90212764739991 149.12411346435547 L 66.6 186.5 L 53.2 187.4 L 71.24864864349365 145.0 L 26.9 145.0 L 26.9 141.0 L 72.6 141.0 L 78.6 136.0 Z M 175.6 180.8 L 173.8 182.5 L 171.9 183.9 L 169.8 185.2 L 167.7 186.2 L 165.4 187.0 L 163.0 187.5 L 160.6 187.8 L 158.1 188.0 L 158.1 182.0 L 138.1 179.0 L 138.1 176.0 L 158.1 176.0 L 159.6 175.9 L 160.9 175.7 L 162.1 175.4 L 163.2 175.1 L 164.2 174.6 L 165.2 174.0 L 166.1 173.3 L 167.0 172.5 L 167.9 171.5 L 168.7 170.3 L 169.4 168.9 L 170.3 166.7 L 171.1 163.6 L 171.8 159.8 L 172.4 155.2 L 172.8 150.0 L 173.2 144.0 L 173.4 137.4 L 173.4 131.9583333015442 L 173.3 132.0 L 173.3 124.0 L 120.0 124.0 L 108.0 130.0 L 108.0 30.0 L 120.0 36.0 L 134.3869565010071 36.0 L 134.7 35.2 L 135.2 32.6 L 135.7 30.1 L 136.2 27.7 L 136.7 25.2 L 137.2 22.8 L 137.7 20.3 L 138.5 15.5 L 138.7348370552063 14.032268714904784 L 138.6 14.0 L 138.8800000190735 13.125 L 138.9 13.0 L 138.91807231903076 13.006024074554443 L 139.4 11.5 L 150.3 16.8 L 152.5 19.6 L 148.19766473770142 20.58123435974121 L 147.7 21.5 L 146.4 23.7 L 145.0 26.0 L 143.5 28.2 L 142.0 30.3 L 140.4 32.4 L 138.7 34.4 L 137.1 36.0 L 163.0 36.0 L 169.0 31.0 L 180.0 40.0 L 175.0 44.0 L 175.0 86.0 L 163.0 92.0 L 163.0 84.0 L 120.0 84.0 L 120.0 100.0 L 169.71818180084227 100.0 L 177.9 91.0 L 187.9 100.0 L 187.9 104.0 L 120.0 104.0 L 120.0 120.0 L 173.3 120.0 L 179.3 115.0 L 190.3 124.0 L 185.36295394897462 126.96222763061523 L 185.4 130.0 L 185.4 137.6 L 185.2 144.5 L 184.8 150.8 L 184.3 156.5 L 183.6 161.6 L 182.8 166.2 L 181.7 170.2 L 180.4 173.8 L 178.7 177.0 L 177.2 179.0 Z M 100.6 174.1 L 99.0 169.8 L 100.7 165.6 L 102.1 164.5 L 103.5 163.1 L 104.8 161.2 L 106.1 158.9 L 107.2 156.2 L 108.2 153.0 L 109.1 149.4 L 109.8 145.3 L 110.4 140.9 L 110.6 136.0 L 112.4 135.9 L 113.3 140.7 L 114.2 145.3 L 114.7 149.6 L 115.0 153.8 L 114.9 157.7 L 114.5 161.4 L 113.7 164.9 L 112.6 168.2 L 111.1 171.3 L 109.1 174.1 L 104.9 175.8 Z M 126.0 169.8 L 122.5 166.9 L 121.9 162.4 L 122.6 161.2 L 123.2 159.8 L 123.7 158.0 L 124.1 156.0 L 124.4 153.8 L 124.4 148.6 L 124.2 145.6 L 123.9 142.4 L 123.0 139.2 L 124.6 138.5 L 126.1 141.6 L 127.9 144.4 L 129.4 147.2 L 130.6 150.0 L 131.7 152.6 L 132.5 155.3 L 133.1 157.9 L 133.5 160.5 L 133.6 163.1 L 133.4 165.7 L 130.6 169.3 Z M 140.4 153.1 L 140.5 151.3 L 140.5 149.4 L 140.3 147.6 L 140.0 145.7 L 139.5 143.8 L 138.8 141.9 L 137.9 139.9 L 136.5 138.3 L 137.7 136.9 L 139.5 138.3 L 141.6 139.5 L 143.6 141.0 L 145.3 142.7 L 146.9 144.6 L 148.3 146.8 L 149.5 149.1 L 150.5 151.5 L 151.2 154.2 L 151.8 157.0 L 150.0 161.2 L 145.8 163.0 L 141.6 161.2 L 139.8 157.0 L 140.1 155.0 Z M 156.9 146.4 L 156.9 145.2 L 156.6 143.8 L 156.2 142.4 L 155.5 141.0 L 154.5 139.5 L 153.3 137.9 L 151.8 136.3 L 149.8 135.2 L 150.5 133.5 L 152.7 134.4 L 155.1 134.8 L 157.3 135.5 L 159.5 136.5 L 161.4 137.7 L 163.3 139.1 L 164.9 140.7 L 166.3 142.7 L 167.5 144.8 L 168.5 147.1 L 167.3 151.5 L 163.4 153.9 L 159.0 152.7 L 156.6 148.8 L 156.8 147.6 Z M 84.3 129.9 L 79.7 125.7 L 75.3 120.9 L 71.1 115.7 L 67.1 110.0 L 63.3 103.9 L 59.9 97.2 L 56.7 90.0 L 56.62577857971191 89.78558244705201 L 55.4 92.3 L 51.1 100.0 L 46.6 107.2 L 41.7 114.1 L 36.6 120.5 L 31.1 126.5 L 25.3 132.1 L 19.2 137.2 L 12.6 141.6 L 11.5 140.3 L 16.5 134.4 L 21.4 128.4 L 26.1 122.3 L 30.5 115.9 L 34.7 109.3 L 38.6 102.4 L 42.3 95.2 L 45.7 87.7 L 48.8 79.9 L 51.7 71.8 L 51.71155023574829 71.80429306030274 L 52.2 70.4 L 63.0 76.0 L 65.1 78.9 L 61.38788156509399 79.61637372970581 L 59.3 84.3 L 58.661552810668944 85.60963516235351 L 60.4 88.0 L 64.9 94.2 L 69.3 99.8 L 73.7 105.0 L 78.1 109.6 L 82.5 113.7 L 86.9 117.3 L 91.4 120.4 L 95.8 123.0 L 100.2 125.0 L 105.7 127.7 L 94.4 136.9 L 89.2 133.6 Z M 72.0 122.0 L 72.0 126.0 L 39.0 126.0 L 39.0 122.0 L 57.7777777671814 122.0 L 64.0 115.0 Z M 9.1 85.9 L 11.6 85.5 L 14.4 84.9 L 17.6 84.1 L 21.0 83.2 L 22.0 82.9368420600891 L 22.0 56.0 L 12.1 56.0 L 12.1 52.0 L 22.0 52.0 L 22.0 27.0 L 9.9 27.0 L 9.9 23.0 L 32.918181800842284 23.0 L 41.1 14.0 L 51.1 23.0 L 51.1 27.0 L 34.0 27.0 L 34.0 52.0 L 37.3 52.0 L 41.8 46.0 L 47.8 52.0 L 47.8 56.0 L 34.0 56.0 L 34.0 79.43191490173339 L 37.8 78.3 L 42.7 76.8 L 48.0 75.1 L 48.7 76.8 L 44.1 79.7 L 39.7 82.6 L 35.6 85.1 L 31.6 87.5 L 27.9 89.6 L 24.4 91.5 L 21.1 93.3 L 18.0 94.8 L 16.57435894012451 95.51282052993774 L 15.3 99.7 L 12.5 97.4 L 7.2 86.5 Z M 61.6 82.0 L 71.0 82.0 L 71.0 56.0 L 61.0 56.0 L 61.0 52.0 L 71.0 52.0 L 71.0 27.0 L 57.2 27.0 L 57.2 23.0 L 81.91818180084229 23.0 L 90.1 14.0 L 100.1 23.0 L 100.1 27.0 L 83.0 27.0 L 83.0 52.0 L 86.3 52.0 L 90.8 46.0 L 96.8 52.0 L 96.8 56.0 L 83.0 56.0 L 83.0 82.0 L 87.4777777671814 82.0 L 93.7 75.0 L 101.7 82.0 L 101.7 86.0 L 61.6 86.0 Z M 120.0 62.0 L 120.0 80.0 L 163.0 80.0 L 163.0 62.0 Z M 120.0 40.0 L 120.0 58.0 L 163.0 58.0 L 163.0 40.0 Z " />
</g>
</svg>
