<svg xmlns="http://www.w3.org/2000/svg" xmlns:xlink="http://www.w3.org/1999/xlink" version="1.1" baseProfile="full" viewBox="0 0 200 200" width="200" height="200">
<g fill="black">
<path d="M 59.1 124.2 L 57.9 121.3 L 56.4 118.4 L 54.8 115.6 L 53.0 112.7 L 51.0 109.7 L 48.8 106.7 L 48.8 182.0 L 36.8 188.0 L 36.8 110.47580642700196 L 34.3 113.5 L 27.7 120.7 L 20.6 127.5 L 13.0 133.9 L 11.7 132.6 L 17.8 124.9 L 23.6 117.2 L 29.1 109.5 L 34.3 101.6 L 36.8 97.56938772201538 L 36.8 96.5 L 37.46329116821289 96.5 L 39.2 93.7 L 43.7 85.6 L 47.8 77.3 L 51.6 68.9 L 55.0 60.4 L 56.60227270126343 55.7 L 15.8 55.7 L 15.8 51.7 L 36.8 51.7 L 36.8 11.9 L 48.8 13.9 L 51.8 15.9 L 48.8 17.7 L 48.8 51.7 L 57.7 51.7 L 63.7 46.7 L 74.7 55.7 L 69.7 58.7 L 67.67752809524536 59.54269666671753 L 65.5 64.7 L 61.3 73.5 L 56.7 82.0 L 51.7 90.2 L 47.5 96.5 L 48.8 96.5 L 48.8 101.7 L 51.8 103.5 L 55.0 105.7 L 58.0 108.1 L 60.9 110.6 L 63.5 113.3 L 66.0 116.1 L 68.2 119.0 L 70.3 122.1 L 72.1 125.2 L 72.1 129.8 L 68.9 133.1 L 64.3 133.0 L 61.0 129.8 L 60.2 127.0 Z M 145.2 186.8 L 133.0 185.6 L 122.8 183.5 L 114.5 180.4 L 107.8 176.4 L 102.6 171.4 L 98.8 165.6 L 96.1 159.3 L 95.20929498672486 155.97157611846924 L 94.5 157.1 L 92.5 160.6 L 90.4 164.0 L 88.3 167.3 L 86.2 170.5 L 84.0 173.6 L 81.9 176.7 L 79.8 179.7 L 78.11077222824096 181.9267092704773 L 79.1 186.0 L 75.5 185.4 L 65.3 178.8 L 66.7 177.3 L 69.3 175.0 L 77.4 167.8 L 80.2 165.3 L 83.1 162.7 L 86.0 160.2 L 86.7 159.59333333969116 L 86.7 94.7 L 69.1 94.7 L 69.1 90.7 L 86.7 90.7 L 92.7 85.7 L 103.7 94.7 L 98.7 98.7 L 98.7 154.2 L 97.93694267272949 154.58152866363525 L 99.8 157.4 L 103.7 162.3 L 104.52700700759888 163.10683603286742 L 110.3 158.8 L 115.8 153.1 L 120.6 146.2 L 124.7 138.1 L 128.1 128.6 L 131.0 117.7 L 133.1 105.4 L 133.56739130020142 101.1 L 102.6 101.1 L 102.6 97.1 L 134.00217390060425 97.1 L 134.6 91.6 L 135.3 76.4 L 135.38802394866943 61.7 L 109.3 61.7 L 109.3 57.7 L 148.8 57.7 L 158.8 47.7 L 170.8 57.7 L 170.8 61.7 L 147.31860466003417 61.7 L 146.7 76.9 L 145.2 92.7 L 144.52307691574097 97.1 L 157.7 97.1 L 167.7 87.1 L 179.7 97.1 L 179.7 101.1 L 143.90769233703614 101.1 L 143.0 107.0 L 142.01899995803834 111.25100002288818 L 144.0 112.1 L 148.7 114.7 L 153.0 117.9 L 157.2 121.5 L 161.0 125.6 L 164.6 130.1 L 167.9 135.0 L 171.0 140.3 L 173.8 145.9 L 176.4 151.9 L 176.0 156.4 L 172.6 159.5 L 168.1 159.1 L 165.0 155.7 L 163.3 150.1 L 161.3 144.8 L 159.1 139.8 L 156.8 135.1 L 154.2 130.7 L 151.4 126.5 L 148.4 122.6 L 145.2 118.8 L 141.8 115.2 L 141.2375 114.6375 L 140.0 120.0 L 136.1 131.4 L 131.5 141.5 L 126.0 149.9 L 119.7 156.8 L 112.5 161.9 L 106.10099258422852 164.64243173599243 L 107.8 166.3 L 112.4 169.4 L 118.0 171.8 L 125.1 173.5 L 134.2 174.6 L 145.5 175.0 L 159.4 174.6 L 176.1 173.4 L 187.1 172.7 L 177.0 186.6 L 159.7 187.1 Z M 88.1 47.1 L 87.0 44.0 L 85.7 40.9 L 84.3 37.9 L 82.8 35.0 L 81.1 32.0 L 79.3 29.1 L 77.4 26.1 L 75.2 23.3 L 76.4 21.9 L 79.4 24.0 L 82.5 26.0 L 85.5 28.3 L 88.2 30.8 L 90.8 33.5 L 93.2 36.3 L 95.4 39.4 L 97.5 42.5 L 99.5 45.9 L 101.2 49.3 L 101.0 53.9 L 97.7 57.0 L 93.1 56.8 L 90.0 53.4 L 89.1 50.2 Z M 168.7 18.5 L 170.6 21.5 L 166.51127920150756 21.993466281890868 L 165.5 23.7 L 163.6 26.7 L 161.7 29.8 L 159.6 33.1 L 157.3 36.6 L 154.9 40.3 L 152.3 44.1 L 149.5 48.1 L 146.6 52.4 L 145.0 51.6 L 146.7 46.7 L 148.1 42.1 L 149.6 37.7 L 151.0 33.5 L 152.4 29.6 L 153.6 26.0 L 154.8 22.5 L 155.9 19.3 L 156.9 16.3 L 157.49915084838867 14.435975074768066 L 157.4 14.4 L 158.3 12.3 Z M 124.0 37.9 L 123.3 34.8 L 122.4 31.8 L 121.4 28.8 L 120.3 25.9 L 119.0 23.0 L 117.7 20.2 L 116.2 17.3 L 114.3 14.7 L 115.6 13.4 L 118.2 15.4 L 121.0 17.5 L 123.6 19.8 L 126.0 22.3 L 128.2 25.1 L 130.2 28.0 L 132.1 31.2 L 133.8 34.5 L 135.4 38.0 L 136.7 41.6 L 135.9 46.1 L 132.3 48.9 L 127.8 48.1 L 125.0 44.4 L 124.6 41.1 Z " />
</g>
</svg>
