<svg xmlns="http://www.w3.org/2000/svg" xmlns:xlink="http://www.w3.org/1999/xlink" version="1.1" baseProfile="full" viewBox="0 0 200 200" width="200" height="200">
<g fill="black">
<path d="M 62.1 124.3 L 60.8 121.4 L 59.2 118.6 L 57.4 115.7 L 55.4 112.7 L 53.2 109.8 L 50.8 106.8 L 50.3 106.20384616851807 L 50.3 182.0 L 38.3 188.0 L 38.3 109.85 L 35.0 113.6 L 28.0 120.8 L 20.5 127.5 L 12.5 133.9 L 11.3 132.6 L 17.8 124.9 L 24.1 117.1 L 30.0 109.4 L 35.6 101.5 L 38.3 97.39807691574097 L 38.3 96.5 L 38.89113922119141 96.5 L 40.8 93.6 L 45.6 85.5 L 50.0 77.2 L 54.1 68.8 L 57.7 60.2 L 59.40689659118652 55.7 L 15.5 55.7 L 15.5 51.7 L 38.3 51.7 L 38.3 11.9 L 50.3 13.9 L 53.3 15.9 L 50.3 17.7 L 50.3 51.7 L 60.6 51.7 L 66.6 46.7 L 77.6 55.7 L 72.6 58.7 L 70.47565717697144 59.58514289855957 L 68.1 64.8 L 63.7 73.6 L 58.8 82.1 L 53.5 90.4 L 49.153750038146974 96.5 L 50.3 96.5 L 50.3 101.56216220855713 L 53.7 103.4 L 57.1 105.6 L 60.3 108.0 L 63.3 110.5 L 66.1 113.2 L 68.7 116.0 L 71.1 118.9 L 73.2 121.9 L 75.2 125.1 L 75.2 129.7 L 72.1 133.0 L 67.6 133.1 L 64.2 130.0 L 63.3 127.1 Z M 136.19841270446778 114.48095235824584 L 135.5 123.7 L 134.5199999809265 128.6 L 159.1 128.6 L 169.1 118.6 L 181.1 128.6 L 181.1 132.6 L 134.34411764144897 132.6 L 137.6 138.0 L 141.6 144.3 L 145.7 149.9 L 150.0 154.9 L 154.5 159.2 L 159.2 163.0 L 164.1 166.2 L 169.3 168.8 L 174.7 170.9 L 180.4 172.5 L 188.5 174.8 L 176.8 185.2 L 170.1 182.6 L 163.8 179.3 L 158.0 175.4 L 152.6 170.8 L 147.8 165.7 L 143.5 160.1 L 139.7 153.8 L 136.4 147.1 L 133.7 139.8 L 132.88346786499022 136.3619697570801 L 129.6 146.4 L 124.8 155.8 L 118.9 164.1 L 112.0 171.1 L 104.3 177.0 L 95.8 181.7 L 86.7 185.2 L 77.0 187.7 L 76.4 186.0 L 85.2 181.7 L 93.2 177.0 L 100.4 171.7 L 106.7 165.7 L 112.2 158.9 L 116.6 151.3 L 120.2 142.8 L 122.7 133.2 L 122.77850465774536 132.6 L 79.8 132.6 L 79.8 128.6 L 123.30186920166015 128.6 L 124.1 122.5 L 124.5 110.5 L 124.5 108.1 L 136.5 110.5 L 139.5 112.5 Z M 77.3 99.5 L 124.5 99.5 L 124.5 76.3 L 86.7 76.3 L 86.7 72.3 L 124.5 72.3 L 124.5 49.2 L 81.7 49.2 L 81.7 45.2 L 140.9054054260254 45.2 L 141.7 43.1 L 142.7 39.5 L 143.8 35.9 L 144.9 32.5 L 146.9 25.9 L 147.8 22.8 L 148.6 19.7 L 149.4 16.8 L 149.87739763259887 14.822209739685059 L 149.8 14.8 L 150.07042255401612 14.022535228729248 L 150.1 13.9 L 150.1115385055542 13.904326915740967 L 150.6 12.5 L 161.3 18.1 L 163.5 21.0 L 159.44316940307618 21.6994535446167 L 158.3 23.7 L 156.6 26.6 L 154.8 29.5 L 151.0 35.5 L 148.9 38.5 L 146.6 41.5 L 144.2 44.5 L 143.68064517974852 45.2 L 157.2 45.2 L 167.2 35.2 L 179.2 45.2 L 179.2 49.2 L 136.5 49.2 L 136.5 72.3 L 152.2 72.3 L 162.2 62.3 L 174.2 72.3 L 174.2 76.3 L 136.5 76.3 L 136.5 99.5 L 161.6 99.5 L 171.6 89.5 L 183.6 99.5 L 183.6 103.5 L 77.3 103.5 Z M 109.4 34.5 L 108.9 31.9 L 108.3 29.3 L 107.6 26.8 L 106.8 24.3 L 105.9 21.8 L 104.9 19.2 L 103.8 16.7 L 102.3 14.4 L 103.7 13.2 L 105.8 15.1 L 108.1 16.8 L 110.3 18.8 L 112.3 21.0 L 114.2 23.3 L 116.0 25.7 L 117.6 28.3 L 119.1 31.0 L 120.5 33.8 L 121.8 36.8 L 121.1 41.3 L 117.4 44.1 L 112.9 43.4 L 110.1 39.7 L 109.8 37.1 Z " />
</g>
</svg>
