<svg xmlns="http://www.w3.org/2000/svg" xmlns:xlink="http://www.w3.org/1999/xlink" version="1.1" baseProfile="full" viewBox="0 0 200 200" width="200" height="200">
<g fill="black">
<path d="M 98.8 105.2 L 95.1 107.2 L 94.7 107.38947372436523 L 94.7 181.1 L 82.7 187.1 L 82.7 130.59807691574096 L 81.82511348724366 131.05234489440917 L 81.6 132.6 L 80.6 138.0 L 79.4 143.4 L 78.0 148.7 L 76.5 153.9 L 74.7 159.0 L 72.7 164.1 L 70.5 169.0 L 67.9 173.8 L 65.0 178.5 L 63.4 177.8 L 64.4 172.5 L 65.4 167.3 L 66.4 162.2 L 67.4 157.0 L 68.2 151.9 L 68.9 146.8 L 69.5 141.7 L 69.9 136.6 L 70.2 131.4 L 70.36155805587768 127.1994912147522 L 70.3 127.2 L 70.6 124.0 L 82.4 127.1 L 82.7 127.33571424484253 L 82.7 112.58000001907348 L 75.5 115.1 L 71.4 116.4 L 71.36580486297608 116.40917434692383 L 69.8 120.1 L 67.3 117.5 L 63.1 106.1 L 65.1 105.7 L 69.1 105.3 L 74.89264707565307 104.57591915130615 L 76.0 101.3 L 78.6 94.1 L 81.3 87.1 L 84.0 80.0 L 85.77551021575928 75.39682540893554 L 82.3 78.1 L 77.8 77.4 L 75.0 73.8 L 74.5 70.6 L 73.9 67.6 L 73.2 64.7 L 72.3 61.8 L 71.4 59.0 L 69.0 53.6 L 67.7 50.9 L 66.2 48.2 L 64.3 45.8 L 65.5 44.5 L 68.1 46.3 L 70.8 48.1 L 73.4 50.2 L 74.90689659118652 51.77241382598877 L 75.1 51.0 L 76.1 46.9 L 77.2 42.8 L 82.7 22.8 L 83.7 18.8 L 84.54245510101319 15.73652696609497 L 84.4 15.7 L 85.3 13.3 L 96.1 18.7 L 98.3 21.6 L 94.48588409423829 22.402971744537354 L 94.4 22.6 L 92.6 26.5 L 90.7 30.3 L 88.9 34.1 L 84.9 41.5 L 82.7 45.2 L 80.5 48.8 L 76.9572241783142 53.96654806137085 L 78.0 55.1 L 80.0 57.9 L 81.9 60.8 L 83.6 64.0 L 85.2 67.3 L 86.6 70.8 L 85.95889654159546 74.92137928009033 L 86.7 73.0 L 91.9 58.8 L 94.5 51.6 L 97.1 44.5 L 99.27920236587525 38.22389726638794 L 99.2 38.2 L 100.1 36.0 L 110.8 41.7 L 112.9 44.6 L 109.23594665527344 45.231733322143555 L 107.7 48.7 L 104.5 55.7 L 101.2 62.7 L 97.8 69.6 L 94.4 76.4 L 90.9 83.2 L 87.2 89.9 L 83.5 96.5 L 79.4 102.9 L 78.66045894622803 104.02691965103149 L 81.1 103.6 L 85.1 103.0 L 89.1 102.2 L 93.1 101.5 L 97.1 100.7 L 100.90714282989502 100.05 L 100.9 100.0 L 99.5 93.4 L 98.8 90.3 L 97.9 87.2 L 97.0 84.2 L 96.0 81.2 L 94.7 78.5 L 96.2 77.4 L 98.4 79.7 L 100.7 82.0 L 102.9 84.6 L 104.9 87.5 L 106.8 90.5 L 108.5 93.8 L 110.1 97.3 L 111.5 100.9 L 112.8 104.8 L 114.0 108.8 L 113.0 113.2 L 109.2 115.8 L 104.7 114.7 L 102.2 110.9 L 101.4112675666809 103.60422534942627 Z M 178.8 104.6 L 181.1 107.4 L 177.456392288208 108.29492120742798 L 174.4 116.7 L 169.4 128.1 L 163.7 138.6 L 157.3 148.3 L 150.3 157.1 L 142.7 165.0 L 134.4 171.9 L 125.6 178.0 L 116.1 183.0 L 106.0 186.9 L 105.3 185.2 L 114.2 179.7 L 122.5 173.6 L 130.2 166.9 L 137.3 159.7 L 143.7 151.7 L 149.6 143.1 L 154.9 133.7 L 159.6 123.6 L 163.7 112.8 L 167.01941318511962 102.1041130065918 L 167.0 102.1 L 167.7 99.6 Z M 14.3 154.1 L 18.7 152.4 L 23.3 150.6 L 28.0 148.8 L 30.7 147.675 L 30.7 95.0 L 18.1 95.0 L 18.1 91.0 L 30.7 91.0 L 30.7 44.0 L 15.8 44.0 L 15.8 40.0 L 44.918181800842284 40.0 L 53.1 31.0 L 63.1 40.0 L 63.1 44.0 L 42.7 44.0 L 42.7 91.0 L 46.577777767181395 91.0 L 52.8 84.0 L 60.8 91.0 L 60.8 95.0 L 42.7 95.0 L 42.7 142.78235292434692 L 42.9 142.7 L 48.1 140.6 L 53.5 138.4 L 59.1 136.2 L 65.0 134.2 L 65.8 135.7 L 60.9 139.6 L 56.0 143.1 L 51.2 146.4 L 46.3 149.5 L 41.6 152.4 L 36.9 155.2 L 32.3 157.8 L 27.8 160.3 L 23.5 162.7 L 22.85957450866699 163.04255323410035 L 22.2 167.0 L 19.2 165.0 L 12.4 154.9 Z M 101.1 149.1 L 100.6 145.3 L 100.1 141.6 L 99.4 138.0 L 98.7 134.6 L 97.9 131.3 L 97.1 128.2 L 96.3 125.0 L 95.1 122.1 L 96.6 121.1 L 98.9 123.5 L 101.2 126.1 L 103.2 129.0 L 105.1 132.1 L 106.9 135.5 L 108.5 139.1 L 110.0 142.9 L 111.3 146.9 L 112.5 151.1 L 113.6 155.5 L 112.4 159.9 L 108.5 162.3 L 104.1 161.1 L 101.8 157.2 L 101.5 153.1 Z M 125.8 117.7 L 139.8 117.7 L 141.0 117.6 L 141.9 117.5 L 142.5 117.3 L 142.9 117.1 L 143.2 116.8 L 143.4 116.4 L 143.6 115.8 L 143.7 114.9 L 143.8 113.7 L 143.8 13.8 L 155.8 15.8 L 158.8 17.8 L 155.8 19.6 L 155.8 113.7 L 155.6 116.3 L 155.2 118.8 L 154.4 121.2 L 153.2 123.4 L 151.5 125.4 L 149.5 127.1 L 147.2 128.3 L 144.8 129.1 L 142.3 129.6 L 139.8 129.7 L 139.8 123.7 L 125.8 120.7 Z M 138.5 56.2 L 141.2 58.6 L 137.66791315078734 60.10440731048584 L 137.2 62.3 L 135.8 68.2 L 134.1 74.0 L 132.2 79.8 L 130.1 85.4 L 127.8 90.9 L 125.2 96.2 L 122.4 101.5 L 119.2 106.5 L 115.7 111.2 L 114.1 110.4 L 115.8 104.8 L 117.5 99.3 L 119.1 93.8 L 120.6 88.3 L 122.0 82.8 L 123.3 77.3 L 124.3 71.7 L 125.3 66.0 L 126.0 60.3 L 126.6 54.6 L 126.62853717803955 54.603836917877196 L 126.9 52.5 Z M 173.9 82.9 L 172.7 79.0 L 171.4 75.2 L 169.9 71.4 L 166.5 64.0 L 164.6 60.3 L 162.6 56.5 L 160.5 52.8 L 161.8 51.6 L 165.2 54.4 L 168.5 57.4 L 171.5 60.5 L 174.3 63.9 L 177.0 67.5 L 179.4 71.2 L 181.7 75.0 L 183.8 79.0 L 185.7 83.2 L 187.4 87.4 L 186.9 92.0 L 183.4 94.9 L 178.9 94.4 L 175.9 90.9 L 175.0 86.9 Z " />
</g>
</svg>
