<svg xmlns="http://www.w3.org/2000/svg" xmlns:xlink="http://www.w3.org/1999/xlink" version="1.1" baseProfile="full" viewBox="0 0 200 200" width="200" height="200">
<g fill="black">
<path d="M 62.5 125.1 L 61.0 122.2 L 59.3 119.3 L 57.4 116.4 L 55.2 113.4 L 52.8 110.4 L 50.2 107.4 L 49.1 106.18620691299438 L 49.1 183.0 L 37.1 189.0 L 37.1 111.15 L 33.7 114.8 L 26.5 121.8 L 18.8 128.4 L 10.6 134.6 L 9.4 133.3 L 16.1 125.7 L 22.6 118.1 L 28.8 110.5 L 34.6 102.8 L 37.1 99.14259262084961 L 37.1 98.0 L 37.88101263046265 98.0 L 40.0 94.9 L 45.1 87.0 L 49.7 78.9 L 54.0 70.6 L 57.9 62.2 L 59.60930233001709 58.0 L 13.0 58.0 L 13.0 54.0 L 60.9 54.0 L 66.9 49.0 L 77.9 58.0 L 72.9 61.0 L 70.74114151000977 61.89952440261841 L 68.2 67.1 L 63.5 75.7 L 58.4 84.0 L 52.8 92.1 L 48.393670845031735 98.0 L 49.1 98.0 L 49.1 101.8 L 53.0 103.8 L 56.6 106.0 L 60.0 108.4 L 63.2 111.0 L 66.1 113.6 L 68.9 116.5 L 71.4 119.4 L 73.7 122.5 L 75.7 125.7 L 75.9 130.2 L 72.8 133.7 L 68.3 133.8 L 64.9 130.8 L 63.8 127.9 Z M 165.1 177.9 L 159.7 173.3 L 154.7 168.3 L 150.1 162.8 L 145.8 156.9 L 142.0 150.6 L 138.6 143.9 L 135.7 136.8 L 134.09918003082277 131.26989459991455 L 130.6 141.2 L 125.6 150.8 L 119.3 159.5 L 111.8 167.3 L 103.1 174.0 L 93.3 179.7 L 82.3 184.3 L 70.2 187.8 L 69.7 186.1 L 80.8 180.8 L 90.6 175.0 L 99.2 168.7 L 106.5 161.8 L 112.6 154.4 L 117.5 146.3 L 121.3 137.5 L 123.35263156890869 130.0 L 78.0 130.0 L 78.0 126.0 L 124.21372547149659 126.0 L 125.5 117.8 L 125.9 106.9 L 125.92940454483032 106.90024499893188 L 126.0 104.5 L 137.9 107.0 L 140.9 109.1 L 137.53779802322387 111.0500771522522 L 136.8 119.3 L 135.3307017326355 126.0 L 165.0 126.0 L 175.0 116.0 L 187.0 126.0 L 187.0 130.0 L 136.2078125 130.0 L 139.5 134.9 L 143.7 141.0 L 148.0 146.6 L 152.4 151.8 L 157.0 156.6 L 161.8 160.9 L 166.8 164.8 L 171.9 168.3 L 177.3 171.4 L 182.9 174.0 L 188.3 176.7 L 177.0 185.9 L 170.9 182.1 Z M 81.0 99.9 L 126.5 99.9 L 126.5 77.2 L 90.1 77.2 L 90.1 73.2 L 126.5 73.2 L 126.5 50.5 L 85.3 50.5 L 85.3 46.5 L 142.5222222328186 46.5 L 143.3 44.5 L 144.3 40.9 L 145.3 37.4 L 146.3 34.0 L 147.3 30.8 L 148.2 27.6 L 149.1 24.5 L 149.9 21.5 L 150.6 18.5 L 151.06370964050294 16.64516124725342 L 150.9 16.6 L 151.8 14.3 L 162.5 19.8 L 164.7 22.7 L 160.59834251403808 23.477900505065918 L 157.9 28.2 L 156.2 31.1 L 152.4 36.9 L 150.3 39.9 L 148.1 42.9 L 145.8 45.8 L 145.28064517974855 46.5 L 157.6 46.5 L 167.6 36.5 L 179.6 46.5 L 179.6 50.5 L 138.5 50.5 L 138.5 73.2 L 152.8 73.2 L 162.8 63.2 L 174.8 73.2 L 174.8 77.2 L 138.5 77.2 L 138.5 99.9 L 161.9 99.9 L 171.9 89.9 L 183.9 99.9 L 183.9 103.9 L 81.0 103.9 Z M 111.9 35.9 L 110.9 30.9 L 110.2 28.4 L 108.6 23.4 L 107.7 20.9 L 106.7 18.4 L 105.2 16.2 L 106.6 15.0 L 108.6 16.9 L 110.9 18.6 L 113.0 20.6 L 115.0 22.7 L 116.8 24.9 L 118.6 27.3 L 120.2 29.9 L 121.6 32.5 L 123.0 35.3 L 124.2 38.2 L 123.5 42.7 L 119.9 45.4 L 115.4 44.7 L 112.6 41.1 L 112.3 38.5 Z M 42.0 33.6 L 41.1 31.0 L 40.1 28.4 L 38.9 25.9 L 37.5 23.5 L 36.0 21.1 L 34.4 18.7 L 32.6 16.3 L 30.3 14.2 L 31.3 12.7 L 34.1 14.2 L 37.1 15.6 L 39.8 17.2 L 42.4 19.2 L 44.9 21.3 L 47.2 23.7 L 49.3 26.3 L 51.3 29.0 L 53.1 32.0 L 54.7 35.2 L 54.4 39.7 L 51.0 42.8 L 46.4 42.4 L 43.4 39.1 L 42.7 36.3 Z " />
</g>
</svg>
