<svg xmlns="http://www.w3.org/2000/svg" xmlns:xlink="http://www.w3.org/1999/xlink" version="1.1" baseProfile="full" viewBox="0 0 200 200" width="200" height="200">
<g fill="black">
<path d="M 179.9 151.0 L 178.7 153.2 L 177.1 155.1 L 175.2 156.8 L 173.1 158.2 L 170.9 159.3 L 168.5 160.0 L 166.0 160.4 L 163.4 160.5 L 163.4 154.5 L 155.4 151.5 L 155.4 148.5 L 163.4 148.5 L 164.7 148.4 L 165.8 148.3 L 166.6 148.0 L 167.3 147.7 L 167.9 147.4 L 168.3 146.9 L 168.8 146.3 L 169.3 145.6 L 169.7 144.6 L 170.1 143.3 L 171.1 139.3 L 171.9 134.1 L 172.4 128.1 L 172.4 121.5 L 171.9 114.7 L 170.6 107.7 L 168.7 100.9 L 165.9 94.5 L 162.2 88.4 L 157.8 82.1 L 157.9 81.95 L 156.7 81.5 L 158.1 74.9 L 159.7 68.6 L 161.3 62.5 L 162.8 56.5 L 164.2 50.7 L 165.6 45.0 L 166.8 39.5 L 168.0 34.2 L 169.0 28.9 L 169.30600004196168 27.2 L 150.6 27.2 L 150.6 182.1 L 139.6 187.6 L 139.6 17.7 L 150.6 23.2 L 169.8 23.2 L 175.8 18.2 L 186.8 27.2 L 181.8 30.2 L 180.36536312103271 30.7977653503418 L 180.1 31.7 L 176.5 42.3 L 174.5 47.8 L 172.3 53.3 L 170.0 58.9 L 167.4 64.6 L 164.7 70.4 L 161.7 76.3 L 159.08535890579225 80.76027011871338 L 166.1 84.7 L 171.7 90.8 L 175.9 97.8 L 179.0 105.3 L 181.1 113.0 L 182.4 120.7 L 183.0 128.1 L 183.0 134.9 L 182.5 141.1 L 181.7 146.3 L 181.0 148.7 Z M 66.7 104.0 L 66.41701488494873 102.89950246810913 L 65.6 103.3 L 60.5 105.5 L 55.2 107.5 L 53.0 108.23333330154419 L 53.0 181.1 L 41.0 187.1 L 41.0 111.92727270126343 L 38.9 112.5 L 33.3 114.0 L 27.6 115.3 L 21.9 116.5 L 20.18288345336914 116.82566003799438 L 18.5 120.3 L 16.1 117.6 L 12.5 106.0 L 14.5 105.7 L 20.2 105.3 L 25.9 104.7 L 28.41419687271118 104.43062171936035 L 30.2 101.0 L 34.1 93.8 L 38.0 86.7 L 42.0 79.6 L 45.9 72.4 L 49.8 65.3 L 53.6 58.2 L 61.0 43.8 L 64.6 36.6 L 64.65743036270142 36.63088235855103 L 65.2 35.6 L 75.2 42.3 L 76.9 45.5 L 73.20352115631104 45.62746477127075 L 71.0 49.3 L 66.7 56.3 L 57.7 70.1 L 53.1 76.9 L 48.4 83.6 L 43.5 90.3 L 38.5 96.8 L 33.3 103.2 L 32.62653064727783 103.95918369293213 L 37.1 103.4 L 42.6 102.7 L 53.6 101.1 L 64.6 99.7 L 65.5347149848938 99.59803104400635 L 64.8 97.1 L 63.6 93.9 L 62.3 90.7 L 60.8 87.5 L 59.3 84.5 L 57.6 81.4 L 55.6 78.5 L 56.8 77.2 L 62.8 81.6 L 65.5 84.2 L 68.1 87.0 L 70.5 90.1 L 72.7 93.3 L 74.7 96.8 L 76.6 100.5 L 78.3 104.4 L 79.8 108.4 L 79.0 113.0 L 75.4 115.7 L 70.9 115.0 L 68.1 111.4 L 67.5 107.6 Z M 121.9 161.9 L 120.7 158.0 L 119.4 154.1 L 118.64161491394043 152.0776397705078 L 117.3 153.3 L 113.1 157.1 L 109.0 160.6 L 105.1 163.9 L 101.4 166.9 L 98.0 169.7 L 94.7 172.4 L 91.8 174.8 L 89.8 176.442857170105 L 89.8 180.5 L 86.5 179.1 L 78.2 170.3 L 79.8 169.2 L 82.7 167.6 L 85.8 166.0 L 86.7 165.4970588684082 L 86.7 33.4 L 98.7 39.4 L 104.2 39.4 L 104.2 12.1 L 116.2 14.1 L 119.2 16.1 L 116.2 17.9 L 116.2 39.4 L 121.0 39.4 L 126.5 34.4 L 137.0 43.4 L 132.0 46.9 L 132.0 111.0 L 121.0 116.5 L 121.0 105.0 L 98.7 105.0 L 98.7 159.00476188659667 L 101.0 157.8 L 105.4 155.4 L 110.2 152.9 L 115.3 150.3 L 117.54323320388794 149.2395625114441 L 116.2 146.0 L 114.4 141.8 L 112.4 137.5 L 110.4 133.1 L 108.2 128.6 L 109.6 127.5 L 113.2 131.1 L 116.6 134.8 L 119.7 138.6 L 122.6 142.4 L 125.2 146.3 L 127.6 150.2 L 129.8 154.1 L 131.8 158.1 L 133.7 162.1 L 135.3 166.1 L 134.7 170.6 L 131.2 173.5 L 126.7 173.0 L 123.8 169.5 L 122.9 165.7 Z M 35.8 127.3 L 38.6 129.6 L 35.079924964904784 131.2604127883911 L 34.8 132.8 L 33.5 138.3 L 32.0 143.7 L 30.3 149.0 L 28.3 154.2 L 26.0 159.4 L 23.4 164.4 L 20.5 169.3 L 17.3 174.1 L 13.7 178.6 L 12.1 177.7 L 13.9 172.3 L 15.7 167.0 L 17.4 161.8 L 18.9 156.7 L 20.2 151.6 L 21.3 146.5 L 22.3 141.4 L 23.0 136.3 L 23.5 131.2 L 23.821540451049806 127.1003589630127 L 23.8 127.1 L 24.1 123.9 Z M 66.3 149.5 L 65.4 145.7 L 64.5 142.0 L 62.3 135.0 L 59.5 128.4 L 58.0 125.1 L 56.2 122.1 L 57.5 120.9 L 60.4 123.2 L 63.3 125.7 L 65.9 128.6 L 68.4 131.7 L 70.7 135.1 L 72.7 138.7 L 74.6 142.5 L 76.3 146.5 L 77.9 150.8 L 79.2 155.2 L 78.3 159.7 L 74.5 162.3 L 70.1 161.3 L 67.5 157.6 L 66.9 153.5 Z M 98.7 73.7 L 98.7 101.0 L 121.0 101.0 L 121.0 73.7 Z M 28.5 68.2 L 27.3 65.3 L 26.0 62.4 L 24.4 59.5 L 22.6 56.7 L 20.6 53.9 L 18.4 51.2 L 16.0 48.3 L 13.2 45.8 L 14.2 44.3 L 21.2 47.7 L 24.5 49.8 L 27.6 52.1 L 27.991755199432372 52.44978141784668 L 30.4 46.5 L 32.1 42.4 L 33.9 38.4 L 35.6 34.3 L 37.4 30.3 L 39.1 26.2 L 40.7 22.2 L 42.4 18.2 L 43.62954330444336 15.049295234680176 L 43.5 15.0 L 44.5 13.0 L 54.8 19.3 L 56.6 22.4 L 52.77745695114136 22.729529571533202 L 52.5 23.2 L 50.2 27.0 L 45.4 34.6 L 40.2 42.0 L 37.5 45.6 L 34.7 49.1 L 31.6 52.5 L 30.03478260040283 54.27391300201416 L 30.4 54.6 L 33.1 57.3 L 35.6 60.3 L 37.8 63.4 L 39.9 66.8 L 41.7 70.3 L 41.4 74.9 L 38.0 78.0 L 33.5 77.7 L 30.4 74.4 L 29.5 71.3 Z M 98.7 69.7 L 121.0 69.7 L 121.0 43.4 L 98.7 43.4 Z " />
</g>
</svg>
