<svg xmlns="http://www.w3.org/2000/svg" xmlns:xlink="http://www.w3.org/1999/xlink" version="1.1" baseProfile="full" viewBox="0 0 200 200" width="200" height="200">
<g fill="black">
<path d="M 167.2 171.1 L 167.4 171.7 L 167.6 172.1 L 167.9 172.4 L 168.8 172.7 L 169.7 172.9 L 171.0 173.0 L 177.0 173.0 L 183.0 148.0 L 185.0 148.0 L 183.0 173.0 L 186.6 175.4 L 189.0 179.0 L 186.6 182.6 L 183.0 185.0 L 171.0 185.0 L 168.4 184.8 L 165.9 184.4 L 163.5 183.6 L 161.2 182.3 L 159.2 180.7 L 157.6 178.6 L 156.4 176.4 L 155.6 174.0 L 155.2 171.5 L 155.0 168.9 L 155.88161392211913 73.0 L 125.9352518081665 73.0 L 121.18869276046753 167.25310039520264 L 124.3 166.4 L 130.8 164.7 L 137.5 163.1 L 144.4 161.5 L 151.7 160.1 L 152.2 161.8 L 145.7 165.1 L 139.2 168.2 L 132.9 171.0 L 126.8 173.6 L 120.8 176.1 L 115.0 178.5 L 109.5 180.9 L 104.1 183.1 L 98.9 185.2 L 97.67322225570679 185.71524667739868 L 96.7 189.5 L 93.9 187.3 L 88.0 176.6 L 89.9 176.0 L 95.1 174.5 L 100.6 172.9 L 106.2 171.4 L 108.9176100730896 170.6503144264221 L 115.84964027404786 33.0 L 96.0 33.0 L 96.0 29.0 L 162.0 29.0 L 172.0 19.0 L 184.0 29.0 L 184.0 33.0 L 127.94964027404785 33.0 L 126.13669061660767 69.0 L 156.0 69.0 L 162.0 64.0 L 173.0 73.0 L 168.0 76.0 L 167.0 76.41666669845581 L 167.0 169.0 L 167.1 170.2 Z M 75.8 163.6 L 73.7 159.9 L 71.5 156.2 L 69.1 152.6 L 66.6 149.0 L 63.9 145.3 L 61.2 141.7 L 58.3 138.0 L 57.35904054641723 136.83948335647582 L 56.3 141.0 L 52.6 150.9 L 48.1 159.9 L 42.8 167.8 L 36.6 174.7 L 29.7 180.3 L 22.0 184.7 L 13.6 187.8 L 12.9 186.1 L 20.1 181.4 L 26.3 176.1 L 31.8 170.2 L 36.6 163.5 L 40.6 156.0 L 43.9 147.6 L 46.6 138.3 L 47.214705848693846 135.0 L 16.9 135.0 L 16.9 131.0 L 47.95980396270752 131.0 L 48.5 128.1 L 49.8 116.9 L 50.25911655426025 105.69755716323853 L 50.2 105.7 L 50.30303030014038 104.0 L 14.5 104.0 L 14.5 100.0 L 50.3 100.0 L 50.3 78.0 L 26.4 78.0 L 26.4 74.0 L 50.3 74.0 L 50.3 52.0 L 19.3 52.0 L 19.3 48.0 L 42.7 48.0 L 41.6 47.7 L 39.2 43.8 L 39.2 41.3 L 39.1 38.7 L 38.5 33.7 L 38.0 31.1 L 37.4 28.6 L 36.7 26.0 L 35.8 23.4 L 34.9 20.7 L 33.5 18.3 L 34.9 17.2 L 37.0 19.3 L 39.2 21.2 L 41.3 23.4 L 43.1 25.7 L 44.9 28.2 L 46.4 30.7 L 47.8 33.4 L 49.1 36.2 L 50.2 39.1 L 51.1 42.1 L 49.9 46.6 L 47.52608699798584 48.0 L 63.17567567825317 48.0 L 63.8 45.9 L 64.7 42.3 L 65.7 38.7 L 66.6 35.3 L 67.6 31.9 L 68.5 28.5 L 70.3 22.1 L 71.1 18.9 L 71.59093284606934 16.725868797302248 L 71.5 16.7 L 71.72881355285645 16.115254211425782 L 71.8 15.8 L 71.84554920196533 15.816929817199707 L 72.4 14.4 L 83.1 20.0 L 85.2 22.9 L 81.18696222305297 23.67444591522217 L 80.0 25.9 L 78.3 28.9 L 76.6 32.0 L 72.8 38.0 L 70.8 41.1 L 68.7 44.2 L 66.4 47.2 L 65.85806455612183 48.0 L 75.21818180084229 48.0 L 83.4 39.0 L 93.4 48.0 L 93.4 52.0 L 62.3 52.0 L 62.3 74.0 L 65.4 74.0 L 75.4 64.0 L 87.4 74.0 L 87.4 78.0 L 62.3 78.0 L 62.3 100.0 L 77.3 100.0 L 87.3 90.0 L 99.3 100.0 L 99.3 104.0 L 57.2 104.0 L 62.3 105.2 L 65.2 107.3 L 61.93805866241455 109.09086980819703 L 61.1 118.1 L 59.1 130.0 L 58.84545450210571 131.0 L 74.9 131.0 L 84.9 121.0 L 96.9 131.0 L 96.9 135.0 L 59.94399995803833 135.0 L 60.6 135.4 L 64.7 138.1 L 68.4 141.0 L 72.0 144.1 L 75.5 147.3 L 78.7 150.7 L 81.8 154.2 L 84.7 157.8 L 87.4 161.6 L 90.0 165.4 L 90.4 170.0 L 87.6 173.6 L 83.1 174.0 L 79.5 171.2 L 77.7 167.4 Z M 137.0 124.6 L 136.4 120.8 L 135.7 117.0 L 134.8 113.4 L 133.8 109.9 L 132.6 106.4 L 131.2 103.0 L 129.7 99.6 L 127.9 96.3 L 129.3 95.1 L 132.2 97.7 L 135.1 100.4 L 137.7 103.5 L 140.1 106.8 L 142.2 110.4 L 144.1 114.1 L 145.8 118.1 L 147.3 122.3 L 148.5 126.7 L 149.5 131.3 L 148.3 135.6 L 144.3 137.9 L 139.9 136.6 L 137.6 132.7 L 137.4 128.6 Z " />
</g>
</svg>
