<svg xmlns="http://www.w3.org/2000/svg" xmlns:xlink="http://www.w3.org/1999/xlink" version="1.1" baseProfile="full" viewBox="0 0 200 200" width="200" height="200">
<g fill="black">
<path d="M 161.2 177.7 L 154.9 171.7 L 149.2 164.9 L 144.1 157.3 L 139.7 148.9 L 135.8 139.7 L 132.5 129.8 L 130.0 119.1 L 128.41826086044313 108.4 L 106.1 108.4 L 106.1 165.78064517974855 L 111.5 164.3 L 117.8 162.5 L 124.3 160.6 L 131.0 158.9 L 137.9 157.3 L 138.5 159.0 L 132.3 162.5 L 126.2 165.7 L 120.1 168.6 L 114.1 171.4 L 108.2 174.0 L 102.4 176.5 L 96.7 178.9 L 91.1 181.2 L 85.6 183.4 L 84.08358392715454 183.9616355895996 L 83.0 187.7 L 80.2 185.4 L 74.6 174.6 L 76.5 174.0 L 82.0 172.6 L 87.6 171.0 L 93.4 169.4 L 94.1 169.210169506073 L 94.1 35.7 L 106.1 41.7 L 127.0 41.7 L 127.0 12.9 L 139.0 14.9 L 142.0 16.9 L 139.0 18.7 L 139.0 41.7 L 160.0 41.7 L 166.0 36.7 L 177.0 45.7 L 172.0 49.7 L 172.0 110.4 L 160.0 116.4 L 160.0 108.4 L 130.44859809875487 108.4 L 134.0 117.9 L 138.1 127.8 L 142.4 136.8 L 147.0 144.9 L 151.10923929214476 150.93806591033936 L 152.3 149.4 L 154.6 146.2 L 157.0 143.0 L 159.5 139.8 L 161.9 136.6 L 164.4 133.4 L 166.8 130.2 L 169.3 126.9 L 171.7 123.6 L 173.57327823638917 121.05234155654907 L 173.5 121.0 L 174.6 119.7 L 183.3 128.0 L 184.3 131.5 L 180.38146343231202 130.8243902206421 L 180.2 131.0 L 174.0 136.8 L 170.9 139.6 L 164.5 144.8 L 161.2 147.3 L 157.9 149.6 L 152.55924549102784 152.8987012863159 L 157.1 158.4 L 162.6 163.8 L 168.5 168.3 L 174.6 172.1 L 181.0 175.0 L 187.1 177.7 L 175.7 187.1 L 168.2 182.8 Z M 70.6 104.1 L 70.21121492385865 102.7392523765564 L 69.0 103.3 L 63.4 105.5 L 57.8 107.5 L 55.1 108.33793106079102 L 55.1 181.1 L 43.1 187.1 L 43.1 111.775 L 34.2 114.0 L 28.2 115.3 L 19.921996688842775 116.90219421386719 L 18.2 120.4 L 15.8 117.7 L 12.4 106.0 L 14.4 105.7 L 20.5 105.3 L 26.5 104.7 L 29.275231742858885 104.4270263671875 L 31.2 101.0 L 35.5 93.7 L 39.8 86.6 L 44.0 79.5 L 48.3 72.3 L 52.4 65.2 L 60.6 50.8 L 64.6 43.6 L 68.00995388031006 37.304700469970705 L 68.0 37.3 L 69.0 35.5 L 78.8 42.4 L 80.4 45.7 L 76.66766510009765 45.76435060501099 L 74.3 49.5 L 69.7 56.4 L 65.0 63.4 L 60.2 70.2 L 55.3 77.0 L 50.3 83.7 L 45.2 90.3 L 39.8 96.9 L 34.3 103.2 L 33.563186454772946 103.98762826919555 L 38.6 103.4 L 44.5 102.7 L 56.3 101.1 L 62.1 100.3 L 68.0 99.6 L 69.19940204620362 99.49835577011109 L 68.4 97.3 L 67.1 94.0 L 65.7 90.8 L 64.1 87.6 L 62.4 84.5 L 60.5 81.4 L 58.3 78.5 L 59.5 77.2 L 62.7 79.3 L 65.8 81.5 L 68.7 84.1 L 71.4 86.9 L 73.9 89.9 L 76.3 93.2 L 78.4 96.7 L 80.4 100.4 L 82.2 104.3 L 83.7 108.4 L 83.1 112.9 L 79.5 115.7 L 75.0 115.1 L 72.1 111.5 L 71.4 107.7 Z M 36.7 127.3 L 39.4 129.6 L 35.91952972412109 131.2733030319214 L 35.6 132.9 L 34.3 138.4 L 32.7 143.8 L 30.9 149.1 L 28.7 154.3 L 26.3 159.5 L 23.6 164.5 L 20.6 169.4 L 17.2 174.1 L 13.4 178.6 L 11.8 177.7 L 13.9 172.3 L 15.8 167.0 L 17.6 161.8 L 19.3 156.6 L 20.7 151.5 L 22.0 146.4 L 23.0 141.3 L 23.8 136.2 L 24.4 131.1 L 24.72133264541626 127.00300827026368 L 24.6 127.0 L 25.0 123.9 Z M 70.1 149.6 L 69.2 145.8 L 68.2 142.1 L 67.0 138.6 L 65.7 135.1 L 62.7 128.5 L 61.0 125.2 L 59.0 122.1 L 60.3 120.8 L 63.3 123.1 L 66.4 125.6 L 69.2 128.5 L 71.7 131.6 L 74.1 135.0 L 76.3 138.6 L 78.3 142.4 L 80.1 146.4 L 81.8 150.7 L 83.2 155.1 L 82.3 159.6 L 78.6 162.3 L 74.1 161.4 L 71.5 157.7 L 70.8 153.6 Z M 106.1 76.6 L 106.1 104.4 L 160.0 104.4 L 160.0 76.6 Z M 29.7 68.4 L 28.4 65.4 L 26.9 62.5 L 25.2 59.6 L 23.2 56.8 L 21.0 54.0 L 18.6 51.2 L 16.0 48.4 L 13.0 45.8 L 13.9 44.2 L 21.3 47.6 L 24.8 49.7 L 28.0 51.9 L 28.838864135742188 52.603563499450686 L 29.7 50.7 L 31.5 46.4 L 33.4 42.3 L 35.3 38.3 L 39.1 30.1 L 41.0 26.1 L 42.8 22.0 L 44.6 18.0 L 45.92289514541626 14.809488105773926 L 45.9 14.8 L 46.0264368057251 14.559770107269287 L 46.3 13.9 L 46.357994556427 13.929810333251954 L 46.9 12.9 L 57.0 19.4 L 58.8 22.6 L 54.86666669845581 22.86666669845581 L 54.6 23.3 L 49.6 30.9 L 47.0 34.7 L 41.6 42.1 L 38.7 45.7 L 35.7 49.2 L 32.5 52.6 L 30.856010818481444 54.295363903045654 L 31.1 54.5 L 33.9 57.2 L 36.5 60.1 L 38.9 63.3 L 41.0 66.7 L 43.0 70.2 L 42.8 74.8 L 39.5 78.0 L 34.9 77.8 L 31.8 74.5 L 30.8 71.4 Z M 106.1 72.6 L 160.0 72.6 L 160.0 45.7 L 106.1 45.7 Z " />
</g>
</svg>
