<svg xmlns="http://www.w3.org/2000/svg" xmlns:xlink="http://www.w3.org/1999/xlink" version="1.1" baseProfile="full" viewBox="0 0 200 200" width="200" height="200">
<g fill="black">
<path d="M 111.1 182.0 L 99.1 188.0 L 99.1 107.84328355789185 L 95.2 112.5 L 88.0 120.3 L 80.4 127.5 L 79.1 126.4 L 85.1 117.8 L 90.9 109.3 L 96.5 100.7 L 99.1 96.46296300888062 L 99.1 89.0 L 102.56812229156495 90.73406114578248 L 107.0 83.0 L 111.8 73.9 L 114.62173910140991 68.0 L 84.0 68.0 L 84.0 64.0 L 116.51276597976684 64.0 L 120.4 55.3 L 124.3 45.6 L 126.28947372436524 40.0 L 106.5319149017334 40.0 L 105.9 41.1 L 102.9 45.8 L 99.6 50.3 L 96.1 54.9 L 92.1 59.2 L 87.8 63.5 L 86.4 62.4 L 89.0 57.1 L 91.6 51.9 L 94.0 46.9 L 96.3 42.1 L 98.3 37.3 L 100.2 32.5 L 101.8 27.9 L 103.2 23.3 L 104.4 18.8 L 105.3 14.4 L 105.35553560256957 14.414362621307372 L 105.8 12.7 L 116.9 17.4 L 119.3 20.1 L 115.53943309783935 21.241600704193115 L 115.2 22.2 L 113.3 27.0 L 111.1 31.7 L 108.81276597976685 36.0 L 156.9 36.0 L 166.9 26.0 L 178.9 36.0 L 178.9 40.0 L 139.14285717010497 40.0 L 139.1 40.1 L 134.8 50.0 L 130.2 59.8 L 127.9659574508667 64.0 L 165.3 64.0 L 175.3 54.0 L 187.3 64.0 L 187.3 68.0 L 125.8382978439331 68.0 L 125.2 69.2 L 119.9 78.4 L 114.2 87.4 L 109.50769233703613 94.20384616851807 L 111.1 95.0 L 134.55 95.0 L 135.2 93.7 L 136.1 90.7 L 137.1 87.8 L 138.1 85.0 L 140.1 79.6 L 141.0 77.0 L 141.9 74.3 L 142.7 71.8 L 143.20980396270753 70.1431372642517 L 143.1 70.1 L 143.41999998092652 69.46000003814697 L 143.5 69.2 L 143.5401487350464 69.21970262527466 L 144.1 68.1 L 154.3 74.5 L 156.1 77.6 L 151.89106855392455 77.96283893585205 L 151.1 79.1 L 145.7 86.0 L 141.7 90.6 L 139.6 92.9 L 137.3 95.0 L 158.0 95.0 L 168.0 85.0 L 180.0 95.0 L 180.0 99.0 L 144.8 99.0 L 144.8 121.0 L 154.8 121.0 L 164.8 111.0 L 176.8 121.0 L 176.8 125.0 L 144.8 125.0 L 144.8 147.0 L 154.8 147.0 L 164.8 137.0 L 176.8 147.0 L 176.8 151.0 L 144.8 151.0 L 144.8 175.0 L 164.3 175.0 L 174.3 165.0 L 186.3 175.0 L 186.3 179.0 L 111.1 179.0 Z M 111.1 151.0 L 111.1 175.0 L 132.8 175.0 L 132.8 151.0 Z M 25.2 158.0 L 13.2 164.0 L 13.2 24.0 L 25.2 30.0 L 64.4 30.0 L 70.4 25.0 L 81.4 34.0 L 76.4 38.0 L 76.4 152.0 L 64.4 158.0 L 64.4 146.0 L 25.2 146.0 Z M 111.1 125.0 L 111.1 147.0 L 132.8 147.0 L 132.8 125.0 Z M 25.2 90.0 L 25.2 142.0 L 38.8 142.0 L 38.8 90.0 Z M 50.8 90.0 L 50.8 142.0 L 64.4 142.0 L 64.4 90.0 Z M 111.1 99.0 L 111.1 121.0 L 132.8 121.0 L 132.8 99.0 Z M 25.2 34.0 L 25.2 86.0 L 38.8 86.0 L 38.8 34.0 Z M 50.8 34.0 L 50.8 86.0 L 64.4 86.0 L 64.4 34.0 Z " />
</g>
</svg>
