<svg xmlns="http://www.w3.org/2000/svg" xmlns:xlink="http://www.w3.org/1999/xlink" version="1.1" baseProfile="full" viewBox="0 0 200 200" width="200" height="200">
<g fill="black">
<path d="M 138.5 179.1 L 133.1 184.1 L 127.3 187.6 L 126.3 186.2 L 130.5 181.4 L 134.2 175.9 L 137.6 169.6 L 140.7 162.4 L 143.4 154.1 L 145.8 144.8 L 147.7 134.5 L 149.08947372436523 124.6 L 133.4 124.6 L 128.4 127.6 L 128.26962308883668 127.65432376861573 L 128.2 130.3 L 128.0 137.3 L 127.7 143.8 L 127.3 149.6 L 126.9 155.0 L 126.4 159.7 L 125.8 164.0 L 125.1 167.7 L 124.3 170.9 L 123.4 173.8 L 122.3 176.1 L 121.1 178.2 L 119.6 180.2 L 117.9 182.0 L 115.9 183.5 L 113.8 184.7 L 111.5 185.7 L 109.1 186.4 L 106.6 186.7 L 104.1 186.9 L 104.1 180.9 L 84.75317916870117 177.99797687530517 L 83.9 179.1 L 78.5 184.1 L 72.7 187.6 L 71.7 186.2 L 75.9 181.4 L 79.6 175.9 L 83.0 169.6 L 86.1 162.4 L 88.8 154.1 L 91.2 144.8 L 93.1 134.5 L 94.48947372436524 124.6 L 76.0 124.6 L 76.0 120.6 L 94.93999996185303 120.6 L 95.9 110.6 L 96.6 97.1 L 96.6603925704956 97.1035228729248 L 96.8 94.8 L 108.6 97.8 L 111.5 100.0 L 108.20616054534912 101.71026277542114 L 107.2 111.7 L 105.88914728164673 120.6 L 116.4 120.6 L 122.4 115.6 L 130.6 122.30909090042114 L 130.6 120.6 L 149.53999996185303 120.6 L 150.5 110.6 L 151.2 97.1 L 151.2603925704956 97.1035228729248 L 151.4 94.8 L 163.2 97.8 L 166.1 100.0 L 162.80616054534912 101.71026277542114 L 161.8 111.7 L 160.48914728164672 120.6 L 171.0 120.6 L 177.0 115.6 L 188.0 124.6 L 183.0 127.6 L 182.86962308883668 127.65432376861573 L 182.8 130.3 L 182.6 137.3 L 182.3 143.8 L 181.9 149.6 L 181.5 155.0 L 181.0 159.7 L 180.4 164.0 L 179.7 167.7 L 179.0 170.9 L 178.0 173.8 L 177.0 176.1 L 175.7 178.2 L 174.2 180.2 L 172.5 182.0 L 170.5 183.5 L 168.4 184.7 L 166.1 185.7 L 163.7 186.4 L 161.3 186.7 L 158.7 186.9 L 158.7 180.9 L 139.35317916870116 177.99797687530517 Z M 62.7 164.5 L 62.3 160.3 L 61.62916669845581 156.3708333015442 L 60.5 157.5 L 56.3 161.1 L 52.0 164.6 L 47.5 167.9 L 42.9 171.0 L 38.2 174.0 L 33.3 176.9 L 28.4 179.7 L 23.4 182.4 L 22.123058223724364 183.05098991394044 L 21.4 187.0 L 18.3 185.0 L 11.8 174.8 L 13.6 174.0 L 23.8 170.0 L 28.8 168.0 L 33.8 165.8 L 38.7 163.6 L 38.9 163.5079999923706 L 38.9 116.4 L 28.0 116.4 L 28.0 128.4 L 17.0 133.9 L 17.0 49.7 L 28.0 55.2 L 38.9 55.2 L 38.9 13.5 L 48.9 15.5 L 51.4 17.5 L 48.9 19.16666669845581 L 48.9 55.2 L 59.9 55.2 L 65.4 50.2 L 75.9 59.2 L 70.9 62.7 L 70.9 116.4 L 59.9 121.9 L 59.9 116.4 L 48.9 116.4 L 48.9 158.80408163070678 L 53.4 156.6 L 58.4 154.3 L 61.01862916946411 153.14780311584474 L 60.8 152.0 L 59.8 147.9 L 58.6 143.8 L 57.3 139.7 L 55.8 135.5 L 54.1 131.3 L 55.6 130.3 L 58.7 133.7 L 61.7 137.3 L 64.3 141.2 L 66.6 145.2 L 68.6 149.4 L 70.4 153.8 L 71.9 158.2 L 73.2 162.8 L 74.2 167.5 L 74.9 172.4 L 73.3 176.7 L 69.2 178.7 L 64.9 177.1 L 62.9 173.1 L 62.9 168.8 Z M 28.0 59.2 L 28.0 112.4 L 38.9 112.4 L 38.9 59.2 Z M 48.9 59.2 L 48.9 112.4 L 59.9 112.4 L 59.9 59.2 Z M 159.1 87.4 L 157.3 89.0 L 155.4 90.5 L 153.3 91.7 L 151.1 92.7 L 148.8 93.4 L 146.5 94.0 L 144.0 94.3 L 141.6 94.4 L 141.6 88.4 L 125.6 85.4 L 125.6 82.4 L 141.6 82.4 L 144.4 82.2 L 145.6 81.9 L 146.7 81.5 L 147.7 81.0 L 148.7 80.4 L 149.7 79.7 L 150.6 78.9 L 151.5 77.9 L 152.4 76.8 L 153.4 75.2 L 154.3 73.1 L 155.3 70.6 L 156.2 67.5 L 157.0 64.0 L 157.7 60.1 L 158.3 55.7 L 158.8 50.9 L 159.3 45.6 L 159.47894735336303 42.2 L 131.31203699111938 42.2 L 128.4 50.7 L 123.9 60.5 L 118.6 69.3 L 112.6 77.1 L 105.7 83.9 L 98.1 89.5 L 89.8 94.0 L 80.8 97.3 L 80.1 95.6 L 87.9 90.7 L 94.9 85.2 L 101.1 79.2 L 106.6 72.4 L 111.4 64.8 L 115.5 56.4 L 119.0 47.2 L 120.35 42.2 L 86.8 42.2 L 86.8 38.2 L 121.43000001907349 38.2 L 121.7 37.2 L 123.8 26.2 L 125.18249998092651 14.547500038146973 L 125.4 12.3 L 137.1 15.7 L 139.9 18.0 L 136.45123348236083 19.561705589294434 L 135.0 28.2 L 132.52136754989624 38.2 L 159.6 38.2 L 165.6 33.2 L 176.6 42.2 L 171.6 45.2 L 171.25276594161988 45.344680881500246 L 171.2 46.4 L 170.8 52.0 L 170.2 57.2 L 169.5 62.0 L 168.7 66.5 L 167.8 70.6 L 166.7 74.3 L 165.4 77.8 L 163.9 80.9 L 162.2 83.7 L 160.7 85.6 Z M 113.4 165.3 L 113.9 162.1 L 114.5 158.3 L 114.9 153.9 L 115.4 148.8 L 115.7 143.1 L 116.0 136.8 L 116.2 130.0 L 116.34399995803832 124.6 L 105.3 124.6 L 103.0 136.4 L 100.1 147.2 L 96.8 156.8 L 93.0 165.4 L 88.7 172.9 L 87.15161294937134 174.9 L 104.1 174.9 L 105.5 174.8 L 106.6 174.6 L 107.6 174.3 L 108.4 174.0 L 109.2 173.6 L 109.8 173.0 L 110.5 172.4 L 111.1 171.6 L 111.7 170.6 L 112.2 169.3 L 112.8 167.7 Z M 168.0 165.3 L 168.6 162.1 L 169.1 158.3 L 169.6 153.9 L 170.0 148.8 L 170.3 143.1 L 170.6 136.8 L 170.8 130.0 L 170.94399995803832 124.6 L 159.9 124.6 L 157.6 136.4 L 154.8 147.2 L 151.5 156.8 L 147.7 165.4 L 143.3 172.9 L 141.75161294937135 174.9 L 158.7 174.9 L 160.1 174.8 L 161.2 174.6 L 162.2 174.3 L 163.0 174.0 L 163.8 173.6 L 164.5 173.0 L 165.1 172.4 L 165.7 171.6 L 166.3 170.6 L 166.9 169.3 L 167.4 167.7 Z " />
</g>
</svg>
