<svg xmlns="http://www.w3.org/2000/svg" xmlns:xlink="http://www.w3.org/1999/xlink" version="1.1" baseProfile="full" viewBox="0 0 200 200" width="200" height="200">
<g fill="black">
<path d="M 53.5 130.9 L 52.4 128.0 L 51.2 125.2 L 49.8 122.3 L 48.3 119.5 L 46.6 116.6 L 45.6 115.02105264663696 L 45.6 182.0 L 33.6 188.0 L 33.6 111.9 L 32.5 113.4 L 26.5 120.6 L 20.1 127.4 L 13.2 133.9 L 11.9 132.7 L 17.2 125.0 L 22.2 117.3 L 27.1 109.6 L 31.6 101.8 L 33.6 98.12558135986328 L 33.6 97.5 L 33.91218566894531 97.55203094482422 L 35.9 93.9 L 39.8 85.8 L 43.4 77.5 L 46.8 69.1 L 49.8 60.6 L 51.24772729873657 55.7 L 15.6 55.7 L 15.6 51.7 L 33.6 51.7 L 33.6 11.9 L 45.6 13.9 L 48.6 15.9 L 45.6 17.7 L 45.6 51.7 L 52.2 51.7 L 58.2 46.7 L 69.2 55.7 L 64.2 58.7 L 62.35690603256226 59.4679557800293 L 60.4 64.5 L 56.7 73.2 L 52.5 81.8 L 48.1 90.0 L 43.2 98.1 L 42.6 99.0 L 45.6 99.5 L 48.6 101.5 L 45.6 103.3 L 45.6 109.15625 L 47.8 110.6 L 48.65714282989502 111.22857141494751 L 49.0 110.6 L 50.3 107.2 L 51.5 104.1 L 52.6 101.2 L 53.6 98.5 L 54.5 96.0 L 55.2 93.8 L 55.8 91.7 L 56.2 89.8 L 56.27667360305786 89.18661088943482 L 56.0 89.1 L 56.9 86.9 L 67.5 92.7 L 69.6 95.6 L 64.8336633682251 96.42178220748902 L 63.5 98.2 L 61.9 100.2 L 60.1 102.3 L 58.1 104.6 L 56.0 106.9 L 53.7 109.4 L 51.1 112.0 L 50.574678134918216 112.63476390838623 L 50.8 112.8 L 53.5 115.2 L 56.1 117.8 L 58.5 120.5 L 60.8 123.3 L 62.8 126.2 L 64.7 129.2 L 66.3 132.4 L 66.1 136.9 L 62.8 140.1 L 58.2 139.8 L 55.1 136.5 L 54.4 133.7 Z M 92.2 176.0 L 102.2 176.0 L 103.4 175.9 L 104.4 175.7 L 104.9 175.5 L 105.3 175.4 L 105.5 175.2 L 105.6 175.0 L 105.8 174.7 L 106.0 174.1 L 106.1 173.2 L 106.2 172.0 L 106.2 149.0 L 85.0 149.0 L 85.0 182.0 L 73.0 188.0 L 73.0 93.0 L 85.0 99.0 L 106.2 99.0 L 112.2 94.0 L 123.2 103.0 L 118.2 107.0 L 118.2 172.0 L 118.1 174.5 L 117.6 177.0 L 116.8 179.4 L 115.6 181.7 L 114.0 183.7 L 111.9 185.3 L 109.7 186.6 L 107.3 187.4 L 104.8 187.8 L 102.2 188.0 L 102.2 182.0 L 92.2 179.0 Z M 134.4 176.5 L 144.4 176.5 L 145.4 176.4 L 146.0 176.3 L 146.4 176.1 L 146.7 176.0 L 146.8 175.8 L 147.0 175.6 L 147.2 175.1 L 147.4 174.4 L 147.6 173.3 L 147.7 172.0 L 147.7 129.0 L 129.0 129.0 L 129.0 125.0 L 147.7 125.0 L 147.7 98.0 L 123.2 98.0 L 123.2 94.0 L 147.7 94.0 L 147.7 67.0 L 133.6 67.0 L 133.6 65.24285717010498 L 132.8 66.7 L 129.7 71.3 L 126.3 75.4 L 124.8 74.5 L 126.3 69.5 L 127.9 64.4 L 129.6 59.2 L 131.1 53.6 L 132.7 47.9 L 134.1 41.8 L 135.5 35.5 L 136.8 28.9 L 137.9 22.0 L 138.8596393585205 15.805963897705078 L 138.8 15.8 L 139.4 13.0 L 150.8 17.0 L 153.4 19.5 L 149.9009204864502 20.86075315475464 L 149.1 24.3 L 147.30704221725463 31.0 L 159.8 31.0 L 165.8 26.0 L 176.8 35.0 L 171.8 38.0 L 169.49670333862304 38.959706974029544 L 167.2 43.4 L 164.0 49.4 L 162.2 52.5 L 160.3 55.6 L 158.3 58.8 L 156.0 62.0 L 155.39393939971924 63.0 L 168.4 63.0 L 173.9 58.0 L 184.4 67.0 L 179.4 70.5 L 179.4 91.0666666984558 L 181.7 88.0 L 187.7 94.0 L 187.7 98.0 L 179.4 98.0 L 179.4 135.0 L 168.4 140.5 L 168.4 129.0 L 158.7 129.0 L 158.7 172.0 L 158.5 174.4 L 158.2 176.7 L 157.5 179.0 L 156.5 181.1 L 155.1 183.1 L 153.3 184.7 L 151.3 186.0 L 149.1 186.8 L 146.8 187.3 L 144.4 187.5 L 144.4 182.0 L 134.4 179.2 Z M 85.0 126.0 L 85.0 145.0 L 106.2 145.0 L 106.2 126.0 Z M 158.7 98.0 L 158.7 125.0 L 168.4 125.0 L 168.4 98.0 Z M 85.0 103.0 L 85.0 122.0 L 106.2 122.0 L 106.2 103.0 Z M 158.7 67.0 L 158.7 94.0 L 168.4 94.0 L 168.4 67.0 Z M 67.4 80.0 L 89.6 80.0 L 89.6 61.0 L 73.4 61.0 L 73.4 57.0 L 89.6 57.0 L 89.6 38.0 L 70.9 38.0 L 70.9 34.0 L 89.6 34.0 L 89.6 12.0 L 101.6 14.0 L 104.6 16.0 L 101.6 17.8 L 101.6 34.0 L 106.0777777671814 34.0 L 112.3 27.0 L 120.3 34.0 L 120.3 38.0 L 101.6 38.0 L 101.6 57.0 L 103.5777777671814 57.0 L 109.8 50.0 L 117.8 57.0 L 117.8 61.0 L 101.6 61.0 L 101.6 80.0 L 105.61818180084228 80.0 L 113.8 71.0 L 123.8 80.0 L 123.8 84.0 L 67.4 84.0 Z M 146.12537317276002 35.0 L 145.2 38.1 L 143.0 44.5 L 140.7 50.5 L 138.3 56.3 L 135.6 61.6 L 134.83137254714967 63.0 L 152.76315793991088 63.0 L 153.4 60.8 L 154.2 57.0 L 155.1 53.4 L 155.9 49.9 L 156.7 46.5 L 157.5 43.2 L 158.2 40.0 L 158.9 37.0 L 159.3 35.0 Z " />
</g>
</svg>
