<svg xmlns="http://www.w3.org/2000/svg" xmlns:xlink="http://www.w3.org/1999/xlink" version="1.1" baseProfile="full" viewBox="0 0 200 200" width="200" height="200">
<g fill="black">
<path d="M 81.8 164.8 L 78.6 161.9 L 75.6 158.6 L 72.8 154.8 L 70.2 150.6 L 67.8 146.0 L 65.5 140.9 L 65.0 139.5666666984558 L 65.0 182.0 L 53.0 188.0 L 53.0 147.8800000190735 L 51.4 150.4 L 46.9 156.3 L 42.2 161.7 L 37.1 166.6 L 31.7 171.0 L 25.9 174.9 L 19.8 178.2 L 13.4 180.7 L 12.5 179.2 L 17.8 174.9 L 22.7 170.6 L 27.3 166.1 L 31.7 161.3 L 35.7 156.2 L 39.4 150.8 L 42.9 145.1 L 46.0 139.0 L 48.8 132.6 L 49.76086959838867 130.0 L 18.0 130.0 L 18.0 126.0 L 53.0 126.0 L 53.0 108.0 L 65.0 110.0 L 68.0 112.0 L 65.0 113.8 L 65.0 126.0 L 80.0 126.0 L 90.0 116.0 L 102.0 126.0 L 102.0 130.0 L 65.0 130.0 L 65.0 131.05 L 66.8 133.6 L 70.2 138.2 L 73.5 142.3 L 76.7 145.9 L 79.8 149.0 L 82.7 151.6 L 85.6 153.6 L 88.3 155.1 L 90.7 156.1 L 93.0 156.7 L 100.5 159.2 L 88.9 169.2 L 85.2 167.3 Z M 173.5 180.0 L 171.7 181.7 L 169.8 183.2 L 167.8 184.4 L 165.6 185.4 L 163.3 186.2 L 161.0 186.8 L 158.5 187.1 L 156.1 187.2 L 156.1 181.2 L 136.1 178.2 L 136.1 175.2 L 157.5 175.2 L 158.8 175.0 L 160.0 174.7 L 161.1 174.3 L 162.1 173.9 L 163.0 173.3 L 164.0 172.6 L 164.8 171.7 L 165.7 170.7 L 166.6 169.6 L 167.2 168.3 L 168.0 166.1 L 168.8 163.1 L 169.5 159.3 L 170.0 154.9 L 170.5 149.7 L 170.8 143.8 L 171.0 137.3 L 171.0 132.0583333015442 L 170.9 132.1 L 170.9 124.1 L 119.5 124.1 L 107.5 130.1 L 107.5 31.4 L 119.5 37.4 L 133.32608699798584 37.4 L 133.6 36.7 L 134.0 34.1 L 135.0 29.3 L 135.5 26.8 L 136.3 22.0 L 136.8 19.6 L 137.1 17.2 L 137.32821922302247 15.83068494796753 L 137.2 15.8 L 137.4782608985901 14.930434799194336 L 137.5 14.8 L 137.51807231903075 14.806024074554443 L 138.0 13.3 L 148.9 18.6 L 151.1 21.4 L 146.8612154006958 22.38400354385376 L 146.4 23.2 L 145.1 25.4 L 143.7 27.6 L 140.7 31.8 L 139.1 33.9 L 137.5 35.9 L 136.0 37.4 L 160.9 37.4 L 166.9 32.4 L 177.9 41.4 L 172.9 45.4 L 172.9 86.7 L 160.9 92.7 L 160.9 84.7 L 119.5 84.7 L 119.5 100.4 L 167.11818180084228 100.4 L 175.3 91.4 L 185.3 100.4 L 185.3 104.4 L 119.5 104.4 L 119.5 120.1 L 170.9 120.1 L 176.9 115.1 L 187.9 124.1 L 182.9625 127.0625 L 183.0 130.1 L 183.0 137.5 L 182.8 144.3 L 182.4 150.5 L 182.0 156.1 L 181.3 161.2 L 180.5 165.6 L 179.5 169.6 L 178.2 173.1 L 176.6 176.2 L 175.1 178.2 Z M 100.5 173.5 L 98.8 169.2 L 100.5 165.0 L 101.8 164.0 L 103.2 162.6 L 104.5 160.8 L 105.7 158.5 L 106.9 155.8 L 107.8 152.7 L 108.7 149.1 L 109.4 145.1 L 110.0 140.8 L 110.1 136.0 L 111.9 135.8 L 112.8 140.6 L 113.7 145.1 L 114.3 149.4 L 114.5 153.4 L 114.5 157.3 L 114.1 160.9 L 113.4 164.4 L 112.3 167.6 L 110.9 170.7 L 109.0 173.5 L 104.7 175.2 Z M 125.2 169.3 L 121.6 166.5 L 121.0 161.9 L 121.7 160.8 L 122.3 159.3 L 122.8 157.6 L 123.2 155.7 L 123.5 153.5 L 123.5 148.3 L 123.3 145.4 L 123.1 142.3 L 122.2 139.1 L 123.8 138.5 L 125.3 141.5 L 127.0 144.3 L 128.5 147.0 L 129.7 149.7 L 130.8 152.3 L 131.6 154.9 L 132.2 157.5 L 132.6 160.1 L 132.7 162.6 L 132.6 165.2 L 129.7 168.7 Z M 139.0 152.8 L 139.1 151.0 L 139.1 149.2 L 138.9 147.4 L 138.6 145.6 L 138.2 143.7 L 137.5 141.8 L 136.7 139.8 L 135.3 138.2 L 136.5 136.9 L 138.3 138.3 L 140.4 139.4 L 142.3 140.9 L 144.0 142.6 L 145.5 144.4 L 146.9 146.5 L 148.1 148.8 L 149.0 151.2 L 149.8 153.8 L 150.3 156.6 L 148.5 160.7 L 144.3 162.6 L 140.1 160.7 L 138.3 156.6 L 138.7 154.7 Z M 155.0 146.2 L 155.0 145.0 L 154.8 143.7 L 154.4 142.3 L 153.7 140.9 L 152.8 139.4 L 151.6 137.8 L 150.2 136.2 L 148.3 135.2 L 149.0 133.5 L 151.1 134.3 L 153.5 134.8 L 155.6 135.5 L 157.7 136.4 L 159.6 137.6 L 161.4 139.0 L 163.0 140.6 L 164.5 142.5 L 165.6 144.6 L 166.6 146.9 L 165.4 151.3 L 161.5 153.7 L 157.1 152.5 L 154.7 148.6 L 154.9 147.4 Z M 97.2 80.1 L 99.3 83.0 L 95.40959825515748 83.67075891494751 L 93.7 86.9 L 89.7 94.1 L 87.6 97.9 L 85.3 101.6 L 82.9 105.5 L 80.4 109.4 L 77.6 113.3 L 74.8 117.4 L 73.1 116.5 L 74.6 111.9 L 76.0 107.3 L 77.4 102.9 L 78.8 98.6 L 80.1 94.5 L 81.4 90.5 L 82.7 86.6 L 83.9 82.9 L 85.0 79.2 L 85.73151931762695 76.63968257904052 L 85.6 76.6 L 86.5 74.4 Z M 31.7 99.6 L 31.6 97.1 L 31.5 94.7 L 31.3 92.4 L 31.0 90.1 L 30.6 87.8 L 30.2 85.6 L 29.7 83.3 L 28.8 81.3 L 30.3 80.3 L 31.8 82.0 L 33.6 83.7 L 35.3 85.6 L 36.8 87.7 L 38.2 89.9 L 39.5 92.3 L 40.7 94.9 L 41.8 97.6 L 42.7 100.3 L 43.6 103.3 L 42.3 107.7 L 38.3 109.9 L 33.9 108.6 L 31.6 104.7 L 31.7 102.1 Z M 53.3 94.9 L 53.1 92.4 L 52.9 90.1 L 52.6 87.8 L 52.2 85.5 L 51.8 83.4 L 51.3 81.2 L 50.8 79.1 L 49.9 77.3 L 51.3 76.2 L 52.8 77.8 L 54.6 79.3 L 56.3 81.0 L 57.9 82.9 L 59.4 85.0 L 60.8 87.3 L 62.1 89.8 L 63.2 92.4 L 64.3 95.1 L 65.3 98.0 L 64.3 102.4 L 60.5 104.9 L 56.0 103.9 L 53.5 100.0 L 53.4 97.4 Z M 119.5 63.1 L 119.5 80.7 L 160.9 80.7 L 160.9 63.1 Z M 89.65533599853515 55.95454549789429 L 99.1 64.0 L 99.4 67.1 L 95.2326732635498 65.22772274017333 L 92.8 66.0 L 86.8 67.4 L 80.5 68.8 L 73.9 70.2 L 67.1 71.5 L 59.9 72.7 L 52.4 73.8 L 44.5 74.8 L 36.4 75.7 L 27.9 76.4 L 19.1 76.8 L 18.8 75.1 L 27.3 72.7 L 35.4 70.4 L 43.3 68.4 L 50.8 66.4 L 58.1 64.4 L 65.0 62.4 L 71.5 60.4 L 77.8 58.5 L 83.7 56.5 L 88.30956087112426 54.823796081542966 L 88.3 54.8 L 88.32243766784669 54.81911354064941 L 89.2 54.5 Z M 78.2 15.5 L 81.2 17.5 L 78.2 19.3 L 78.2 35.5 L 80.3 35.5 L 90.3 25.5 L 102.3 35.5 L 102.3 39.5 L 78.2 39.5 L 78.2 47.7 L 66.2 53.7 L 66.2 39.5 L 49.7 39.5 L 49.7 56.6 L 37.7 62.6 L 37.7 39.5 L 13.6 39.5 L 13.6 35.5 L 37.7 35.5 L 37.7 13.5 L 49.7 15.5 L 52.7 17.5 L 49.7 19.3 L 49.7 35.5 L 66.2 35.5 L 66.2 13.5 Z M 119.5 41.4 L 119.5 59.1 L 160.9 59.1 L 160.9 41.4 Z " />
</g>
</svg>
