<svg xmlns="http://www.w3.org/2000/svg" xmlns:xlink="http://www.w3.org/1999/xlink" version="1.1" baseProfile="full" viewBox="0 0 200 200" width="200" height="200">
<g fill="black">
<path d="M 66.2 158.2 L 65.7 154.2 L 65.1 150.3 L 65.03679523468017 150.0190899848938 L 63.4 151.5 L 59.0 155.1 L 54.4 158.4 L 49.6 161.6 L 44.7 164.6 L 39.7 167.6 L 34.6 170.4 L 29.4 173.1 L 24.1 175.7 L 22.562839889526366 176.42507553100586 L 21.7 180.2 L 18.8 178.2 L 12.5 167.7 L 14.4 167.0 L 19.8 165.2 L 35.7 159.2 L 40.9 157.1 L 41.1 157.01372547149657 L 41.1 112.0 L 29.0 112.0 L 29.0 124.0 L 18.0 129.5 L 18.0 47.5 L 29.0 53.0 L 41.1 53.0 L 41.1 13.0 L 51.1 15.0 L 53.6 17.0 L 51.1 18.66666669845581 L 51.1 53.0 L 63.2 53.0 L 68.7 48.0 L 79.2 57.0 L 74.2 60.5 L 74.2 112.0 L 63.2 117.5 L 63.2 112.0 L 51.1 112.0 L 51.1 152.74230766296387 L 51.2 152.7 L 61.4 148.3 L 64.3792860031128 147.09682683944703 L 64.2 146.3 L 63.1 142.4 L 61.8 138.4 L 60.4 134.4 L 58.8 130.3 L 56.9 126.3 L 58.3 125.2 L 61.5 128.5 L 64.6 132.0 L 67.3 135.6 L 69.7 139.5 L 71.8 143.5 L 73.7 147.7 L 75.3 152.0 L 76.6 156.4 L 77.6 160.9 L 78.4 165.6 L 76.9 169.9 L 72.8 171.9 L 68.5 170.4 L 66.4 166.3 L 66.4 162.3 Z M 165.4 166.8 L 160.4 161.4 L 155.6 155.8 L 151.2 149.9 L 147.1 143.7 L 143.4 137.2 L 140.1 130.4 L 137.3 123.3 L 136.5 120.60909090042114 L 136.5 182.2 L 128.5 186.2 L 128.5 129.8333333015442 L 126.9 132.5 L 122.2 139.7 L 117.1 146.5 L 111.8 152.9 L 106.1 158.8 L 100.1 164.4 L 93.8 169.5 L 87.1 174.1 L 80.1 178.1 L 79.0 176.6 L 84.8 171.1 L 90.2 165.5 L 95.5 159.7 L 100.5 153.8 L 105.2 147.5 L 109.6 141.0 L 113.7 134.3 L 117.6 127.2 L 121.2 119.8 L 122.55384616851806 116.6 L 89.4 116.6 L 89.4 112.6 L 128.5 112.6 L 128.5 81.4 L 80.2 81.4 L 80.2 77.4 L 128.5 77.4 L 128.5 51.7 L 136.5 53.7 L 138.5 55.7 L 136.5 57.2 L 136.5 77.4 L 162.7 77.4 L 172.7 67.4 L 184.7 77.4 L 184.7 81.4 L 136.5 81.4 L 136.5 112.6 L 153.5 112.6 L 163.5 102.6 L 175.5 112.6 L 175.5 116.6 L 137.73333330154418 116.6 L 141.0 121.5 L 145.3 127.5 L 149.5 133.3 L 153.9 138.8 L 158.5 144.1 L 163.2 149.0 L 168.2 153.6 L 173.3 158.0 L 178.7 162.1 L 184.3 165.9 L 187.6 168.2 L 176.6 176.6 L 170.9 171.8 Z M 29.0 57.0 L 29.0 108.0 L 41.1 108.0 L 41.1 57.0 Z M 51.1 57.0 L 51.1 108.0 L 63.2 108.0 L 63.2 57.0 Z M 154.7 14.8 L 157.2 16.8 L 154.7 18.46666669845581 L 154.7 33.5 L 164.0 33.5 L 174.0 23.5 L 186.0 33.5 L 186.0 37.5 L 154.7 37.5 L 154.7 53.9 L 144.7 58.9 L 144.7 37.5 L 120.2 37.5 L 120.2 53.9 L 110.2 58.9 L 110.2 37.5 L 78.9 37.5 L 78.9 33.5 L 110.2 33.5 L 110.2 12.8 L 120.2 14.8 L 122.7 16.8 L 120.2 18.46666669845581 L 120.2 33.5 L 144.7 33.5 L 144.7 12.8 Z " />
</g>
</svg>
