<svg xmlns="http://www.w3.org/2000/svg" xmlns:xlink="http://www.w3.org/1999/xlink" version="1.1" baseProfile="full" viewBox="0 0 200 200" width="200" height="200">
<g fill="black">
<path d="M 95.0 177.0 L 105.0 177.0 L 106.2 176.9 L 107.1 176.7 L 107.7 176.5 L 108.1 176.4 L 108.2 176.2 L 108.4 176.0 L 108.6 175.7 L 108.8 175.1 L 108.9 174.2 L 109.0 173.0 L 109.0 150.0 L 87.3 150.0 L 87.3 183.0 L 75.3 189.0 L 75.3 94.0 L 87.3 100.0 L 109.0 100.0 L 115.0 95.0 L 126.0 104.0 L 121.0 108.0 L 121.0 173.0 L 120.9 175.5 L 120.4 178.0 L 119.6 180.4 L 118.4 182.7 L 116.7 184.7 L 114.7 186.3 L 112.5 187.6 L 110.0 188.4 L 107.6 188.8 L 105.0 189.0 L 105.0 183.0 L 95.0 180.0 Z M 56.3 131.8 L 55.0 129.0 L 53.5 126.1 L 51.8 123.2 L 49.9 120.3 L 47.8 117.3 L 45.4 114.3 L 45.2 114.04166669845581 L 45.2 183.0 L 33.2 189.0 L 33.2 111.3921875 L 30.3 114.7 L 23.4 121.7 L 16.1 128.4 L 8.3 134.6 L 7.0 133.3 L 13.4 125.7 L 19.4 118.2 L 25.2 110.6 L 30.6 102.9 L 33.2 98.84399995803832 L 33.2 98.0 L 33.741025638580325 98.0 L 35.6 95.1 L 40.3 87.1 L 44.6 79.0 L 48.5 70.8 L 52.1 62.4 L 53.686046504974364 58.0 L 11.2 58.0 L 11.2 54.0 L 54.9 54.0 L 60.9 49.0 L 71.9 58.0 L 66.9 61.0 L 64.78037385940551 61.88317756652832 L 62.5 66.9 L 58.2 75.5 L 53.4 83.9 L 48.2 92.0 L 43.9692307472229 98.0 L 45.2 98.0 L 45.2 109.1222222328186 L 48.4 110.9 L 49.836101055145264 111.87148017883301 L 50.4 111.0 L 52.0 107.6 L 53.5 104.5 L 55.0 101.5 L 56.2 98.8 L 57.3 96.3 L 58.2 93.9 L 59.0 91.8 L 59.5 90.0 L 59.673097133636475 89.26433696746827 L 59.5 89.2 L 59.89452056884765 88.3232876777649 L 59.9 88.3 L 59.904130363464354 88.30193252563477 L 60.4 87.2 L 70.8 93.4 L 72.6 96.5 L 67.91257858276367 96.98490562438965 L 67.9 97.0 L 66.3 98.9 L 64.5 100.9 L 62.5 103.1 L 60.3 105.3 L 57.9 107.6 L 55.3 110.1 L 52.4 112.6 L 51.824046516418456 113.21861667633057 L 54.9 115.6 L 57.8 118.1 L 60.5 120.8 L 63.1 123.6 L 65.4 126.6 L 67.5 129.6 L 69.4 132.8 L 69.4 137.4 L 66.2 140.7 L 61.7 140.7 L 58.4 137.6 L 57.4 134.7 Z M 137.8 177.5 L 147.8 177.5 L 148.7 177.4 L 149.4 177.3 L 150.0 177.0 L 150.4 176.6 L 150.6 176.1 L 150.8 175.4 L 151.0 174.3 L 151.0 130.0 L 132.0 130.0 L 132.0 126.0 L 151.0 126.0 L 151.0 99.0 L 126.2 99.0 L 126.2 95.0 L 151.0 95.0 L 151.0 68.0 L 136.7 68.0 L 136.7 66.14827585220337 L 135.8 67.7 L 132.7 72.3 L 129.3 76.4 L 127.7 75.5 L 129.3 70.5 L 131.0 65.4 L 132.6 60.1 L 134.3 54.6 L 135.8 48.9 L 137.3 42.8 L 138.7 36.5 L 140.0 29.9 L 141.2 23.0 L 142.14651165008544 16.804651165008544 L 142.1 16.8 L 142.6 13.9 L 154.1 18.0 L 156.7 20.5 L 153.16343441009522 21.85032501220703 L 152.3 25.4 L 150.508571434021 32.0 L 163.4 32.0 L 169.4 27.0 L 180.4 36.0 L 175.4 39.0 L 173.03021583557128 39.98741006851196 L 172.3 41.5 L 170.7 44.4 L 169.1 47.4 L 167.4 50.4 L 165.6 53.5 L 163.7 56.6 L 161.7 59.8 L 159.4 63.0 L 158.76363639831544 64.0 L 172.0 64.0 L 177.5 59.0 L 188.0 68.0 L 183.0 71.5 L 183.0 92.46666669845581 L 185.6 89.0 L 191.6 95.0 L 191.6 99.0 L 183.0 99.0 L 183.0 136.0 L 172.0 141.5 L 172.0 130.0 L 162.0 130.0 L 162.0 173.0 L 161.9 175.4 L 161.5 177.7 L 160.9 180.0 L 159.9 182.1 L 158.5 184.1 L 156.7 185.7 L 154.7 187.0 L 152.4 187.8 L 150.1 188.3 L 147.8 188.5 L 147.8 183.0 L 137.8 180.2 Z M 87.3 127.0 L 87.3 146.0 L 109.0 146.0 L 109.0 127.0 Z M 162.0 99.0 L 162.0 126.0 L 172.0 126.0 L 172.0 99.0 Z M 87.3 104.0 L 87.3 123.0 L 109.0 123.0 L 109.0 104.0 Z M 162.0 68.0 L 162.0 95.0 L 172.0 95.0 L 172.0 68.0 Z M 69.5 81.0 L 92.1 81.0 L 92.1 62.0 L 75.7 62.0 L 75.7 58.0 L 92.1 58.0 L 92.1 39.0 L 73.1 39.0 L 73.1 35.0 L 92.1 35.0 L 92.1 13.0 L 104.1 15.0 L 107.1 17.0 L 104.1 18.8 L 104.1 35.0 L 108.9777777671814 35.0 L 115.2 28.0 L 123.2 35.0 L 123.2 39.0 L 104.1 39.0 L 104.1 58.0 L 106.3777777671814 58.0 L 112.6 51.0 L 120.6 58.0 L 120.6 62.0 L 104.1 62.0 L 104.1 81.0 L 108.51818180084229 81.0 L 116.7 72.0 L 126.7 81.0 L 126.7 85.0 L 69.5 85.0 Z M 149.32537317276 36.0 L 148.4 39.1 L 146.2 45.5 L 143.9 51.5 L 141.4 57.3 L 138.7 62.7 L 137.9460000038147 64.0 L 156.1631579399109 64.0 L 156.8 61.8 L 157.6 58.0 L 158.5 54.4 L 159.4 50.9 L 160.2 47.5 L 161.0 44.2 L 161.8 41.0 L 162.5 37.9 L 162.8800000190735 36.0 Z M 37.6 33.4 L 36.8 30.7 L 35.9 28.1 L 34.8 25.6 L 33.5 23.0 L 32.1 20.5 L 30.6 18.0 L 28.9 15.5 L 26.8 13.3 L 27.9 11.8 L 30.6 13.5 L 33.5 15.0 L 36.1 16.9 L 38.7 18.9 L 41.0 21.2 L 43.2 23.7 L 45.2 26.3 L 47.1 29.1 L 48.8 32.1 L 50.3 35.3 L 49.8 39.8 L 46.3 42.8 L 41.8 42.3 L 38.8 38.9 L 38.3 36.1 Z " />
</g>
</svg>
