<svg xmlns="http://www.w3.org/2000/svg" xmlns:xlink="http://www.w3.org/1999/xlink" version="1.1" baseProfile="full" viewBox="0 0 200 200" width="200" height="200">
<g fill="black">
<path d="M 51.4 130.4 L 50.4 127.6 L 49.3 124.8 L 48.1 122.0 L 46.6 119.2 L 45.1 116.3 L 44.6 115.4944444656372 L 44.6 181.2 L 32.6 187.2 L 32.6 112.49245281219483 L 32.1 113.2 L 26.5 120.3 L 20.4 127.1 L 13.8 133.5 L 12.5 132.4 L 17.4 124.8 L 22.1 117.2 L 26.6 109.6 L 30.9 101.8 L 32.6 98.48500003814698 L 32.6 96.5 L 33.61794872283936 96.5 L 34.9 94.0 L 38.6 86.0 L 42.0 77.8 L 45.1 69.5 L 47.9 61.0 L 49.32441864013672 56.1 L 16.0 56.1 L 16.0 52.1 L 32.6 52.1 L 32.6 12.8 L 44.6 14.8 L 47.6 16.8 L 44.6 18.6 L 44.6 52.1 L 50.1 52.1 L 56.1 47.1 L 67.1 56.1 L 62.1 59.1 L 60.3938325881958 59.81090307235718 L 58.6 64.8 L 55.0 73.4 L 51.1 81.9 L 46.9 90.1 L 43.17341775894165 96.5 L 44.6 96.5 L 44.6 109.23333330154419 L 46.5 110.5 L 47.134960651397705 110.99889764785766 L 47.4 110.5 L 48.6 107.2 L 49.7 104.1 L 50.7 101.3 L 51.6 98.6 L 52.4 96.1 L 53.0 93.9 L 53.5 91.8 L 53.9 90.0 L 53.97733888626099 89.38128900527954 L 53.7 89.3 L 54.6 87.0 L 65.3 92.7 L 67.4 95.6 L 62.72636651992798 96.41993570327759 L 61.4 98.1 L 59.9 100.1 L 58.2 102.2 L 56.3 104.5 L 54.2 106.8 L 52.0 109.3 L 49.5 111.8 L 48.99753084182739 112.4623456954956 L 49.3 112.7 L 52.0 115.1 L 54.4 117.7 L 56.7 120.3 L 58.8 123.1 L 60.8 126.0 L 62.6 129.0 L 64.2 132.1 L 63.9 136.6 L 60.5 139.7 L 55.9 139.4 L 52.8 136.0 L 52.2 133.2 Z M 107.9 103.2 L 107.85030059814453 102.91008682250977 L 104.5 104.8 L 100.4 106.8 L 99.6 107.1619047164917 L 99.6 181.0 L 87.6 187.0 L 87.6 129.65 L 85.45841579437256 130.72079210281373 L 85.2 132.3 L 84.2 137.8 L 82.9 143.2 L 81.5 148.5 L 79.8 153.7 L 77.9 158.9 L 75.8 164.0 L 73.4 169.0 L 70.7 173.8 L 67.6 178.4 L 65.9 177.7 L 67.2 172.3 L 68.4 167.1 L 69.5 161.9 L 70.6 156.8 L 71.6 151.6 L 72.4 146.5 L 73.0 141.3 L 73.6 136.2 L 73.9 131.0 L 74.0615385055542 126.8 L 74.0 126.8 L 74.3 123.6 L 86.1 126.8 L 87.6 127.97857141494751 L 87.6 111.93409090042114 L 83.3 113.4 L 78.9 114.7 L 74.4 116.0 L 73.98068180084229 116.10249996185303 L 72.3 119.8 L 69.9 117.1 L 65.9 105.6 L 67.9 105.3 L 76.7 104.3 L 78.61957950592041 104.03823919296265 L 79.9 100.7 L 82.8 93.5 L 88.8 79.3 L 91.7 72.2 L 94.7 65.1 L 97.6 57.9 L 100.5 50.8 L 103.3 43.6 L 105.71461849212646 37.30474462509155 L 105.7 37.3 L 105.96341466903687 36.65609760284424 L 106.1 36.3 L 106.10773830413818 36.30330638885498 L 106.6 35.1 L 117.1 41.0 L 119.1 44.0 L 115.42033281326295 44.5075403213501 L 113.7 48.1 L 110.3 55.1 L 106.7 62.1 L 103.1 69.0 L 99.4 75.9 L 95.6 82.7 L 91.6 89.4 L 87.6 96.0 L 83.3 102.5 L 82.57398271560669 103.49432802200317 L 85.4 103.1 L 89.8 102.4 L 94.1 101.6 L 98.5 100.9 L 102.8 100.1 L 107.24015197753906 99.40930967330932 L 106.6 96.3 L 105.8 93.0 L 104.9 89.8 L 103.9 86.7 L 101.7 80.7 L 100.2 77.9 L 101.6 76.8 L 104.0 79.0 L 106.5 81.3 L 108.8 83.9 L 110.9 86.8 L 112.9 89.9 L 114.8 93.2 L 116.5 96.7 L 118.0 100.4 L 119.4 104.2 L 120.7 108.3 L 119.7 112.8 L 115.9 115.3 L 111.4 114.4 L 108.9 110.6 L 108.5 106.8 Z M 135.0 115.1 L 169.3 115.1 L 175.3 110.1 L 186.3 119.1 L 181.3 123.1 L 181.3 173.4 L 169.3 179.4 L 169.3 167.4 L 135.0 167.4 L 135.0 179.4 L 123.0 185.4 L 123.0 109.1 Z M 135.0 119.1 L 135.0 163.4 L 169.3 163.4 L 169.3 119.1 Z M 107.0 145.1 L 106.4 141.4 L 105.7 137.8 L 104.8 134.4 L 103.9 131.1 L 103.0 127.9 L 102.0 124.7 L 100.7 121.7 L 102.1 120.6 L 106.9 125.6 L 109.2 128.5 L 111.2 131.7 L 113.1 135.1 L 114.8 138.7 L 116.4 142.6 L 117.8 146.6 L 119.1 150.8 L 120.2 155.3 L 119.1 159.7 L 115.2 162.1 L 110.8 161.0 L 108.4 157.1 L 107.6 148.9 Z M 121.9 86.5 L 144.9 86.5 L 144.9 51.7 L 118.7 51.7 L 118.7 47.7 L 144.9 47.7 L 144.9 14.9 L 156.9 16.9 L 159.9 18.9 L 156.9 20.7 L 156.9 47.7 L 165.6 47.7 L 175.6 37.7 L 187.6 47.7 L 187.6 51.7 L 156.9 51.7 L 156.9 86.5 L 162.4 86.5 L 172.4 76.5 L 184.4 86.5 L 184.4 90.5 L 121.9 90.5 Z M 77.9 67.1 L 77.1 64.1 L 76.1 61.2 L 75.0 58.4 L 73.7 55.6 L 72.3 52.9 L 69.1 47.5 L 67.0 45.1 L 68.1 43.7 L 70.9 45.5 L 73.8 47.3 L 76.5 49.4 L 78.5923994064331 51.2509687423706 L 78.9 50.2 L 80.0 46.0 L 81.2 42.0 L 82.5 37.9 L 83.7 33.9 L 85.0 29.8 L 86.2 25.8 L 87.5 21.8 L 88.7 17.8 L 89.55438566207886 14.615471744537354 L 89.5 14.6 L 89.75600004196167 13.864000034332275 L 89.8 13.7 L 89.81155023574829 13.704293060302735 L 90.3 12.3 L 101.1 17.9 L 103.2 20.8 L 99.32956647872925 21.53404769897461 L 97.3 25.7 L 95.3 29.6 L 93.3 33.4 L 91.2 37.1 L 86.8 44.5 L 84.4 48.1 L 81.8 51.6 L 80.55429553985596 53.34398622512818 L 81.4 54.3 L 83.6 57.1 L 85.7 60.0 L 87.5 63.2 L 89.2 66.5 L 90.7 70.1 L 90.1 74.6 L 86.6 77.5 L 82.0 76.9 L 79.2 73.3 L 78.6 70.2 Z " />
</g>
</svg>
