<svg xmlns="http://www.w3.org/2000/svg" xmlns:xlink="http://www.w3.org/1999/xlink" version="1.1" baseProfile="full" viewBox="0 0 200 200" width="200" height="200">
<g fill="black">
<path d="M 152.6 175.9 L 166.6 175.9 L 167.8 175.8 L 168.7 175.7 L 169.3 175.5 L 169.6 175.3 L 169.8 175.2 L 170.0 175.0 L 170.1 174.6 L 170.3 174.0 L 170.5 173.1 L 170.6 171.9 L 170.6 59.8 L 182.6 61.8 L 185.6 63.8 L 182.6 65.6 L 182.6 171.9 L 182.4 174.5 L 182.0 177.0 L 181.2 179.4 L 179.9 181.6 L 178.3 183.6 L 176.3 185.3 L 174.0 186.5 L 171.6 187.3 L 169.1 187.8 L 166.6 187.9 L 166.6 181.9 L 152.6 178.9 Z M 126.6 135.6 L 125.5 134.0 L 124.2 132.3 L 122.8 130.6 L 121.2 128.9 L 119.4 127.1 L 117.5 125.4 L 116.9 124.88571424484253 L 116.9 181.8 L 104.9 187.8 L 104.9 133.5 L 101.8 139.6 L 98.4 145.5 L 94.7 151.1 L 90.7 156.4 L 86.3 161.3 L 81.6 165.8 L 80.2 164.7 L 83.3 159.1 L 86.2 153.5 L 89.0 147.8 L 91.7 142.0 L 94.1 136.1 L 96.3 130.0 L 98.2 123.7 L 100.0 117.3 L 101.5 110.6 L 102.07272729873657 107.1 L 80.9 107.1 L 80.9 103.1 L 104.9 103.1 L 104.9 80.53684206008911 L 102.5 81.0 L 96.3 82.0 L 89.6 82.8 L 82.6 83.5 L 82.2 81.7 L 88.8 79.1 L 95.0 76.8 L 100.8 74.7 L 106.1 72.6 L 111.1 70.7 L 115.6 68.8 L 119.6 66.9 L 123.2 65.2 L 126.3 63.4 L 128.02509508132934 62.3384030342102 L 128.0 62.3 L 128.03402776718139 62.33290596008301 L 128.9 61.8 L 130.43518362045288 64.65490283966065 L 137.1 71.1 L 137.2 74.4 L 133.47755098342896 72.84897956848144 L 131.1 73.8 L 127.3 75.1 L 123.1 76.3 L 118.6 77.6 L 116.9 78.0079999923706 L 116.9 103.1 L 120.41818180084229 103.1 L 128.6 94.1 L 138.6 103.1 L 138.6 107.1 L 116.9 107.1 L 116.9 121.50714282989502 L 119.2 122.0 L 121.9 122.7 L 124.5 123.5 L 127.0 124.6 L 129.4 125.7 L 131.7 127.0 L 133.9 128.4 L 135.9 130.0 L 137.8 131.7 L 139.0 136.1 L 136.7 140.1 L 132.3 141.2 L 128.3 138.9 L 127.5 137.3 Z M 67.3 164.6 L 66.8 160.4 L 66.1 156.3 L 66.02239217758179 155.9378303527832 L 64.3 157.5 L 59.7 161.2 L 54.9 164.6 L 50.0 167.9 L 45.0 171.1 L 39.8 174.1 L 34.5 177.0 L 29.2 179.8 L 23.7 182.5 L 21.903757190704347 183.34913291931153 L 21.1 187.1 L 18.2 185.1 L 11.9 174.7 L 13.8 173.9 L 19.3 172.0 L 24.9 170.0 L 30.3 167.9 L 41.1 163.5 L 41.4 163.36981134414674 L 41.4 116.4 L 28.6 116.4 L 28.6 128.4 L 17.6 133.9 L 17.6 49.7 L 28.6 55.2 L 41.4 55.2 L 41.4 13.5 L 51.4 15.5 L 53.9 17.5 L 51.4 19.16666669845581 L 51.4 55.2 L 64.3 55.2 L 69.8 50.2 L 80.3 59.2 L 75.3 62.7 L 75.3 116.4 L 64.3 121.9 L 64.3 116.4 L 51.4 116.4 L 51.4 159.03018865585327 L 62.3 154.3 L 65.40072994232177 153.03673963546754 L 65.2 152.1 L 64.1 148.0 L 62.7 143.9 L 61.2 139.8 L 59.5 135.5 L 57.6 131.3 L 59.0 130.2 L 62.4 133.6 L 65.5 137.2 L 68.3 141.1 L 70.8 145.1 L 72.9 149.3 L 74.8 153.7 L 76.4 158.1 L 77.8 162.8 L 78.8 167.5 L 79.6 172.3 L 78.1 176.6 L 74.0 178.7 L 69.7 177.2 L 67.6 173.1 L 67.6 168.8 Z M 156.7 72.7 L 159.7 74.7 L 156.7 76.5 L 156.7 157.2 L 144.7 163.2 L 144.7 70.7 Z M 28.6 59.2 L 28.6 112.4 L 41.4 112.4 L 41.4 59.2 Z M 51.4 59.2 L 51.4 112.4 L 64.3 112.4 L 64.3 59.2 Z M 157.7 14.5 L 160.7 16.5 L 157.7 18.3 L 157.7 34.7 L 166.0 34.7 L 176.0 24.7 L 188.0 34.7 L 188.0 38.7 L 157.7 38.7 L 157.7 55.9 L 145.7 61.9 L 145.7 38.7 L 123.2 38.7 L 123.2 55.9 L 111.2 61.9 L 111.2 38.7 L 80.9 38.7 L 80.9 34.7 L 111.2 34.7 L 111.2 12.5 L 123.2 14.5 L 126.2 16.5 L 123.2 18.3 L 123.2 34.7 L 145.7 34.7 L 145.7 12.5 Z " />
</g>
</svg>
