<svg xmlns="http://www.w3.org/2000/svg" xmlns:xlink="http://www.w3.org/1999/xlink" version="1.1" baseProfile="full" viewBox="0 0 200 200" width="200" height="200">
<g fill="black">
<path d="M 155.6 175.4 L 164.8 175.4 L 165.7 175.2 L 166.3 175.0 L 166.6 174.8 L 166.8 174.7 L 167.0 174.5 L 167.3 173.6 L 167.5 172.7 L 167.6 171.4 L 167.6 150.5 L 155.0 150.5 L 155.0 179.4 L 144.0 184.9 L 144.0 150.5 L 133.1 150.5 L 133.1 179.7 L 123.1 184.7 L 123.1 150.5 L 110.8 150.5 L 110.8 182.5 L 99.8 188.0 L 99.8 137.2545454978943 L 99.7 138.0 L 98.3 145.7 L 96.4 152.8 L 94.2 159.3 L 91.7 165.3 L 88.7 170.7 L 85.3 175.5 L 81.5 179.6 L 77.3 182.8 L 76.1 181.5 L 78.6 177.2 L 80.8 172.7 L 82.8 167.8 L 84.6 162.5 L 86.1 156.8 L 87.4 150.6 L 88.4 143.9 L 89.1 136.8 L 89.4 129.0 L 89.6 120.8 L 89.6 73.2 L 101.6 79.2 L 165.0 79.2 L 171.0 74.2 L 182.0 83.2 L 177.0 87.2 L 177.0 104.6 L 165.0 110.6 L 165.0 104.6 L 101.6 104.6 L 101.6 114.4 L 110.8 119.0 L 167.6 119.0 L 173.6 114.0 L 184.6 123.0 L 179.6 127.0 L 179.6 171.4 L 179.4 174.0 L 179.0 176.5 L 178.2 178.9 L 176.9 181.1 L 175.3 183.2 L 173.3 184.8 L 171.0 186.0 L 168.6 186.8 L 166.1 187.3 L 163.6 187.4 L 163.6 181.4 L 155.6 178.4 Z M 65.3 158.2 L 64.9 154.2 L 64.2 150.3 L 64.1679012298584 150.139506149292 L 62.7 151.5 L 58.3 155.1 L 53.7 158.4 L 49.1 161.6 L 39.3 167.6 L 34.3 170.4 L 29.2 173.1 L 23.9 175.7 L 22.414092922210692 176.40089950561523 L 21.6 180.2 L 18.6 178.2 L 12.4 167.7 L 14.2 167.0 L 19.6 165.2 L 24.8 163.2 L 30.1 161.3 L 35.2 159.2 L 40.4 157.1 L 40.5 157.05600004196168 L 40.5 112.0 L 28.7 112.0 L 28.7 124.0 L 17.7 129.5 L 17.7 47.5 L 28.7 53.0 L 40.5 53.0 L 40.5 13.0 L 50.5 15.0 L 53.0 17.0 L 50.5 18.66666669845581 L 50.5 53.0 L 62.4 53.0 L 67.9 48.0 L 78.4 57.0 L 73.4 60.5 L 73.4 112.0 L 62.4 117.5 L 62.4 112.0 L 50.5 112.0 L 50.5 152.7 L 60.7 148.3 L 63.56413040161133 147.1206521987915 L 63.4 146.3 L 62.3 142.3 L 61.0 138.4 L 59.6 134.4 L 58.0 130.3 L 56.2 126.3 L 57.6 125.2 L 60.8 128.5 L 63.9 132.0 L 66.5 135.6 L 68.9 139.5 L 71.0 143.5 L 72.9 147.7 L 74.4 152.0 L 75.7 156.4 L 76.8 160.9 L 77.5 165.6 L 76.0 169.9 L 71.9 171.9 L 67.6 170.4 L 65.5 166.3 L 65.5 162.3 Z M 110.8 123.0 L 110.8 146.5 L 123.1 146.5 L 123.1 123.0 Z M 133.1 123.0 L 133.1 146.5 L 144.0 146.5 L 144.0 123.0 Z M 155.0 123.0 L 155.0 146.5 L 167.6 146.5 L 167.6 123.0 Z M 28.7 57.0 L 28.7 108.0 L 40.5 108.0 L 40.5 57.0 Z M 50.5 57.0 L 50.5 108.0 L 62.4 108.0 L 62.4 57.0 Z M 101.6 83.2 L 101.6 100.6 L 165.0 100.6 L 165.0 83.2 Z M 185.9 61.6 L 185.9 65.6 L 82.6 65.6 L 82.6 61.6 L 167.71818180084227 61.6 L 175.9 52.6 Z M 112.6 46.2 L 112.2 44.6 L 111.5 42.9 L 110.7 41.2 L 109.7 39.4 L 108.5 37.5 L 107.2 35.6 L 105.6 33.6 L 104.475 32.7 L 103.1069766998291 32.7 L 101.6 35.4 L 99.0 39.5 L 96.2 43.5 L 93.0 47.2 L 89.6 50.8 L 85.9 54.0 L 81.9 57.1 L 80.6 55.8 L 83.2 51.7 L 85.6 47.6 L 87.9 43.6 L 89.9 39.6 L 91.8 35.5 L 93.4 31.4 L 94.8 27.3 L 96.0 23.1 L 97.0 18.9 L 97.61521415710449 15.516322040557862 L 97.5 15.5 L 98.2 12.8 L 109.5 17.2 L 111.9 19.8 L 108.23333330154419 21.0 L 107.9 22.0 L 106.1 26.6 L 105.11999998092651 28.7 L 120.41818180084229 28.7 L 128.6 19.7 L 138.6 28.7 L 138.6 32.7 L 109.61818180084228 32.7 L 111.8 33.7 L 114.0 34.9 L 116.1 36.3 L 118.0 37.8 L 119.8 39.4 L 121.5 41.2 L 123.0 43.1 L 124.3 45.1 L 124.1 49.7 L 120.7 52.8 L 116.2 52.6 L 113.0 49.2 L 112.9 47.8 Z M 160.8 46.2 L 160.4 44.6 L 159.7 42.9 L 158.9 41.2 L 157.9 39.4 L 156.7 37.5 L 155.4 35.6 L 153.8 33.6 L 152.675 32.7 L 150.8707317352295 32.7 L 149.7 34.7 L 147.1 38.6 L 144.2 42.2 L 141.1 45.6 L 137.7 48.8 L 134.0 51.6 L 130.1 54.2 L 128.9 52.8 L 131.6 49.2 L 134.0 45.5 L 136.2 41.8 L 138.2 38.1 L 140.1 34.4 L 141.7 30.6 L 143.1 26.7 L 144.2 22.7 L 145.2 18.7 L 145.806622505188 15.515231800079345 L 145.7 15.5 L 146.4 12.7 L 157.6 17.2 L 160.1 19.9 L 156.3462203025818 21.128509712219238 L 156.1 21.9 L 154.2 26.4 L 153.05 28.7 L 169.21818180084227 28.7 L 177.4 19.7 L 187.4 28.7 L 187.4 32.7 L 157.8181818008423 32.7 L 160.0 33.7 L 162.2 34.9 L 164.3 36.3 L 166.2 37.8 L 168.0 39.4 L 169.7 41.2 L 171.2 43.1 L 172.5 45.1 L 172.2 49.7 L 168.9 52.8 L 164.4 52.6 L 161.2 49.2 L 161.1 47.8 Z " />
</g>
</svg>
