<svg xmlns="http://www.w3.org/2000/svg" xmlns:xlink="http://www.w3.org/1999/xlink" version="1.1" baseProfile="full" viewBox="0 0 200 200" width="200" height="200">
<g fill="black">
<path d="M 114.8 124.1 L 113.8 121.3 L 112.7 118.5 L 111.5 115.7 L 110.1 112.8 L 108.6 110.0 L 108.2 109.31764707565307 L 108.2 182.1 L 96.2 188.1 L 96.2 113.26730766296387 L 95.9 113.7 L 90.3 120.9 L 84.2 127.7 L 77.8 134.2 L 76.4 133.0 L 81.2 125.4 L 85.9 117.8 L 90.3 110.1 L 94.5 102.4 L 96.2 99.04250001907349 L 96.2 97.0 L 97.23417720794677 97.0 L 98.5 94.5 L 102.1 86.4 L 105.5 78.2 L 108.5 69.9 L 111.3 61.4 L 112.73678159713745 56.4 L 79.9 56.4 L 79.9 52.4 L 96.2 52.4 L 96.2 12.8 L 108.2 14.8 L 111.2 16.8 L 108.2 18.6 L 108.2 52.4 L 113.5 52.4 L 119.5 47.4 L 130.5 56.4 L 125.5 59.4 L 123.77043476104737 60.120652198791504 L 122.0 65.1 L 118.5 73.8 L 114.7 82.3 L 110.5 90.5 L 106.7625 97.0 L 108.2 97.0 L 108.2 102.93999996185303 L 110.0 104.2 L 112.8 106.4 L 115.4 108.8 L 117.9 111.4 L 120.2 114.0 L 122.3 116.8 L 124.2 119.7 L 126.0 122.7 L 127.5 125.8 L 127.2 130.4 L 123.8 133.5 L 119.3 133.1 L 116.2 129.8 L 115.6 126.9 Z M 64.8 164.6 L 64.4 160.4 L 63.7 156.2 L 63.69478178024292 156.17325639724731 L 62.3 157.5 L 58.0 161.2 L 53.5 164.6 L 48.8 167.9 L 44.1 171.0 L 39.2 174.1 L 34.2 177.0 L 29.1 179.8 L 22.36666669845581 183.1666666984558 L 21.6 187.0 L 18.7 185.0 L 12.2 174.7 L 14.0 173.9 L 19.3 172.0 L 24.6 170.0 L 29.8 167.9 L 34.9 165.8 L 40.0 163.6 L 40.3 163.46470584869385 L 40.3 116.4 L 28.6 116.4 L 28.6 128.4 L 17.6 133.9 L 17.6 49.7 L 28.6 55.2 L 40.3 55.2 L 40.3 13.5 L 50.3 15.5 L 52.8 17.5 L 50.3 19.16666669845581 L 50.3 55.2 L 61.9 55.2 L 67.4 50.2 L 77.9 59.2 L 72.9 62.7 L 72.9 116.4 L 61.9 121.9 L 61.9 116.4 L 50.3 116.4 L 50.3 158.90588235855103 L 55.2 156.6 L 60.3 154.3 L 63.094089126586915 153.09470663070678 L 62.9 152.1 L 61.8 148.0 L 60.6 143.8 L 59.2 139.7 L 57.6 135.5 L 55.8 131.3 L 57.3 130.3 L 60.5 133.7 L 63.5 137.3 L 66.2 141.2 L 68.6 145.2 L 70.7 149.4 L 72.5 153.7 L 74.0 158.2 L 75.3 162.8 L 76.3 167.5 L 77.1 172.4 L 75.5 176.7 L 71.4 178.7 L 67.1 177.2 L 65.1 173.1 L 65.1 168.8 Z M 116.4 166.3 L 145.9 166.3 L 145.9 83.1 L 121.8 83.1 L 121.8 79.1 L 145.9 79.1 L 145.9 16.8 L 157.9 18.8 L 160.9 20.8 L 157.9 22.6 L 157.9 79.1 L 160.0 79.1 L 170.0 69.1 L 182.0 79.1 L 182.0 83.1 L 157.9 83.1 L 157.9 166.3 L 165.3 166.3 L 175.3 156.3 L 187.3 166.3 L 187.3 170.3 L 116.4 170.3 Z M 28.6 59.2 L 28.6 112.4 L 40.3 112.4 L 40.3 59.2 Z M 50.3 59.2 L 50.3 112.4 L 61.9 112.4 L 61.9 59.2 Z " />
</g>
</svg>
