<svg xmlns="http://www.w3.org/2000/svg" xmlns:xlink="http://www.w3.org/1999/xlink" version="1.1" baseProfile="full" viewBox="0 0 200 200" width="200" height="200">
<g fill="black">
<path d="M 58.8 130.8 L 57.6 128.0 L 56.2 125.1 L 54.6 122.3 L 52.9 119.4 L 50.9 116.5 L 48.9 113.7380952835083 L 48.9 181.2 L 36.9 187.2 L 36.9 110.73114757537842 L 34.7 113.4 L 28.3 120.5 L 21.3 127.2 L 13.8 133.6 L 12.6 132.3 L 18.5 124.7 L 24.1 117.0 L 29.5 109.4 L 34.6 101.6 L 36.9 97.7340425491333 L 36.9 96.5 L 37.63417720794678 96.5 L 39.3 93.7 L 43.7 85.7 L 47.7 77.5 L 51.4 69.2 L 54.7 60.8 L 56.32068967819214 56.1 L 16.5 56.1 L 16.5 52.1 L 36.9 52.1 L 36.9 12.8 L 48.9 14.8 L 51.9 16.8 L 48.9 18.6 L 48.9 52.1 L 57.4 52.1 L 63.4 47.1 L 74.4 56.1 L 69.4 59.1 L 67.45798416137696 59.90917329788208 L 65.3 65.1 L 61.2 73.7 L 56.7 82.2 L 51.8 90.3 L 47.692500019073485 96.5 L 48.9 96.5 L 48.9 108.64285717010497 L 51.8 110.3 L 52.96117563247681 111.12406015396118 L 53.4 110.4 L 54.9 107.0 L 56.3 103.9 L 57.6 101.1 L 58.8 98.4 L 59.8 95.9 L 60.6 93.6 L 61.3 91.5 L 61.8 89.7 L 61.9169753074646 89.07613172531128 L 61.7 89.0 L 62.6 86.9 L 73.1 93.0 L 75.0 96.0 L 70.34828281402588 96.56141414642335 L 68.8 98.4 L 67.0 100.4 L 65.1 102.5 L 63.0 104.7 L 60.7 107.0 L 58.2 109.4 L 55.5 111.9 L 54.936144542694095 112.52891569137573 L 57.9 114.9 L 60.7 117.4 L 63.3 120.0 L 65.7 122.8 L 67.9 125.7 L 69.9 128.7 L 71.7 131.8 L 71.7 136.4 L 68.5 139.7 L 63.9 139.6 L 60.6 136.4 L 59.8 133.6 Z M 138.1 175.0 L 159.4 175.0 L 160.3 174.8 L 160.9 174.6 L 161.2 174.4 L 161.4 174.3 L 161.5 174.1 L 161.7 173.8 L 161.9 173.2 L 162.1 172.3 L 162.1 125.8 L 129.4 125.8 L 129.4 121.8 L 162.1 121.8 L 162.1 96.5 L 174.1 98.5 L 177.1 100.5 L 174.1 102.3 L 174.1 121.8 L 177.0 121.8 L 181.5 115.8 L 187.5 121.8 L 187.5 125.8 L 174.1 125.8 L 174.1 171.0 L 174.0 173.6 L 173.5 176.1 L 172.7 178.5 L 171.5 180.8 L 169.9 182.8 L 167.8 184.4 L 165.6 185.6 L 163.2 186.5 L 160.7 186.9 L 158.1 187.0 L 158.1 181.0 L 138.1 178.0 Z M 117.0 171.7 L 115.5 168.9 L 114.67131977081299 167.40837564468384 L 113.2 168.5 L 109.8 170.7 L 106.3 172.8 L 102.6 174.9 L 98.7 176.9 L 90.5 180.9 L 85.48205881118774 183.18088235855103 L 84.5 187.0 L 81.7 184.9 L 75.8 174.2 L 77.7 173.6 L 79.6 173.06304349899293 L 79.6 96.4 L 91.6 102.4 L 116.2 102.4 L 122.2 97.4 L 133.2 106.4 L 128.2 110.4 L 128.2 143.2 L 116.2 149.2 L 116.2 143.2 L 91.6 143.2 L 91.6 169.648837184906 L 95.4 168.5 L 99.5 167.4 L 103.5 166.2 L 107.4 165.1 L 111.2 164.1 L 112.51139240264892 163.78101263046264 L 112.4 163.6 L 108.8 158.4 L 106.9 155.9 L 104.9 153.3 L 102.6 151.0 L 103.6 149.5 L 106.6 151.1 L 109.7 152.6 L 112.6 154.3 L 115.4 156.3 L 118.1 158.4 L 120.7 160.7 L 123.2 163.2 L 125.6 165.8 L 127.9 168.6 L 130.0 171.5 L 130.5 176.0 L 127.7 179.7 L 123.2 180.2 L 119.6 177.4 L 118.3 174.5 Z M 144.1 150.9 L 143.5 149.3 L 142.7 147.5 L 141.6 145.6 L 140.3 143.7 L 138.7 141.7 L 136.9 139.6 L 134.9 137.4 L 132.4 135.5 L 133.2 134.0 L 136.1 135.4 L 139.1 136.4 L 141.9 137.6 L 144.4 138.9 L 146.8 140.4 L 149.0 142.0 L 151.0 143.7 L 152.8 145.6 L 154.5 147.6 L 155.9 149.8 L 155.6 154.4 L 152.3 157.5 L 147.7 157.2 L 144.6 153.9 L 144.5 152.5 Z M 91.6 123.8 L 91.6 139.2 L 116.2 139.2 L 116.2 123.8 Z M 91.6 106.4 L 91.6 119.8 L 116.2 119.8 L 116.2 106.4 Z M 92.9 90.3 L 80.9 96.3 L 80.9 51.0 L 92.9 57.0 L 102.3 57.0 L 100.0 56.8 L 97.0 53.3 L 96.7 51.0 L 96.3 48.8 L 95.3 44.4 L 94.6 42.1 L 93.9 39.9 L 92.1 35.5 L 91.2 33.2 L 89.7 31.2 L 90.98786792755126 30.011198806762696 L 89.7 30.0 L 77.7 29.7 L 77.7 27.9 L 89.5 26.3 L 100.8 24.7 L 111.6 23.3 L 121.9 21.8 L 131.7 20.4 L 141.1 18.9 L 149.9 17.4 L 158.2 15.8 L 166.1 14.2 L 172.40877170562743 12.730834007263184 L 172.4 12.7 L 172.43132476806642 12.725581932067872 L 173.4 12.5 L 173.63567953109742 13.709138202667237 L 184.4 22.5 L 184.7 25.5 L 180.2838709831238 23.351612949371336 L 175.7 24.3 L 168.1 25.4 L 162.87450981140137 26.037254905700685 L 172.2 30.7 L 174.4 33.6 L 170.29099721908568 34.45013847351074 L 169.3 36.3 L 167.7 39.2 L 166.0 42.1 L 164.2 45.0 L 162.3 48.0 L 160.3 51.0 L 158.2 54.0 L 155.9 57.0 L 169.0 57.0 L 175.0 52.0 L 186.0 61.0 L 181.0 65.0 L 181.0 87.3 L 169.0 93.3 L 169.0 87.3 L 92.9 87.3 Z M 92.9 61.0 L 92.9 83.3 L 110.3 83.3 L 110.3 61.0 Z M 122.3 61.0 L 122.3 83.3 L 139.6 83.3 L 139.6 61.0 Z M 151.6 61.0 L 151.6 83.3 L 169.0 83.3 L 169.0 61.0 Z M 125.9 45.3 L 125.5 43.3 L 124.9 41.3 L 124.3 39.1 L 123.5 37.0 L 122.7 34.7 L 121.7 32.3 L 120.3 30.2 L 121.1049669265747 29.456953620910646 L 112.1 29.8 L 101.2 30.1 L 91.01356401443482 30.01142225265503 L 92.9 31.6 L 95.1 33.1 L 97.2 34.7 L 99.1 36.5 L 101.0 38.4 L 102.7 40.4 L 104.3 42.6 L 105.8 44.9 L 107.2 47.2 L 108.5 49.7 L 108.0 54.3 L 104.83448276519775 57.0 L 152.86666669845582 57.0 L 153.3 55.7 L 154.3 52.1 L 155.2 48.6 L 156.2 45.2 L 157.1 41.9 L 158.0 38.7 L 158.8 35.5 L 159.6 32.5 L 160.3 29.6 L 160.70783100128173 27.628816890716553 L 160.6 27.6 L 160.88085107803346 26.792553234100343 L 160.9 26.7 L 160.9116135597229 26.70411100387573 L 161.0668881416321 26.257696533203124 L 159.9 26.4 L 151.3 27.3 L 142.2 28.1 L 132.7 28.8 L 122.6 29.4 L 122.0445574760437 29.421159744262695 L 123.5 30.8 L 125.7 32.4 L 127.7 34.1 L 129.5 35.8 L 131.3 37.7 L 132.9 39.6 L 134.3 41.5 L 135.7 43.6 L 136.9 45.7 L 138.0 47.8 L 137.3 52.4 L 133.7 55.2 L 129.2 54.5 L 126.4 50.9 L 126.3 49.1 Z " />
</g>
</svg>
