<svg xmlns="http://www.w3.org/2000/svg" xmlns:xlink="http://www.w3.org/1999/xlink" version="1.1" baseProfile="full" viewBox="0 0 200 200" width="200" height="200">
<g fill="black">
<path d="M 64.8 164.6 L 64.4 160.4 L 63.7 156.2 L 63.69478178024292 156.17325639724731 L 62.3 157.5 L 58.0 161.2 L 53.5 164.6 L 48.8 167.9 L 44.1 171.0 L 39.2 174.1 L 34.2 177.0 L 29.1 179.8 L 22.36666669845581 183.1666666984558 L 21.6 187.0 L 18.7 185.0 L 12.2 174.7 L 14.0 173.9 L 19.3 172.0 L 24.6 170.0 L 29.8 167.9 L 34.9 165.8 L 40.0 163.6 L 40.3 163.46470584869385 L 40.3 116.4 L 28.6 116.4 L 28.6 128.4 L 17.6 133.9 L 17.6 49.7 L 28.6 55.2 L 40.3 55.2 L 40.3 13.5 L 50.3 15.5 L 52.8 17.5 L 50.3 19.16666669845581 L 50.3 55.2 L 61.9 55.2 L 67.4 50.2 L 77.9 59.2 L 72.9 62.7 L 72.9 116.4 L 61.9 121.9 L 61.9 116.4 L 50.3 116.4 L 50.3 158.90588235855103 L 55.2 156.6 L 60.3 154.3 L 63.094089126586915 153.09470663070678 L 62.9 152.1 L 61.8 148.0 L 60.6 143.8 L 59.2 139.7 L 57.6 135.5 L 55.8 131.3 L 57.3 130.3 L 60.5 133.7 L 63.5 137.3 L 66.2 141.2 L 68.6 145.2 L 70.7 149.4 L 72.5 153.7 L 74.0 158.2 L 75.3 162.8 L 76.3 167.5 L 77.1 172.4 L 75.5 176.7 L 71.4 178.7 L 67.1 177.2 L 65.1 173.1 L 65.1 168.8 Z M 125.3 137.9 L 124.2 135.6 L 123.0 133.3 L 121.5 130.9 L 119.9 128.5 L 118.1 126.1 L 116.9 124.6714285850525 L 116.9 180.9 L 104.9 186.9 L 104.9 133.6764705657959 L 103.3 137.3 L 99.8 144.7 L 96.0 151.6 L 92.0 158.0 L 87.7 164.0 L 83.1 169.5 L 78.2 174.4 L 76.8 173.3 L 80.0 167.3 L 83.1 161.2 L 86.2 154.8 L 89.2 148.2 L 92.0 141.2 L 94.7 133.9 L 97.2 126.2 L 99.6 118.2 L 101.8 109.8 L 102.96164379119872 104.5 L 78.7 104.5 L 78.7 100.5 L 104.9 100.5 L 104.9 84.4 L 116.9 86.4 L 119.9 88.4 L 116.9 90.2 L 116.9 100.5 L 119.11818180084228 100.5 L 127.3 91.5 L 137.3 100.5 L 137.3 104.5 L 116.9 104.5 L 116.9 119.603125 L 118.6 120.4 L 121.6 122.0 L 124.4 123.8 L 127.1 125.7 L 129.6 127.8 L 131.9 130.0 L 134.0 132.3 L 136.0 134.8 L 137.7 137.4 L 137.9 142.0 L 134.8 145.4 L 130.2 145.5 L 126.8 142.5 L 126.2 140.2 Z M 185.3 119.9 L 187.3 122.9 L 183.51949186325072 123.42144937515259 L 180.8 128.8 L 176.1 137.2 L 171.1 145.2 L 165.8 152.6 L 160.3 159.5 L 154.6 166.0 L 148.6 171.8 L 142.3 177.1 L 135.7 181.7 L 128.9 185.6 L 127.9 184.1 L 133.4 178.8 L 138.7 173.1 L 143.8 167.3 L 148.8 161.0 L 153.6 154.4 L 158.1 147.4 L 162.5 139.9 L 166.7 132.1 L 170.6 123.8 L 174.00985698699952 115.90348920822143 L 174.0 115.9 L 174.9 113.8 Z M 180.7 70.7 L 182.6 73.8 L 178.90936527252197 74.18178977966309 L 177.1 77.7 L 173.3 84.4 L 169.2 90.8 L 165.1 97.0 L 160.7 102.8 L 156.2 108.4 L 151.4 113.7 L 146.5 118.6 L 141.3 123.2 L 135.9 127.2 L 134.6 125.9 L 138.6 120.5 L 142.5 115.1 L 146.3 109.6 L 150.1 103.9 L 153.7 98.0 L 157.2 92.0 L 160.6 85.7 L 163.8 79.3 L 166.9 72.6 L 169.41886262893678 66.60684394836426 L 169.4 66.6 L 169.58518514633178 66.21111106872559 L 169.8 65.7 L 169.8234492301941 65.71075658798217 L 170.4 64.5 Z M 28.6 59.2 L 28.6 112.4 L 40.3 112.4 L 40.3 59.2 Z M 50.3 59.2 L 50.3 112.4 L 61.9 112.4 L 61.9 59.2 Z M 137.8 38.8 L 140.1 41.6 L 136.28521404266357 42.5369649887085 L 134.7 46.5 L 132.9 50.5 L 131.0 54.8 L 128.9 59.2 L 126.7 63.8 L 124.3 68.6 L 121.6 73.5 L 118.7 78.6 L 115.5 83.7 L 113.8 83.0 L 115.2 77.1 L 116.7 71.5 L 118.2 66.2 L 119.6 61.1 L 121.0 56.3 L 122.3 51.6 L 123.4 47.2 L 124.5 43.1 L 125.4 39.1 L 126.05408115386963 36.410999584197995 L 126.0 36.4 L 126.7 33.8 Z M 86.2 69.8 L 85.7 66.6 L 85.2 63.6 L 84.5 60.7 L 83.8 57.9 L 82.2 52.5 L 81.3 49.9 L 80.0 47.5 L 81.3 46.4 L 83.4 48.3 L 85.7 50.2 L 87.8 52.5 L 89.8 55.0 L 91.6 57.7 L 93.3 60.7 L 94.8 63.8 L 96.2 67.1 L 97.5 70.7 L 98.6 74.3 L 97.6 78.8 L 93.8 81.3 L 89.3 80.3 L 86.8 76.5 L 86.5 73.0 Z M 177.3 22.6 L 179.1 25.7 L 175.39406175613402 26.019477462768556 L 173.9 28.7 L 170.3 34.8 L 166.6 40.6 L 162.8 46.3 L 158.8 51.8 L 154.6 57.1 L 150.3 62.2 L 145.7 67.1 L 140.9 71.7 L 135.9 75.9 L 134.6 74.7 L 138.0 69.2 L 141.5 63.7 L 145.0 58.3 L 148.4 52.7 L 151.7 47.1 L 154.9 41.4 L 160.9 29.6 L 163.7 23.5 L 166.00140304565429 18.300533866882326 L 166.0 18.3 L 166.02325582504272 18.251162815093995 L 166.4 17.4 L 166.4232823371887 17.41110715866089 L 167.0 16.2 Z M 102.5 62.5 L 102.2 59.5 L 101.9 56.7 L 101.5 54.0 L 100.9 51.5 L 99.7 46.7 L 98.9 44.5 L 97.7 42.5 L 99.0 41.3 L 100.9 42.8 L 103.0 44.5 L 105.0 46.5 L 106.8 48.7 L 108.5 51.3 L 110.0 54.1 L 111.4 57.2 L 112.6 60.4 L 113.7 63.9 L 114.6 67.6 L 113.3 72.0 L 109.3 74.3 L 105.0 73.0 L 102.7 69.1 L 102.6 65.7 Z M 130.8956521987915 15.495652198791504 L 137.0 21.6 L 137.2 25.0 L 133.48097696304322 23.487177085876464 L 130.8 24.7 L 126.2 26.6 L 121.4 28.4 L 116.2 30.2 L 110.7 31.9 L 105.0 33.6 L 98.8 35.2 L 92.4 36.7 L 85.5 38.0 L 78.4 39.0 L 77.9 37.3 L 84.5 34.3 L 90.7 31.6 L 96.7 29.0 L 102.4 26.5 L 107.7 24.0 L 112.7 21.6 L 117.3 19.2 L 121.6 16.9 L 125.5 14.6 L 128.2355538368225 12.852285003662109 L 128.2 12.8 L 128.24576272964478 12.845762729644775 L 129.1 12.3 Z " />
</g>
</svg>
