<svg xmlns="http://www.w3.org/2000/svg" xmlns:xlink="http://www.w3.org/1999/xlink" version="1.1" baseProfile="full" viewBox="0 0 200 200" width="200" height="200">
<g fill="black">
<path d="M 159.5 161.1 L 152.6 148.1 L 146.7 133.9 L 141.8 118.5 L 137.8 101.8 L 135.12598085403442 85.20263967514038 L 131.8 99.8 L 127.6 114.6 L 122.6 128.3 L 117.0 141.0 L 110.6 152.7 L 103.6 163.2 L 95.8 172.5 L 87.3 180.6 L 78.1 187.4 L 77.0 186.0 L 84.7 177.9 L 91.7 169.1 L 98.2 159.5 L 104.0 149.0 L 109.3 137.5 L 113.9 125.1 L 117.9 111.7 L 121.4 97.4 L 124.2 82.0 L 126.3 65.6 L 126.81500921249389 65.66491708755493 L 127.4 60.4 L 127.9 54.8 L 128.4 48.9 L 128.8 42.8 L 129.3 36.3 L 129.8 29.6 L 130.3154929161072 23.5 L 95.5 23.5 L 95.5 19.5 L 128.5 19.5 L 133.3 15.5 L 144.3 24.5 L 139.3 27.5 L 134.874107170105 29.71294641494751 L 136.2 43.9 L 138.8 64.0 L 142.0 82.6 L 146.0 99.9 L 150.7 115.7 L 156.2 130.2 L 162.5 143.2 L 169.5 154.8 L 177.2 165.0 L 185.7 173.8 L 187.2 175.3 L 176.4 183.3 L 167.4 172.8 Z M 69.2 164.6 L 68.7 160.4 L 68.0 156.3 L 67.88514127731324 155.82907934188842 L 66.0 157.5 L 61.4 161.2 L 56.5 164.7 L 51.5 167.9 L 46.4 171.1 L 41.2 174.1 L 35.9 177.0 L 30.4 179.8 L 24.9 182.5 L 23.067415714263916 183.35084266662597 L 22.2 187.2 L 19.3 185.1 L 13.1 174.6 L 14.9 173.9 L 20.6 172.0 L 26.2 170.0 L 31.7 167.9 L 37.2 165.7 L 42.6 163.5 L 43.0 163.32962961196898 L 43.0 116.4 L 29.8 116.4 L 29.8 128.4 L 18.8 133.9 L 18.8 49.7 L 29.8 55.2 L 43.0 55.2 L 43.0 13.5 L 53.0 15.5 L 55.5 17.5 L 53.0 19.16666669845581 L 53.0 55.2 L 66.1 55.2 L 71.6 50.2 L 82.1 59.2 L 77.1 62.7 L 77.1 116.4 L 66.1 121.9 L 66.1 116.4 L 53.0 116.4 L 53.0 159.03018865585327 L 53.3 158.9 L 58.7 156.6 L 64.0 154.3 L 67.2 153.0199999809265 L 67.0 152.2 L 65.9 148.0 L 64.5 143.9 L 62.9 139.8 L 61.2 135.5 L 59.2 131.3 L 60.7 130.2 L 64.1 133.6 L 67.3 137.2 L 70.1 141.1 L 72.5 145.1 L 74.7 149.3 L 76.7 153.6 L 78.3 158.1 L 79.6 162.7 L 80.7 167.5 L 81.5 172.3 L 79.9 176.6 L 75.9 178.7 L 71.6 177.2 L 69.5 173.1 L 69.4 168.8 Z M 29.8 59.2 L 29.8 112.4 L 43.0 112.4 L 43.0 59.2 Z M 53.0 59.2 L 53.0 112.4 L 66.1 112.4 L 66.1 59.2 Z " />
</g>
</svg>
