<svg xmlns="http://www.w3.org/2000/svg" xmlns:xlink="http://www.w3.org/1999/xlink" version="1.1" baseProfile="full" viewBox="0 0 200 200" width="200" height="200">
<g fill="black">
<path d="M 132.3 176.0 L 152.3 176.0 L 153.6 175.9 L 154.5 175.7 L 155.4 175.4 L 155.6 175.2 L 155.7 175.0 L 155.9 174.7 L 156.1 174.1 L 156.3 173.2 L 156.3 69.0 L 112.4 69.0 L 112.4 65.0 L 156.3 65.0 L 156.3 13.0 L 168.3 15.0 L 171.3 17.0 L 168.3 18.8 L 168.3 65.0 L 173.0777777671814 65.0 L 179.3 58.0 L 187.3 65.0 L 187.3 69.0 L 168.3 69.0 L 168.3 172.0 L 168.2 174.5 L 167.8 177.0 L 166.9 179.4 L 165.7 181.7 L 164.1 183.7 L 162.1 185.3 L 159.8 186.6 L 157.4 187.4 L 154.9 187.8 L 152.3 188.0 L 152.3 182.0 L 132.3 179.0 Z M 57.9 165.6 L 58.7 169.2 L 54.661434936523435 168.27892379760743 L 51.7 170.5 L 48.1 172.9 L 44.3 175.2 L 40.1 177.4 L 35.7 179.7 L 31.0 181.8 L 25.9 183.9 L 20.5 185.8 L 14.8 187.6 L 14.0 186.0 L 18.9 182.6 L 23.5 179.3 L 27.9 176.3 L 31.9 173.3 L 35.6 170.5 L 39.0 167.7 L 42.1 165.0 L 44.8 162.3 L 47.2 159.8 L 48.624187278747556 158.01976594924926 L 48.6 158.0 L 48.8 157.8 L 49.2 157.3 L 49.25117645263672 157.34882354736328 L 49.6 157.0 Z M 99.8 180.7 L 97.6 178.4 L 95.0 176.1 L 92.0 173.7 L 88.7 171.4 L 85.0 169.1 L 80.9 166.7 L 76.5 164.2 L 71.6 161.9 L 72.1 160.2 L 77.5 161.2 L 82.6 162.2 L 87.4 163.5 L 91.9 165.0 L 96.1 166.7 L 99.9 168.6 L 103.5 170.6 L 106.8 172.9 L 109.8 175.3 L 112.5 178.0 L 113.7 182.4 L 111.4 186.4 L 107.0 187.5 L 103.0 185.2 L 101.6 183.0 Z M 81.2 54.4 L 80.6 58.5 L 79.6 62.5 L 78.4 66.3 L 76.9 69.9 L 75.1 73.3 L 73.0 76.5 L 70.6 79.4 L 67.9 82.2 L 65.0 84.6 L 63.0 86.2 L 88.7 86.2 L 94.7 81.2 L 105.7 90.2 L 100.7 94.2 L 100.7 151.6 L 88.7 157.6 L 88.7 151.6 L 41.2 151.6 L 41.2 154.6 L 29.2 160.6 L 29.2 80.2 L 41.2 86.2 L 61.2 86.2 L 60.8 85.8 L 63.0 82.8 L 64.7 79.7 L 66.2 76.6 L 67.5 73.5 L 68.5 70.4 L 69.3 67.2 L 69.9 64.0 L 70.2 60.8 L 70.3 57.4 L 70.2061538696289 54.20923080444336 L 70.2 54.2 L 70.2 21.6 L 80.0972972869873 26.548648643493653 L 82.0 25.3 L 85.3 23.4 L 91.5 20.0 L 94.6 18.4 L 100.4 15.4 L 103.2 14.0 L 105.05916395187378 13.136816692352294 L 105.0 13.0 L 105.12495555877686 13.106270599365235 L 106.0 12.7 L 106.53521738052368 14.305652141571045 L 115.7 22.1 L 115.9 25.2 L 111.83955268859863 23.40862617492676 L 109.8 24.1 L 106.9 24.6 L 103.9 25.3 L 100.7 25.9 L 97.5 26.6 L 94.2 27.3 L 90.8 28.0 L 83.6 29.4 L 81.2 29.778947353363037 L 81.2 44.2 L 98.51818180084229 44.2 L 106.7 35.2 L 116.7 44.2 L 116.7 48.2 L 102.7 48.2 L 102.7 74.6 L 91.7 80.1 L 91.7 48.2 L 81.2 48.2 L 81.2 54.2 L 81.06982250213623 54.39526624679566 Z M 41.2 131.1 L 41.2 147.6 L 88.7 147.6 L 88.7 131.1 Z M 132.4 119.7 L 131.2 115.9 L 129.8 112.1 L 128.1 108.3 L 126.1 104.6 L 123.9 100.8 L 121.4 97.0 L 118.8 93.1 L 115.8 89.3 L 117.0 87.9 L 121.2 90.7 L 125.1 93.7 L 128.7 96.9 L 132.0 100.3 L 135.0 103.9 L 137.8 107.8 L 140.2 111.7 L 142.4 115.9 L 144.2 120.2 L 145.8 124.7 L 145.0 129.2 L 141.3 131.9 L 136.8 131.1 L 134.1 127.4 L 133.4 123.5 Z M 41.2 110.7 L 41.2 127.1 L 88.7 127.1 L 88.7 110.7 Z M 41.2 90.2 L 41.2 106.7 L 88.7 106.7 L 88.7 90.2 Z M 31.8 56.4 L 31.2 61.5 L 30.3 66.4 L 29.1 70.9 L 27.7 75.1 L 25.9 78.9 L 23.9 82.4 L 21.6 85.5 L 19.0 88.1 L 16.1 90.2 L 13.2 92.1 L 12.1 90.8 L 14.2 88.3 L 15.7 85.5 L 17.1 82.6 L 18.2 79.5 L 19.2 76.3 L 19.9 72.8 L 20.5 69.0 L 20.8 65.0 L 20.9 60.7 L 20.80224723815918 56.20337076187134 L 20.8 56.2 L 20.8 21.6 L 30.936986255645753 26.66849317550659 L 32.7 25.6 L 39.1 22.2 L 42.1 20.5 L 45.1 18.9 L 48.0 17.4 L 50.9 15.8 L 53.6 14.3 L 55.46617650985718 13.332352924346925 L 55.4 13.2 L 55.51832761764526 13.305311584472657 L 56.3 12.9 L 56.99830865859985 14.6224946975708 L 65.4 22.1 L 65.6 25.3 L 61.70978994369507 23.624217224121093 L 60.8 24.0 L 54.6 25.6 L 51.4 26.3 L 48.1 27.1 L 44.8 27.8 L 37.8 29.2 L 34.1 29.8 L 31.8 30.048648643493653 L 31.8 44.2 L 49.11818180084229 44.2 L 57.3 35.2 L 67.3 44.2 L 67.3 48.2 L 53.3 48.2 L 53.3 74.6 L 42.3 80.1 L 42.3 48.2 L 31.8 48.2 L 31.8 56.2 L 31.66904764175415 56.39642858505249 Z " />
</g>
</svg>
