<svg xmlns="http://www.w3.org/2000/svg" xmlns:xlink="http://www.w3.org/1999/xlink" version="1.1" baseProfile="full" viewBox="0 0 200 200" width="200" height="200">
<g fill="black">
<path d="M 157.1 179.4 L 148.8 175.4 L 141.3 170.8 L 135.79285717010498 166.37759742736816 L 129.6 170.6 L 120.0 175.9 L 109.9 180.2 L 99.1 183.7 L 87.6 186.3 L 75.6 187.9 L 75.3 186.1 L 86.7 182.6 L 97.3 178.7 L 107.2 174.2 L 116.4 169.2 L 124.8 163.6 L 129.30892896652222 160.0159794807434 L 128.9 159.6 L 124.0 153.2 L 120.1 146.1 L 117.2 138.6 L 116.5925311088562 135.86639003753663 L 113.9 139.2 L 109.4 144.0 L 104.5 148.5 L 99.4 152.7 L 94.0 156.6 L 88.3 160.0 L 82.2 162.9 L 81.3 161.4 L 86.1 156.9 L 90.7 152.4 L 95.0 147.9 L 99.1 143.2 L 103.0 138.4 L 106.5 133.5 L 109.9 128.3 L 112.9 123.0 L 115.7 117.5 L 117.80454053878785 112.7016474723816 L 117.8 112.7 L 118.7 110.6 L 129.1 116.8 L 130.9 119.9 L 127.12185592651367 120.29084253311157 L 125.7 122.8 L 122.90689659118652 127.3 L 155.9 127.3 L 156.25073528289795 127.00772056579589 L 156.6 126.4 L 156.8285223007202 126.52623138427734 L 161.9 122.3 L 172.9 131.3 L 167.9 134.3 L 164.90369911193847 135.54845867156982 L 161.0 141.5 L 154.2 150.0 L 146.6 157.7 L 143.6721272468567 160.1636978149414 L 146.8 162.1 L 153.7 165.5 L 161.3 168.4 L 169.5 170.8 L 178.5 172.6 L 187.6 174.5 L 175.8 185.5 L 166.1 182.8 Z M 43.3 175.9 L 59.3 175.9 L 60.5 175.8 L 61.4 175.6 L 62.3 175.3 L 62.7 174.9 L 62.9 174.6 L 63.0 174.0 L 63.2 173.1 L 63.3 171.9 L 63.3 139.1 L 62.4 140.2 L 55.1 148.6 L 47.4 156.6 L 39.6 164.1 L 31.5 171.2 L 23.1 177.7 L 14.4 183.6 L 13.3 182.2 L 20.6 174.8 L 27.8 167.3 L 34.9 159.5 L 41.8 151.5 L 48.6 143.2 L 55.1 134.5 L 58.18074531555176 130.16770181655883 L 56.1 131.0 L 49.9 133.3 L 44.1 135.4 L 38.7 137.4 L 33.7 139.2 L 29.0 140.9 L 24.8 142.4 L 21.410419273376466 143.70368490219116 L 20.2 147.5 L 17.4 145.2 L 12.2 134.1 L 14.2 133.6 L 17.8 132.9 L 21.9 132.1 L 25.7 131.32272729873657 L 25.7 36.2 L 37.7 42.2 L 38.594117641448975 42.2 L 39.6 40.3 L 40.9 36.8 L 42.3 33.5 L 43.6 30.4 L 44.8 27.3 L 46.0 24.5 L 47.0 21.7 L 48.0 19.1 L 48.8 16.6 L 49.26465606689453 15.264113903045654 L 49.1 15.2 L 50.1 13.2 L 60.4 19.6 L 62.2 22.7 L 57.86312894821167 23.067531490325926 L 57.1 24.1 L 55.3 26.4 L 53.4 28.8 L 51.4 31.3 L 49.3 33.8 L 47.0 36.4 L 44.5 39.1 L 41.8 41.8 L 41.45517244338989 42.2 L 63.3 42.2 L 69.3 37.2 L 80.3 46.2 L 75.3 50.2 L 75.3 103.43965520858765 L 78.93186454772949 97.11520147323608 L 78.9 97.1 L 79.26079998016357 96.54239997863769 L 79.4 96.3 L 79.41285009384156 96.30741348266602 L 80.0 95.4 L 89.8 102.3 L 91.4 105.6 L 87.6762375831604 105.6 L 83.3 112.4 L 76.6 122.1 L 75.3 123.82714281082153 L 75.3 171.9 L 75.1 174.4 L 74.7 176.9 L 73.9 179.3 L 72.7 181.6 L 71.0 183.6 L 69.0 185.3 L 66.7 186.5 L 64.3 187.3 L 61.8 187.7 L 59.3 187.9 L 59.3 181.9 L 43.3 178.9 Z M 120.1 131.3 L 118.81516647338867 133.03452529907227 L 121.0 136.9 L 125.2 143.1 L 129.8 148.8 L 134.9 153.8 L 135.67723579406737 154.4106852531433 L 139.6 150.6 L 145.9 143.1 L 151.6 135.1 L 153.78390808105468 131.3 Z M 37.7 101.5 L 37.7 128.96428575515748 L 42.1 128.1 L 48.2 127.0 L 54.7 125.8 L 61.6 124.7 L 62.06950759887695 124.63655300140381 L 63.3 122.7709677696228 L 63.3 101.5 Z M 120.5 18.5 L 122.9 21.2 L 119.19698371887208 22.19187936782837 L 118.1 25.3 L 115.3 31.9 L 112.9265625 36.8 L 163.3 36.8 L 173.3 26.8 L 185.3 36.8 L 185.3 40.8 L 110.78333330154419 40.8 L 108.8 44.3 L 105.1 50.1 L 102.78000001907348 53.28999996185303 L 112.0 57.9 L 156.8 57.9 L 162.8 52.9 L 173.8 61.9 L 168.8 65.9 L 168.8 111.2 L 156.8 117.2 L 156.8 109.2 L 112.0 109.2 L 112.0 112.2 L 100.0 118.2 L 100.0 56.925 L 96.7 60.9 L 92.0 65.7 L 86.9 70.2 L 81.5 74.2 L 80.2 72.9 L 84.2 67.6 L 87.9 62.3 L 91.5 56.9 L 94.8 51.4 L 97.8 45.8 L 100.6 40.0 L 103.1 34.1 L 105.4 28.0 L 107.3 21.7 L 108.73659591674804 16.207133102416993 L 108.7 16.2 L 108.95641021728515 15.366666698455811 L 109.0 15.2 L 109.00706825256347 15.202028274536133 L 109.5 13.6 Z M 112.0 84.8 L 112.0 105.2 L 156.8 105.2 L 156.8 84.8 Z M 37.7 72.3 L 37.7 97.5 L 63.3 97.5 L 63.3 72.3 Z M 112.0 61.9 L 112.0 80.8 L 156.8 80.8 L 156.8 61.9 Z M 37.7 46.2 L 37.7 68.3 L 63.3 68.3 L 63.3 46.2 Z " />
</g>
</svg>
