<svg xmlns="http://www.w3.org/2000/svg" xmlns:xlink="http://www.w3.org/1999/xlink" version="1.1" baseProfile="full" viewBox="0 0 200 200" width="200" height="200">
<g fill="black">
<path d="M 69.2 164.6 L 68.7 160.4 L 68.0 156.3 L 67.88514127731324 155.82907934188842 L 66.0 157.5 L 61.4 161.2 L 56.5 164.7 L 51.5 167.9 L 46.4 171.1 L 41.2 174.1 L 35.9 177.0 L 30.4 179.8 L 24.9 182.5 L 23.067415714263916 183.35084266662597 L 22.2 187.2 L 19.3 185.1 L 13.1 174.6 L 14.9 173.9 L 20.6 172.0 L 26.2 170.0 L 31.7 167.9 L 37.2 165.7 L 42.6 163.5 L 43.0 163.32962961196898 L 43.0 116.4 L 29.8 116.4 L 29.8 128.4 L 18.8 133.9 L 18.8 49.7 L 29.8 55.2 L 43.0 55.2 L 43.0 13.5 L 53.0 15.5 L 55.5 17.5 L 53.0 19.16666669845581 L 53.0 55.2 L 66.1 55.2 L 71.6 50.2 L 82.1 59.2 L 77.1 62.7 L 77.1 116.4 L 66.1 121.9 L 66.1 116.4 L 53.0 116.4 L 53.0 159.03018865585327 L 53.3 158.9 L 58.7 156.6 L 64.0 154.3 L 67.2 153.0199999809265 L 67.0 152.2 L 65.9 148.0 L 64.5 143.9 L 62.9 139.8 L 61.2 135.5 L 59.2 131.3 L 60.7 130.2 L 64.1 133.6 L 67.3 137.2 L 70.1 141.1 L 72.5 145.1 L 74.7 149.3 L 76.7 153.6 L 78.3 158.1 L 79.6 162.7 L 80.7 167.5 L 81.5 172.3 L 79.9 176.6 L 75.9 178.7 L 71.6 177.2 L 69.5 173.1 L 69.4 168.8 Z M 160.3 160.5 L 153.4 147.3 L 147.4 132.9 L 142.5 117.2 L 138.5 100.3 L 135.78701181411742 83.2736602783203 L 132.5 98.3 L 128.2 113.3 L 123.2 127.3 L 117.6 140.1 L 111.2 151.9 L 104.1 162.6 L 96.3 172.1 L 87.8 180.3 L 78.5 187.2 L 77.4 185.8 L 85.1 177.6 L 92.2 168.7 L 98.7 158.9 L 104.5 148.3 L 109.8 136.7 L 114.5 124.1 L 118.6 110.5 L 122.0 95.9 L 124.8 80.3 L 127.0 63.6 L 127.51214265823364 63.66885948181152 L 128.0 58.4 L 128.6 52.7 L 129.0 46.7 L 129.5 40.5 L 129.9 33.9 L 130.5 27.1 L 131.01666669845582 20.9 L 96.0 20.9 L 96.0 16.9 L 129.2 16.9 L 134.0 12.9 L 145.0 21.9 L 140.0 24.9 L 135.57105264663696 27.114473724365233 L 136.9 41.6 L 139.5 62.0 L 142.7 80.9 L 146.7 98.4 L 151.4 114.5 L 157.0 129.2 L 163.3 142.4 L 170.3 154.2 L 178.1 164.6 L 186.6 173.6 L 188.0 175.0 L 177.3 182.9 L 168.3 172.4 Z M 29.8 59.2 L 29.8 112.4 L 43.0 112.4 L 43.0 59.2 Z M 53.0 59.2 L 53.0 112.4 L 66.1 112.4 L 66.1 59.2 Z " />
</g>
</svg>
