<svg xmlns="http://www.w3.org/2000/svg" xmlns:xlink="http://www.w3.org/1999/xlink" version="1.1" baseProfile="full" viewBox="0 0 200 200" width="200" height="200">
<g fill="black">
<path d="M 109.9 59.7 L 112.4 61.7 L 109.9 63.36666669845581 L 109.9 116.4 L 109.83203887939453 117.4 L 118.9 117.4 L 118.9 68.6 L 128.9 70.6 L 131.4 72.6 L 128.9 74.26666669845581 L 128.9 127.4 L 118.9 132.4 L 118.9 121.4 L 109.5601942062378 121.4 L 109.2 126.7 L 107.9 136.4 L 106.0 145.4 L 103.4 153.7 L 100.3 161.3 L 96.5 168.2 L 92.2 174.3 L 87.2 179.6 L 81.6 184.1 L 75.4 187.6 L 74.6 186.4 L 79.5 181.7 L 83.9 176.6 L 87.7 171.1 L 91.0 165.1 L 93.8 158.5 L 96.0 151.3 L 97.8 143.6 L 99.0 135.1 L 99.7 126.0 L 99.79484539031982 121.4 L 89.4 121.4 L 89.4 133.4 L 79.4 138.4 L 79.4 68.6 L 89.4 70.6 L 91.9 72.6 L 89.4 74.26666669845581 L 89.4 117.4 L 99.87731962203979 117.4 L 99.9 116.3 L 99.9 57.7 Z M 171.0 116.4 L 171.0 75.6 L 149.6 75.6 L 149.6 103.4 L 149.01353387832643 116.4 Z M 62.7 164.5 L 62.3 160.3 L 61.62916669845581 156.3708333015442 L 60.5 157.5 L 56.3 161.1 L 52.0 164.6 L 47.5 167.9 L 42.9 171.0 L 38.2 174.0 L 33.3 176.9 L 28.4 179.7 L 23.4 182.4 L 22.123058223724364 183.05098991394044 L 21.4 187.0 L 18.3 185.0 L 11.8 174.8 L 13.6 174.0 L 23.8 170.0 L 28.8 168.0 L 33.8 165.8 L 38.7 163.6 L 38.9 163.5079999923706 L 38.9 116.4 L 28.0 116.4 L 28.0 128.4 L 17.0 133.9 L 17.0 49.7 L 28.0 55.2 L 38.9 55.2 L 38.9 13.5 L 48.9 15.5 L 51.4 17.5 L 48.9 19.16666669845581 L 48.9 55.2 L 60.4 55.2 L 65.4 50.2 L 75.4 59.2 L 70.4 62.2 L 70.4 116.4 L 60.4 121.4 L 60.4 116.4 L 48.9 116.4 L 48.9 158.80408163070678 L 53.4 156.6 L 58.4 154.3 L 61.01862916946411 153.14780311584474 L 60.8 152.0 L 59.8 147.9 L 58.6 143.8 L 57.3 139.7 L 55.8 135.5 L 54.1 131.3 L 55.6 130.3 L 58.7 133.7 L 61.7 137.3 L 64.3 141.2 L 66.6 145.2 L 68.6 149.4 L 70.4 153.8 L 71.9 158.2 L 73.2 162.8 L 74.2 167.5 L 74.9 172.4 L 73.3 176.7 L 69.2 178.7 L 64.9 177.1 L 62.9 173.1 L 62.9 168.8 Z M 28.0 59.2 L 28.0 112.4 L 38.9 112.4 L 38.9 59.2 Z M 48.9 59.2 L 48.9 112.4 L 60.4 112.4 L 60.4 59.2 Z M 149.6 30.8 L 149.6 71.6 L 171.0 71.6 L 171.0 30.8 Z M 130.7 19.4 L 132.5 22.5 L 128.61841230392457 22.83461961746216 L 126.7 26.0 L 124.6 29.5 L 120.2 36.5 L 117.8 40.2 L 115.4 43.8 L 112.9 47.6 L 110.2 51.3 L 109.20526313781738 52.7 L 118.61818180084228 52.7 L 126.8 43.7 L 136.8 52.7 L 136.8 56.7 L 76.5 56.7 L 76.5 52.7 L 106.2977777481079 52.7 L 107.2 49.8 L 108.6 45.4 L 110.0 41.1 L 111.4 37.0 L 112.9 33.0 L 114.3 29.0 L 117.1 21.4 L 118.5 17.7 L 119.52150535583496 15.146236515045166 L 119.4 15.1 L 120.4 13.0 Z M 91.2 38.3 L 90.6 35.5 L 89.9 32.8 L 89.0 30.1 L 88.0 27.5 L 86.8 24.9 L 85.4 22.3 L 84.0 19.6 L 82.0 17.2 L 83.2 15.8 L 85.8 17.7 L 88.6 19.5 L 91.1 21.5 L 93.4 23.8 L 95.6 26.3 L 97.6 29.0 L 99.4 31.9 L 101.0 35.0 L 102.4 38.2 L 103.6 41.6 L 102.7 46.0 L 99.0 48.7 L 94.5 47.8 L 91.9 44.0 L 91.6 41.1 Z M 182.4 176.1 L 181.6 178.5 L 180.4 180.8 L 178.8 182.8 L 176.7 184.4 L 174.5 185.7 L 172.1 186.5 L 169.6 186.9 L 167.0 187.0 L 167.0 181.0 L 147.0 178.0 L 147.0 175.0 L 168.2 175.0 L 169.2 174.8 L 169.7 174.6 L 170.3 174.3 L 170.4 174.1 L 170.6 173.8 L 170.8 173.2 L 170.9 172.3 L 171.0 171.0 L 171.0 120.4 L 148.6360655784607 120.4 L 147.8 128.9 L 145.9 140.1 L 143.5 150.3 L 140.4 159.4 L 136.6 167.5 L 132.1 174.5 L 127.0 180.2 L 121.3 184.7 L 115.0 187.7 L 114.2 186.3 L 119.1 181.9 L 123.4 176.9 L 127.1 171.1 L 130.3 164.5 L 133.0 156.9 L 135.2 148.2 L 136.9 138.6 L 138.0 127.9 L 138.6 116.2 L 138.6 21.3 L 149.6 26.8 L 171.0 26.8 L 177.0 21.8 L 188.0 30.8 L 183.0 34.8 L 183.0 171.0 L 182.9 173.6 Z " />
</g>
</svg>
