<svg xmlns="http://www.w3.org/2000/svg" xmlns:xlink="http://www.w3.org/1999/xlink" version="1.1" baseProfile="full" viewBox="0 0 200 200" width="200" height="200">
<g fill="black">
<path d="M 139.1 130.7 L 142.6 137.7 L 146.3 143.9 L 150.2 149.5 L 151.23793106079103 150.68275861740113 L 153.5 146.3 L 155.1 143.4 L 156.7 140.6 L 158.2 137.9 L 159.6 135.2 L 160.9 132.6 L 162.2 130.2 L 162.93231325149537 128.67434740066528 L 162.8 128.6 L 163.35662651062012 127.79036140441895 L 163.4 127.7 L 163.41273584365845 127.70874786376953 L 163.9 127.0 L 173.3 134.5 L 174.6 137.8 L 170.41639347076415 137.58360652923585 L 169.3 138.7 L 167.2 140.9 L 165.0 143.1 L 162.7 145.3 L 160.3 147.5 L 157.8 149.8 L 155.2 152.0 L 153.5454357147217 153.31224069595336 L 154.5 154.4 L 159.0 158.7 L 163.8 162.4 L 168.9 165.4 L 174.3 167.9 L 180.0 169.8 L 187.4 172.3 L 175.8 182.3 L 169.0 179.3 L 162.7 175.5 L 157.0 171.1 L 151.8 166.0 L 147.2 160.4 L 143.3 154.1 L 139.9 147.3 L 137.2 139.9 L 135.1 132.0 L 134.17345848083497 125.43699731826783 L 130.9 130.0 L 127.2 134.4 L 123.2 138.5 L 121.5 140.00232553482056 L 121.5 168.05471696853638 L 126.6 166.9 L 132.1 165.7 L 138.0 164.5 L 144.2 163.3 L 144.8 165.0 L 139.2 168.0 L 133.9 170.8 L 128.6 173.2 L 123.6 175.3 L 121.5 176.175 L 121.5 177.1 L 119.28000001907348 177.1 L 118.8 177.3 L 114.2 179.1 L 109.8 180.8 L 105.6 182.2 L 101.91830234527588 183.4885941505432 L 100.4 187.2 L 97.8 184.7 L 93.4 173.4 L 95.3 173.0 L 99.0 172.5 L 102.9 171.8 L 107.1 171.1 L 109.5 170.6199999809265 L 109.5 148.9 L 104.3 151.8 L 98.8 154.3 L 93.0 156.4 L 86.9 158.0 L 86.2 156.3 L 91.4 152.9 L 96.2 149.6 L 100.8 146.2 L 105.0 142.8 L 109.0 139.2 L 109.5 138.68611106872558 L 109.5 138.2 L 109.97297296524047 138.2 L 112.6 135.5 L 115.9 131.7 L 118.8 127.7 L 121.03902435302734 124.3 L 86.5 124.3 L 86.5 120.3 L 114.9 120.3 L 114.9 105.4 L 96.5 105.4 L 96.5 101.4 L 114.9 101.4 L 114.9 87.5 L 92.0 87.5 L 92.0 83.5 L 114.9 83.5 L 114.9 66.6 L 126.9 68.6 L 129.9 70.6 L 126.9 72.4 L 126.9 83.5 L 143.9 83.5 L 143.9 66.6 L 155.9 68.6 L 158.9 70.6 L 155.9 72.4 L 155.9 83.5 L 160.71818180084227 83.5 L 168.9 74.5 L 178.9 83.5 L 178.9 87.5 L 155.9 87.5 L 155.9 101.4 L 160.0777777671814 101.4 L 166.3 94.4 L 174.3 101.4 L 174.3 105.4 L 155.9 105.4 L 155.9 120.3 L 163.2 120.3 L 173.2 110.3 L 185.2 120.3 L 185.2 124.3 L 136.1526315689087 124.3 Z M 73.2 164.5 L 72.7 160.3 L 71.8 156.1 L 71.61237030029297 155.33071813583373 L 69.2 157.3 L 64.1 161.0 L 58.8 164.5 L 53.4 167.8 L 47.8 171.0 L 42.1 174.0 L 36.3 176.9 L 30.4 179.7 L 24.3 182.4 L 22.030825519561766 183.36718912124633 L 21.1 187.2 L 18.2 185.0 L 12.2 174.4 L 14.1 173.8 L 20.3 171.8 L 26.4 169.8 L 32.4 167.7 L 43.7 163.48644065856934 L 43.7 115.9 L 30.1 115.9 L 30.1 127.9 L 18.1 133.9 L 18.1 48.4 L 30.1 54.4 L 43.7 54.4 L 43.7 12.6 L 55.7 14.6 L 58.7 16.6 L 55.7 18.4 L 55.7 54.4 L 69.4 54.4 L 75.4 49.4 L 86.4 58.4 L 81.4 62.4 L 81.4 117.9 L 69.4 123.9 L 69.4 115.9 L 55.7 115.9 L 55.7 158.64137935638428 L 55.8 158.6 L 61.6 156.3 L 67.3 154.0 L 70.95536184310913 152.6369836807251 L 70.8 152.0 L 69.5 147.8 L 67.9 143.7 L 66.2 139.5 L 64.3 135.2 L 62.1 130.9 L 63.5 129.8 L 67.1 133.2 L 70.5 136.8 L 73.5 140.6 L 76.1 144.7 L 78.5 148.9 L 80.5 153.3 L 82.2 157.8 L 83.7 162.5 L 84.8 167.2 L 85.6 172.2 L 84.1 176.5 L 80.0 178.5 L 75.7 177.0 L 73.6 173.0 L 73.6 168.7 Z M 126.9 105.4 L 126.9 120.3 L 143.9 120.3 L 143.9 105.4 Z M 30.1 58.4 L 30.1 111.9 L 43.7 111.9 L 43.7 58.4 Z M 55.7 58.4 L 55.7 111.9 L 69.4 111.9 L 69.4 58.4 Z M 126.9 87.5 L 126.9 101.4 L 143.9 101.4 L 143.9 87.5 Z M 129.4 51.4 L 130.4 54.8 L 126.42488527297974 54.18317184448242 L 126.3 54.3 L 123.1 57.1 L 119.8 59.9 L 116.3 62.5 L 112.7 65.0 L 109.0 67.4 L 105.1 69.6 L 101.0 71.7 L 96.8 73.5 L 92.4 75.3 L 91.5 73.8 L 95.0 70.8 L 98.3 67.7 L 101.5 64.6 L 104.6 61.7 L 110.4 55.7 L 115.6 49.7 L 118.0 46.6 L 119.65659704208375 44.34100399017334 L 119.6 44.3 L 120.6 43.1 Z M 162.1 65.0 L 160.3 62.6 L 158.4 60.3 L 156.2 58.0 L 153.8 55.8 L 151.3 53.5 L 148.5 51.3 L 145.6 48.9 L 142.3 46.9 L 143.0 45.3 L 146.8 46.4 L 150.6 47.4 L 154.1 48.7 L 157.5 50.1 L 160.8 51.8 L 163.9 53.6 L 166.9 55.6 L 169.6 57.8 L 172.3 60.1 L 174.7 62.6 L 175.7 67.1 L 173.4 71.0 L 168.9 72.0 L 165.0 69.7 L 163.6 67.3 Z M 87.9 36.6 L 130.3 36.6 L 130.3 12.0 L 142.3 14.0 L 145.3 16.0 L 142.3 17.8 L 142.3 36.6 L 162.8 36.6 L 172.8 26.6 L 184.8 36.6 L 184.8 40.6 L 87.9 40.6 Z " />
</g>
</svg>
