<svg xmlns="http://www.w3.org/2000/svg" xmlns:xlink="http://www.w3.org/1999/xlink" version="1.1" baseProfile="full" viewBox="0 0 200 200" width="200" height="200">
<g fill="black">
<path d="M 25.7 131.0 L 47.9 131.0 L 53.9 126.0 L 64.9 135.0 L 59.9 139.0 L 59.9 178.7 L 47.9 184.7 L 47.9 174.7 L 25.7 174.7 L 25.7 181.7 L 13.7 187.7 L 13.7 125.0 Z M 144.4 187.0 L 131.8 185.8 L 121.3 183.8 L 112.7 180.7 L 105.8 176.7 L 100.4 171.8 L 96.4 166.1 L 93.6 159.7 L 92.6375 156.33125 L 92.57916669845581 156.36041669845582 L 91.8 157.6 L 89.7 161.1 L 87.5 164.5 L 85.3 167.7 L 83.0 170.9 L 80.8 174.0 L 78.5 177.1 L 74.4842315673828 182.39351301193238 L 75.4 186.4 L 71.8 185.8 L 61.8 178.9 L 63.2 177.4 L 65.9 175.1 L 68.7 172.8 L 71.4 170.4 L 74.3 168.0 L 77.2 165.5 L 80.1 163.1 L 83.1 160.5 L 84.5 159.3709677696228 L 84.5 95.7 L 65.5 95.7 L 65.5 91.7 L 84.5 91.7 L 90.0 86.7 L 100.5 95.7 L 95.5 99.2 L 95.5 154.9 L 95.31528663635254 154.99235668182374 L 97.3 157.8 L 101.2 162.7 L 105.4 166.6 L 110.2 169.7 L 116.1 172.0 L 123.5 173.8 L 133.0 174.9 L 144.8 175.2 L 159.2 174.8 L 176.6 173.7 L 187.6 173.0 L 177.4 186.8 L 159.5 187.4 Z M 25.7 135.0 L 25.7 170.7 L 47.9 170.7 L 47.9 135.0 Z M 164.1 142.0 L 162.0 138.5 L 159.7 135.2 L 157.2 131.9 L 154.5 128.6 L 151.5 125.4 L 148.4 122.2 L 147.0 120.84117650985718 L 147.0 163.6 L 135.0 169.6 L 135.0 117.525 L 133.3 120.5 L 129.8 125.9 L 125.9 131.2 L 121.7 136.3 L 117.2 141.1 L 112.3 145.8 L 107.0 150.2 L 101.3 154.2 L 100.1 152.9 L 104.3 147.5 L 108.4 142.2 L 112.2 136.9 L 115.7 131.7 L 118.9 126.4 L 121.8 121.1 L 124.4 115.8 L 126.7 110.4 L 128.7 104.9 L 129.1444444656372 103.3 L 119.1 103.3 L 119.1 115.3 L 108.1 120.8 L 108.1 58.4 L 119.1 63.9 L 135.0 63.9 L 135.0 43.7 L 100.7 43.7 L 100.7 39.7 L 135.0 39.7 L 135.0 12.7 L 147.0 14.7 L 150.0 16.7 L 147.0 18.5 L 147.0 39.7 L 160.3 39.7 L 170.3 29.7 L 182.3 39.7 L 182.3 43.7 L 147.0 43.7 L 147.0 63.9 L 160.7 63.9 L 166.7 58.9 L 177.7 67.9 L 172.7 71.9 L 172.7 105.3 L 160.7 111.3 L 160.7 103.3 L 147.0 103.3 L 147.0 116.04772729873658 L 151.3 118.1 L 155.4 120.6 L 159.4 123.2 L 163.1 126.1 L 166.5 129.2 L 169.8 132.4 L 172.8 135.9 L 175.6 139.6 L 178.2 143.4 L 178.5 148.0 L 175.7 151.5 L 171.1 151.9 L 167.5 149.0 L 165.9 145.4 Z M 58.5 104.9 L 58.5 108.9 L 15.2 108.9 L 15.2 104.9 L 40.31818180084228 104.9 L 48.5 95.9 Z M 119.1 67.9 L 119.1 99.3 L 135.0 99.3 L 135.0 67.9 Z M 147.0 67.9 L 147.0 99.3 L 160.7 99.3 L 160.7 67.9 Z M 58.5 77.7 L 58.5 81.7 L 15.2 81.7 L 15.2 77.7 L 40.31818180084228 77.7 L 48.5 68.7 Z M 85.4 48.7 L 84.2 45.6 L 82.9 42.6 L 81.4 39.6 L 79.8 36.7 L 78.1 33.7 L 76.2 30.8 L 74.1 27.8 L 71.8 25.0 L 72.9 23.6 L 76.1 25.7 L 79.3 27.7 L 82.3 29.9 L 85.1 32.4 L 87.8 35.0 L 90.3 37.8 L 92.6 40.8 L 94.7 44.0 L 96.7 47.3 L 98.6 50.7 L 98.4 55.3 L 95.1 58.4 L 90.5 58.3 L 87.4 55.0 L 86.5 51.8 Z M 65.3 48.5 L 65.3 52.5 L 12.1 52.5 L 12.1 48.5 L 43.3 48.5 L 53.3 38.5 Z M 58.5 21.3 L 58.5 25.3 L 15.2 25.3 L 15.2 21.3 L 40.31818180084228 21.3 L 48.5 12.3 Z " />
</g>
</svg>
