<svg xmlns="http://www.w3.org/2000/svg" xmlns:xlink="http://www.w3.org/1999/xlink" version="1.1" baseProfile="full" viewBox="0 0 200 200" width="200" height="200">
<g fill="black">
<path d="M 147.6 183.7 L 136.0 182.5 L 126.4 180.5 L 118.5 177.5 L 112.1 173.6 L 107.2 168.7 L 103.6 163.2 L 101.1 157.0 L 100.31403512954712 153.8561403274536 L 99.7 154.9 L 97.9 158.3 L 95.9 161.6 L 91.9 167.8 L 87.9 173.8 L 86.0 176.7 L 84.55252103805542 178.7264705657959 L 85.6 182.8 L 82.0 182.2 L 71.8 175.7 L 73.1 174.2 L 75.6 172.0 L 78.1 169.7 L 83.3 165.1 L 88.7 160.3 L 91.5 157.8 L 92.0 157.3862069129944 L 92.0 95.0 L 75.6 95.0 L 75.6 91.0 L 92.0 91.0 L 98.0 86.0 L 109.0 95.0 L 104.0 99.0 L 104.0 152.0 L 103.0 152.5 L 104.8 155.2 L 108.5 159.9 L 109.27304258346558 160.65322103500367 L 114.6 156.5 L 119.7 151.0 L 124.2 144.4 L 128.0 136.6 L 131.3 127.5 L 133.9 117.0 L 135.9 105.2 L 136.32105264663696 101.2 L 107.3 101.2 L 107.3 97.2 L 136.74210529327394 97.2 L 137.3 91.9 L 138.0 77.3 L 138.0 63.2 L 113.7 63.2 L 113.7 59.2 L 149.9 59.2 L 159.9 49.2 L 171.9 59.2 L 171.9 63.2 L 149.9277108192444 63.2 L 149.4 77.8 L 148.0 93.0 L 147.33043479919434 97.2 L 158.3 97.2 L 168.3 87.2 L 180.3 97.2 L 180.3 101.2 L 146.69275360107423 101.2 L 145.8 106.8 L 144.8467785835266 110.875843334198 L 146.6 111.6 L 151.1 114.1 L 155.2 117.1 L 159.1 120.6 L 162.8 124.5 L 166.2 128.9 L 169.4 133.5 L 172.3 138.6 L 175.0 144.0 L 177.4 149.7 L 177.1 154.2 L 173.7 157.3 L 169.1 156.9 L 166.1 153.5 L 164.4 148.2 L 162.6 143.1 L 160.6 138.3 L 158.4 133.8 L 156.0 129.6 L 153.4 125.6 L 150.6 121.8 L 147.6 118.2 L 144.4 114.6 L 144.05620918273925 114.25620918273925 L 142.9 119.2 L 139.3 130.3 L 134.8 139.9 L 129.6 148.1 L 123.6 154.7 L 116.8 159.6 L 110.78025369644165 162.12178564071655 L 112.4 163.7 L 116.7 166.6 L 122.0 168.9 L 128.7 170.5 L 137.3 171.6 L 147.9 171.9 L 161.1 171.5 L 176.9 170.4 L 187.8 169.6 L 177.8 183.5 L 161.4 184.0 Z M 62.7 159.8 L 62.3 155.7 L 61.71711406707764 151.81409397125245 L 60.5 153.0 L 56.3 156.6 L 51.9 159.9 L 47.4 163.1 L 42.8 166.2 L 38.1 169.1 L 33.3 172.0 L 28.4 174.7 L 23.4 177.3 L 22.069565200805663 177.95217390060424 L 21.3 181.8 L 18.3 179.8 L 11.8 169.5 L 13.7 168.8 L 23.9 165.0 L 28.9 163.0 L 33.9 160.9 L 38.9 158.65510206222535 L 38.9 113.1 L 28.0 113.1 L 28.0 125.1 L 17.0 130.6 L 17.0 48.0 L 28.0 53.5 L 38.9 53.5 L 38.9 13.1 L 48.9 15.1 L 51.4 17.1 L 48.9 18.76666669845581 L 48.9 53.5 L 59.9 53.5 L 65.4 48.5 L 75.9 57.5 L 70.9 61.0 L 70.9 113.1 L 59.9 118.6 L 59.9 113.1 L 48.9 113.1 L 48.9 154.15918369293212 L 53.5 152.0 L 58.4 149.8 L 61.09372692108154 148.66863470077516 L 60.9 147.7 L 59.9 143.7 L 58.7 139.7 L 57.3 135.7 L 55.9 131.6 L 54.1 127.5 L 55.6 126.5 L 58.7 129.9 L 61.6 133.3 L 64.2 137.1 L 66.5 141.0 L 68.6 145.0 L 70.4 149.2 L 71.9 153.6 L 73.1 158.0 L 74.1 162.6 L 74.9 167.3 L 73.3 171.6 L 69.2 173.6 L 64.9 172.1 L 62.9 168.0 L 62.9 163.9 Z M 28.0 57.5 L 28.0 109.1 L 38.9 109.1 L 38.9 57.5 Z M 48.9 57.5 L 48.9 109.1 L 59.9 109.1 L 59.9 57.5 Z M 93.3 49.1 L 92.3 46.1 L 91.2 43.2 L 89.9 40.3 L 88.5 37.5 L 86.9 34.7 L 85.3 31.8 L 83.5 28.9 L 81.4 26.3 L 82.6 24.9 L 85.4 26.9 L 88.4 28.9 L 91.2 31.0 L 93.8 33.4 L 96.3 36.0 L 98.6 38.7 L 100.7 41.6 L 102.8 44.6 L 104.6 47.8 L 106.3 51.1 L 106.0 55.7 L 102.7 58.8 L 98.1 58.5 L 95.0 55.2 L 94.2 52.1 Z M 170.2 21.7 L 172.1 24.7 L 168.05515813827515 25.188170528411867 L 167.1 26.8 L 165.3 29.6 L 163.4 32.6 L 161.4 35.7 L 159.3 39.1 L 157.0 42.6 L 154.5 46.3 L 151.8 50.1 L 149.1 54.2 L 147.4 53.4 L 149.0 48.8 L 150.3 44.3 L 151.7 40.1 L 153.0 36.1 L 154.2 32.3 L 155.4 28.8 L 156.5 25.5 L 157.5 22.4 L 158.4 19.5 L 158.92077693939208 17.742377853393556 L 158.8 17.7 L 159.1529411315918 16.958823490142823 L 159.2 16.8 L 159.22357139587402 16.810499954223634 L 159.8 15.6 Z M 127.3 40.3 L 126.6 37.3 L 125.9 34.4 L 125.0 31.6 L 122.8 26.0 L 121.5 23.3 L 120.2 20.5 L 118.4 18.0 L 119.7 16.7 L 122.2 18.7 L 124.8 20.6 L 127.3 22.8 L 129.6 25.3 L 131.7 27.9 L 133.7 30.7 L 135.5 33.7 L 137.1 36.9 L 138.6 40.2 L 139.9 43.7 L 139.1 48.2 L 135.4 50.9 L 130.9 50.2 L 128.2 46.5 L 127.8 43.3 Z " />
</g>
</svg>
