<svg xmlns="http://www.w3.org/2000/svg" xmlns:xlink="http://www.w3.org/1999/xlink" version="1.1" baseProfile="full" viewBox="0 0 200 200" width="200" height="200">
<g fill="black">
<path d="M 181.4 151.6 L 180.2 153.7 L 178.6 155.7 L 176.8 157.4 L 174.7 158.8 L 172.4 159.9 L 170.0 160.6 L 167.6 161.0 L 165.0 161.2 L 165.0 155.2 L 157.0 152.2 L 157.0 149.2 L 165.0 149.2 L 166.3 149.1 L 167.3 148.9 L 168.2 148.7 L 168.8 148.4 L 169.8 147.6 L 170.2 147.1 L 170.6 146.3 L 171.0 145.3 L 171.4 144.1 L 172.3 140.1 L 173.1 135.0 L 173.5 129.1 L 173.6 122.6 L 173.1 115.8 L 172.0 109.0 L 170.3 102.3 L 167.9 95.9 L 164.7 90.0 L 161.0 83.9 L 161.19177627563477 83.65592107772827 L 159.9 83.2 L 161.2 76.8 L 162.4 70.6 L 163.8 64.6 L 165.1 58.7 L 166.3 53.0 L 167.5 47.4 L 168.6 42.0 L 169.6 36.7 L 170.4 31.6 L 170.6880000114441 29.8 L 155.2 29.8 L 155.2 182.3 L 144.2 187.8 L 144.2 20.3 L 155.2 25.8 L 171.1 25.8 L 177.1 20.8 L 188.1 29.8 L 183.1 32.8 L 181.717142868042 33.37619047164917 L 181.5 34.1 L 180.0 39.3 L 178.3 44.5 L 176.4 49.9 L 174.5 55.4 L 172.3 60.9 L 170.0 66.6 L 167.5 72.3 L 164.7 78.0 L 162.24681015014647 82.58983907699584 L 168.8 86.6 L 173.8 92.6 L 177.7 99.4 L 180.5 106.8 L 182.4 114.4 L 183.6 121.9 L 184.1 129.1 L 184.2 135.7 L 183.8 141.7 L 183.1 146.8 L 182.4 149.2 Z M 125.8 170.4 L 124.3 167.7 L 122.5 165.0 L 120.5 162.3 L 118.3 159.5 L 115.8 156.8 L 113.2 154.0 L 110.74849786758423 151.46094417572021 L 109.2 156.3 L 106.1 163.2 L 102.3 169.5 L 97.7 175.1 L 92.4 180.0 L 86.5 184.1 L 79.9 187.3 L 78.9 185.8 L 84.2 181.1 L 88.7 176.1 L 92.6 171.0 L 95.8 165.5 L 98.4 159.6 L 100.4 153.4 L 101.8 146.7 L 101.98028173446656 145.1 L 79.4 145.1 L 79.4 141.1 L 102.43098592758179 141.1 L 102.6 139.6 L 102.8 132.0 L 102.44846525192261 124.79353799819947 L 102.4 124.8 L 102.3 121.5 L 114.4 123.2 L 117.5 125.1 L 114.31249151229858 127.18163824081421 L 114.2 132.3 L 113.3 140.8 L 113.23625001907348 141.1 L 120.6 141.1 L 130.6 131.1 L 142.6 141.1 L 142.6 145.1 L 112.38625001907349 145.1 L 111.65507879257203 148.54080562591554 L 112.0 148.7 L 115.8 150.4 L 119.4 152.3 L 122.8 154.4 L 126.0 156.6 L 128.9 159.0 L 131.7 161.6 L 134.3 164.2 L 136.7 167.1 L 138.8 170.0 L 139.3 174.6 L 136.4 178.2 L 131.9 178.6 L 128.3 175.7 L 127.1 173.1 Z M 15.8 186.8 L 12.8 183.4 L 13.0 178.8 L 14.3 176.9 L 15.5 174.6 L 16.7 172.0 L 17.8 169.1 L 18.9 165.9 L 19.9 162.4 L 20.8 158.7 L 21.7 154.6 L 22.7 150.3 L 23.3 145.6 L 25.1 145.6 L 25.6 150.3 L 26.2 154.9 L 26.5 159.2 L 26.7 163.3 L 26.6 167.2 L 26.4 170.9 L 26.0 174.5 L 25.5 177.8 L 24.7 181.0 L 23.8 184.1 L 20.3 187.1 Z M 50.5 166.2 L 50.3 163.6 L 49.9 160.9 L 49.4 158.2 L 48.9 155.6 L 47.5 150.2 L 46.7 147.5 L 45.4 144.9 L 46.9 143.9 L 48.8 146.1 L 51.0 148.2 L 53.0 150.5 L 54.8 152.9 L 56.4 155.4 L 58.0 158.1 L 59.3 160.9 L 60.6 163.8 L 61.7 166.8 L 62.6 169.9 L 61.5 174.3 L 57.6 176.7 L 53.2 175.6 L 50.7 171.7 L 50.7 168.9 Z M 39.2 180.9 L 35.1 178.9 L 33.5 174.6 L 34.0 172.4 L 34.3 170.0 L 34.5 167.5 L 34.7 164.8 L 34.6 162.0 L 34.5 159.1 L 34.2 156.0 L 33.9 152.7 L 33.5 149.3 L 32.6 145.9 L 34.3 145.2 L 36.0 148.4 L 37.8 151.4 L 39.5 154.5 L 40.9 157.5 L 42.1 160.5 L 43.1 163.5 L 44.0 166.5 L 44.7 169.4 L 45.2 172.3 L 45.5 175.3 L 43.5 179.3 Z M 68.1 163.0 L 66.1 157.8 L 62.8 150.6 L 61.7 148.3 L 60.5 145.9 L 59.0 143.9 L 60.3 142.6 L 62.3 144.2 L 64.7 145.6 L 66.9 147.2 L 69.1 149.1 L 71.2 151.1 L 73.2 153.2 L 75.2 155.5 L 79.0 160.5 L 80.8 163.2 L 81.0 167.8 L 78.0 171.3 L 73.4 171.5 L 70.0 168.4 L 69.1 165.7 Z M 20.8 139.4 L 20.8 72.18461542129516 L 17.8 76.8 L 13.4 82.7 L 11.8 81.8 L 14.4 75.1 L 16.9 68.4 L 19.3 61.8 L 21.6 55.2 L 23.7 48.5 L 25.7 41.8 L 27.4 35.0 L 29.0 28.2 L 30.3 21.4 L 31.34260654449463 15.405012512207032 L 31.3 15.4 L 31.8 12.6 L 43.2 16.8 L 45.8 19.3 L 42.23779973983765 20.59534559249878 L 41.4 23.9 L 39.3 31.0 L 38.83333330154419 32.4 L 55.6 32.4 L 61.6 27.4 L 72.6 36.4 L 67.6 39.4 L 65.30684928894043 40.35547943115235 L 64.2 42.5 L 62.6 45.5 L 60.9 48.5 L 57.3 54.5 L 55.4 57.4 L 53.3 60.3 L 51.17857141494751 63.0 L 67.6 63.0 L 72.1 58.0 L 81.6 67.0 L 76.6 69.5 L 76.6 133.9 L 67.6 138.4 L 67.6 133.9 L 31.8 133.9 Z M 31.8 100.5 L 31.8 129.9 L 44.2 129.9 L 44.2 100.5 Z M 54.2 100.5 L 54.2 129.9 L 67.6 129.9 L 67.6 100.5 Z M 129.5 17.9 L 131.8 20.7 L 127.48087434768676 21.685063743591307 L 127.2 22.2 L 125.9 24.3 L 124.6 26.5 L 123.1 28.6 L 121.7 30.7 L 120.1 32.8 L 118.4 34.9 L 116.6 36.9 L 115.5043478012085 38.7 L 118.2 38.7 L 128.2 28.7 L 140.2 38.7 L 140.2 42.7 L 118.4 42.7 L 118.4 56.5 L 126.7 56.5 L 131.2 51.5 L 140.7 60.5 L 135.7 63.0 L 135.7 122.9 L 126.7 127.4 L 126.7 118.9 L 92.2 118.9 L 92.2 125.9 L 84.2 129.9 L 84.2 52.5 L 92.2 56.5 L 99.2 56.5 L 99.2 42.7 L 79.6 42.7 L 79.6 38.7 L 114.31111106872558 38.7 L 113.6 38.3 L 114.5 35.9 L 114.9 33.2 L 115.9 28.2 L 116.3 25.8 L 116.8 23.4 L 117.2 21.0 L 117.5 18.7 L 117.97186441421509 15.239661026000977 L 117.8 15.2 L 118.6 12.7 Z M 92.2 103.1 L 92.2 114.9 L 126.7 114.9 L 126.7 103.1 Z M 118.7 76.0 L 119.0 76.9 L 119.3 77.6 L 119.7 78.1 L 120.2 78.5 L 120.9 78.8 L 121.74193544387818 79.08064517974853 L 125.6 70.4 L 126.7 70.4 L 126.7 60.5 L 118.4 60.5 L 118.4 73.4 L 118.5 74.9 Z M 31.8 67.0 L 31.8 96.5 L 44.2 96.5 L 44.2 67.0 Z M 54.2 67.0 L 54.2 96.5 L 67.6 96.5 L 67.6 67.0 Z M 37.5 36.4 L 37.0 37.9 L 34.5 44.7 L 31.7 51.5 L 28.6 58.0 L 27.223312854766846 60.71165647506714 L 31.8 63.0 L 48.11176471710205 63.0 L 48.5 61.8 L 49.4 58.4 L 50.2 55.0 L 51.1 51.7 L 52.0 48.5 L 52.9 45.2 L 54.5 38.8 L 55.025 36.4 Z M 107.2 42.7 L 107.2 56.5 L 110.4 56.5 L 110.4 42.7 Z M 96.0 30.0 L 95.9 28.3 L 95.8 26.7 L 95.6 25.0 L 95.0 21.6 L 94.5 19.8 L 94.1 18.0 L 93.0 16.5 L 94.4 15.3 L 95.7 16.7 L 97.4 17.8 L 99.0 19.0 L 100.5 20.4 L 101.9 21.8 L 103.3 23.4 L 104.5 25.1 L 105.6 26.8 L 106.7 28.7 L 107.6 30.6 L 106.8 35.1 L 103.1 37.7 L 98.6 36.9 L 95.9 33.2 L 96.0 31.6 Z M 126.7 74.45 L 125.6 79.4 L 126.7 80.13333330154418 Z M 122.1 87.3 L 119.8 86.9 L 117.7 86.2 L 115.8 85.1 L 114.1 83.7 L 112.7 82.0 L 111.6 80.1 L 110.9 78.0 L 110.5 75.8 L 110.4 73.4 L 110.4 60.5 L 107.19111108779907 60.5 L 106.8 64.9 L 106.2 69.1 L 105.4 73.2 L 104.4 77.0 L 103.2 80.7 L 101.7 84.1 L 100.0 87.4 L 98.0 90.4 L 95.8 93.1 L 93.5 95.6 L 92.6 94.9 L 94.2 92.0 L 95.4 88.9 L 96.5 85.8 L 97.4 82.6 L 98.1 79.2 L 98.7 75.8 L 99.1 72.2 L 99.3 68.4 L 99.3 64.5 L 99.20243902206421 60.5 L 92.2 60.5 L 92.2 99.1 L 126.7 99.1 L 126.7 86.66666669845581 L 125.6 87.4 L 124.4 87.4 Z " />
</g>
</svg>