<svg xmlns="http://www.w3.org/2000/svg" xmlns:xlink="http://www.w3.org/1999/xlink" version="1.1" baseProfile="full" viewBox="0 0 200 200" width="200" height="200">
<g fill="black">
<path d="M 86.7 161.1 L 88.1 164.4 L 84.11064472198487 164.26476764678955 L 84.0 164.4 L 81.0 167.5 L 77.9 170.6 L 74.6 173.6 L 71.0 176.4 L 67.2 179.2 L 63.2 181.8 L 59.0 184.3 L 54.5 186.5 L 49.8 188.7 L 48.9 187.2 L 52.6 183.7 L 59.4 176.9 L 62.5 173.6 L 65.4 170.4 L 68.1 167.2 L 70.6 164.0 L 72.8 160.8 L 74.9 157.6 L 76.7 154.4 L 76.74405288696289 154.42951545715331 L 77.2 153.7 Z M 45.3 143.8 L 44.7 141.0 L 43.9 138.2 L 42.8 135.4 L 41.6 132.4 L 40.2 129.5 L 38.7 126.76470584869385 L 38.7 183.5 L 28.7 188.5 L 28.7 140.49259262084962 L 28.5 141.1 L 25.7 148.8 L 22.6 156.0 L 19.3 162.6 L 15.7 168.5 L 11.9 173.9 L 7.7 178.5 L 6.2 177.4 L 8.6 171.9 L 11.0 166.1 L 13.3 159.9 L 15.5 153.2 L 17.6 146.1 L 19.6 138.5 L 21.5 130.4 L 23.1 121.8 L 24.7 112.6 L 25.620930194854736 106.0 L 21.2 106.0 L 21.2 118.0 L 10.2 123.5 L 10.2 60.5 L 21.2 66.0 L 28.7 66.0 L 28.7 44.0 L 7.5 44.0 L 7.5 40.0 L 28.7 40.0 L 28.7 12.0 L 38.7 14.0 L 41.2 16.0 L 38.7 17.66666669845581 L 38.7 40.0 L 41.81818180084228 40.0 L 50.0 31.0 L 60.0 40.0 L 60.0 44.0 L 38.7 44.0 L 38.7 66.0 L 47.3 66.0 L 51.8 61.0 L 61.3 70.0 L 56.3 72.5 L 56.3 108.0 L 47.3 112.5 L 47.3 106.0 L 38.7 106.0 L 38.7 121.4 L 41.8 123.6 L 44.6 126.1 L 47.2 128.7 L 49.5 131.4 L 51.6 134.3 L 53.5 137.3 L 55.1 140.3 L 56.5 143.5 L 57.7 146.9 L 56.7 151.3 L 53.0 153.9 L 48.5 152.9 L 45.9 149.1 L 45.7 146.5 Z M 105.6 175.2 L 104.2 172.4 L 102.8 169.8 L 101.3 167.2 L 99.6 164.7 L 97.8 162.2 L 95.9 159.8 L 93.9 157.4 L 91.6 155.2 L 92.6 153.7 L 95.5 155.1 L 98.6 156.5 L 101.5 158.1 L 104.3 160.0 L 107.0 162.1 L 109.6 164.4 L 112.0 166.9 L 114.3 169.6 L 116.5 172.5 L 118.6 175.6 L 118.9 180.1 L 115.9 183.6 L 111.4 183.9 L 107.9 180.9 L 106.8 178.0 Z M 187.3 145.0 L 189.3 145.0 L 187.3 170.0 L 190.9 172.4 L 193.3 176.0 L 190.9 179.6 L 187.3 182.0 L 171.2 182.0 L 168.6 181.8 L 166.2 181.4 L 163.7 180.6 L 161.5 179.3 L 159.5 177.7 L 157.8 175.7 L 156.6 173.4 L 155.8 171.0 L 155.3 168.5 L 155.2 166.0 L 155.2 122.0 L 152.82692308425902 122.0 L 152.0 130.6 L 150.4 140.2 L 148.2 149.1 L 145.5 157.3 L 142.2 164.7 L 138.3 171.3 L 133.8 177.1 L 128.7 182.0 L 123.1 185.9 L 117.0 188.7 L 116.1 187.2 L 120.8 182.9 L 124.9 178.2 L 128.5 173.1 L 131.7 167.5 L 134.4 161.2 L 136.7 154.3 L 138.5 146.7 L 139.8 138.4 L 140.7 129.4 L 140.9361701965332 122.0 L 137.4 122.0 L 137.4 134.0 L 125.4 140.0 L 125.4 19.0 L 137.4 25.0 L 170.1 25.0 L 176.1 20.0 L 187.1 29.0 L 182.1 33.0 L 182.1 128.0 L 170.1 134.0 L 170.1 122.0 L 167.2 122.0 L 167.2 166.0 L 167.3 167.2 L 167.4 168.1 L 167.6 168.7 L 167.8 169.0 L 168.0 169.2 L 168.1 169.4 L 168.5 169.5 L 169.1 169.7 L 170.0 169.9 L 171.2 170.0 L 181.3 170.0 Z M 118.8 26.0 L 118.8 30.0 L 95.70344829559326 30.0 L 94.4 32.7 L 91.4 38.5 L 88.2 43.9 L 86.4 46.6 L 84.6 49.1 L 82.7 51.6 L 80.7 53.9 L 80.62799997329712 54.0 L 100.8 54.0 L 106.8 49.0 L 117.8 58.0 L 112.8 62.0 L 112.8 144.0 L 100.8 150.0 L 100.8 144.0 L 74.7 144.0 L 64.7 149.0 L 64.7 49.0 L 74.7 54.0 L 77.83571424484253 54.0 L 78.3 52.7 L 79.0 49.7 L 80.4 43.9 L 81.2 41.0 L 81.8 38.0 L 82.5 35.1 L 83.2 32.1 L 83.61999998092651 30.0 L 58.9 30.0 L 58.9 26.0 L 100.61818180084228 26.0 L 108.8 17.0 Z M 74.7 115.0 L 74.7 140.0 L 100.8 140.0 L 100.8 115.0 Z M 137.4 90.0 L 137.4 118.0 L 170.1 118.0 L 170.1 90.0 Z M 74.7 87.0 L 74.7 111.0 L 100.8 111.0 L 100.8 87.0 Z M 21.2 70.0 L 21.2 102.0 L 28.7 102.0 L 28.7 70.0 Z M 38.7 70.0 L 38.7 102.0 L 47.3 102.0 L 47.3 70.0 Z M 137.4 60.0 L 137.4 86.0 L 170.1 86.0 L 170.1 60.0 Z M 74.7 58.0 L 74.7 83.0 L 100.8 83.0 L 100.8 58.0 Z M 137.4 29.0 L 137.4 56.0 L 170.1 56.0 L 170.1 29.0 Z " />
</g>
</svg>
