<svg xmlns="http://www.w3.org/2000/svg" xmlns:xlink="http://www.w3.org/1999/xlink" version="1.1" baseProfile="full" viewBox="0 0 200 200" width="200" height="200">
<g fill="black">
<path d="M 89.3 99.2 L 127.3 99.2 L 127.3 75.5 L 99.0 75.5 L 99.0 71.5 L 127.3 71.5 L 127.3 49.5 L 139.3 51.5 L 142.3 53.5 L 139.3 55.3 L 139.3 71.5 L 142.4181818008423 71.5 L 150.6 62.5 L 160.42630271911622 71.34367246627808 L 162.7 68.0 L 168.51538457870484 58.30769233703613 L 168.5 58.3 L 169.5 56.6 L 179.3 63.7 L 180.8 67.0 L 177.12210893630981 66.93658809661865 L 172.1 74.4 L 164.5 84.4 L 156.4 93.9 L 151.39775276184082 99.2 L 165.9 99.2 L 175.9 89.2 L 187.9 99.2 L 187.9 103.2 L 147.5707317352295 103.2 L 139.2 111.0 L 129.9 118.6 L 124.75217390060425 122.3 L 161.5 122.3 L 167.5 117.3 L 178.5 126.3 L 173.5 130.3 L 173.5 179.0 L 161.5 185.0 L 161.5 175.0 L 119.2 175.0 L 119.2 182.0 L 107.2 188.0 L 107.2 133.2714285850525 L 99.7 137.2 L 88.8 141.9 L 88.0 140.3 L 97.9 133.9 L 107.2 127.27127656936645 L 107.2 116.3 L 115.84848480224609 120.62424240112304 L 116.4 120.2 L 125.1 112.7 L 133.4 104.8 L 134.90476188659667 103.2 L 89.3 103.2 Z M 35.2 115.8 L 72.6 115.8 L 78.6 110.8 L 89.6 119.8 L 84.6 123.8 L 84.6 178.6 L 72.6 184.6 L 72.6 174.6 L 35.2 174.6 L 35.2 181.6 L 23.2 187.6 L 23.2 109.8 Z M 119.2 150.7 L 119.2 171.0 L 161.5 171.0 L 161.5 150.7 Z M 35.2 147.2 L 35.2 170.6 L 72.6 170.6 L 72.6 147.2 Z M 119.2 126.3 L 119.2 146.7 L 161.5 146.7 L 161.5 126.3 Z M 35.2 119.8 L 35.2 143.2 L 72.6 143.2 L 72.6 119.8 Z M 76.9 88.1 L 75.3 85.9 L 73.6 83.7 L 71.6 81.6 L 69.3 79.5 L 66.9 77.5 L 64.2 75.5 L 61.4 73.5689655303955 L 61.4 106.1 L 49.4 112.1 L 49.4 76.51764707565307 L 48.2 78.6 L 44.4 84.3 L 40.3 89.8 L 35.7 95.1 L 30.8 100.2 L 25.5 105.0 L 19.7 109.6 L 13.4 113.8 L 12.2 112.4 L 17.1 106.8 L 21.6 101.3 L 25.9 95.8 L 29.8 90.4 L 33.4 84.9 L 36.6 79.4 L 39.4 73.8 L 41.9 68.1 L 44.0 62.5 L 44.535897445678714 60.6 L 13.8 60.6 L 13.8 56.6 L 49.4 56.6 L 49.4 34.339999961853025 L 48.1 34.6 L 40.8 35.7 L 33.2 36.6 L 25.2 37.1 L 16.9 37.2 L 16.7 35.4 L 24.6 33.4 L 32.2 31.3 L 39.5 29.3 L 46.3 27.2 L 52.8 25.1 L 58.8 22.8 L 64.5 20.4 L 69.8 17.8 L 74.7 15.2 L 78.4231650352478 12.93372564315796 L 78.4 12.9 L 78.42972974777221 12.929729747772218 L 79.3 12.4 L 81.13555555343628 15.63555555343628 L 87.2 21.7 L 87.3 25.1 L 83.57236747741699 23.583674907684326 L 79.8 25.4 L 74.1 27.7 L 68.1 29.7 L 61.8 31.6 L 61.4 31.695522403717042 L 61.4 56.6 L 73.0 56.6 L 83.0 46.6 L 95.0 56.6 L 95.0 60.6 L 61.4 60.6 L 61.4 70.7054054260254 L 62.3 70.9 L 65.9 71.6 L 69.5 72.6 L 72.8 73.8 L 76.0 75.3 L 79.0 77.0 L 81.9 78.9 L 84.6 81.1 L 87.1 83.5 L 89.5 86.1 L 90.3 90.6 L 87.7 94.4 L 83.2 95.2 L 79.4 92.7 L 78.3 90.3 Z M 139.3 75.5 L 139.3 98.52658224105835 L 141.3 96.4 L 148.8 87.4 L 155.9 78.0 L 157.6 75.5 Z M 160.7 14.6 L 163.7 16.6 L 160.7 18.4 L 160.7 30.9 L 165.6 30.9 L 175.6 20.9 L 187.6 30.9 L 187.6 34.9 L 160.7 34.9 L 160.7 48.4 L 148.7 54.4 L 148.7 34.9 L 129.4 34.9 L 129.4 48.4 L 117.4 54.4 L 117.4 34.9 L 90.4 34.9 L 90.4 30.9 L 117.4 30.9 L 117.4 12.6 L 129.4 14.6 L 132.4 16.6 L 129.4 18.4 L 129.4 30.9 L 148.7 30.9 L 148.7 12.6 Z " />
</g>
</svg>
