<svg xmlns="http://www.w3.org/2000/svg" xmlns:xlink="http://www.w3.org/1999/xlink" version="1.1" baseProfile="full" viewBox="0 0 200 200" width="200" height="200">
<g fill="black">
<path d="M 44.6 130.0 L 44.6 110.6 L 32.3 110.6 L 32.3 127.9 L 32.18000001907349 130.0 Z M 132.0 175.0 L 152.0 175.0 L 153.2 174.9 L 154.1 174.7 L 155.0 174.4 L 155.4 174.0 L 155.7 173.1 L 155.9 172.2 L 156.0 171.0 L 156.0 123.0 L 130.99463090896606 123.0 L 130.3 125.3 L 125.2 138.8 L 119.4 150.9 L 112.9 161.5 L 105.7 170.5 L 104.2 169.4 L 109.6 159.5 L 114.6 148.6 L 119.1 136.4 L 123.1 123.1 L 123.12397260665894 123.0 L 105.0 123.0 L 105.0 119.0 L 124.0828766822815 119.0 L 126.6 108.5 L 129.5 92.5 L 129.57267446517943 92.0 L 104.0 92.0 L 104.0 88.0 L 130.15406980514527 88.0 L 132.0 75.3 L 132.71027030944825 68.0 L 113.0 68.0 L 113.0 64.0 L 133.09945945739747 64.0 L 133.8 56.8 L 134.6301507949829 45.0 L 107.0 45.0 L 107.0 41.0 L 134.91155776977538 41.0 L 135.2 36.9 L 135.9 15.7 L 135.93026485443116 15.701261043548584 L 136.0 13.4 L 147.9 16.2 L 150.8 18.3 L 147.65066680908203 20.02904567718506 L 146.5 37.7 L 146.17164182662964 41.0 L 162.0 41.0 L 172.0 31.0 L 184.0 41.0 L 184.0 45.0 L 145.7736318588257 45.0 L 144.5 57.8 L 143.64708995819092 64.0 L 158.8181818008423 64.0 L 167.0 55.0 L 177.0 64.0 L 177.0 68.0 L 143.09682540893556 68.0 L 141.9 76.7 L 139.8337142944336 88.0 L 165.0 88.0 L 175.0 78.0 L 187.0 88.0 L 187.0 92.0 L 139.10228567123414 92.0 L 138.7 94.2 L 134.8 110.4 L 132.20268459320067 119.0 L 156.0 119.0 L 156.0 96.0 L 168.0 98.0 L 171.0 100.0 L 168.0 101.8 L 168.0 119.0 L 172.7777777671814 119.0 L 179.0 112.0 L 187.0 119.0 L 187.0 123.0 L 168.0 123.0 L 168.0 171.0 L 167.8 173.5 L 167.4 176.0 L 166.6 178.4 L 165.3 180.7 L 163.7 182.7 L 161.7 184.3 L 159.4 185.6 L 157.0 186.4 L 154.5 186.8 L 152.0 187.0 L 152.0 181.0 L 132.0 178.0 Z M 47.4 137.0 L 50.4 139.0 L 47.4 140.8 L 47.4 149.2 L 50.8777777671814 149.2 L 57.1 142.2 L 65.1 149.2 L 65.1 153.2 L 47.4 153.2 L 47.4 168.6629630088806 L 50.0 167.7 L 52.8 166.7 L 55.9 165.6 L 59.2 164.5 L 62.7 163.3 L 66.2 161.6 L 67.2 163.2 L 64.0 165.5 L 61.2 168.0 L 58.6 170.3 L 56.1 172.4 L 53.7 174.3 L 51.5 176.1 L 49.4 177.8 L 47.5 179.3 L 45.7 180.7 L 44.1 182.0 L 44.06708078384399 181.932919216156 L 39.4 186.6 L 29.4 176.6 L 35.4 170.6 L 35.4 135.0 Z M 98.31672239303589 150.69699001312256 L 97.77008924484252 150.49821424484253 L 97.0 150.9 L 94.5 152.2 L 91.9 153.5 L 89.2 154.8 L 86.4 156.1 L 83.4 157.3 L 80.2 158.5 L 79.2 158.86363639831544 L 79.2 167.6 L 79.3 168.9 L 79.4 169.8 L 79.6 170.4 L 79.8 170.7 L 80.0 170.9 L 80.2 171.0 L 80.5 171.2 L 81.1 171.4 L 82.0 171.6 L 93.3 171.6 Z M 139.5 153.1 L 138.9 150.9 L 138.2 148.7 L 137.4 146.5 L 136.5 144.4 L 135.4 142.2 L 133.0 138.0 L 131.2 136.3 L 132.3 134.8 L 134.5 136.2 L 136.9 137.3 L 139.2 138.8 L 141.4 140.4 L 143.5 142.3 L 145.4 144.3 L 147.2 146.6 L 148.9 149.0 L 150.4 151.6 L 151.8 154.3 L 151.3 158.8 L 147.8 161.8 L 143.3 161.3 L 140.3 157.9 L 140.0 155.5 Z M 54.6 110.6 L 54.6 130.0 L 66.6 130.0 L 66.6 110.6 Z M 76.6 110.6 L 76.6 130.0 L 86.5 130.0 L 86.5 110.6 Z M 32.3 93.4 L 32.3 106.6 L 44.6 106.6 L 44.6 93.4 Z M 54.6 93.4 L 54.6 106.6 L 66.6 106.6 L 66.6 93.4 Z M 77.2 63.0 L 77.2 61.2 L 77.0 59.2 L 76.7 57.0 L 76.2 54.8 L 75.6 52.5 L 74.8 50.0 L 74.7 49.73999996185303 L 74.7 73.4 L 66.36511631011963 77.56744184494019 L 66.8 78.2 L 67.8 79.9 L 67.0 84.4 L 63.3 87.2 L 58.8 86.4 L 56.1 82.7 L 56.2 81.5 L 56.3 80.2 L 56.2 78.8 L 56.0 77.3 L 55.7 75.6 L 55.3 73.9 L 54.7 72.1 L 54.1 70.1 L 53.8 69.35 L 53.8 75.7 L 43.8 80.7 L 43.8 67.46666669845581 L 43.3 68.9 L 39.2 71.0 L 34.9 69.5 L 32.8 65.4 L 33.1 64.0 L 33.3 62.4 L 33.3 60.6 L 33.2 58.8 L 32.9 56.7 L 32.5 54.6 L 31.9 52.3 L 31.2 49.9 L 30.6 47.75714282989502 L 30.6 76.4 L 19.6 81.9 L 19.6 33.1 L 30.6 38.6 L 43.8 38.6 L 48.8 33.6 L 58.8 42.6 L 53.8 45.6 L 53.8 65.52666664123535 L 54.9 66.7 L 56.9 67.9 L 58.6 69.2 L 60.3 70.6 L 61.8 72.0 L 63.2 73.5 L 63.7 74.07692308425904 L 63.7 33.1 L 74.7 38.6 L 87.6 38.6 L 93.6 33.6 L 104.6 42.6 L 99.6 46.6 L 99.6 73.1 L 87.6 79.1 L 87.6 69.13999996185302 L 87.3 70.0 L 83.2 72.0 L 78.9 70.5 L 76.8 66.4 L 77.1 64.8 Z M 74.7 42.6 L 74.7 44.95 L 75.7 46.0 L 77.9 47.9 L 80.0 49.9 L 81.8 51.9 L 83.4 54.0 L 84.9 56.2 L 86.1 58.5 L 87.2 60.8 L 87.6 61.86666669845581 L 87.6 42.6 Z M 30.6 42.6 L 30.6 44.022222232818606 L 32.3 46.1 L 34.4 47.9 L 36.3 49.9 L 38.0 51.8 L 39.6 53.8 L 41.0 55.9 L 42.2 58.0 L 43.2 60.1 L 43.8 61.56666669845581 L 43.8 42.6 Z M 101.8 22.4 L 101.8 26.4 L 62.6 26.4 L 62.6 22.4 L 83.61818180084228 22.4 L 91.8 13.4 Z M 59.4 22.4 L 59.4 26.4 L 16.2 26.4 L 16.2 22.4 L 41.21818180084229 22.4 L 49.4 13.4 Z M 105.3 177.6 L 102.9 181.2 L 99.3 183.6 L 83.2 183.6 L 80.7 183.5 L 78.2 183.1 L 75.8 182.2 L 73.5 181.0 L 71.5 179.4 L 69.8 177.4 L 68.6 175.1 L 67.8 172.7 L 67.4 170.2 L 67.2 167.6 L 67.2 136.0 L 79.2 138.0 L 82.2 140.0 L 79.2 141.8 L 79.2 153.99166669845582 L 80.5 152.8 L 82.8 150.6 L 85.0 148.5 L 88.9 144.6 L 90.7 142.7 L 92.4 140.9 L 93.21755323410034 139.91893615722657 L 93.1 139.8 L 94.0 139.0 L 100.14468088150025 146.6 L 101.3 146.6 L 101.19597702026367 147.90028734207152 L 101.6 148.4 L 101.9 152.0 L 100.89717311859131 151.63533573150636 L 99.3 171.6 L 102.9 174.0 Z M 31.9 134.9 L 31.2 141.7 L 30.2 148.3 L 28.9 154.6 L 27.3 160.7 L 25.4 166.6 L 23.2 172.2 L 20.7 177.5 L 17.8 182.5 L 14.5 187.2 L 13.0 186.4 L 14.6 181.1 L 16.1 175.7 L 17.5 170.3 L 18.7 164.7 L 19.7 159.0 L 20.5 153.2 L 21.0 147.1 L 21.3 140.9 L 21.4 134.5 L 21.3 127.9 L 21.3 83.9 L 32.3 89.4 L 78.1 89.4 L 88.1 79.4 L 100.1 89.4 L 100.1 93.4 L 76.6 93.4 L 76.6 106.6 L 86.5 106.6 L 92.0 101.6 L 102.5 110.6 L 97.5 114.1 L 97.5 134.0 L 86.5 139.5 L 86.5 134.0 L 31.951428604125976 134.0 Z " />
</g>
</svg>
