<svg xmlns="http://www.w3.org/2000/svg" xmlns:xlink="http://www.w3.org/1999/xlink" version="1.1" baseProfile="full" viewBox="0 0 200 200" width="200" height="200">
<g fill="black">
<path d="M 15.5 187.7 L 12.7 184.1 L 13.1 179.5 L 14.5 177.6 L 15.8 175.3 L 17.1 172.8 L 18.3 169.9 L 19.4 166.7 L 20.5 163.2 L 21.5 159.4 L 22.4 155.4 L 23.4 151.0 L 24.1 146.3 L 25.9 146.3 L 26.4 151.1 L 26.9 155.6 L 27.2 160.0 L 27.3 164.1 L 27.2 168.1 L 26.9 171.9 L 26.4 175.5 L 25.7 178.9 L 24.8 182.2 L 23.7 185.3 L 20.1 188.1 Z M 55.2 167.2 L 54.4 161.8 L 53.8 159.1 L 53.1 156.5 L 52.3 153.7 L 51.3 151.0 L 50.3 148.2 L 48.9 145.6 L 50.3 144.5 L 52.4 146.7 L 54.8 148.8 L 56.9 151.1 L 58.9 153.5 L 60.7 156.1 L 62.3 158.7 L 63.8 161.6 L 65.2 164.5 L 66.3 167.5 L 67.4 170.6 L 66.3 175.1 L 62.4 177.6 L 58.0 176.5 L 55.5 172.6 L 55.4 169.9 Z M 41.8 181.8 L 37.7 179.7 L 36.2 175.4 L 36.6 173.2 L 37.0 170.9 L 37.2 168.4 L 37.2 165.7 L 37.1 162.9 L 36.9 159.9 L 36.6 156.8 L 36.1 153.5 L 35.6 150.1 L 34.5 146.6 L 36.2 145.9 L 38.0 149.1 L 40.0 152.1 L 41.7 155.1 L 43.3 158.2 L 44.6 161.2 L 45.7 164.2 L 46.6 167.2 L 47.3 170.2 L 47.8 173.2 L 48.1 176.2 L 46.1 180.2 Z M 153.9 179.2 L 152.4 181.1 L 150.6 182.8 L 148.6 184.2 L 146.5 185.4 L 144.2 186.3 L 141.8 187.0 L 139.3 187.3 L 136.8 187.4 L 136.8 181.4 L 116.8 178.4 L 116.8 175.4 L 138.2 175.4 L 139.4 175.2 L 140.4 174.9 L 141.3 174.6 L 142.9 173.6 L 143.6 172.9 L 144.3 172.1 L 144.9 171.1 L 145.6 169.9 L 146.6 167.2 L 147.6 163.4 L 148.6 158.6 L 149.5 152.9 L 150.4 146.2 L 151.1 138.6 L 151.33999996185304 135.2 L 92.8 135.2 L 92.8 131.2 L 151.6223529815674 131.2 L 151.7 130.1 L 152.2 120.7 L 152.5 110.5 L 152.74375 101.4 L 121.49625520706176 101.4 L 120.3 113.9 L 107.7 118.8 L 115.5 38.7 L 127.2 41.8 L 130.0 44.1 L 126.87431392669677 45.203183269500734 L 124.78834953308106 67.0 L 147.2 67.0 L 157.2 57.0 L 169.2 67.0 L 169.2 71.0 L 124.40554780960083 71.0 L 121.87905683517457 97.4 L 152.8 97.4 L 158.8 92.4 L 169.8 101.4 L 164.8 104.4 L 164.668456363678 104.4548098564148 L 164.5 110.8 L 164.1 121.3 L 163.6 130.9 L 163.57931032180787 131.2 L 168.4777777671814 131.2 L 174.7 124.2 L 182.7 131.2 L 182.7 135.2 L 163.30344829559326 135.2 L 163.0 139.6 L 162.3 147.5 L 161.4 154.5 L 160.4 160.7 L 159.3 166.2 L 158.0 170.9 L 156.5 174.9 L 155.3 177.1 Z M 72.6 158.8 L 71.3 156.3 L 70.0 153.9 L 68.6 151.4 L 67.2 149.1 L 65.9 146.6 L 64.1 144.6 L 65.3 143.2 L 67.6 144.8 L 70.2 146.2 L 72.6 147.8 L 75.0 149.7 L 77.3 151.7 L 79.5 153.8 L 81.7 156.1 L 83.8 158.6 L 85.8 161.2 L 87.8 163.9 L 88.2 168.4 L 85.4 172.0 L 80.8 172.4 L 77.2 169.6 L 75.0 164.0 Z M 21.3 140.6 L 21.3 71.90930233001708 L 17.5 77.3 L 12.7 83.1 L 11.2 82.2 L 14.2 75.4 L 17.1 68.6 L 19.9 62.0 L 21.3 58.392307662963866 L 21.3 57.3 L 21.655000019073487 57.47749996185303 L 22.5 55.3 L 25.0 48.6 L 27.2 41.9 L 29.2 35.1 L 31.0 28.2 L 32.5 21.4 L 33.9 14.4 L 33.91363639831543 14.403030300140381 L 34.3 12.6 L 45.6 17.0 L 48.1 19.6 L 44.555555534362796 20.760000038146973 L 43.6 24.2 L 41.3 31.3 L 40.81714286804199 32.6 L 61.0 32.6 L 67.0 27.6 L 78.0 36.6 L 73.0 39.6 L 70.42020902633666 40.67491292953491 L 69.2 42.9 L 67.5 45.9 L 63.7 51.9 L 61.7 54.9 L 59.6 57.8 L 57.4 60.7 L 55.17142858505249 63.3 L 72.8 63.3 L 78.8 58.3 L 89.8 67.3 L 84.8 71.3 L 84.8 134.6 L 72.8 140.6 L 72.8 134.6 L 33.3 134.6 Z M 33.3 100.9 L 33.3 130.6 L 47.0 130.6 L 47.0 100.9 Z M 59.0 100.9 L 59.0 130.6 L 72.8 130.6 L 72.8 100.9 Z M 33.3 67.3 L 33.3 96.9 L 47.0 96.9 L 47.0 67.3 Z M 59.0 67.3 L 59.0 96.9 L 72.8 96.9 L 72.8 67.3 Z M 39.33142852783203 36.6 L 38.7 38.3 L 35.9 45.1 L 32.8 51.9 L 29.4 58.5 L 28.14878044128418 60.72439022064209 L 33.3 63.3 L 52.04117650985718 63.3 L 52.5 62.1 L 53.5 58.6 L 54.6 55.2 L 55.6 51.9 L 56.7 48.6 L 58.7 42.0 L 60.21875 36.6 Z M 91.5 61.7 L 89.2 57.8 L 90.1 53.3 L 91.2 52.2 L 92.4 50.3 L 93.5 47.7 L 94.7 44.4 L 95.7 40.6 L 96.7 36.1 L 97.6 31.0 L 98.5 25.4 L 99.4 19.3 L 100.2 12.5 L 102.0 12.5 L 102.8 19.3 L 103.33333330154419 24.1 L 170.5 24.1 L 176.5 19.1 L 187.5 28.1 L 182.5 31.1 L 180.275 32.02708330154419 L 180.0 32.6 L 178.8 35.3 L 177.4 38.1 L 176.0 41.0 L 174.4 44.0 L 172.7 47.2 L 170.8 50.5 L 168.8 54.0 L 166.9 57.6 L 165.2 57.0 L 166.2 53.0 L 166.8 49.1 L 167.4 45.4 L 168.1 41.9 L 168.7 38.5 L 169.2 35.4 L 169.7 32.4 L 170.1 29.6 L 170.27307691574097 28.1 L 103.67241382598877 28.1 L 103.9 31.4 L 104.0 36.8 L 103.9 41.7 L 103.6 46.1 L 103.1 50.2 L 102.4 53.9 L 101.3 57.2 L 99.9 60.3 L 96.0 62.7 Z " />
</g>
</svg>
