<svg xmlns="http://www.w3.org/2000/svg" xmlns:xlink="http://www.w3.org/1999/xlink" version="1.1" baseProfile="full" viewBox="0 0 200 200" width="200" height="200">
<g fill="black">
<path d="M 66.2 52.8 L 64.7 49.6 L 63.0 46.3 L 61.0 43.1 L 58.8 39.9 L 56.4 36.7 L 53.8 33.5 L 51.41359910964966 30.77268466949463 L 49.6 35.2 L 45.9 43.2 L 42.1 50.9 L 38.0 58.3 L 33.7 65.3 L 30.14777774810791 70.47388887405396 L 38.2 74.5 L 43.9 74.5 L 43.9 48.6 L 55.9 50.6 L 58.9 52.6 L 55.9 54.4 L 55.9 74.5 L 60.9 74.5 L 66.9 69.5 L 77.9 78.5 L 72.9 82.5 L 72.9 127.2 L 60.9 133.2 L 60.9 127.2 L 38.2 127.2 L 38.2 165.18235292434693 L 41.8 163.7 L 47.1 161.5 L 52.7 159.1 L 58.6 156.8 L 60.61403512954712 156.03274850845338 L 59.7 153.9 L 58.1 150.4 L 56.3 147.0 L 54.4 143.6 L 52.3 140.1 L 50.0 136.9 L 51.3 135.6 L 54.6 138.0 L 58.0 140.5 L 61.1 143.3 L 63.9 146.4 L 66.6 149.7 L 69.1 153.3 L 71.4 157.0 L 73.5 160.9 L 75.4 165.0 L 77.2 169.3 L 76.6 173.8 L 73.1 176.7 L 68.6 176.2 L 65.7 172.6 L 64.8 168.7 L 63.7 164.8 L 62.5 161.1 L 61.79631118774414 159.09719324111938 L 60.5 160.1 L 55.3 163.8 L 50.2 167.3 L 45.3 170.4 L 40.5 173.4 L 38.2 174.75 L 38.2 174.8 L 38.114814853668214 174.8 L 35.9 176.1 L 31.5 178.7 L 27.2 181.0 L 23.2 183.2 L 23.07621536254883 183.2634793281555 L 22.3 187.2 L 19.3 185.2 L 12.8 174.9 L 14.7 174.1 L 18.6 172.8 L 22.8 171.3 L 26.2 169.98636360168456 L 26.2 75.80625 L 24.3 78.3 L 19.1 84.2 L 13.7 89.5 L 12.3 88.4 L 16.1 81.9 L 19.9 75.3 L 23.6 68.5 L 27.1 61.6 L 30.5 54.4 L 33.7 47.0 L 36.7 39.3 L 39.5 31.3 L 42.2 23.1 L 44.4055214881897 15.601226997375488 L 44.4 15.6 L 45.1 13.1 L 56.1 18.2 L 58.4 21.0 L 54.78601102828979 21.887646389007568 L 53.0 26.9 L 52.69526357650757 27.643915462493897 L 53.0 27.8 L 56.9 30.0 L 60.6 32.4 L 64.0 35.1 L 67.2 38.0 L 70.1 41.0 L 72.9 44.2 L 75.4 47.6 L 77.7 51.2 L 79.7 54.9 L 79.7 59.5 L 76.5 62.8 L 71.9 62.7 L 68.6 59.5 L 67.5 56.1 Z M 150.7 175.0 L 162.0 175.0 L 162.9 174.8 L 163.5 174.6 L 163.8 174.4 L 164.0 174.3 L 164.1 174.1 L 164.3 173.8 L 164.5 173.2 L 164.7 172.3 L 164.7 148.2 L 131.8 148.2 L 131.8 181.0 L 119.8 187.0 L 119.8 92.4 L 131.8 98.4 L 164.7 98.4 L 170.7 93.4 L 181.7 102.4 L 176.7 106.4 L 176.7 171.0 L 176.6 173.6 L 176.2 176.1 L 175.3 178.5 L 174.1 180.8 L 172.5 182.8 L 170.5 184.4 L 168.2 185.6 L 165.8 186.5 L 163.3 186.9 L 160.7 187.0 L 160.7 181.0 L 150.7 178.0 Z M 110.1 92.3 L 107.5 103.6 L 105.3 113.7 L 103.3 122.7 L 101.6 130.4 L 100.3 137.0 L 99.4 142.3 L 98.8 146.4 L 98.5 149.2 L 97.37267503738403 149.0089280128479 L 98.3 151.9 L 99.6 157.9 L 100.5 164.4 L 101.1 171.6 L 101.2 179.3 L 99.2 183.4 L 94.9 185.0 L 90.8 183.0 L 89.2 178.8 L 89.7 171.6 L 89.8 165.0 L 89.7 159.1 L 89.2 153.8 L 88.5 149.0 L 88.07981805801391 147.4338674545288 L 86.7 147.2 L 87.37013511657715 144.81729726791383 L 86.1 141.3 L 84.6 138.1 L 82.7 135.2 L 80.4 132.5 L 81.3 131.0 L 85.1 132.3 L 88.6 134.6 L 90.067014503479 136.1616605758667 L 90.6 134.5 L 92.6 128.1 L 95.1 120.5 L 97.9 111.7 L 101.2 101.8 L 105.0 90.8 L 109.2 78.6 L 114.1 65.4 L 115.8 65.9 L 112.94202899932861 79.5 L 141.9 79.5 L 141.9 60.7 L 118.2 60.7 L 118.2 56.7 L 141.9 56.7 L 141.9 37.8 L 114.7 37.8 L 114.7 33.8 L 141.9 33.8 L 141.9 12.9 L 153.9 14.9 L 156.9 16.9 L 153.9 18.7 L 153.9 33.8 L 160.5 33.8 L 170.5 23.8 L 182.5 33.8 L 182.5 37.8 L 153.9 37.8 L 153.9 56.7 L 160.11818180084228 56.7 L 168.3 47.7 L 178.3 56.7 L 178.3 60.7 L 153.9 60.7 L 153.9 79.5 L 169.11818180084228 79.5 L 177.3 70.5 L 187.3 79.5 L 187.3 83.5 L 112.0555555343628 83.5 Z M 131.8 124.3 L 131.8 144.2 L 164.7 144.2 L 164.7 124.3 Z M 38.2 102.3 L 38.2 123.2 L 60.9 123.2 L 60.9 102.3 Z M 131.8 102.4 L 131.8 120.3 L 164.7 120.3 L 164.7 102.4 Z M 38.2 98.3 L 60.9 98.3 L 60.9 78.5 L 38.2 78.5 Z M 89.6 80.9 L 89.0 79.0 L 88.3 77.1 L 87.3 75.2 L 86.2 73.3 L 84.9 71.4 L 83.4 69.4 L 81.6 67.4 L 79.5 65.9 L 80.3 64.3 L 82.9 65.4 L 85.6 66.3 L 88.1 67.4 L 90.5 68.7 L 92.7 70.3 L 94.9 72.0 L 96.8 73.9 L 98.6 76.0 L 100.2 78.3 L 101.7 80.7 L 101.3 85.3 L 98.0 88.3 L 93.4 88.0 L 90.3 84.7 L 90.0 82.8 Z M 98.2 35.2 L 97.6 33.2 L 96.8 31.3 L 95.9 29.4 L 94.8 27.5 L 93.6 25.6 L 92.2 23.6 L 90.7 21.7 L 88.7 20.1 L 89.6 18.6 L 91.9 19.7 L 94.5 20.6 L 96.9 21.7 L 99.2 23.0 L 101.4 24.6 L 103.4 26.3 L 105.4 28.1 L 107.1 30.2 L 108.8 32.4 L 110.3 34.8 L 110.1 39.4 L 106.8 42.5 L 102.2 42.4 L 99.1 39.1 L 98.7 37.1 Z " />
</g>
</svg>
