<svg xmlns="http://www.w3.org/2000/svg" xmlns:xlink="http://www.w3.org/1999/xlink" version="1.1" baseProfile="full" viewBox="0 0 200 200" width="200" height="200">
<g fill="black">
<path d="M 104.3 181.4 L 92.3 187.4 L 92.3 114.87027025222778 L 90.8 117.1 L 87.1 122.3 L 83.1 127.1 L 78.9 131.3 L 74.5 135.0 L 73.2 133.8 L 76.0 129.0 L 78.7 124.0 L 81.5 118.8 L 84.3 113.3 L 87.0 107.5 L 89.7 101.5 L 92.3 95.1 L 92.3 92.6 L 93.08616352081299 92.9930817604065 L 94.8 88.4 L 97.2 81.3 L 99.26986560821533 74.91791429519654 L 99.2 74.9 L 100.1 72.5 L 110.9 77.9 L 113.1 80.8 L 109.38350925445556 81.56892910003663 L 107.8 85.4 L 104.7 92.5 L 102.21017961502075 97.5550898551941 L 104.3 98.6 L 128.49166669845582 98.6 L 129.2 97.6 L 130.5 95.0 L 131.9 92.4 L 133.2 89.9 L 135.8 84.7 L 137.0 82.0 L 138.2 79.4 L 139.4 76.7 L 140.1955093383789 74.84381160736083 L 140.1 74.8 L 141.1 73.0 L 151.0 79.8 L 152.6 83.1 L 148.38181819915772 83.17272729873658 L 147.0 84.9 L 144.9 87.3 L 142.8 89.6 L 140.6 91.8 L 138.3 93.9 L 136.0 95.9 L 133.6 97.7 L 132.2764705657959 98.6 L 155.0 98.6 L 165.0 88.6 L 177.0 98.6 L 177.0 102.6 L 139.6 102.6 L 139.6 122.2 L 157.01818180084229 122.2 L 165.2 113.2 L 175.2 122.2 L 175.2 126.2 L 139.6 126.2 L 139.6 146.8 L 157.01818180084229 146.8 L 165.2 137.8 L 175.2 146.8 L 175.2 150.8 L 139.6 150.8 L 139.6 170.4 L 165.0 170.4 L 175.0 160.4 L 187.0 170.4 L 187.0 174.4 L 104.3 174.4 Z M 64.5 52.7 L 63.1 49.5 L 61.4 46.2 L 59.6 43.0 L 57.5 39.9 L 55.2 36.7 L 52.8 33.5 L 50.61519145965576 30.910597229003905 L 49.0 35.1 L 45.5 43.1 L 41.8 50.8 L 37.8 58.2 L 33.7 65.3 L 30.2 70.55 L 38.1 74.5 L 43.1 74.5 L 43.1 48.6 L 55.1 50.6 L 58.1 52.6 L 55.1 54.4 L 55.1 74.5 L 59.4 74.5 L 65.4 69.5 L 76.4 78.5 L 71.4 82.5 L 71.4 127.2 L 59.4 133.2 L 59.4 127.2 L 38.1 127.2 L 38.1 165.00200004577636 L 41.2 163.7 L 46.3 161.5 L 51.7 159.1 L 57.4 156.8 L 59.275 156.05 L 58.4 153.8 L 56.8 150.3 L 55.1 146.9 L 53.3 143.5 L 51.4 140.1 L 49.2 136.9 L 50.4 135.6 L 53.7 138.0 L 56.9 140.5 L 59.9 143.4 L 62.7 146.5 L 65.3 149.8 L 67.7 153.3 L 70.0 157.1 L 72.0 161.0 L 73.8 165.1 L 75.5 169.3 L 74.9 173.9 L 71.4 176.7 L 66.8 176.1 L 64.0 172.6 L 63.1 168.6 L 62.2 164.8 L 61.0 161.0 L 60.39947643280029 159.19842929840087 L 59.3 160.1 L 54.4 163.8 L 49.5 167.2 L 44.8 170.4 L 40.2 173.3 L 38.1 174.63636360168456 L 38.1 174.8 L 37.84285717010498 174.8 L 35.8 176.1 L 31.5 178.6 L 27.5 181.0 L 23.6 183.2 L 23.504922103881835 183.2500410079956 L 22.8 187.1 L 19.8 185.2 L 13.2 174.9 L 15.1 174.1 L 18.9 172.8 L 22.9 171.3 L 26.1 170.00476188659667 L 26.1 76.25744676589966 L 24.6 78.3 L 19.6 84.1 L 14.3 89.5 L 12.9 88.4 L 16.5 81.9 L 20.1 75.3 L 23.6 68.6 L 27.0 61.6 L 30.2 54.5 L 33.3 47.0 L 36.2 39.4 L 38.9 31.4 L 41.4 23.2 L 43.51665096282959 15.703527736663819 L 43.5 15.7 L 43.71428575515747 15.00357141494751 L 43.8 14.7 L 43.80703363418579 14.702140712738037 L 44.3 13.1 L 55.3 18.2 L 57.6 20.9 L 53.98370523452759 21.8516565322876 L 52.2 26.8 L 51.86354570388794 27.672678470611572 L 52.1 27.8 L 55.9 30.0 L 59.4 32.5 L 62.7 35.2 L 65.8 38.0 L 68.7 41.1 L 71.4 44.3 L 73.8 47.7 L 76.0 51.3 L 78.0 55.0 L 77.9 59.6 L 74.6 62.8 L 70.0 62.6 L 66.8 59.4 L 65.8 56.0 Z M 104.3 150.8 L 104.3 170.4 L 127.6 170.4 L 127.6 150.8 Z M 104.3 126.2 L 104.3 146.8 L 127.6 146.8 L 127.6 126.2 Z M 38.1 102.3 L 38.1 123.2 L 59.4 123.2 L 59.4 102.3 Z M 104.3 102.6 L 104.3 122.2 L 127.6 122.2 L 127.6 102.6 Z M 38.1 98.3 L 59.4 98.3 L 59.4 78.5 L 38.1 78.5 Z M 131.9 21.6 L 126.9 25.6 L 126.9 71.7 L 114.9 77.7 L 114.9 65.7 L 82.0 65.7 L 82.0 61.7 L 114.9 61.7 L 114.9 43.2 L 82.0 43.2 L 82.0 39.2 L 114.9 39.2 L 114.9 21.6 L 82.0 21.6 L 82.0 17.6 L 114.9 17.6 L 120.9 12.6 Z M 187.1 21.6 L 182.1 25.6 L 182.1 71.7 L 170.1 77.7 L 170.1 65.7 L 135.4 65.7 L 135.4 61.7 L 170.1 61.7 L 170.1 43.2 L 135.4 43.2 L 135.4 39.2 L 170.1 39.2 L 170.1 21.6 L 135.4 21.6 L 135.4 17.6 L 170.1 17.6 L 176.1 12.6 Z " />
</g>
</svg>
