<svg xmlns="http://www.w3.org/2000/svg" xmlns:xlink="http://www.w3.org/1999/xlink" version="1.1" baseProfile="full" viewBox="0 0 200 200" width="200" height="200">
<g fill="black">
<path d="M 15.8 186.8 L 12.8 183.4 L 13.0 178.8 L 14.3 176.9 L 15.5 174.6 L 16.7 172.0 L 17.8 169.1 L 18.9 165.9 L 19.9 162.4 L 20.8 158.7 L 21.7 154.6 L 22.7 150.3 L 23.3 145.6 L 25.1 145.6 L 25.6 150.3 L 26.2 154.9 L 26.5 159.2 L 26.7 163.3 L 26.6 167.2 L 26.4 170.9 L 26.0 174.5 L 25.5 177.8 L 24.7 181.0 L 23.8 184.1 L 20.3 187.1 Z M 149.4 184.0 L 138.8 182.8 L 129.9 180.7 L 122.5 177.6 L 116.7 173.5 L 112.2 168.5 L 109.0 162.9 L 106.8 156.6 L 106.23279237747192 153.80447673797607 L 105.9 154.4 L 104.3 157.9 L 102.6 161.2 L 100.9 164.4 L 99.1 167.6 L 97.4 170.7 L 95.6 173.7 L 93.8 176.6 L 92.62567644119262 178.60325784683226 L 93.9 182.6 L 90.3 182.3 L 79.7 176.3 L 80.9 174.8 L 83.2 172.5 L 85.6 170.2 L 88.0 167.8 L 90.4 165.3 L 92.9 162.8 L 98.1 157.8 L 98.42399997711182 157.4880000114441 L 98.2 157.6 L 98.2 92.7 L 83.9 92.7 L 83.9 88.7 L 98.2 88.7 L 104.2 83.7 L 115.2 92.7 L 110.2 96.7 L 110.2 151.6 L 109.01842107772828 152.1907895088196 L 110.7 154.9 L 114.1 159.9 L 117.7 163.8 L 121.7 166.9 L 126.5 169.2 L 132.5 170.8 L 140.2 171.9 L 149.8 172.2 L 161.7 171.8 L 176.0 170.7 L 186.9 169.8 L 177.0 183.8 L 162.1 184.4 Z M 50.5 166.2 L 50.3 163.6 L 49.9 160.9 L 49.4 158.2 L 48.9 155.6 L 47.5 150.2 L 46.7 147.5 L 45.4 144.9 L 46.9 143.9 L 48.8 146.1 L 51.0 148.2 L 53.0 150.5 L 54.8 152.9 L 56.4 155.4 L 58.0 158.1 L 59.3 160.9 L 60.6 163.8 L 61.7 166.8 L 62.6 169.9 L 61.5 174.3 L 57.6 176.7 L 53.2 175.6 L 50.7 171.7 L 50.7 168.9 Z M 39.2 180.9 L 35.1 178.9 L 33.5 174.6 L 34.0 172.4 L 34.3 170.0 L 34.5 167.5 L 34.7 164.8 L 34.6 162.0 L 34.5 159.1 L 34.2 156.0 L 33.9 152.7 L 33.5 149.3 L 32.6 145.9 L 34.3 145.2 L 36.0 148.4 L 37.8 151.4 L 39.5 154.5 L 40.9 157.5 L 42.1 160.5 L 43.1 163.5 L 44.0 166.5 L 44.7 169.4 L 45.2 172.3 L 45.5 175.3 L 43.5 179.3 Z M 68.1 163.0 L 66.1 157.8 L 62.8 150.6 L 61.7 148.3 L 60.5 145.9 L 59.0 143.9 L 60.3 142.6 L 62.3 144.2 L 64.7 145.6 L 66.9 147.2 L 69.1 149.1 L 71.2 151.1 L 73.2 153.2 L 75.2 155.5 L 79.0 160.5 L 80.8 163.2 L 81.0 167.8 L 78.0 171.3 L 73.4 171.5 L 70.0 168.4 L 69.1 165.7 Z M 116.6 151.5 L 120.2 149.8 L 123.9 148.0 L 124.95555553436279 147.5 L 123.5 147.5 L 123.5 19.7 L 135.5 25.8 L 158.0 25.8 L 164.0 20.7 L 175.0 29.8 L 170.0 33.8 L 170.0 91.8 L 158.0 97.8 L 158.0 91.8 L 135.5 91.8 L 135.5 142.6449999809265 L 139.6 140.8 L 143.7 139.0 L 147.9 137.3 L 152.3 135.6 L 156.7 134.0 L 157.6 135.5 L 150.4 141.5 L 146.8 144.3 L 143.2 147.0 L 139.7 149.7 L 132.7 154.7 L 129.3 157.1 L 126.12157897949218 159.41157894134523 L 125.9 163.4 L 122.7 161.9 L 114.8 152.6 Z M 166.7 145.9 L 164.6 141.3 L 162.2 136.8 L 159.4 132.2 L 156.3 127.7 L 152.8 123.2 L 149.0 118.7 L 144.9 114.1 L 140.5 109.3 L 141.6 107.9 L 147.3 111.1 L 152.6 114.7 L 157.5 118.6 L 159.45225400924681 120.3787202835083 L 160.4 117.9 L 161.8 114.6 L 163.1 111.4 L 164.4 108.1 L 165.7 104.9 L 167.0 101.8 L 168.2 98.6 L 169.4 95.5 L 170.24163427352906 93.25564203262329 L 170.1 93.2 L 171.1 91.2 L 181.3 97.6 L 183.1 100.8 L 179.08767127990723 101.07671232223511 L 177.5 103.5 L 175.4 106.4 L 173.3 109.2 L 171.2 112.1 L 168.9 114.9 L 166.6 117.6 L 164.1 120.3 L 161.8430233001709 122.55697669982911 L 162.0 122.7 L 166.2 127.1 L 169.9 131.6 L 173.3 136.3 L 176.3 141.2 L 178.9 146.2 L 181.2 151.4 L 180.8 156.0 L 177.3 159.0 L 172.8 158.6 L 169.8 155.2 L 168.4 150.5 Z M 20.8 139.4 L 20.8 72.18461542129516 L 17.8 76.8 L 13.4 82.7 L 11.8 81.8 L 14.4 75.1 L 16.9 68.4 L 19.3 61.8 L 21.6 55.2 L 23.7 48.5 L 25.7 41.8 L 27.4 35.0 L 29.0 28.2 L 30.3 21.4 L 31.34260654449463 15.405012512207032 L 31.3 15.4 L 31.8 12.6 L 43.2 16.8 L 45.8 19.3 L 42.23779973983765 20.59534559249878 L 41.4 23.9 L 39.3 31.0 L 38.83333330154419 32.4 L 55.6 32.4 L 61.6 27.4 L 72.6 36.4 L 67.6 39.4 L 65.30684928894043 40.35547943115235 L 64.2 42.5 L 62.6 45.5 L 60.9 48.5 L 57.3 54.5 L 55.4 57.4 L 53.3 60.3 L 51.17857141494751 63.0 L 66.6 63.0 L 72.1 58.0 L 82.6 67.0 L 77.6 70.5 L 77.6 133.9 L 66.6 139.4 L 66.6 133.9 L 31.8 133.9 Z M 31.8 100.5 L 31.8 129.9 L 44.2 129.9 L 44.2 100.5 Z M 54.2 100.5 L 54.2 129.9 L 66.6 129.9 L 66.6 100.5 Z M 31.8 67.0 L 31.8 96.5 L 44.2 96.5 L 44.2 67.0 Z M 54.2 67.0 L 54.2 96.5 L 66.6 96.5 L 66.6 67.0 Z M 135.5 59.7 L 135.5 87.8 L 158.0 87.8 L 158.0 59.7 Z M 37.5 36.4 L 37.0 37.9 L 34.5 44.7 L 31.7 51.5 L 28.6 58.0 L 27.223312854766846 60.71165647506714 L 31.8 63.0 L 48.11176471710205 63.0 L 48.5 61.8 L 49.4 58.4 L 50.2 55.0 L 51.1 51.7 L 52.0 48.5 L 52.9 45.2 L 54.5 38.8 L 55.025 36.4 Z M 135.5 29.8 L 135.5 55.7 L 158.0 55.7 L 158.0 29.8 Z M 99.5 45.3 L 98.6 42.3 L 97.6 39.3 L 96.5 36.3 L 93.9 30.5 L 90.9 24.7 L 89.0 22.0 L 90.3 20.8 L 93.0 22.9 L 95.8 24.9 L 98.3 27.2 L 100.8 29.7 L 103.1 32.3 L 105.2 35.2 L 107.2 38.1 L 109.1 41.3 L 110.8 44.5 L 112.4 48.0 L 112.0 52.5 L 108.5 55.5 L 104.0 55.0 L 101.0 51.6 L 100.3 48.4 Z " />
</g>
</svg>
