<svg xmlns="http://www.w3.org/2000/svg" xmlns:xlink="http://www.w3.org/1999/xlink" version="1.1" baseProfile="full" viewBox="0 0 200 200" width="200" height="200">
<g fill="black">
<path d="M 157.4 81.0 L 160.4 83.0 L 157.4 84.8 L 157.4 113.0 L 168.6 113.0 L 178.6 103.0 L 190.6 113.0 L 190.6 117.0 L 157.4 117.0 L 157.4 183.0 L 145.4 189.0 L 145.4 117.0 L 121.26470584869385 117.0 L 120.8 124.9 L 119.4 135.9 L 117.2 146.0 L 114.1 155.3 L 110.3 163.5 L 105.7 170.8 L 100.4 177.1 L 94.2 182.2 L 87.4 186.1 L 79.9 188.8 L 79.2 187.1 L 85.4 182.9 L 90.8 178.1 L 95.4 172.7 L 99.4 166.7 L 102.7 159.9 L 105.4 152.2 L 107.4 143.8 L 108.7 134.4 L 109.5 124.1 L 109.5 117.0 L 76.3 117.0 L 76.3 113.0 L 145.4 113.0 L 145.4 79.0 Z M 65.5 53.4 L 63.9 50.1 L 62.0 46.8 L 60.0 43.6 L 57.7 40.3 L 55.2 37.1 L 52.5 33.9 L 49.831773853302 30.863742733001708 L 47.9 35.5 L 44.2 43.6 L 40.2 51.4 L 36.0 58.9 L 31.6 66.0 L 27.9646409034729 71.18232040405273 L 36.2 75.3 L 42.4 75.3 L 42.4 49.1 L 54.4 51.1 L 57.4 53.1 L 54.4 54.9 L 54.4 75.3 L 59.9 75.3 L 65.9 70.3 L 76.9 79.3 L 71.9 83.3 L 71.9 128.4 L 59.9 134.4 L 59.9 128.4 L 36.2 128.4 L 36.2 166.875 L 40.1 165.3 L 45.6 163.0 L 51.4 160.7 L 57.5 158.3 L 59.58288288116455 157.51891889572144 L 58.7 155.4 L 57.0 151.9 L 55.1 148.4 L 53.1 145.0 L 51.0 141.5 L 48.6 138.2 L 49.8 136.9 L 53.3 139.3 L 56.7 141.8 L 59.9 144.7 L 62.8 147.8 L 65.6 151.2 L 68.1 154.7 L 70.5 158.5 L 72.7 162.5 L 74.6 166.6 L 76.4 170.9 L 75.9 175.5 L 72.4 178.4 L 67.8 177.9 L 64.9 174.3 L 64.0 170.3 L 62.9 166.5 L 61.6 162.7 L 60.76933689117432 160.50467615127565 L 59.3 161.6 L 53.9 165.4 L 48.7 168.9 L 43.6 172.1 L 38.6 175.0 L 36.2 176.4297872543335 L 36.2 176.5 L 36.08214282989502 176.5 L 33.9 177.8 L 29.3 180.4 L 24.9 182.8 L 20.7 185.0 L 20.415779399871827 185.13864421844482 L 19.6 189.0 L 16.6 187.0 L 10.3 176.6 L 12.1 175.8 L 16.2 174.5 L 20.5 173.0 L 24.2 171.6326086997986 L 24.2 76.15600004196168 L 21.9 79.1 L 16.6 85.0 L 11.0 90.4 L 9.6 89.2 L 13.6 82.7 L 17.5 76.0 L 21.3 69.2 L 25.0 62.2 L 28.5 54.9 L 31.8 47.4 L 35.0 39.6 L 37.9 31.6 L 40.7 23.3 L 42.933068656921385 15.7075665473938 L 42.9 15.7 L 43.7 13.2 L 54.7 18.4 L 56.9 21.2 L 53.3028018951416 22.0835223197937 L 51.4 27.1 L 51.10854272842407 27.799497509002684 L 51.5 28.0 L 55.6 30.2 L 59.3 32.7 L 62.9 35.4 L 66.1 38.3 L 69.2 41.4 L 72.0 44.7 L 74.6 48.1 L 77.0 51.7 L 79.1 55.5 L 79.0 60.0 L 75.8 63.3 L 71.3 63.3 L 68.0 60.1 L 66.8 56.7 Z M 36.2 103.3 L 36.2 124.4 L 59.9 124.4 L 59.9 103.3 Z M 121.5 84.0 L 124.5 86.0 L 121.5 87.8 L 121.5 113.0 L 109.5 113.0 L 109.5 82.0 Z M 36.2 99.3 L 59.9 99.3 L 59.9 79.3 L 36.2 79.3 Z M 168.5 68.6 L 166.2 63.4 L 165.51354532241822 61.96988611221313 L 161.5 63.4 L 152.8 66.2 L 144.2 68.6 L 135.7 70.8 L 127.3 72.8 L 119.0 74.6 L 110.9 76.2 L 102.8 77.6 L 94.9 78.9 L 91.22506608963013 79.4182599067688 L 89.4 82.8 L 87.1 80.0 L 84.0 68.2 L 86.0 68.1 L 93.7 67.6 L 101.5 67.0 L 107.94704256057739 66.34713497161866 L 108.6 63.3 L 110.0 57.9 L 113.0 47.1 L 114.4 41.7 L 115.8 36.4 L 118.4 25.6 L 119.6 20.2 L 120.7 14.8 L 120.75556545257568 14.814247512817383 L 121.2 13.1 L 132.4 17.8 L 134.8 20.5 L 131.1526315689087 21.542105293273927 L 130.6 23.2 L 128.7 28.6 L 126.7 34.0 L 124.6 39.3 L 122.4 44.5 L 120.1 49.7 L 117.6 54.8 L 115.0 59.9 L 112.1 64.8 L 111.31818685531616 66.01054944992066 L 117.5 65.4 L 125.8 64.4 L 134.3 63.3 L 142.9 62.2 L 151.6 60.9 L 160.6 59.7 L 164.21644735336304 59.267598724365236 L 163.8 58.4 L 161.2 53.6 L 158.6 48.9 L 155.8 44.4 L 152.9 40.0 L 146.9 31.4 L 148.1 30.0 L 152.6 33.0 L 156.9 36.5 L 160.9 40.3 L 164.7 44.5 L 168.3 48.9 L 171.8 53.7 L 175.0 58.7 L 178.1 63.9 L 181.1 69.5 L 183.8 75.2 L 183.7 79.8 L 180.4 83.0 L 175.9 82.9 L 172.7 79.7 L 170.6 74.1 Z " />
</g>
</svg>
