<svg xmlns="http://www.w3.org/2000/svg" xmlns:xlink="http://www.w3.org/1999/xlink" version="1.1" baseProfile="full" viewBox="0 0 200 200" width="200" height="200">
<g fill="black">
<path d="M 15.8 186.8 L 12.8 183.4 L 13.0 178.8 L 14.3 176.9 L 15.5 174.6 L 16.7 172.0 L 17.8 169.1 L 18.9 165.9 L 19.9 162.4 L 20.8 158.7 L 21.7 154.6 L 22.7 150.3 L 23.3 145.6 L 25.1 145.6 L 25.6 150.3 L 26.2 154.9 L 26.5 159.2 L 26.7 163.3 L 26.6 167.2 L 26.4 170.9 L 26.0 174.5 L 25.5 177.8 L 24.7 181.0 L 23.8 184.1 L 20.3 187.1 Z M 178.4 146.0 L 180.4 146.0 L 178.4 171.0 L 182.0 173.4 L 184.4 177.0 L 182.0 180.6 L 178.4 183.0 L 155.3 183.0 L 152.7 182.8 L 150.2 182.4 L 147.8 181.6 L 145.5 180.3 L 143.5 178.7 L 141.9 176.7 L 140.6 174.4 L 139.8 172.0 L 139.4 169.5 L 139.3 167.0 L 139.3 127.0 L 124.59523811340333 127.0 L 124.1 133.5 L 122.4 143.2 L 119.6 152.2 L 115.9 160.2 L 111.2 167.4 L 105.5 173.6 L 98.9 178.8 L 91.5 182.9 L 83.3 185.9 L 74.3 187.8 L 73.8 186.1 L 81.9 182.4 L 88.9 178.2 L 95.0 173.5 L 100.0 168.3 L 104.2 162.5 L 107.6 156.1 L 110.1 148.9 L 111.9 141.1 L 112.8 132.4 L 112.85744676589965 127.0 L 83.8 127.0 L 83.8 123.0 L 139.3 123.0 L 139.3 89.0 L 124.9 89.0 L 124.9 123.0 L 112.9 123.0 L 112.9 89.0 L 101.4 89.0 L 101.4 85.0 L 140.8 85.0 L 150.8 75.0 L 162.8 85.0 L 162.8 89.0 L 151.3 89.0 L 151.3 123.0 L 158.4 123.0 L 168.4 113.0 L 180.4 123.0 L 180.4 127.0 L 151.3 127.0 L 151.3 168.2 L 151.5 169.1 L 151.8 170.0 L 152.2 170.4 L 153.1 170.7 L 154.0 170.9 L 155.3 171.0 L 172.4 171.0 Z M 50.5 166.2 L 50.3 163.6 L 49.9 160.9 L 49.4 158.2 L 48.9 155.6 L 47.5 150.2 L 46.7 147.5 L 45.4 144.9 L 46.9 143.9 L 48.8 146.1 L 51.0 148.2 L 53.0 150.5 L 54.8 152.9 L 56.4 155.4 L 58.0 158.1 L 59.3 160.9 L 60.6 163.8 L 61.7 166.8 L 62.6 169.9 L 61.5 174.3 L 57.6 176.7 L 53.2 175.6 L 50.7 171.7 L 50.7 168.9 Z M 39.2 180.9 L 35.1 178.9 L 33.5 174.6 L 34.0 172.4 L 34.3 170.0 L 34.5 167.5 L 34.7 164.8 L 34.6 162.0 L 34.5 159.1 L 34.2 156.0 L 33.9 152.7 L 33.5 149.3 L 32.6 145.9 L 34.3 145.2 L 36.0 148.4 L 37.8 151.4 L 39.5 154.5 L 40.9 157.5 L 42.1 160.5 L 43.1 163.5 L 44.0 166.5 L 44.7 169.4 L 45.2 172.3 L 45.5 175.3 L 43.5 179.3 Z M 68.1 163.0 L 66.1 157.8 L 62.8 150.6 L 61.7 148.3 L 60.5 145.9 L 59.0 143.9 L 60.3 142.6 L 62.3 144.2 L 64.7 145.6 L 66.9 147.2 L 69.1 149.1 L 71.2 151.1 L 73.2 153.2 L 75.2 155.5 L 79.0 160.5 L 80.8 163.2 L 81.0 167.8 L 78.0 171.3 L 73.4 171.5 L 70.0 168.4 L 69.1 165.7 Z M 20.8 139.4 L 20.8 72.18461542129516 L 17.8 76.8 L 13.4 82.7 L 11.8 81.8 L 14.4 75.1 L 16.9 68.4 L 19.3 61.8 L 21.6 55.2 L 23.7 48.5 L 25.7 41.8 L 27.4 35.0 L 29.0 28.2 L 30.3 21.4 L 31.34260654449463 15.405012512207032 L 31.3 15.4 L 31.8 12.6 L 43.2 16.8 L 45.8 19.3 L 42.23779973983765 20.59534559249878 L 41.4 23.9 L 39.3 31.0 L 38.83333330154419 32.4 L 55.6 32.4 L 61.6 27.4 L 72.6 36.4 L 67.6 39.4 L 65.30684928894043 40.35547943115235 L 64.2 42.5 L 62.6 45.5 L 60.9 48.5 L 57.3 54.5 L 55.4 57.4 L 53.3 60.3 L 51.17857141494751 63.0 L 66.6 63.0 L 72.1 58.0 L 82.6 67.0 L 77.6 70.5 L 77.6 133.9 L 66.6 139.4 L 66.6 133.9 L 31.8 133.9 Z M 31.8 100.5 L 31.8 129.9 L 44.2 129.9 L 44.2 100.5 Z M 54.2 100.5 L 54.2 129.9 L 66.6 129.9 L 66.6 100.5 Z M 31.8 67.0 L 31.8 96.5 L 44.2 96.5 L 44.2 67.0 Z M 54.2 67.0 L 54.2 96.5 L 66.6 96.5 L 66.6 67.0 Z M 164.0 82.6 L 158.5 75.6 L 153.6 68.1 L 149.2 60.1 L 145.3 51.5 L 142.0 42.5 L 139.3 32.9 L 137.84513273239136 25.5529203414917 L 135.1 27.2 L 133.3662790298462 27.92238368988037 L 131.2 34.0 L 127.3 43.6 L 122.9 52.6 L 118.2 61.2 L 113.1 69.2 L 107.6 76.7 L 101.7 83.7 L 95.5 90.0 L 88.8 95.6 L 81.7 100.5 L 80.5 99.2 L 86.2 92.9 L 91.5 86.3 L 96.6 79.5 L 101.4 72.4 L 105.9 64.8 L 106.4299919128418 63.76586942672729 L 103.4 63.7 L 100.1 60.6 L 99.4 57.9 L 98.6 55.3 L 97.8 52.8 L 96.8 50.4 L 94.8 45.8 L 91.2 39.2 L 89.5 37.4 L 90.6 35.9 L 92.8 37.3 L 95.2 38.6 L 97.5 40.1 L 99.7 41.8 L 101.9 43.7 L 103.9 45.8 L 105.9 48.1 L 107.7 50.5 L 109.5 53.1 L 110.74566612243652 55.15168542861939 L 113.8 48.4 L 117.3 39.5 L 120.5 30.2 L 122.21428575515748 24.2 L 93.4 24.2 L 93.4 20.2 L 123.1 20.2 L 129.1 15.2 L 137.17855100631715 21.809723567962646 L 136.0 12.2 L 137.8 11.8 L 141.3 21.8 L 144.9 31.1 L 148.8 39.8 L 150.928125 44.05625 L 151.7 41.8 L 152.9 38.2 L 154.1 34.8 L 155.3 31.7 L 156.3 28.7 L 157.2 25.9 L 158.1 23.3 L 158.8 20.9 L 159.21289539337158 19.54334373474121 L 159.1 19.5 L 159.48955221176146 18.634328365325928 L 159.5 18.6 L 159.50410957336425 18.60197868347168 L 160.0 17.5 L 170.3 23.8 L 172.2 26.9 L 167.89708576202392 27.27094087600708 L 167.4 28.0 L 165.7 30.3 L 164.0 32.7 L 162.0 35.3 L 160.0 38.0 L 157.8 40.9 L 155.4 43.9 L 152.8 47.0 L 152.5590361595154 47.31807231903076 L 152.9 48.0 L 157.3 55.5 L 160.59411764144897 60.23529415130615 L 161.6 58.0 L 163.3 54.2 L 165.0 50.8 L 166.5 47.5 L 167.9 44.5 L 169.1 41.8 L 170.2 39.2 L 171.1 36.9 L 171.5333703994751 35.762402629852296 L 171.4 35.7 L 171.81724138259887 35.017241382598876 L 171.9 34.8 L 171.9369668006897 34.82132701873779 L 172.5 33.9 L 182.3 40.8 L 183.9 44.0 L 179.6324584007263 44.0735782623291 L 179.1 44.7 L 177.2 46.9 L 175.2 49.2 L 173.0 51.8 L 170.6 54.5 L 168.0 57.4 L 165.2 60.4 L 162.6246681213379 63.05840711593628 L 167.2 68.8 L 172.6 74.6 L 178.4 79.8 L 184.5 84.4 L 187.5 86.7 L 176.5 94.9 L 170.0 89.0 Z M 37.5 36.4 L 37.0 37.9 L 34.5 44.7 L 31.7 51.5 L 28.6 58.0 L 27.223312854766846 60.71165647506714 L 31.8 63.0 L 48.11176471710205 63.0 L 48.5 61.8 L 49.4 58.4 L 50.2 55.0 L 51.1 51.7 L 52.0 48.5 L 52.9 45.2 L 54.5 38.8 L 55.025 36.4 Z " />
</g>
</svg>
