<svg xmlns="http://www.w3.org/2000/svg" xmlns:xlink="http://www.w3.org/1999/xlink" version="1.1" baseProfile="full" viewBox="0 0 200 200" width="200" height="200">
<g fill="black">
<path d="M 100.6 41.3 L 131.5 41.3 L 131.5 12.8 L 143.5 14.8 L 146.5 16.8 L 143.5 18.6 L 143.5 41.3 L 165.3 41.3 L 175.3 31.3 L 187.3 41.3 L 187.3 45.3 L 100.6 45.3 L 100.6 103.4 L 100.1 114.5 L 99.4 125.0 L 98.2 135.0 L 96.7 144.3 L 94.9 153.1 L 92.7 161.3 L 90.1 168.9 L 87.2 175.8 L 83.7 182.1 L 79.8 187.5 L 78.4 186.7 L 80.6 180.6 L 82.6 174.1 L 84.4 167.1 L 86.0 159.6 L 87.3 151.7 L 88.3 143.1 L 89.1 134.0 L 89.5 124.4 L 89.7 114.2 L 89.6 103.4 L 89.6 35.8 Z M 116.2 172.2 L 136.2 172.2 L 137.4 172.1 L 138.3 171.9 L 139.2 171.6 L 139.6 171.2 L 139.8 170.9 L 139.9 170.3 L 140.1 169.4 L 140.2 168.2 L 140.2 80.2 L 106.1 80.2 L 106.1 76.2 L 162.3 76.2 L 172.3 66.2 L 184.3 76.2 L 184.3 80.2 L 152.2 80.2 L 152.2 168.2 L 152.0 170.7 L 151.6 173.2 L 150.8 175.6 L 149.6 177.9 L 147.9 179.9 L 145.9 181.5 L 143.6 182.8 L 141.2 183.6 L 138.7 184.0 L 136.2 184.2 L 136.2 178.2 L 116.2 175.2 Z M 15.8 186.8 L 12.8 183.4 L 13.0 178.8 L 14.3 176.9 L 15.5 174.6 L 16.7 172.0 L 17.8 169.1 L 18.9 165.9 L 19.9 162.4 L 20.8 158.7 L 21.7 154.6 L 22.7 150.3 L 23.3 145.6 L 25.1 145.6 L 25.6 150.3 L 26.2 154.9 L 26.5 159.2 L 26.7 163.3 L 26.6 167.2 L 26.4 170.9 L 26.0 174.5 L 25.5 177.8 L 24.7 181.0 L 23.8 184.1 L 20.3 187.1 Z M 50.5 166.2 L 50.3 163.6 L 49.9 160.9 L 49.4 158.2 L 48.9 155.6 L 47.5 150.2 L 46.7 147.5 L 45.4 144.9 L 46.9 143.9 L 48.8 146.1 L 51.0 148.2 L 53.0 150.5 L 54.8 152.9 L 56.4 155.4 L 58.0 158.1 L 59.3 160.9 L 60.6 163.8 L 61.7 166.8 L 62.6 169.9 L 61.5 174.3 L 57.6 176.7 L 53.2 175.6 L 50.7 171.7 L 50.7 168.9 Z M 39.2 180.9 L 35.1 178.9 L 33.5 174.6 L 34.0 172.4 L 34.3 170.0 L 34.5 167.5 L 34.7 164.8 L 34.6 162.0 L 34.5 159.1 L 34.2 156.0 L 33.9 152.7 L 33.5 149.3 L 32.6 145.9 L 34.3 145.2 L 36.0 148.4 L 37.8 151.4 L 39.5 154.5 L 40.9 157.5 L 42.1 160.5 L 43.1 163.5 L 44.0 166.5 L 44.7 169.4 L 45.2 172.3 L 45.5 175.3 L 43.5 179.3 Z M 68.1 163.0 L 66.1 157.8 L 62.8 150.6 L 61.7 148.3 L 60.5 145.9 L 59.0 143.9 L 60.3 142.6 L 62.3 144.2 L 64.7 145.6 L 66.9 147.2 L 69.1 149.1 L 71.2 151.1 L 73.2 153.2 L 75.2 155.5 L 79.0 160.5 L 80.8 163.2 L 81.0 167.8 L 78.0 171.3 L 73.4 171.5 L 70.0 168.4 L 69.1 165.7 Z M 20.8 139.4 L 20.8 72.18461542129516 L 17.8 76.8 L 13.4 82.7 L 11.8 81.8 L 14.4 75.1 L 16.9 68.4 L 19.3 61.8 L 21.6 55.2 L 23.7 48.5 L 25.7 41.8 L 27.4 35.0 L 29.0 28.2 L 30.3 21.4 L 31.34260654449463 15.405012512207032 L 31.3 15.4 L 31.8 12.6 L 43.2 16.8 L 45.8 19.3 L 42.23779973983765 20.59534559249878 L 41.4 23.9 L 39.3 31.0 L 38.83333330154419 32.4 L 55.6 32.4 L 61.6 27.4 L 72.6 36.4 L 67.6 39.4 L 65.30684928894043 40.35547943115235 L 64.2 42.5 L 62.6 45.5 L 60.9 48.5 L 57.3 54.5 L 55.4 57.4 L 53.3 60.3 L 51.17857141494751 63.0 L 67.1 63.0 L 72.1 58.0 L 82.1 67.0 L 77.1 70.0 L 77.1 133.9 L 67.1 138.9 L 67.1 133.9 L 31.8 133.9 Z M 31.8 100.5 L 31.8 129.9 L 44.2 129.9 L 44.2 100.5 Z M 54.2 100.5 L 54.2 129.9 L 67.1 129.9 L 67.1 100.5 Z M 31.8 67.0 L 31.8 96.5 L 44.2 96.5 L 44.2 67.0 Z M 54.2 67.0 L 54.2 96.5 L 67.1 96.5 L 67.1 67.0 Z M 37.5 36.4 L 37.0 37.9 L 34.5 44.7 L 31.7 51.5 L 28.6 58.0 L 27.223312854766846 60.71165647506714 L 31.8 63.0 L 48.11176471710205 63.0 L 48.5 61.8 L 49.4 58.4 L 50.2 55.0 L 51.1 51.7 L 52.0 48.5 L 52.9 45.2 L 54.5 38.8 L 55.025 36.4 Z " />
</g>
</svg>
