<svg xmlns="http://www.w3.org/2000/svg" xmlns:xlink="http://www.w3.org/1999/xlink" version="1.1" baseProfile="full" viewBox="0 0 200 200" width="200" height="200">
<g fill="black">
<path d="M 121.2 155.1 L 120.0 150.7 L 118.7 146.3 L 115.9 137.5 L 114.3 133.2 L 112.7 128.7 L 111.29937744140625 124.99246959686279 L 108.6 135.7 L 104.8 146.8 L 100.2 156.9 L 94.9 166.1 L 88.8 174.3 L 81.9 181.4 L 74.2 187.4 L 73.1 186.0 L 79.1 178.8 L 84.5 171.1 L 89.2 162.8 L 93.3 153.8 L 96.8 144.0 L 99.6 133.3 L 101.8 121.9 L 103.3 109.7 L 103.70606060028076 103.0 L 82.2 103.0 L 82.2 99.0 L 103.9484848022461 99.0 L 104.1 96.5 L 104.3 82.6 L 104.3 50.0 L 98.81898736953735 50.0 L 98.8 50.1 L 97.1 57.6 L 95.3 64.7 L 93.3 71.3 L 91.0 77.4 L 88.5 83.0 L 85.6 88.1 L 83.9 87.4 L 84.9 81.8 L 85.9 75.9 L 86.9 69.7 L 87.9 63.1 L 88.8 56.1 L 89.6 48.7 L 90.3 40.9 L 90.9 32.6 L 91.4 24.0 L 91.75608472824096 15.899072933197022 L 91.7 15.9 L 92.0 12.7 L 103.8 15.7 L 106.6 17.9 L 103.39090909957886 19.504545497894288 L 102.8 25.0 L 101.6 33.8 L 100.3 42.2 L 99.57848100662231 46.0 L 116.31818180084228 46.0 L 124.5 37.0 L 134.5 46.0 L 134.5 50.0 L 116.3 50.0 L 116.3 82.6 L 116.23370161056519 82.69944753646851 L 116.3 82.7 L 115.5 97.2 L 115.28978099822999 99.0 L 118.31818180084228 99.0 L 126.5 90.0 L 136.5 99.0 L 136.5 103.0 L 114.82262773513794 103.0 L 113.9 110.9 L 112.24119024276733 120.20375881195068 L 114.2 122.4 L 117.2 126.3 L 120.0 130.3 L 122.6 134.4 L 125.0 138.6 L 127.3 142.9 L 129.4 147.2 L 133.2 156.2 L 134.9 160.7 L 134.3 165.3 L 130.7 168.1 L 126.2 167.5 L 123.3 164.0 L 122.3 159.6 Z M 67.6 52.9 L 66.0 49.6 L 64.2 46.4 L 62.2 43.2 L 60.0 40.0 L 57.5 36.8 L 54.8 33.6 L 52.27463722229004 30.623679637908936 L 50.4 35.2 L 46.7 43.2 L 42.8 50.9 L 38.6 58.3 L 34.2 65.3 L 30.673333358764648 70.43666667938233 L 38.8 74.5 L 44.8 74.5 L 44.8 48.6 L 56.8 50.6 L 59.8 52.6 L 56.8 54.4 L 56.8 74.5 L 62.1 74.5 L 68.1 69.5 L 79.1 78.5 L 74.1 82.5 L 74.1 127.2 L 62.1 133.2 L 62.1 127.2 L 38.8 127.2 L 38.8 165.23461542129516 L 42.6 163.7 L 48.0 161.4 L 53.8 159.1 L 59.8 156.8 L 61.792123317718506 156.04109592437743 L 60.9 153.9 L 59.2 150.4 L 57.4 147.0 L 55.4 143.6 L 53.3 140.2 L 51.0 136.9 L 52.2 135.6 L 55.6 137.9 L 59.0 140.5 L 62.1 143.3 L 65.1 146.4 L 67.8 149.7 L 70.3 153.2 L 72.7 157.0 L 74.8 160.9 L 76.7 165.0 L 78.5 169.2 L 78.0 173.8 L 74.5 176.7 L 69.9 176.2 L 67.0 172.7 L 66.1 168.7 L 65.0 164.9 L 63.8 161.1 L 62.99825258255005 159.03836374282838 L 61.6 160.1 L 56.3 163.8 L 51.1 167.3 L 46.0 170.4 L 41.2 173.4 L 38.8 174.77872343063353 L 38.8 174.8 L 38.76296300888062 174.8 L 36.5 176.1 L 32.0 178.7 L 27.6 181.1 L 23.5 183.2 L 23.2875 183.30625 L 22.5 187.3 L 19.5 185.2 L 13.1 174.9 L 15.0 174.1 L 19.0 172.8 L 23.2 171.3 L 26.8 169.93999996185303 L 26.8 75.6 L 24.7 78.3 L 19.4 84.2 L 13.8 89.5 L 12.5 88.4 L 16.4 81.9 L 20.3 75.3 L 24.0 68.5 L 27.7 61.5 L 31.1 54.4 L 34.4 46.9 L 37.5 39.3 L 40.4 31.3 L 43.1 23.1 L 45.3055214881897 15.601226997375488 L 45.3 15.6 L 45.37272729873657 15.372727298736573 L 45.6 14.6 L 45.618164443969725 14.60573616027832 L 46.1 13.1 L 57.0 18.2 L 59.3 21.1 L 55.62504949569702 21.938146591186523 L 53.8 26.9 L 53.54646587371826 27.51892156600952 L 53.9 27.7 L 57.9 29.9 L 61.6 32.4 L 65.1 35.1 L 68.3 37.9 L 71.4 41.0 L 74.2 44.2 L 76.7 47.6 L 79.0 51.2 L 81.1 54.9 L 81.1 59.5 L 77.9 62.7 L 73.3 62.7 L 70.0 59.5 L 68.9 56.2 Z M 152.0 40.4 L 170.9 40.4 L 176.9 35.4 L 187.9 44.4 L 182.9 48.4 L 182.9 171.6 L 170.9 177.6 L 170.9 165.6 L 152.0 165.6 L 152.0 177.6 L 140.0 183.6 L 140.0 34.4 Z M 152.0 44.4 L 152.0 161.6 L 170.9 161.6 L 170.9 44.4 Z M 38.8 102.3 L 38.8 123.2 L 62.1 123.2 L 62.1 102.3 Z M 38.8 98.3 L 62.1 98.3 L 62.1 78.5 L 38.8 78.5 Z " />
</g>
</svg>
