<svg xmlns="http://www.w3.org/2000/svg" xmlns:xlink="http://www.w3.org/1999/xlink" version="1.1" baseProfile="full" viewBox="0 0 200 200" width="200" height="200">
<g fill="black">
<path d="M 53.5 176.0 L 65.5 176.0 L 66.7 175.9 L 67.6 175.7 L 68.5 175.4 L 68.9 175.0 L 69.1 174.7 L 69.2 174.1 L 69.4 173.2 L 69.5 172.0 L 69.5 141.0 L 32.6 141.0 L 32.6 182.0 L 20.6 188.0 L 20.6 92.0 L 32.6 98.0 L 69.5 98.0 L 75.5 93.0 L 86.5 102.0 L 81.5 106.0 L 81.5 172.0 L 81.3 174.5 L 80.9 177.0 L 80.1 179.4 L 78.9 181.7 L 77.2 183.7 L 75.2 185.3 L 72.9 186.6 L 70.5 187.4 L 68.0 187.8 L 65.5 188.0 L 65.5 182.0 L 53.5 179.0 Z M 165.4 94.9 L 161.1 90.1 L 157.6 84.5 L 154.8 78.4 L 152.7 71.6 L 151.4 64.2 L 151.33127555847167 63.414577865600585 L 150.2 67.2 L 146.9 75.2 L 142.9 82.4 L 138.1 88.7 L 132.6 94.0 L 129.5527117729187 96.19804391860961 L 135.9 99.0 L 138.3 101.7 L 134.8985915184021 102.67183094024658 L 134.1 105.6 L 132.1 112.2 L 130.1 118.5 L 161.7 118.5 L 171.7 108.5 L 183.7 118.5 L 183.7 122.5 L 162.4666666984558 122.5 L 159.9 133.5 L 156.1 144.4 L 151.4 154.2 L 148.9109169960022 157.95545854568482 L 154.0 160.5 L 160.0 163.9 L 165.9 167.5 L 171.5 171.3 L 177.0 175.3 L 179.1 179.4 L 177.8 183.8 L 173.7 185.8 L 169.3 184.5 L 164.6 180.3 L 159.6 176.2 L 154.5 172.2 L 149.2 168.5 L 143.8351351737976 164.89090909957886 L 139.1 170.2 L 131.6 176.4 L 123.3 181.2 L 114.1 184.8 L 104.3 187.0 L 93.7 187.8 L 93.5 186.0 L 103.4 183.3 L 112.2 179.8 L 120.1 175.5 L 127.0 170.4 L 133.0 164.3 L 136.04857883453369 160.17545223236084 L 132.1 157.9 L 126.1 154.5 L 119.9 151.2 L 118.06933641433716 150.22745990753174 L 116.4 153.9 L 113.8 159.3 L 103.0 154.1 L 105.5 148.9 L 107.8 143.6 L 110.1 138.1 L 112.4 132.5 L 114.5 126.8 L 116.030508518219 122.5 L 90.3 122.5 L 90.3 118.5 L 117.42622947692871 118.5 L 118.7 114.8 L 120.6 108.6 L 122.5 102.3 L 123.18384046554566 99.96054563522338 L 119.7 101.6 L 112.3 103.8 L 111.7 102.1 L 117.9 98.3 L 123.3 94.0 L 128.1 89.3 L 132.1 84.0 L 135.6 78.1 L 138.4 71.6 L 140.6 64.3 L 142.3 56.3 L 143.3 47.6 L 143.73684206008912 39.3 L 137.8910714149475 39.3 L 137.8 39.6 L 135.9 44.7 L 133.7 49.5 L 131.1 53.9 L 128.3 57.8 L 125.1 61.3 L 121.6 64.2 L 120.2 63.0 L 122.0 59.1 L 123.7 55.1 L 125.2 51.0 L 126.6 46.6 L 127.8 42.0 L 128.8 37.2 L 129.7 32.0 L 130.3 26.6 L 130.7 20.8 L 130.95086135864258 15.699152278900147 L 130.9 15.7 L 131.1 12.5 L 142.9 15.5 L 145.8 17.7 L 142.35702476501464 19.421487617492676 L 142.0 22.0 L 140.9 28.2 L 139.5 34.0 L 139.10535717010498 35.3 L 169.3 35.3 L 175.3 30.3 L 186.3 39.3 L 181.3 42.3 L 178.68291454315187 43.3904522895813 L 178.5 43.7 L 177.2 46.1 L 175.7 48.5 L 172.7 53.7 L 171.0 56.3 L 169.2 59.1 L 167.3 61.9 L 165.6 64.9 L 163.9 64.2 L 164.9 60.9 L 165.4 57.6 L 166.0 54.4 L 166.6 51.3 L 167.2 48.3 L 167.8 45.5 L 168.3 42.8 L 168.8 40.2 L 168.94399995803832 39.3 L 155.71844663619996 39.3 L 154.8331428527832 46.89885711669922 L 154.9 47.3 L 156.5 55.4 L 158.4 62.7 L 160.7 69.0 L 163.3 74.5 L 166.3 79.1 L 169.5 82.9 L 173.0 85.8 L 176.9 88.1 L 181.0 89.7 L 187.7 92.4 L 176.2 102.1 L 170.5 98.9 Z M 128.76666669845582 122.5 L 128.0 124.8 L 125.8 130.9 L 123.6 136.9 L 121.2 142.7 L 119.35062284469605 147.2832389831543 L 121.2 147.7 L 128.1 149.6 L 134.9 151.9 L 140.0221531867981 153.9488613128662 L 142.5 149.5 L 146.1 140.6 L 148.9 130.6 L 150.3435643196106 122.5 Z M 32.6 121.0 L 32.6 137.0 L 69.5 137.0 L 69.5 121.0 Z M 32.6 102.0 L 32.6 117.0 L 69.5 117.0 L 69.5 102.0 Z M 91.8 86.3 L 94.6 84.9 L 97.5 83.3 L 100.6 81.7 L 103.7 80.0 L 107.0 78.2 L 110.4 76.3 L 113.9 74.3 L 117.6 72.2 L 121.5 70.2 L 125.3 67.9 L 126.5 69.3 L 123.3 72.6 L 120.4 75.9 L 117.5 78.9 L 114.5 81.8 L 111.7 84.6 L 108.9 87.2 L 103.5 92.0 L 101.75870265960694 93.47340536117554 L 101.7 97.7 L 98.4 96.3 L 90.1 87.4 Z M 12.6 78.0 L 45.8 78.0 L 45.8 60.0 L 20.0 60.0 L 20.0 56.0 L 45.8 56.0 L 45.8 38.0 L 16.3 38.0 L 16.3 34.0 L 45.8 34.0 L 45.8 13.0 L 57.8 15.0 L 60.8 17.0 L 57.8 18.8 L 57.8 34.0 L 63.8 34.0 L 73.8 24.0 L 85.8 34.0 L 85.8 38.0 L 57.8 38.0 L 57.8 56.0 L 63.918181800842284 56.0 L 72.1 47.0 L 82.1 56.0 L 82.1 60.0 L 57.8 60.0 L 57.8 78.0 L 72.81818180084228 78.0 L 81.0 69.0 L 91.0 78.0 L 91.0 82.0 L 12.6 82.0 Z M 107.8 39.7 L 106.9 37.9 L 105.9 36.1 L 103.5 32.5 L 102.1 30.7 L 100.6 28.8 L 98.6 27.5 L 99.5 25.9 L 101.7 26.9 L 104.2 27.5 L 106.6 28.5 L 108.8 29.6 L 111.0 30.9 L 113.1 32.4 L 115.1 34.1 L 117.0 35.9 L 118.8 37.9 L 120.5 40.0 L 120.8 44.6 L 117.8 48.1 L 113.3 48.4 L 109.8 45.4 L 109.2 43.5 Z " />
</g>
</svg>
