<svg xmlns="http://www.w3.org/2000/svg" xmlns:xlink="http://www.w3.org/1999/xlink" version="1.1" baseProfile="full" viewBox="0 0 200 200" width="200" height="200">
<g fill="black">
<path d="M 144.7 175.9 L 156.7 175.9 L 157.9 175.8 L 158.8 175.6 L 159.4 175.5 L 159.7 175.3 L 160.1 174.9 L 160.3 174.6 L 160.5 174.0 L 160.6 173.1 L 160.7 171.9 L 160.7 148.7 L 116.5 148.7 L 116.5 181.9 L 104.5 187.9 L 104.5 92.5 L 116.5 98.5 L 160.7 98.5 L 166.7 93.5 L 177.7 102.5 L 172.7 106.5 L 172.7 171.9 L 172.5 174.4 L 172.1 176.9 L 171.3 179.3 L 170.1 181.6 L 168.4 183.6 L 166.4 185.3 L 164.1 186.5 L 161.7 187.3 L 159.2 187.7 L 156.7 187.9 L 156.7 181.9 L 144.7 178.9 Z M 74.7 53.1 L 73.0 49.8 L 70.9 46.6 L 68.7 43.3 L 66.1 40.1 L 63.3 36.9 L 60.3 33.7 L 57.1 30.3 L 56.982683181762695 30.195718383789064 L 54.6 35.4 L 50.6 43.4 L 46.3 51.1 L 41.8 58.5 L 37.0 65.5 L 33.321311473846436 70.26065578460694 L 41.8 74.5 L 49.7 74.5 L 49.7 48.6 L 61.7 50.6 L 64.7 52.6 L 61.7 54.4 L 61.7 74.5 L 68.7 74.5 L 74.7 69.5 L 85.7 78.5 L 80.7 82.5 L 80.7 127.2 L 68.7 133.2 L 68.7 127.2 L 41.8 127.2 L 41.8 165.47894735336303 L 46.9 163.6 L 52.9 161.4 L 59.1 159.1 L 65.7 156.7 L 68.12195119857788 155.89268293380738 L 67.2 154.1 L 65.3 150.6 L 63.2 147.1 L 61.0 143.7 L 58.6 140.2 L 55.9 136.9 L 57.1 135.5 L 60.8 137.8 L 64.5 140.3 L 67.8 143.2 L 71.0 146.2 L 74.0 149.5 L 76.7 153.1 L 79.2 156.8 L 81.6 160.7 L 83.7 164.8 L 85.6 169.1 L 85.2 173.7 L 81.7 176.7 L 77.2 176.3 L 74.2 172.8 L 73.1 168.9 L 71.9 165.1 L 70.5 161.3 L 69.44656085968018 158.7015167236328 L 67.4 160.1 L 61.5 163.9 L 55.7 167.3 L 50.1 170.5 L 44.7 173.5 L 39.5 176.2 L 34.5 178.8 L 29.7 181.1 L 25.1 183.3 L 24.53313865661621 183.5576642036438 L 23.6 187.4 L 20.7 185.3 L 14.6 174.8 L 16.5 174.1 L 21.0 172.7 L 25.6 171.2 L 29.8 169.77200002670287 L 29.8 74.59622640609741 L 26.6 78.4 L 20.9 84.2 L 14.9 89.6 L 13.5 88.3 L 18.0 81.8 L 22.3 75.2 L 26.5 68.4 L 30.6 61.4 L 34.4 54.2 L 38.1 46.8 L 41.5 39.1 L 44.8 31.1 L 47.8 22.9 L 50.6 14.4 L 50.6298152923584 14.410554122924804 L 51.1 13.0 L 61.9 18.4 L 64.1 21.3 L 60.42181100845337 22.074355602264404 L 58.4 27.1 L 58.294327068328855 27.330811977386475 L 58.9 27.6 L 63.3 29.8 L 67.3 32.2 L 71.1 34.9 L 74.6 37.8 L 77.9 40.8 L 80.9 44.0 L 83.7 47.4 L 86.2 51.0 L 88.5 54.7 L 88.6 59.3 L 85.5 62.7 L 80.9 62.8 L 77.6 59.8 L 76.3 56.4 Z M 116.5 124.6 L 116.5 144.7 L 160.7 144.7 L 160.7 124.6 Z M 41.8 102.3 L 41.8 123.2 L 68.7 123.2 L 68.7 102.3 Z M 116.5 102.5 L 116.5 120.6 L 160.7 120.6 L 160.7 102.5 Z M 41.8 98.3 L 68.7 98.3 L 68.7 78.5 L 41.8 78.5 Z M 90.6 79.4 L 132.1 79.4 L 132.1 60.3 L 100.9 60.3 L 100.9 56.3 L 132.1 56.3 L 132.1 37.1 L 96.6 37.1 L 96.6 33.1 L 132.1 33.1 L 132.1 12.0 L 144.1 14.0 L 147.1 16.0 L 144.1 17.8 L 144.1 33.1 L 159.4 33.1 L 169.4 23.1 L 181.4 33.1 L 181.4 37.1 L 144.1 37.1 L 144.1 56.3 L 158.01818180084229 56.3 L 166.2 47.3 L 176.2 56.3 L 176.2 60.3 L 144.1 60.3 L 144.1 79.4 L 169.21818180084227 79.4 L 177.4 70.4 L 187.4 79.4 L 187.4 83.4 L 90.6 83.4 Z " />
</g>
</svg>
