<svg xmlns="http://www.w3.org/2000/svg" xmlns:xlink="http://www.w3.org/1999/xlink" version="1.1" baseProfile="full" viewBox="0 0 200 200" width="200" height="200">
<g fill="black">
<path d="M 158.2 80.0 L 161.2 82.0 L 158.2 83.8 L 158.2 112.0 L 165.6 112.0 L 175.6 102.0 L 187.6 112.0 L 187.6 116.0 L 158.2 116.0 L 158.2 182.0 L 146.2 188.0 L 146.2 116.0 L 125.56271190643311 116.0 L 125.1 123.8 L 123.8 134.8 L 121.7 144.9 L 119.0 154.1 L 115.5 162.4 L 111.4 169.7 L 106.4 175.9 L 100.8 181.1 L 94.6 185.1 L 87.7 187.8 L 87.0 186.1 L 92.5 181.9 L 97.2 177.2 L 101.3 171.9 L 104.8 165.8 L 107.8 159.0 L 110.1 151.4 L 111.9 142.9 L 113.1 133.5 L 113.7 123.2 L 113.76428575515747 116.0 L 84.4 116.0 L 84.4 112.0 L 146.2 112.0 L 146.2 78.0 Z M 73.3 53.1 L 71.5 49.8 L 69.5 46.6 L 67.2 43.3 L 64.7 40.1 L 62.0 36.9 L 59.0 33.7 L 55.7 30.3 L 55.66180896759033 30.265082454681398 L 53.4 35.4 L 49.3 43.4 L 45.1 51.1 L 40.6 58.5 L 35.8 65.5 L 32.17362632751465 70.28681316375733 L 40.6 74.5 L 48.4 74.5 L 48.4 48.6 L 60.4 50.6 L 63.4 52.6 L 60.4 54.4 L 60.4 74.5 L 67.3 74.5 L 73.3 69.5 L 84.3 78.5 L 79.3 82.5 L 79.3 127.2 L 67.3 133.2 L 67.3 127.2 L 40.6 127.2 L 40.6 165.47894735336303 L 45.7 163.6 L 51.6 161.4 L 57.8 159.1 L 64.3 156.7 L 66.72195119857788 155.89268293380738 L 65.8 154.1 L 63.9 150.5 L 61.9 147.1 L 59.6 143.7 L 57.2 140.2 L 54.6 136.9 L 55.8 135.5 L 59.5 137.8 L 63.1 140.3 L 66.5 143.2 L 69.6 146.2 L 72.6 149.5 L 75.3 153.1 L 77.8 156.8 L 80.1 160.7 L 82.2 164.8 L 84.1 169.1 L 83.7 173.7 L 80.3 176.7 L 75.7 176.3 L 72.7 172.8 L 71.7 168.9 L 70.5 165.0 L 69.1 161.3 L 68.04656085968017 158.7015167236328 L 66.0 160.1 L 60.2 163.9 L 54.4 167.3 L 48.9 170.5 L 43.5 173.5 L 38.3 176.2 L 33.3 178.8 L 28.6 181.1 L 24.0 183.3 L 23.43313865661621 183.5576642036438 L 22.5 187.4 L 19.6 185.3 L 13.5 174.8 L 15.4 174.1 L 19.8 172.7 L 24.5 171.2 L 28.6 169.77755098342897 L 28.6 74.71509437561035 L 25.5 78.4 L 19.8 84.2 L 13.8 89.6 L 12.5 88.4 L 16.9 81.8 L 21.2 75.2 L 25.4 68.4 L 29.4 61.4 L 33.2 54.2 L 36.9 46.8 L 40.3 39.1 L 43.5 31.1 L 46.5 22.9 L 48.965090370178224 15.4166898727417 L 48.9 15.4 L 49.8 13.0 L 60.6 18.4 L 62.8 21.3 L 59.10301208496094 22.078313255310057 L 57.1 27.0 L 56.963210105895996 27.310550022125245 L 57.6 27.6 L 61.9 29.8 L 65.9 32.2 L 69.7 34.9 L 73.2 37.8 L 76.5 40.8 L 79.5 44.0 L 82.2 47.4 L 84.7 51.0 L 87.0 54.8 L 87.1 59.3 L 84.0 62.7 L 79.5 62.8 L 76.1 59.7 L 74.8 56.4 Z M 40.6 102.3 L 40.6 123.2 L 67.3 123.2 L 67.3 102.3 Z M 125.8 83.0 L 128.8 85.0 L 125.8 86.8 L 125.8 112.0 L 113.8 112.0 L 113.8 81.0 Z M 40.6 98.3 L 67.3 98.3 L 67.3 78.5 L 40.6 78.5 Z M 167.0 67.4 L 165.0 62.2 L 164.5302677154541 61.13242664337158 L 161.3 62.4 L 153.5 65.1 L 145.8 67.6 L 138.1 69.8 L 130.6 71.8 L 123.1 73.5 L 115.8 75.2 L 108.5 76.6 L 101.4 77.9 L 98.47384014129639 78.35982513427734 L 96.7 81.8 L 94.4 79.0 L 91.1 67.3 L 93.1 67.1 L 100.0 66.6 L 107.0 66.0 L 112.79263458251953 65.43682718276978 L 113.4 62.4 L 115.8 51.6 L 117.1 46.2 L 118.3 40.9 L 119.6 35.5 L 122.9 19.3 L 123.71441116333008 14.90217981338501 L 123.7 14.9 L 123.78888893127441 14.5 L 123.9 13.9 L 123.9211000442505 13.90504961013794 L 124.3 12.2 L 135.6 16.7 L 138.0 19.3 L 134.41178674697875 20.474324321746828 L 132.2 27.5 L 130.4 32.8 L 128.5 38.1 L 126.4 43.4 L 124.3 48.6 L 122.0 53.7 L 119.6 58.8 L 116.9 63.7 L 116.09104347229004 65.06685762405395 L 121.5 64.4 L 128.9 63.4 L 144.3 61.2 L 152.3 59.9 L 160.4 58.7 L 163.29139347076415 58.31680326461792 L 162.8 57.2 L 160.6 52.4 L 158.2 47.8 L 155.7 43.3 L 153.2 38.9 L 150.6 34.6 L 148.0 30.4 L 149.3 29.1 L 153.5 32.1 L 157.4 35.6 L 161.1 39.4 L 164.6 43.6 L 167.9 48.1 L 171.0 52.8 L 174.0 57.8 L 176.8 63.1 L 179.5 68.6 L 182.0 74.4 L 181.7 79.0 L 178.4 82.1 L 173.8 81.8 L 170.7 78.4 L 168.9 72.8 Z " />
</g>
</svg>
