<svg xmlns="http://www.w3.org/2000/svg" xmlns:xlink="http://www.w3.org/1999/xlink" version="1.1" baseProfile="full" viewBox="0 0 200 200" width="200" height="200">
<g fill="black">
<path d="M 115.1 24.4 L 146.1 24.4 L 152.1 19.4 L 163.1 28.4 L 158.1 32.4 L 158.1 160.5 L 158.2 161.8 L 158.3 162.7 L 158.5 163.3 L 158.7 163.6 L 159.0 163.9 L 159.4 164.1 L 160.0 164.3 L 160.9 164.5 L 175.4 164.5 L 181.4 139.5 L 183.4 139.5 L 181.4 164.5 L 185.0 166.9 L 187.4 170.5 L 185.0 174.1 L 181.4 176.5 L 162.1 176.5 L 159.6 176.4 L 157.1 175.9 L 154.7 175.1 L 152.4 173.9 L 150.4 172.3 L 148.7 170.2 L 147.5 168.0 L 146.7 165.6 L 146.3 163.1 L 146.1 160.5 L 146.1 28.4 L 115.1 28.4 L 115.1 91.3 L 114.5 104.5 L 113.1 116.9 L 111.0 128.5 L 108.2 139.3 L 104.6 149.4 L 100.4 158.6 L 95.3 167.0 L 89.6 174.5 L 83.1 181.0 L 75.8 186.4 L 74.7 185.1 L 80.3 178.4 L 85.3 171.3 L 89.7 163.6 L 93.5 155.4 L 96.7 146.5 L 99.2 136.9 L 101.1 126.6 L 102.4 115.6 L 103.1 103.9 L 103.1 18.4 Z M 15.8 186.8 L 12.8 183.4 L 13.0 178.8 L 14.3 176.9 L 15.5 174.6 L 16.7 172.0 L 17.8 169.1 L 18.9 165.9 L 19.9 162.4 L 20.8 158.7 L 21.7 154.6 L 22.7 150.3 L 23.3 145.6 L 25.1 145.6 L 25.6 150.3 L 26.2 154.9 L 26.5 159.2 L 26.7 163.3 L 26.6 167.2 L 26.4 170.9 L 26.0 174.5 L 25.5 177.8 L 24.7 181.0 L 23.8 184.1 L 20.3 187.1 Z M 50.5 166.2 L 50.3 163.6 L 49.9 160.9 L 49.4 158.2 L 48.9 155.6 L 47.5 150.2 L 46.7 147.5 L 45.4 144.9 L 46.9 143.9 L 48.8 146.1 L 51.0 148.2 L 53.0 150.5 L 54.8 152.9 L 56.4 155.4 L 58.0 158.1 L 59.3 160.9 L 60.6 163.8 L 61.7 166.8 L 62.6 169.9 L 61.5 174.3 L 57.6 176.7 L 53.2 175.6 L 50.7 171.7 L 50.7 168.9 Z M 39.2 180.9 L 35.1 178.9 L 33.5 174.6 L 34.0 172.4 L 34.3 170.0 L 34.5 167.5 L 34.7 164.8 L 34.6 162.0 L 34.5 159.1 L 34.2 156.0 L 33.9 152.7 L 33.5 149.3 L 32.6 145.9 L 34.3 145.2 L 36.0 148.4 L 37.8 151.4 L 39.5 154.5 L 40.9 157.5 L 42.1 160.5 L 43.1 163.5 L 44.0 166.5 L 44.7 169.4 L 45.2 172.3 L 45.5 175.3 L 43.5 179.3 Z M 68.1 163.0 L 66.1 157.8 L 62.8 150.6 L 61.7 148.3 L 60.5 145.9 L 59.0 143.9 L 60.3 142.6 L 62.3 144.2 L 64.7 145.6 L 66.9 147.2 L 69.1 149.1 L 71.2 151.1 L 73.2 153.2 L 75.2 155.5 L 79.0 160.5 L 80.8 163.2 L 81.0 167.8 L 78.0 171.3 L 73.4 171.5 L 70.0 168.4 L 69.1 165.7 Z M 20.8 139.4 L 20.8 72.18461542129516 L 17.8 76.8 L 13.4 82.7 L 11.8 81.8 L 14.4 75.1 L 16.9 68.4 L 19.3 61.8 L 21.6 55.2 L 23.7 48.5 L 25.7 41.8 L 27.4 35.0 L 29.0 28.2 L 30.3 21.4 L 31.34260654449463 15.405012512207032 L 31.3 15.4 L 31.8 12.6 L 43.2 16.8 L 45.8 19.3 L 42.23779973983765 20.59534559249878 L 41.4 23.9 L 39.3 31.0 L 38.83333330154419 32.4 L 55.6 32.4 L 61.6 27.4 L 72.6 36.4 L 67.6 39.4 L 65.30684928894043 40.35547943115235 L 64.2 42.5 L 62.6 45.5 L 60.9 48.5 L 57.3 54.5 L 55.4 57.4 L 53.3 60.3 L 51.17857141494751 63.0 L 66.6 63.0 L 72.1 58.0 L 82.6 67.0 L 77.6 70.5 L 77.6 133.9 L 66.6 139.4 L 66.6 133.9 L 31.8 133.9 Z M 31.8 100.5 L 31.8 129.9 L 44.2 129.9 L 44.2 100.5 Z M 54.2 100.5 L 54.2 129.9 L 66.6 129.9 L 66.6 100.5 Z M 31.8 67.0 L 31.8 96.5 L 44.2 96.5 L 44.2 67.0 Z M 54.2 67.0 L 54.2 96.5 L 66.6 96.5 L 66.6 67.0 Z M 37.5 36.4 L 37.0 37.9 L 34.5 44.7 L 31.7 51.5 L 28.6 58.0 L 27.223312854766846 60.71165647506714 L 31.8 63.0 L 48.11176471710205 63.0 L 48.5 61.8 L 49.4 58.4 L 50.2 55.0 L 51.1 51.7 L 52.0 48.5 L 52.9 45.2 L 54.5 38.8 L 55.025 36.4 Z " />
</g>
</svg>
