<svg xmlns="http://www.w3.org/2000/svg" xmlns:xlink="http://www.w3.org/1999/xlink" version="1.1" baseProfile="full" viewBox="0 0 200 200" width="200" height="200">
<g fill="black">
<path d="M 167.1 166.2 L 162.8 161.5 L 158.7 156.5 L 154.9 151.3 L 151.3 145.9 L 148.0 140.2 L 145.0 134.3 L 142.4 128.0 L 141.1 124.15909090042115 L 141.1 181.8 L 129.1 187.8 L 129.1 135.26341466903688 L 128.2 136.8 L 123.6 143.4 L 118.5 149.7 L 113.0 155.6 L 107.0 161.1 L 100.5 166.2 L 93.5 170.8 L 86.1 174.9 L 78.1 178.5 L 77.3 176.9 L 84.0 171.7 L 90.4 166.5 L 96.3 161.1 L 101.7 155.6 L 106.7 149.9 L 111.2 143.9 L 115.3 137.8 L 118.9 131.4 L 122.1 124.8 L 123.11739130020142 122.2 L 89.7 122.2 L 89.7 118.2 L 129.1 118.2 L 129.1 93.9 L 141.1 95.9 L 144.1 97.9 L 141.1 99.7 L 141.1 118.2 L 162.1 118.2 L 172.1 108.2 L 184.1 118.2 L 184.1 122.2 L 143.1148148536682 122.2 L 146.0 126.0 L 150.0 131.2 L 154.0 136.2 L 158.0 141.0 L 162.1 145.5 L 166.4 149.7 L 170.7 153.8 L 175.1 157.6 L 179.7 161.1 L 184.4 164.4 L 187.3 166.6 L 176.4 174.9 L 171.6 170.7 Z M 15.4 186.5 L 12.8 182.7 L 13.5 178.2 L 15.1 176.0 L 16.7 173.4 L 18.2 170.5 L 19.6 167.2 L 20.9 163.5 L 22.1 159.5 L 23.2 155.1 L 24.2 150.4 L 25.2 145.4 L 26.1 140.0 L 27.9 140.0 L 28.5 145.5 L 29.0 150.7 L 29.2 155.8 L 29.2 160.6 L 28.8 165.1 L 28.3 169.5 L 27.5 173.6 L 26.5 177.5 L 25.2 181.1 L 23.6 184.6 L 19.9 187.2 Z M 42.4 180.9 L 38.6 178.4 L 37.6 174.0 L 38.3 171.6 L 38.9 169.1 L 39.3 166.4 L 39.5 163.5 L 39.6 160.5 L 39.6 157.4 L 39.3 154.1 L 38.9 150.6 L 38.5 146.9 L 37.5 143.2 L 39.2 142.5 L 41.0 146.0 L 43.0 149.3 L 44.7 152.6 L 46.1 156.0 L 47.2 159.3 L 48.1 162.7 L 48.8 166.0 L 49.3 169.4 L 49.4 172.7 L 49.4 176.0 L 46.9 179.9 Z M 57.1 165.2 L 56.7 162.4 L 56.1 159.6 L 55.4 156.9 L 54.5 154.1 L 53.4 151.4 L 52.2 148.6 L 50.8 145.8 L 49.0 143.3 L 50.3 142.0 L 52.8 144.1 L 55.5 146.1 L 57.9 148.3 L 60.1 150.8 L 62.2 153.4 L 64.0 156.2 L 65.7 159.2 L 67.1 162.3 L 68.4 165.6 L 69.4 169.1 L 68.3 173.5 L 64.4 175.9 L 60.0 174.8 L 57.6 170.9 L 57.4 168.0 Z M 73.7 156.8 L 73.5 155.1 L 73.1 153.3 L 72.5 151.4 L 71.8 149.5 L 70.8 147.5 L 69.6 145.3 L 68.2 143.1 L 66.2 141.3 L 67.3 139.8 L 69.6 141.4 L 72.1 142.6 L 74.4 144.0 L 76.6 145.6 L 78.5 147.3 L 80.3 149.1 L 81.9 151.2 L 83.3 153.3 L 84.5 155.6 L 85.4 158.1 L 84.3 162.5 L 80.4 164.9 L 76.0 163.8 L 73.6 159.9 L 73.7 158.4 Z M 21.0 137.0 L 21.0 65.93157892227173 L 17.7 70.1 L 13.7 74.4 L 12.2 73.5 L 14.5 68.1 L 16.9 62.6 L 19.3 57.2 L 21.7 51.6 L 24.0 45.8 L 26.4 40.0 L 30.8 27.8 L 32.9 21.4 L 34.700617694854735 15.826659393310546 L 34.6 15.8 L 35.5 13.4 L 46.3 18.9 L 48.4 21.8 L 44.807394409179686 22.493309879302977 L 43.6 25.4 L 40.8 31.8 L 40.209836101531984 33.0 L 60.0 33.0 L 66.0 28.0 L 77.0 37.0 L 72.0 40.0 L 69.44132232666016 41.06611566543579 L 69.1 41.7 L 67.4 44.3 L 65.4 47.0 L 63.3 49.7 L 60.8 52.6 L 58.2 55.4 L 55.2 58.4 L 51.9 61.3 L 50.146875 63.0 L 69.0 63.0 L 75.0 58.0 L 86.0 67.0 L 81.0 71.0 L 81.0 131.0 L 69.0 137.0 L 69.0 131.0 L 33.0 131.0 Z M 33.0 99.0 L 33.0 127.0 L 45.0 127.0 L 45.0 99.0 Z M 57.0 99.0 L 57.0 127.0 L 69.0 127.0 L 69.0 99.0 Z M 155.8 93.9 L 147.6 88.6 L 140.4 82.8 L 138.72401094436646 81.17557983398437 L 136.5 83.2 L 127.9 89.5 L 118.6 95.1 L 108.6 99.9 L 97.8 103.8 L 86.3 106.9 L 85.8 105.2 L 96.4 100.3 L 106.2 95.1 L 115.2 89.5 L 123.4 83.4 L 130.8 76.8 L 132.5888298034668 74.90275630950927 L 128.4 69.8 L 123.7 62.6 L 120.0 54.9 L 117.4 46.9 L 117.07689819335937 45.09063005447388 L 115.9 47.9 L 112.5 55.0 L 108.7 61.8 L 104.6 68.5 L 100.0 74.8 L 95.0 80.8 L 89.5 86.4 L 88.1 85.3 L 91.9 78.6 L 95.5 71.9 L 98.9 65.2 L 102.0 58.4 L 104.8 51.5 L 107.3 44.5 L 109.5 37.3 L 111.3 30.1 L 112.9 22.6 L 114.02846050262451 16.002846050262452 L 114.0 16.0 L 114.5 13.1 L 126.0 17.2 L 128.6 19.7 L 125.05249996185303 20.989999961853027 L 124.0 25.2 L 121.7 33.0 L 120.47600002288819 36.4 L 160.2 36.4 L 170.2 26.4 L 182.2 36.4 L 182.2 40.4 L 167.54285717010498 40.4 L 167.5 40.5 L 162.9 50.4 L 157.5 59.7 L 151.3 68.2 L 146.00850534439087 74.17182970046997 L 146.8 74.8 L 153.7 79.4 L 161.4 83.6 L 169.8 87.4 L 179.0 90.7 L 185.9 93.3 L 174.4 103.1 L 164.7 98.8 Z M 33.0 67.0 L 33.0 95.0 L 45.0 95.0 L 45.0 67.0 Z M 57.0 67.0 L 57.0 95.0 L 69.0 95.0 L 69.0 67.0 Z M 119.03599996566773 40.4 L 119.0 40.5 L 118.94651918411255 40.627663898468015 L 121.3 45.4 L 125.3 52.2 L 129.8 58.6 L 134.8 64.4 L 138.71372709274291 68.10774145126342 L 143.3 62.2 L 148.3 54.1 L 152.7 45.5 L 154.63943662643433 40.4 Z M 38.24262294769287 37.0 L 37.8 37.9 L 34.8 43.8 L 31.7 49.5 L 28.4 55.0 L 25.631428527832032 59.315714263916014 L 33.0 63.0 L 47.54615383148193 63.0 L 49.7 59.5 L 51.7 55.7 L 53.6 52.1 L 55.2 48.8 L 56.6 45.7 L 57.8 42.7 L 58.8 40.0 L 59.5 37.5 L 59.59090909957886 37.0 Z " />
</g>
</svg>
