<svg xmlns="http://www.w3.org/2000/svg" xmlns:xlink="http://www.w3.org/1999/xlink" version="1.1" baseProfile="full" viewBox="0 0 200 200" width="200" height="200">
<g fill="black">
<path d="M 116.9 17.2 L 119.4 19.8 L 115.88256225585937 20.930604934692383 L 113.9 28.2 L 110.7 38.9 L 107.3 49.5 L 103.8 59.8 L 100.2 69.8 L 99.16492891311646 72.4274881362915 L 103.8 73.2 L 106.8 75.2 L 103.8 77.0 L 103.8 181.1 L 91.8 187.1 L 91.8 90.28139533996583 L 88.0 98.5 L 83.5 107.5 L 78.6 116.1 L 77.0 115.4 L 80.0 106.0 L 83.1 96.5 L 86.1 86.9 L 89.2 77.1 L 92.1 67.2 L 95.0 57.0 L 97.7 46.7 L 100.3 36.1 L 102.9 25.3 L 105.09837636947631 15.315707111358643 L 105.0 15.3 L 105.7 12.6 Z M 163.0 108.8 L 163.0 70.3 L 149.0 70.3 L 149.0 102.9 L 148.65583333969116 108.8 Z M 15.0 186.7 L 12.2 183.0 L 12.8 178.5 L 14.2 176.5 L 15.6 174.2 L 16.9 171.4 L 18.2 168.3 L 19.4 164.9 L 20.5 161.1 L 21.5 157.0 L 22.5 152.5 L 23.5 147.7 L 24.2 142.5 L 26.0 142.5 L 26.6 147.8 L 27.2 152.8 L 27.4 157.5 L 27.5 162.1 L 27.3 166.3 L 26.9 170.4 L 26.3 174.2 L 25.5 177.9 L 24.4 181.3 L 23.2 184.5 L 19.5 187.2 Z M 51.8 166.6 L 51.6 164.0 L 51.2 161.4 L 50.7 158.8 L 50.1 156.2 L 49.3 153.6 L 48.4 151.0 L 47.4 148.3 L 46.0 145.8 L 47.3 144.7 L 49.5 146.7 L 51.8 148.7 L 53.9 150.9 L 55.8 153.3 L 57.6 155.8 L 59.2 158.5 L 60.6 161.3 L 61.9 164.2 L 62.9 167.3 L 63.8 170.5 L 62.5 174.9 L 58.6 177.2 L 54.2 175.9 L 51.9 171.9 L 51.9 169.3 Z M 39.2 181.1 L 35.2 179.0 L 33.8 174.6 L 34.3 172.4 L 34.8 170.0 L 35.1 167.4 L 35.3 164.8 L 35.4 161.9 L 35.3 159.0 L 35.2 155.9 L 35.0 152.6 L 34.7 149.2 L 34.0 145.7 L 35.7 145.1 L 37.2 148.4 L 39.0 151.4 L 40.5 154.5 L 41.8 157.6 L 42.9 160.7 L 43.8 163.7 L 44.6 166.7 L 45.1 169.7 L 45.5 172.7 L 45.8 175.7 L 43.6 179.7 Z M 68.7 162.0 L 68.1 159.6 L 67.4 157.2 L 66.6 154.8 L 65.7 152.6 L 63.5 148.0 L 62.3 145.8 L 60.6 143.8 L 61.7 142.5 L 63.9 144.0 L 66.4 145.3 L 68.7 147.0 L 70.8 148.8 L 72.9 150.8 L 74.8 153.1 L 76.6 155.5 L 78.2 158.0 L 79.7 160.8 L 81.1 163.7 L 80.6 168.2 L 77.1 171.1 L 72.6 170.6 L 69.6 167.1 L 69.2 164.5 Z M 21.1 136.2 L 21.1 66.06470584869385 L 18.1 70.3 L 14.4 74.7 L 12.8 73.7 L 16.8 63.1 L 18.9 57.6 L 20.9 52.0 L 22.9 46.3 L 24.9 40.4 L 26.8 34.4 L 28.6 28.1 L 30.4 21.7 L 32.0 15.1 L 32.0481635093689 15.113701725006104 L 32.5 13.5 L 43.6 18.4 L 45.9 21.2 L 42.25325241088867 22.159670448303224 L 41.2 25.1 L 38.8 31.5 L 38.346031761169435 32.6 L 54.4 32.6 L 60.4 27.6 L 71.4 36.6 L 66.4 39.6 L 63.91652173995972 40.63478260040283 L 63.6 41.2 L 62.0 43.9 L 60.2 46.6 L 58.2 49.4 L 55.9 52.3 L 53.4 55.2 L 50.7 58.3 L 47.6 61.4 L 45.9235294342041 63.3 L 62.8 63.3 L 68.3 58.3 L 78.8 67.3 L 73.8 70.8 L 73.8 130.7 L 62.8 136.2 L 62.8 130.7 L 32.1 130.7 Z M 32.1 99.0 L 32.1 126.7 L 42.4 126.7 L 42.4 99.0 Z M 52.4 99.0 L 52.4 126.7 L 62.8 126.7 L 62.8 99.0 Z M 32.1 67.3 L 32.1 95.0 L 42.4 95.0 L 42.4 67.3 Z M 52.4 67.3 L 52.4 95.0 L 62.8 95.0 L 62.8 67.3 Z M 149.0 27.7 L 149.0 66.3 L 163.0 66.3 L 163.0 27.7 Z M 36.69523811340332 36.6 L 36.2 37.8 L 33.5 43.8 L 30.8 49.6 L 27.8 55.2 L 25.175 59.8375 L 32.1 63.3 L 43.375 63.3 L 45.3 59.8 L 47.1 55.9 L 48.7 52.2 L 50.1 48.8 L 51.4 45.6 L 52.5 42.6 L 53.3 39.8 L 54.0 37.3 L 54.12727270126343 36.6 Z M 110.5 70.3 L 110.5 66.3 L 137.0 66.3 L 137.0 27.7 L 117.6 27.7 L 117.6 23.7 L 163.0 23.7 L 169.0 18.7 L 180.0 27.7 L 175.0 31.7 L 175.0 66.3 L 176.7 66.3 L 181.2 60.3 L 187.2 66.3 L 187.2 70.3 L 175.0 70.3 L 175.0 118.8 L 163.0 124.8 L 163.0 112.8 L 148.42250003814698 112.8 L 148.3 114.9 L 147.1 126.1 L 145.2 136.6 L 142.7 146.2 L 139.5 155.1 L 135.6 163.1 L 131.1 170.3 L 125.9 176.5 L 120.0 181.7 L 113.6 185.8 L 112.5 184.4 L 117.4 179.0 L 121.7 173.1 L 125.5 166.8 L 128.8 159.8 L 131.5 152.2 L 133.7 143.8 L 135.3 134.8 L 136.4 124.9 L 137.0 114.3 L 137.0 112.8 L 115.7 112.8 L 115.7 108.8 L 137.0 108.8 L 137.0 70.3 Z " />
</g>
</svg>
