<svg xmlns="http://www.w3.org/2000/svg" xmlns:xlink="http://www.w3.org/1999/xlink" version="1.1" baseProfile="full" viewBox="0 0 200 200" width="200" height="200">
<g fill="black">
<path d="M 62.4 49.6 L 61.3 47.1 L 59.9 44.6 L 58.4 42.0 L 56.6 39.4 L 54.6 36.8 L 52.3 34.1 L 49.9 31.3 L 48.96272344589234 30.4631459236145 L 47.5 34.7 L 44.4 42.9 L 41.0 50.9 L 37.4 58.7 L 33.5 66.3 L 31.17297296524048 70.4 L 51.81818180084228 70.4 L 60.0 61.4 L 70.0 70.4 L 70.0 74.4 L 52.7 74.4 L 52.7 103.0 L 55.918181800842284 103.0 L 64.1 94.0 L 74.1 103.0 L 74.1 107.0 L 52.7 107.0 L 52.7 164.68571424484253 L 55.1 164.0 L 60.8 162.3 L 66.5 160.8 L 72.4 159.3 L 73.1 160.9 L 68.0 164.2 L 62.8 167.3 L 57.6 170.1 L 52.3 172.7 L 46.9 175.2 L 41.5 177.6 L 30.7 182.0 L 23.844646072387697 184.5390199661255 L 22.7 188.3 L 19.9 186.0 L 14.6 175.0 L 16.6 174.4 L 22.0 173.1 L 27.5 171.8 L 32.9 170.3 L 38.4 168.8 L 40.7 168.18392858505248 L 40.7 107.0 L 18.7 107.0 L 18.7 103.0 L 40.7 103.0 L 40.7 74.4 L 31.0 74.4 L 31.0 70.70476188659669 L 29.3 73.7 L 24.8 80.9 L 19.9 87.8 L 14.6 94.3 L 13.1 93.3 L 20.1 78.3 L 23.4 70.7 L 26.6 63.1 L 29.6 55.4 L 32.4 47.5 L 34.9 39.5 L 37.3 31.4 L 39.4 23.2 L 41.18241634368896 15.71385145187378 L 41.1 15.7 L 41.8 13.0 L 53.0 17.7 L 55.4 20.3 L 51.89199819564819 21.364929103851317 L 50.4 26.3 L 49.75269393920898 28.174955558776855 L 51.5 29.1 L 55.0 30.7 L 58.2 32.6 L 61.2 34.7 L 64.1 36.8 L 66.7 39.2 L 69.1 41.7 L 71.3 44.3 L 73.3 47.0 L 75.1 49.9 L 75.0 54.5 L 71.9 57.8 L 67.3 57.8 L 64.0 54.6 L 63.3 52.1 Z M 146.5 187.0 L 134.7 185.8 L 124.8 183.7 L 116.7 180.7 L 110.2 176.7 L 105.2 171.7 L 101.5 166.0 L 98.9 159.7 L 98.0890489578247 156.546301651001 L 97.5 157.5 L 95.6 161.0 L 93.6 164.4 L 91.6 167.6 L 89.5 170.8 L 87.4 173.9 L 85.4 176.9 L 83.3 179.9 L 81.7745057106018 182.11196670532226 L 82.8 186.1 L 79.2 185.6 L 69.0 179.0 L 70.3 177.6 L 72.9 175.3 L 75.5 172.9 L 78.1 170.6 L 80.8 168.1 L 83.5 165.7 L 86.3 163.2 L 89.2 160.6 L 90.2 159.73793106079103 L 90.2 95.7 L 72.8 95.7 L 72.8 91.7 L 90.2 91.7 L 95.7 86.7 L 106.2 95.7 L 101.2 99.2 L 101.2 154.9 L 100.83694267272949 155.08152866363525 L 102.7 157.9 L 106.4 162.8 L 110.4 166.7 L 114.9 169.7 L 120.3 172.1 L 127.2 173.8 L 135.9 174.9 L 146.9 175.2 L 160.3 174.8 L 176.5 173.7 L 187.5 172.9 L 177.4 186.8 L 160.7 187.4 Z M 122.1 155.7 L 111.1 161.2 L 111.1 49.2 L 122.1 51.2 L 124.9 53.2 L 122.1 54.95 L 122.1 144.7 L 138.9 144.7 L 138.9 13.2 L 150.9 15.2 L 153.9 17.2 L 150.9 19.0 L 150.9 144.7 L 167.2 144.7 L 167.2 49.2 L 179.2 51.2 L 182.2 53.2 L 179.2 55.0 L 179.2 154.7 L 167.2 160.7 L 167.2 148.7 L 122.1 148.7 Z M 26.2 148.2 L 26.0 145.1 L 25.6 142.0 L 25.1 139.0 L 24.4 135.9 L 23.5 132.9 L 22.6 129.8 L 21.5 126.7 L 19.9 123.7 L 21.3 122.6 L 26.3 127.6 L 28.5 130.3 L 30.5 133.2 L 32.3 136.3 L 33.9 139.5 L 35.3 142.8 L 36.4 146.3 L 37.4 149.9 L 38.1 153.6 L 36.6 157.9 L 32.6 160.0 L 28.2 158.5 L 26.2 154.4 L 26.3 151.3 Z M 72.8 124.0 L 75.1 126.7 L 71.05472059249878 127.76454725265503 L 68.6 133.2 L 67.0 136.2 L 65.4 139.3 L 61.8 145.3 L 59.9 148.3 L 57.7 151.3 L 55.8 154.3 L 54.1 153.6 L 55.1 150.1 L 55.8 146.6 L 57.4 139.8 L 58.8 133.2 L 59.5 130.0 L 60.1 126.8 L 60.7 123.7 L 61.037480163574216 121.60762310028076 L 61.0 121.6 L 61.096551704406735 121.24137935638427 L 61.2 120.6 L 61.26416721343994 120.61880760192871 L 61.7 119.0 Z M 91.1 48.5 L 90.0 45.5 L 88.8 42.5 L 87.5 39.5 L 86.0 36.6 L 84.4 33.6 L 82.7 30.7 L 80.9 27.8 L 78.7 25.0 L 79.9 23.7 L 82.9 25.7 L 85.9 27.8 L 88.8 30.0 L 91.4 32.5 L 93.9 35.1 L 96.3 38.0 L 98.5 40.9 L 100.5 44.1 L 102.4 47.4 L 104.2 50.8 L 103.9 55.3 L 100.5 58.5 L 96.0 58.2 L 92.9 54.8 L 92.0 51.6 Z " />
</g>
</svg>
