<svg xmlns="http://www.w3.org/2000/svg" xmlns:xlink="http://www.w3.org/1999/xlink" version="1.1" baseProfile="full" viewBox="0 0 200 200" width="200" height="200">
<g fill="black">
<path d="M 14.0 180.5 L 40.0 180.5 L 40.0 143.4 L 52.0 149.4 L 148.0 149.4 L 154.0 144.4 L 165.0 153.4 L 160.0 157.4 L 160.0 180.5 L 164.0 180.5 L 174.0 170.5 L 186.0 180.5 L 186.0 184.5 L 14.0 184.5 Z M 52.0 153.4 L 52.0 180.5 L 76.0 180.5 L 76.0 153.4 Z M 88.0 153.4 L 88.0 180.5 L 112.0 180.5 L 112.0 153.4 Z M 124.0 153.4 L 124.0 180.5 L 148.0 180.5 L 148.0 153.4 Z M 99.6 133.5 L 120.8 133.5 L 121.7 133.3 L 122.3 133.1 L 122.6 132.9 L 122.8 132.8 L 123.0 132.6 L 123.3 131.7 L 123.5 130.8 L 123.6 129.5 L 123.6 105.8 L 18.4 105.8 L 18.4 101.8 L 123.6 101.8 L 123.6 88.9 L 135.6 90.9 L 138.6 92.9 L 135.6 94.7 L 135.6 101.8 L 159.6 101.8 L 169.6 91.8 L 181.6 101.8 L 181.6 105.8 L 135.6 105.8 L 135.6 129.5 L 135.4 132.1 L 135.0 134.6 L 134.2 137.0 L 132.9 139.3 L 131.3 141.3 L 129.3 142.9 L 127.0 144.2 L 124.6 145.0 L 122.1 145.4 L 119.6 145.5 L 119.6 139.5 L 99.6 136.5 Z M 75.7 125.9 L 74.0 124.2 L 72.0 122.4 L 69.8 120.6 L 67.3 118.7 L 64.5 116.7 L 61.5 114.7 L 58.3 112.6 L 54.7 110.8 L 55.3 109.1 L 59.3 110.1 L 63.2 110.8 L 66.8 111.7 L 70.2 112.7 L 73.5 113.8 L 76.5 115.0 L 79.3 116.3 L 82.0 117.7 L 84.5 119.2 L 86.8 120.8 L 88.5 125.0 L 86.8 129.3 L 82.5 130.9 L 78.3 129.2 L 77.2 127.6 Z M 52.9 89.1 L 40.9 95.1 L 40.9 42.5 L 52.9 48.5 L 93.0 48.5 L 93.0 38.6 L 19.4 38.6 L 19.4 34.6 L 93.0 34.6 L 93.0 15.9 L 105.0 17.9 L 108.0 19.9 L 105.0 21.7 L 105.0 34.6 L 162.4181818008423 34.6 L 170.6 25.6 L 180.6 34.6 L 180.6 38.6 L 105.0 38.6 L 105.0 48.5 L 145.0 48.5 L 151.0 43.5 L 162.0 52.5 L 157.0 56.5 L 157.0 88.1 L 145.0 94.1 L 145.0 86.1 L 52.9 86.1 Z M 52.9 69.3 L 52.9 82.1 L 93.0 82.1 L 93.0 69.3 Z M 105.0 69.3 L 105.0 82.1 L 145.0 82.1 L 145.0 69.3 Z M 52.9 52.5 L 52.9 65.3 L 93.0 65.3 L 93.0 52.5 Z M 105.0 52.5 L 105.0 65.3 L 145.0 65.3 L 145.0 52.5 Z " />
</g>
</svg>
