<svg xmlns="http://www.w3.org/2000/svg" xmlns:xlink="http://www.w3.org/1999/xlink" version="1.1" baseProfile="full" viewBox="0 0 200 200" width="200" height="200">
<g fill="black">
<path d="M 67.7 133.58793106079102 L 67.2 134.2 L 61.9 140.6 L 57.1 146.3 L 52.8 151.3 L 49.2 155.8 L 46.1 159.7 L 43.6 162.9 L 41.8 165.5 L 41.632580280303955 165.80439949035645 L 43.0 167.5 L 44.7 171.1 L 45.6 175.1 L 45.6 179.4 L 43.2 183.3 L 38.8 184.4 L 34.9 181.9 L 33.8 177.5 L 34.4 175.3 L 34.6 173.4 L 34.4 171.6 L 33.7 169.8 L 32.5 167.8 L 30.5 165.8 L 27.8 163.7 L 24.3 161.8 L 20.1 159.9 L 15.1 158.5 L 15.3 156.7 L 20.7 157.2 L 25.5 157.7 L 30.0 158.7 L 32.57547168731689 159.6245283126831 L 33.6 158.6 L 36.2 156.2 L 39.3 153.3 L 43.0 150.0 L 47.4 146.1 L 52.4 141.7 L 58.1 136.8 L 64.5 131.5 L 71.7 125.8 L 73.0 127.1 L 70.54929580688477 130.1 L 114.9 130.1 L 114.9 117.2 L 79.4 117.2 L 79.4 113.2 L 114.9 113.2 L 114.9 100.1 L 126.9 102.1 L 129.9 104.1 L 126.9 105.9 L 126.9 113.2 L 135.71818180084227 113.2 L 143.9 104.2 L 153.6637161254883 112.98734455108642 L 158.6 109.3 L 165.95 103.0 L 166.4 102.6 L 174.0 111.9 L 174.4 115.5 L 170.8565176010132 114.27588787078858 L 165.4 118.4 L 156.3 124.4 L 146.7 130.0 L 146.50769233703613 130.1 L 172.6777777671814 130.1 L 178.9 123.1 L 186.9 130.1 L 186.9 134.1 L 138.81538457870482 134.1 L 136.7 135.2 L 126.2 140.1 L 116.04318180084229 144.2 L 156.2 144.2 L 162.2 139.2 L 173.2 148.2 L 168.2 152.2 L 168.2 180.1 L 156.2 186.1 L 156.2 178.1 L 102.6 178.1 L 102.6 181.1 L 90.6 187.1 L 90.6 152.34146337509156 L 79.7 155.0 L 66.8 157.4 L 66.4 155.6 L 78.6 151.3 L 90.3 146.9 L 90.6 146.7778760910034 L 90.6 138.2 L 100.05658540725707 142.92829265594483 L 101.6 142.3 L 112.4 137.5 L 119.2 134.1 L 67.7 134.1 Z M 102.6 163.2 L 102.6 174.1 L 156.2 174.1 L 156.2 163.2 Z M 104.75500001907349 148.2 L 103.9 148.5 L 102.6 148.88235292434692 L 102.6 159.2 L 156.2 159.2 L 156.2 148.2 Z M 34.9 136.7 L 33.5 135.6 L 31.8 134.5 L 29.6 133.2 L 27.0 132.0 L 24.2 130.7 L 20.9 129.4 L 17.4 128.0 L 13.5 127.0 L 13.7 125.2 L 17.8 125.5 L 21.7 125.5 L 25.3 125.6 L 28.6 125.8 L 31.7 126.1 L 34.5 126.4 L 37.1 126.9 L 39.5 127.5 L 41.8 128.3 L 43.9 129.3 L 46.1 133.3 L 44.8 137.7 L 40.7 139.9 L 36.3 138.6 L 35.9 137.8 Z M 126.9 117.2 L 126.9 130.0061855316162 L 132.3 127.0 L 141.6 121.4 L 147.79322032928468 117.2 Z M 49.2 115.2 L 47.7 114.0 L 45.9 112.8 L 43.8 111.6 L 41.4 110.4 L 38.7 109.1 L 35.7 107.8 L 32.4 106.4 L 28.8 105.4 L 29.1 103.6 L 32.9 103.9 L 36.5 103.9 L 39.9 104.0 L 43.1 104.2 L 46.0 104.5 L 48.8 104.9 L 51.4 105.4 L 53.8 106.0 L 56.0 106.7 L 58.2 107.6 L 60.5 111.6 L 59.4 116.0 L 55.5 118.3 L 51.0 117.3 L 50.3 116.3 Z M 156.6 97.0 L 148.9 93.9 L 141.9 90.5 L 139.4636206626892 89.11313791275025 L 137.6 89.9 L 127.6 93.1 L 116.7 95.9 L 104.8 98.2 L 91.9 99.8 L 78.1 100.8 L 77.8 99.1 L 91.3 96.1 L 103.7 92.9 L 115.0 89.6 L 125.2 86.0 L 130.74276800155639 83.56361846923828 L 129.5 82.7 L 124.2 78.4 L 119.6 73.7 L 115.8 68.7 L 113.18888893127442 64.0 L 104.0 64.0 L 104.0 60.0 L 162.0 60.0 L 162.01832065582275 59.98473281860352 L 162.9 58.7 L 163.27240219116212 58.93966484069824 L 168.0 55.0 L 179.0 64.0 L 174.0 67.0 L 170.15597486495972 68.60167713165283 L 167.9 71.3 L 161.7 76.8 L 154.6 81.7 L 151.83127031326293 83.22280130386352 L 152.9 83.6 L 160.2 85.8 L 168.1 87.8 L 176.4 89.5 L 185.3 91.5 L 173.5 102.4 L 164.8 99.9 Z M 79.1 88.7 L 74.8 86.3 L 70.47110538482666 84.26806983947753 L 63.7 87.7 L 55.5 91.1 L 46.6 94.2 L 36.9 96.8 L 26.4 99.1 L 15.2 100.8 L 14.7 99.1 L 25.4 95.4 L 35.3 91.7 L 44.3 88.0 L 52.5 84.2 L 59.7 80.2 L 60.19969968795776 79.87987985610962 L 58.5 79.2 L 52.1 76.8 L 45.1 74.4 L 37.7 71.8 L 29.7 69.0 L 30.1 67.3 L 38.5 68.1 L 46.4 69.2 L 53.8 70.5 L 60.7 72.0 L 67.2 73.6 L 68.7855281829834 74.04923295974731 L 71.6 71.9 L 76.2 67.5 L 79.2930233001709 64.0 L 25.0 64.0 L 25.0 60.0 L 82.0 60.0 L 82.13439998626708 59.88800001144409 L 82.9 58.7 L 83.27240219116212 58.93966484069824 L 88.0 55.0 L 99.0 64.0 L 94.0 67.0 L 90.28313541412354 68.54869356155396 L 88.7 70.5 L 83.6 75.4 L 80.49455499649048 77.76855974197387 L 83.8 79.0 L 88.5 81.1 L 92.7 83.3 L 95.2 87.1 L 94.5 91.6 L 90.7 94.1 L 86.2 93.3 L 82.9 91.0 Z M 116.55 64.0 L 118.8 65.8 L 123.6 69.3 L 128.6 72.6 L 134.0 75.7 L 139.8 78.5 L 140.44232206344606 78.77528085708619 L 142.3 77.8 L 149.1 73.4 L 154.8 68.7 L 159.21224489212037 64.0 Z M 163.2 51.3 L 156.5 48.8 L 149.6 46.3 L 145.94565706253053 44.99487752914429 L 140.8 47.5 L 132.7 50.7 L 124.1 53.5 L 115.0 55.8 L 105.3 57.6 L 95.1 58.8 L 94.8 57.1 L 104.4 53.9 L 113.5 50.7 L 121.9 47.3 L 129.8 43.7 L 134.6441018104553 41.17841272354126 L 127.9 38.9 L 112.6 33.8 L 104.7 31.0 L 105.1 29.3 L 113.5 30.1 L 121.6 31.2 L 129.6 32.5 L 137.3 34.0 L 144.09674797058105 35.52032518386841 L 149.8 31.5 L 155.2 26.9 L 159.18125 23.0 L 101.0 23.0 L 101.0 19.0 L 162.7659999847412 19.0 L 164.4 17.1 L 164.83664121627808 17.46946563720703 L 169.0 14.0 L 180.0 23.0 L 175.0 26.0 L 170.37142858505248 27.92857141494751 L 168.1 30.2 L 162.0 35.2 L 157.09183673858644 38.59795913696289 L 159.5 39.2 L 166.6 41.2 L 173.5 43.2 L 180.2 45.3 L 183.5 48.4 L 183.8 53.0 L 180.6 56.3 L 176.0 56.5 L 169.7 53.9 Z M 74.3 48.6 L 70.6 46.4 L 66.57086610794067 44.28950128555298 L 60.3 47.9 L 53.4 51.1 L 46.1 53.9 L 38.5 56.1 L 30.5 57.8 L 22.1 58.8 L 21.8 57.1 L 29.5 54.1 L 36.7 51.1 L 43.6 47.8 L 50.0 44.3 L 56.1 40.5 L 56.77632846832275 40.016908168792725 L 56.5 39.9 L 50.8 37.8 L 44.6 35.6 L 37.9 33.4 L 30.8 31.0 L 31.1 29.2 L 38.7 29.7 L 45.8 30.4 L 52.5 31.4 L 58.7 32.6 L 64.5 34.0 L 64.61390647888183 34.034386825561526 L 66.9 32.1 L 71.7 27.5 L 75.75 23.0 L 25.0 23.0 L 25.0 19.0 L 78.84150943756103 19.0 L 80.2 17.2 L 80.69297294616699 17.58918914794922 L 85.0 14.0 L 96.0 23.0 L 91.0 26.0 L 86.91703701019287 27.701234531402587 L 84.6 30.2 L 79.1 35.3 L 76.05154514312744 37.72843017578125 L 79.3 39.1 L 83.5 41.1 L 87.2 43.4 L 89.5 47.3 L 88.3 51.8 L 84.4 54.0 L 79.9 52.9 L 77.4 50.7 Z " />
</g>
</svg>
