<svg xmlns="http://www.w3.org/2000/svg" xmlns:xlink="http://www.w3.org/1999/xlink" version="1.1" baseProfile="full" viewBox="0 0 200 200" width="200" height="200">
<g fill="black">
<path d="M 157.8 176.3 L 149.6 172.9 L 141.7 169.2 L 134.3 165.2 L 127.4 161.0 L 120.9 156.5 L 115.0 151.7 L 109.6 146.6 L 106.0 142.21739130020143 L 106.0 182.1 L 94.0 188.1 L 94.0 149.8015151977539 L 87.9 154.7 L 80.7 159.6 L 72.8 164.1 L 64.4 168.2 L 55.3 171.9 L 45.7 175.2 L 35.4 178.1 L 24.5 180.5 L 12.9 182.3 L 12.5 180.6 L 23.5 176.8 L 33.8 173.0 L 43.4 169.0 L 52.3 164.9 L 60.6 160.6 L 68.1 156.0 L 75.0 151.3 L 81.2 146.3 L 86.06538457870484 141.7 L 23.5 141.7 L 23.5 137.7 L 94.0 137.7 L 94.0 124.2 L 106.0 126.2 L 109.0 128.2 L 106.0 130.0 L 106.0 137.7 L 158.3 137.7 L 168.3 127.7 L 180.3 137.7 L 180.3 141.7 L 109.44324321746826 141.7 L 112.2 143.4 L 118.4 146.9 L 124.8 150.4 L 131.5 153.7 L 138.5 156.9 L 145.8 159.8 L 153.6 162.6 L 161.7 165.1 L 170.2 167.5 L 179.0 169.6 L 187.4 171.8 L 175.7 182.4 L 166.6 179.5 Z M 165.5 103.9 L 166.5 107.4 L 162.53544301986693 106.64810123443604 L 159.7 109.2 L 156.6 112.0 L 153.2 114.8 L 149.7 117.6 L 146.0 120.5 L 142.1 123.4 L 137.9 126.3 L 133.5 129.1 L 129.0 131.9 L 127.8 130.6 L 131.3 126.5 L 134.6 122.5 L 137.8 118.7 L 141.0 115.1 L 144.0 111.7 L 146.8 108.3 L 149.5 105.1 L 152.0 101.9 L 154.3 98.9 L 155.94395608901976 96.73296699523925 L 155.9 96.7 L 156.9 95.5 Z M 53.7 118.7 L 53.2 116.9 L 52.5 115.0 L 51.6 113.1 L 50.5 111.1 L 49.1 109.0 L 47.5 106.9 L 45.8 104.7 L 43.5 102.9 L 44.4 101.4 L 47.1 102.8 L 49.9 103.9 L 52.5 105.2 L 54.9 106.6 L 57.2 108.3 L 59.2 110.1 L 61.1 112.0 L 62.9 114.1 L 64.4 116.4 L 65.7 118.8 L 65.1 123.3 L 61.6 126.3 L 57.1 125.7 L 54.1 122.2 L 54.0 120.5 Z M 93.5 114.5 L 92.9 112.6 L 92.1 110.7 L 91.1 108.8 L 89.9 106.9 L 88.5 104.9 L 86.9 102.9 L 85.1 100.8 L 82.8 99.2 L 83.6 97.6 L 86.3 98.8 L 89.1 99.7 L 91.7 100.9 L 94.2 102.2 L 96.5 103.8 L 98.7 105.5 L 100.7 107.4 L 102.5 109.6 L 104.1 111.8 L 105.6 114.3 L 105.3 118.9 L 101.9 122.0 L 97.4 121.7 L 94.3 118.3 L 94.0 116.4 Z M 161.05507879257203 80.55339832305908 L 172.5 90.0 L 173.0 93.0 L 168.28084383010864 90.54849033355713 L 162.5 91.3 L 151.1 92.4 L 139.3 93.5 L 126.9 94.5 L 114.0 95.4 L 100.6 96.3 L 86.6 97.1 L 72.2 97.8 L 57.2 98.4 L 41.6 98.8 L 25.5 98.9 L 25.4 97.1 L 41.3 95.0 L 56.7 93.0 L 71.6 91.3 L 86.0 89.6 L 99.8 87.9 L 113.1 86.2 L 125.8 84.5 L 138.1 82.8 L 149.8 81.1 L 160.9 79.4 Z M 28.6 32.5 L 27.4 31.0 L 26.0 29.4 L 24.3 27.7 L 22.5 26.0 L 20.4 24.2 L 18.1 22.4 L 15.7 20.4 L 12.8 18.8 L 13.5 17.2 L 16.7 18.2 L 19.8 18.9 L 22.8 19.6 L 25.6 20.5 L 28.2 21.4 L 30.7 22.4 L 33.0 23.5 L 35.2 24.7 L 37.3 26.0 L 39.2 27.4 L 40.7 31.7 L 38.7 35.8 L 35.546666622161865 36.9 L 52.2 36.9 L 52.2 13.6 L 64.2 15.6 L 67.2 17.6 L 64.2 19.4 L 64.2 36.9 L 88.9 36.9 L 94.9 31.9 L 105.9 40.9 L 100.9 44.9 L 100.9 72.4 L 88.9 78.4 L 88.9 40.9 L 64.2 40.9 L 64.2 74.7 L 52.2 80.7 L 52.2 40.9 L 27.4 40.9 L 27.4 75.4 L 15.4 81.4 L 15.4 30.9 L 27.4 36.9 L 33.536842060089114 36.9 L 30.3 35.4 L 29.5 34.0 Z M 167.1 73.4 L 164.0 70.6 L 160.1 67.7 L 155.4 64.6 L 150.95567226409912 61.933403396606444 L 149.9 62.8 L 142.5 67.6 L 134.4 71.7 L 125.6 75.1 L 116.1 77.8 L 105.9 79.7 L 95.0 80.8 L 94.7 79.1 L 105.1 76.0 L 114.6 72.6 L 123.2 69.0 L 131.0 64.9 L 138.0 60.4 L 142.2372555732727 56.996302890777585 L 136.8 54.2 L 129.3 50.3 L 121.0 46.2 L 121.6 44.5 L 130.6 46.8 L 138.9 49.3 L 146.4 51.8 L 147.4168420791626 52.1831579208374 L 149.4 50.2 L 154.0 44.6 L 157.7 38.4 L 158.65 36.4 L 125.88717947006225 36.4 L 124.0 38.7 L 120.6 42.6 L 117.0 46.5 L 113.2 50.4 L 109.1 54.1 L 104.7 57.7 L 103.4 56.6 L 106.2 51.7 L 109.0 47.0 L 111.8 42.5 L 114.5 38.1 L 117.0 33.8 L 119.5 29.6 L 121.8 25.4 L 124.0 21.3 L 126.0 17.3 L 127.45983867645263 14.226655387878418 L 127.4 14.2 L 128.4 12.4 L 138.4 19.1 L 140.1 22.3 L 136.1764705657959 22.435294151306152 L 135.8 23.0 L 133.1 27.0 L 130.2 30.9 L 129.04615383148194 32.4 L 164.7 32.4 L 174.7 22.4 L 186.7 32.4 L 186.7 36.4 L 171.9166666984558 36.4 L 171.7 36.8 L 167.5 44.3 L 162.4 51.1 L 157.55220642089844 56.28212413787842 L 159.4 57.1 L 164.9 59.7 L 169.7 62.4 L 173.9 65.1 L 177.5 67.9 L 180.5 70.9 L 181.6 75.4 L 179.3 79.3 L 174.8 80.4 L 170.9 78.1 L 169.4 75.9 Z M 48.4 49.0 L 50.8 51.7 L 46.25546875 52.9984375 L 45.9 53.6 L 44.4 55.7 L 42.8 57.7 L 41.0 59.6 L 39.1 61.4 L 37.0 63.1 L 34.8 64.6 L 32.4 66.0 L 30.2 67.7 L 29.0 66.4 L 30.7 64.4 L 32.0 62.0 L 33.1 59.8 L 34.1 57.6 L 34.9 55.6 L 35.6 53.5 L 36.1 51.5 L 36.5 49.6 L 36.7 47.7 L 36.7420711517334 46.94271841049194 L 36.5 46.9 L 37.2 44.2 Z M 74.0 60.3 L 73.7 58.8 L 73.3 57.3 L 72.7 55.6 L 71.9 53.9 L 70.9 52.0 L 69.7 50.1 L 68.4 48.0 L 66.6 46.3 L 67.6 44.9 L 69.8 46.3 L 72.2 47.3 L 76.4 49.7 L 78.3 51.1 L 80.0 52.5 L 81.6 54.1 L 83.1 55.7 L 84.4 57.5 L 85.5 59.4 L 85.0 64.0 L 81.4 66.9 L 76.9 66.3 L 74.0 62.8 L 74.1 61.6 Z M 102.0 23.7 L 102.3 27.3 L 98.20376567840576 25.81046028137207 L 97.3 26.3 L 92.3 28.8 L 89.7 30.0 L 86.9 31.2 L 84.0 32.4 L 81.1 33.5 L 77.9 34.5 L 74.9 35.9 L 74.0 34.3 L 76.6 32.3 L 81.2 27.9 L 83.3 25.8 L 85.4 23.8 L 89.3 19.9 L 91.1 18.0 L 92.8 16.2 L 93.73884296417236 15.14380168914795 L 93.6 15.0 L 94.5 14.3 Z " />
</g>
</svg>
