<svg xmlns="http://www.w3.org/2000/svg" xmlns:xlink="http://www.w3.org/1999/xlink" version="1.1" baseProfile="full" viewBox="0 0 200 200" width="200" height="200">
<g fill="black">
<path d="M 96.3 90.7 L 159.5 90.7 L 165.5 85.7 L 176.5 94.7 L 171.5 98.7 L 171.5 134.9 L 159.5 140.9 L 159.5 128.9 L 122.99090909957886 128.9 L 126.7 134.0 L 131.5 140.2 L 136.6 146.1 L 141.9 151.5 L 147.6 156.4 L 153.6 160.9 L 159.9 165.1 L 166.7 168.8 L 173.8 172.1 L 181.3 175.0 L 187.9 177.6 L 176.4 187.3 L 168.4 183.4 L 160.8 179.0 L 153.8 174.2 L 147.2 169.0 L 141.2 163.3 L 135.8 157.1 L 130.9 150.5 L 126.6 143.5 L 123.0 136.1 L 120.53924055099488 128.9 L 96.3 128.9 L 96.3 132.8 L 95.6 140.4 L 94.2 147.6 L 91.9 154.3 L 88.9 160.6 L 85.1 166.4 L 80.6 171.6 L 75.3 176.3 L 69.4 180.4 L 62.8 183.9 L 55.6 186.7 L 54.8 185.1 L 60.9 180.6 L 66.2 176.1 L 70.9 171.5 L 74.8 166.7 L 78.0 161.7 L 80.5 156.5 L 82.4 151.0 L 83.7 145.3 L 84.3 139.2 L 84.3 84.7 Z M 39.7 186.5 L 35.8 184.1 L 34.6 179.7 L 35.2 176.4 L 35.3 173.4 L 35.0 170.8 L 34.1 168.2 L 32.7 165.7 L 30.5 163.2 L 27.6 160.8 L 23.8 158.5 L 19.3 156.3 L 14.0 154.5 L 14.3 152.7 L 20.1 153.3 L 25.4 154.2 L 30.2 155.6 L 33.39691896438599 157.01259212493898 L 34.2 156.1 L 36.9 153.0 L 40.2 149.3 L 44.3 145.0 L 49.0 140.0 L 54.4 134.4 L 60.5 128.1 L 67.4 121.3 L 75.2 113.9 L 76.5 115.1 L 70.3 123.8 L 64.6 131.6 L 59.4 138.6 L 54.8 144.9 L 50.8 150.4 L 47.5 155.1 L 44.8 159.1 L 42.9 162.4 L 41.99457998275757 164.07154474258422 L 44.0 167.2 L 45.6 171.5 L 46.5 176.3 L 46.5 181.4 L 44.1 185.3 Z M 35.6 126.3 L 34.0 125.0 L 32.0 123.6 L 29.7 122.2 L 26.9 120.7 L 23.8 119.3 L 20.3 117.8 L 16.5 116.2 L 12.2 114.9 L 12.5 113.2 L 17.0 113.6 L 21.2 113.7 L 25.2 114.0 L 28.8 114.4 L 32.2 115.0 L 35.3 115.6 L 38.2 116.4 L 40.8 117.4 L 43.3 118.5 L 45.6 119.9 L 47.4 124.1 L 45.8 128.3 L 41.6 130.2 L 37.3 128.6 L 36.7 127.5 Z M 96.3 94.7 L 96.3 124.9 L 159.5 124.9 L 159.5 94.7 Z M 51.0 99.2 L 49.3 97.9 L 47.4 96.5 L 45.1 95.0 L 42.4 93.6 L 39.5 92.1 L 36.2 90.6 L 32.7 89.0 L 28.8 87.8 L 29.1 86.1 L 33.2 86.5 L 37.2 86.6 L 40.9 86.9 L 44.4 87.3 L 47.7 87.9 L 50.7 88.6 L 53.5 89.4 L 56.2 90.3 L 58.7 91.4 L 61.0 92.6 L 63.0 96.7 L 61.6 101.1 L 57.5 103.1 L 53.1 101.7 L 52.2 100.5 Z M 84.8 61.5 L 83.2 59.5 L 81.3 57.4 L 79.2 55.4 L 76.8 53.3 L 74.1 51.3 L 71.2 49.2 L 69.0 47.709677410125735 L 69.0 80.1 L 57.0 86.1 L 57.0 51.061904716491696 L 53.9 54.9 L 49.3 59.7 L 44.4 64.2 L 39.1 68.3 L 33.5 72.0 L 27.5 75.3 L 21.1 78.2 L 14.3 80.5 L 13.6 78.9 L 19.3 74.8 L 24.6 70.8 L 29.6 66.7 L 34.2 62.4 L 38.5 58.0 L 42.4 53.4 L 46.0 48.7 L 49.2 43.7 L 52.0 38.5 L 52.33703699111938 37.8 L 18.0 37.8 L 18.0 33.8 L 57.0 33.8 L 57.0 12.8 L 69.0 14.8 L 72.0 16.8 L 69.0 18.6 L 69.0 33.8 L 76.98347110748291 33.8 L 87.0 23.7 L 99.0 33.8 L 99.0 37.8 L 69.0 37.8 L 69.0 44.576923084259036 L 69.1 44.6 L 72.9 45.3 L 76.6 46.3 L 80.0 47.5 L 83.3 48.9 L 86.4 50.4 L 89.3 52.2 L 92.1 54.1 L 94.6 56.2 L 97.0 58.5 L 98.0 62.9 L 95.7 66.9 L 91.3 67.9 L 87.3 65.6 L 86.2 63.6 Z M 166.8 73.7 L 162.1 69.9 L 157.8 65.9 L 153.8 61.7 L 150.2 57.3 L 146.9 52.6 L 143.9 47.7 L 143.0 45.75 L 143.0 80.1 L 131.0 86.1 L 131.0 51.061904716491696 L 127.9 54.9 L 123.3 59.7 L 118.4 64.2 L 113.1 68.3 L 107.5 72.0 L 101.5 75.3 L 95.1 78.2 L 88.3 80.5 L 87.6 78.9 L 93.3 74.8 L 98.6 70.8 L 103.6 66.7 L 108.2 62.4 L 112.5 58.0 L 116.4 53.4 L 120.0 48.7 L 123.2 43.7 L 126.0 38.5 L 126.33703699111939 37.8 L 101.0 37.8 L 101.0 33.8 L 131.0 33.8 L 131.0 12.8 L 143.0 14.8 L 146.0 16.8 L 143.0 18.6 L 143.0 33.8 L 159.9834711074829 33.8 L 170.0 23.7 L 182.0 33.8 L 182.0 37.8 L 143.0 37.8 L 143.0 38.14210529327393 L 145.0 40.3 L 148.7 44.3 L 152.5 48.0 L 156.3 51.6 L 160.3 55.0 L 164.5 58.2 L 168.8 61.1 L 173.3 63.9 L 178.1 66.4 L 183.0 68.8 L 188.2 71.5 L 176.9 80.5 L 171.7 77.2 Z " />
</g>
</svg>
