<svg xmlns="http://www.w3.org/2000/svg" xmlns:xlink="http://www.w3.org/1999/xlink" version="1.1" baseProfile="full" viewBox="0 0 200 200" width="200" height="200">
<g fill="black">
<path d="M 103.7 150.6 L 103.3 149.4 L 102.8 148.1 L 102.2 146.7 L 101.5 145.2 L 100.6 143.7 L 99.6 142.1 L 98.5 140.4 L 97.0 139.2 L 97.33333330154419 138.7 L 66.2 138.7 L 66.2 134.7 L 121.1 134.7 L 121.1 126.5 L 80.2 126.5 L 80.2 122.5 L 121.1 122.5 L 121.1 112.1 L 87.0 112.1 L 75.0 118.1 L 75.0 82.4 L 87.0 88.4 L 167.1 88.4 L 173.1 83.4 L 184.1 92.4 L 179.1 96.4 L 179.1 112.1 L 168.22727270126342 117.53636360168457 L 173.9 122.5 L 173.9 126.5 L 133.1 126.5 L 133.1 134.7 L 173.7777777671814 134.7 L 180.0 127.7 L 188.0 134.7 L 188.0 138.7 L 153.2 138.7 L 158.9 144.4 L 159.7 147.9 L 155.09061374664307 146.92960290908815 L 153.9 147.7 L 152.1 148.8 L 150.3 150.0 L 146.5 152.2 L 144.6666666984558 153.3 L 166.3181818008423 153.3 L 174.5 144.3 L 184.5 153.3 L 184.5 157.3 L 133.1 157.3 L 133.1 167.2 L 160.4181818008423 167.2 L 168.6 158.2 L 178.6 167.2 L 178.6 171.2 L 133.1 171.2 L 133.1 181.8 L 121.1 187.8 L 121.1 171.2 L 77.9 171.2 L 77.9 167.2 L 121.1 167.2 L 121.1 157.3 L 70.9 157.3 L 70.9 153.3 L 104.79285717010498 153.3 L 104.0 152.7 L 103.9 151.7 Z M 37.3 186.6 L 33.4 184.3 L 32.1 179.9 L 32.7 176.6 L 32.9 173.7 L 32.6 171.0 L 31.8 168.5 L 30.6 166.0 L 28.7 163.6 L 26.1 161.3 L 22.8 159.0 L 18.7 156.8 L 13.9 155.2 L 14.2 153.4 L 19.5 154.0 L 24.4 154.9 L 28.9 156.3 L 31.236517238616944 157.40984573364258 L 31.7 156.8 L 34.2 153.8 L 37.3 150.1 L 41.1 145.9 L 45.4 141.0 L 50.4 135.4 L 56.0 129.2 L 62.4 122.5 L 69.5 115.2 L 70.9 116.4 L 65.4 124.9 L 60.2 132.6 L 55.5 139.5 L 51.4 145.6 L 47.8 151.0 L 44.8 155.7 L 42.4 159.6 L 40.7 162.8 L 39.743654823303224 164.63299493789674 L 41.6 167.7 L 43.2 171.9 L 44.0 176.5 L 44.0 181.5 L 41.7 185.4 Z M 101.7 139.4 L 103.6 140.0 L 105.4 140.8 L 107.1 141.6 L 108.7 142.5 L 110.3 143.5 L 111.7 144.5 L 113.1 145.6 L 114.4 146.8 L 114.9 151.3 L 113.4 153.3 L 140.4470588684082 153.3 L 140.8 152.9 L 141.9 150.8 L 142.9 148.8 L 144.0 146.8 L 145.1 144.9 L 146.2 143.1 L 147.2 141.3 L 148.72941179275512 138.7 L 99.7 138.7 Z M 33.1 127.3 L 31.8 126.0 L 30.0 124.7 L 28.0 123.3 L 25.5 121.9 L 22.7 120.5 L 19.6 119.0 L 16.1 117.5 L 12.3 116.3 L 12.6 114.5 L 16.7 115.0 L 20.5 115.1 L 24.1 115.4 L 27.5 115.8 L 30.6 116.3 L 33.5 116.9 L 36.1 117.7 L 38.6 118.6 L 40.9 119.7 L 43.1 121.1 L 44.7 125.3 L 43.0 129.6 L 38.7 131.2 L 34.5 129.5 L 34.0 128.5 Z M 133.1 113.9 L 136.1 115.9 L 133.1 117.7 L 133.1 122.5 L 159.6777777671814 122.5 L 165.9 115.5 L 167.1 116.55 L 167.1 112.1 L 122.3 112.1 Z M 87.0 92.4 L 87.0 108.1 L 105.7 108.1 L 105.7 92.4 Z M 117.7 92.4 L 117.7 108.1 L 136.4 108.1 L 136.4 92.4 Z M 148.4 92.4 L 148.4 108.1 L 167.1 108.1 L 167.1 92.4 Z M 47.1 100.7 L 45.7 99.4 L 44.0 98.0 L 42.0 96.6 L 39.6 95.2 L 37.0 93.8 L 34.1 92.3 L 30.9 90.8 L 27.4 89.6 L 27.7 87.9 L 31.5 88.3 L 35.1 88.4 L 38.5 88.7 L 41.7 89.2 L 44.7 89.7 L 47.5 90.3 L 50.1 91.1 L 52.6 92.0 L 54.9 93.0 L 57.0 94.3 L 58.9 98.5 L 57.4 102.8 L 53.2 104.6 L 48.9 103.1 L 48.2 102.0 Z M 166.8 73.7 L 162.1 69.9 L 157.8 65.9 L 153.8 61.7 L 150.2 57.3 L 146.9 52.6 L 143.9 47.7 L 143.0 45.75 L 143.0 80.1 L 131.0 86.1 L 131.0 51.061904716491696 L 127.9 54.9 L 123.3 59.7 L 118.4 64.2 L 113.1 68.3 L 107.5 72.0 L 101.5 75.3 L 95.1 78.2 L 88.3 80.5 L 87.6 78.9 L 93.3 74.8 L 98.6 70.8 L 103.6 66.7 L 108.2 62.4 L 112.5 58.0 L 116.4 53.4 L 120.0 48.7 L 123.2 43.7 L 126.0 38.5 L 126.33703699111939 37.8 L 101.0 37.8 L 101.0 33.8 L 131.0 33.8 L 131.0 12.8 L 143.0 14.8 L 146.0 16.8 L 143.0 18.6 L 143.0 33.8 L 159.9834711074829 33.8 L 170.0 23.7 L 182.0 33.8 L 182.0 37.8 L 143.0 37.8 L 143.0 38.14210529327393 L 145.0 40.3 L 148.7 44.3 L 152.5 48.0 L 156.3 51.6 L 160.3 55.0 L 164.5 58.2 L 168.8 61.1 L 173.3 63.9 L 178.1 66.4 L 183.0 68.8 L 188.2 71.5 L 176.9 80.5 L 171.7 77.2 Z M 84.8 61.5 L 83.2 59.5 L 81.3 57.4 L 79.2 55.4 L 76.8 53.3 L 74.1 51.3 L 71.2 49.2 L 69.0 47.709677410125735 L 69.0 80.1 L 57.0 86.1 L 57.0 51.061904716491696 L 53.9 54.9 L 49.3 59.7 L 44.4 64.2 L 39.1 68.3 L 33.5 72.0 L 27.5 75.3 L 21.1 78.2 L 14.3 80.5 L 13.6 78.9 L 19.3 74.8 L 24.6 70.8 L 29.6 66.7 L 34.2 62.4 L 38.5 58.0 L 42.4 53.4 L 46.0 48.7 L 49.2 43.7 L 52.0 38.5 L 52.33703699111938 37.8 L 18.0 37.8 L 18.0 33.8 L 57.0 33.8 L 57.0 12.8 L 69.0 14.8 L 72.0 16.8 L 69.0 18.6 L 69.0 33.8 L 76.98347110748291 33.8 L 87.0 23.7 L 99.0 33.8 L 99.0 37.8 L 69.0 37.8 L 69.0 44.576923084259036 L 69.1 44.6 L 72.9 45.3 L 76.6 46.3 L 80.0 47.5 L 83.3 48.9 L 86.4 50.4 L 89.3 52.2 L 92.1 54.1 L 94.6 56.2 L 97.0 58.5 L 98.0 62.9 L 95.7 66.9 L 91.3 67.9 L 87.3 65.6 L 86.2 63.6 Z " />
</g>
</svg>
