<svg xmlns="http://www.w3.org/2000/svg" xmlns:xlink="http://www.w3.org/1999/xlink" version="1.1" baseProfile="full" viewBox="0 0 200 200" width="200" height="200">
<g fill="black">
<path d="M 82.0 171.2 L 80.0 168.3 L 78.08253469467164 165.7989583015442 L 73.7 167.6 L 66.5 170.3 L 59.4 172.8 L 52.5 175.0 L 45.8 177.1 L 39.3 179.0 L 33.0 180.8 L 26.9 182.5 L 21.0 184.1 L 19.21408615112305 184.53108263015747 L 17.7 188.1 L 15.2 185.5 L 11.0 174.1 L 13.0 173.7 L 18.7 172.9 L 24.7 172.0 L 25.0 171.95081968307494 L 25.0 85.0 L 37.0 91.0 L 79.5 91.0 L 85.5 86.0 L 96.5 95.0 L 91.5 99.0 L 91.5 139.1 L 79.5 145.1 L 79.5 139.1 L 37.0 139.1 L 37.0 170.03125 L 37.2 170.0 L 43.9 168.8 L 50.7 167.6 L 57.8 166.4 L 65.1 165.1 L 72.7 163.9 L 76.0292200088501 163.43643770217895 L 75.1 162.4 L 72.3 159.4 L 69.3 156.5 L 66.0 153.6 L 62.5 150.5 L 58.7 147.6 L 59.5 146.0 L 64.1 147.7 L 68.6 149.5 L 72.8 151.5 L 76.7 153.8 L 80.5 156.3 L 84.0 158.9 L 87.2 161.7 L 90.3 164.6 L 93.1 167.8 L 95.6 171.1 L 96.3 175.6 L 93.6 179.3 L 89.1 179.9 L 85.4 177.3 L 83.8 174.3 Z M 185.7 152.4 L 185.9 156.0 L 182.397163772583 154.57291860580443 L 178.1 157.4 L 170.0 162.1 L 161.6 166.4 L 152.8 170.5 L 143.7 174.2 L 134.1 177.6 L 124.2 180.7 L 113.9 183.3 L 103.2 185.6 L 92.2 187.3 L 91.7 185.5 L 102.3 181.9 L 112.4 178.2 L 122.1 174.4 L 131.4 170.5 L 140.3 166.4 L 148.8 162.1 L 156.9 157.6 L 164.5 152.9 L 171.8 147.9 L 177.80613832473756 143.3070707321167 L 177.8 143.3 L 178.6 142.7 Z M 177.07342596054076 123.27031888961793 L 177.7 124.0 L 177.6 124.0 L 177.5357894897461 124.04105262756347 L 177.7 124.0 L 177.9 127.5 L 174.37308588027955 126.06310901641845 L 171.5 127.9 L 165.1 131.6 L 158.4 135.1 L 151.5 138.4 L 144.3 141.5 L 136.9 144.5 L 129.1 147.2 L 121.1 149.7 L 112.8 151.8 L 104.2 153.6 L 103.7 151.9 L 111.6 148.2 L 119.3 144.6 L 126.7 141.1 L 133.8 137.5 L 140.7 133.9 L 147.2 130.1 L 153.5 126.3 L 159.5 122.4 L 165.2 118.4 L 169.85540046691895 114.86534414291381 L 169.8 114.8 L 169.85583038330077 114.86501770019531 L 170.6 114.3 Z M 37.0 116.7 L 37.0 135.1 L 79.5 135.1 L 79.5 116.7 Z M 169.01848344802858 92.58720378875732 L 172.0 95.9 L 172.1 99.5 L 168.52621908187865 98.00550985336304 L 165.9 99.6 L 160.0 102.9 L 153.8 106.1 L 147.5 109.1 L 140.9 112.1 L 134.1 114.8 L 127.0 117.5 L 119.7 119.9 L 112.1 122.1 L 104.3 124.0 L 103.6 122.3 L 110.7 118.6 L 117.7 115.0 L 124.4 111.5 L 130.9 108.0 L 137.1 104.5 L 143.1 100.9 L 148.9 97.3 L 154.4 93.7 L 159.7 90.0 L 164.7 86.3 Z M 37.0 95.0 L 37.0 112.7 L 79.5 112.7 L 79.5 95.0 Z M 84.8 60.8 L 83.1 58.7 L 81.3 56.6 L 79.1 54.5 L 76.7 52.5 L 74.1 50.4 L 71.2 48.3 L 69.0 46.80967741012573 L 69.0 80.0 L 57.0 86.0 L 57.0 50.0880952835083 L 53.9 54.0 L 49.3 58.9 L 44.4 63.5 L 39.1 67.7 L 33.5 71.6 L 27.5 75.0 L 21.1 77.9 L 14.3 80.3 L 13.6 78.7 L 19.2 74.6 L 24.6 70.5 L 29.6 66.3 L 34.2 62.0 L 38.5 57.5 L 42.4 52.8 L 45.9 47.9 L 49.2 42.8 L 52.0 37.5 L 52.403448295593265 36.6 L 18.0 36.6 L 18.0 32.6 L 57.0 32.6 L 57.0 11.1 L 69.0 13.1 L 72.0 15.1 L 69.0 16.9 L 69.0 32.6 L 77.0 32.6 L 87.0 22.6 L 99.0 32.6 L 99.0 36.6 L 69.0 36.6 L 69.0 43.576923084259036 L 69.1 43.6 L 73.0 44.4 L 76.6 45.4 L 80.1 46.7 L 83.4 48.1 L 86.5 49.7 L 89.4 51.5 L 92.1 53.5 L 94.7 55.7 L 97.1 58.0 L 98.1 62.5 L 95.7 66.4 L 91.2 67.4 L 87.3 65.0 L 86.2 62.9 Z M 166.7 73.2 L 162.1 69.4 L 157.8 65.3 L 153.8 61.0 L 150.1 56.5 L 146.8 51.7 L 143.9 46.7 L 143.0 44.7125 L 143.0 80.0 L 131.0 86.0 L 131.0 50.0880952835083 L 127.9 54.0 L 123.3 58.9 L 118.4 63.5 L 113.1 67.7 L 107.5 71.6 L 101.5 75.0 L 95.1 77.9 L 88.3 80.3 L 87.6 78.7 L 93.2 74.6 L 98.6 70.5 L 103.6 66.3 L 108.2 62.0 L 112.5 57.5 L 116.4 52.8 L 119.9 47.9 L 123.2 42.8 L 126.0 37.5 L 126.40344829559326 36.6 L 101.0 36.6 L 101.0 32.6 L 131.0 32.6 L 131.0 11.1 L 143.0 13.1 L 146.0 15.1 L 143.0 16.9 L 143.0 32.6 L 160.0 32.6 L 170.0 22.6 L 182.0 32.6 L 182.0 36.6 L 143.0 36.6 L 143.0 36.98947372436523 L 145.0 39.2 L 148.7 43.3 L 152.5 47.2 L 156.3 50.9 L 160.3 54.4 L 164.5 57.6 L 168.9 60.7 L 173.4 63.5 L 178.1 66.1 L 183.1 68.5 L 188.1 71.2 L 176.8 80.2 L 171.6 76.8 Z " />
</g>
</svg>
