<svg xmlns="http://www.w3.org/2000/svg" xmlns:xlink="http://www.w3.org/1999/xlink" version="1.1" baseProfile="full" viewBox="0 0 200 200" width="200" height="200">
<g fill="black">
<path d="M 15.1 114.5 L 80.8 114.5 L 80.8 95.2 L 36.3 95.2 L 36.3 91.2 L 80.8 91.2 L 80.8 70.9 L 92.8 72.9 L 95.8 74.9 L 92.8 76.7 L 92.8 91.2 L 117.3 91.2 L 127.3 81.2 L 139.3 91.2 L 139.3 94.21709403991699 L 140.9 93.0 L 151.3 83.9 L 160.5 74.5 L 160.55146198272706 74.54853801727295 L 160.9 74.2 L 169.3 82.8 L 170.1 86.3 L 166.44031715393066 85.46533546447753 L 159.0 92.4 L 147.5 101.5 L 134.8 110.2 L 127.65060243606567 114.5 L 168.61818180084228 114.5 L 176.8 105.5 L 186.8 114.5 L 186.8 118.5 L 121.0 118.5 L 106.0 126.3 L 92.24109592437745 132.5 L 140.4 132.5 L 146.4 127.5 L 157.4 136.5 L 152.4 140.5 L 152.4 180.8 L 140.4 186.8 L 140.4 178.8 L 72.6 178.8 L 72.6 181.8 L 60.6 187.8 L 60.6 144.6167567253113 L 54.0 146.9 L 34.3 152.7 L 13.3 157.9 L 12.8 156.2 L 33.1 149.1 L 52.2 141.8 L 60.6 138.32737426757814 L 60.6 126.5 L 72.6 132.5 L 74.19610385894775 132.5 L 86.7 126.7 L 102.1 118.7 L 102.44216871261597 118.5 L 15.1 118.5 Z M 72.6 157.6 L 72.6 174.8 L 140.4 174.8 L 140.4 157.6 Z M 82.5289855003357 136.5 L 72.6 140.4601156234741 L 72.6 153.6 L 140.4 153.6 L 140.4 136.5 Z M 92.8 95.2 L 92.8 114.5 L 109.28554220199585 114.5 L 116.3 110.4 L 129.2 101.9 L 138.00786514282225 95.2 Z M 172.4 37.0 L 173.8 40.3 L 169.77114095687867 40.161073780059816 L 168.7 41.5 L 166.4 44.4 L 163.8 47.7 L 160.8 51.4 L 157.5 55.6 L 153.9 60.1 L 149.9 65.0 L 145.4 70.3 L 140.4 75.9 L 139.0 74.9 L 142.2 68.2 L 145.4 62.1 L 148.4 56.5 L 151.2 51.4 L 153.7 46.7 L 156.0 42.6 L 158.0 38.9 L 159.7 35.6 L 161.1 32.9 L 161.7938901901245 31.449138736724855 L 161.7 31.4 L 162.7 29.7 Z M 46.9 66.8 L 45.7 64.1 L 44.1 61.3 L 42.3 58.5 L 40.1 55.7 L 37.7 52.8 L 35.0 49.9 L 32.1 46.8 L 28.7 43.9 L 29.6 42.4 L 33.8 44.4 L 37.7 46.2 L 41.4 48.4 L 44.9 50.7 L 48.0 53.1 L 50.9 55.7 L 53.6 58.5 L 55.9 61.4 L 58.1 64.5 L 59.9 67.8 L 59.7 72.4 L 56.4 75.6 L 51.8 75.4 L 48.6 72.1 L 47.9 69.4 Z M 99.6 60.4 L 98.7 58.2 L 97.6 55.8 L 96.1 53.3 L 94.3 50.7 L 92.1 48.0 L 89.7 45.2 L 87.0 42.3 L 83.8 39.5 L 84.8 38.0 L 88.6 40.0 L 92.3 41.8 L 95.8 43.8 L 98.9 45.9 L 101.8 48.1 L 104.4 50.4 L 106.7 52.9 L 108.7 55.5 L 110.5 58.2 L 112.0 61.1 L 111.4 65.6 L 107.9 68.5 L 103.4 68.0 L 100.5 64.5 L 100.2 62.5 Z M 176.03764848709108 13.419239902496338 L 186.7 22.2 L 187.1 25.2 L 182.66802167892456 23.04390239715576 L 178.1 24.0 L 166.2 25.9 L 153.2 27.7 L 139.3 29.4 L 124.3 30.9 L 108.4 32.3 L 91.5 33.6 L 73.6 34.7 L 54.6 35.6 L 34.7 36.2 L 13.8 36.5 L 13.6 34.7 L 34.4 32.4 L 54.2 30.2 L 73.0 28.1 L 90.8 26.0 L 107.5 23.9 L 123.2 21.7 L 137.9 19.4 L 151.6 17.1 L 164.2 14.7 L 174.80415935516356 12.414620780944825 L 174.8 12.4 L 174.8149341583252 12.412298679351807 L 175.8 12.2 Z " />
</g>
</svg>
