<svg xmlns="http://www.w3.org/2000/svg" xmlns:xlink="http://www.w3.org/1999/xlink" version="1.1" baseProfile="full" viewBox="0 0 200 200" width="200" height="200">
<g fill="black">
<path d="M 103.3 156.4 L 102.5 154.6 L 101.5 152.7 L 100.1 150.6 L 98.4 148.4 L 96.4 146.2 L 94.0 143.8 L 92.1 141.97307691574096 L 92.1 182.6 L 82.1 187.6 L 82.1 149.33636360168458 L 79.1 154.7 L 75.6 160.1 L 71.8 165.1 L 67.8 169.7 L 63.5 173.8 L 58.9 177.3 L 54.1 180.1 L 52.9 178.7 L 56.3 174.5 L 59.6 170.1 L 62.7 165.6 L 65.6 160.8 L 68.3 155.7 L 70.9 150.4 L 73.2 144.7 L 75.4 138.7 L 77.4 132.3 L 78.18000001907349 129.3 L 70.0 129.3 L 70.0 136.3 L 59.0 141.8 L 59.0 94.4 L 70.0 99.9 L 82.1 99.9 L 82.1 85.6 L 54.2 85.6 L 54.2 81.6 L 82.1 81.6 L 82.1 62.1 L 92.1 64.1 L 94.6 66.1 L 92.1 67.76666669845581 L 92.1 81.6 L 101.91818180084229 81.6 L 110.1 72.6 L 120.1 81.6 L 120.1 85.6 L 92.1 85.6 L 92.1 99.9 L 104.8 99.9 L 109.8 94.9 L 119.8 103.9 L 114.8 106.9 L 114.8 129.3 L 104.8 134.3 L 104.8 129.3 L 92.1 129.3 L 92.1 138.82571430206298 L 92.7 139.1 L 96.3 140.4 L 99.5 141.8 L 102.5 143.4 L 105.2 145.1 L 107.7 146.9 L 110.0 148.8 L 112.0 150.9 L 113.8 153.1 L 115.2 155.6 L 114.9 160.2 L 111.5 163.2 L 107.0 162.9 L 103.9 159.5 L 103.7 158.1 Z M 148.4 169.8 L 148.9 173.3 L 144.99615383148193 172.09335660934448 L 142.0 174.0 L 138.5 176.1 L 134.7 178.0 L 130.7 179.8 L 126.5 181.6 L 122.1 183.2 L 117.3 184.7 L 112.3 186.0 L 107.1 187.3 L 106.5 185.7 L 111.1 183.0 L 115.3 180.2 L 119.4 177.7 L 123.2 175.2 L 126.7 172.7 L 130.0 170.3 L 133.0 167.9 L 135.7 165.5 L 138.2 163.2 L 139.71885709762574 161.6121039390564 L 139.6 161.5 L 140.6 160.7 Z M 173.6 179.0 L 172.0 177.0 L 170.3 175.1 L 168.4 173.1 L 166.3 171.2 L 164.0 169.2 L 161.6 167.3 L 159.1 165.3 L 156.2 163.7 L 156.8 162.0 L 160.1 162.9 L 163.4 163.6 L 166.6 164.5 L 169.6 165.6 L 172.6 166.8 L 175.4 168.2 L 178.1 169.8 L 180.7 171.5 L 183.1 173.4 L 185.5 175.4 L 186.7 179.8 L 184.6 183.9 L 180.3 185.2 L 176.2 183.1 L 175.0 181.0 Z M 30.4 186.7 L 26.4 184.5 L 24.9 180.2 L 25.5 175.6 L 25.7 171.4 L 25.5 167.6 L 25.0 164.1 L 24.2 161.0 L 23.08547487258911 158.39944133758544 L 22.0 158.1 L 22.40059700012207 157.22597017288209 L 21.4 155.6 L 19.4 153.1 L 16.8 150.8 L 13.6 148.9 L 14.2 147.2 L 18.1 148.1 L 22.0 149.4 L 25.28409090042114 151.3318181991577 L 26.5 148.9 L 28.9 144.4 L 31.7 139.1 L 34.9 133.0 L 38.7 126.1 L 43.0 118.4 L 47.8 110.0 L 53.3 100.8 L 54.9 101.6 L 51.3 111.6 L 47.8 120.7 L 44.6 128.9 L 41.8 136.2 L 39.4 142.6 L 37.4 148.1 L 35.8 152.8 L 34.6 156.6 L 33.9 159.5 L 33.6 161.3 L 33.30745611190796 161.2192982673645 L 35.0 165.6 L 36.1 170.4 L 36.7 175.5 L 36.9 181.1 L 34.8 185.2 Z M 187.6 71.7 L 187.6 75.7 L 160.12857141494752 75.7 L 159.5 76.5 L 157.9 78.5 L 156.2 80.5 L 154.5 82.4 L 150.9 86.0 L 149.0 87.7 L 147.0 89.4 L 145.0 90.9 L 144.26666669845582 91.4 L 167.7 91.4 L 173.7 86.4 L 184.7 95.4 L 179.7 99.4 L 179.7 156.1 L 167.7 162.1 L 167.7 156.1 L 136.0 156.1 L 125.0 161.6 L 125.0 85.9 L 136.0 91.4 L 140.58000001907348 91.4 L 141.0 90.8 L 143.0 86.2 L 144.0 84.0 L 145.8 79.6 L 147.21818180084227 75.7 L 118.0 75.7 L 118.0 71.7 L 169.4181818008423 71.7 L 177.6 62.7 Z M 136.0 135.6 L 136.0 152.1 L 167.7 152.1 L 167.7 135.6 Z M 136.0 115.9 L 136.0 131.6 L 167.7 131.6 L 167.7 115.9 Z M 70.0 103.9 L 70.0 125.3 L 82.1 125.3 L 82.1 103.9 Z M 92.1 103.9 L 92.1 125.3 L 104.8 125.3 L 104.8 103.9 Z M 25.6 113.4 L 24.9 112.0 L 24.0 110.6 L 22.7 109.1 L 21.2 107.6 L 19.4 106.1 L 17.4 104.5 L 15.2 102.8 L 12.5 101.6 L 13.0 99.9 L 15.9 100.7 L 18.8 101.0 L 21.6 101.5 L 24.2 102.2 L 26.6 103.0 L 28.9 104.0 L 31.1 105.1 L 33.1 106.4 L 35.0 107.9 L 36.6 109.7 L 37.2 114.2 L 34.5 117.9 L 29.9 118.4 L 26.3 115.7 L 26.1 114.6 Z M 136.0 95.4 L 136.0 111.9 L 167.7 111.9 L 167.7 95.4 Z M 35.7 81.0 L 35.0 79.6 L 34.0 78.2 L 32.8 76.7 L 31.4 75.2 L 29.7 73.6 L 27.8 72.0 L 25.8 70.4 L 23.3 69.2 L 23.9 67.5 L 26.6 68.3 L 29.4 68.6 L 32.0 69.2 L 34.4 69.8 L 36.8 70.6 L 39.0 71.6 L 41.1 72.7 L 43.1 74.0 L 45.0 75.5 L 46.7 77.1 L 47.4 81.6 L 44.9 85.4 L 40.4 86.1 L 36.6 83.6 L 36.3 82.3 Z M 67.4 52.6 L 66.2 50.5 L 64.7 48.4 L 62.8 46.2 L 60.7 44.0 L 58.2 41.7 L 55.5 39.4 L 52.5 36.9 L 50.16666669845581 35.5 L 45.5307692527771 35.5 L 42.9 39.3 L 38.8 44.2 L 34.4 48.9 L 29.6 53.3 L 24.4 57.5 L 18.7 61.3 L 12.6 64.8 L 11.5 63.4 L 16.3 58.4 L 20.8 53.5 L 24.9 48.7 L 28.7 43.9 L 32.1 39.0 L 35.1 34.1 L 37.8 29.1 L 40.0 24.1 L 41.9 19.0 L 43.13306865692139 14.8075665473938 L 43.1 14.8 L 43.9 12.4 L 54.9 17.5 L 57.1 20.4 L 53.34569139480591 21.256245803833007 L 52.5 23.3 L 49.7 28.8 L 48.06981134414673 31.5 L 85.0 31.5 L 95.0 21.5 L 107.0 31.5 L 107.0 35.5 L 57.15454549789429 35.5 L 57.5 35.6 L 61.1 37.0 L 64.5 38.5 L 67.6 40.2 L 70.5 42.0 L 73.2 44.0 L 75.6 46.2 L 77.8 48.5 L 79.7 51.1 L 80.0 55.6 L 77.1 59.1 L 72.5 59.4 L 69.0 56.5 L 68.4 54.6 Z M 147.2 52.6 L 146.0 50.5 L 144.5 48.4 L 142.6 46.2 L 140.5 44.0 L 138.0 41.7 L 135.3 39.4 L 132.3 36.9 L 129.9666666984558 35.5 L 124.80408163070679 35.5 L 122.6 38.5 L 118.5 43.1 L 114.1 47.4 L 109.3 51.4 L 104.1 55.1 L 98.4 58.5 L 92.3 61.4 L 91.4 59.9 L 96.2 55.4 L 100.7 51.0 L 104.8 46.6 L 108.6 42.2 L 112.0 37.7 L 115.0 33.1 L 117.6 28.4 L 119.8 23.7 L 121.7 18.8 L 122.92281818389893 14.805460739135743 L 122.9 14.8 L 123.7 12.3 L 134.6 17.6 L 136.9 20.4 L 133.0208333015442 21.284722232818602 L 132.2 23.2 L 129.4 28.5 L 127.51764707565307 31.5 L 165.8 31.5 L 175.8 21.5 L 187.8 31.5 L 187.8 35.5 L 136.9545454978943 35.5 L 137.3 35.6 L 140.9 37.0 L 144.3 38.5 L 147.4 40.2 L 150.3 42.0 L 153.0 44.0 L 155.4 46.2 L 157.6 48.5 L 159.5 51.1 L 159.8 55.6 L 156.9 59.1 L 152.3 59.4 L 148.8 56.5 L 148.1 54.6 Z " />
</g>
</svg>
