<svg xmlns="http://www.w3.org/2000/svg" xmlns:xlink="http://www.w3.org/1999/xlink" version="1.1" baseProfile="full" viewBox="0 0 200 200" width="200" height="200">
<g fill="black">
<path d="M 154.4 125.3 L 152.3 126.0 L 150.1 126.7 L 148.0 127.2 L 145.7 127.6 L 143.5 127.8 L 141.2 128.0 L 139.0 128.1 L 139.0 122.1 L 119.0 119.1 L 119.0 116.1 L 139.0 116.1 L 140.6 116.0 L 142.3 115.9 L 143.9 115.7 L 145.5 115.4 L 148.7 114.6 L 150.2 114.1 L 153.2 112.7 L 154.7 111.9 L 155.1 111.6 L 155.8 110.7 L 156.7 109.0 L 157.5 106.5 L 158.2 103.2 L 158.8 99.2 L 159.1 94.5 L 159.3 89.1 L 159.2474898338318 85.89687919616699 L 159.0 86.0 L 159.0 78.0 L 103.61363639831544 78.0 L 102.1 85.4 L 99.0 93.4 L 95.88333330154418 98.5 L 123.0 98.5 L 123.0 82.9 L 135.0 84.9 L 138.0 86.9 L 135.0 88.7 L 135.0 102.5 L 123.0 108.5 L 123.0 102.5 L 92.91111106872559 102.5 L 89.0 106.9 L 82.2 112.2 L 74.4 116.5 L 65.6 119.9 L 63.80929718017578 120.35219764709473 L 70.3 125.6 L 71.6 128.9 L 67.70584163665771 128.6985779762268 L 66.7 129.9 L 65.0 131.6 L 163.0 131.6 L 169.0 126.6 L 180.0 135.6 L 175.0 138.6 L 174.9270959854126 138.63037662506105 L 174.9 140.5 L 174.7 146.8 L 174.4 152.5 L 173.9 157.7 L 173.3 162.4 L 172.5 166.6 L 171.5 170.3 L 170.3 173.5 L 168.7 176.5 L 166.4 179.0 L 164.6 180.6 L 162.7 181.9 L 160.7 183.1 L 158.6 184.2 L 156.4 185.1 L 154.2 185.8 L 152.0 186.4 L 149.7 186.8 L 147.3 187.0 L 145.0 187.1 L 145.0 181.1 L 125.0 178.1 L 125.0 175.1 L 146.5 175.1 L 148.0 174.9 L 149.5 174.6 L 150.9 174.3 L 153.5 173.3 L 156.1 171.9 L 157.3 171.0 L 158.5 170.0 L 158.7 169.7 L 159.3 168.6 L 160.1 166.7 L 160.8 164.0 L 161.4 160.5 L 162.0 156.4 L 162.4 151.7 L 162.7 146.3 L 162.9 140.2 L 162.9696969985962 135.6 L 100.67129631042481 135.6 L 99.6 144.5 L 96.5 154.3 L 93.42325582504273 159.7 L 127.0 159.7 L 127.0 141.2 L 139.0 143.2 L 142.0 145.2 L 139.0 147.0 L 139.0 165.7 L 127.0 171.7 L 127.0 163.7 L 90.89729728698731 163.7 L 85.1 170.3 L 77.1 176.3 L 67.6 181.1 L 56.8 184.6 L 44.6 186.9 L 31.0 188.0 L 16.0 187.8 L 15.9 186.0 L 30.6 184.2 L 43.6 181.6 L 54.9 178.3 L 64.5 174.2 L 72.3 169.3 L 78.5 163.7 L 56.0 163.7 L 56.0 166.7 L 44.0 172.7 L 44.0 147.25714282989503 L 42.7 148.0 L 36.7 151.0 L 30.3 153.7 L 23.5 156.1 L 16.3 158.2 L 15.6 156.5 L 22.0 152.7 L 27.9 148.9 L 33.5 145.3 L 38.6 141.6 L 43.3 137.9 L 47.6 134.2 L 51.5 130.4 L 54.9 126.5 L 57.9 122.7 L 58.5653172492981 121.67643508911132 L 55.7 122.4 L 44.9 123.9 L 33.0 124.4 L 32.9 122.6 L 44.3 120.1 L 54.4 117.2 L 63.3 113.7 L 70.9 109.8 L 77.2 105.3 L 80.11428575515747 102.5 L 64.0 102.5 L 52.0 108.5 L 52.0 83.75609760284424 L 49.5 86.5 L 45.2 90.8 L 40.5 94.9 L 35.5 98.7 L 30.2 102.3 L 24.5 105.5 L 18.4 108.4 L 17.5 106.9 L 22.3 102.5 L 26.9 98.1 L 31.2 93.7 L 35.3 89.4 L 39.0 85.0 L 42.4 80.5 L 45.6 76.0 L 48.4 71.4 L 50.9 66.7 L 52.72149028778076 62.80863447189331 L 52.7 62.8 L 52.9307692527771 62.3615385055542 L 53.1 62.0 L 53.11673126220703 62.0082106590271 L 53.7 60.9 L 63.9 67.3 L 65.6 70.5 L 61.79541282653808 70.76238536834717 L 60.8 72.4 L 59.65714282989502 74.0 L 159.0 74.0 L 165.0 69.0 L 176.0 78.0 L 171.12395544052123 80.92562675476074 L 171.2 82.7 L 171.3 89.2 L 171.1 95.1 L 170.7 100.5 L 170.0 105.3 L 169.1 109.7 L 167.8 113.6 L 166.0 117.0 L 163.7 120.0 L 160.6 122.4 L 158.6 123.5 Z M 60.78205127716065 135.6 L 58.3 137.8 L 53.5 141.4 L 51.8140625 142.50234375 L 56.0 143.2 L 59.0 145.2 L 56.0 147.0 L 56.0 159.7 L 81.48412694931031 159.7 L 83.2 157.4 L 86.5 150.3 L 88.4 142.4 L 88.78636360168457 135.6 Z M 56.74893617630005 78.0 L 53.6 82.0 L 52.67717037200928 83.01286172866821 L 64.0 84.9 L 67.0 86.9 L 64.0 88.7 L 64.0 98.5 L 83.7074073791504 98.5 L 86.3 95.0 L 89.2 89.1 L 91.1 82.6 L 91.65757579803467 78.0 Z M 37.0 69.3 L 25.0 75.3 L 25.0 13.3 L 37.0 19.3 L 163.0 19.3 L 169.0 14.3 L 180.0 23.3 L 175.0 27.3 L 175.0 59.3 L 163.0 65.3 L 163.0 57.3 L 37.0 57.3 Z M 37.0 23.3 L 37.0 53.3 L 71.0 53.3 L 71.0 23.3 Z M 83.0 23.3 L 83.0 53.3 L 117.0 53.3 L 117.0 23.3 Z M 129.0 23.3 L 129.0 53.3 L 163.0 53.3 L 163.0 23.3 Z " />
</g>
</svg>
