<svg xmlns="http://www.w3.org/2000/svg" xmlns:xlink="http://www.w3.org/1999/xlink" version="1.1" baseProfile="full" viewBox="0 0 200 200" width="200" height="200">
<g fill="black">
<path d="M 152.05539360046387 66.86676387786865 L 152.3 83.5 L 153.3 102.1 L 154.01952667236327 109.7 L 169.8181818008423 109.7 L 178.0 100.7 L 188.0 109.7 L 188.0 113.7 L 154.39822483062744 113.7 L 154.9 119.0 L 157.2 133.8 L 159.26166620254517 142.89976825714112 L 162.9 136.3 L 166.6 128.1 L 169.64695529937745 120.21376276016235 L 169.6 120.2 L 170.5 117.9 L 181.2 123.6 L 183.3 126.5 L 179.5779850959778 127.15298509597778 L 177.0 132.8 L 172.3 141.5 L 167.0 149.6 L 162.91743249893187 154.9717993736267 L 163.6 157.0 L 167.6 165.0 L 171.8 170.4 L 174.66934185028077 172.49951848983764 L 180.0 149.4 L 182.0 149.4 L 180.07733812332154 174.39460430145263 L 180.1 174.4 L 184.3 176.3 L 185.9 180.5 L 184.0 184.7 L 179.8 186.3 L 170.9 184.3 L 163.4 179.0 L 157.4 171.3 L 154.1070707321167 164.71414136886597 L 148.2 170.1 L 141.0 175.6 L 133.3 180.5 L 125.0 184.5 L 116.3 187.7 L 115.6 186.1 L 123.2 181.2 L 130.3 176.0 L 136.9 170.5 L 143.1 164.6 L 148.7 158.2 L 150.54634256362914 155.7855520248413 L 148.5 149.8 L 145.4 136.1 L 143.0 120.4 L 142.3454023361206 113.7 L 68.0 113.7 L 68.0 109.7 L 111.95 109.7 L 112.6 108.4 L 113.6 105.5 L 114.6 102.7 L 115.5 99.9 L 116.3 97.3 L 117.0 94.7 L 118.2 89.9 L 118.6 87.5 L 118.77171640396118 86.24074630737304 L 118.6 86.2 L 119.4 83.8 L 130.4 89.0 L 132.6 91.8 L 128.22647552490236 92.79747047424317 L 126.3 96.1 L 124.7 98.4 L 123.0 100.7 L 119.2 105.3 L 117.0 107.6 L 114.9 109.7 L 141.95459766387938 109.7 L 141.3 103.0 L 140.3 83.9 L 140.01440572738647 64.0987995147705 L 140.0 64.1 L 140.0 60.7 L 152.0 63.1 L 155.0 65.1 Z M 62.0 126.0 L 61.84052753448486 125.45323743820191 L 61.3 125.7 L 56.6 127.5 L 51.7 129.1 L 50.3 129.52857141494752 L 50.3 181.7 L 38.3 187.7 L 38.3 132.81000003814697 L 36.8 133.2 L 31.6 134.3 L 26.5 135.4 L 21.3 136.4 L 20.10300483703613 136.60326328277588 L 18.3 140.1 L 16.0 137.3 L 12.7 125.6 L 14.7 125.4 L 25.1 124.8 L 27.931080627441407 124.57795448303223 L 28.9 123.0 L 32.4 117.6 L 39.6 106.8 L 43.2 101.5 L 50.2 90.9 L 53.6 85.6 L 56.9 80.2 L 59.67547922134399 75.74241218566894 L 59.6 75.7 L 60.7 74.2 L 70.1 81.6 L 71.5 84.9 L 67.784375 84.7078125 L 66.3 86.7 L 62.3 91.8 L 58.3 96.8 L 54.1 101.8 L 49.9 106.7 L 45.6 111.5 L 41.1 116.3 L 36.5 121.0 L 33.19416227340698 124.16516370773316 L 40.4 123.6 L 45.4 123.1 L 55.4 122.3 L 60.4 122.0 L 60.761935520172116 121.98580646514893 L 60.5 121.2 L 59.5 118.8 L 58.4 116.4 L 57.2 114.1 L 55.8 111.7 L 54.3 109.3 L 52.3 107.2 L 53.4 105.8 L 55.9 107.4 L 58.6 108.8 L 61.1 110.5 L 63.5 112.4 L 65.7 114.5 L 67.7 116.8 L 69.6 119.2 L 71.4 121.8 L 73.0 124.6 L 74.4 127.5 L 74.0 132.1 L 70.5 135.0 L 65.9 134.6 L 63.0 131.1 L 62.5 128.5 Z M 93.0 124.3 L 117.0 124.3 L 123.0 119.3 L 134.0 128.3 L 129.0 132.3 L 129.0 168.5 L 117.0 174.5 L 117.0 168.5 L 93.0 168.5 L 93.0 180.5 L 81.0 186.5 L 81.0 118.3 Z M 34.5 143.4 L 37.2 145.8 L 33.525733375549315 147.39449300765992 L 33.5 147.5 L 32.2 151.6 L 30.8 155.6 L 29.1 159.5 L 27.1 163.3 L 25.0 167.1 L 22.6 170.7 L 19.9 174.2 L 16.9 177.6 L 13.8 180.9 L 12.3 179.8 L 14.2 175.8 L 15.8 171.8 L 17.2 167.9 L 18.6 164.1 L 19.7 160.3 L 20.6 156.5 L 21.4 152.8 L 22.0 149.2 L 22.4 145.5 L 22.544113636016846 142.90595512390138 L 22.4 142.9 L 22.8 139.8 Z M 61.6 159.5 L 61.0 156.8 L 59.4 151.6 L 58.4 149.1 L 57.3 146.6 L 54.7 141.6 L 52.9 139.3 L 54.0 138.0 L 56.5 139.7 L 59.1 141.4 L 61.5 143.3 L 63.8 145.4 L 65.9 147.7 L 67.8 150.3 L 69.6 153.0 L 71.3 155.9 L 72.7 158.9 L 74.0 162.1 L 73.3 166.6 L 69.7 169.4 L 65.2 168.7 L 62.4 165.0 L 62.0 162.2 Z M 93.0 148.0 L 93.0 164.5 L 117.0 164.5 L 117.0 148.0 Z M 93.0 128.3 L 93.0 144.0 L 117.0 144.0 L 117.0 128.3 Z M 86.7 101.5 L 86.6 99.8 L 86.3 98.1 L 85.9 96.2 L 85.3 94.3 L 84.6 92.3 L 83.7 90.2 L 82.6 87.9 L 81.1 86.1 L 82.3 84.8 L 84.3 86.4 L 86.5 87.7 L 88.5 89.2 L 90.4 90.8 L 92.1 92.5 L 93.7 94.3 L 95.1 96.3 L 96.4 98.3 L 97.5 100.5 L 98.4 102.7 L 97.3 107.1 L 93.4 109.6 L 89.0 108.5 L 86.5 104.6 L 86.7 103.1 Z M 27.1 99.9 L 26.2 97.8 L 25.0 95.7 L 23.7 93.6 L 22.1 91.5 L 20.3 89.3 L 18.3 87.1 L 16.2 84.9 L 13.5 83.1 L 14.4 81.5 L 17.4 82.7 L 20.6 83.8 L 23.5 85.1 L 26.3 86.5 L 27.2609712600708 87.12832736968994 L 27.8 86.2 L 29.3 82.9 L 30.8 79.8 L 32.4 76.7 L 33.9 73.6 L 35.5 70.5 L 36.9 67.5 L 38.4 64.5 L 39.8 61.4 L 40.76509294509888 59.33194370269776 L 40.7 59.3 L 41.7 57.5 L 51.5 64.6 L 53.1 67.8 L 48.99259262084961 67.8 L 45.0 72.7 L 42.7 75.4 L 37.9 80.6 L 35.4 83.1 L 32.8 85.6 L 30.0 87.9 L 29.34012508392334 88.53449506759644 L 31.4 90.1 L 33.7 92.1 L 35.8 94.3 L 37.7 96.7 L 39.4 99.2 L 39.5 103.8 L 36.4 107.2 L 31.8 107.2 L 28.4 104.1 L 27.9 102.0 Z M 171.6 87.9 L 170.5 86.1 L 169.2 84.3 L 167.7 82.4 L 166.0 80.5 L 164.2 78.5 L 162.2 76.6 L 160.0 74.5 L 157.5 72.8 L 158.2 71.2 L 161.2 72.3 L 164.2 73.2 L 167.0 74.2 L 169.7 75.3 L 172.3 76.5 L 174.7 77.9 L 177.1 79.4 L 181.3 82.8 L 183.2 84.7 L 184.1 89.2 L 181.6 93.0 L 177.2 93.9 L 173.3 91.5 L 172.5 89.7 Z M 74.0 79.1 L 100.0 79.1 L 100.0 60.4 L 112.0 62.4 L 115.0 64.4 L 112.0 66.2 L 112.0 79.1 L 117.0 79.1 L 127.0 69.1 L 139.0 79.1 L 139.0 83.1 L 74.0 83.1 Z M 67.4 52.6 L 66.2 50.5 L 64.7 48.4 L 62.8 46.2 L 60.7 44.0 L 58.2 41.7 L 55.5 39.4 L 52.5 36.9 L 50.16666669845581 35.5 L 45.5307692527771 35.5 L 42.9 39.3 L 38.8 44.2 L 34.4 48.9 L 29.6 53.3 L 24.4 57.5 L 18.7 61.3 L 12.6 64.8 L 11.5 63.4 L 16.3 58.4 L 20.8 53.5 L 24.9 48.7 L 28.7 43.9 L 32.1 39.0 L 35.1 34.1 L 37.8 29.1 L 40.0 24.1 L 41.9 19.0 L 43.13306865692139 14.8075665473938 L 43.1 14.8 L 43.9 12.4 L 54.9 17.5 L 57.1 20.4 L 53.34569139480591 21.256245803833007 L 52.5 23.3 L 49.7 28.8 L 48.06981134414673 31.5 L 85.0 31.5 L 95.0 21.5 L 107.0 31.5 L 107.0 35.5 L 57.15454549789429 35.5 L 57.5 35.6 L 61.1 37.0 L 64.5 38.5 L 67.6 40.2 L 70.5 42.0 L 73.2 44.0 L 75.6 46.2 L 77.8 48.5 L 79.7 51.1 L 80.0 55.6 L 77.1 59.1 L 72.5 59.4 L 69.0 56.5 L 68.4 54.6 Z M 147.2 52.6 L 146.0 50.5 L 144.5 48.4 L 142.6 46.2 L 140.5 44.0 L 138.0 41.7 L 135.3 39.4 L 132.3 36.9 L 129.9666666984558 35.5 L 124.80408163070679 35.5 L 122.6 38.5 L 118.5 43.1 L 114.1 47.4 L 109.3 51.4 L 104.1 55.1 L 98.4 58.5 L 92.3 61.4 L 91.4 59.9 L 96.2 55.4 L 100.7 51.0 L 104.8 46.6 L 108.6 42.2 L 112.0 37.7 L 115.0 33.1 L 117.6 28.4 L 119.8 23.7 L 121.7 18.8 L 122.92281818389893 14.805460739135743 L 122.9 14.8 L 123.7 12.3 L 134.6 17.6 L 136.9 20.4 L 133.0208333015442 21.284722232818602 L 132.2 23.2 L 129.4 28.5 L 127.51764707565307 31.5 L 165.8 31.5 L 175.8 21.5 L 187.8 31.5 L 187.8 35.5 L 136.9545454978943 35.5 L 137.3 35.6 L 140.9 37.0 L 144.3 38.5 L 147.4 40.2 L 150.3 42.0 L 153.0 44.0 L 155.4 46.2 L 157.6 48.5 L 159.5 51.1 L 159.8 55.6 L 156.9 59.1 L 152.3 59.4 L 148.8 56.5 L 148.1 54.6 Z " />
</g>
</svg>
