<svg xmlns="http://www.w3.org/2000/svg" xmlns:xlink="http://www.w3.org/1999/xlink" version="1.1" baseProfile="full" viewBox="0 0 200 200" width="200" height="200">
<g fill="black">
<path d="M 63.0 63.4 L 66.0 65.4 L 63.0 67.2 L 63.0 130.8 L 62.2 138.8 L 60.4 146.3 L 57.6 153.4 L 53.9 160.0 L 49.3 166.1 L 43.8 171.6 L 37.4 176.6 L 30.2 181.0 L 22.2 184.7 L 13.3 187.9 L 12.6 186.2 L 20.4 181.4 L 27.3 176.4 L 33.3 171.4 L 38.4 166.2 L 42.6 160.9 L 45.9 155.3 L 48.4 149.6 L 50.0 143.6 L 50.9 137.4 L 51.0 130.8 L 51.0 61.4 Z M 155.0 181.4 L 143.7 174.7 L 135.70786733627318 167.35369625091553 L 126.7 171.3 L 115.6 175.3 L 103.8 178.7 L 91.3 181.5 L 78.2 183.5 L 64.3 184.9 L 64.1 183.1 L 77.4 179.8 L 90.0 176.2 L 101.9 172.4 L 113.0 168.2 L 123.3 163.5 L 129.70932569503785 160.16180953979492 L 125.3 154.3 L 118.3 140.7 L 116.51987438201904 135.74107856750487 L 66.5 140.4 L 66.2 136.4 L 115.11938600540161 131.83971824645997 L 112.7 125.1 L 110.53398208618164 116.13369312286378 L 68.7 119.7 L 68.3 115.7 L 109.57911672592164 112.18099479675293 L 108.4 107.3 L 106.76904859542847 96.42699060440063 L 66.5 99.7 L 66.2 95.7 L 106.1722219467163 92.44814643859863 L 105.4 87.3 L 103.6 65.2 L 103.63927488327026 65.19803628921508 L 103.5 62.9 L 115.6 64.6 L 118.7 66.5 L 115.89638261795044 68.33093385696411 L 117.3 86.0 L 118.1356409072876 91.47488842010497 L 153.68920068740846 88.58250560760499 L 162.8 77.8 L 175.6 86.8 L 176.0 90.8 L 118.74294385910034 95.45376987457276 L 120.2 105.0 L 121.67305345535279 111.14999828338622 L 150.78758993148804 108.66801195144653 L 159.9 97.8 L 172.7 106.8 L 173.1 110.8 L 122.61996984481812 115.10337419509888 L 124.2 121.7 L 127.46855440139771 130.68852462768555 L 162.31062870025636 127.4405345916748 L 171.4 116.6 L 184.2 125.4 L 184.6 129.4 L 128.88697786331176 134.5891891479492 L 129.4 136.0 L 135.5 148.0 L 140.0735408782959 154.09805450439453 L 141.7 153.1 L 149.7 147.2 L 157.0 141.0 L 162.905788230896 135.00473012924195 L 162.9 135.0 L 163.9 134.0 L 172.2 142.6 L 173.0 146.2 L 169.2189582824707 145.2713231086731 L 164.5 149.5 L 156.1 155.9 L 147.01192970275878 161.5925274848938 L 150.8 165.1 L 159.9 170.4 L 170.2 173.8 L 175.99115161895753 174.5050097465515 L 181.6 150.2 L 183.6 150.2 L 181.67713718414308 175.19721670150756 L 181.7 175.2 L 185.9 177.2 L 187.5 181.4 L 185.6 185.5 L 181.4 187.2 L 167.6 185.5 Z M 30.0 77.8 L 33.0 79.8 L 30.0 81.6 L 30.0 140.0 L 18.0 146.0 L 18.0 75.8 Z M 148.6 78.8 L 147.2 77.3 L 145.6 75.8 L 143.8 74.2 L 141.7 72.6 L 139.4 71.0 L 136.9 69.4 L 134.2 67.7 L 131.2 66.4 L 131.6 64.7 L 134.9 65.3 L 138.2 65.6 L 141.3 66.1 L 144.3 66.8 L 147.1 67.6 L 149.8 68.5 L 152.4 69.5 L 154.8 70.7 L 157.1 72.0 L 159.3 73.5 L 160.9 77.7 L 159.2 81.9 L 154.9 83.6 L 150.7 81.8 L 149.7 80.3 Z M 67.4 52.6 L 66.2 50.5 L 64.7 48.4 L 62.8 46.2 L 60.7 44.0 L 58.2 41.7 L 55.5 39.4 L 52.5 36.9 L 50.16666669845581 35.5 L 45.5307692527771 35.5 L 42.9 39.3 L 38.8 44.2 L 34.4 48.9 L 29.6 53.3 L 24.4 57.5 L 18.7 61.3 L 12.6 64.8 L 11.5 63.4 L 16.3 58.4 L 20.8 53.5 L 24.9 48.7 L 28.7 43.9 L 32.1 39.0 L 35.1 34.1 L 37.8 29.1 L 40.0 24.1 L 41.9 19.0 L 43.13306865692139 14.8075665473938 L 43.1 14.8 L 43.9 12.4 L 54.9 17.5 L 57.1 20.4 L 53.34569139480591 21.256245803833007 L 52.5 23.3 L 49.7 28.8 L 48.06981134414673 31.5 L 85.0 31.5 L 95.0 21.5 L 107.0 31.5 L 107.0 35.5 L 57.15454549789429 35.5 L 57.5 35.6 L 61.1 37.0 L 64.5 38.5 L 67.6 40.2 L 70.5 42.0 L 73.2 44.0 L 75.6 46.2 L 77.8 48.5 L 79.7 51.1 L 80.0 55.6 L 77.1 59.1 L 72.5 59.4 L 69.0 56.5 L 68.4 54.6 Z M 147.2 52.6 L 146.0 50.5 L 144.5 48.4 L 142.6 46.2 L 140.5 44.0 L 138.0 41.7 L 135.3 39.4 L 132.3 36.9 L 129.9666666984558 35.5 L 124.80408163070679 35.5 L 122.6 38.5 L 118.5 43.1 L 114.1 47.4 L 109.3 51.4 L 104.1 55.1 L 98.4 58.5 L 92.3 61.4 L 91.4 59.9 L 96.2 55.4 L 100.7 51.0 L 104.8 46.6 L 108.6 42.2 L 112.0 37.7 L 115.0 33.1 L 117.6 28.4 L 119.8 23.7 L 121.7 18.8 L 122.92281818389893 14.805460739135743 L 122.9 14.8 L 123.7 12.3 L 134.6 17.6 L 136.9 20.4 L 133.0208333015442 21.284722232818602 L 132.2 23.2 L 129.4 28.5 L 127.51764707565307 31.5 L 165.8 31.5 L 175.8 21.5 L 187.8 31.5 L 187.8 35.5 L 136.9545454978943 35.5 L 137.3 35.6 L 140.9 37.0 L 144.3 38.5 L 147.4 40.2 L 150.3 42.0 L 153.0 44.0 L 155.4 46.2 L 157.6 48.5 L 159.5 51.1 L 159.8 55.6 L 156.9 59.1 L 152.3 59.4 L 148.8 56.5 L 148.1 54.6 Z " />
</g>
</svg>
