<svg xmlns="http://www.w3.org/2000/svg" xmlns:xlink="http://www.w3.org/1999/xlink" version="1.1" baseProfile="full" viewBox="0 0 200 200" width="200" height="200">
<g fill="black">
<path d="M 86.2 175.9 L 97.5 175.9 L 98.4 175.7 L 99.3 175.4 L 99.5 175.2 L 99.6 175.0 L 99.8 174.7 L 100.0 174.1 L 100.2 173.2 L 100.2 157.2 L 73.8 157.2 L 73.8 181.2 L 61.8 187.2 L 61.8 112.0 L 73.8 118.0 L 100.2 118.0 L 106.2 113.0 L 117.2 122.0 L 112.2 126.0 L 112.2 171.9 L 112.1 174.5 L 111.6 177.0 L 110.8 179.4 L 109.6 181.7 L 108.0 183.7 L 105.9 185.3 L 103.7 186.6 L 101.3 187.4 L 98.8 187.8 L 96.2 187.9 L 96.2 181.9 L 86.2 178.9 Z M 129.2 176.4 L 140.2 176.4 L 140.9 176.3 L 141.5 176.0 L 141.6 175.8 L 141.8 175.6 L 142.0 175.1 L 142.2 174.4 L 142.4 173.3 L 142.5 171.9 L 142.5 141.9 L 120.0 141.9 L 120.0 137.9 L 142.5 137.9 L 142.5 118.2 L 113.3 118.2 L 113.3 114.2 L 142.5 114.2 L 142.5 94.4 L 125.3 94.4 L 125.3 92.60967741012573 L 123.8 94.4 L 120.3 97.8 L 116.76818180084229 100.56818180084228 L 119.6 103.4 L 119.6 107.4 L 54.4 107.4 L 54.4 103.4 L 81.0 103.4 L 81.0 89.9 L 61.4 89.9 L 61.4 85.9 L 81.0 85.9 L 81.0 72.3 L 58.5 72.3 L 58.5 68.3 L 81.0 68.3 L 81.0 51.7 L 93.0 53.7 L 96.0 55.7 L 93.0 57.5 L 93.0 68.3 L 97.31818180084228 68.3 L 105.5 59.3 L 115.5 68.3 L 115.5 72.3 L 93.0 72.3 L 93.0 85.9 L 98.3777777671814 85.9 L 104.6 78.9 L 112.6 85.9 L 112.6 89.9 L 93.0 89.9 L 93.0 103.4 L 109.1 103.4 L 113.6 97.4 L 115.43114757537842 99.23114757537842 L 117.3 95.4 L 119.4 91.4 L 121.4 87.2 L 123.3 83.0 L 125.1 78.5 L 126.8 73.9 L 128.4 69.2 L 129.9 64.2 L 131.3 59.0 L 132.37978248596193 54.514749717712405 L 132.3 54.5 L 133.0 51.9 L 144.2 56.7 L 146.5 59.5 L 142.87704010009764 60.47043571472168 L 142.2 62.4 L 140.7735849380493 66.0 L 156.6 66.0 L 157.25242719650268 65.45631065368653 L 157.3 65.3 L 157.3878077507019 65.34349355697631 L 162.6 61.0 L 173.6 70.0 L 168.6 73.0 L 165.18837213516235 74.42151165008545 L 164.9 74.8 L 163.2 77.0 L 161.4 79.2 L 157.6 83.6 L 155.5 85.9 L 153.2 88.2 L 150.9 90.4 L 166.5 90.4 L 172.0 85.4 L 182.5 94.4 L 177.5 97.9 L 177.5 114.2 L 182.0 108.2 L 188.0 114.2 L 188.0 118.2 L 177.5 118.2 L 177.5 147.9 L 166.5 153.4 L 166.5 141.9 L 153.5 141.9 L 153.5 171.9 L 153.4 174.4 L 153.0 176.7 L 152.3 179.0 L 151.3 181.1 L 149.9 183.1 L 148.1 184.7 L 146.1 186.0 L 143.9 186.8 L 141.6 187.3 L 139.2 187.4 L 139.2 181.9 L 129.2 179.2 Z M 31.6 185.7 L 27.5 183.6 L 26.0 179.3 L 26.6 174.1 L 26.7 169.4 L 26.5 165.2 L 26.0 161.4 L 25.1 158.0 L 24.038427925109865 155.4685589790344 L 23.0 155.2 L 23.403333377838134 154.24666662216185 L 22.1 152.1 L 20.0 149.5 L 17.3 147.0 L 14.0 144.9 L 14.5 143.2 L 18.7 144.1 L 22.7 145.6 L 26.3 147.9 L 26.334353160858154 147.93113260269166 L 27.6 145.2 L 30.1 140.3 L 33.0 134.6 L 36.4 127.9 L 40.3 120.4 L 44.7 112.0 L 49.8 102.8 L 55.4 92.8 L 57.1 93.6 L 53.2 104.4 L 49.6 114.2 L 46.3 123.1 L 43.3 131.0 L 40.8 137.9 L 38.6 143.9 L 36.9 149.0 L 35.7 153.1 L 34.9 156.2 L 34.6 158.2 L 34.126305770874026 158.07749290466307 L 34.4 158.6 L 36.1 163.3 L 37.2 168.5 L 37.9 174.1 L 38.0 180.2 L 35.9 184.2 Z M 73.8 139.6 L 73.8 153.2 L 100.2 153.2 L 100.2 139.6 Z M 153.5 118.2 L 153.5 137.9 L 166.5 137.9 L 166.5 118.2 Z M 73.8 122.0 L 73.8 135.6 L 100.2 135.6 L 100.2 122.0 Z M 153.5 94.4 L 153.5 114.2 L 166.5 114.2 L 166.5 94.4 Z M 26.7 106.2 L 25.9 104.7 L 24.8 103.2 L 23.5 101.6 L 21.9 100.0 L 20.0 98.3 L 17.9 96.6 L 15.6 94.9 L 12.8 93.6 L 13.3 91.9 L 16.4 92.7 L 19.4 93.1 L 22.3 93.8 L 25.0 94.6 L 27.6 95.5 L 30.0 96.6 L 32.2 97.9 L 34.3 99.4 L 36.2 101.1 L 38.0 103.0 L 38.4 107.5 L 35.6 111.1 L 31.1 111.6 L 27.5 108.8 L 27.2 107.5 Z M 139.08269233703612 70.0 L 137.8 72.9 L 135.3 77.7 L 132.7 82.3 L 129.9 86.7 L 127.125 90.4 L 147.9758620262146 90.4 L 148.7 89.0 L 149.8 85.9 L 150.9 83.0 L 152.0 80.2 L 153.1 77.5 L 154.0 74.9 L 155.0 72.3 L 155.76666669845582 70.0 Z M 37.2 71.1 L 36.4 69.5 L 35.3 68.0 L 34.0 66.4 L 32.5 64.8 L 30.8 63.1 L 28.8 61.4 L 26.6 59.7 L 24.1 58.4 L 24.7 56.7 L 27.5 57.6 L 30.4 58.0 L 33.1 58.6 L 35.7 59.4 L 38.2 60.4 L 40.5 61.5 L 42.7 62.8 L 44.8 64.2 L 46.7 65.8 L 48.5 67.6 L 49.1 72.1 L 46.5 75.9 L 42.0 76.5 L 38.2 73.9 L 37.8 72.5 Z M 134.0 14.5 L 137.0 16.5 L 134.0 18.3 L 134.0 30.6 L 165.0 30.6 L 175.0 20.6 L 187.0 30.6 L 187.0 34.6 L 134.0 34.6 L 134.0 48.0 L 122.0 54.0 L 122.0 34.6 L 78.0 34.6 L 78.0 48.0 L 66.0 54.0 L 66.0 34.6 L 13.0 34.6 L 13.0 30.6 L 66.0 30.6 L 66.0 12.5 L 78.0 14.5 L 81.0 16.5 L 78.0 18.3 L 78.0 30.6 L 122.0 30.6 L 122.0 12.5 Z " />
</g>
</svg>
