<svg xmlns="http://www.w3.org/2000/svg" xmlns:xlink="http://www.w3.org/1999/xlink" version="1.1" baseProfile="full" viewBox="0 0 200 200" width="200" height="200">
<g fill="black">
<path d="M 15.1 124.1 L 80.8 124.1 L 80.8 108.0 L 36.3 108.0 L 36.3 104.0 L 80.8 104.0 L 80.8 88.1 L 92.8 90.1 L 95.8 92.1 L 92.8 93.9 L 92.8 104.0 L 121.11818180084228 104.0 L 129.3 95.0 L 139.3 104.0 L 139.3 105.41607141494751 L 142.6 103.0 L 152.3 94.8 L 159.9 87.2 L 160.9 86.1 L 169.2 94.7 L 170.0 98.3 L 166.2099281311035 97.43559761047364 L 159.8 103.3 L 149.0 111.6 L 136.9 119.6 L 128.95194807052613 124.1 L 168.61818180084228 124.1 L 176.8 115.1 L 186.8 124.1 L 186.8 128.1 L 121.7 128.1 L 108.5 134.7 L 98.08611106872559 139.3 L 140.4 139.3 L 146.4 134.3 L 157.4 143.3 L 152.4 147.3 L 152.4 180.7 L 140.4 186.7 L 140.4 178.7 L 72.6 178.7 L 72.6 181.7 L 60.6 187.7 L 60.6 153.5631579399109 L 55.6 155.3 L 35.2 161.5 L 13.3 167.2 L 12.8 165.5 L 34.0 157.9 L 53.8 150.2 L 60.6 147.3913043022156 L 60.6 133.3 L 72.6 139.3 L 79.48571424484253 139.3 L 89.2 134.9 L 102.71282052993774 128.1 L 15.1 128.1 Z M 72.6 161.0 L 72.6 174.7 L 140.4 174.7 L 140.4 161.0 Z M 88.5764705657959 143.3 L 74.6 148.7 L 72.6 149.3947368621826 L 72.6 157.0 L 140.4 157.0 L 140.4 143.3 Z M 92.8 108.0 L 92.8 124.1 L 110.0544303894043 124.1 L 118.8 119.2 L 131.4 111.2 L 135.7707317352295 108.0 Z M 13.2 66.4 L 12.5 61.9 L 15.1 58.1 L 17.0 57.3 L 18.7 56.1 L 20.4 54.6 L 22.0 52.7 L 23.6 50.4 L 24.9 47.6 L 26.2 44.3 L 27.2 40.7 L 28.2 36.6 L 28.6 32.0 L 30.4 32.0 L 31.0 36.6 L 31.26136360168457 38.9 L 92.5 38.9 L 92.5 25.6 L 33.4 25.6 L 33.4 21.6 L 149.21818180084227 21.6 L 157.4 12.6 L 167.4 21.6 L 167.4 25.6 L 104.5 25.6 L 104.5 38.9 L 170.3 38.9 L 170.8581395149231 38.43488368988037 L 171.1 37.8 L 171.40191659927368 37.981736183166504 L 176.3 33.9 L 187.3 42.9 L 182.3 45.9 L 178.0221374511719 47.68244276046753 L 176.4 49.4 L 174.6 51.1 L 172.8 52.7 L 171.0 54.4 L 167.0 57.4 L 164.9 58.8 L 163.2 60.5 L 161.8 59.3 L 163.1 57.3 L 164.1 55.0 L 165.0 52.8 L 166.0 50.6 L 166.9 48.4 L 168.7 44.2 L 169.17272729873656 42.9 L 104.5 42.9 L 104.5 80.8 L 92.5 86.8 L 92.5 42.9 L 31.59047622680664 42.9 L 31.7 45.2 L 31.4 49.2 L 30.8 53.0 L 29.8 56.6 L 28.4 59.9 L 26.5 63.1 L 24.2 65.9 L 21.4 68.4 L 16.9 69.0 Z M 82.7 73.6 L 82.7 77.6 L 31.5 77.6 L 31.5 73.6 L 64.51818180084229 73.6 L 72.7 64.6 Z M 165.4 73.6 L 165.4 77.6 L 114.2 77.6 L 114.2 73.6 L 147.21818180084227 73.6 L 155.4 64.6 Z M 158.5 57.1 L 158.5 61.1 L 114.2 61.1 L 114.2 57.1 L 140.3181818008423 57.1 L 148.5 48.1 Z M 82.7 57.1 L 82.7 61.1 L 36.4 61.1 L 36.4 57.1 L 64.51818180084229 57.1 L 72.7 48.1 Z " />
</g>
</svg>
