<svg xmlns="http://www.w3.org/2000/svg" xmlns:xlink="http://www.w3.org/1999/xlink" version="1.1" baseProfile="full" viewBox="0 0 200 200" width="200" height="200">
<g fill="black">
<path d="M 106.0 90.4 L 109.0 92.4 L 106.0 94.2 L 106.0 104.6 L 153.8181818008423 104.6 L 162.0 95.6 L 172.0 104.6 L 172.0 108.6 L 106.0 108.6 L 106.0 116.8 L 147.0 116.8 L 153.0 111.8 L 164.0 120.8 L 159.0 124.8 L 159.0 152.3 L 147.0 158.3 L 147.0 152.3 L 106.0 152.3 L 106.0 162.5 L 167.8181818008423 162.5 L 176.0 153.5 L 186.0 162.5 L 186.0 166.5 L 106.0 166.5 L 106.0 180.8 L 94.0 186.8 L 94.0 166.5 L 14.0 166.5 L 14.0 162.5 L 94.0 162.5 L 94.0 152.3 L 53.0 152.3 L 41.0 158.3 L 41.0 110.8 L 53.0 116.8 L 94.0 116.8 L 94.0 108.6 L 28.0 108.6 L 28.0 104.6 L 94.0 104.6 L 94.0 88.4 Z M 53.0 136.0 L 53.0 148.3 L 94.0 148.3 L 94.0 136.0 Z M 106.0 136.0 L 106.0 148.3 L 147.0 148.3 L 147.0 136.0 Z M 53.0 120.8 L 53.0 132.0 L 94.0 132.0 L 94.0 120.8 Z M 106.0 120.8 L 106.0 132.0 L 147.0 132.0 L 147.0 120.8 Z M 144.0 20.1 L 170.4 20.1 L 170.96629209518431 19.628089904785156 L 171.3 18.9 L 171.60805368423462 19.093288612365722 L 176.4 15.1 L 187.4 24.1 L 182.4 27.1 L 178.61123600006104 28.67865171432495 L 177.4 30.0 L 172.7 34.7 L 170.1 37.1 L 167.3 39.5 L 164.3 41.9 L 161.2 44.3 L 157.8 46.6 L 156.41577606201173 47.61781167984009 L 162.8 48.6 L 169.3 50.9 L 174.4 53.8 L 178.5 57.1 L 181.5 60.7 L 183.5 64.4 L 184.7 67.9 L 185.2 71.2 L 185.1 74.2 L 184.1 77.3 L 174.3995867729187 70.80072317123413 L 174.4 70.8 L 174.6 69.4 L 174.4 67.5 L 173.7 65.1 L 172.3 62.3 L 169.9 59.3 L 166.2 56.0 L 161.2 52.7 L 154.5 49.1 L 154.52759380340575 49.00618104934692 L 154.4 49.1 L 153.2 47.8 L 155.8 44.5 L 158.0 41.2 L 160.2 38.0 L 162.3 35.0 L 164.2 32.0 L 165.9 29.2 L 167.5 26.5 L 168.88461542129517 24.1 L 144.0 24.1 L 144.0 93.6 L 133.0 99.1 L 133.0 14.6 Z M 15.3 62.1 L 19.3 61.8 L 27.210408878326415 61.2211895942688 L 30.4 57.5 L 33.8 53.6 L 37.0 49.7 L 40.1 45.9 L 43.0 42.3 L 45.7 38.7 L 48.2 35.2 L 50.5 31.7 L 52.14757509231568 29.228637409210204 L 52.1 29.2 L 53.1 27.7 L 62.4 35.4 L 63.7 38.7 L 59.87945470809937 38.37064266204834 L 59.6 38.7 L 56.5 41.9 L 53.3 45.2 L 49.8 48.5 L 46.2 51.8 L 42.3 55.0 L 38.2 58.3 L 34.88503799438477 60.76694841384888 L 35.8 60.7 L 40.0 60.5 L 44.3 60.3 L 48.5 60.2 L 52.8 60.3 L 53.05178823471069 60.294277572631835 L 54.3 56.3 L 55.1 51.3 L 55.164938640594485 51.310368347167966 L 55.5 49.3 L 67.0 53.2 L 69.7 55.6 L 65.88823528289795 57.152941131591795 L 65.2 59.6 L 62.6 65.6 L 59.1 71.2 L 54.7 76.4 L 49.7 81.2 L 43.8 85.5 L 37.3 89.3 L 30.0 92.8 L 22.0 95.7 L 13.2 98.2 L 12.6 96.5 L 20.5 92.2 L 27.5 88.0 L 33.8 83.8 L 39.3 79.4 L 43.9 75.0 L 47.6 70.4 L 50.6 65.8 L 51.30967741012573 64.28387098312378 L 49.4 65.0 L 45.3 66.3 L 41.2 67.5 L 37.2 68.7 L 33.1 69.8 L 25.1 72.0 L 21.282608699798583 72.9543478012085 L 19.6 76.6 L 17.1 73.9 L 13.3 62.4 Z M 55.8 81.9 L 61.1 81.2 L 66.6 80.5 L 72.2 79.7 L 74.0 79.4473684310913 L 74.0 14.0 L 86.0 20.0 L 110.5 20.0 L 116.0 15.0 L 126.5 24.0 L 121.5 27.5 L 121.5 54.0 L 110.5 59.5 L 110.5 54.0 L 86.0 54.0 L 86.0 77.66999998092652 L 89.8 77.1 L 96.0 76.3 L 102.4 75.4 L 108.09589042663575 74.79589042663574 L 106.2 72.9 L 103.8 70.6 L 101.3 68.3 L 98.4 66.2 L 99.3 64.6 L 102.6 66.0 L 106.0 67.1 L 109.2 68.4 L 112.2 69.8 L 115.0 71.2 L 117.7 72.8 L 120.3 74.4 L 122.7 76.2 L 124.9 78.0 L 126.94161596298218 79.9443962097168 L 127.0 79.9 L 128.0 84.4 L 125.8 88.3 L 121.3 89.4 L 117.4 87.2 L 122.2 83.55 L 117.4 87.1 L 116.4 85.3 L 115.2 83.3 L 113.8 81.3 L 112.2 79.3 L 111.02914571762085 77.9340033531189 L 109.9 78.4 L 103.6 80.6 L 97.5 82.7 L 91.5 84.5 L 85.6 86.3 L 79.8 88.0 L 74.2 89.5 L 68.7 91.0 L 63.3 92.4 L 62.05598611831665 92.70513544082641 L 60.5 96.3 L 58.0 93.7 L 53.9 82.2 Z M 153.5 76.3 L 163.5 76.3 L 164.9 76.2 L 166.3 76.0 L 167.5 75.8 L 168.6 75.4 L 169.6 74.9 L 170.6 74.3 L 171.5 73.6 L 172.4 72.8 L 173.3 71.8 L 174.1 70.6 L 174.3995867729187 70.80072317123413 L 184.1 77.3 L 182.6 79.3 L 181.0 81.2 L 179.2 82.8 L 177.3 84.3 L 175.2 85.5 L 173.0 86.5 L 170.8 87.3 L 168.4 87.8 L 166.0 88.2 L 163.5 88.3 L 163.5 82.3 L 153.5 79.3 Z M 86.0 39.0 L 86.0 50.0 L 110.5 50.0 L 110.5 39.0 Z M 26.4 44.5 L 26.0 43.3 L 25.3 42.0 L 24.3 40.5 L 23.1 39.0 L 21.5 37.4 L 19.7 35.7 L 17.6 34.0 L 15.0 32.7 L 15.7 31.0 L 18.5 31.9 L 21.3 32.4 L 23.9 33.0 L 25.325 33.475 L 25.6 33.2 L 29.6 28.2 L 33.4 23.6 L 35.2 21.3 L 38.4 16.9 L 39.9 14.8 L 40.71059904098511 13.584101390838622 L 40.6 13.5 L 41.6 12.3 L 50.2 20.8 L 51.1 24.3 L 46.775277328491214 23.405229759216308 L 43.4 25.9 L 41.0 27.6 L 35.8 30.8 L 33.0 32.4 L 30.2 33.9 L 28.537837791442872 34.67567567825317 L 28.6 34.7 L 30.8 35.8 L 32.7 37.0 L 34.6 38.4 L 36.2 40.1 L 37.6 42.0 L 37.5 46.6 L 34.3 49.8 L 29.7 49.7 L 26.5 46.4 L 26.5 45.6 Z M 86.0 24.0 L 86.0 35.0 L 110.5 35.0 L 110.5 24.0 Z " />
</g>
</svg>
