<svg xmlns="http://www.w3.org/2000/svg" xmlns:xlink="http://www.w3.org/1999/xlink" version="1.1" baseProfile="full" viewBox="0 0 200 200" width="200" height="200">
<g fill="black">
<path d="M 106.0 90.4 L 109.0 92.4 L 106.0 94.2 L 106.0 104.6 L 153.8181818008423 104.6 L 162.0 95.6 L 172.0 104.6 L 172.0 108.6 L 106.0 108.6 L 106.0 116.8 L 147.0 116.8 L 153.0 111.8 L 164.0 120.8 L 159.0 124.8 L 159.0 152.3 L 147.0 158.3 L 147.0 152.3 L 106.0 152.3 L 106.0 162.5 L 167.8181818008423 162.5 L 176.0 153.5 L 186.0 162.5 L 186.0 166.5 L 106.0 166.5 L 106.0 180.8 L 94.0 186.8 L 94.0 166.5 L 14.0 166.5 L 14.0 162.5 L 94.0 162.5 L 94.0 152.3 L 53.0 152.3 L 41.0 158.3 L 41.0 110.8 L 53.0 116.8 L 94.0 116.8 L 94.0 108.6 L 28.0 108.6 L 28.0 104.6 L 94.0 104.6 L 94.0 88.4 Z M 53.0 136.0 L 53.0 148.3 L 94.0 148.3 L 94.0 136.0 Z M 106.0 136.0 L 106.0 148.3 L 147.0 148.3 L 147.0 136.0 Z M 53.0 120.8 L 53.0 132.0 L 94.0 132.0 L 94.0 120.8 Z M 106.0 120.8 L 106.0 132.0 L 147.0 132.0 L 147.0 120.8 Z M 144.5 20.1 L 170.5 20.1 L 171.06629209518434 19.628089904785156 L 171.4 18.9 L 171.7080536842346 19.093288612365722 L 176.5 15.1 L 187.5 24.1 L 182.5 27.1 L 178.62459020614625 28.714754104614258 L 177.5 30.0 L 175.2 32.4 L 172.7 34.7 L 170.1 37.1 L 167.3 39.5 L 164.4 41.9 L 161.2 44.3 L 157.8 46.6 L 156.4188838005066 47.61552667617798 L 162.9 48.6 L 169.3 50.9 L 174.5 53.8 L 178.5 57.1 L 181.5 60.7 L 183.6 64.4 L 184.8 67.9 L 185.3 71.2 L 185.2 74.2 L 184.1 77.3 L 174.4084210395813 70.74105262756348 L 174.6 69.4 L 174.5 67.5 L 173.8 65.1 L 172.3 62.3 L 169.9 59.3 L 166.3 56.0 L 161.2 52.7 L 154.5 49.1 L 154.52759380340575 49.00618104934692 L 154.4 49.1 L 153.2 47.8 L 155.8 44.5 L 158.1 41.2 L 160.2 38.0 L 162.3 35.0 L 164.2 32.0 L 166.0 29.2 L 167.6 26.5 L 168.89230766296387 24.1 L 144.5 24.1 L 144.5 93.4 L 132.5 99.4 L 132.5 14.1 Z M 15.3 62.1 L 19.3 61.8 L 27.210408878326415 61.2211895942688 L 30.4 57.5 L 33.8 53.6 L 37.0 49.7 L 40.1 45.9 L 43.0 42.3 L 45.7 38.7 L 48.2 35.2 L 50.5 31.7 L 52.14757509231568 29.228637409210204 L 52.1 29.2 L 53.1 27.7 L 62.4 35.4 L 63.7 38.7 L 59.87945470809937 38.37064266204834 L 59.6 38.7 L 56.5 41.9 L 53.3 45.2 L 49.8 48.5 L 46.2 51.8 L 42.3 55.0 L 38.2 58.3 L 34.88503799438477 60.76694841384888 L 35.8 60.7 L 40.0 60.5 L 44.3 60.3 L 48.5 60.2 L 52.8 60.3 L 53.05178823471069 60.294277572631835 L 54.3 56.3 L 55.1 51.3 L 55.164938640594485 51.310368347167966 L 55.5 49.3 L 67.0 53.2 L 69.7 55.6 L 65.88823528289795 57.152941131591795 L 65.2 59.6 L 62.6 65.6 L 59.1 71.2 L 54.7 76.4 L 49.7 81.2 L 43.8 85.5 L 37.3 89.3 L 30.0 92.8 L 22.0 95.7 L 13.2 98.2 L 12.6 96.5 L 20.5 92.2 L 27.5 88.0 L 33.8 83.8 L 39.3 79.4 L 43.9 75.0 L 47.6 70.4 L 50.6 65.8 L 51.30967741012573 64.28387098312378 L 49.4 65.0 L 45.3 66.3 L 41.2 67.5 L 37.2 68.7 L 33.1 69.8 L 25.1 72.0 L 21.282608699798583 72.9543478012085 L 19.6 76.6 L 17.1 73.9 L 13.3 62.4 Z M 113.3 83.8 L 112.0 82.0 L 110.4 80.1 L 109.38288831710815 78.90339803695679 L 108.1 79.4 L 102.0 81.5 L 96.1 83.4 L 90.2 85.1 L 84.4 86.7 L 78.8 88.3 L 73.3 89.7 L 68.0 91.1 L 62.7 92.4 L 61.662425422668456 92.6441351890564 L 60.1 96.2 L 57.6 93.6 L 53.5 82.2 L 55.5 81.8 L 60.7 81.2 L 66.0 80.5 L 71.4 79.9 L 73.0 79.7 L 73.0 16.5 L 85.0 22.5 L 108.1 22.5 L 114.1 17.5 L 125.1 26.5 L 120.1 30.5 L 120.1 55.6 L 108.1 61.6 L 108.1 55.6 L 85.0 55.6 L 85.0 78.13898305892944 L 88.7 77.7 L 94.7 76.9 L 100.9 76.3 L 106.38571424484253 75.78571424484252 L 104.6 74.0 L 102.3 71.9 L 99.8 69.5 L 97.0 67.6 L 97.8 66.0 L 101.1 67.4 L 104.4 68.4 L 107.5 69.6 L 110.4 70.8 L 113.1 72.1 L 115.7 73.4 L 118.1 74.8 L 120.4 76.3 L 122.5 77.8 L 124.5 79.4 L 125.9 83.8 L 123.8 87.8 L 119.4 89.2 L 115.4 87.2 L 114.4 85.5 Z M 153.6 76.3 L 163.6 76.3 L 165.0 76.2 L 166.3 76.0 L 167.5 75.8 L 168.6 75.4 L 169.6 74.9 L 170.6 74.3 L 171.5 73.6 L 172.4 72.8 L 173.3 71.8 L 174.2 70.6 L 174.0 71.5 L 174.0307692527771 71.44615383148194 L 174.2 70.6 L 174.4084210395813 70.74105262756348 L 184.1 77.3 L 182.6 79.3 L 181.0 81.2 L 179.2 82.8 L 177.3 84.3 L 175.3 85.5 L 173.1 86.5 L 170.8 87.3 L 168.4 87.8 L 166.0 88.2 L 163.6 88.3 L 163.6 82.3 L 153.6 79.3 Z M 85.0 40.6 L 85.0 51.6 L 108.1 51.6 L 108.1 40.6 Z M 26.4 44.5 L 26.0 43.3 L 25.3 42.0 L 24.3 40.5 L 23.1 39.0 L 21.5 37.4 L 19.7 35.7 L 17.6 34.0 L 15.0 32.7 L 15.7 31.0 L 18.5 31.9 L 21.3 32.4 L 23.9 33.0 L 25.325 33.475 L 25.6 33.2 L 29.6 28.2 L 33.4 23.6 L 35.2 21.3 L 38.4 16.9 L 39.9 14.8 L 40.71059904098511 13.584101390838622 L 40.6 13.5 L 41.6 12.3 L 50.2 20.8 L 51.1 24.3 L 46.775277328491214 23.405229759216308 L 43.4 25.9 L 41.0 27.6 L 35.8 30.8 L 33.0 32.4 L 30.2 33.9 L 28.537837791442872 34.67567567825317 L 28.6 34.7 L 30.8 35.8 L 32.7 37.0 L 34.6 38.4 L 36.2 40.1 L 37.6 42.0 L 37.5 46.6 L 34.3 49.8 L 29.7 49.7 L 26.5 46.4 L 26.5 45.6 Z M 85.0 26.5 L 85.0 36.6 L 108.1 36.6 L 108.1 26.5 Z " />
</g>
</svg>
