<svg xmlns="http://www.w3.org/2000/svg" xmlns:xlink="http://www.w3.org/1999/xlink" version="1.1" baseProfile="full" viewBox="0 0 200 200" width="200" height="200">
<g fill="black">
<path d="M 170.2 169.9 L 166.3 162.4 L 162.8 154.1 L 159.9 145.1 L 157.5 135.3 L 155.6 124.8 L 154.61118421554565 115.57105264663696 L 153.9 119.9 L 150.7 132.9 L 146.7 144.8 L 141.9 155.7 L 136.2 165.5 L 129.7 174.2 L 122.3 181.6 L 114.1 187.7 L 113.0 186.2 L 119.6 178.9 L 125.4 170.9 L 130.6 162.2 L 135.0 152.6 L 138.7 142.1 L 141.7 130.6 L 144.0 118.2 L 145.5 104.8 L 146.4 90.4 L 146.4 67.0 L 158.4 69.0 L 161.4 71.0 L 158.4 72.8 L 158.4 75.0 L 157.7 90.9 L 157.2286623954773 95.61337575912475 L 158.1 101.3 L 160.3 112.8 L 162.7 123.4 L 165.6 133.2 L 168.7 142.1 L 172.3 150.1 L 176.1 157.2 L 180.1 163.5 L 184.4 168.8 L 188.8 173.3 L 190.1 174.7 L 179.4 182.6 L 174.6 176.6 Z M 51.1 172.4 L 56.9 171.2 L 63.0 169.8 L 63.2 169.74769229888915 L 63.2 58.8 L 75.2 60.8 L 78.2 62.8 L 75.2 64.6 L 75.2 166.53043479919432 L 76.4 166.2 L 83.7 164.2 L 87.4 163.08026313781738 L 87.4 14.7 L 99.4 16.7 L 102.4 18.7 L 99.4 20.5 L 99.4 83.0 L 108.3777777671814 83.0 L 114.6 76.0 L 122.6 83.0 L 122.6 87.0 L 99.4 87.0 L 99.4 159.3380952835083 L 107.6 156.8 L 116.4 154.1 L 125.6 151.4 L 126.3 153.0 L 117.8 157.6 L 109.6 161.8 L 101.6 165.5 L 93.9 169.0 L 86.5 172.2 L 79.4 175.0 L 72.6 177.7 L 66.1 180.0 L 59.9 182.2 L 58.053317832946775 182.773108291626 L 56.7 186.4 L 54.1 184.0 L 49.2 172.9 Z M 28.3 186.9 L 24.3 184.9 L 22.7 180.6 L 23.2 173.5 L 23.4 167.0 L 23.0 161.1 L 22.3 155.8 L 21.2 151.1 L 20.391655349731444 148.89052467346193 L 19.5 148.7 L 19.891860485076904 147.52441864013673 L 19.7 147.0 L 17.9 143.3 L 15.6 140.0 L 12.8 137.0 L 9.4 134.2 L 10.1 132.5 L 14.8 133.7 L 19.1 136.0 L 22.99430446624756 139.19532680511475 L 24.3 135.9 L 26.8 129.4 L 29.9 121.8 L 33.5 113.0 L 37.6 103.1 L 42.3 92.1 L 47.7 79.9 L 53.7 66.6 L 55.4 67.3 L 51.2 81.2 L 47.4 93.9 L 43.8 105.4 L 40.7 115.6 L 37.9 124.6 L 35.6 132.4 L 33.8 139.0 L 32.5 144.4 L 31.6 148.5 L 31.2 151.2 L 30.32777395248413 151.01362686157228 L 31.3 153.4 L 33.0 159.5 L 34.1 166.2 L 34.6 173.5 L 34.7 181.3 L 32.6 185.4 Z M 151.1 17.7 L 153.8 20.1 L 150.36116218566895 21.56469020843506 L 149.8 24.5 L 148.2 31.4 L 146.4 38.4 L 144.4 45.6 L 142.1 52.8 L 141.67837839126588 54.0 L 175.2 54.0 L 181.2 49.0 L 192.2 58.0 L 187.2 61.0 L 185.39124088287355 61.753649616241454 L 185.3 62.0 L 183.9 64.9 L 182.4 68.0 L 180.6 71.4 L 178.6 75.1 L 176.3 79.0 L 173.7 83.2 L 170.7 87.6 L 167.6 92.4 L 166.0 91.5 L 167.9 86.2 L 169.4 81.2 L 170.9 76.6 L 172.1 72.3 L 173.2 68.5 L 174.1 65.0 L 174.7 61.9 L 175.1 59.2 L 175.2 58.05 L 175.2 58.0 L 140.27297296524048 58.0 L 139.5 60.2 L 136.7 67.6 L 133.5 75.1 L 129.9 82.7 L 125.9 90.3 L 124.2 89.6 L 126.3 81.4 L 128.4 73.3 L 130.4 65.6 L 132.2 58.0 L 133.9 50.6 L 135.4 43.4 L 136.6 36.3 L 137.7 29.4 L 138.5 22.7 L 139.091898727417 17.2037974357605 L 139.0 17.2 L 139.4 14.1 Z M 23.1 82.9 L 22.2 80.9 L 21.0 79.0 L 19.5 77.0 L 17.8 75.0 L 15.8 73.0 L 13.6 70.9 L 11.1 68.8 L 8.2 67.2 L 8.8 65.5 L 12.2 66.6 L 15.5 67.4 L 18.6 68.5 L 21.6 69.8 L 24.3 71.2 L 26.9 72.9 L 29.3 74.8 L 31.5 76.9 L 33.5 79.2 L 35.3 81.7 L 35.4 86.3 L 32.3 89.7 L 27.7 89.8 L 24.4 86.7 L 23.9 84.8 Z M 34.4 37.0 L 33.3 35.0 L 32.1 33.0 L 30.7 31.0 L 29.1 28.9 L 27.2 26.9 L 25.2 24.9 L 22.9 22.8 L 20.2 21.2 L 20.9 19.5 L 24.0 20.6 L 27.2 21.4 L 30.1 22.5 L 33.0 23.8 L 35.6 25.3 L 38.2 27.0 L 40.5 28.8 L 42.7 30.9 L 44.7 33.2 L 46.5 35.6 L 46.8 40.1 L 43.8 43.6 L 39.3 43.9 L 35.8 40.9 L 35.2 38.9 Z " />
</g>
</svg>
