<svg xmlns="http://www.w3.org/2000/svg" xmlns:xlink="http://www.w3.org/1999/xlink" version="1.1" baseProfile="full" viewBox="0 0 200 200" width="200" height="200">
<g fill="black">
<path d="M 65.0 52.8 L 63.5 49.5 L 61.9 46.3 L 60.0 43.1 L 57.9 39.9 L 55.6 36.7 L 53.1 33.5 L 50.88152866363525 30.870700645446778 L 49.2 35.1 L 45.7 43.2 L 42.0 50.9 L 38.0 58.2 L 33.8 65.3 L 30.36404495239258 70.53202247619629 L 38.3 74.5 L 43.4 74.5 L 43.4 48.6 L 55.4 50.6 L 58.4 52.6 L 55.4 54.4 L 55.4 74.5 L 60.3 74.5 L 65.8 69.5 L 76.3 78.5 L 71.3 82.0 L 71.3 127.2 L 60.3 132.7 L 60.3 127.2 L 38.3 127.2 L 38.3 165.02857141494752 L 41.4 163.7 L 46.6 161.5 L 52.0 159.1 L 57.8 156.8 L 59.64285717010498 156.0628571510315 L 58.7 153.8 L 57.2 150.3 L 55.5 146.9 L 51.7 140.1 L 49.5 136.9 L 50.7 135.6 L 54.0 138.0 L 57.3 140.5 L 60.3 143.4 L 63.1 146.5 L 65.7 149.8 L 68.1 153.3 L 70.4 157.0 L 72.4 161.0 L 74.3 165.0 L 76.0 169.3 L 75.4 173.8 L 71.8 176.7 L 67.3 176.1 L 64.4 172.6 L 63.6 168.6 L 62.6 164.8 L 61.4 161.0 L 60.79947643280029 159.19842929840087 L 59.7 160.1 L 54.7 163.8 L 49.8 167.2 L 45.0 170.4 L 40.4 173.4 L 38.3 174.68863639831542 L 38.3 174.8 L 38.11851854324341 174.8 L 36.0 176.1 L 31.7 178.6 L 27.6 181.0 L 23.7 183.2 L 23.604922103881837 183.2500410079956 L 22.9 187.1 L 19.9 185.2 L 13.3 174.9 L 15.2 174.1 L 19.0 172.8 L 23.0 171.3 L 26.3 169.99534883499146 L 26.3 76.15531911849976 L 24.7 78.3 L 19.7 84.1 L 14.3 89.5 L 12.9 88.4 L 16.6 81.9 L 20.2 75.3 L 23.8 68.6 L 27.2 61.6 L 30.4 54.4 L 33.5 47.0 L 36.4 39.3 L 39.2 31.4 L 41.7 23.2 L 43.81665096282959 15.703527736663819 L 43.8 15.7 L 44.01428575515747 15.00357141494751 L 44.1 14.7 L 44.10703363418579 14.702140712738037 L 44.6 13.1 L 55.6 18.2 L 57.9 20.9 L 54.28370523452759 21.8516565322876 L 52.5 26.8 L 52.15488548278809 27.66801528930664 L 52.4 27.8 L 56.2 30.0 L 59.8 32.5 L 63.1 35.1 L 66.2 38.0 L 69.1 41.1 L 71.8 44.3 L 74.2 47.7 L 76.5 51.3 L 78.5 55.0 L 78.3 59.5 L 75.1 62.8 L 70.5 62.6 L 67.3 59.4 L 66.2 56.1 Z M 164.2 166.8 L 159.1 158.2 L 155.6905891418457 150.91625862121583 L 153.8 154.9 L 147.5 165.2 L 140.4 174.1 L 132.5 181.3 L 124.0 186.9 L 123.0 185.4 L 130.0 178.5 L 136.2 170.7 L 141.9 161.7 L 147.0 151.5 L 151.4 140.1 L 151.4408399581909 139.9659610748291 L 150.9 138.5 L 147.8 127.3 L 145.3 115.3 L 143.4 102.4 L 142.3 88.6 L 142.2396785736084 84.1663782119751 L 141.5 85.9 L 138.1 93.1 L 134.3 99.8 L 132.6 99.1 L 134.6 91.7 L 136.5 84.2 L 138.4 76.5 L 140.2 68.5 L 141.9 60.3 L 143.5 51.8 L 145.0 43.0 L 146.2 33.9 L 147.4 24.6 L 148.4 15.0 L 148.42856760025023 15.003600978851319 L 148.7 12.9 L 160.3 16.5 L 163.0 18.8 L 159.6789605140686 20.303866958618165 L 158.7 26.3 L 156.8 35.7 L 154.8 44.9 L 152.6 53.8 L 150.56705884933473 61.0 L 166.71818180084227 61.0 L 174.9 52.0 L 184.9 61.0 L 184.9 65.0 L 176.03743314743042 65.0 L 174.3 82.1 L 171.6 99.4 L 168.3 115.3 L 164.2 129.9 L 161.12651605606078 138.35208082199097 L 164.0 144.5 L 168.7 152.7 L 173.8 159.9 L 179.2 166.1 L 185.0 171.3 L 187.2 173.2 L 176.4 181.3 L 170.0 174.5 Z M 104.3 167.3 L 107.4 164.8 L 110.6 162.1 L 111.0 161.77272729873658 L 111.0 109.3 L 104.40909090042115 109.3 L 104.0 118.3 L 102.9 128.5 L 101.4 138.0 L 99.3 146.8 L 96.7 154.9 L 93.5 162.2 L 89.9 168.7 L 85.7 174.4 L 80.9 179.2 L 75.6 182.9 L 74.4 181.5 L 78.1 176.6 L 81.3 171.3 L 84.1 165.6 L 86.5 159.3 L 88.6 152.4 L 90.2 144.7 L 91.4 136.4 L 92.2 127.5 L 92.6 117.7 L 92.5192307472229 109.3 L 81.7 109.3 L 81.7 105.3 L 111.8 105.3 L 121.8 95.3 L 133.8 105.3 L 133.8 109.3 L 123.0 109.3 L 123.0 152.08000001907348 L 127.6 148.4 L 131.3 145.7 L 135.1 142.9 L 139.0 140.2 L 140.3 141.5 L 137.5 145.3 L 134.8 149.2 L 129.2 156.4 L 123.6 163.2 L 120.8 166.5 L 118.0 169.7 L 115.45362071990967 172.62362070083617 L 116.2 176.7 L 112.7 175.9 L 102.8 168.7 Z M 149.31097564697265 65.0 L 147.5 70.5 L 144.7240343093872 78.33218879699707 L 146.5 88.1 L 149.2 101.4 L 152.3 113.7 L 155.8 125.0 L 155.81147842407228 125.0303147315979 L 158.5 113.1 L 161.0 97.7 L 163.0 80.8 L 164.04175825119017 65.0 Z M 38.3 102.3 L 38.3 123.2 L 60.3 123.2 L 60.3 102.3 Z M 38.3 98.3 L 60.3 98.3 L 60.3 78.5 L 38.3 78.5 Z M 93.3 87.4 L 83.3 92.4 L 83.3 31.0 L 93.3 33.0 L 95.8 35.0 L 93.3 36.66666669845581 L 93.3 76.4 L 102.8 76.4 L 102.8 13.7 L 112.8 15.7 L 115.3 17.7 L 112.8 19.36666669845581 L 112.8 76.4 L 121.7 76.4 L 121.7 31.0 L 132.7 33.0 L 135.4 35.0 L 132.7 36.723404216766355 L 132.7 80.4 L 121.7 85.9 L 121.7 80.4 L 93.3 80.4 Z " />
</g>
</svg>
