<svg xmlns="http://www.w3.org/2000/svg" xmlns:xlink="http://www.w3.org/1999/xlink" version="1.1" baseProfile="full" viewBox="0 0 200 200" width="200" height="200">
<g fill="black">
<path d="M 25.0 115.0 L 82.0 115.0 L 82.0 101.0 L 44.0 101.0 L 44.0 97.0 L 82.0 97.0 L 82.0 80.0 L 94.0 82.0 L 97.0 84.0 L 94.0 85.8 L 94.0 97.0 L 111.0 97.0 L 121.0 87.0 L 133.0 97.0 L 133.0 100.4222222328186 L 139.3 95.6 L 145.67876110076904 89.69026546478271 L 146.3 89.0 L 154.3 98.0 L 154.9 101.6 L 151.1780488014221 100.53658533096313 L 146.3 104.5 L 137.2 110.7 L 129.81833333969115 115.0 L 156.8181818008423 115.0 L 165.0 106.0 L 175.0 115.0 L 175.0 119.0 L 122.37931032180786 119.0 L 115.5 122.5 L 103.0 128.0 L 89.4 133.3 L 87.94901962280274 133.8 L 133.7 133.8 L 139.7 128.8 L 150.7 137.8 L 145.7 141.8 L 145.7 178.2 L 133.7 184.2 L 133.7 174.2 L 76.2 174.2 L 76.2 181.2 L 64.2 187.2 L 64.2 141.5199999809265 L 58.6 143.2 L 41.5 147.7 L 23.2 151.8 L 22.7 150.1 L 40.4 144.1 L 57.0 138.1 L 64.2 135.3235294342041 L 64.2 127.8 L 72.68230772018433 132.04115381240845 L 86.5 126.3 L 99.5 120.3 L 102.01475410461425 119.0 L 25.0 119.0 Z M 76.2 156.0 L 76.2 170.2 L 133.7 170.2 L 133.7 156.0 Z M 76.34117650985718 137.8 L 76.2 137.84864864349365 L 76.2 152.0 L 133.7 152.0 L 133.7 137.8 Z M 94.0 101.0 L 94.0 115.0 L 109.75245904922485 115.0 L 111.3 114.2 L 121.9 108.0 L 131.2 101.8 L 132.2451612472534 101.0 Z M 46.7 77.5 L 44.8 75.9 L 42.8 74.2 L 40.5 72.6 L 38.1 71.0 L 35.5 69.4 L 32.8 67.8 L 29.9 66.1 L 26.7 64.7 L 27.1 63.0 L 30.6 63.6 L 34.1 63.9 L 37.4 64.3 L 40.6 65.0 L 43.7 65.7 L 46.6 66.6 L 49.5 67.6 L 52.2 68.7 L 54.8 70.0 L 57.3 71.4 L 59.5 75.4 L 59.00572690963745 77.2123348236084 L 65.9 72.8 L 72.7 67.8 L 78.9 62.6 L 84.0773585319519 57.7 L 33.0 57.7 L 33.0 53.7 L 87.71428575515748 53.7 L 89.5 51.7 L 89.93297300338745 52.08918914794922 L 94.0 48.7 L 105.0 57.7 L 100.0 60.7 L 95.3696969985962 62.6292929649353 L 92.4 65.5 L 85.8 70.9 L 78.6 76.0 L 70.8 80.7 L 62.5 85.1 L 53.6 89.1 L 44.1 92.8 L 34.1 96.0 L 23.4 98.8 L 12.2 101.1 L 11.7 99.3 L 22.3 95.2 L 32.2 91.0 L 41.6 86.7 L 50.3 82.3 L 51.93065786361694 81.35381574630738 L 49.9 80.8 L 48.4 79.1 Z M 159.1 93.6 L 149.6 89.5 L 140.9 85.0 L 132.9 80.2 L 125.9 75.0 L 119.6 69.4 L 114.2 63.5 L 109.9 57.3 L 106.7 50.6 L 108.2 49.7 L 113.2 54.7 L 118.5 59.4 L 124.3 63.9 L 130.7 68.2 L 131.4785641670227 68.63377151489257 L 131.8 68.4 L 134.7 65.7 L 137.4 63.3 L 140.0 61.1 L 142.5 58.9 L 144.7 57.0 L 146.8 55.1 L 148.6 53.4 L 150.99112424850463 51.00887575149536 L 150.9 50.9 L 150.9934910774231 51.006508922576906 L 151.7 50.3 L 157.0776762008667 57.937858963012694 L 158.8 59.9 L 159.0 63.5 L 154.84569044113158 61.76274328231811 L 154.3 62.0 L 151.9 63.1 L 149.3 64.2 L 146.5 65.4 L 143.5 66.7 L 140.3 68.0 L 136.8 69.3 L 134.2699107170105 70.18895025253296 L 137.7 72.1 L 145.4 75.8 L 148.5233103752136 77.08606901168824 L 151.6 74.9 L 155.2 72.4 L 158.6 70.1 L 161.7 67.9 L 164.5 65.9 L 167.1 64.1 L 169.4 62.4 L 171.4 60.9 L 172.30748481750487 60.1526596069336 L 172.2 60.0 L 172.33142957687377 60.1329402923584 L 173.1 59.5 L 175.1 62.93333330154419 L 180.9 68.8 L 181.0 72.2 L 177.1388571739197 70.60228567123413 L 176.9 70.7 L 174.4 71.6 L 171.6 72.6 L 168.6 73.7 L 165.3 74.9 L 161.7 76.2 L 153.6 78.9 L 153.21754064559937 79.01898736953736 L 153.9 79.3 L 163.0 82.5 L 172.9 85.4 L 183.6 88.0 L 192.0 90.1 L 180.3 100.8 L 169.3 97.3 Z M 134.0 14.7 L 137.0 16.7 L 134.0 18.5 L 134.0 29.3 L 165.0 29.3 L 175.0 19.3 L 187.0 29.3 L 187.0 33.3 L 134.0 33.3 L 134.0 45.2 L 122.0 51.2 L 122.0 33.3 L 78.0 33.3 L 78.0 45.2 L 66.0 51.2 L 66.0 33.3 L 13.0 33.3 L 13.0 29.3 L 66.0 29.3 L 66.0 12.7 L 78.0 14.7 L 81.0 16.7 L 78.0 18.5 L 78.0 29.3 L 122.0 29.3 L 122.0 12.7 Z " />
</g>
</svg>
