<svg xmlns="http://www.w3.org/2000/svg" xmlns:xlink="http://www.w3.org/1999/xlink" version="1.1" baseProfile="full" viewBox="0 0 200 200" width="200" height="200">
<g fill="black">
<path d="M 36.4 24.6 L 77.3 24.6 L 83.3 19.6 L 94.3 28.6 L 89.3 32.6 L 89.3 69.0 L 77.3 75.0 L 77.3 67.0 L 36.4 67.0 L 36.4 181.2 L 24.4 187.2 L 24.4 18.6 Z M 139.5 173.2 L 160.8 173.2 L 161.7 173.0 L 162.3 172.8 L 162.6 172.6 L 162.8 172.5 L 162.9 172.3 L 163.1 172.0 L 163.3 171.4 L 163.5 170.5 L 163.5 67.0 L 122.6 67.0 L 122.6 70.0 L 110.6 76.0 L 110.6 18.6 L 122.6 24.6 L 163.5 24.6 L 169.5 19.6 L 180.5 28.6 L 175.5 32.6 L 175.5 169.2 L 175.4 171.8 L 175.0 174.3 L 174.1 176.7 L 172.9 179.0 L 171.3 181.0 L 169.3 182.6 L 167.0 183.8 L 164.6 184.7 L 162.1 185.1 L 159.5 185.2 L 159.5 179.2 L 139.5 176.2 Z M 98.5 167.9 L 116.5 167.9 L 117.7 167.8 L 118.7 167.7 L 119.2 167.5 L 119.6 167.3 L 119.9 167.0 L 120.1 166.6 L 120.3 166.0 L 120.4 165.1 L 120.5 163.9 L 120.5 140.8 L 76.62643680572509 140.8 L 69.9 148.4 L 61.3 156.4 L 51.7 163.5 L 41.1 169.7 L 40.1 168.2 L 49.3 160.5 L 57.6 152.5 L 65.0 144.1 L 67.41011238098145 140.8 L 45.6 140.8 L 45.6 136.8 L 70.3314606666565 136.8 L 71.5 135.2 L 77.0 125.9 L 77.8070707321167 124.2 L 42.7 124.2 L 42.7 120.2 L 79.70606060028076 120.2 L 81.7 116.0 L 84.6884614944458 107.6 L 58.4 107.6 L 58.4 103.6 L 85.93211011886596 103.6 L 88.3 94.7 L 89.04782609939575 90.4 L 51.3 90.4 L 51.3 86.4 L 89.74347829818726 86.4 L 90.3 83.2 L 91.3 71.1 L 91.36220836639404 71.10466566085816 L 91.5 68.9 L 103.3 72.0 L 106.1 74.2 L 102.76446285247803 75.86776857376098 L 101.5 85.0 L 101.18130083084107 86.4 L 138.5777777671814 86.4 L 144.8 79.4 L 152.8 86.4 L 152.8 90.4 L 100.27073173522949 90.4 L 98.7 97.3 L 96.63620691299438 103.6 L 126.81818180084228 103.6 L 135.0 94.6 L 145.0 103.6 L 145.0 107.6 L 95.3258620262146 107.6 L 94.9 108.9 L 90.1 119.9 L 89.93235292434693 120.2 L 141.01818180084229 120.2 L 149.2 111.2 L 159.2 120.2 L 159.2 124.2 L 123.5 124.2 L 132.5 125.7 L 135.5 127.7 L 132.5 129.5 L 132.5 136.8 L 138.11818180084228 136.8 L 146.3 127.8 L 156.3 136.8 L 156.3 140.8 L 132.5 140.8 L 132.5 163.9 L 132.4 166.4 L 131.9 168.9 L 131.1 171.3 L 129.9 173.6 L 128.3 175.6 L 126.2 177.3 L 124.0 178.5 L 121.6 179.3 L 119.1 179.7 L 116.5 179.9 L 116.5 173.9 L 98.5 170.9 Z M 90.8 159.7 L 89.9 158.0 L 88.9 156.3 L 87.6 154.5 L 86.2 152.7 L 84.6 150.9 L 82.9 149.1 L 81.0 147.1 L 78.7 145.6 L 79.5 144.0 L 82.1 145.1 L 84.9 145.8 L 87.5 146.7 L 89.9 147.7 L 92.3 148.9 L 94.5 150.1 L 96.6 151.5 L 98.6 153.0 L 100.5 154.7 L 102.3 156.4 L 103.0 160.9 L 100.4 164.7 L 95.9 165.5 L 92.1 162.9 L 91.6 161.3 Z M 87.6970588684082 124.2 L 84.4 130.1 L 79.65416669845581 136.8 L 120.5 136.8 L 120.5 124.2 Z M 122.6 47.3 L 122.6 63.0 L 163.5 63.0 L 163.5 47.3 Z M 36.4 47.3 L 36.4 63.0 L 77.3 63.0 L 77.3 47.3 Z M 122.6 28.6 L 122.6 43.3 L 163.5 43.3 L 163.5 28.6 Z M 36.4 28.6 L 36.4 43.3 L 77.3 43.3 L 77.3 28.6 Z " />
</g>
</svg>
