<svg xmlns="http://www.w3.org/2000/svg" xmlns:xlink="http://www.w3.org/1999/xlink" version="1.1" baseProfile="full" viewBox="0 0 200 200" width="200" height="200">
<g fill="black">
<path d="M 174.0 30.5 L 177.0 32.5 L 174.0 34.3 L 174.0 175.4 L 162.0 181.4 L 162.0 169.4 L 38.0 169.4 L 38.0 181.4 L 26.0 187.4 L 26.0 28.5 L 38.0 30.5 L 41.0 32.5 L 38.0 34.3 L 38.0 165.4 L 162.0 165.4 L 162.0 28.5 Z M 140.9 102.7 L 140.40813465118407 101.88022441864014 L 131.0 103.4 L 118.6 105.2 L 107.0 106.8 L 105.5 106.97889909744262 L 105.5 156.6 L 93.5 162.6 L 93.5 108.38039216995239 L 85.9 109.2 L 76.4 110.3 L 67.7 111.1 L 59.6 111.9 L 52.3 112.5 L 49.86543273925781 112.68443689346313 L 47.8 116.0 L 45.7 113.0 L 43.4 101.1 L 45.4 101.0 L 51.9 101.1 L 59.1 101.2 L 67.1 101.1 L 75.9 101.0 L 79.60793409347534 100.92110776901245 L 82.7 97.6 L 93.3 86.4 L 98.4 81.0 L 103.4 75.5 L 108.3 70.1 L 113.0 64.7 L 117.6 59.3 L 125.5912278175354 49.264504528045656 L 125.5 49.2 L 126.6 48.0 L 135.4 56.2 L 136.4 59.6 L 132.7324269294739 59.03089380264282 L 130.5 61.4 L 125.5 66.5 L 120.3 71.6 L 114.9 76.6 L 109.4 81.6 L 103.6 86.5 L 97.7 91.3 L 91.6 96.0 L 85.2 100.5 L 84.7131012916565 100.81248722076415 L 85.3 100.8 L 95.6 100.5 L 106.5 100.2 L 118.2 99.9 L 130.7 99.6 L 139.00226240158082 99.53710403442383 L 138.8 99.2 L 136.5 95.7 L 134.1 92.3 L 131.5 88.9 L 128.7 85.5 L 125.8 82.1 L 122.7 78.8 L 123.7 77.3 L 127.9 79.5 L 131.9 81.8 L 135.7 84.4 L 139.3 87.3 L 142.7 90.3 L 146.0 93.6 L 149.0 97.0 L 151.8 100.6 L 154.5 104.4 L 157.0 108.3 L 157.3 112.9 L 154.3 116.4 L 149.7 116.7 L 146.3 113.7 L 142.9 106.3 Z M 79.3 122.5 L 81.1 125.6 L 77.19414415359498 125.86936941146851 L 76.8 126.5 L 74.1 130.5 L 71.1 134.3 L 67.9 138.0 L 64.5 141.6 L 60.9 145.1 L 57.0 148.4 L 52.9 151.6 L 48.4 154.6 L 43.7 157.3 L 42.6 155.9 L 46.0 151.8 L 49.3 147.8 L 52.4 143.9 L 55.3 140.0 L 58.1 136.2 L 60.6 132.4 L 62.9 128.6 L 65.0 124.7 L 66.9 120.9 L 68.6 117.1 L 68.63992538452149 117.12014923095703 L 69.2 116.0 Z M 139.4 144.7 L 137.5 141.3 L 135.4 137.9 L 133.1 134.6 L 130.6 131.3 L 128.0 128.0 L 125.2 124.7 L 122.3 121.3 L 119.2 118.0 L 120.2 116.5 L 124.4 118.7 L 128.4 121.0 L 132.2 123.5 L 135.8 126.3 L 139.2 129.2 L 142.4 132.2 L 145.4 135.4 L 148.2 138.8 L 150.9 142.3 L 153.4 146.0 L 153.8 150.5 L 150.9 154.1 L 146.4 154.5 L 142.8 151.6 L 141.2 148.2 Z M 77.6 77.7 L 75.6 74.8 L 73.5 72.1 L 71.1 69.4 L 68.7 66.8 L 66.0 64.2 L 63.1 61.6 L 60.2 58.9 L 56.9 56.5 L 57.7 54.9 L 65.5 57.7 L 69.3 59.3 L 72.9 61.3 L 74.46738891601562 62.26809320449829 L 75.2 61.3 L 80.4 54.1 L 82.9 50.6 L 87.7 43.8 L 89.9 40.5 L 91.8505428314209 37.48552474975586 L 91.7 37.5 L 81.0 38.4 L 69.8 39.1 L 58.1 39.6 L 46.0 39.8 L 45.9 38.1 L 57.7 35.8 L 69.2 33.8 L 80.2 31.8 L 90.7 29.9 L 100.8 28.1 L 110.5 26.2 L 119.7 24.2 L 128.5 22.3 L 136.8 20.3 L 143.71542072296143 18.54926061630249 L 143.7 18.5 L 143.749125289917 18.540727806091308 L 144.7 18.3 L 144.98032598495485 19.561466789245607 L 155.4 28.2 L 155.7 31.2 L 151.32950105667115 29.104555320739745 L 147.3 30.0 L 139.1 31.5 L 130.5 32.8 L 121.4 34.1 L 112.0 35.3 L 104.54410543441773 36.20374479293823 L 105.9 37.3 L 107.2 40.6 L 103.20574769973754 40.39340076446533 L 103.2 40.4 L 97.6 46.6 L 91.4 52.6 L 88.2 55.5 L 84.8 58.3 L 81.2 61.1 L 77.5 63.7 L 77.09906215667725 63.97432594299316 L 79.5 65.7 L 82.7 68.2 L 85.6 70.9 L 88.4 73.8 L 91.0 76.8 L 91.8 81.3 L 89.3 85.1 L 84.8 86.0 L 81.0 83.5 L 79.4 80.5 Z " />
</g>
</svg>
