<svg xmlns="http://www.w3.org/2000/svg" xmlns:xlink="http://www.w3.org/1999/xlink" version="1.1" baseProfile="full" viewBox="0 0 200 200" width="200" height="200">
<g fill="black">
<path d="M 173.5 30.5 L 176.2 32.5 L 173.5 34.223404216766355 L 173.5 175.4 L 162.5 180.9 L 162.5 169.4 L 37.5 169.4 L 37.5 181.4 L 26.5 186.9 L 26.5 28.5 L 37.5 30.5 L 40.2 32.5 L 37.5 34.223404216766355 L 37.5 165.4 L 162.5 165.4 L 162.5 28.5 Z M 142.2 154.7 L 139.5 152.6 L 136.4 150.5 L 132.7 148.3 L 128.7 146.2 L 124.2 144.0 L 119.3 141.9 L 113.9 139.6 L 108.2 137.3 L 108.6 135.5 L 114.8 136.2 L 120.7 137.0 L 126.2 138.1 L 131.3 139.3 L 136.0 140.7 L 140.4 142.3 L 144.5 144.0 L 148.2 145.9 L 151.6 148.0 L 154.7 150.3 L 156.4 154.5 L 154.7 158.8 L 150.5 160.5 L 146.2 158.8 L 144.5 156.8 Z M 90.9 141.5 L 91.1 145.1 L 87.5 143.7 L 83.8 145.7 L 79.7 147.7 L 75.4 149.7 L 70.7 151.6 L 65.6 153.5 L 60.2 155.3 L 54.4 157.1 L 48.3 158.6 L 41.7 160.0 L 41.1 158.3 L 46.9 155.1 L 52.4 152.1 L 57.6 149.3 L 62.5 146.6 L 66.9 144.0 L 71.0 141.5 L 74.7 139.0 L 78.0 136.6 L 81.0 134.3 L 82.7209397315979 132.72247190475463 L 82.7 132.7 L 83.5 132.0 Z M 71.7 70.3 L 129.2 70.3 L 135.2 65.3 L 146.2 74.3 L 141.2 78.3 L 141.2 128.4 L 129.2 134.4 L 129.2 128.4 L 71.7 128.4 L 71.7 131.4 L 59.7 137.4 L 59.7 64.3 Z M 71.7 110.3 L 71.7 124.4 L 129.2 124.4 L 129.2 110.3 Z M 71.7 92.3 L 71.7 106.3 L 129.2 106.3 L 129.2 92.3 Z M 71.7 74.3 L 71.7 88.3 L 129.2 88.3 L 129.2 74.3 Z M 58.0 60.7 L 47.0 66.2 L 47.0 25.2 L 58.0 30.7 L 142.9 30.7 L 148.4 25.7 L 158.9 34.7 L 153.9 38.2 L 153.9 59.7 L 142.9 65.2 L 142.9 57.7 L 58.0 57.7 Z M 58.0 34.7 L 58.0 53.7 L 78.5 53.7 L 78.5 34.7 Z M 90.5 34.7 L 90.5 53.7 L 110.4 53.7 L 110.4 34.7 Z M 122.4 34.7 L 122.4 53.7 L 142.9 53.7 L 142.9 34.7 Z " />
</g>
</svg>
