<svg xmlns="http://www.w3.org/2000/svg" xmlns:xlink="http://www.w3.org/1999/xlink" version="1.1" baseProfile="full" viewBox="0 0 200 200" width="200" height="200">
<g fill="black">
<path d="M 41.5 41.0 L 99.0 41.0 L 99.0 12.0 L 111.0 14.0 L 114.0 16.0 L 111.0 17.8 L 111.0 41.0 L 167.8181818008423 41.0 L 176.0 32.0 L 186.0 41.0 L 186.0 45.0 L 41.5 45.0 L 41.5 104.0 L 40.9 115.3 L 39.8 126.1 L 38.2 136.3 L 35.9 145.9 L 33.2 154.8 L 29.8 163.2 L 25.9 170.9 L 21.4 177.9 L 16.3 184.1 L 10.6 189.5 L 9.3 188.4 L 13.5 182.0 L 17.2 175.3 L 20.5 168.2 L 23.4 160.6 L 25.7 152.6 L 27.6 144.0 L 29.1 134.8 L 30.0 125.1 L 30.5 114.8 L 30.5 35.5 Z M 91.7 139.6 L 90.4 141.8 L 88.8 143.8 L 87.0 145.5 L 84.9 146.9 L 82.6 148.0 L 80.2 148.7 L 77.8 149.1 L 75.2 149.2 L 75.2 143.2 L 67.2 140.2 L 67.2 137.2 L 76.5 137.2 L 77.5 137.0 L 78.4 136.7 L 79.6 136.1 L 80.0 135.7 L 80.5 135.1 L 80.9 134.3 L 81.3 133.4 L 81.7 132.1 L 82.4 129.5 L 82.9 126.8 L 83.0 124.0 L 82.7 121.0 L 81.9 117.7 L 80.7 114.3 L 79.0 110.6 L 76.9 106.8 L 74.3 102.7 L 71.1 98.7 L 71.425 98.35 L 70.3 97.6 L 72.4 93.1 L 74.3 88.7 L 76.1 84.5 L 77.9 80.5 L 79.5 76.7 L 80.9 72.9 L 82.2 69.4 L 83.3 65.9 L 84.05757579803466 63.4 L 62.3 63.4 L 62.3 179.5 L 51.3 185.0 L 51.3 53.9 L 62.3 59.4 L 84.7 59.4 L 90.7 54.4 L 101.7 63.4 L 96.7 66.4 L 94.46603775024414 67.33081760406495 L 93.0 70.1 L 91.1 73.5 L 88.9 77.0 L 86.6 80.5 L 84.1 84.1 L 81.3 87.7 L 78.4 91.3 L 75.1 94.9 L 72.72894439697265 97.55845632553101 L 76.6 100.6 L 80.5 103.8 L 83.9 107.3 L 86.8 110.8 L 89.2 114.5 L 91.1 118.3 L 92.6 122.3 L 93.4 126.4 L 93.7 130.6 L 93.3 134.9 L 92.6 137.3 Z M 175.3 174.2 L 173.8 176.2 L 172.1 178.0 L 170.2 179.5 L 168.1 180.8 L 165.8 181.7 L 163.4 182.4 L 160.9 182.8 L 158.4 182.9 L 158.4 176.9 L 138.4 173.9 L 138.4 170.9 L 158.4 170.9 L 159.7 170.8 L 160.9 170.6 L 161.9 170.4 L 162.7 170.0 L 163.4 169.6 L 164.1 169.1 L 164.7 168.4 L 165.3 167.6 L 165.9 166.6 L 166.5 165.4 L 167.2 163.3 L 167.9 160.9 L 168.5 158.2 L 169.1 155.1 L 169.6 151.7 L 170.1 148.0 L 170.5 144.0 L 170.8 139.6 L 171.1 135.0 L 171.2119999885559 132.2 L 166.0 132.2 L 163.1 138.9 L 159.7 145.3 L 156.0 151.3 L 151.8 157.0 L 147.2 162.4 L 142.2 167.4 L 136.7 172.0 L 130.9 176.1 L 124.6 179.8 L 117.9 183.0 L 116.9 181.5 L 122.4 176.7 L 127.6 171.9 L 132.3 167.1 L 136.7 162.1 L 140.6 157.0 L 144.2 151.6 L 147.4 146.1 L 150.2 140.4 L 152.6 134.4 L 153.28095235824586 132.2 L 145.1666666984558 132.2 L 144.5 133.2 L 140.6 138.9 L 136.4 144.3 L 131.9 149.4 L 127.1 154.2 L 121.9 158.8 L 116.4 163.0 L 110.6 166.9 L 104.5 170.4 L 98.0 173.5 L 91.1 176.2 L 90.3 174.6 L 96.1 170.2 L 101.5 165.9 L 106.7 161.6 L 111.6 157.1 L 116.1 152.5 L 120.4 147.8 L 124.3 142.9 L 127.8 137.9 L 131.1 132.6 L 131.3 132.2 L 121.8384614944458 132.2 L 120.7 133.4 L 116.7 136.9 L 112.5 140.1 L 108.1 142.9 L 103.5 145.3 L 98.6 147.2 L 93.5 148.6 L 92.8 147.0 L 96.8 143.9 L 100.6 140.8 L 104.3 137.6 L 107.7 134.3 L 110.8 130.8 L 113.8 127.2 L 116.5 123.4 L 119.0 119.3 L 121.13571424484253 115.4 L 94.7 115.4 L 94.7 111.4 L 171.21818180084227 111.4 L 179.4 102.4 L 189.4 111.4 L 189.4 115.4 L 134.5148148536682 115.4 L 134.1 116.1 L 131.1 120.9 L 127.9 125.4 L 125.50975608825684 128.2 L 171.3 128.2 L 177.3 123.2 L 188.3 132.2 L 183.3 135.2 L 183.11237783432006 135.2781759262085 L 183.1 135.6 L 182.8 140.4 L 182.5 145.0 L 182.0 149.4 L 181.5 153.4 L 180.9 157.2 L 180.2 160.7 L 179.5 164.0 L 178.6 167.0 L 177.6 169.8 L 176.6 172.1 Z M 119.8 55.9 L 165.2 55.9 L 171.2 50.9 L 182.2 59.9 L 177.2 63.9 L 177.2 98.4 L 165.2 104.4 L 165.2 98.4 L 119.8 98.4 L 107.8 104.4 L 107.8 49.9 Z M 119.8 79.1 L 119.8 94.4 L 165.2 94.4 L 165.2 79.1 Z M 119.8 59.9 L 119.8 75.1 L 165.2 75.1 L 165.2 59.9 Z " />
</g>
</svg>
