<svg xmlns="http://www.w3.org/2000/svg" xmlns:xlink="http://www.w3.org/1999/xlink" version="1.1" baseProfile="full" viewBox="0 0 200 200" width="200" height="200">
<g fill="black">
<path d="M 42.0 41.0 L 99.0 41.0 L 99.0 12.0 L 111.0 14.0 L 114.0 16.0 L 111.0 17.8 L 111.0 41.0 L 164.0 41.0 L 174.0 31.0 L 186.0 41.0 L 186.0 45.0 L 42.0 45.0 L 42.0 104.0 L 41.4 115.3 L 40.2 126.1 L 38.6 136.3 L 36.3 145.9 L 33.5 154.9 L 30.1 163.3 L 26.2 171.0 L 21.6 178.0 L 16.4 184.2 L 10.6 189.6 L 9.3 188.3 L 13.4 181.9 L 17.0 175.2 L 20.3 168.1 L 23.1 160.5 L 25.4 152.5 L 27.3 143.9 L 28.7 134.7 L 29.6 125.0 L 30.0 114.8 L 30.0 35.0 Z M 47.0 178.9 L 109.5 178.9 L 109.5 146.3 L 59.5 146.3 L 59.5 142.3 L 109.5 142.3 L 109.5 114.3 L 121.5 116.3 L 124.5 118.3 L 121.5 120.1 L 121.5 142.3 L 149.4 142.3 L 159.4 132.3 L 171.4 142.3 L 171.4 146.3 L 121.5 146.3 L 121.5 178.9 L 161.9 178.9 L 171.9 168.9 L 183.9 178.9 L 183.9 182.9 L 47.0 182.9 Z M 147.8 118.6 L 134.8 113.5 L 122.9 107.7 L 116.00419940948487 103.4311710357666 L 115.9 103.5 L 103.9 109.9 L 90.8 115.6 L 76.8 120.5 L 61.7 124.6 L 45.5 127.8 L 45.1 126.0 L 60.6 121.0 L 75.0 115.5 L 88.2 109.6 L 100.3 103.2 L 108.48792324066162 98.13837471008301 L 103.2 94.0 L 95.3 86.1 L 88.9 77.5 L 84.0 68.2 L 80.96938772201538 59.2 L 62.0 59.2 L 62.0 55.2 L 148.7 55.2 L 149.0579999923706 54.90166664123535 L 149.4 54.3 L 149.62938499450684 54.42551250457764 L 154.7 50.2 L 165.7 59.2 L 160.7 62.2 L 157.80741167068481 63.4052451133728 L 153.3 70.2 L 145.6 79.7 L 136.7 88.4 L 126.8 96.3 L 125.20333814620972 97.35467567443848 L 127.6 98.6 L 138.9 103.3 L 151.4 107.4 L 165.2 110.9 L 180.1 113.8 L 189.5 115.5 L 177.7 126.8 L 162.1 123.0 Z M 83.26666669845581 59.2 L 87.6 66.2 L 93.6 74.0 L 100.5 81.0 L 108.4 87.5 L 116.32384967803955 92.606480884552 L 121.1 89.0 L 129.8 81.1 L 137.4 72.7 L 144.0 63.8 L 146.61473684310914 59.2 Z " />
</g>
</svg>
