<svg xmlns="http://www.w3.org/2000/svg" xmlns:xlink="http://www.w3.org/1999/xlink" version="1.1" baseProfile="full" viewBox="0 0 200 200" width="200" height="200">
<g fill="black">
<path d="M 40.0 35.0 L 98.0 35.0 L 98.0 12.0 L 110.0 14.0 L 113.0 16.0 L 110.0 17.8 L 110.0 35.0 L 164.0 35.0 L 174.0 25.0 L 186.0 35.0 L 186.0 39.0 L 40.0 39.0 L 40.0 102.0 L 39.4 113.7 L 38.3 124.8 L 36.7 135.3 L 34.5 145.2 L 31.8 154.4 L 28.5 162.9 L 24.7 170.8 L 20.3 177.9 L 15.2 184.2 L 9.6 189.5 L 8.3 188.4 L 12.2 181.9 L 15.6 175.2 L 18.7 168.0 L 21.4 160.3 L 23.6 152.0 L 25.4 143.2 L 26.7 133.8 L 27.6 123.8 L 28.0 113.2 L 28.0 29.0 Z M 172.9 178.0 L 171.4 180.0 L 169.7 181.8 L 167.8 183.3 L 165.6 184.6 L 163.4 185.5 L 161.0 186.2 L 158.5 186.6 L 156.0 186.7 L 156.0 180.7 L 136.0 177.7 L 136.0 174.7 L 157.3 174.7 L 158.4 174.5 L 159.4 174.2 L 160.2 173.9 L 160.9 173.5 L 162.1 172.3 L 162.7 171.5 L 163.3 170.5 L 163.8 169.3 L 164.6 166.9 L 165.4 164.2 L 166.1 161.1 L 166.7 157.7 L 167.2 154.0 L 167.7 149.9 L 168.2 145.6 L 168.5 140.9 L 168.8 135.9 L 168.9185185432434 132.7 L 163.45915489196778 132.7 L 160.6 139.7 L 157.2 146.6 L 153.4 153.0 L 149.2 159.1 L 144.5 164.9 L 139.4 170.2 L 133.9 175.2 L 128.0 179.7 L 121.6 183.8 L 114.8 187.2 L 113.8 185.7 L 119.4 180.7 L 124.6 175.6 L 129.4 170.5 L 133.8 165.2 L 137.8 159.7 L 141.4 154.0 L 144.7 148.0 L 147.5 141.9 L 150.0 135.5 L 150.875 132.7 L 142.25862064361573 132.7 L 141.7 133.6 L 137.8 139.7 L 133.6 145.4 L 129.1 150.9 L 124.2 156.1 L 118.9 161.0 L 113.4 165.5 L 107.5 169.8 L 101.2 173.6 L 94.6 177.0 L 87.7 179.9 L 86.8 178.3 L 92.6 173.7 L 98.2 169.2 L 103.4 164.6 L 108.4 159.8 L 113.0 154.9 L 117.3 149.9 L 121.2 144.7 L 124.8 139.3 L 128.2 133.7 L 128.7 132.7 L 118.69268293380738 132.7 L 117.7 133.8 L 113.7 137.6 L 109.4 141.0 L 105.0 144.0 L 100.2 146.7 L 95.3 148.8 L 90.1 150.4 L 89.3 148.8 L 93.4 145.5 L 97.3 142.2 L 100.9 138.8 L 104.4 135.3 L 107.6 131.6 L 110.6 127.8 L 113.3 123.7 L 115.9 119.4 L 118.2 114.8 L 118.24285717010498 114.7 L 91.4 114.7 L 91.4 110.7 L 173.0777777671814 110.7 L 179.3 103.7 L 187.3 110.7 L 187.3 114.7 L 131.54615383148194 114.7 L 131.2 115.3 L 128.2 120.4 L 124.9 125.2 L 122.1777777671814 128.7 L 169.0 128.7 L 175.0 123.7 L 186.0 132.7 L 181.0 135.7 L 180.8227692604065 135.77384614944458 L 180.8 136.4 L 180.5 141.6 L 180.1 146.6 L 179.7 151.2 L 179.1 155.6 L 178.5 159.7 L 177.8 163.5 L 177.0 167.1 L 176.1 170.4 L 175.1 173.4 L 174.1 175.8 Z M 45.2 150.3 L 49.3 149.2 L 53.6 147.9 L 58.1 146.5 L 63.0 145.0 L 65.1 144.2859999656677 L 65.1 90.5 L 46.2 90.5 L 46.2 86.5 L 65.1 86.5 L 65.1 47.0 L 77.1 49.0 L 80.1 51.0 L 77.1 52.8 L 77.1 86.5 L 79.11818180084228 86.5 L 87.3 77.5 L 97.3 86.5 L 97.3 90.5 L 77.1 90.5 L 77.1 140.244642829895 L 79.0 139.6 L 84.9 137.6 L 91.1 135.6 L 97.6 133.6 L 98.4 135.3 L 92.7 139.0 L 87.1 142.5 L 81.7 145.6 L 76.4 148.5 L 71.3 151.1 L 66.5 153.6 L 61.8 155.9 L 57.4 157.9 L 53.1 159.9 L 52.99093828201294 159.94635124206542 L 52.0 163.8 L 49.1 161.6 L 43.3 150.9 Z M 116.6 51.1 L 162.8 51.1 L 168.8 46.1 L 179.8 55.1 L 174.8 59.1 L 174.8 96.5 L 162.8 102.5 L 162.8 96.5 L 116.6 96.5 L 104.6 102.5 L 104.6 45.1 Z M 116.6 75.8 L 116.6 92.5 L 162.8 92.5 L 162.8 75.8 Z M 116.6 55.1 L 116.6 71.8 L 162.8 71.8 L 162.8 55.1 Z " />
</g>
</svg>
