<svg xmlns="http://www.w3.org/2000/svg" xmlns:xlink="http://www.w3.org/1999/xlink" version="1.1" baseProfile="full" viewBox="0 0 200 200" width="200" height="200">
<g fill="black">
<path d="M 56.5 38.0 L 56.5 38.686046504974364 L 63.7 36.9 L 75.9 33.9 L 87.6 31.1 L 98.5 28.3 L 108.8 25.6 L 118.4 23.0 L 127.3 20.4 L 135.6 17.8 L 143.2 15.2 L 149.1290719985962 12.96585693359375 L 149.1 12.9 L 149.16218042373657 12.953381252288818 L 150.1 12.6 L 150.66112480163574 14.240210914611817 L 159.7 22.0 L 159.9 25.1 L 155.93052463531495 23.322622966766357 L 154.0 24.0 L 146.6 26.0 L 138.5 28.1 L 129.9 30.1 L 120.6 32.0 L 110.6 33.9 L 100.1 35.8 L 88.8 37.5 L 76.9 39.2 L 64.3 40.6 L 56.5 41.30909090042114 L 56.5 52.0 L 165.0 52.0 L 175.0 42.0 L 187.0 52.0 L 187.0 56.0 L 120.0 56.0 L 120.0 73.9 L 148.8 73.9 L 154.8 68.9 L 165.8 77.9 L 160.8 81.9 L 160.8 128.5 L 148.8 134.5 L 148.8 128.5 L 110.25714282989502 128.5 L 114.5 134.0 L 120.0 140.5 L 125.8 146.4 L 132.1 151.8 L 133.94812831878662 153.11609144210814 L 136.1 151.6 L 140.3 148.5 L 144.4 145.6 L 148.3 142.9 L 152.0 140.3 L 155.5 137.7 L 158.8 135.2 L 161.9 132.8 L 164.9 130.5 L 166.83981199264525 128.84756755828857 L 166.8 128.8 L 166.84092302322387 128.84662113189697 L 167.6 128.2 L 172.9776762008667 135.8378589630127 L 174.7 137.8 L 174.9 141.4 L 171.2475609779358 139.87261638641357 L 171.2 139.9 L 167.7 141.8 L 164.0 143.6 L 160.1 145.5 L 156.1 147.4 L 151.8 149.3 L 147.3 151.1 L 142.7 152.9 L 137.7 154.6 L 136.5637681007385 154.97874393463135 L 138.7 156.5 L 145.8 160.7 L 153.3 164.4 L 161.3 167.4 L 169.9 170.0 L 178.9 172.0 L 187.8 174.0 L 176.1 184.9 L 166.3 182.0 L 157.1 178.5 L 148.4 174.3 L 140.5 169.5 L 133.1 164.0 L 126.5 158.0 L 120.5 151.3 L 115.3 144.1 L 110.9 136.2 L 107.78333330154419 128.5 L 79.3 128.5 L 79.3 169.23239440917968 L 87.9 167.9 L 95.1 166.7 L 102.4 165.4 L 109.7 164.2 L 117.1 163.1 L 124.6 162.1 L 125.1 163.8 L 118.1 166.7 L 111.0 169.4 L 103.9 171.8 L 96.9 174.0 L 89.8 176.1 L 82.7 178.1 L 75.7 180.0 L 68.7 181.7 L 61.7 183.3 L 58.803829193115234 183.97157583236694 L 57.2 187.5 L 54.8 184.9 L 50.8 173.4 L 52.7 173.0 L 66.7 171.2 L 68.3 170.948571395874 L 68.3 68.4 L 79.3 73.9 L 108.0 73.9 L 108.0 56.0 L 56.5 56.0 L 56.5 90.0 L 55.8 103.1 L 54.3 115.6 L 52.0 127.3 L 49.0 138.3 L 45.1 148.6 L 40.4 158.1 L 34.9 166.8 L 28.6 174.7 L 21.4 181.6 L 13.5 187.6 L 12.4 186.3 L 18.9 179.2 L 24.7 171.6 L 29.8 163.6 L 34.2 155.0 L 37.8 145.8 L 40.8 136.0 L 43.0 125.5 L 44.6 114.3 L 45.4 102.5 L 45.5 90.0 L 45.5 32.5 Z M 79.3 102.8 L 79.3 124.5 L 148.8 124.5 L 148.8 102.8 Z M 79.3 77.9 L 79.3 98.8 L 148.8 98.8 L 148.8 77.9 Z " />
</g>
</svg>
