<svg xmlns="http://www.w3.org/2000/svg" xmlns:xlink="http://www.w3.org/1999/xlink" version="1.1" baseProfile="full" viewBox="0 0 200 200" width="200" height="200">
<g fill="black">
<path d="M 57.0 38.0 L 57.0 38.562015533447266 L 63.7 36.9 L 75.9 33.9 L 87.6 31.1 L 98.5 28.3 L 108.8 25.6 L 118.4 23.0 L 127.3 20.4 L 135.6 17.8 L 143.2 15.2 L 149.1290719985962 12.96585693359375 L 149.1 12.9 L 149.16218042373657 12.953381252288818 L 150.1 12.6 L 150.66112480163574 14.240210914611817 L 159.7 22.0 L 159.9 25.1 L 155.93052463531495 23.322622966766357 L 154.0 24.0 L 146.6 26.0 L 138.5 28.1 L 129.9 30.1 L 120.6 32.0 L 110.6 33.9 L 100.1 35.8 L 88.8 37.5 L 76.9 39.2 L 64.3 40.6 L 57.0 41.26363639831543 L 57.0 52.0 L 165.0 52.0 L 175.0 42.0 L 187.0 52.0 L 187.0 56.0 L 128.0 56.0 L 128.0 74.0 L 157.0 74.0 L 163.0 69.0 L 174.0 78.0 L 169.0 82.0 L 169.0 149.0 L 157.0 155.0 L 157.0 143.0 L 141.0 143.0 L 141.0 170.2 L 141.2 171.1 L 141.5 172.0 L 141.9 172.4 L 142.8 172.7 L 143.7 172.9 L 145.0 173.0 L 175.0 173.0 L 181.0 148.0 L 183.0 148.0 L 181.0 173.0 L 184.6 175.4 L 187.0 179.0 L 184.6 182.6 L 181.0 185.0 L 145.0 185.0 L 142.4 184.8 L 139.9 184.4 L 137.5 183.6 L 135.2 182.3 L 133.2 180.7 L 131.6 178.7 L 130.3 176.4 L 129.5 174.0 L 129.1 171.5 L 129.0 169.0 L 129.0 143.0 L 109.33555555343628 143.0 L 112.6 144.3 L 115.1 146.9 L 111.17129373550415 148.1627984046936 L 109.9 151.6 L 106.1 158.4 L 101.3 164.5 L 95.3 169.8 L 88.5 174.5 L 80.7 178.5 L 71.9 181.8 L 62.3 184.6 L 51.7 186.6 L 40.1 187.8 L 39.8 186.1 L 50.8 182.9 L 60.7 179.4 L 69.5 175.7 L 77.2 171.7 L 83.8 167.4 L 89.3 162.8 L 93.7 157.9 L 97.0 152.8 L 99.4 147.3 L 100.53157892227173 143.0 L 85.0 143.0 L 85.0 155.0 L 73.0 161.0 L 73.0 68.0 L 85.0 74.0 L 116.0 74.0 L 116.0 56.0 L 57.0 56.0 L 57.0 90.0 L 56.3 103.1 L 54.8 115.6 L 52.4 127.4 L 49.3 138.5 L 45.4 148.7 L 40.7 158.3 L 35.1 167.0 L 28.7 174.8 L 21.5 181.7 L 13.5 187.6 L 12.4 186.3 L 18.8 179.1 L 24.5 171.5 L 29.6 163.4 L 33.9 154.8 L 37.5 145.7 L 40.4 135.8 L 42.6 125.4 L 44.1 114.3 L 44.9 102.5 L 45.0 90.0 L 45.0 32.0 Z M 85.0 122.0 L 85.0 139.0 L 157.0 139.0 L 157.0 122.0 Z M 85.0 99.0 L 85.0 118.0 L 157.0 118.0 L 157.0 99.0 Z M 85.0 78.0 L 85.0 95.0 L 157.0 95.0 L 157.0 78.0 Z " />
</g>
</svg>
