<svg xmlns="http://www.w3.org/2000/svg" xmlns:xlink="http://www.w3.org/1999/xlink" version="1.1" baseProfile="full" viewBox="0 0 200 200" width="200" height="200">
<g fill="black">
<path d="M 81.5 93.0 L 111.6 93.0 L 111.6 71.5 L 89.4 71.5 L 89.4 67.5 L 111.6 67.5 L 111.6 47.2 L 123.6 49.2 L 126.6 51.2 L 123.6 53.0 L 123.6 67.5 L 125.6777777671814 67.5 L 131.9 60.5 L 139.1428189277649 66.83746652603149 L 140.6 64.4 L 145.7 54.7 L 145.75743036270143 54.73088235855103 L 146.3 53.7 L 156.3 60.4 L 158.0 63.6 L 154.24282636642457 63.79433660507202 L 150.3 70.3 L 144.0 79.6 L 137.4 88.4 L 133.4731707572937 93.0 L 144.11818180084228 93.0 L 152.3 84.0 L 162.3 93.0 L 162.3 97.0 L 130.01578950881958 97.0 L 123.1 104.2 L 115.4 111.2 L 111.4615385055542 114.4 L 139.6 114.4 L 145.6 109.4 L 156.6 118.4 L 151.6 122.4 L 151.6 169.6 L 139.6 175.6 L 139.6 163.6 L 107.1 163.6 L 107.1 175.6 L 95.1 181.6 L 95.1 125.68620691299438 L 90.3 128.5 L 81.2 132.7 L 80.4 131.2 L 88.3 125.3 L 95.1 119.7526315689087 L 95.1 108.4 L 103.3009614944458 112.5004807472229 L 110.2 105.7 L 116.9 98.4 L 118.04871797561646 97.0 L 81.5 97.0 Z M 48.9 132.8 L 66.3 132.8 L 72.3 127.8 L 83.3 136.8 L 78.3 140.8 L 78.3 167.8 L 66.3 173.8 L 66.3 163.8 L 48.9 163.8 L 48.9 170.8 L 36.9 176.8 L 36.9 126.8 Z M 171.1 179.9 L 169.5 181.8 L 167.7 183.4 L 165.7 184.8 L 163.6 186.0 L 161.3 186.9 L 158.9 187.5 L 156.5 187.8 L 154.0 188.0 L 154.0 182.0 L 134.0 179.0 L 134.0 176.0 L 154.0 176.0 L 155.3 175.9 L 156.5 175.7 L 157.6 175.4 L 158.6 175.1 L 160.2 174.1 L 161.0 173.4 L 161.7 172.5 L 162.4 171.5 L 163.1 170.3 L 164.9 165.7 L 166.6 159.0 L 168.2 150.3 L 169.5 139.7 L 170.6 127.3 L 171.4 113.1 L 171.9 97.0 L 172.2 79.1 L 172.2 59.5 L 172.09216442108155 47.96159811019898 L 172.0 48.0 L 172.0 40.0 L 49.48985509872436 40.0 L 46.4 45.2 L 41.9 51.8 L 37.1 58.0 L 31.8 63.8 L 26.2 69.2 L 20.1 74.2 L 13.5 78.6 L 12.4 77.3 L 17.5 71.4 L 22.3 65.5 L 26.8 59.6 L 31.0 53.4 L 34.8 47.1 L 38.3 40.6 L 41.5 33.8 L 44.3 26.9 L 46.8 19.6 L 48.6420654296875 13.108912181854247 L 48.6 13.1 L 49.4 10.6 L 60.4 15.6 L 62.7 18.4 L 59.035888481140134 19.31602783203125 L 57.5 23.5 L 54.2 31.1 L 51.68194446563721 36.0 L 172.0 36.0 L 178.0 31.0 L 189.0 40.0 L 184.0 43.0 L 183.97238206863403 43.011507511138916 L 184.2 59.4 L 184.2 79.2 L 183.9 97.3 L 183.4 113.6 L 182.6 128.1 L 181.4 141.0 L 180.1 152.1 L 178.4 161.5 L 176.3 169.3 L 173.8 175.7 L 172.6 177.9 Z M 48.9 136.8 L 48.9 159.8 L 66.3 159.8 L 66.3 136.8 Z M 107.1 141.0 L 107.1 159.6 L 139.6 159.6 L 139.6 141.0 Z M 107.1 118.4 L 107.1 137.0 L 139.6 137.0 L 139.6 118.4 Z M 76.2 115.1 L 76.2 119.1 L 39.0 119.1 L 39.0 115.1 L 58.018181800842285 115.1 L 66.2 106.1 Z M 76.2 96.6 L 76.2 100.6 L 39.0 100.6 L 39.0 96.6 L 58.018181800842285 96.6 L 66.2 87.6 Z M 123.6 71.5 L 123.6 90.1967212677002 L 129.4 82.4 L 135.1 73.6 L 136.35543479919434 71.5 Z M 82.1 76.7 L 82.1 80.7 L 36.4 80.7 L 36.4 76.7 L 63.918181800842284 76.7 L 72.1 67.7 Z M 76.2 58.3 L 76.2 62.3 L 39.0 62.3 L 39.0 58.3 L 58.018181800842285 58.3 L 66.2 49.3 Z " />
</g>
</svg>
