<svg xmlns="http://www.w3.org/2000/svg" xmlns:xlink="http://www.w3.org/1999/xlink" version="1.1" baseProfile="full" viewBox="0 0 200 200" width="200" height="200">
<g fill="black">
<path d="M 165.1 177.9 L 159.2 170.4 L 154.4 161.3 L 150.5 150.7 L 147.4 138.5 L 145.1 124.8 L 143.6 109.4 L 142.9 92.4 L 142.98817205429077 76.0 L 36.0 76.0 L 36.0 72.0 L 143.0 72.0 L 149.0 67.0 L 160.0 76.0 L 155.0 79.0 L 154.9 79.04166669845581 L 154.9 92.2 L 155.6 108.6 L 157.0 123.2 L 159.1 136.1 L 161.9 147.2 L 165.4 156.5 L 169.3 163.9 L 173.8 169.6 L 177.06425704956055 172.38821954727172 L 182.0 151.0 L 184.0 151.0 L 182.12097902297972 175.42727270126343 L 183.9 176.3 L 187.3 179.3 L 187.6 183.9 L 184.6 187.3 L 180.0 187.6 L 172.0 183.7 Z M 20.8 182.3 L 42.3 182.3 L 42.3 155.4 L 54.3 157.4 L 57.3 159.4 L 54.3 161.2 L 54.3 182.3 L 76.9 182.3 L 76.9 145.8 L 26.5 145.8 L 26.5 141.8 L 114.4 141.8 L 124.4 131.8 L 136.4 141.8 L 136.4 145.8 L 88.9 145.8 L 88.9 160.9 L 110.51818180084229 160.9 L 118.7 151.9 L 128.7 160.9 L 128.7 164.9 L 88.9 164.9 L 88.9 182.3 L 120.1 182.3 L 130.1 172.3 L 142.1 182.3 L 142.1 186.3 L 20.8 186.3 Z M 136.4 91.3 L 136.4 95.3 L 90.4 95.3 L 94.6 100.2 L 95.1 103.8 L 91.49344263076782 102.68524589538575 L 89.1 104.6 L 83.1 108.8 L 82.53999996185303 109.17333335876465 L 87.5 110.0 L 90.5 112.0 L 87.5 113.8 L 87.5 133.2 L 75.5 139.2 L 75.5 113.7761194229126 L 70.1 117.0 L 63.0 120.9 L 55.5 124.6 L 47.5 128.2 L 39.2 131.6 L 30.4 134.8 L 21.2 137.7 L 20.5 136.0 L 28.9 131.3 L 36.9 126.8 L 44.6 122.3 L 51.8 117.9 L 58.7 113.5 L 65.1 109.1 L 71.1 104.7 L 76.7 100.3 L 81.8 95.8 L 82.33333330154419 95.3 L 26.5 95.3 L 26.5 91.3 L 86.5777777671814 91.3 L 86.8 91.1 L 86.9714285850525 91.3 L 114.4 91.3 L 124.4 81.3 Z M 126.2 131.8 L 123.6 129.6 L 120.6 127.4 L 117.2 125.1 L 113.4 122.8 L 109.1 120.4 L 104.5 117.9 L 99.5 115.3 L 94.1 112.6 L 94.7 110.9 L 100.6 112.0 L 106.3 113.2 L 111.5 114.6 L 116.4 116.1 L 120.9 117.7 L 125.1 119.5 L 128.9 121.3 L 132.5 123.2 L 135.7 125.3 L 138.6 127.5 L 140.3 131.7 L 138.6 135.9 L 134.3 137.6 L 130.1 135.9 L 128.4 133.9 Z M 64.3 17.8 L 66.6 20.6 L 62.84699478149414 21.455948543548583 L 61.2 25.6 L 57.74666662216187 33.0 L 156.0 33.0 L 166.0 23.0 L 178.0 33.0 L 178.0 37.0 L 55.53333330154419 37.0 L 53.7 40.3 L 49.3 47.0 L 44.6 53.4 L 39.4 59.4 L 33.8 65.0 L 27.8 70.1 L 21.4 74.7 L 14.5 78.7 L 13.4 77.2 L 19.0 71.7 L 24.1 66.1 L 29.0 60.5 L 33.5 54.6 L 37.7 48.5 L 41.5 42.1 L 44.9 35.5 L 47.9 28.6 L 50.6 21.5 L 52.9 14.0 L 52.91807231903076 14.006024074554443 L 53.4 12.5 Z M 166.0 53.0 L 166.0 57.0 L 52.0 57.0 L 52.0 53.0 L 147.8181818008423 53.0 L 156.0 44.0 Z " />
</g>
</svg>
