<svg xmlns="http://www.w3.org/2000/svg" xmlns:xlink="http://www.w3.org/1999/xlink" version="1.1" baseProfile="full" viewBox="0 0 200 200" width="200" height="200">
<g fill="black">
<path d="M 132.8 184.8 L 113.3 182.9 L 95.9 179.4 L 80.5 174.0 L 67.4 166.9 L 57.07986478805542 158.56814775466918 L 51.1 165.1 L 44.1 171.3 L 36.7 176.7 L 28.8 181.1 L 20.6 184.5 L 12.1 186.8 L 11.5 185.1 L 19.1 181.0 L 26.1 176.5 L 32.8 171.4 L 39.0 165.7 L 44.9 159.3 L 50.3 152.3 L 50.96498317718506 151.2626262664795 L 48.0 147.6 L 42.0 135.6 L 40.539569759368895 129.62551279067992 L 40.4 129.9 L 37.1 135.5 L 33.6 140.7 L 29.7 145.6 L 25.6 150.1 L 21.1 154.1 L 16.3 157.6 L 15.1 156.3 L 18.3 151.5 L 21.4 146.7 L 24.3 141.8 L 27.1 136.7 L 29.6 131.4 L 32.0 125.9 L 34.1 120.2 L 36.0 114.2 L 37.7 107.9 L 39.2 101.4 L 39.22101449966431 101.40543479919434 L 39.6 99.7 L 50.8 104.4 L 53.2 107.1 L 49.58636360168457 108.1512396812439 L 48.6 111.2 L 46.40303030014038 117.0 L 67.8 117.0 L 73.8 112.0 L 84.8 121.0 L 79.8 124.0 L 77.66823530197144 124.88823528289795 L 74.6 131.6 L 69.4 141.2 L 63.8 150.0 L 61.516872024536134 152.94597158432006 L 71.7 159.8 L 84.0 165.4 L 98.3 169.4 L 114.7 172.0 L 133.2 173.0 L 153.8 172.5 L 176.5 170.4 L 187.0 169.3 L 178.0 183.5 L 154.3 185.0 Z M 44.70645160675049 121.0 L 43.4 124.0 L 42.374952125549314 126.01592750549317 L 45.8 133.9 L 52.8 144.2 L 54.43311986923218 145.85233306884766 L 55.3 144.5 L 60.0 136.0 L 64.3 126.8 L 66.56199998855591 121.0 Z M 170.6 120.4 L 167.9 117.3 L 165.3 114.0 L 165.0129630088806 113.60962963104248 L 161.9 116.1 L 161.9 136.1 L 149.9 142.1 L 149.9 134.1 L 129.0 134.1 L 129.0 151.5 L 129.1 152.4 L 129.2 153.0 L 129.4 153.4 L 129.5 153.7 L 129.7 153.9 L 130.7 154.4 L 131.7 154.6 L 133.0 154.7 L 164.3 154.7 L 169.8 133.7 L 171.8 133.7 L 169.8 154.7 L 173.1 156.9 L 175.3 160.2 L 173.1 163.5 L 169.8 165.7 L 133.0 165.7 L 130.5 165.6 L 128.0 165.3 L 125.6 164.5 L 123.4 163.4 L 121.4 161.8 L 119.7 159.8 L 118.5 157.6 L 117.6 155.3 L 117.2 152.8 L 117.0 150.2 L 117.0 124.1 L 129.0 130.1 L 149.9 130.1 L 149.9 112.1 L 123.0 112.1 L 123.0 110.64705886840821 L 120.1 114.4 L 114.7 120.7 L 108.8 126.8 L 102.5 132.6 L 95.8 138.0 L 94.5 136.7 L 99.8 130.0 L 104.8 123.3 L 109.5 116.7 L 113.9 109.9 L 118.0 103.2 L 121.8 96.3 L 124.37428569793701 91.0 L 97.7 91.0 L 97.7 87.0 L 126.20422534942627 87.0 L 128.3 82.2 L 131.0 75.0 L 133.1843719482422 68.62163381576538 L 133.1 68.6 L 133.625 67.2 L 114.6 67.2 L 114.6 70.2 L 103.6 75.7 L 103.6 35.7 L 114.6 41.2 L 124.7 41.2 L 124.7 26.7 L 97.7 26.7 L 97.7 22.7 L 161.7 22.7 L 171.7 12.7 L 183.7 22.7 L 183.7 26.7 L 155.8 26.7 L 155.8 41.2 L 165.9 41.2 L 171.4 36.2 L 181.9 45.2 L 176.9 48.7 L 176.9 69.2 L 165.9 74.7 L 165.9 67.2 L 136.0 67.2 L 144.8 71.6 L 147.0 74.5 L 143.26831464767457 75.285618019104 L 141.6 79.3 L 138.1 86.7 L 137.9333333015442 87.0 L 164.51818180084229 87.0 L 172.7 78.0 L 182.7 87.0 L 182.7 91.0 L 155.20285711288452 91.0 L 156.9 92.8 L 160.2 96.0 L 163.3 99.1 L 166.4 102.0 L 169.4 104.7 L 172.4 107.2 L 175.4 109.5 L 178.3 111.7 L 181.2 113.6 L 184.0 115.3 L 187.2 117.6 L 176.2 126.0 L 173.4 123.3 Z M 135.7111110687256 91.0 L 134.1 93.9 L 129.8 101.0 L 125.2 107.8 L 124.96818180084229 108.1 L 149.9 108.1 L 155.9 103.1 L 160.25829381942748 106.66587677001954 L 158.1 103.1 L 155.9 99.1 L 152.40227270126343 91.0 Z M 71.5 104.9 L 69.1 104.6 L 66.8 103.9 L 64.6 102.8 L 62.6 101.3 L 60.9 99.5 L 59.6 97.3 L 58.7 95.0 L 58.2 92.5 L 58.0 90.0 L 58.0 70.0 L 46.03913040161133 70.0 L 44.8 75.7 L 42.9 82.3 L 40.6 88.5 L 38.0 94.3 L 35.0 99.7 L 31.6 104.7 L 27.9 109.2 L 23.7 113.3 L 19.2 116.8 L 14.3 119.7 L 13.2 118.2 L 16.6 114.0 L 19.7 109.7 L 22.6 105.2 L 25.2 100.6 L 27.5 95.7 L 29.4 90.6 L 31.1 85.2 L 32.5 79.5 L 33.6 73.4 L 33.977777767181394 70.0 L 13.7 70.0 L 13.7 66.0 L 46.2 66.0 L 46.2 41.0 L 18.7 41.0 L 18.7 37.0 L 46.2 37.0 L 46.2 13.0 L 58.2 15.0 L 61.2 17.0 L 58.2 18.8 L 58.2 37.0 L 62.7 37.0 L 72.7 27.0 L 84.7 37.0 L 84.7 41.0 L 58.2 41.0 L 58.2 66.0 L 73.5 66.0 L 83.5 56.0 L 95.5 66.0 L 95.5 70.0 L 70.0 70.0 L 70.0 90.0 L 69.9 91.2 L 70.0 92.1 L 70.1 92.8 L 70.2 93.2 L 70.4 93.6 L 70.6 93.9 L 71.0 94.2 L 71.6 94.5 L 72.6 94.8 L 74.0 95.0 L 87.5 95.0 L 92.5 78.0 L 94.5 78.0 L 92.5 95.0 L 95.5 97.0 L 97.5 100.0 L 95.5 103.0 L 92.5 105.0 L 74.0 105.0 Z M 114.6 45.2 L 114.6 63.2 L 124.7 63.2 L 124.7 45.2 Z M 134.7 45.2 L 134.7 63.2 L 145.8 63.2 L 145.8 45.2 Z M 155.8 45.2 L 155.8 63.2 L 165.9 63.2 L 165.9 45.2 Z M 134.7 26.7 L 134.7 41.2 L 145.8 41.2 L 145.8 26.7 Z " />
</g>
</svg>
