<svg xmlns="http://www.w3.org/2000/svg" xmlns:xlink="http://www.w3.org/1999/xlink" version="1.1" baseProfile="full" viewBox="0 0 200 200" width="200" height="200">
<g fill="black">
<path d="M 130.2 183.7 L 112.0 182.5 L 97.0 180.6 L 84.7 177.7 L 74.9 173.9 L 67.0 169.2 L 61.0 163.7 L 56.3 157.3 L 54.15256481170654 153.12443151474 L 52.0 155.4 L 48.6 158.9 L 45.0 162.3 L 37.8 168.7 L 34.3 171.8 L 30.7 174.8 L 27.2 177.7 L 23.444505500793458 180.70439558029176 L 23.5 184.7 L 20.2 183.3 L 11.7 174.6 L 13.4 173.4 L 17.2 171.2 L 28.9 164.3 L 41.2 157.1 L 44.0 155.60232553482055 L 44.0 95.0 L 14.0 95.0 L 14.0 91.0 L 44.0 91.0 L 50.0 86.0 L 61.0 95.0 L 56.0 99.0 L 56.0 151.03207550048828 L 59.6 154.7 L 65.0 159.3 L 70.9 163.1 L 78.1 166.2 L 87.1 168.7 L 98.4 170.4 L 112.7 171.5 L 130.4 171.9 L 151.9 171.5 L 177.7 170.4 L 189.0 169.9 L 178.2 183.5 L 152.1 184.0 Z M 100.3 140.7 L 100.3 154.6 L 148.4 154.6 L 148.4 140.7 Z M 100.3 122.7 L 100.3 136.7 L 148.4 136.7 L 148.4 122.7 Z M 169.5 128.6 L 165.9 125.8 L 163.787931060791 123.98965520858765 L 160.4 126.7 L 160.4 160.6 L 148.4 166.6 L 148.4 158.6 L 100.3 158.6 L 100.3 161.6 L 88.3 167.6 L 88.3 123.29242420196533 L 85.2 125.5 L 78.3 129.8 L 70.9 133.7 L 63.1 137.2 L 62.2 135.6 L 68.9 130.5 L 75.2 125.4 L 81.2 120.3 L 86.8 115.0 L 88.3 113.47115383148193 L 88.3 112.7 L 88.80759496688843 112.95379743576049 L 92.0 109.7 L 96.9 104.1 L 99.29298248291016 101.0 L 64.1 101.0 L 64.1 97.0 L 102.28965520858765 97.0 L 105.4 92.6 L 109.1 86.5 L 111.33548383712768 82.3 L 93.5 82.3 L 81.5 88.3 L 81.5 40.0 L 93.5 46.0 L 154.5 46.0 L 160.5 41.0 L 171.5 50.0 L 166.5 54.0 L 166.5 82.3 L 154.5 88.3 L 154.5 82.3 L 117.31176471710205 82.3 L 122.9 86.1 L 124.6 89.3 L 120.7479338645935 89.43057851791382 L 118.7 92.6 L 115.43548383712769 97.0 L 164.9181818008423 97.0 L 173.1 88.0 L 183.1 97.0 L 183.1 101.0 L 146.4192307472229 101.0 L 149.1 102.7 L 156.9 107.7 L 160.7 110.1 L 164.5 112.4 L 168.2 114.6 L 172.0 116.7 L 175.8 118.7 L 179.6 120.6 L 183.3 122.3 L 188.2 125.0 L 177.0 133.9 L 173.2 131.3 Z M 112.26666669845581 101.0 L 109.1 104.8 L 103.7 110.4 L 97.9 115.8 L 96.61180124282836 116.85590057373047 L 100.3 118.7 L 148.4 118.7 L 153.68000001907347 114.3 L 152.4 112.9 L 149.3 109.3 L 146.4 105.4 L 143.7 101.4 L 144.1 101.0 Z M 93.5 65.6 L 93.5 78.3 L 154.5 78.3 L 154.5 65.6 Z M 93.5 50.0 L 93.5 61.6 L 154.5 61.6 L 154.5 50.0 Z M 46.0 50.2 L 44.0 47.2 L 41.8 44.2 L 39.3 41.2 L 36.6 38.2 L 33.7 35.2 L 30.5 32.2 L 27.1 29.2 L 23.4 26.2 L 24.3 24.6 L 28.8 26.4 L 33.1 28.2 L 37.2 30.3 L 41.1 32.7 L 44.8 35.2 L 48.2 37.9 L 51.4 40.7 L 54.4 43.8 L 57.1 47.0 L 59.6 50.3 L 60.2 54.9 L 57.5 58.5 L 52.9 59.1 L 49.3 56.4 L 47.7 53.3 Z M 150.0 14.9 L 153.0 16.9 L 150.0 18.7 L 150.0 26.7 L 164.2 26.7 L 174.2 16.7 L 186.2 26.7 L 186.2 30.7 L 150.0 30.7 L 150.0 40.0 L 138.0 46.0 L 138.0 30.7 L 109.9 30.7 L 109.9 40.0 L 97.9 46.0 L 97.9 30.7 L 61.7 30.7 L 61.7 26.7 L 97.9 26.7 L 97.9 12.9 L 109.9 14.9 L 112.9 16.9 L 109.9 18.7 L 109.9 26.7 L 138.0 26.7 L 138.0 12.9 Z " />
</g>
</svg>
