<svg xmlns="http://www.w3.org/2000/svg" xmlns:xlink="http://www.w3.org/1999/xlink" version="1.1" baseProfile="full" viewBox="0 0 200 200" width="200" height="200">
<g fill="black">
<path d="M 129.5 185.7 L 111.4 184.5 L 96.4 182.3 L 84.2 179.3 L 74.3 175.2 L 66.6 170.1 L 60.5 164.1 L 56.0 157.3 L 53.87446804046631 152.81276597976685 L 53.8659574508667 152.81702127456666 L 51.9 155.2 L 48.4 159.0 L 44.9 162.6 L 41.4 166.1 L 37.8 169.5 L 34.3 172.8 L 30.7 176.0 L 27.2 179.2 L 23.7 182.2 L 23.47262830734253 182.40730953216553 L 23.7 186.5 L 20.3 185.3 L 11.5 176.9 L 13.1 175.7 L 20.7 170.7 L 24.6 168.1 L 32.6 162.9 L 36.7 160.2 L 40.9 157.6 L 43.7 155.8 L 43.7 89.3 L 13.9 89.3 L 13.9 85.3 L 43.7 85.3 L 49.7 80.3 L 60.7 89.3 L 55.7 93.3 L 55.7 150.7245283126831 L 59.3 154.8 L 64.7 160.0 L 70.7 164.2 L 77.8 167.6 L 86.7 170.3 L 98.0 172.2 L 112.2 173.5 L 129.8 173.9 L 151.1 173.5 L 176.8 172.3 L 188.0 171.8 L 177.4 185.5 L 151.4 186.0 Z M 155.7 140.7 L 152.6 137.5 L 149.2 134.2 L 145.5 131.0 L 141.5 127.9 L 137.2 124.7 L 132.6 121.6 L 128.1 118.50625 L 128.1 164.4 L 116.1 170.4 L 116.1 101.4 L 64.5 101.4 L 64.5 97.4 L 163.4 97.4 L 173.4 87.4 L 185.4 97.4 L 185.4 101.4 L 128.1 101.4 L 128.1 114.55901641845703 L 129.4 114.9 L 135.1 116.8 L 140.5 119.0 L 145.5 121.4 L 150.3 124.1 L 154.9 126.9 L 159.1 129.9 L 163.1 133.0 L 166.8 136.3 L 170.2 139.8 L 171.5 144.2 L 169.3 148.3 L 164.9 149.5 L 160.9 147.4 L 158.4 144.0 Z M 64.5 74.1 L 116.1 74.1 L 116.1 12.5 L 128.1 14.5 L 131.1 16.5 L 128.1 18.3 L 128.1 41.9 L 154.8 41.9 L 164.8 31.9 L 176.8 41.9 L 176.8 45.9 L 128.1 45.9 L 128.1 74.1 L 163.4 74.1 L 173.4 64.1 L 185.4 74.1 L 185.4 78.1 L 64.5 78.1 Z M 45.6 40.4 L 43.6 37.1 L 41.4 33.8 L 39.0 30.5 L 36.3 27.3 L 33.3 24.1 L 30.2 20.9 L 26.9 17.7 L 23.2 14.5 L 24.2 12.9 L 28.7 14.9 L 33.1 17.0 L 37.2 19.4 L 41.1 22.0 L 44.7 24.8 L 48.2 27.8 L 51.4 30.9 L 54.3 34.3 L 57.1 37.8 L 59.6 41.5 L 59.9 46.1 L 57.1 49.6 L 52.5 50.0 L 49.0 47.1 L 47.4 43.7 Z " />
</g>
</svg>
