<svg xmlns="http://www.w3.org/2000/svg" xmlns:xlink="http://www.w3.org/1999/xlink" version="1.1" baseProfile="full" viewBox="0 0 200 200" width="200" height="200">
<g fill="black">
<path d="M 130.2 183.7 L 112.0 182.5 L 97.0 180.6 L 84.7 177.7 L 74.9 173.9 L 67.0 169.2 L 61.0 163.7 L 56.3 157.3 L 54.15256481170654 153.12443151474 L 52.0 155.4 L 48.6 158.9 L 45.0 162.3 L 37.8 168.7 L 34.3 171.8 L 30.7 174.8 L 27.2 177.7 L 23.444505500793458 180.70439558029176 L 23.5 184.7 L 20.2 183.3 L 11.7 174.6 L 13.4 173.4 L 17.2 171.2 L 28.9 164.3 L 41.2 157.1 L 44.0 155.60232553482055 L 44.0 95.0 L 14.0 95.0 L 14.0 91.0 L 44.0 91.0 L 50.0 86.0 L 61.0 95.0 L 56.0 99.0 L 56.0 151.03207550048828 L 59.6 154.7 L 65.0 159.3 L 70.9 163.1 L 78.1 166.2 L 87.1 168.7 L 98.4 170.4 L 112.7 171.5 L 130.4 171.9 L 151.9 171.5 L 177.7 170.4 L 189.0 169.9 L 178.2 183.5 L 152.1 184.0 Z M 181.0 155.7 L 179.9 158.0 L 178.5 160.1 L 176.7 162.0 L 174.7 163.5 L 172.4 164.6 L 170.0 165.4 L 167.5 165.8 L 165.0 166.0 L 165.0 160.0 L 145.0 157.0 L 145.0 154.0 L 165.0 154.0 L 166.2 153.9 L 167.2 153.7 L 167.9 153.5 L 168.4 153.2 L 168.8 153.0 L 169.4 152.2 L 169.7 151.5 L 170.0 150.5 L 170.4 148.1 L 170.5 146.2 L 170.6 143.6 L 170.7 140.5 L 170.8 136.9 L 170.8 132.6 L 170.9 127.8 L 170.9 116.5 L 170.9692307472229 112.0 L 158.1747572898865 112.0 L 155.6 122.2 L 152.5 131.7 L 148.8 140.1 L 144.6 147.7 L 139.8 154.1 L 134.5 159.6 L 128.7 163.8 L 122.4 166.7 L 121.5 165.2 L 126.3 160.8 L 130.7 155.9 L 134.5 150.3 L 138.0 143.9 L 141.0 136.8 L 143.7 128.7 L 145.9 119.8 L 147.3181818008423 112.0 L 129.0 112.0 L 129.0 108.0 L 147.93084115982055 108.0 L 149.0 99.2 L 149.82309160232543 88.49980916976929 L 149.8 88.5 L 150.1 85.3 L 161.9 88.4 L 164.7 90.7 L 161.38963661193847 92.29152088165283 L 160.3 100.6 L 158.9247787475586 108.0 L 171.0 108.0 L 177.0 103.0 L 188.0 112.0 L 183.0 115.0 L 182.92258062362671 115.03225803375244 L 182.9 116.5 L 182.9 127.9 L 182.8 132.8 L 182.8 137.1 L 182.7 140.9 L 182.6 144.1 L 182.5 146.8 L 182.3 149.0 L 182.1 150.8 L 181.7 153.3 Z M 115.1 157.9 L 113.5 159.8 L 111.7 161.4 L 109.7 162.8 L 107.6 164.0 L 105.3 164.9 L 102.9 165.5 L 100.5 165.8 L 98.0 166.0 L 98.0 160.0 L 78.0 157.0 L 78.0 154.0 L 98.0 154.0 L 99.3 153.9 L 100.5 153.7 L 101.6 153.4 L 102.6 153.1 L 104.2 152.1 L 105.0 151.4 L 105.7 150.5 L 106.4 149.5 L 107.1 148.3 L 107.4 147.4 L 107.9 145.7 L 108.4 143.3 L 108.9 140.2 L 109.4 136.6 L 109.8 132.3 L 110.1 127.5 L 110.5 122.2 L 110.7 116.2 L 110.896875 112.0 L 97.12680416107177 112.0 L 94.9 121.0 L 91.9 129.5 L 88.5 136.8 L 84.5 142.9 L 80.0 147.7 L 75.0 151.0 L 69.5 152.7 L 64.0 152.8 L 63.9 151.1 L 68.3 149.2 L 72.1 146.5 L 75.3 143.0 L 78.2 138.6 L 80.9 133.1 L 83.2 126.4 L 85.2 118.5 L 86.34285717010498 112.0 L 65.0 112.0 L 65.0 108.0 L 86.9615385055542 108.0 L 88.0 99.0 L 88.8217532157898 88.49982023239136 L 88.8 88.5 L 89.1 85.3 L 100.9 88.4 L 103.7 90.7 L 100.38513240814208 92.2936863899231 L 99.3 100.5 L 97.91111106872559 108.0 L 111.0 108.0 L 117.0 103.0 L 128.0 112.0 L 123.0 115.0 L 122.74833755493164 115.10485935211182 L 122.7 116.7 L 122.4 122.8 L 122.1 128.3 L 121.7 133.4 L 121.3 137.9 L 120.8 141.9 L 120.2 145.4 L 119.6 148.5 L 118.8 151.2 L 117.8 153.7 L 116.6 155.9 Z M 156.6 79.8 L 154.7 81.2 L 152.7 82.5 L 150.6 83.5 L 148.4 84.4 L 146.1 85.1 L 143.8 85.6 L 141.4 85.9 L 139.0 86.0 L 139.0 80.0 L 119.0 77.0 L 119.0 74.0 L 139.0 74.0 L 140.4 73.9 L 141.9 73.7 L 143.2 73.5 L 144.4 73.1 L 145.6 72.6 L 146.8 72.0 L 147.9 71.3 L 148.9 70.5 L 150.0 69.6 L 151.0 68.5 L 152.0 67.2 L 153.0 65.5 L 154.0 63.4 L 154.9 60.9 L 155.8 58.0 L 156.6 54.7 L 157.4 50.9 L 158.0 46.8 L 158.5 42.3 L 158.7395833015442 40.0 L 126.26000003814697 40.0 L 122.9 47.6 L 117.9 56.1 L 112.0 63.8 L 105.2 70.6 L 97.6 76.5 L 89.3 81.3 L 80.1 85.1 L 70.2 87.8 L 69.7 86.1 L 78.6 81.6 L 86.6 76.7 L 93.7 71.2 L 99.9 65.2 L 105.4 58.5 L 110.0 51.3 L 113.8 43.3 L 114.98953485488892 40.0 L 77.0 40.0 L 77.0 36.0 L 116.43139533996582 36.0 L 116.9 34.7 L 119.3 25.3 L 120.74274606704712 16.102493476867675 L 120.7 16.1 L 121.2 13.1 L 132.7 16.8 L 135.4 19.2 L 131.8867949485779 20.72459840774536 L 130.4 27.9 L 127.77941179275513 36.0 L 159.0 36.0 L 165.0 31.0 L 176.0 40.0 L 171.0 43.0 L 170.53112583160402 43.19536428451538 L 170.5 43.6 L 169.9 48.5 L 169.2 53.0 L 168.3 57.2 L 167.4 61.1 L 166.3 64.8 L 165.0 68.1 L 163.6 71.1 L 161.9 73.9 L 160.1 76.4 L 158.4 78.1 Z M 46.0 50.2 L 44.0 47.2 L 41.8 44.2 L 39.3 41.2 L 36.6 38.2 L 33.7 35.2 L 30.5 32.2 L 27.1 29.2 L 23.4 26.2 L 24.3 24.6 L 28.8 26.4 L 33.1 28.2 L 37.2 30.3 L 41.1 32.7 L 44.8 35.2 L 48.2 37.9 L 51.4 40.7 L 54.4 43.8 L 57.1 47.0 L 59.6 50.3 L 60.2 54.9 L 57.5 58.5 L 52.9 59.1 L 49.3 56.4 L 47.7 53.3 Z " />
</g>
</svg>
