<svg xmlns="http://www.w3.org/2000/svg" xmlns:xlink="http://www.w3.org/1999/xlink" version="1.1" baseProfile="full" viewBox="0 0 200 200" width="200" height="200">
<g fill="black">
<path d="M 130.2 183.7 L 112.0 182.5 L 97.0 180.6 L 84.7 177.7 L 74.9 173.9 L 67.0 169.2 L 61.0 163.7 L 56.3 157.3 L 54.15256481170654 153.12443151474 L 52.0 155.4 L 48.6 158.9 L 45.0 162.3 L 37.8 168.7 L 34.3 171.8 L 30.7 174.8 L 27.2 177.7 L 23.444505500793458 180.70439558029176 L 23.5 184.7 L 20.2 183.3 L 11.7 174.6 L 13.4 173.4 L 17.2 171.2 L 28.9 164.3 L 41.2 157.1 L 44.0 155.60232553482055 L 44.0 95.0 L 14.0 95.0 L 14.0 91.0 L 44.0 91.0 L 50.0 86.0 L 61.0 95.0 L 56.0 99.0 L 56.0 151.03207550048828 L 59.6 154.7 L 65.0 159.3 L 70.9 163.1 L 78.1 166.2 L 87.1 168.7 L 98.4 170.4 L 112.7 171.5 L 130.4 171.9 L 151.9 171.5 L 177.7 170.4 L 189.0 169.9 L 178.2 183.5 L 152.1 184.0 Z M 130.0 156.9 L 150.0 156.9 L 151.2 156.8 L 152.1 156.7 L 152.7 156.5 L 153.0 156.3 L 153.2 156.2 L 153.4 156.0 L 153.6 155.6 L 153.8 155.0 L 153.9 154.1 L 154.0 152.9 L 154.0 87.9 L 63.6 87.9 L 63.6 83.9 L 164.8 83.9 L 174.8 73.9 L 186.8 83.9 L 186.8 87.9 L 166.0 87.9 L 166.0 152.9 L 165.8 155.5 L 165.4 158.0 L 164.6 160.4 L 163.4 162.6 L 161.7 164.6 L 159.7 166.3 L 157.4 167.5 L 155.0 168.3 L 152.5 168.8 L 150.0 168.9 L 150.0 162.9 L 130.0 159.9 Z M 94.9 105.2 L 121.4 105.2 L 127.4 100.2 L 138.4 109.2 L 133.4 113.2 L 133.4 145.2 L 121.4 151.2 L 121.4 139.2 L 94.9 139.2 L 94.9 151.2 L 82.9 157.2 L 82.9 99.2 Z M 94.9 109.2 L 94.9 135.2 L 121.4 135.2 L 121.4 109.2 Z M 154.2 72.2 L 151.7 69.3 L 148.6 66.3 L 145.1 63.2 L 141.0 60.1 L 136.5 56.9 L 131.4 53.6 L 125.9 50.1 L 121.35567903518677 47.25017156600952 L 119.7 50.4 L 114.6 57.5 L 108.6 63.8 L 101.8 69.5 L 94.1 74.3 L 85.6 78.3 L 76.2 81.4 L 75.5 79.8 L 83.9 74.9 L 91.2 69.8 L 97.7 64.4 L 103.2 58.6 L 107.8 52.4 L 111.6 45.9 L 114.00285711288453 40.1 L 72.3 40.1 L 72.3 36.1 L 115.28400001525878 36.1 L 116.6 31.4 L 117.9 23.5 L 118.4 15.0 L 118.43026485443116 15.001261043548585 L 118.5 12.7 L 130.4 15.5 L 133.3 17.6 L 129.90447368621827 19.464210510253906 L 129.2 25.1 L 127.0 34.2 L 126.27619047164917 36.1 L 152.5 36.1 L 162.5 26.1 L 174.5 36.1 L 174.5 40.1 L 124.75238094329833 40.1 L 123.8 42.6 L 122.39715690612793 45.26882352828979 L 127.5 46.6 L 133.8 48.7 L 139.6 51.1 L 145.0 53.6 L 149.9 56.2 L 154.3 58.9 L 158.4 61.8 L 162.0 64.8 L 165.1 68.0 L 167.9 71.4 L 168.5 75.9 L 165.9 79.6 L 161.4 80.3 L 157.6 77.6 L 156.2 75.0 Z M 46.0 50.2 L 44.0 47.2 L 41.8 44.2 L 39.3 41.2 L 36.6 38.2 L 33.7 35.2 L 30.5 32.2 L 27.1 29.2 L 23.4 26.2 L 24.3 24.6 L 28.8 26.4 L 33.1 28.2 L 37.2 30.3 L 41.1 32.7 L 44.8 35.2 L 48.2 37.9 L 51.4 40.7 L 54.4 43.8 L 57.1 47.0 L 59.6 50.3 L 60.2 54.9 L 57.5 58.5 L 52.9 59.1 L 49.3 56.4 L 47.7 53.3 Z " />
</g>
</svg>
