<svg xmlns="http://www.w3.org/2000/svg" xmlns:xlink="http://www.w3.org/1999/xlink" version="1.1" baseProfile="full" viewBox="0 0 200 200" width="200" height="200">
<g fill="black">
<path d="M 129.9 184.6 L 111.8 183.4 L 97.0 181.4 L 84.9 178.6 L 75.1 174.8 L 67.3 170.0 L 61.3 164.5 L 56.7 158.1 L 54.59188461303711 153.82353734970093 L 52.5 156.1 L 49.1 159.7 L 45.6 163.1 L 42.0 166.3 L 38.5 169.5 L 35.0 172.6 L 31.5 175.6 L 24.5 181.4 L 24.344780254364014 181.52417583465575 L 24.4 185.5 L 21.0 184.2 L 12.5 175.5 L 14.2 174.3 L 18.0 172.1 L 21.8 169.8 L 25.7 167.5 L 29.6 165.1 L 33.6 162.8 L 41.8 158.0 L 44.5 156.45714282989502 L 44.5 95.4 L 14.8 95.4 L 14.8 91.4 L 44.5 91.4 L 50.5 86.4 L 61.5 95.4 L 56.5 99.4 L 56.5 151.86792449951173 L 60.0 155.5 L 65.4 160.2 L 71.3 164.0 L 78.3 167.1 L 87.2 169.5 L 98.5 171.3 L 112.6 172.4 L 130.1 172.8 L 151.4 172.4 L 176.9 171.2 L 188.2 170.8 L 177.5 184.4 L 151.6 184.9 Z M 154.1 156.8 L 143.1 148.1 L 136.64097423553466 140.56446990966796 L 129.4 143.5 L 117.8 147.4 L 105.6 150.7 L 93.0 153.2 L 79.8 154.9 L 66.1 155.8 L 65.8 154.1 L 79.2 151.2 L 91.8 148.0 L 103.9 144.3 L 115.3 140.3 L 126.1 135.7 L 131.25530729293823 133.1223464012146 L 125.3 123.1 L 118.5 107.0 L 117.2826340675354 102.80685081481934 L 67.2 107.9 L 66.7 104.0 L 116.1685076713562 98.9693042755127 L 113.1 88.4 L 111.33856353759765 79.83859968185425 L 69.1 83.9 L 68.8 80.0 L 110.5459171295166 75.98596954345703 L 108.8 67.5 L 107.43330240249634 56.839758491516115 L 67.2 60.9 L 66.7 57.0 L 106.93330240249634 52.939758491516116 L 105.8 44.1 L 104.06889953613282 19.191387557983397 L 104.0 19.2 L 103.9 15.9 L 116.0 17.7 L 119.1 19.5 L 116.25087146759033 21.418800830841064 L 117.7 42.9 L 118.87276878356934 51.734858226776126 L 153.88184843063354 48.20183181762695 L 162.8 37.2 L 175.7 46.0 L 176.2 49.9 L 119.39023389816285 55.63309564590454 L 120.7 65.5 L 122.55692825317382 74.8310646057129 L 150.8345980644226 72.11205787658692 L 159.9 61.2 L 172.8 70.0 L 173.1 73.9 L 123.3241081237793 78.68614349365234 L 124.7 85.6 L 128.32594060897827 97.73295516967774 L 162.8668625831604 94.22031908035278 L 171.8 83.2 L 184.7 92.0 L 185.2 95.9 L 129.47182836532593 101.56727170944214 L 129.9 103.0 L 136.1 117.8 L 141.8055214881897 127.38844585418701 L 145.9 125.0 L 154.9 119.0 L 163.3 112.3 L 171.1 105.2 L 171.13547592163087 105.23807172775268 L 171.4 105.0 L 179.3 114.0 L 179.9 117.6 L 176.19985485076904 116.54281568527222 L 170.4 121.3 L 161.0 127.8 L 151.0 133.7 L 147.84846591949463 135.29077434539795 L 151.4 139.5 L 160.5 146.6 L 170.5 151.4 L 175.5597131729126 152.57457628250123 L 181.0 129.0 L 183.0 129.0 L 181.08785429000855 153.85789470672609 L 181.7 154.0 L 185.6 156.3 L 186.9 160.7 L 184.6 164.6 L 180.2 165.9 L 166.6 162.8 Z M 46.5 50.4 L 44.5 47.4 L 42.3 44.3 L 39.9 41.3 L 37.2 38.3 L 34.3 35.4 L 31.2 32.4 L 27.8 29.3 L 24.2 26.3 L 25.0 24.8 L 29.5 26.5 L 33.8 28.4 L 37.9 30.5 L 41.8 32.9 L 45.4 35.4 L 48.8 38.1 L 51.9 41.0 L 54.9 44.0 L 57.6 47.3 L 60.1 50.7 L 60.6 55.2 L 57.9 58.8 L 53.3 59.4 L 49.7 56.6 L 48.2 53.5 Z M 141.4 36.1 L 140.1 34.4 L 138.5 32.6 L 136.7 30.9 L 134.8 29.1 L 132.6 27.3 L 130.2 25.5 L 127.6 23.6 L 124.6 22.1 L 125.2 20.4 L 128.5 21.3 L 131.8 21.8 L 134.9 22.6 L 137.9 23.5 L 140.7 24.5 L 143.4 25.7 L 145.9 27.0 L 148.3 28.5 L 150.6 30.1 L 152.7 31.8 L 154.0 36.2 L 151.8 40.3 L 147.5 41.5 L 143.4 39.4 L 142.5 37.8 Z " />
</g>
</svg>
