<svg xmlns="http://www.w3.org/2000/svg" xmlns:xlink="http://www.w3.org/1999/xlink" version="1.1" baseProfile="full" viewBox="0 0 200 200" width="200" height="200">
<g fill="black">
<path d="M 125.6 186.7 L 105.7 185.5 L 89.5 183.5 L 76.4 180.5 L 65.9 176.6 L 57.8 171.7 L 51.8 165.9 L 47.4 159.3 L 45.833628273010255 155.48849554061889 L 44.7 157.0 L 42.1 160.6 L 39.4 164.1 L 34.0 170.7 L 28.6 176.9 L 26.0 179.9 L 23.578771686553956 182.5902536392212 L 24.2 186.6 L 20.7 185.8 L 11.1 178.2 L 12.6 176.9 L 15.6 174.6 L 18.8 172.2 L 21.9 169.8 L 25.2 167.3 L 28.4 164.8 L 31.8 162.3 L 35.2 159.7 L 36.7 158.62857141494752 L 36.7 94.1 L 14.9 94.1 L 14.9 90.1 L 36.7 90.1 L 42.7 85.1 L 53.7 94.1 L 48.7 98.1 L 48.7 153.9 L 48.46484851837158 154.0175757408142 L 50.9 156.9 L 56.0 161.7 L 61.8 165.7 L 69.2 168.9 L 78.6 171.5 L 90.9 173.3 L 106.5 174.5 L 125.8 174.9 L 149.4 174.5 L 177.8 173.3 L 189.2 172.9 L 178.3 186.5 L 149.6 187.0 Z M 159.1 154.9 L 157.3 151.8 L 155.3 148.8 L 154.3309365272522 147.47854986190796 L 149.1 148.9 L 140.0 151.0 L 130.9 152.9 L 122.0 154.5 L 113.1 156.0 L 104.4 157.4 L 95.7 158.7 L 87.1 159.8 L 78.6 160.8 L 74.27960691452026 161.26289930343628 L 72.4 164.5 L 70.2 161.7 L 67.4 149.8 L 69.4 149.7 L 86.2 149.1 L 90.11226959228516 148.91589317321777 L 94.1 141.7 L 98.1 134.5 L 100.0 131.0 L 101.9 127.6 L 103.6 124.1 L 104.47575759887695 122.4 L 59.5 122.4 L 59.5 118.4 L 158.4 118.4 L 168.4 108.4 L 180.4 118.4 L 180.4 122.4 L 117.9 122.4 L 117.2 123.4 L 112.6 129.8 L 110.0 132.9 L 107.4 136.1 L 104.7 139.2 L 101.8 142.3 L 98.8 145.4 L 95.7 148.4 L 95.39511260986328 148.66005096435546 L 103.4 148.2 L 112.2 147.6 L 121.1 147.0 L 130.1 146.4 L 139.2 145.7 L 148.5 145.1 L 152.40835027694703 144.93543787002562 L 150.7 142.8 L 148.2 139.8 L 145.6 136.7 L 142.8 133.6 L 139.7 130.5 L 140.7 129.1 L 148.5 133.1 L 152.1 135.3 L 155.6 137.7 L 158.8 140.2 L 161.9 142.9 L 164.8 145.7 L 167.6 148.7 L 170.2 151.7 L 172.6 154.9 L 173.1 159.4 L 170.4 163.1 L 165.9 163.7 L 162.2 161.0 L 160.7 157.9 Z M 163.9 98.7 L 163.9 102.7 L 76.0 102.7 L 76.0 98.7 L 149.6777777671814 98.7 L 155.9 91.7 Z M 57.3 71.9 L 55.7 67.5 L 57.6 63.4 L 58.9 62.6 L 60.2 61.3 L 61.6 59.5 L 62.9 57.2 L 64.2 54.5 L 65.3 51.3 L 66.3 47.6 L 67.3 43.5 L 68.2 38.9 L 68.7 33.9 L 70.5 33.9 L 71.1 38.9 L 71.45 41.7 L 114.0 41.7 L 114.0 26.8 L 72.4 26.8 L 72.4 22.8 L 148.4 22.8 L 158.4 12.8 L 170.4 22.8 L 170.4 26.8 L 126.0 26.8 L 126.0 41.7 L 170.8 41.7 L 176.8 36.7 L 187.8 45.7 L 182.8 48.7 L 179.70823526382446 49.988235282897946 L 176.9 54.0 L 175.4 55.9 L 173.9 57.7 L 172.3 59.6 L 170.7 61.3 L 168.9 63.0 L 167.5 64.9 L 166.0 64.0 L 166.9 61.9 L 167.3 59.5 L 168.3 54.9 L 168.9 52.7 L 169.4 50.4 L 170.4 46.0 L 170.45217390060424 45.7 L 126.0 45.7 L 126.0 87.5 L 114.0 93.5 L 114.0 45.7 L 71.83333330154419 45.7 L 72.0 48.2 L 72.0 52.3 L 71.7 56.3 L 71.2 59.9 L 70.4 63.4 L 69.3 66.6 L 67.7 69.5 L 65.7 72.2 L 61.4 73.7 Z M 108.4 79.5 L 108.4 83.5 L 71.0 83.5 L 71.0 79.5 L 90.21818180084229 79.5 L 98.4 70.5 Z M 168.9 79.5 L 168.9 83.5 L 131.5 83.5 L 131.5 79.5 L 150.71818180084227 79.5 L 158.9 70.5 Z M 163.9 61.5 L 163.9 65.5 L 131.5 65.5 L 131.5 61.5 L 149.6777777671814 61.5 L 155.9 54.5 Z M 108.4 61.5 L 108.4 65.5 L 74.6 65.5 L 74.6 61.5 L 94.1777777671814 61.5 L 100.4 54.5 Z M 37.9 46.6 L 36.6 43.5 L 35.0 40.4 L 33.3 37.3 L 31.5 34.3 L 29.4 31.3 L 27.2 28.3 L 24.8 25.3 L 22.1 22.4 L 23.2 20.9 L 26.7 23.0 L 30.2 25.0 L 33.5 27.3 L 36.6 29.8 L 39.5 32.4 L 42.3 35.3 L 44.8 38.4 L 47.1 41.6 L 49.2 44.9 L 51.2 48.5 L 51.1 53.0 L 47.8 56.3 L 43.3 56.1 L 40.0 52.9 L 39.0 49.7 Z " />
</g>
</svg>
