<svg xmlns="http://www.w3.org/2000/svg" xmlns:xlink="http://www.w3.org/1999/xlink" version="1.1" baseProfile="full" viewBox="0 0 200 200" width="200" height="200">
<g fill="black">
<path d="M 129.9 184.6 L 111.8 183.4 L 97.0 181.4 L 84.9 178.6 L 75.1 174.8 L 67.3 170.0 L 61.3 164.5 L 56.7 158.1 L 54.59188461303711 153.82353734970093 L 52.5 156.1 L 49.1 159.7 L 45.6 163.1 L 42.0 166.3 L 38.5 169.5 L 35.0 172.6 L 31.5 175.6 L 24.5 181.4 L 24.344780254364014 181.52417583465575 L 24.4 185.5 L 21.0 184.2 L 12.5 175.5 L 14.2 174.3 L 18.0 172.1 L 21.8 169.8 L 25.7 167.5 L 29.6 165.1 L 33.6 162.8 L 41.8 158.0 L 44.5 156.45714282989502 L 44.5 95.4 L 14.8 95.4 L 14.8 91.4 L 44.5 91.4 L 50.5 86.4 L 61.5 95.4 L 56.5 99.4 L 56.5 151.86792449951173 L 60.0 155.5 L 65.4 160.2 L 71.3 164.0 L 78.3 167.1 L 87.2 169.5 L 98.5 171.3 L 112.6 172.4 L 130.1 172.8 L 151.4 172.4 L 176.9 171.2 L 188.2 170.8 L 177.5 184.4 L 151.6 184.9 Z M 181.7 128.4 L 183.7 128.4 L 181.7 153.4 L 185.3 155.8 L 187.7 159.4 L 185.3 163.0 L 181.7 165.4 L 163.7 165.4 L 161.1 165.2 L 158.6 164.8 L 156.2 164.0 L 154.0 162.8 L 151.9 161.1 L 150.3 159.1 L 149.1 156.8 L 148.3 154.4 L 147.8 151.9 L 147.7 149.4 L 147.7 118.2 L 147.5 118.7 L 140.5 132.2 L 132.5 144.0 L 123.4 154.2 L 113.3 162.6 L 102.3 169.1 L 101.4 167.5 L 110.9 159.6 L 119.5 150.6 L 127.1 140.2 L 133.9 128.5 L 139.7 115.4 L 144.6 100.9 L 146.5354037284851 93.3 L 118.2 93.3 L 118.2 89.3 L 127.9 89.3 L 127.9 29.8 L 121.6 29.8 L 121.6 25.8 L 159.7 25.8 L 169.7 15.8 L 181.7 25.8 L 181.7 29.8 L 167.04764146804808 29.8 L 165.3 49.3 L 162.4 68.9 L 158.4 87.1 L 157.75060243606566 89.3 L 166.9181818008423 89.3 L 175.1 80.3 L 185.1 89.3 L 185.1 93.3 L 156.56987953186035 93.3 L 153.5 103.7 L 153.4375 103.85625 L 159.7 104.9 L 162.7 106.9 L 159.7 108.7 L 159.7 150.6 L 159.9 151.5 L 160.1 152.1 L 160.3 152.4 L 160.4 152.6 L 160.6 152.8 L 160.9 153.0 L 161.5 153.1 L 162.4 153.3 L 163.7 153.4 L 175.7 153.4 Z M 107.5 133.4 L 106.4 130.4 L 105.17848100662232 127.58111000061035 L 103.1 129.1 L 98.2 132.6 L 93.5 135.8 L 89.1 138.8 L 84.9 141.7 L 81.0 144.3 L 77.4 146.8 L 74.1 149.1 L 71.87009868621826 150.66093091964723 L 71.7 154.8 L 68.4 153.2 L 60.5 144.0 L 62.2 143.0 L 65.3 141.5 L 68.7 139.8 L 69.0 139.66578950881959 L 69.0 19.8 L 81.0 25.8 L 102.6 25.8 L 108.6 20.8 L 119.6 29.8 L 114.6 33.8 L 114.6 90.7 L 102.6 96.7 L 102.6 90.7 L 81.0 90.7 L 81.0 134.21489362716676 L 85.5 132.3 L 90.4 130.1 L 95.7 128.0 L 101.4 125.8 L 103.8680850982666 124.9361701965332 L 103.5 124.2 L 101.6 120.9 L 99.5 117.4 L 97.2 113.8 L 94.7 109.9 L 91.8 106.1 L 93.1 104.8 L 96.9 107.8 L 100.7 110.7 L 104.1 113.6 L 107.2 116.6 L 110.0 119.6 L 112.6 122.6 L 114.9 125.7 L 117.0 128.7 L 118.8 131.8 L 120.3 134.9 L 119.9 139.5 L 116.5 142.5 L 111.9 142.1 L 108.9 138.7 L 108.3 136.1 Z M 139.9 29.8 L 139.9 89.3 L 147.55403728485106 89.3 L 148.7 84.8 L 151.8 67.2 L 154.0 48.1 L 154.99162559509278 29.8 Z M 81.0 58.4 L 81.0 86.7 L 102.6 86.7 L 102.6 58.4 Z M 46.5 50.4 L 44.5 47.4 L 42.3 44.3 L 39.9 41.3 L 37.2 38.3 L 34.3 35.4 L 31.2 32.4 L 27.8 29.3 L 24.2 26.3 L 25.0 24.8 L 29.5 26.5 L 33.8 28.4 L 37.9 30.5 L 41.8 32.9 L 45.4 35.4 L 48.8 38.1 L 51.9 41.0 L 54.9 44.0 L 57.6 47.3 L 60.1 50.7 L 60.6 55.2 L 57.9 58.8 L 53.3 59.4 L 49.7 56.6 L 48.2 53.5 Z M 81.0 29.8 L 81.0 54.4 L 102.6 54.4 L 102.6 29.8 Z " />
</g>
</svg>
