<svg xmlns="http://www.w3.org/2000/svg" xmlns:xlink="http://www.w3.org/1999/xlink" version="1.1" baseProfile="full" viewBox="0 0 200 200" width="200" height="200">
<g fill="black">
<path d="M 130.2 184.5 L 112.0 183.3 L 96.9 181.3 L 84.7 178.4 L 74.9 174.6 L 67.0 169.9 L 60.9 164.3 L 56.3 157.9 L 54.15306997299194 153.66577682495117 L 52.1 155.9 L 48.6 159.5 L 45.0 162.9 L 41.4 166.2 L 37.9 169.3 L 30.7 175.5 L 23.7 181.3 L 23.44587907791138 181.50329666137696 L 23.5 185.4 L 20.2 184.1 L 11.7 175.4 L 13.4 174.2 L 17.2 172.0 L 21.0 169.7 L 25.0 167.3 L 28.9 165.0 L 33.0 162.6 L 37.0 160.2 L 41.2 157.7 L 44.0 156.13720932006837 L 44.0 94.9 L 14.0 94.9 L 14.0 90.9 L 44.0 90.9 L 50.0 85.9 L 61.0 94.9 L 56.0 98.9 L 56.0 151.63333330154418 L 59.6 155.3 L 65.0 160.0 L 71.0 163.8 L 78.1 166.9 L 87.1 169.4 L 98.4 171.2 L 112.7 172.3 L 130.4 172.7 L 151.9 172.3 L 177.7 171.1 L 189.0 170.6 L 178.2 184.3 L 152.1 184.8 Z M 166.2 154.0 L 161.4 150.0 L 157.0 145.7 L 153.1 141.1 L 149.6 136.1 L 146.7 130.8 L 144.5 125.87200002670288 L 144.5 164.2 L 133.5 169.7 L 133.5 114.0 L 115.0 114.0 L 115.0 164.0 L 103.0 170.0 L 103.0 130.34761905670166 L 100.5 133.8 L 96.0 139.1 L 91.2 143.7 L 86.2 147.6 L 81.0 150.9 L 75.5 153.4 L 69.9 155.0 L 64.2 155.8 L 63.7 154.1 L 68.6 151.5 L 73.1 148.6 L 77.3 145.4 L 81.4 141.8 L 85.2 137.7 L 88.8 133.1 L 92.3 128.0 L 95.5 122.4 L 98.6 116.2 L 99.54285717010498 114.0 L 80.0 114.0 L 80.0 110.0 L 103.0 110.0 L 103.0 91.0 L 62.0 91.0 L 62.0 87.0 L 103.0 87.0 L 103.0 65.0 L 80.0 65.0 L 80.0 61.0 L 103.0 61.0 L 103.0 45.0 L 73.0 45.0 L 73.0 41.0 L 138.85625 41.0 L 139.6 39.3 L 140.6 36.1 L 141.7 32.9 L 142.7 30.0 L 143.8 27.1 L 144.8 24.3 L 145.7 21.6 L 146.6 19.0 L 147.4 16.5 L 147.8126214027405 15.14424409866333 L 147.7 15.1 L 148.0222222328186 14.455555534362793 L 148.1 14.2 L 148.14014873504638 14.219702625274659 L 148.7 13.1 L 158.9 19.5 L 160.7 22.7 L 156.31140422821045 22.99753189086914 L 155.7 23.8 L 152.3 28.4 L 150.4 30.8 L 148.4 33.2 L 146.4 35.7 L 144.2 38.2 L 141.8 40.7 L 141.5666666984558 41.0 L 160.0 41.0 L 170.0 31.0 L 182.0 41.0 L 182.0 45.0 L 144.5 45.0 L 144.5 61.0 L 156.5 61.0 L 162.0 56.0 L 172.5 65.0 L 167.5 68.5 L 167.5 87.0 L 173.7777777671814 87.0 L 180.0 80.0 L 188.0 87.0 L 188.0 91.0 L 167.5 91.0 L 167.5 118.0 L 156.5 123.5 L 156.5 114.0 L 144.5 114.0 L 144.5 114.83125 L 146.3 117.7 L 149.5 122.5 L 152.8 127.0 L 156.3 131.1 L 160.0 134.8 L 164.0 138.3 L 168.2 141.4 L 172.8 144.2 L 177.6 146.7 L 182.7 149.0 L 188.5 151.7 L 177.2 160.9 L 171.5 157.7 Z M 115.0 91.0 L 115.0 110.0 L 133.5 110.0 L 133.5 91.0 Z M 144.5 91.0 L 144.5 110.0 L 156.5 110.0 L 156.5 91.0 Z M 115.0 65.0 L 115.0 87.0 L 133.5 87.0 L 133.5 65.0 Z M 144.5 65.0 L 144.5 87.0 L 156.5 87.0 L 156.5 65.0 Z M 115.0 45.0 L 115.0 61.0 L 133.5 61.0 L 133.5 45.0 Z M 46.0 49.7 L 44.0 46.6 L 41.8 43.6 L 39.3 40.5 L 36.6 37.5 L 33.6 34.5 L 30.5 31.5 L 27.1 28.4 L 23.4 25.5 L 24.3 23.9 L 28.8 25.7 L 33.2 27.5 L 37.3 29.7 L 41.1 32.0 L 44.8 34.6 L 48.2 37.3 L 51.4 40.2 L 54.4 43.3 L 57.2 46.5 L 59.7 49.9 L 60.2 54.5 L 57.4 58.1 L 52.9 58.6 L 49.3 55.9 L 47.7 52.8 Z M 100.5 31.6 L 100.0 29.4 L 99.4 27.3 L 97.8 23.1 L 96.9 21.1 L 95.8 19.1 L 94.7 17.0 L 93.2 15.3 L 94.3 13.9 L 96.3 15.2 L 98.6 16.4 L 100.7 17.8 L 102.8 19.3 L 104.7 21.1 L 106.5 23.0 L 108.2 25.1 L 109.8 27.3 L 111.3 29.7 L 112.7 32.2 L 112.3 36.8 L 108.9 39.8 L 104.3 39.4 L 101.3 36.0 L 101.0 33.7 Z " />
</g>
</svg>
