<svg xmlns="http://www.w3.org/2000/svg" xmlns:xlink="http://www.w3.org/1999/xlink" version="1.1" baseProfile="full" viewBox="0 0 200 200" width="200" height="200">
<g fill="black">
<path d="M 116.9 130.5 L 116.9 134.5 L 89.0 134.5 L 89.0 174.0 L 100.4 174.0 L 110.4 164.0 L 122.4 174.0 L 122.4 178.0 L 27.7 178.0 L 27.7 181.0 L 15.7 187.0 L 15.7 124.5 L 27.7 130.5 L 94.9 130.5 L 104.9 120.5 Z M 147.6 175.0 L 167.6 175.0 L 168.8 174.9 L 169.7 174.7 L 170.3 174.5 L 170.7 174.4 L 170.9 174.2 L 171.0 174.0 L 171.2 173.7 L 171.4 173.1 L 171.5 172.2 L 171.6 171.0 L 171.6 13.0 L 183.6 15.0 L 186.6 17.0 L 183.6 18.8 L 183.6 171.0 L 183.5 173.5 L 183.0 176.0 L 182.2 178.4 L 181.0 180.7 L 179.3 182.7 L 177.3 184.3 L 175.1 185.6 L 172.7 186.4 L 170.2 186.8 L 167.6 187.0 L 167.6 181.0 L 147.6 178.0 Z M 27.7 134.5 L 27.7 174.0 L 46.0 174.0 L 46.0 134.5 Z M 58.0 134.5 L 58.0 174.0 L 77.0 174.0 L 77.0 134.5 Z M 139.0 30.0 L 142.0 32.0 L 139.0 33.8 L 139.0 148.0 L 127.0 154.0 L 127.0 28.0 Z M 97.5 106.5 L 92.4 101.7 L 87.7 96.7 L 83.3 91.3 L 79.3 85.6 L 75.7 79.6 L 72.6 73.2 L 71.5 70.51111106872558 L 71.5 119.5 L 59.5 125.5 L 59.5 77.70227270126342 L 57.2 81.1 L 52.4 87.2 L 47.2 92.9 L 41.6 98.1 L 35.6 103.0 L 29.3 107.4 L 22.5 111.2 L 15.3 114.5 L 14.4 112.9 L 20.4 108.0 L 26.0 103.1 L 31.3 98.0 L 36.3 92.7 L 40.8 87.2 L 45.0 81.5 L 48.9 75.5 L 52.3 69.3 L 55.4 62.7 L 56.4 60.2 L 16.6 60.2 L 16.6 56.2 L 59.5 56.2 L 59.5 34.48157892227173 L 55.6 35.2 L 47.7 36.4 L 39.5 37.3 L 31.1 38.0 L 22.5 38.3 L 22.2 36.6 L 30.5 34.3 L 38.6 32.1 L 46.4 29.9 L 53.9 27.8 L 61.2 25.6 L 68.1 23.3 L 74.9 20.9 L 81.3 18.5 L 87.4 16.0 L 92.43958330154419 13.77916669845581 L 92.4 13.7 L 92.47260217666626 13.764616012573242 L 93.3 13.4 L 93.99830865859985 15.1224946975708 L 102.4 22.6 L 102.6 25.8 L 98.70978994369507 24.124217224121093 L 97.8 24.5 L 91.4 26.6 L 84.7 28.7 L 77.8 30.5 L 71.5 31.9875 L 71.5 56.2 L 92.3 56.2 L 102.3 46.2 L 114.3 56.2 L 114.3 60.2 L 71.5 60.2 L 71.5 61.60249996185303 L 73.6 64.7 L 77.7 70.3 L 81.7 75.6 L 86.0 80.5 L 90.4 85.2 L 94.9 89.5 L 99.7 93.5 L 104.7 97.2 L 109.9 100.5 L 115.4 103.6 L 119.8 106.2 L 108.7 115.0 L 102.9 110.9 Z " />
</g>
</svg>
